<svg width="262" height="345" viewBox="0 0 262 345" fill="none" xmlns="http://www.w3.org/2000/svg">
<path d="M130.83 0.5C202.809 0.500041 261.16 58.8508 261.16 130.83V344.145H0.5V130.83L0.510742 129.146C1.41259 57.9425 59.4131 0.5 130.83 0.5Z" stroke="black"/>
<path d="M131.127 6.15527C200.345 6.15534 256.458 62.2675 256.458 131.485V339.646H5.79736V131.485C5.7974 62.2675 61.9096 6.15527 131.127 6.15527Z" stroke="black"/>
<mask id="mask0_388_26848" style="mask-type:alpha" maskUnits="userSpaceOnUse" x="7" y="136" width="249" height="88">
<path d="M7.01174 196.053L7.01178 223.888H255.958V136.923L239.293 136.922C233.528 136.922 227.825 138.109 222.539 140.409L189.626 154.726C185.926 156.335 182.014 157.403 178.009 157.897L161.946 159.876L147.096 157.153L141.47 155.71C134.225 153.853 126.614 153.964 119.426 156.032L87.8123 165.128L18.1889 181.993C11.6453 183.508 7.01173 189.336 7.01174 196.053Z" fill="white"/>
</mask>
<g mask="url(#mask0_388_26848)">
<path d="M167.661 174.157C171.196 172.483 175.095 171.725 179 171.952L182.784 172.172M163.785 172.172L165.422 171.345C169.948 169.057 175.084 168.262 180.091 169.074L186.376 170.093M160.193 169.431L163.797 167.661C168.453 165.374 173.724 164.657 178.822 165.618L190.535 167.824M187.51 166.69L189.219 165.189C192.139 162.623 195.893 161.208 199.78 161.208H203.39M182.784 165.934L185.585 163.134C188.741 159.978 193.071 158.283 197.531 158.46L207.266 158.845" stroke="black" stroke-linecap="round"/>
<path d="M245.138 206.086C237.005 204.688 228.621 203.836 220.537 205.547C212.571 207.239 205.598 211.571 199.749 217.191C187.863 228.607 180.854 244.011 170.844 256.982C165.456 263.955 159.143 270.326 151.28 274.338C150.925 274.519 150.683 273.925 151.039 273.744C165.946 266.127 174.651 250.716 183.5 237C192.349 223.284 202.376 209.827 218.091 205.491C226.919 203.061 236.231 203.905 245.22 205.452C245.615 205.522 245.541 206.153 245.138 206.086Z" fill="white" stroke="black"/>
<path d="M248.035 213.203C240.371 211.883 232.505 211.051 224.841 212.388C217.178 213.725 210.594 217.299 204.858 222.273C193.174 232.408 186.123 246.61 177.334 259.176C172.367 266.283 166.759 273.068 159.712 278.096C159.387 278.329 159.002 277.822 159.327 277.588C172.372 268.274 179.989 253.573 188.796 240.456C197.074 228.126 207.379 215.857 222.287 212.264C230.739 210.228 239.581 211.106 248.117 212.57C248.512 212.64 248.437 213.27 248.035 213.203Z" fill="white" stroke="black"/>
<path d="M250.928 220.314C243.737 219.078 236.38 218.269 229.167 219.284C222.078 220.277 215.562 223.224 209.926 227.612C198.538 236.473 191.361 249.463 183.522 261.42C178.96 268.381 174.043 275.171 167.97 280.836C167.68 281.111 167.291 280.595 167.585 280.328C178.733 269.931 185.602 255.987 194.399 243.658C202.489 232.318 212.729 221.821 226.778 219.038C234.756 217.463 243.003 218.306 251.01 219.681C251.405 219.751 251.33 220.381 250.928 220.314Z" fill="white" stroke="black"/>
<path d="M253.822 227.425C247.103 226.273 240.257 225.487 233.484 226.222C226.768 226.943 220.47 229.331 214.926 233.174C203.967 240.781 196.604 252.526 189.521 263.705C185.221 270.494 180.785 277.237 175.464 283.232C175.202 283.533 174.701 283.136 174.963 282.836C184.43 272.154 190.845 259.179 199.448 247.825C207.43 237.295 217.563 228.142 230.904 225.925C238.507 224.658 246.303 225.491 253.896 226.795C254.291 226.865 254.217 227.495 253.814 227.428L253.822 227.425Z" fill="white" stroke="black"/>
<path d="M256.718 234.542C250.413 233.462 243.998 232.704 237.635 233.217C231.369 233.727 225.367 235.587 220.002 238.86C209.454 245.302 202.021 255.84 195.371 266.15C191.245 272.555 187.284 279.058 182.662 285.101C182.417 285.422 181.916 285.026 182.161 284.705C190.28 274.073 196.418 261.977 204.928 251.648C208.855 246.884 213.279 242.463 218.431 239.084C223.555 235.725 229.306 233.578 235.388 232.793C242.494 231.886 249.713 232.686 256.778 233.899C257.173 233.969 257.099 234.599 256.696 234.533L256.718 234.542Z" fill="white" stroke="black"/>
<path d="M308.041 176.396C299.891 175.145 292.669 171.104 286.018 166.573C279.082 161.848 272.568 156.494 265.196 152.377C261.596 150.367 257.788 148.667 253.767 147.617C248.609 146.27 243.223 146.111 237.952 146.864C226.773 148.453 216.729 153.765 207.136 159.257C202.236 162.062 197.364 164.908 192.349 167.519C187.335 170.13 182.077 172.645 176.806 174.938C175.513 175.498 172.663 176.715 171.363 177.254C171.048 177.385 171.091 177.686 171.091 176.805C181.792 172.37 193.592 166.455 203.586 160.694C213.143 155.188 222.872 149.531 233.823 147.092C239.059 145.925 244.502 145.517 249.831 146.291C254.003 146.899 258.017 148.246 261.796 150.035C269.496 153.675 276.182 158.967 283.047 163.858C289.912 168.749 296.898 173.315 305.098 175.29C306.119 175.532 307.148 175.732 308.184 175.891C308.527 175.947 308.377 176.444 308.041 176.389V176.396Z" fill="white" stroke="black"/>
<path d="M302.356 179.601C287.461 176.444 276.685 164.89 264.065 157.508C256.992 153.37 249.275 150.714 240.898 151.014C230.823 151.381 221.365 155.293 212.655 159.925C207.767 162.521 203.031 165.371 198.205 168.061C193.247 170.824 187.591 173.779 182.439 176.188C182.14 176.329 181.877 175.895 182.175 175.755C186.835 173.579 192.019 170.884 196.527 168.415C201.034 165.945 205.215 163.442 209.597 161.013C218.071 156.32 227.058 152.102 236.849 150.847C241.446 150.26 246.133 150.367 250.655 151.395C254.253 152.216 257.707 153.571 260.973 155.232C267.782 158.697 273.801 163.389 279.979 167.774C286.816 172.626 294.076 177.332 302.501 179.114C302.827 179.18 302.688 179.668 302.362 179.594L302.356 179.601Z" fill="white" stroke="black"/>
<path d="M300.414 183.799C286.518 180.048 276.29 169.369 264.273 162.294C257.72 158.43 250.543 155.726 242.77 155.646C233.479 155.553 224.513 158.663 216.344 162.688C207.115 167.233 198.537 172.906 189.377 177.559C189.079 177.705 188.816 177.278 189.114 177.125C205.132 168.989 220.318 156.781 239.026 155.279C246.917 154.645 254.434 156.507 261.354 160.091C267.796 163.429 273.537 167.847 279.396 172.025C285.88 176.651 292.689 181.189 300.553 183.312C300.871 183.399 300.74 183.879 300.414 183.792V183.799Z" fill="white" stroke="black"/>
<path d="M298.272 187.59C285.402 183.298 275.715 173.467 264.294 166.732C258.206 163.142 251.535 160.485 244.331 160.125C235.615 159.691 227.03 162.207 219.222 165.751C214.861 167.734 210.666 170.043 206.512 172.406C204.383 173.614 202.268 174.842 200.139 176.05C198.011 177.258 196.111 178.459 194.044 179.574C193.753 179.734 193.49 179.3 193.781 179.14C195.66 178.126 197.463 176.978 199.321 175.93C201.18 174.882 203.017 173.821 204.862 172.766C208.641 170.604 212.434 168.461 216.358 166.546C223.944 162.835 232.154 159.951 240.732 159.604C248.054 159.31 255.016 161.233 261.417 164.557C267.817 167.88 272.976 171.858 278.509 175.83C284.674 180.255 291.06 184.66 298.396 187.103C298.708 187.21 298.577 187.69 298.258 187.583L298.272 187.59Z" fill="white" stroke="black"/>
<path d="M295.796 191.341C283.959 186.556 274.799 177.498 263.927 171.171C258.22 167.854 251.979 165.337 245.274 164.837C237.237 164.236 229.207 166.218 221.871 169.262C213.605 172.686 206.054 177.445 198.281 181.763C197.99 181.923 197.726 181.49 198.017 181.329C211.643 173.761 225.484 164.45 241.841 164.229C248.651 164.136 255.127 165.985 261.104 169.042C267.082 172.099 272.081 175.836 277.289 179.594C283.155 183.826 289.132 188.104 295.935 190.854C296.24 190.974 296.108 191.461 295.796 191.334V191.341Z" fill="white" stroke="black"/>
<path d="M293.327 194.932C282.489 189.84 273.814 181.497 263.503 175.59C258.24 172.573 252.499 170.243 246.362 169.596C239.06 168.828 231.696 170.283 224.873 172.753C216.934 175.63 209.667 179.921 202.406 184.086C202.115 184.253 201.859 183.819 202.143 183.652C214.735 176.437 228.195 168.515 243.401 168.902C256.202 169.229 266.631 176.564 276.47 183.666C281.934 187.61 287.433 191.608 293.597 194.498C293.896 194.639 293.632 195.072 293.334 194.932H293.327Z" fill="white" stroke="black"/>
<path d="M290.928 198.169C281.026 192.923 272.809 185.261 263.074 179.774C258.227 177.044 252.971 174.902 247.375 174.148C240.6 173.233 233.694 174.308 227.252 176.37C219.784 178.76 212.898 182.517 206.158 186.362C205.867 186.529 205.611 186.095 205.895 185.928C217.551 179.287 230.345 172.673 244.331 173.367C256.181 173.961 266.021 180.575 275.202 187.189C280.375 190.914 285.513 194.732 291.185 197.735C291.476 197.889 291.213 198.322 290.921 198.169H290.928Z" fill="white" stroke="black"/>
<path d="M288.453 201.453C279.466 196.194 271.707 189.206 262.582 184.16C258.054 181.657 253.179 179.694 247.999 178.9C241.828 177.952 235.49 178.693 229.52 180.355C222.648 182.264 216.255 185.415 210.069 188.818C209.778 188.979 209.515 188.545 209.806 188.385C220.512 182.484 232.453 177.178 245.108 178.073C256.015 178.84 265.251 184.734 273.794 190.834C278.69 194.332 283.495 197.962 288.709 201.019C288.994 201.186 288.737 201.62 288.446 201.453H288.453Z" fill="white" stroke="black"/>
<path d="M285.88 204.55C277.809 199.417 270.542 193.13 262.089 188.558C257.887 186.282 253.38 184.486 248.616 183.665C243.09 182.718 237.397 183.145 231.96 184.4C225.726 185.841 219.853 188.364 214.216 191.268C213.918 191.421 213.661 190.987 213.952 190.834C223.743 185.788 234.734 181.737 246.043 182.824C255.966 183.779 264.523 188.965 272.386 194.511C276.956 197.735 281.408 201.119 286.137 204.123C286.414 204.296 286.158 204.73 285.873 204.557L285.88 204.55Z" fill="white" stroke="black"/>
<path d="M283.349 207.319C276.158 202.467 269.446 196.9 261.742 192.789C257.887 190.733 253.775 189.085 249.448 188.237C244.608 187.289 239.594 187.409 234.747 188.257C229.138 189.238 223.771 191.16 218.639 193.523C218.341 193.663 218.078 193.229 218.376 193.089C227.286 188.985 237.244 186.101 247.208 187.376C256.174 188.524 264.016 193.109 271.221 198.115C275.381 201.005 279.41 204.062 283.612 206.892C283.883 207.072 283.626 207.513 283.349 207.326V207.319Z" fill="white" stroke="black"/>
<path d="M280.714 210.163C274.3 205.651 268.107 200.739 261.083 197.108C257.679 195.346 254.087 193.917 250.314 193.083C246.092 192.149 241.709 192.029 237.417 192.529C232.501 193.103 227.716 194.465 223.14 196.254C222.827 196.374 222.696 195.893 223.001 195.773C231.017 192.649 239.823 190.814 248.456 192.215C256.375 193.504 263.427 197.462 269.903 201.86C273.655 204.41 277.281 207.126 280.984 209.736C281.255 209.923 280.991 210.357 280.721 210.17L280.714 210.163Z" fill="white" stroke="black"/>
<path d="M277.968 212.873C272.58 209.002 267.241 204.997 261.319 201.893C255.397 198.79 248.428 196.727 241.349 196.907C237.029 197.014 232.764 197.815 228.638 199.017C228.319 199.11 228.181 198.629 228.5 198.536C235.607 196.467 243.179 195.646 250.481 197.268C257.075 198.736 263.046 201.987 268.579 205.644C271.866 207.814 275.035 210.143 278.224 212.439C278.488 212.632 278.224 213.066 277.961 212.873H277.968Z" fill="white" stroke="black"/>
<path d="M275.278 215.363C266.464 209.016 257.027 202.448 245.711 201.467C242.181 201.16 238.631 201.373 235.143 201.941C234.817 201.994 234.678 201.514 235.004 201.46C240.933 200.492 246.979 200.612 252.763 202.281C258.102 203.816 263.004 206.466 267.609 209.436C270.313 211.185 272.934 213.054 275.541 214.929C275.805 215.123 275.541 215.557 275.278 215.363Z" fill="white" stroke="black"/>
<path d="M266.45 213.954C259.731 209.729 252.416 206.459 244.296 206.025C243.963 206.005 243.963 205.504 244.296 205.525C252.513 205.965 259.911 209.242 266.714 213.521C266.991 213.694 266.735 214.128 266.45 213.954Z" fill="white" stroke="black"/>
<path d="M205.003 201.815L205.567 201.705C209.933 200.856 214.209 199.592 218.336 197.932L223.135 196" stroke="black" stroke-linecap="round"/>
<path d="M131.375 234.552C121.433 233.027 112.623 228.097 104.51 222.569C96.049 216.805 88.102 210.274 79.1093 205.252C74.7175 202.8 70.073 200.727 65.1671 199.446C58.8757 197.802 52.3054 197.609 45.8746 198.527C32.2374 200.465 19.9857 206.946 8.28296 213.645C2.30525 217.066 -3.6376 220.538 -9.75475 223.723C-15.8719 226.909 -22.2853 229.976 -28.7161 232.774C-30.2933 233.456 -33.77 234.941 -35.3559 235.599C-35.7393 235.759 -35.687 236.126 -35.687 235.051C-22.6337 229.641 -8.23854 222.426 3.95216 215.398C15.6113 208.681 27.4796 201.78 40.838 198.805C47.2252 197.381 53.8652 196.884 60.3657 197.828C65.4546 198.569 70.3518 200.213 74.9615 202.395C84.355 206.836 92.5112 213.291 100.885 219.257C109.259 225.223 117.781 230.794 127.785 233.204C129.031 233.499 130.286 233.743 131.549 233.937C131.968 234.004 131.785 234.611 131.375 234.544V234.552Z" fill="white" stroke="black"/>
<path d="M126.879 238.462C108.71 234.611 95.5648 220.517 80.1698 211.512C71.5418 206.464 62.1271 203.223 51.9088 203.59C39.6182 204.037 28.0803 208.809 17.4561 214.459C11.4926 217.626 5.71522 221.103 -0.172127 224.384C-6.22018 227.755 -13.1199 231.36 -19.4048 234.299C-19.7685 234.47 -20.0899 233.941 -19.7262 233.77C-14.0419 231.115 -7.71739 227.828 -2.21916 224.816C3.27908 221.803 8.37973 218.75 13.7257 215.786C24.0624 210.062 35.025 204.917 46.9689 203.386C52.5771 202.669 58.2952 202.8 63.8104 204.054C68.2005 205.055 72.413 206.708 76.3971 208.735C84.7037 212.961 92.0459 218.685 99.5827 224.034C107.923 229.953 116.78 235.694 127.057 237.867C127.455 237.949 127.285 238.543 126.888 238.454L126.879 238.462Z" fill="white" stroke="black"/>
<path d="M124.511 243.583C107.559 239.008 95.0824 225.98 80.4232 217.35C72.4297 212.635 63.6748 209.338 54.1924 209.24C42.8576 209.126 31.9203 212.92 21.9559 217.83C10.6972 223.375 0.233604 230.296 -10.9405 235.971C-11.3042 236.15 -11.6257 235.629 -11.2619 235.441C8.27795 225.516 26.8028 210.624 49.6247 208.792C59.2508 208.019 68.4202 210.291 76.8621 214.663C84.7203 218.734 91.7242 224.124 98.8719 229.221C106.781 234.863 115.087 240.4 124.68 242.989C125.069 243.095 124.908 243.681 124.511 243.575V243.583Z" fill="white" stroke="black"/>
<path d="M121.897 248.208C106.198 242.972 94.3808 230.979 80.4492 222.764C73.0223 218.383 64.8849 215.143 56.0962 214.703C45.4635 214.174 34.9914 217.244 25.4668 221.567C20.1462 223.985 15.0286 226.802 9.96179 229.685C7.36493 231.158 4.78499 232.656 2.18813 234.13C-0.40873 235.604 -2.72644 237.069 -5.24717 238.429C-5.60244 238.625 -5.92387 238.095 -5.56861 237.9C-3.27627 236.662 -1.07697 235.262 1.18999 233.984C3.45696 232.705 5.69854 231.411 7.94859 230.124C12.5586 227.486 17.1856 224.873 21.9733 222.536C31.2273 218.009 41.2425 214.492 51.7061 214.068C60.6386 213.71 69.1313 216.055 76.9387 220.11C84.7462 224.164 91.0396 229.017 97.7897 233.861C105.31 239.26 113.1 244.633 122.05 247.613C122.43 247.744 122.27 248.33 121.88 248.2L121.897 248.208Z" fill="white" stroke="black"/>
<path d="M118.877 252.783C104.438 246.945 93.2639 235.897 80.0005 228.178C73.0389 224.131 65.426 221.062 57.2463 220.451C47.4425 219.718 37.6472 222.137 28.6978 225.849C18.6148 230.026 9.40319 235.831 -0.0791473 241.099C-0.434418 241.295 -0.755852 240.765 -0.400581 240.57C16.221 231.337 33.1048 219.979 53.0592 219.71C61.3657 219.596 69.2663 221.852 76.5578 225.581C83.8493 229.31 89.9481 233.869 96.3007 238.453C103.457 243.615 110.748 248.834 119.046 252.189C119.419 252.335 119.258 252.93 118.877 252.775V252.783Z" fill="white" stroke="black"/>
<path d="M209.463 198.148C199.521 196.623 190.711 191.693 182.599 186.165C174.137 180.401 166.19 173.87 157.198 168.848C152.806 166.396 148.161 164.323 143.255 163.042C136.964 161.399 130.394 161.205 123.963 162.123C110.326 164.062 98.0741 170.542 86.3713 177.241C80.3936 180.662 74.4508 184.134 68.3336 187.32C62.2165 190.505 55.8031 193.572 49.3723 196.37C47.7951 197.053 44.3184 198.538 42.7325 199.195C42.349 199.355 42.4013 199.722 42.4013 198.647C55.4547 193.237 69.8498 186.022 82.0405 178.994C93.6997 172.278 105.568 165.376 118.926 162.401C125.314 160.977 131.954 160.48 138.454 161.424C143.543 162.165 148.44 163.809 153.05 165.991C162.443 170.432 170.6 176.887 178.974 182.853C187.348 188.82 195.87 194.39 205.873 196.8C207.119 197.095 208.374 197.339 209.638 197.533C210.056 197.6 209.873 198.207 209.463 198.14V198.148Z" fill="white" stroke="black"/>
<path d="M204.968 202.059C186.798 198.207 173.653 184.114 158.258 175.109C149.63 170.06 140.215 166.82 129.997 167.186C117.707 167.634 106.169 172.405 95.5444 178.056C89.581 181.223 83.8036 184.7 77.9163 187.981C71.8682 191.352 64.9685 194.956 58.6836 197.896C58.3199 198.067 57.9985 197.537 58.3622 197.367C64.0465 194.712 70.371 191.425 75.8692 188.413C81.3675 185.4 86.4681 182.347 91.8141 179.383C102.151 173.659 113.113 168.513 125.057 166.983C130.665 166.266 136.384 166.397 141.899 167.65C146.289 168.652 150.501 170.305 154.485 172.332C162.792 176.558 170.134 182.282 177.671 187.631C186.012 193.55 194.868 199.29 205.145 201.464C205.543 201.546 205.374 202.14 204.976 202.051L204.968 202.059Z" fill="white" stroke="black"/>
<path d="M202.599 207.176C202.599 207.178 202.597 207.179 202.595 207.179C185.646 202.602 173.17 189.576 158.512 180.946C150.518 176.232 141.763 172.934 132.281 172.837C120.946 172.723 110.009 176.517 100.044 181.426C88.7855 186.971 78.322 193.892 67.1479 199.567C66.7842 199.746 66.4627 199.225 66.8265 199.038C86.3663 189.112 104.891 174.221 127.713 172.389C137.339 171.615 146.509 173.887 154.95 178.259C162.809 182.33 169.813 187.72 176.96 192.817C184.869 198.46 193.176 203.996 202.768 206.585C203.156 206.691 202.998 207.273 202.603 207.173C202.601 207.172 202.599 207.174 202.599 207.176Z" fill="white" stroke="black"/>
<path d="M199.985 211.804C184.286 206.569 172.469 194.575 158.537 186.36C151.11 181.98 142.973 178.739 134.184 178.3C123.551 177.77 113.079 180.84 103.555 185.163C98.2341 187.581 93.1165 190.399 88.0497 193.281C85.4528 194.755 82.8729 196.253 80.276 197.726C77.6792 199.2 75.3615 200.666 72.8407 202.025C72.4855 202.221 72.164 201.692 72.5193 201.496C74.8116 200.259 77.0109 198.858 79.2779 197.58C81.5449 196.302 83.7864 195.007 86.0365 193.721C90.6465 191.083 95.2735 188.469 100.061 186.132C109.315 181.605 119.33 178.088 129.794 177.664C138.726 177.306 147.219 179.651 155.027 183.706C162.834 187.761 169.127 192.613 175.878 197.458C183.398 202.856 191.188 208.23 200.138 211.21C200.518 211.34 200.357 211.926 199.968 211.796L199.985 211.804Z" fill="white" stroke="black"/>
<path d="M196.965 216.38C182.526 210.543 171.352 199.494 158.088 191.775C151.127 187.729 143.514 184.659 135.334 184.048C125.53 183.316 115.735 185.734 106.786 189.447C96.7027 193.623 87.4911 199.429 78.0087 204.697C77.6535 204.892 77.332 204.363 77.6873 204.167C94.3089 194.934 111.193 183.576 131.147 183.307C139.454 183.193 147.354 185.449 154.646 189.178C161.937 192.907 168.036 197.466 174.389 202.05C181.545 207.212 188.836 212.432 197.134 215.786C197.507 215.933 197.346 216.527 196.965 216.372V216.38Z" fill="white" stroke="black"/>
<path d="M193.954 220.761C180.733 214.548 170.151 204.371 157.573 197.165C151.152 193.485 144.149 190.643 136.662 189.854C127.755 188.917 118.772 190.692 110.449 193.705C100.763 197.214 91.8984 202.449 83.042 207.53C82.6867 207.733 82.3737 207.204 82.7206 207.001C98.0818 198.199 114.5 188.535 133.051 189.007C148.666 189.406 161.388 198.354 173.391 207.017C180.056 211.829 186.764 216.706 194.284 220.231C194.648 220.402 194.326 220.932 193.963 220.761H193.954Z" fill="white" stroke="black"/>
<path d="M191.027 224.71C178.948 218.31 168.924 208.963 157.048 202.27C151.135 198.94 144.724 196.326 137.897 195.406C129.633 194.291 121.208 195.602 113.35 198.118C104.24 201.033 95.8401 205.616 87.6181 210.306C87.2628 210.51 86.9498 209.981 87.2967 209.777C101.516 201.676 117.122 193.607 134.184 194.454C148.64 195.178 160.643 203.247 171.843 211.316C178.153 215.859 184.421 220.516 191.34 224.18C191.695 224.368 191.374 224.897 191.019 224.71H191.027Z" fill="white" stroke="black"/>
<path d="M188.007 228.715C177.044 222.299 167.579 213.775 156.447 207.619C150.924 204.566 144.977 202.172 138.658 201.203C131.13 200.047 123.399 200.951 116.115 202.978C107.733 205.307 99.9337 209.15 92.3885 213.302C92.0332 213.498 91.7118 212.969 92.067 212.773C105.127 205.576 119.694 199.103 135.131 200.194C148.437 201.13 159.704 208.319 170.125 215.761C176.097 220.028 181.959 224.457 188.32 228.186C188.667 228.39 188.354 228.919 187.999 228.715H188.007Z" fill="white" stroke="black"/>
<path d="M184.87 232.493C175.024 226.231 166.159 218.561 155.848 212.984C150.722 210.208 145.223 208.018 139.412 207.016C132.67 205.86 125.726 206.381 119.094 207.912C111.49 209.67 104.325 212.748 97.4479 216.29C97.0842 216.477 96.7712 215.948 97.1264 215.761C109.07 209.605 122.478 204.663 136.274 205.99C148.378 207.155 158.817 213.481 168.409 220.247C173.983 224.18 179.414 228.308 185.183 231.971C185.521 232.183 185.208 232.712 184.861 232.501L184.87 232.493Z" fill="white" stroke="black"/>
<path d="M181.782 235.871C173.01 229.952 164.822 223.162 155.424 218.146C150.721 215.638 145.705 213.627 140.427 212.593C134.522 211.437 128.407 211.584 122.494 212.618C115.651 213.815 109.104 216.16 102.844 219.042C102.48 219.213 102.159 218.684 102.523 218.513C113.392 213.505 125.539 209.988 137.694 211.543C148.632 212.943 158.199 218.537 166.987 224.644C172.063 228.169 176.977 231.898 182.103 235.35C182.433 235.57 182.12 236.108 181.782 235.88V235.871Z" fill="white" stroke="black"/>
<path d="M178.567 239.34C170.743 233.836 163.189 227.844 154.62 223.414C150.467 221.265 146.085 219.522 141.484 218.505C136.332 217.365 130.986 217.218 125.75 217.829C119.753 218.529 113.917 220.19 108.334 222.372C107.953 222.519 107.792 221.932 108.165 221.786C117.943 217.975 128.686 215.736 139.217 217.446C148.877 219.018 157.479 223.846 165.38 229.211C169.956 232.322 174.38 235.636 178.897 238.819C179.227 239.047 178.906 239.576 178.576 239.348L178.567 239.34Z" fill="white" stroke="black"/>
<path d="M175.217 242.645C168.645 237.923 162.132 233.037 154.908 229.251C147.684 225.465 139.183 222.949 130.546 223.169C125.277 223.3 120.074 224.277 115.041 225.742C114.652 225.856 114.483 225.27 114.872 225.156C123.543 222.632 132.78 221.63 141.687 223.609C149.731 225.4 157.014 229.365 163.764 233.827C167.774 236.473 171.639 239.315 175.53 242.116C175.852 242.352 175.53 242.881 175.209 242.645H175.217Z" fill="white" stroke="black"/>
<path d="M174.684 179.785L183.312 175.471" stroke="black" stroke-linecap="round"/>
<path d="M178.998 182.771L189.52 177.214" stroke="black" stroke-linecap="round"/>
<path d="M182.616 185.311L194.597 178.983" stroke="black" stroke-linecap="round"/>
<path d="M186.253 187.822L198.701 181.248" stroke="black" stroke-linecap="round"/>
<path d="M190.063 190.323L202.512 183.749" stroke="black" stroke-linecap="round"/>
<path d="M193.717 192.649L206.166 186.075" stroke="black" stroke-linecap="round"/>
<path d="M198.398 194.722L210.077 188.554" stroke="black" stroke-linecap="round"/>
<path d="M203.837 196.479L215.521 190.321" stroke="black" stroke-linecap="round"/>
<path d="M209.875 197.923L220.965 192.079" stroke="black" stroke-linecap="round"/>
<path d="M201.216 158.278L216.791 148.905C223.48 144.88 231.083 142.623 238.885 142.348L256.06 141.741" stroke="black" stroke-linecap="round"/>
<path d="M197.233 205.044L200.977 206.615C202.113 207.092 203.422 207.009 204.497 206.407C207.487 204.731 210.771 203.522 214.137 202.875L215.698 202.575L229.44 198.529" stroke="black" stroke-linecap="round"/>
</g>
<mask id="path-53-inside-1_388_26848" fill="white">
<path d="M6.29736 223.574H255.957V265.729H6.29736V223.574Z"/>
</mask>
<path d="M6.29736 224.574H255.957V222.574H6.29736V224.574ZM255.957 264.729H6.29736V266.729H255.957V264.729Z" fill="black" mask="url(#path-53-inside-1_388_26848)"/>
<path d="M15.3326 329.043V314.193H20.6651C22.2251 314.193 23.4701 314.583 24.4001 315.363C25.3301 316.143 25.7951 317.2 25.7951 318.535V318.985C25.7951 320.305 25.3301 321.363 24.4001 322.158C23.4701 322.938 22.2251 323.328 20.6651 323.328H17.3351V329.043H15.3326ZM20.6651 315.97H17.3351V321.55H20.6651C21.6851 321.55 22.4576 321.325 22.9826 320.875C23.5226 320.425 23.7926 319.773 23.7926 318.918V318.603C23.7926 317.748 23.5226 317.095 22.9826 316.645C22.4576 316.195 21.6851 315.97 20.6651 315.97ZM30.6521 329.268C29.6471 329.268 28.8296 328.968 28.1996 328.368C27.5696 327.753 27.2546 326.958 27.2546 325.983C27.2546 324.888 27.6521 324.025 28.4471 323.395C29.2421 322.75 30.3221 322.428 31.6871 322.428H34.2296V322.068C34.2296 320.163 33.3446 319.21 31.5746 319.21C31.0646 319.21 30.5621 319.308 30.0671 319.503C29.5721 319.683 29.1446 319.945 28.7846 320.29L27.7946 319.008C28.8296 318.018 30.1346 317.523 31.7096 317.523C34.6046 317.523 36.0521 319.038 36.0521 322.068V326.433C36.0521 327.228 36.3671 327.625 36.9971 327.625C37.0571 327.625 37.1171 327.625 37.1771 327.625C37.2521 327.61 37.3421 327.595 37.4471 327.58V329.2C37.1921 329.245 36.8846 329.268 36.5246 329.268C35.1746 329.268 34.4396 328.578 34.3196 327.198C33.9146 327.858 33.3971 328.368 32.7671 328.728C32.1371 329.088 31.4321 329.268 30.6521 329.268ZM31.2146 327.625C32.5046 327.625 33.5096 326.995 34.2296 325.735V323.913H31.8671C31.0271 323.913 30.3671 324.093 29.8871 324.453C29.4071 324.798 29.1671 325.278 29.1671 325.893C29.1671 326.418 29.3471 326.838 29.7071 327.153C30.0821 327.468 30.5846 327.625 31.2146 327.625ZM42.7325 329.313C41.0825 329.313 39.7025 328.788 38.5925 327.738L39.47 326.455C40.385 327.28 41.465 327.693 42.71 327.693C43.49 327.693 44.0975 327.543 44.5325 327.243C44.9825 326.928 45.2075 326.508 45.2075 325.983C45.2075 325.128 44.705 324.58 43.7 324.34L42.035 323.958C41.075 323.733 40.3325 323.343 39.8075 322.788C39.2975 322.233 39.0425 321.543 39.0425 320.718C39.0425 319.773 39.4175 319.008 40.1675 318.423C40.9325 317.823 41.9225 317.523 43.1375 317.523C44.6225 317.523 45.95 317.995 47.12 318.94L46.2875 320.268C45.3125 319.518 44.3 319.143 43.25 319.143C42.56 319.143 42.005 319.285 41.585 319.57C41.165 319.855 40.955 320.238 40.955 320.718C40.955 321.483 41.495 321.993 42.575 322.248L44.24 322.63C46.19 323.095 47.165 324.213 47.165 325.983C47.165 326.988 46.76 327.798 45.95 328.413C45.155 329.013 44.0825 329.313 42.7325 329.313ZM52.9717 329.313C51.3217 329.313 49.9417 328.788 48.8317 327.738L49.7092 326.455C50.6242 327.28 51.7042 327.693 52.9492 327.693C53.7292 327.693 54.3367 327.543 54.7717 327.243C55.2217 326.928 55.4467 326.508 55.4467 325.983C55.4467 325.128 54.9442 324.58 53.9392 324.34L52.2742 323.958C51.3142 323.733 50.5717 323.343 50.0467 322.788C49.5367 322.233 49.2817 321.543 49.2817 320.718C49.2817 319.773 49.6567 319.008 50.4067 318.423C51.1717 317.823 52.1617 317.523 53.3767 317.523C54.8617 317.523 56.1892 317.995 57.3592 318.94L56.5267 320.268C55.5517 319.518 54.5392 319.143 53.4892 319.143C52.7992 319.143 52.2442 319.285 51.8242 319.57C51.4042 319.855 51.1942 320.238 51.1942 320.718C51.1942 321.483 51.7342 321.993 52.8142 322.248L54.4792 322.63C56.4292 323.095 57.4042 324.213 57.4042 325.983C57.4042 326.988 56.9992 327.798 56.1892 328.413C55.3942 329.013 54.3217 329.313 52.9717 329.313ZM61.1185 315.993C60.7435 315.993 60.436 315.88 60.196 315.655C59.956 315.415 59.836 315.123 59.836 314.778C59.836 314.433 59.956 314.148 60.196 313.923C60.436 313.698 60.7435 313.585 61.1185 313.585C61.5085 313.585 61.816 313.698 62.041 313.923C62.281 314.148 62.401 314.433 62.401 314.778C62.401 315.123 62.281 315.415 62.041 315.655C61.816 315.88 61.5085 315.993 61.1185 315.993ZM60.1735 329.043V317.793H62.086V329.043H60.1735ZM70.0097 329.313C68.9597 329.313 68.0597 329.088 67.3097 328.638C66.5597 328.173 65.9822 327.528 65.5772 326.703C65.1872 325.878 64.9922 324.925 64.9922 323.845V322.99C64.9922 321.895 65.1872 320.943 65.5772 320.133C65.9822 319.308 66.5597 318.67 67.3097 318.22C68.0597 317.755 68.9597 317.523 70.0097 317.523C71.0597 317.523 71.9597 317.755 72.7097 318.22C73.4597 318.67 74.0297 319.308 74.4197 320.133C74.8247 320.943 75.0272 321.895 75.0272 322.99V323.845C75.0272 324.925 74.8247 325.878 74.4197 326.703C74.0297 327.528 73.4597 328.173 72.7097 328.638C71.9597 329.088 71.0597 329.313 70.0097 329.313ZM70.0097 327.603C70.9697 327.603 71.7272 327.273 72.2822 326.613C72.8372 325.938 73.1147 324.993 73.1147 323.778V323.058C73.1147 321.843 72.8372 320.905 72.2822 320.245C71.7272 319.57 70.9697 319.233 70.0097 319.233C69.0497 319.233 68.2922 319.57 67.7372 320.245C67.1822 320.905 66.9047 321.843 66.9047 323.058V323.778C66.9047 324.993 67.1822 325.938 67.7372 326.613C68.2922 327.273 69.0497 327.603 70.0097 327.603ZM77.9274 329.043V317.793H79.7049V319.953C80.0499 319.293 80.5224 318.73 81.1224 318.265C81.7224 317.8 82.4874 317.568 83.4174 317.568C84.5424 317.568 85.4349 317.935 86.0949 318.67C86.7699 319.405 87.1074 320.5 87.1074 321.955V329.043H85.1949V322.203C85.1949 321.228 84.9849 320.5 84.5649 320.02C84.1449 319.525 83.5524 319.278 82.7874 319.278C82.0674 319.278 81.4599 319.473 80.9649 319.863C80.4849 320.253 80.1099 320.695 79.8399 321.19V329.043H77.9274ZM96.0074 329.313C95.6324 329.313 95.3024 329.185 95.0174 328.93C94.7474 328.675 94.6124 328.353 94.6124 327.963C94.6124 327.573 94.7474 327.25 95.0174 326.995C95.3024 326.74 95.6324 326.613 96.0074 326.613C96.3974 326.613 96.7274 326.74 96.9974 326.995C97.2674 327.25 97.4024 327.573 97.4024 327.963C97.4024 328.353 97.2674 328.675 96.9974 328.93C96.7274 329.185 96.3974 329.313 96.0074 329.313ZM105.267 329.043V314.193H110.599C112.159 314.193 113.404 314.583 114.334 315.363C115.264 316.143 115.729 317.2 115.729 318.535V318.985C115.729 320.305 115.264 321.363 114.334 322.158C113.404 322.938 112.159 323.328 110.599 323.328H107.269V329.043H105.267ZM110.599 315.97H107.269V321.55H110.599C111.619 321.55 112.392 321.325 112.917 320.875C113.457 320.425 113.727 319.773 113.727 318.918V318.603C113.727 317.748 113.457 317.095 112.917 316.645C112.392 316.195 111.619 315.97 110.599 315.97ZM122.283 329.313C121.233 329.313 120.333 329.088 119.583 328.638C118.833 328.173 118.255 327.528 117.85 326.703C117.46 325.878 117.265 324.925 117.265 323.845V322.99C117.265 321.895 117.46 320.943 117.85 320.133C118.255 319.308 118.833 318.67 119.583 318.22C120.333 317.755 121.233 317.523 122.283 317.523C123.333 317.523 124.233 317.755 124.983 318.22C125.733 318.67 126.303 319.308 126.693 320.133C127.098 320.943 127.3 321.895 127.3 322.99V323.845C127.3 324.925 127.098 325.878 126.693 326.703C126.303 327.528 125.733 328.173 124.983 328.638C124.233 329.088 123.333 329.313 122.283 329.313ZM122.283 327.603C123.243 327.603 124 327.273 124.555 326.613C125.11 325.938 125.388 324.993 125.388 323.778V323.058C125.388 321.843 125.11 320.905 124.555 320.245C124 319.57 123.243 319.233 122.283 319.233C121.323 319.233 120.565 319.57 120.01 320.245C119.455 320.905 119.178 321.843 119.178 323.058V323.778C119.178 324.993 119.455 325.938 120.01 326.613C120.565 327.273 121.323 327.603 122.283 327.603ZM133.238 329.313C131.588 329.313 130.208 328.788 129.098 327.738L129.975 326.455C130.89 327.28 131.97 327.693 133.215 327.693C133.995 327.693 134.603 327.543 135.038 327.243C135.488 326.928 135.713 326.508 135.713 325.983C135.713 325.128 135.21 324.58 134.205 324.34L132.54 323.958C131.58 323.733 130.838 323.343 130.313 322.788C129.803 322.233 129.548 321.543 129.548 320.718C129.548 319.773 129.923 319.008 130.673 318.423C131.438 317.823 132.428 317.523 133.643 317.523C135.128 317.523 136.455 317.995 137.625 318.94L136.793 320.268C135.818 319.518 134.805 319.143 133.755 319.143C133.065 319.143 132.51 319.285 132.09 319.57C131.67 319.855 131.46 320.238 131.46 320.718C131.46 321.483 132 321.993 133.08 322.248L134.745 322.63C136.695 323.095 137.67 324.213 137.67 325.983C137.67 326.988 137.265 327.798 136.455 328.413C135.66 329.013 134.588 329.313 133.238 329.313ZM141.385 315.993C141.01 315.993 140.702 315.88 140.462 315.655C140.222 315.415 140.102 315.123 140.102 314.778C140.102 314.433 140.222 314.148 140.462 313.923C140.702 313.698 141.01 313.585 141.385 313.585C141.775 313.585 142.082 313.698 142.307 313.923C142.547 314.148 142.667 314.433 142.667 314.778C142.667 315.123 142.547 315.415 142.307 315.655C142.082 315.88 141.775 315.993 141.385 315.993ZM140.44 329.043V317.793H142.352V329.043H140.44ZM149.871 329.268C148.611 329.268 147.726 328.96 147.216 328.345C146.706 327.715 146.451 326.695 146.451 325.285V319.413H144.516V317.793H146.451V315.295L148.363 314.845V317.793H151.243V319.413H148.363V325.218C148.363 326.163 148.513 326.8 148.813 327.13C149.128 327.445 149.631 327.603 150.321 327.603C150.456 327.603 150.598 327.595 150.748 327.58C150.913 327.565 151.078 327.543 151.243 327.513V329.155C151.048 329.185 150.831 329.208 150.591 329.223C150.366 329.253 150.126 329.268 149.871 329.268ZM154.524 315.993C154.149 315.993 153.842 315.88 153.602 315.655C153.362 315.415 153.242 315.123 153.242 314.778C153.242 314.433 153.362 314.148 153.602 313.923C153.842 313.698 154.149 313.585 154.524 313.585C154.914 313.585 155.222 313.698 155.447 313.923C155.687 314.148 155.807 314.433 155.807 314.778C155.807 315.123 155.687 315.415 155.447 315.655C155.222 315.88 154.914 315.993 154.524 315.993ZM153.579 329.043V317.793H155.492V329.043H153.579ZM163.415 329.313C162.365 329.313 161.465 329.088 160.715 328.638C159.965 328.173 159.388 327.528 158.983 326.703C158.593 325.878 158.398 324.925 158.398 323.845V322.99C158.398 321.895 158.593 320.943 158.983 320.133C159.388 319.308 159.965 318.67 160.715 318.22C161.465 317.755 162.365 317.523 163.415 317.523C164.465 317.523 165.365 317.755 166.115 318.22C166.865 318.67 167.435 319.308 167.825 320.133C168.23 320.943 168.433 321.895 168.433 322.99V323.845C168.433 324.925 168.23 325.878 167.825 326.703C167.435 327.528 166.865 328.173 166.115 328.638C165.365 329.088 164.465 329.313 163.415 329.313ZM163.415 327.603C164.375 327.603 165.133 327.273 165.688 326.613C166.243 325.938 166.52 324.993 166.52 323.778V323.058C166.52 321.843 166.243 320.905 165.688 320.245C165.133 319.57 164.375 319.233 163.415 319.233C162.455 319.233 161.698 319.57 161.143 320.245C160.588 320.905 160.31 321.843 160.31 323.058V323.778C160.31 324.993 160.588 325.938 161.143 326.613C161.698 327.273 162.455 327.603 163.415 327.603ZM171.333 329.043V317.793H173.111V319.953C173.456 319.293 173.928 318.73 174.528 318.265C175.128 317.8 175.893 317.568 176.823 317.568C177.948 317.568 178.841 317.935 179.501 318.67C180.176 319.405 180.513 320.5 180.513 321.955V329.043H178.601V322.203C178.601 321.228 178.391 320.5 177.971 320.02C177.551 319.525 176.958 319.278 176.193 319.278C175.473 319.278 174.866 319.473 174.371 319.863C173.891 320.253 173.516 320.695 173.246 321.19V329.043H171.333ZM189.413 329.313C189.038 329.313 188.708 329.185 188.423 328.93C188.153 328.675 188.018 328.353 188.018 327.963C188.018 327.573 188.153 327.25 188.423 326.995C188.708 326.74 189.038 326.613 189.413 326.613C189.803 326.613 190.133 326.74 190.403 326.995C190.673 327.25 190.808 327.573 190.808 327.963C190.808 328.353 190.673 328.675 190.403 328.93C190.133 329.185 189.803 329.313 189.413 329.313ZM198.672 329.043V314.193H204.005C205.565 314.193 206.81 314.583 207.74 315.363C208.67 316.143 209.135 317.2 209.135 318.535V318.985C209.135 320.305 208.67 321.363 207.74 322.158C206.81 322.938 205.565 323.328 204.005 323.328H200.675V329.043H198.672ZM204.005 315.97H200.675V321.55H204.005C205.025 321.55 205.797 321.325 206.322 320.875C206.862 320.425 207.132 319.773 207.132 318.918V318.603C207.132 317.748 206.862 317.095 206.322 316.645C205.797 316.195 205.025 315.97 204.005 315.97ZM211.697 329.043V317.793H213.474V320.425C213.654 319.945 213.902 319.495 214.217 319.075C214.547 318.655 214.959 318.31 215.454 318.04C215.964 317.77 216.572 317.635 217.277 317.635C217.532 317.635 217.794 317.658 218.064 317.703V319.525C217.944 319.51 217.809 319.503 217.659 319.503C217.524 319.488 217.389 319.48 217.254 319.48C216.309 319.48 215.537 319.705 214.937 320.155C214.352 320.605 213.909 321.115 213.609 321.685V329.043H211.697ZM221.167 315.993C220.792 315.993 220.485 315.88 220.245 315.655C220.005 315.415 219.885 315.123 219.885 314.778C219.885 314.433 220.005 314.148 220.245 313.923C220.485 313.698 220.792 313.585 221.167 313.585C221.557 313.585 221.865 313.698 222.09 313.923C222.33 314.148 222.45 314.433 222.45 314.778C222.45 315.123 222.33 315.415 222.09 315.655C221.865 315.88 221.557 315.993 221.167 315.993ZM220.222 329.043V317.793H222.135V329.043H220.222ZM229.316 329.268C228.461 329.268 227.711 329.043 227.066 328.593C226.421 328.143 225.919 327.513 225.559 326.703C225.214 325.893 225.041 324.94 225.041 323.845V322.99C225.041 321.895 225.214 320.943 225.559 320.133C225.919 319.323 226.421 318.693 227.066 318.243C227.711 317.793 228.461 317.568 229.316 317.568C230.081 317.568 230.771 317.755 231.386 318.13C232.001 318.49 232.504 319.015 232.894 319.705V313.293H234.806V329.043H233.029V326.883C232.639 327.648 232.121 328.24 231.476 328.66C230.846 329.065 230.126 329.268 229.316 329.268ZM226.954 323.778C226.954 324.963 227.216 325.893 227.741 326.568C228.281 327.228 229.016 327.558 229.946 327.558C230.561 327.558 231.124 327.393 231.634 327.063C232.159 326.718 232.579 326.245 232.894 325.645V321.19C232.579 320.59 232.159 320.125 231.634 319.795C231.124 319.45 230.561 319.278 229.946 319.278C229.016 319.278 228.281 319.615 227.741 320.29C227.216 320.95 226.954 321.873 226.954 323.058V323.778ZM242.849 329.313C241.769 329.313 240.847 329.08 240.082 328.615C239.317 328.15 238.732 327.513 238.327 326.703C237.922 325.878 237.719 324.925 237.719 323.845V322.99C237.719 321.91 237.914 320.965 238.304 320.155C238.694 319.33 239.249 318.685 239.969 318.22C240.689 317.755 241.552 317.523 242.557 317.523C243.577 317.523 244.432 317.755 245.122 318.22C245.827 318.685 246.359 319.33 246.719 320.155C247.079 320.965 247.259 321.903 247.259 322.968V324.048H239.587C239.632 325.158 239.939 326.035 240.509 326.68C241.079 327.31 241.897 327.625 242.962 327.625C243.577 327.625 244.132 327.513 244.627 327.288C245.122 327.063 245.572 326.763 245.977 326.388L246.944 327.693C246.434 328.203 245.834 328.6 245.144 328.885C244.469 329.17 243.704 329.313 242.849 329.313ZM242.512 319.165C241.642 319.165 240.952 319.465 240.442 320.065C239.947 320.665 239.669 321.498 239.609 322.563H245.414C245.354 321.543 245.077 320.725 244.582 320.11C244.087 319.48 243.397 319.165 242.512 319.165Z" fill="black"/>
<path d="M5.82988 156.806L15.5272 147.109L25.6405 155.608M5.39014 169.47L15.5272 159.333L26.1028 168.356M15.5308 147.154V209.675M5.82991 133.3L15.7264 123.597L26.3019 133.419M5.82991 145.156L15.527 135.459L26.1026 144.482M15.5307 124.571V166.348M24.8216 155.71L36.2907 147.212L47.2432 155.71M25.1996 168.459L36.2907 159.435L47.2432 168.213M36.2943 147.257V200.28M25.7682 144.136L36.512 135.727L47.2859 144.633M36.2942 136.372V166.037M99.6773 136.159V146.895M99.6773 136.159L110.768 145.182M99.6773 136.159L89.564 144.063M99.6773 146.895V159.119M99.6773 146.895L111.206 156.116M99.6773 146.895L89.564 155.394M99.6773 159.119V169.862M99.6773 159.119L108.768 166.142M99.6773 159.119L89.1017 168.142M99.6773 102.607V113.344M99.6773 102.607L110.768 111.63M99.6773 102.607L89.564 110.512M99.6773 113.344V124.277M99.6773 113.344L111.206 122.564M99.6773 113.344L89.564 121.842M99.6773 124.277V155.055M99.6773 124.277L110.768 133.3M99.6773 124.277L89.1017 133.3M90.4422 155.394L78.2605 146.896L68.1472 155.394M90.0415 168.142L78.2605 159.119L67.6849 168.142M78.2569 146.94V181.221M89.8424 133.205L78.0613 123.383L67.4857 133.205M90.0417 144.269L78.2606 135.246L67.685 144.269M78.257 124.357V166.135M68.9661 155.497L57.497 146.998L46.6678 155.985M68.5881 168.245L57.497 159.222L46.6678 168.245M57.4934 147.043V191.82M68.0195 143.922L57.2757 135.514L46.7001 144.537M57.4935 136.159V165.824" stroke="black" stroke-width="1.5"/>
<path d="M163.122 125.9V168.459M163.122 125.9L173.991 134.207M163.122 125.9L153.212 133.177M174.42 144.272L163.122 135.784L153.212 143.608M173.991 155.344L163.122 147.037L152.759 155.344" stroke="black" stroke-width="1.5"/>
<path d="M163.122 95.0122V143.296M163.122 95.0122L173.991 103.319M163.122 95.0122L153.212 102.289M174.42 113.384L163.122 104.896L153.212 112.72M173.991 123.268L163.122 114.961L152.759 123.268" stroke="black" stroke-width="1.5"/>
<path d="M154.072 143.608L142.135 135.785L132.224 143.608M153.68 155.345L142.135 147.038L131.771 155.345" stroke="black" stroke-width="1.5"/>
<path d="M142.131 135.826V163.056" stroke="black" stroke-width="1.5"/>
<path d="M153.484 123.181L141.939 114.139L131.576 123.181M153.68 133.366L142.135 125.06L131.771 133.366" stroke="black" stroke-width="1.5"/>
<path d="M153.68 133.367L142.135 125.06L131.771 133.367" stroke="black" stroke-width="1.5"/>
<path d="M142.131 115.036V153.496" stroke="black" stroke-width="1.5"/>
<path d="M132.827 143.455L121.786 135.879L110.221 145.104M132.16 155.071L121.786 147.132L110.506 156.068" stroke="black" stroke-width="1.5"/>
<path d="M121.783 135.92L121.783 162.358" stroke="black" stroke-width="1.5"/>
<path d="M132.275 133.013L121.57 125.306L110.221 133.446" stroke="black" stroke-width="1.5"/>
<path d="M121.783 125.9V153.21" stroke="black" stroke-width="1.5"/>
<path d="M185.034 125.9V163.88M185.034 125.9L173.463 134.099M185.034 125.9L194.945 133.177M173.774 144.06L185.034 135.784L194.586 143.349M173.463 155.344L185.034 147.037L194.944 155.134" stroke="black" stroke-width="1.5"/>
<path d="M185.034 95.0122V143.296M185.034 95.0122L173.507 103.37M185.034 95.0122L194.944 102.289M173.819 113.153L185.034 104.896L194.944 112.72M173.507 123.268L185.034 114.961L195.397 123.268" stroke="black" stroke-width="1.5"/>
<path d="M194.084 143.608L206.022 135.785L215.933 143.608M194.477 155.345L206.022 147.038L211.496 152.512" stroke="black" stroke-width="1.5"/>
<path d="M194.672 123.181L206.217 114.139L216.581 123.181M194.477 133.366L206.022 125.06L216.385 133.366" stroke="black" stroke-width="1.5"/>
<path d="M194.477 133.367L206.022 125.06L216.385 133.367" stroke="black" stroke-width="1.5"/>
<path d="M206.025 114.348V155.422" stroke="black" stroke-width="1.5"/>
<mask id="mask1_388_26848" style="mask-type:alpha" maskUnits="userSpaceOnUse" x="4" y="5" width="254" height="283">
<path d="M131.127 5.90527C200.483 5.90534 256.708 62.1295 256.708 131.485V287.197H5.54736V131.485C5.54736 62.1294 61.7715 5.90527 131.127 5.90527Z" fill="white" stroke="black" stroke-width="1.5"/>
</mask>
<g mask="url(#mask1_388_26848)">
<path d="M247.479 115.608V142.513M247.479 115.608L259.05 123.807M247.479 115.608L237.568 122.885M258.739 133.768L247.479 125.492L237.926 133.057" stroke="black" stroke-width="1.5"/>
<path d="M247.479 84.7202V133.004M247.479 84.7202L259.005 93.0777M247.479 84.7202L237.568 91.9973M258.694 102.861L247.479 94.6045L231.506 107.457M259.005 112.976L247.479 104.67L237.115 112.976" stroke="black" stroke-width="1.5"/>
<path d="M238.429 133.317L226.491 125.493L215.488 133.317M239.222 142.449L226.491 136.746L215.488 143.27" stroke="black" stroke-width="1.5"/>
<path d="M237.841 112.889L226.296 103.847L209.674 116.734M238.036 123.074L226.491 114.768L216.127 123.074" stroke="black" stroke-width="1.5"/>
<path d="M238.036 123.075L226.491 114.768L215.861 123.075" stroke="black" stroke-width="1.5"/>
<path d="M226.488 104.137V145.13" stroke="black" stroke-width="1.5"/>
</g>
<circle cx="25.9346" cy="96.5123" r="1.5" fill="#040404"/>
<circle cx="51.7128" cy="124.592" r="1.5" transform="rotate(-16.247 51.7128 124.592)" fill="#040404"/>
<circle cx="220.955" cy="97.891" r="1.5" transform="rotate(-135.335 220.955 97.891)" fill="#040404"/>
<circle cx="54.7979" cy="54.9" r="1.5" fill="#040404"/>
<circle cx="62.3315" cy="81.4313" r="1.5" fill="#040404"/>
<circle cx="82.4369" cy="99.9312" r="1.5" transform="rotate(-16.247 82.4369 99.9312)" fill="#040404"/>
<circle cx="184.468" cy="83.0317" r="1.5" transform="rotate(-135.335 184.468 83.0317)" fill="#040404"/>
<circle cx="184.44" cy="58.5214" r="1.5" transform="rotate(-135.335 184.44 58.5214)" fill="#040404"/>
<circle cx="223.064" cy="62.7641" r="1.5" transform="rotate(-135.335 223.064 62.7641)" fill="#040404"/>
<circle cx="200.174" cy="42.9555" r="1.5" transform="rotate(-135.335 200.174 42.9555)" fill="#040404"/>
<circle cx="47.7317" cy="72.4487" r="1.5" transform="rotate(-135.335 47.7317 72.4487)" fill="#040404"/>
<path fill-rule="evenodd" clip-rule="evenodd" d="M124.811 60.1794C133.379 49.0172 131.356 33.4506 119.98 24.8232L102.679 45.0713L102.65 45.0492C93.0579 56.2716 94.8186 72.596 106.583 81.5148C118.348 90.4336 135.656 88.5667 145.248 77.3443C154.841 66.1219 153.08 49.7976 141.315 40.8788L124.818 60.1849L124.811 60.1794Z" fill="#0B0B0B"/>
<mask id="mask2_388_26848" style="mask-type:alpha" maskUnits="userSpaceOnUse" x="6" y="6" width="250" height="281">
<path d="M6.29736 131.485C6.29736 62.5436 62.1856 6.65527 131.127 6.65527C200.069 6.65527 255.957 62.5436 255.957 131.485V286.448H6.29736V131.485Z" fill="white"/>
</mask>
<g mask="url(#mask2_388_26848)">
<path d="M245.909 83.1872L167.464 66.0125M180.324 94.0552L163.176 83.1859M209.767 112.314L198.643 105.301M154.382 98.7428L149.927 91.91M136.982 111.991L134.151 99.5962M117.761 98.7428L115.139 119.971M101.465 93.4702L95.2366 101.126M88.4512 80.401L53.372 103.501M81.9886 66.0231L53.4612 71.3844M43.1388 73.6255L23.7769 77.0158M83.0661 47.882C67.1953 44.7753 45.8011 39.5898 45.8775 39.2189M90.5279 33.3509L73.7937 19.915M103.222 20.9844L95.2366 9.96871M118.311 15.0554L117.761 5.82176M134.497 14.0142L136.982 5.82174M152.007 19.9149L161.824 9.96868M161.824 32.0842L186.879 18.3526M168.394 49.8329L194.951 44.1423M206.667 41.6875L217.155 39.5671M45.8775 108.316L22.4773 122.94" stroke="#0C0C0C" stroke-width="2" stroke-linecap="round"/>
</g>
<path fill-rule="evenodd" clip-rule="evenodd" d="M74.9486 234.323C80.177 232.915 85.6847 232.915 90.9131 234.323L92.5539 234.765C97.5917 236.121 102.909 236.035 107.9 234.516C112.901 232.994 118.241 232.994 123.242 234.516L130.674 236.778L130.892 236.06L131.102 236.78L139.784 234.248C144.403 232.901 149.319 232.96 153.904 234.419C158.87 235.999 164.199 236.033 169.185 234.515L169.818 234.323C174.389 232.932 179.28 232.996 183.813 234.507C188.384 236.031 193.302 236.175 197.954 234.923L200.181 234.323C205.409 232.915 210.917 232.915 216.146 234.323L217.786 234.765C222.824 236.121 228.142 236.035 233.133 234.516C238.134 232.994 243.474 232.994 248.474 234.516L255.906 236.778L256.343 235.343L248.911 233.081C243.626 231.472 237.982 231.472 232.696 233.081C227.974 234.518 222.943 234.6 218.176 233.316L216.536 232.874C211.052 231.398 205.275 231.398 199.791 232.874L197.564 233.474C193.196 234.65 188.579 234.514 184.287 233.084C179.459 231.474 174.25 231.406 169.381 232.888L168.748 233.08C164.053 234.509 159.035 234.478 154.358 232.99C149.489 231.44 144.269 231.377 139.364 232.808L130.897 235.278L123.679 233.081C118.393 231.472 112.749 231.472 107.464 233.081C102.741 234.518 97.7103 234.6 92.9439 233.316L91.3031 232.874C85.8192 231.398 80.0424 231.398 74.5586 232.874L72.3314 233.474C67.9636 234.65 63.3462 234.514 59.0549 233.084C54.2267 231.474 49.0176 231.406 44.1487 232.888L43.5157 233.08C38.8208 234.509 33.8024 234.478 29.1259 232.99C24.2568 231.44 19.0366 231.377 14.1314 232.808L5.44971 235.34L5.86972 236.78L14.5514 234.248C19.1704 232.901 24.0861 232.96 28.671 234.419C33.6373 235.999 38.9666 236.033 43.9525 234.515L44.5854 234.323C49.1567 232.932 54.0475 232.996 58.5806 234.507C63.1512 236.031 68.0692 236.175 72.7214 234.923L74.9486 234.323Z" fill="black"/>
<path fill-rule="evenodd" clip-rule="evenodd" d="M74.9486 245.323C80.177 243.915 85.6847 243.915 90.9131 245.323L92.5539 245.765C97.5917 247.121 102.909 247.035 107.9 245.516C112.901 243.994 118.241 243.994 123.242 245.516L130.674 247.778L130.892 247.06L131.102 247.78L139.784 245.248C144.403 243.901 149.319 243.96 153.904 245.419C158.87 246.999 164.199 247.033 169.185 245.515L169.818 245.323C174.389 243.932 179.28 243.996 183.813 245.507C188.384 247.031 193.302 247.175 197.954 245.923L200.181 245.323C205.409 243.915 210.917 243.915 216.146 245.323L217.786 245.765C222.824 247.121 228.142 247.035 233.133 245.516C238.134 243.994 243.474 243.994 248.474 245.516L255.906 247.778L256.343 246.343L248.911 244.081C243.626 242.472 237.982 242.472 232.696 244.081C227.974 245.518 222.943 245.6 218.176 244.316L216.536 243.874C211.052 242.398 205.275 242.398 199.791 243.874L197.564 244.474C193.196 245.65 188.579 245.514 184.287 244.084C179.459 242.474 174.25 242.406 169.381 243.888L168.748 244.08C164.053 245.509 159.035 245.478 154.358 243.99C149.489 242.44 144.269 242.377 139.364 243.808L130.897 246.278L123.679 244.081C118.393 242.472 112.749 242.472 107.464 244.081C102.741 245.518 97.7103 245.6 92.9439 244.316L91.3031 243.874C85.8192 242.398 80.0424 242.398 74.5586 243.874L72.3314 244.474C67.9636 245.65 63.3462 245.514 59.0549 244.084C54.2267 242.474 49.0176 242.406 44.1487 243.888L43.5157 244.08C38.8208 245.509 33.8024 245.478 29.1259 243.99C24.2568 242.44 19.0366 242.377 14.1314 243.808L5.44971 246.34L5.86972 247.78L14.5514 245.248C19.1704 243.901 24.0861 243.96 28.671 245.419C33.6373 246.999 38.9666 247.033 43.9525 245.515L44.5854 245.323C49.1567 243.932 54.0475 243.996 58.5806 245.507C63.1512 247.031 68.0692 247.175 72.7214 245.923L74.9486 245.323Z" fill="black"/>
<path fill-rule="evenodd" clip-rule="evenodd" d="M74.9486 256.323C80.177 254.915 85.6847 254.915 90.9131 256.323L92.5539 256.765C97.5917 258.121 102.909 258.035 107.9 256.516C112.901 254.994 118.241 254.994 123.242 256.516L130.674 258.778L130.892 258.06L131.102 258.78L139.784 256.248C144.403 254.901 149.319 254.96 153.904 256.419C158.87 257.999 164.199 258.033 169.185 256.515L169.818 256.323C174.389 254.932 179.28 254.996 183.813 256.507C188.384 258.031 193.302 258.175 197.954 256.923L200.181 256.323C205.409 254.915 210.917 254.915 216.146 256.323L217.786 256.765C222.824 258.121 228.142 258.035 233.133 256.516C238.134 254.994 243.474 254.994 248.474 256.516L255.906 258.778L256.343 257.343L248.911 255.081C243.626 253.472 237.982 253.472 232.696 255.081C227.974 256.518 222.943 256.6 218.176 255.316L216.536 254.874C211.052 253.398 205.275 253.398 199.791 254.874L197.564 255.474C193.196 256.65 188.579 256.514 184.287 255.084C179.459 253.474 174.25 253.406 169.381 254.888L168.748 255.08C164.053 256.509 159.035 256.478 154.358 254.99C149.489 253.44 144.269 253.377 139.364 254.808L130.897 257.278L123.679 255.081C118.393 253.472 112.749 253.472 107.464 255.081C102.741 256.518 97.7103 256.6 92.9439 255.316L91.3031 254.874C85.8192 253.398 80.0424 253.398 74.5586 254.874L72.3314 255.474C67.9636 256.65 63.3462 256.514 59.0549 255.084C54.2267 253.474 49.0176 253.406 44.1487 254.888L43.5157 255.08C38.8208 256.509 33.8024 256.478 29.1259 254.99C24.2568 253.44 19.0366 253.377 14.1314 254.808L5.44971 257.34L5.86972 258.78L14.5514 256.248C19.1704 254.901 24.0861 254.96 28.671 256.419C33.6373 257.999 38.9666 258.033 43.9525 256.515L44.5854 256.323C49.1567 254.932 54.0475 254.996 58.5806 256.507C63.1512 258.031 68.0692 258.175 72.7214 256.923L74.9486 256.323Z" fill="black"/>
<path d="M16.3723 305.785V272.785H29.2723C33.2389 272.785 36.3223 273.685 38.5223 275.485C40.7556 277.252 41.8723 279.735 41.8723 282.935V283.985C41.8723 286.118 41.3723 287.952 40.3723 289.485C39.3723 290.985 37.9389 292.118 36.0723 292.885L43.4723 305.785H34.8723L28.8223 294.135H23.8723V305.785H16.3723ZM29.3723 278.885H23.8723V288.035H29.3723C30.9723 288.035 32.2056 287.668 33.0723 286.935C33.9389 286.202 34.3723 285.168 34.3723 283.835V283.085C34.3723 281.718 33.9389 280.685 33.0723 279.985C32.2056 279.252 30.9723 278.885 29.3723 278.885ZM48.5988 305.785V272.785H70.5988V279.235H56.0988V285.985H69.0988V292.185H56.0988V299.335H71.0988V305.785H48.5988ZM75.1563 293.085V286.535H90.7063V293.085H75.1563ZM96.0109 305.785V272.785H103.561V305.785H96.0109ZM124.198 306.535C119.664 306.535 116.114 305.135 113.548 302.335C111.014 299.535 109.748 295.652 109.748 290.685V287.785C109.748 284.485 110.364 281.668 111.598 279.335C112.831 276.968 114.564 275.168 116.798 273.935C119.064 272.668 121.681 272.035 124.648 272.035C127.048 272.035 129.198 272.452 131.098 273.285C132.998 274.085 134.648 275.268 136.048 276.835L131.648 281.485C130.548 280.385 129.431 279.618 128.298 279.185C127.164 278.752 125.981 278.535 124.748 278.535C122.348 278.535 120.498 279.352 119.198 280.985C117.931 282.585 117.298 284.952 117.298 288.085V290.385C117.298 293.518 117.881 295.918 119.048 297.585C120.248 299.218 121.981 300.035 124.248 300.035C126.314 300.035 127.898 299.352 128.998 297.985C130.131 296.618 130.698 294.852 130.698 292.685H124.098V286.585H138.048V292.385C138.048 295.352 137.481 297.902 136.348 300.035C135.214 302.135 133.614 303.752 131.548 304.885C129.481 305.985 127.031 306.535 124.198 306.535ZM144.107 305.785V272.785H153.757L164.457 295.885H165.257V272.785H172.257V305.785H162.607L151.907 282.685H151.107V305.785H144.107ZM179.849 305.785V272.785H187.399V305.785H179.849ZM201.686 305.785V279.285H191.986V272.785H218.936V279.285H209.236V305.785H201.686ZM223.55 305.785V272.785H245.55V279.235H231.05V285.985H244.05V292.185H231.05V299.335H246.05V305.785H223.55Z" fill="black"/>
</svg>
