<svg width="262" height="345" viewBox="0 0 262 345" fill="none" xmlns="http://www.w3.org/2000/svg">
<path d="M130.83 0.5C202.809 0.500041 261.16 58.8508 261.16 130.83V344.145H0.5V130.83L0.510742 129.146C1.41259 57.9425 59.4131 0.5 130.83 0.5Z" stroke="black"/>
<path d="M16.372 305.785V272.785H29.272C33.2387 272.785 36.322 273.685 38.522 275.485C40.7554 277.252 41.872 279.735 41.872 282.935V283.985C41.872 286.118 41.372 287.952 40.372 289.485C39.372 290.985 37.9387 292.118 36.072 292.885L43.472 305.785H34.872L28.822 294.135H23.872V305.785H16.372ZM29.372 278.885H23.872V288.035H29.372C30.972 288.035 32.2054 287.668 33.072 286.935C33.9387 286.202 34.372 285.168 34.372 283.835V283.085C34.372 281.718 33.9387 280.685 33.072 279.985C32.2054 279.252 30.972 278.885 29.372 278.885ZM48.5986 305.785V272.785H70.5986V279.235H56.0986V285.985H69.0986V292.185H56.0986V299.335H71.0986V305.785H48.5986Z" fill="#D40511"/>
<path d="M75.156 293.085V286.535H90.706V293.085H75.156ZM96.0107 305.785V272.785H103.561V305.785H96.0107ZM124.197 306.535C119.664 306.535 116.114 305.135 113.547 302.335C111.014 299.535 109.747 295.652 109.747 290.685V287.785C109.747 284.485 110.364 281.668 111.597 279.335C112.831 276.968 114.564 275.168 116.797 273.935C119.064 272.668 121.681 272.035 124.647 272.035C127.047 272.035 129.197 272.452 131.097 273.285C132.997 274.085 134.647 275.268 136.047 276.835L131.647 281.485C130.547 280.385 129.431 279.618 128.297 279.185C127.164 278.752 125.981 278.535 124.747 278.535C122.347 278.535 120.497 279.352 119.197 280.985C117.931 282.585 117.297 284.952 117.297 288.085V290.385C117.297 293.518 117.881 295.918 119.047 297.585C120.247 299.218 121.981 300.035 124.247 300.035C126.314 300.035 127.897 299.352 128.997 297.985C130.131 296.618 130.697 294.852 130.697 292.685H124.097V286.585H138.047V292.385C138.047 295.352 137.481 297.902 136.347 300.035C135.214 302.135 133.614 303.752 131.547 304.885C129.481 305.985 127.031 306.535 124.197 306.535ZM144.106 305.785V272.785H153.756L164.456 295.885H165.256V272.785H172.256V305.785H162.606L151.906 282.685H151.106V305.785H144.106ZM179.849 305.785V272.785H187.399V305.785H179.849ZM201.685 305.785V279.285H191.985V272.785H218.935V279.285H209.235V305.785H201.685ZM223.55 305.785V272.785H245.55V279.235H231.05V285.985H244.05V292.185H231.05V299.335H246.05V305.785H223.55Z" fill="black"/>
<path d="M131.127 6.15527C200.345 6.15534 256.458 62.2675 256.458 131.485V339.646H5.79736V131.485C5.7974 62.2675 61.9096 6.15527 131.127 6.15527Z" stroke="black"/>
<mask id="mask0_388_26690" style="mask-type:alpha" maskUnits="userSpaceOnUse" x="7" y="136" width="249" height="104">
<path d="M7.01149 204.917L7.01154 239.851H255.957V136.923L240.73 136.922C234.042 136.922 227.451 138.52 221.505 141.581L190.277 157.658C186.152 159.782 181.704 161.208 177.113 161.877L161.945 164.089L147.096 160.866L143.341 159.727C134.929 157.174 125.928 157.325 117.606 160.159L87.812 170.305L18.1886 190.265C11.5879 192.074 7.01148 198.073 7.01149 204.917Z" fill="#D9D9D9"/>
</mask>
<g mask="url(#mask0_388_26690)">
<path d="M167.66 174.157C171.195 172.483 175.094 171.725 178.999 171.952L182.783 172.172M163.784 172.172L165.421 171.345C169.947 169.057 175.083 168.262 180.09 169.074L186.375 170.093M160.192 169.431L163.796 167.661C168.452 165.374 173.723 164.657 178.821 165.618L190.534 167.824M187.51 166.69L189.218 165.189C192.138 162.623 195.892 161.208 199.779 161.208H203.389M182.783 165.934L185.584 163.134C188.74 159.978 193.07 158.283 197.53 158.46L207.265 158.845" stroke="black" stroke-linecap="round"/>
<path d="M245.137 206.086C237.004 204.688 228.62 203.836 220.536 205.547C212.57 207.239 205.597 211.571 199.748 217.191C187.862 228.607 180.853 244.011 170.843 256.982C165.455 263.955 159.142 270.326 151.279 274.338C150.924 274.519 150.682 273.925 151.038 273.744C165.945 266.127 174.65 250.716 183.499 237C192.348 223.284 202.376 209.827 218.09 205.491C226.919 203.061 236.23 203.905 245.219 205.452C245.614 205.522 245.54 206.153 245.137 206.086Z" fill="#303856" stroke="black" stroke-width="0.5"/>
<path d="M248.034 213.203C240.37 211.883 232.504 211.051 224.84 212.388C217.177 213.725 210.593 217.299 204.857 222.273C193.173 232.408 186.123 246.61 177.333 259.176C172.366 266.283 166.758 273.068 159.711 278.096C159.386 278.329 159.001 277.822 159.326 277.588C172.371 268.274 179.988 253.573 188.795 240.456C197.073 228.126 207.378 215.857 222.286 212.264C230.738 210.228 239.58 211.106 248.116 212.57C248.511 212.64 248.436 213.27 248.034 213.203Z" fill="#303856" stroke="black" stroke-width="0.5"/>
<path d="M250.927 220.314C243.736 219.078 236.379 218.269 229.166 219.284C222.077 220.277 215.561 223.224 209.926 227.612C198.538 236.473 191.36 249.463 183.521 261.42C178.959 268.381 174.042 275.171 167.969 280.836C167.679 281.111 167.29 280.595 167.584 280.328C178.732 269.931 185.601 255.987 194.398 243.658C202.488 232.318 212.728 221.821 226.777 219.038C234.755 217.463 243.002 218.306 251.009 219.681C251.404 219.751 251.329 220.381 250.927 220.314Z" fill="#303856" stroke="black" stroke-width="0.5"/>
<path d="M253.821 227.425C247.102 226.273 240.256 225.487 233.483 226.222C226.767 226.943 220.469 229.331 214.925 233.174C203.966 240.781 196.603 252.526 189.52 263.705C185.22 270.494 180.784 277.237 175.463 283.232C175.201 283.533 174.7 283.136 174.962 282.836C184.429 272.154 190.844 259.179 199.447 247.825C207.429 237.295 217.562 228.142 230.903 225.925C238.506 224.658 246.302 225.491 253.895 226.795C254.29 226.865 254.216 227.495 253.813 227.428L253.821 227.425Z" fill="#303856" stroke="black" stroke-width="0.5"/>
<path d="M256.717 234.542C250.412 233.462 243.997 232.704 237.634 233.217C231.368 233.727 225.366 235.587 220.001 238.86C209.453 245.302 202.02 255.84 195.37 266.15C191.244 272.555 187.283 279.058 182.661 285.101C182.416 285.422 181.915 285.026 182.16 284.705C190.279 274.073 196.417 261.977 204.927 251.648C208.854 246.884 213.278 242.463 218.43 239.084C223.554 235.725 229.305 233.578 235.387 232.793C242.493 231.886 249.712 232.686 256.777 233.899C257.172 233.969 257.098 234.599 256.695 234.533L256.717 234.542Z" fill="#303856" stroke="black" stroke-width="0.5"/>
<path d="M259.61 241.652C248.035 239.662 236.034 239.063 225.405 244.561C214.776 250.058 207.685 259.238 201.28 268.701C197.506 274.279 194.046 280.08 190.272 285.658C190.042 285.992 189.548 285.593 189.771 285.262C196.597 275.166 202.525 264.355 210.777 255.368C214.549 251.258 218.795 247.564 223.624 244.796C228.452 242.029 234.153 240.263 239.901 239.733C246.494 239.126 253.144 239.89 259.681 241.014C260.076 241.084 260.001 241.714 259.599 241.648L259.61 241.652Z" fill="#303856" stroke="black" stroke-width="0.5"/>
<path d="M262.507 248.772C251.789 246.931 240.605 246.166 230.507 250.617C220.409 255.067 213.327 263.062 207.116 271.616C203.508 276.591 200.286 281.834 196.956 287.01C196.736 287.349 196.235 286.953 196.455 286.614C202.442 277.311 208.22 267.761 216.096 259.979C219.821 256.303 223.999 253.08 228.679 250.761C233.359 248.441 238.715 247.101 244.059 246.745C250.243 246.342 256.462 247.078 262.585 248.131C262.981 248.201 262.906 248.831 262.503 248.764L262.507 248.772Z" fill="#303856" stroke="black" stroke-width="0.5"/>
<path d="M308.041 176.396C299.89 175.145 292.668 171.104 286.018 166.573C279.082 161.848 272.567 156.494 265.195 152.377C261.595 150.367 257.788 148.667 253.766 147.617C248.609 146.27 243.223 146.111 237.951 146.864C226.772 148.453 216.729 153.765 207.135 159.257C202.235 162.062 197.363 164.908 192.349 167.519C187.334 170.13 182.077 172.645 176.805 174.938C175.512 175.498 172.662 176.715 171.362 177.254C171.048 177.385 171.091 177.686 171.091 176.805C181.791 172.37 193.592 166.455 203.585 160.694C213.143 155.188 222.872 149.531 233.822 147.092C239.058 145.925 244.502 145.517 249.83 146.291C254.002 146.899 258.017 148.246 261.795 150.035C269.496 153.675 276.182 158.967 283.046 163.858C289.911 168.749 296.897 173.315 305.098 175.29C306.119 175.532 307.148 175.732 308.183 175.891C308.526 175.947 308.376 176.444 308.041 176.389V176.396Z" fill="#303856" stroke="black" stroke-width="0.5"/>
<path d="M302.355 179.601C287.461 176.444 276.685 164.89 264.065 157.508C256.992 153.37 249.274 150.714 240.898 151.014C230.822 151.381 221.364 155.293 212.655 159.925C207.766 162.521 203.03 165.371 198.204 168.061C193.246 170.824 187.59 173.779 182.438 176.188C182.14 176.329 181.877 175.895 182.175 175.755C186.834 173.579 192.019 170.884 196.526 168.415C201.033 165.945 205.215 163.442 209.597 161.013C218.071 156.32 227.057 152.102 236.848 150.847C241.446 150.26 246.133 150.367 250.654 151.395C254.253 152.216 257.706 153.571 260.972 155.232C267.781 158.697 273.8 163.389 279.979 167.774C286.816 172.626 294.076 177.332 302.501 179.114C302.827 179.18 302.688 179.668 302.362 179.594L302.355 179.601Z" fill="#303856" stroke="black" stroke-width="0.5"/>
<path d="M300.413 183.799C286.517 180.048 276.289 169.369 264.273 162.294C257.72 158.43 250.543 155.726 242.77 155.646C233.478 155.553 224.512 158.663 216.344 162.688C207.114 167.233 198.537 172.906 189.377 177.559C189.079 177.705 188.815 177.278 189.113 177.125C205.131 168.989 220.317 156.781 239.025 155.279C246.916 154.645 254.433 156.507 261.353 160.091C267.795 163.429 273.537 167.847 279.396 172.025C285.879 176.651 292.689 181.189 300.552 183.312C300.871 183.399 300.739 183.879 300.413 183.792V183.799Z" fill="#303856" stroke="black" stroke-width="0.5"/>
<path d="M298.271 187.59C285.401 183.298 275.714 173.467 264.294 166.732C258.206 163.142 251.535 160.485 244.33 160.125C235.614 159.691 227.03 162.207 219.222 165.751C214.86 167.734 210.665 170.043 206.511 172.406C204.383 173.614 202.268 174.842 200.139 176.05C198.01 177.258 196.11 178.459 194.044 179.574C193.753 179.734 193.489 179.3 193.78 179.14C195.66 178.126 197.462 176.978 199.321 175.93C201.179 174.882 203.017 173.821 204.861 172.766C208.64 170.604 212.433 168.461 216.358 166.546C223.944 162.835 232.154 159.951 240.732 159.604C248.054 159.31 255.016 161.233 261.416 164.557C267.816 167.88 272.975 171.858 278.509 175.83C284.673 180.255 291.06 184.66 298.396 187.103C298.708 187.21 298.576 187.69 298.257 187.583L298.271 187.59Z" fill="#303856" stroke="black" stroke-width="0.5"/>
<path d="M295.795 191.341C283.959 186.556 274.799 177.498 263.926 171.171C258.219 167.854 251.979 165.337 245.273 164.837C237.237 164.236 229.207 166.218 221.87 169.262C213.605 172.686 206.054 177.445 198.28 181.763C197.989 181.923 197.726 181.49 198.017 181.329C211.643 173.761 225.483 164.45 241.841 164.229C248.65 164.136 255.127 165.985 261.104 169.042C267.081 172.099 272.081 175.836 277.288 179.594C283.154 183.826 289.132 188.104 295.934 190.854C296.239 190.974 296.107 191.461 295.795 191.334V191.341Z" fill="#303856" stroke="black" stroke-width="0.5"/>
<path d="M293.327 194.932C282.488 189.84 273.814 181.497 263.503 175.59C258.24 172.573 252.498 170.243 246.362 169.596C239.06 168.828 231.696 170.283 224.873 172.753C216.933 175.63 209.666 179.921 202.406 184.086C202.115 184.253 201.858 183.819 202.143 183.652C214.735 176.437 228.194 168.515 243.401 168.902C256.201 169.229 266.63 176.564 276.47 183.666C281.934 187.61 287.433 191.608 293.597 194.498C293.895 194.639 293.632 195.072 293.333 194.932H293.327Z" fill="#303856" stroke="black" stroke-width="0.5"/>
<path d="M290.928 198.169C281.026 192.923 272.809 185.261 263.073 179.774C258.226 177.044 252.97 174.902 247.374 174.148C240.6 173.233 233.693 174.308 227.252 176.37C219.784 178.76 212.898 182.517 206.158 186.362C205.867 186.529 205.61 186.095 205.894 185.928C217.551 179.287 230.344 172.673 244.33 173.367C256.181 173.961 266.02 180.575 275.201 187.189C280.374 190.914 285.512 194.732 291.184 197.735C291.476 197.889 291.212 198.322 290.921 198.169H290.928Z" fill="#303856" stroke="black" stroke-width="0.5"/>
<path d="M288.452 201.453C279.466 196.194 271.706 189.206 262.581 184.16C258.053 181.657 253.178 179.694 247.999 178.9C241.827 177.952 235.489 178.693 229.519 180.355C222.647 182.264 216.254 185.415 210.069 188.818C209.778 188.979 209.514 188.545 209.805 188.385C220.512 182.484 232.452 177.178 245.107 178.073C256.014 178.84 265.251 184.734 273.794 190.834C278.689 194.332 283.494 197.962 288.709 201.019C288.993 201.186 288.737 201.62 288.445 201.453H288.452Z" fill="#303856" stroke="black" stroke-width="0.5"/>
<path d="M285.88 204.55C277.808 199.417 270.541 193.13 262.089 188.558C257.887 186.282 253.379 184.486 248.616 183.665C243.089 182.718 237.396 183.145 231.96 184.4C225.726 185.841 219.853 188.364 214.215 191.268C213.917 191.421 213.661 190.987 213.952 190.834C223.743 185.788 234.733 181.737 246.043 182.824C255.966 183.779 264.522 188.965 272.386 194.511C276.955 197.735 281.407 201.119 286.136 204.123C286.414 204.296 286.157 204.73 285.873 204.557L285.88 204.55Z" fill="#303856" stroke="black" stroke-width="0.5"/>
<path d="M283.348 207.319C276.158 202.467 269.445 196.9 261.741 192.789C257.886 190.733 253.774 189.085 249.447 188.237C244.607 187.289 239.594 187.409 234.747 188.257C229.137 189.238 223.77 191.16 218.639 193.523C218.341 193.663 218.077 193.229 218.375 193.089C227.286 188.985 237.243 186.101 247.208 187.376C256.173 188.524 264.016 193.109 271.22 198.115C275.381 201.005 279.41 204.062 283.612 206.892C283.882 207.072 283.626 207.513 283.348 207.326V207.319Z" fill="#303856" stroke="black" stroke-width="0.5"/>
<path d="M280.713 210.163C274.299 205.651 268.107 200.739 261.083 197.108C257.678 195.346 254.086 193.917 250.314 193.083C246.091 192.149 241.709 192.029 237.416 192.529C232.5 193.103 227.716 194.465 223.139 196.254C222.827 196.374 222.695 195.893 223 195.773C231.016 192.649 239.823 190.814 248.456 192.215C256.374 193.504 263.426 197.462 269.903 201.86C273.654 204.41 277.281 207.126 280.984 209.736C281.254 209.923 280.991 210.357 280.72 210.17L280.713 210.163Z" fill="#303856" stroke="black" stroke-width="0.5"/>
<path d="M277.967 212.873C272.579 209.002 267.24 204.997 261.318 201.893C255.397 198.79 248.428 196.727 241.348 196.907C237.028 197.014 232.764 197.815 228.638 199.017C228.319 199.11 228.18 198.629 228.499 198.536C235.607 196.467 243.179 195.646 250.48 197.268C257.075 198.736 263.045 201.987 268.578 205.644C271.865 207.814 275.034 210.143 278.224 212.439C278.487 212.632 278.224 213.066 277.96 212.873H277.967Z" fill="#303856" stroke="black" stroke-width="0.5"/>
<path d="M275.277 215.363C266.464 209.016 257.027 202.448 245.71 201.467C242.181 201.16 238.63 201.373 235.142 201.941C234.817 201.994 234.678 201.514 235.004 201.46C240.932 200.492 246.979 200.612 252.762 202.281C258.101 203.816 263.004 206.466 267.608 209.436C270.312 211.185 272.934 213.054 275.541 214.929C275.804 215.123 275.541 215.557 275.277 215.363Z" fill="#303856" stroke="black" stroke-width="0.5"/>
<path d="M266.45 213.954C259.731 209.729 252.415 206.459 244.295 206.025C243.962 206.005 243.962 205.504 244.295 205.525C252.512 205.965 259.911 209.242 266.713 213.521C266.991 213.694 266.734 214.128 266.45 213.954Z" fill="#303856" stroke="black" stroke-width="0.5"/>
<path d="M205.002 201.815L205.566 201.705C209.933 200.856 214.209 199.592 218.336 197.932L223.135 196" stroke="black" stroke-linecap="round"/>
<path d="M131.375 234.552C121.432 233.027 112.622 228.097 104.51 222.569C96.0485 216.805 88.1015 210.274 79.1088 205.252C74.717 202.8 70.0725 200.727 65.1666 199.446C58.8752 197.802 52.3049 197.609 45.8741 198.527C32.2369 200.465 19.9852 206.946 8.28247 213.645C2.30476 217.066 -3.63809 220.538 -9.75523 223.723C-15.8724 226.909 -22.2858 229.976 -28.7166 232.774C-30.2938 233.456 -33.7705 234.941 -35.3564 235.599C-35.7398 235.759 -35.6875 236.126 -35.6875 235.051C-22.6342 229.641 -8.23903 222.426 3.95168 215.398C15.6108 208.681 27.4791 201.78 40.8375 198.805C47.2247 197.381 53.8647 196.884 60.3653 197.828C65.4542 198.569 70.3513 200.213 74.961 202.395C84.3545 206.836 92.5107 213.291 100.885 219.257C109.259 225.223 117.781 230.794 127.784 233.204C129.031 233.499 130.285 233.743 131.549 233.937C131.967 234.004 131.784 234.611 131.375 234.544V234.552Z" fill="#303856" stroke="black" stroke-width="0.5"/>
<path d="M126.879 238.462C108.709 234.611 95.5643 220.517 80.1693 211.512C71.5413 206.464 62.1266 203.223 51.9083 203.59C39.6177 204.037 28.0798 208.809 17.4556 214.459C11.4921 217.626 5.71473 221.103 -0.172615 224.384C-6.22067 227.755 -13.1203 231.36 -19.4052 234.299C-19.769 234.47 -20.0904 233.941 -19.7267 233.77C-14.0424 231.115 -7.71788 227.828 -2.21965 224.816C3.27859 221.803 8.37924 218.75 13.7252 215.786C24.0619 210.062 35.0245 204.917 46.9684 203.386C52.5766 202.669 58.2948 202.8 63.8099 204.054C68.2 205.055 72.4125 206.708 76.3966 208.735C84.7032 212.961 92.0454 218.685 99.5823 224.034C107.923 229.953 116.779 235.694 127.057 237.867C127.454 237.949 127.285 238.543 126.887 238.454L126.879 238.462Z" fill="#303856" stroke="black" stroke-width="0.5"/>
<path d="M124.51 243.583C107.559 239.008 95.0819 225.98 80.4227 217.35C72.4292 212.635 63.6743 209.338 54.1919 209.24C42.8571 209.126 31.9199 212.92 21.9554 217.83C10.6967 223.375 0.233116 230.296 -10.941 235.971C-11.3047 236.15 -11.6261 235.629 -11.2624 235.441C8.27747 225.516 26.8023 210.624 49.6242 208.792C59.2503 208.019 68.4197 210.291 76.8616 214.663C84.7198 218.734 91.7237 224.124 98.8714 229.221C106.78 234.863 115.087 240.4 124.679 242.989C125.068 243.095 124.908 243.681 124.51 243.575V243.583Z" fill="#303856" stroke="black" stroke-width="0.5"/>
<path d="M121.897 248.208C106.197 242.972 94.3801 230.979 80.4484 222.764C73.0216 218.383 64.8842 215.143 56.0955 214.703C45.4627 214.174 34.9907 217.244 25.4661 221.567C20.1455 223.985 15.0279 226.802 9.96106 229.685C7.3642 231.158 4.78426 232.656 2.1874 234.13C-0.409462 235.604 -2.72717 237.069 -5.2479 238.429C-5.60317 238.625 -5.92461 238.095 -5.56934 237.9C-3.277 236.662 -1.0777 235.262 1.18926 233.984C3.45623 232.705 5.69781 231.411 7.94785 230.124C12.5579 227.486 17.1849 224.873 21.9726 222.536C31.2265 218.009 41.2418 214.492 51.7053 214.068C60.6379 213.71 69.1305 216.055 76.938 220.11C84.7455 224.164 91.0389 229.017 97.789 233.861C105.309 239.26 113.099 244.633 122.049 247.613C122.43 247.744 122.269 248.33 121.88 248.2L121.897 248.208Z" fill="#303856" stroke="black" stroke-width="0.5"/>
<path d="M118.877 252.783C104.437 246.945 93.2632 235.897 79.9998 228.178C73.0382 224.131 65.4252 221.062 57.2456 220.451C47.4418 219.718 37.6465 222.137 28.697 225.849C18.6141 230.026 9.40246 235.831 -0.0798798 241.099C-0.43515 241.295 -0.756584 240.765 -0.401314 240.57C16.2203 231.337 33.1041 219.979 53.0584 219.71C61.365 219.596 69.2655 221.852 76.557 225.581C83.8485 229.31 89.9474 233.869 96.2999 238.453C103.456 243.615 110.748 248.834 119.046 252.189C119.418 252.335 119.257 252.93 118.877 252.775V252.783Z" fill="#303856" stroke="black" stroke-width="0.5"/>
<path d="M115.865 257.164C102.644 250.952 92.0621 240.774 79.4838 233.569C73.0636 229.889 66.0597 227.047 58.5736 226.257C49.6665 225.321 40.6832 227.096 32.3597 230.108C22.6744 233.618 13.8095 238.853 4.95313 243.934C4.59786 244.137 4.28488 243.608 4.6317 243.404C19.9929 234.603 36.4115 224.938 54.9617 225.41C70.5767 225.809 83.2987 234.757 95.3018 243.421C101.967 248.233 108.675 253.11 116.195 256.635C116.559 256.806 116.237 257.335 115.874 257.164H115.865Z" fill="#303856" stroke="black" stroke-width="0.5"/>
<path d="M112.939 261.113C100.859 254.713 90.8357 245.366 78.9595 238.673C73.0468 235.343 66.635 232.73 59.8087 231.81C51.5444 230.694 43.1195 232.005 35.2612 234.521C26.1511 237.436 17.7514 242.02 9.52947 246.71C9.1742 246.913 8.86122 246.384 9.20803 246.18C23.4273 238.079 39.0338 230.01 56.0953 230.857C70.5514 231.582 82.5545 239.65 93.754 247.719C100.064 252.262 106.332 256.92 113.252 260.584C113.607 260.771 113.285 261.3 112.93 261.113H112.939Z" fill="#303856" stroke="black" stroke-width="0.5"/>
<path d="M109.919 265.118C98.9562 258.702 89.4908 250.177 78.359 244.022C72.8354 240.969 66.8888 238.575 60.5701 237.606C53.0417 236.45 45.3104 237.354 38.0273 239.381C29.6446 241.71 21.8456 245.553 14.3003 249.705C13.9451 249.901 13.6236 249.371 13.9789 249.176C27.0393 241.978 41.6054 235.505 57.0428 236.596C70.3485 237.533 81.6156 244.722 92.0369 252.164C98.0088 256.43 103.871 260.86 110.232 264.589C110.579 264.792 110.266 265.322 109.91 265.118H109.919Z" fill="#303856" stroke="black" stroke-width="0.5"/>
<path d="M209.462 198.148C199.52 196.623 190.71 191.693 182.598 186.165C174.136 180.401 166.189 173.87 157.197 168.848C152.805 166.396 148.16 164.323 143.254 163.042C136.963 161.399 130.393 161.205 123.962 162.123C110.325 164.062 98.0731 170.542 86.3704 177.241C80.3927 180.662 74.4498 184.134 68.3327 187.32C62.2155 190.505 55.8021 193.572 49.3713 196.37C47.7941 197.053 44.3174 198.538 42.7315 199.195C42.3481 199.355 42.4004 199.722 42.4004 198.647C55.4537 193.237 69.8489 186.022 82.0396 178.994C93.6987 172.278 105.567 165.376 118.925 162.401C125.313 160.977 131.953 160.48 138.453 161.424C143.542 162.165 148.439 163.809 153.049 165.991C162.442 170.432 170.599 176.887 178.973 182.853C187.347 188.82 195.869 194.39 205.872 196.8C207.118 197.095 208.373 197.339 209.637 197.533C210.055 197.6 209.872 198.207 209.462 198.14V198.148Z" fill="#303856" stroke="black" stroke-width="0.5"/>
<path d="M204.967 202.059C186.797 198.207 173.652 184.114 158.257 175.109C149.629 170.06 140.214 166.82 129.996 167.186C117.706 167.634 106.168 172.405 95.5435 178.056C89.58 181.223 83.8026 184.7 77.9153 187.981C71.8672 191.352 64.9675 194.956 58.6826 197.896C58.3189 198.067 57.9975 197.537 58.3612 197.367C64.0455 194.712 70.37 191.425 75.8682 188.413C81.3665 185.4 86.4671 182.347 91.8131 179.383C102.15 173.659 113.112 168.513 125.056 166.983C130.664 166.266 136.383 166.397 141.898 167.65C146.288 168.652 150.5 170.305 154.485 172.332C162.791 176.558 170.133 182.282 177.67 187.631C186.011 193.55 194.867 199.29 205.144 201.464C205.542 201.546 205.373 202.14 204.975 202.051L204.967 202.059Z" fill="#303856" stroke="black" stroke-width="0.5"/>
<path d="M202.598 207.176C202.598 207.178 202.596 207.179 202.594 207.179C185.645 202.602 173.169 189.576 158.511 180.946C150.517 176.232 141.762 172.934 132.28 172.837C120.945 172.723 110.008 176.517 100.043 181.426C88.7846 186.971 78.321 193.892 67.1469 199.567C66.7832 199.746 66.4618 199.225 66.8255 199.038C86.3654 189.112 104.89 174.221 127.712 172.389C137.338 171.615 146.508 173.887 154.949 178.259C162.808 182.33 169.812 187.72 176.959 192.817C184.868 198.46 193.175 203.996 202.767 206.585C203.155 206.691 202.997 207.273 202.602 207.173C202.6 207.172 202.598 207.174 202.598 207.176Z" fill="#303856" stroke="black" stroke-width="0.5"/>
<path d="M199.984 211.804C184.285 206.569 172.468 194.575 158.536 186.36C151.109 181.98 142.972 178.739 134.183 178.3C123.55 177.77 113.078 180.84 103.554 185.163C98.2331 187.581 93.1155 190.399 88.0487 193.281C85.4518 194.755 82.8719 196.253 80.275 197.726C77.6782 199.2 75.3605 200.666 72.8397 202.025C72.4845 202.221 72.163 201.692 72.5183 201.496C74.8106 200.259 77.0099 198.858 79.2769 197.58C81.5439 196.302 83.7855 195.007 86.0355 193.721C90.6456 191.083 95.2725 188.469 100.06 186.132C109.314 181.605 119.329 178.088 129.793 177.664C138.726 177.306 147.218 179.651 155.026 183.706C162.833 187.761 169.127 192.613 175.877 197.458C183.397 202.856 191.187 208.23 200.137 211.21C200.517 211.34 200.356 211.926 199.967 211.796L199.984 211.804Z" fill="#303856" stroke="black" stroke-width="0.5"/>
<path d="M196.964 216.38C182.525 210.543 171.351 199.494 158.087 191.775C151.126 187.729 143.513 184.659 135.333 184.048C125.529 183.316 115.734 185.734 106.785 189.447C96.7018 193.623 87.4901 199.429 78.0078 204.697C77.6525 204.892 77.3311 204.363 77.6863 204.167C94.3079 194.934 111.192 183.576 131.146 183.307C139.453 183.193 147.353 185.449 154.645 189.178C161.936 192.907 168.035 197.466 174.388 202.05C181.544 207.212 188.835 212.432 197.133 215.786C197.506 215.933 197.345 216.527 196.964 216.372V216.38Z" fill="#303856" stroke="black" stroke-width="0.5"/>
<path d="M193.953 220.761C180.732 214.548 170.15 204.371 157.572 197.165C151.151 193.485 144.148 190.643 136.661 189.854C127.754 188.917 118.771 190.692 110.448 193.705C100.762 197.214 91.8974 202.449 83.041 207.53C82.6858 207.733 82.3728 207.204 82.7196 207.001C98.0808 198.199 114.499 188.535 133.05 189.007C148.665 189.406 161.387 198.354 173.39 207.017C180.055 211.829 186.763 216.706 194.283 220.231C194.647 220.402 194.325 220.932 193.962 220.761H193.953Z" fill="#303856" stroke="black" stroke-width="0.5"/>
<path d="M191.026 224.71C178.947 218.31 168.923 208.963 157.047 202.27C151.134 198.94 144.723 196.326 137.896 195.406C129.632 194.291 121.207 195.602 113.349 198.118C104.239 201.033 95.8391 205.616 87.6171 210.306C87.2618 210.51 86.9489 209.981 87.2957 209.777C101.515 201.676 117.121 193.607 134.183 194.454C148.639 195.178 160.642 203.247 171.842 211.316C178.152 215.859 184.42 220.516 191.339 224.18C191.694 224.368 191.373 224.897 191.018 224.71H191.026Z" fill="#303856" stroke="black" stroke-width="0.5"/>
<path d="M188.006 228.715C177.043 222.299 167.578 213.775 156.446 207.619C150.923 204.566 144.976 202.172 138.657 201.203C131.129 200.047 123.398 200.951 116.114 202.978C107.732 205.307 99.9328 209.15 92.3875 213.302C92.0322 213.498 91.7108 212.969 92.0661 212.773C105.126 205.576 119.693 199.103 135.13 200.194C148.436 201.13 159.703 208.319 170.124 215.761C176.096 220.028 181.958 224.457 188.319 228.186C188.666 228.39 188.353 228.919 187.998 228.715H188.006Z" fill="#303856" stroke="black" stroke-width="0.5"/>
<path d="M184.869 232.493C175.023 226.231 166.158 218.561 155.847 212.984C150.721 210.208 145.222 208.018 139.411 207.016C132.669 205.86 125.725 206.381 119.093 207.912C111.489 209.67 104.324 212.748 97.4469 216.29C97.0832 216.477 96.7702 215.948 97.1255 215.761C109.069 209.605 122.477 204.663 136.273 205.99C148.377 207.155 158.816 213.481 168.408 220.247C173.982 224.18 179.413 228.308 185.182 231.971C185.52 232.183 185.207 232.712 184.86 232.501L184.869 232.493Z" fill="#303856" stroke="black" stroke-width="0.5"/>
<path d="M181.781 235.871C173.009 229.952 164.821 223.162 155.423 218.146C150.72 215.638 145.704 213.627 140.426 212.593C134.521 211.437 128.406 211.584 122.493 212.618C115.65 213.815 109.103 216.16 102.843 219.042C102.479 219.213 102.158 218.684 102.522 218.513C113.391 213.505 125.538 209.988 137.693 211.543C148.631 212.943 158.198 218.537 166.986 224.644C172.062 228.169 176.976 231.898 182.102 235.35C182.432 235.57 182.119 236.108 181.781 235.88V235.871Z" fill="#303856" stroke="black" stroke-width="0.5"/>
<path d="M178.566 239.34C170.742 233.836 163.188 227.844 154.619 223.414C150.466 221.265 146.084 219.522 141.483 218.505C136.331 217.365 130.985 217.218 125.749 217.829C119.752 218.529 113.916 220.19 108.333 222.372C107.952 222.519 107.791 221.932 108.164 221.786C117.942 217.975 128.685 215.736 139.216 217.446C148.876 219.018 157.479 223.846 165.379 229.211C169.955 232.322 174.379 235.636 178.896 238.819C179.226 239.047 178.905 239.576 178.575 239.348L178.566 239.34Z" fill="#303856" stroke="black" stroke-width="0.5"/>
<path d="M175.216 242.645C168.644 237.923 162.131 233.037 154.907 229.251C147.683 225.465 139.182 222.949 130.545 223.169C125.276 223.3 120.073 224.277 115.04 225.742C114.651 225.856 114.482 225.27 114.871 225.156C123.542 222.632 132.779 221.63 141.686 223.609C149.73 225.4 157.013 229.365 163.763 233.827C167.773 236.473 171.638 239.315 175.529 242.116C175.851 242.352 175.529 242.881 175.208 242.645H175.216Z" fill="#303856" stroke="black" stroke-width="0.5"/>
<path d="M171.935 245.683C161.183 237.94 149.671 229.929 135.866 228.732C131.561 228.357 127.23 228.618 122.975 229.31C122.577 229.375 122.408 228.789 122.806 228.724C130.038 227.543 137.414 227.689 144.469 229.725C150.982 231.598 156.962 234.83 162.579 238.453C165.878 240.586 169.076 242.866 172.256 245.154C172.577 245.39 172.256 245.919 171.935 245.683Z" fill="#303856" stroke="black" stroke-width="0.5"/>
<path d="M158.533 244.244C150.336 239.09 141.412 235.1 131.507 234.571C131.101 234.547 131.101 233.936 131.507 233.96C141.53 234.498 150.556 238.495 158.854 243.714C159.193 243.926 158.88 244.455 158.533 244.244Z" fill="#303856" stroke="black" stroke-width="0.5"/>
<path d="M174.684 179.785L183.312 175.471" stroke="black" stroke-linecap="round"/>
<path d="M178.998 182.771L189.52 177.214" stroke="black" stroke-linecap="round"/>
<path d="M182.616 185.311L194.597 178.983" stroke="black" stroke-linecap="round"/>
<path d="M186.252 187.822L198.7 181.248" stroke="black" stroke-linecap="round"/>
<path d="M190.063 190.323L202.511 183.749" stroke="black" stroke-linecap="round"/>
<path d="M193.717 192.649L206.165 186.075" stroke="black" stroke-linecap="round"/>
<path d="M198.398 194.722L210.077 188.554" stroke="black" stroke-linecap="round"/>
<path d="M203.836 196.479L215.52 190.321" stroke="black" stroke-linecap="round"/>
<path d="M209.874 197.923L220.964 192.079" stroke="black" stroke-linecap="round"/>
<path d="M201.216 158.278L216.791 148.905C223.48 144.88 231.083 142.623 238.885 142.348L256.06 141.741" stroke="black" stroke-linecap="round"/>
<path d="M197.233 205.044L200.977 206.615C202.113 207.092 203.422 207.009 204.497 206.407C207.487 204.731 210.771 203.522 214.137 202.875L215.698 202.575L229.44 198.529" stroke="black" stroke-linecap="round"/>
<path d="M125.657 237.838L150.109 244.651" stroke="black" stroke-linecap="round"/>
</g>
<mask id="path-62-inside-1_388_26690" fill="white">
<path d="M6.29736 223.574H255.957V265.729H6.29736V223.574Z"/>
</mask>
<path d="M6.29736 223.574H255.957V265.729H6.29736V223.574Z" fill="#FFCC00"/>
<path d="M6.29736 224.574H255.957V222.574H6.29736V224.574ZM255.957 264.729H6.29736V266.729H255.957V264.729Z" fill="black" mask="url(#path-62-inside-1_388_26690)"/>
<path d="M15.3326 329.043V314.193H20.6651C22.2251 314.193 23.4701 314.583 24.4001 315.363C25.3301 316.143 25.7951 317.2 25.7951 318.535V318.985C25.7951 320.305 25.3301 321.363 24.4001 322.158C23.4701 322.938 22.2251 323.328 20.6651 323.328H17.3351V329.043H15.3326ZM20.6651 315.97H17.3351V321.55H20.6651C21.6851 321.55 22.4576 321.325 22.9826 320.875C23.5226 320.425 23.7926 319.773 23.7926 318.918V318.603C23.7926 317.748 23.5226 317.095 22.9826 316.645C22.4576 316.195 21.6851 315.97 20.6651 315.97ZM30.6521 329.268C29.6471 329.268 28.8296 328.968 28.1996 328.368C27.5696 327.753 27.2546 326.958 27.2546 325.983C27.2546 324.888 27.6521 324.025 28.4471 323.395C29.2421 322.75 30.3221 322.428 31.6871 322.428H34.2296V322.068C34.2296 320.163 33.3446 319.21 31.5746 319.21C31.0646 319.21 30.5621 319.308 30.0671 319.503C29.5721 319.683 29.1446 319.945 28.7846 320.29L27.7946 319.008C28.8296 318.018 30.1346 317.523 31.7096 317.523C34.6046 317.523 36.0521 319.038 36.0521 322.068V326.433C36.0521 327.228 36.3671 327.625 36.9971 327.625C37.0571 327.625 37.1171 327.625 37.1771 327.625C37.2521 327.61 37.3421 327.595 37.4471 327.58V329.2C37.1921 329.245 36.8846 329.268 36.5246 329.268C35.1746 329.268 34.4396 328.578 34.3196 327.198C33.9146 327.858 33.3971 328.368 32.7671 328.728C32.1371 329.088 31.4321 329.268 30.6521 329.268ZM31.2146 327.625C32.5046 327.625 33.5096 326.995 34.2296 325.735V323.913H31.8671C31.0271 323.913 30.3671 324.093 29.8871 324.453C29.4071 324.798 29.1671 325.278 29.1671 325.893C29.1671 326.418 29.3471 326.838 29.7071 327.153C30.0821 327.468 30.5846 327.625 31.2146 327.625ZM42.7325 329.313C41.0825 329.313 39.7025 328.788 38.5925 327.738L39.47 326.455C40.385 327.28 41.465 327.693 42.71 327.693C43.49 327.693 44.0975 327.543 44.5325 327.243C44.9825 326.928 45.2075 326.508 45.2075 325.983C45.2075 325.128 44.705 324.58 43.7 324.34L42.035 323.958C41.075 323.733 40.3325 323.343 39.8075 322.788C39.2975 322.233 39.0425 321.543 39.0425 320.718C39.0425 319.773 39.4175 319.008 40.1675 318.423C40.9325 317.823 41.9225 317.523 43.1375 317.523C44.6225 317.523 45.95 317.995 47.12 318.94L46.2875 320.268C45.3125 319.518 44.3 319.143 43.25 319.143C42.56 319.143 42.005 319.285 41.585 319.57C41.165 319.855 40.955 320.238 40.955 320.718C40.955 321.483 41.495 321.993 42.575 322.248L44.24 322.63C46.19 323.095 47.165 324.213 47.165 325.983C47.165 326.988 46.76 327.798 45.95 328.413C45.155 329.013 44.0825 329.313 42.7325 329.313ZM52.9717 329.313C51.3217 329.313 49.9417 328.788 48.8317 327.738L49.7092 326.455C50.6242 327.28 51.7042 327.693 52.9492 327.693C53.7292 327.693 54.3367 327.543 54.7717 327.243C55.2217 326.928 55.4467 326.508 55.4467 325.983C55.4467 325.128 54.9442 324.58 53.9392 324.34L52.2742 323.958C51.3142 323.733 50.5717 323.343 50.0467 322.788C49.5367 322.233 49.2817 321.543 49.2817 320.718C49.2817 319.773 49.6567 319.008 50.4067 318.423C51.1717 317.823 52.1617 317.523 53.3767 317.523C54.8617 317.523 56.1892 317.995 57.3592 318.94L56.5267 320.268C55.5517 319.518 54.5392 319.143 53.4892 319.143C52.7992 319.143 52.2442 319.285 51.8242 319.57C51.4042 319.855 51.1942 320.238 51.1942 320.718C51.1942 321.483 51.7342 321.993 52.8142 322.248L54.4792 322.63C56.4292 323.095 57.4042 324.213 57.4042 325.983C57.4042 326.988 56.9992 327.798 56.1892 328.413C55.3942 329.013 54.3217 329.313 52.9717 329.313ZM61.1185 315.993C60.7435 315.993 60.436 315.88 60.196 315.655C59.956 315.415 59.836 315.123 59.836 314.778C59.836 314.433 59.956 314.148 60.196 313.923C60.436 313.698 60.7435 313.585 61.1185 313.585C61.5085 313.585 61.816 313.698 62.041 313.923C62.281 314.148 62.401 314.433 62.401 314.778C62.401 315.123 62.281 315.415 62.041 315.655C61.816 315.88 61.5085 315.993 61.1185 315.993ZM60.1735 329.043V317.793H62.086V329.043H60.1735ZM70.0097 329.313C68.9597 329.313 68.0597 329.088 67.3097 328.638C66.5597 328.173 65.9822 327.528 65.5772 326.703C65.1872 325.878 64.9922 324.925 64.9922 323.845V322.99C64.9922 321.895 65.1872 320.943 65.5772 320.133C65.9822 319.308 66.5597 318.67 67.3097 318.22C68.0597 317.755 68.9597 317.523 70.0097 317.523C71.0597 317.523 71.9597 317.755 72.7097 318.22C73.4597 318.67 74.0297 319.308 74.4197 320.133C74.8247 320.943 75.0272 321.895 75.0272 322.99V323.845C75.0272 324.925 74.8247 325.878 74.4197 326.703C74.0297 327.528 73.4597 328.173 72.7097 328.638C71.9597 329.088 71.0597 329.313 70.0097 329.313ZM70.0097 327.603C70.9697 327.603 71.7272 327.273 72.2822 326.613C72.8372 325.938 73.1147 324.993 73.1147 323.778V323.058C73.1147 321.843 72.8372 320.905 72.2822 320.245C71.7272 319.57 70.9697 319.233 70.0097 319.233C69.0497 319.233 68.2922 319.57 67.7372 320.245C67.1822 320.905 66.9047 321.843 66.9047 323.058V323.778C66.9047 324.993 67.1822 325.938 67.7372 326.613C68.2922 327.273 69.0497 327.603 70.0097 327.603ZM77.9274 329.043V317.793H79.7049V319.953C80.0499 319.293 80.5224 318.73 81.1224 318.265C81.7224 317.8 82.4874 317.568 83.4174 317.568C84.5424 317.568 85.4349 317.935 86.0949 318.67C86.7699 319.405 87.1074 320.5 87.1074 321.955V329.043H85.1949V322.203C85.1949 321.228 84.9849 320.5 84.5649 320.02C84.1449 319.525 83.5524 319.278 82.7874 319.278C82.0674 319.278 81.4599 319.473 80.9649 319.863C80.4849 320.253 80.1099 320.695 79.8399 321.19V329.043H77.9274ZM96.0074 329.313C95.6324 329.313 95.3024 329.185 95.0174 328.93C94.7474 328.675 94.6124 328.353 94.6124 327.963C94.6124 327.573 94.7474 327.25 95.0174 326.995C95.3024 326.74 95.6324 326.613 96.0074 326.613C96.3974 326.613 96.7274 326.74 96.9974 326.995C97.2674 327.25 97.4024 327.573 97.4024 327.963C97.4024 328.353 97.2674 328.675 96.9974 328.93C96.7274 329.185 96.3974 329.313 96.0074 329.313ZM105.267 329.043V314.193H110.599C112.159 314.193 113.404 314.583 114.334 315.363C115.264 316.143 115.729 317.2 115.729 318.535V318.985C115.729 320.305 115.264 321.363 114.334 322.158C113.404 322.938 112.159 323.328 110.599 323.328H107.269V329.043H105.267ZM110.599 315.97H107.269V321.55H110.599C111.619 321.55 112.392 321.325 112.917 320.875C113.457 320.425 113.727 319.773 113.727 318.918V318.603C113.727 317.748 113.457 317.095 112.917 316.645C112.392 316.195 111.619 315.97 110.599 315.97ZM122.283 329.313C121.233 329.313 120.333 329.088 119.583 328.638C118.833 328.173 118.255 327.528 117.85 326.703C117.46 325.878 117.265 324.925 117.265 323.845V322.99C117.265 321.895 117.46 320.943 117.85 320.133C118.255 319.308 118.833 318.67 119.583 318.22C120.333 317.755 121.233 317.523 122.283 317.523C123.333 317.523 124.233 317.755 124.983 318.22C125.733 318.67 126.303 319.308 126.693 320.133C127.098 320.943 127.3 321.895 127.3 322.99V323.845C127.3 324.925 127.098 325.878 126.693 326.703C126.303 327.528 125.733 328.173 124.983 328.638C124.233 329.088 123.333 329.313 122.283 329.313ZM122.283 327.603C123.243 327.603 124 327.273 124.555 326.613C125.11 325.938 125.388 324.993 125.388 323.778V323.058C125.388 321.843 125.11 320.905 124.555 320.245C124 319.57 123.243 319.233 122.283 319.233C121.323 319.233 120.565 319.57 120.01 320.245C119.455 320.905 119.178 321.843 119.178 323.058V323.778C119.178 324.993 119.455 325.938 120.01 326.613C120.565 327.273 121.323 327.603 122.283 327.603ZM133.238 329.313C131.588 329.313 130.208 328.788 129.098 327.738L129.975 326.455C130.89 327.28 131.97 327.693 133.215 327.693C133.995 327.693 134.603 327.543 135.038 327.243C135.488 326.928 135.713 326.508 135.713 325.983C135.713 325.128 135.21 324.58 134.205 324.34L132.54 323.958C131.58 323.733 130.838 323.343 130.313 322.788C129.803 322.233 129.548 321.543 129.548 320.718C129.548 319.773 129.923 319.008 130.673 318.423C131.438 317.823 132.428 317.523 133.643 317.523C135.128 317.523 136.455 317.995 137.625 318.94L136.793 320.268C135.818 319.518 134.805 319.143 133.755 319.143C133.065 319.143 132.51 319.285 132.09 319.57C131.67 319.855 131.46 320.238 131.46 320.718C131.46 321.483 132 321.993 133.08 322.248L134.745 322.63C136.695 323.095 137.67 324.213 137.67 325.983C137.67 326.988 137.265 327.798 136.455 328.413C135.66 329.013 134.588 329.313 133.238 329.313ZM141.385 315.993C141.01 315.993 140.702 315.88 140.462 315.655C140.222 315.415 140.102 315.123 140.102 314.778C140.102 314.433 140.222 314.148 140.462 313.923C140.702 313.698 141.01 313.585 141.385 313.585C141.775 313.585 142.082 313.698 142.307 313.923C142.547 314.148 142.667 314.433 142.667 314.778C142.667 315.123 142.547 315.415 142.307 315.655C142.082 315.88 141.775 315.993 141.385 315.993ZM140.44 329.043V317.793H142.352V329.043H140.44ZM149.871 329.268C148.611 329.268 147.726 328.96 147.216 328.345C146.706 327.715 146.451 326.695 146.451 325.285V319.413H144.516V317.793H146.451V315.295L148.363 314.845V317.793H151.243V319.413H148.363V325.218C148.363 326.163 148.513 326.8 148.813 327.13C149.128 327.445 149.631 327.603 150.321 327.603C150.456 327.603 150.598 327.595 150.748 327.58C150.913 327.565 151.078 327.543 151.243 327.513V329.155C151.048 329.185 150.831 329.208 150.591 329.223C150.366 329.253 150.126 329.268 149.871 329.268ZM154.524 315.993C154.149 315.993 153.842 315.88 153.602 315.655C153.362 315.415 153.242 315.123 153.242 314.778C153.242 314.433 153.362 314.148 153.602 313.923C153.842 313.698 154.149 313.585 154.524 313.585C154.914 313.585 155.222 313.698 155.447 313.923C155.687 314.148 155.807 314.433 155.807 314.778C155.807 315.123 155.687 315.415 155.447 315.655C155.222 315.88 154.914 315.993 154.524 315.993ZM153.579 329.043V317.793H155.492V329.043H153.579ZM163.415 329.313C162.365 329.313 161.465 329.088 160.715 328.638C159.965 328.173 159.388 327.528 158.983 326.703C158.593 325.878 158.398 324.925 158.398 323.845V322.99C158.398 321.895 158.593 320.943 158.983 320.133C159.388 319.308 159.965 318.67 160.715 318.22C161.465 317.755 162.365 317.523 163.415 317.523C164.465 317.523 165.365 317.755 166.115 318.22C166.865 318.67 167.435 319.308 167.825 320.133C168.23 320.943 168.433 321.895 168.433 322.99V323.845C168.433 324.925 168.23 325.878 167.825 326.703C167.435 327.528 166.865 328.173 166.115 328.638C165.365 329.088 164.465 329.313 163.415 329.313ZM163.415 327.603C164.375 327.603 165.133 327.273 165.688 326.613C166.243 325.938 166.52 324.993 166.52 323.778V323.058C166.52 321.843 166.243 320.905 165.688 320.245C165.133 319.57 164.375 319.233 163.415 319.233C162.455 319.233 161.698 319.57 161.143 320.245C160.588 320.905 160.31 321.843 160.31 323.058V323.778C160.31 324.993 160.588 325.938 161.143 326.613C161.698 327.273 162.455 327.603 163.415 327.603ZM171.333 329.043V317.793H173.111V319.953C173.456 319.293 173.928 318.73 174.528 318.265C175.128 317.8 175.893 317.568 176.823 317.568C177.948 317.568 178.841 317.935 179.501 318.67C180.176 319.405 180.513 320.5 180.513 321.955V329.043H178.601V322.203C178.601 321.228 178.391 320.5 177.971 320.02C177.551 319.525 176.958 319.278 176.193 319.278C175.473 319.278 174.866 319.473 174.371 319.863C173.891 320.253 173.516 320.695 173.246 321.19V329.043H171.333ZM189.413 329.313C189.038 329.313 188.708 329.185 188.423 328.93C188.153 328.675 188.018 328.353 188.018 327.963C188.018 327.573 188.153 327.25 188.423 326.995C188.708 326.74 189.038 326.613 189.413 326.613C189.803 326.613 190.133 326.74 190.403 326.995C190.673 327.25 190.808 327.573 190.808 327.963C190.808 328.353 190.673 328.675 190.403 328.93C190.133 329.185 189.803 329.313 189.413 329.313ZM198.672 329.043V314.193H204.005C205.565 314.193 206.81 314.583 207.74 315.363C208.67 316.143 209.135 317.2 209.135 318.535V318.985C209.135 320.305 208.67 321.363 207.74 322.158C206.81 322.938 205.565 323.328 204.005 323.328H200.675V329.043H198.672ZM204.005 315.97H200.675V321.55H204.005C205.025 321.55 205.797 321.325 206.322 320.875C206.862 320.425 207.132 319.773 207.132 318.918V318.603C207.132 317.748 206.862 317.095 206.322 316.645C205.797 316.195 205.025 315.97 204.005 315.97ZM211.697 329.043V317.793H213.474V320.425C213.654 319.945 213.902 319.495 214.217 319.075C214.547 318.655 214.959 318.31 215.454 318.04C215.964 317.77 216.572 317.635 217.277 317.635C217.532 317.635 217.794 317.658 218.064 317.703V319.525C217.944 319.51 217.809 319.503 217.659 319.503C217.524 319.488 217.389 319.48 217.254 319.48C216.309 319.48 215.537 319.705 214.937 320.155C214.352 320.605 213.909 321.115 213.609 321.685V329.043H211.697ZM221.167 315.993C220.792 315.993 220.485 315.88 220.245 315.655C220.005 315.415 219.885 315.123 219.885 314.778C219.885 314.433 220.005 314.148 220.245 313.923C220.485 313.698 220.792 313.585 221.167 313.585C221.557 313.585 221.865 313.698 222.09 313.923C222.33 314.148 222.45 314.433 222.45 314.778C222.45 315.123 222.33 315.415 222.09 315.655C221.865 315.88 221.557 315.993 221.167 315.993ZM220.222 329.043V317.793H222.135V329.043H220.222ZM229.316 329.268C228.461 329.268 227.711 329.043 227.066 328.593C226.421 328.143 225.919 327.513 225.559 326.703C225.214 325.893 225.041 324.94 225.041 323.845V322.99C225.041 321.895 225.214 320.943 225.559 320.133C225.919 319.323 226.421 318.693 227.066 318.243C227.711 317.793 228.461 317.568 229.316 317.568C230.081 317.568 230.771 317.755 231.386 318.13C232.001 318.49 232.504 319.015 232.894 319.705V313.293H234.806V329.043H233.029V326.883C232.639 327.648 232.121 328.24 231.476 328.66C230.846 329.065 230.126 329.268 229.316 329.268ZM226.954 323.778C226.954 324.963 227.216 325.893 227.741 326.568C228.281 327.228 229.016 327.558 229.946 327.558C230.561 327.558 231.124 327.393 231.634 327.063C232.159 326.718 232.579 326.245 232.894 325.645V321.19C232.579 320.59 232.159 320.125 231.634 319.795C231.124 319.45 230.561 319.278 229.946 319.278C229.016 319.278 228.281 319.615 227.741 320.29C227.216 320.95 226.954 321.873 226.954 323.058V323.778ZM242.849 329.313C241.769 329.313 240.847 329.08 240.082 328.615C239.317 328.15 238.732 327.513 238.327 326.703C237.922 325.878 237.719 324.925 237.719 323.845V322.99C237.719 321.91 237.914 320.965 238.304 320.155C238.694 319.33 239.249 318.685 239.969 318.22C240.689 317.755 241.552 317.523 242.557 317.523C243.577 317.523 244.432 317.755 245.122 318.22C245.827 318.685 246.359 319.33 246.719 320.155C247.079 320.965 247.259 321.903 247.259 322.968V324.048H239.587C239.632 325.158 239.939 326.035 240.509 326.68C241.079 327.31 241.897 327.625 242.962 327.625C243.577 327.625 244.132 327.513 244.627 327.288C245.122 327.063 245.572 326.763 245.977 326.388L246.944 327.693C246.434 328.203 245.834 328.6 245.144 328.885C244.469 329.17 243.704 329.313 242.849 329.313ZM242.512 319.165C241.642 319.165 240.952 319.465 240.442 320.065C239.947 320.665 239.669 321.498 239.609 322.563H245.414C245.354 321.543 245.077 320.725 244.582 320.11C244.087 319.48 243.397 319.165 242.512 319.165Z" fill="black"/>
<path d="M5.82988 156.806L15.5272 147.109L25.6405 155.608M5.39014 169.47L15.5272 159.333L26.1028 168.356M15.5308 147.154V209.675M5.82991 133.3L15.7264 123.597L26.3019 133.419M5.82991 145.156L15.527 135.459L26.1026 144.482M15.5307 124.571V166.348M24.8216 155.71L36.2907 147.212L47.2432 155.71M25.1996 168.459L36.2907 159.435L47.2432 168.213M36.2943 147.257V200.28M25.7682 144.136L36.512 135.727L47.2859 144.633M36.2942 136.372V166.037M99.6773 136.159V146.895M99.6773 136.159L110.768 145.182M99.6773 136.159L89.564 144.063M99.6773 146.895V159.119M99.6773 146.895L111.206 156.116M99.6773 146.895L89.564 155.394M99.6773 159.119V169.862M99.6773 159.119L108.768 166.142M99.6773 159.119L89.1017 168.142M99.6773 102.607V113.344M99.6773 102.607L110.768 111.63M99.6773 102.607L89.564 110.512M99.6773 113.344V124.277M99.6773 113.344L111.206 122.564M99.6773 113.344L89.564 121.842M99.6773 124.277V155.055M99.6773 124.277L110.768 133.3M99.6773 124.277L89.1017 133.3M90.4422 155.394L78.2605 146.896L68.1472 155.394M90.0415 168.142L78.2605 159.119L67.6849 168.142M78.2569 146.94V181.221M89.8424 133.205L78.0613 123.383L67.4857 133.205M90.0417 144.269L78.2606 135.246L67.685 144.269M78.257 124.357V166.135M68.9661 155.497L57.497 146.998L46.6678 155.985M68.5881 168.245L57.497 159.222L46.6678 168.245M57.4934 147.043V191.82M68.0195 143.922L57.2757 135.514L46.7001 144.537M57.4935 136.159V165.824" stroke="black"/>
<path d="M163.122 125.9V168.459M163.122 125.9L173.991 134.207M163.122 125.9L153.212 133.177M174.42 144.272L163.122 135.784L153.212 143.608M173.991 155.344L163.122 147.037L152.759 155.344" stroke="black"/>
<path d="M163.122 95.0122V143.296M163.122 95.0122L173.991 103.319M163.122 95.0122L153.212 102.289M174.42 113.384L163.122 104.896L153.212 112.72M173.991 123.268L163.122 114.961L152.759 123.268" stroke="black"/>
<path d="M154.072 143.608L142.135 135.785L132.224 143.608M153.68 155.345L142.135 147.038L131.771 155.345" stroke="black"/>
<path d="M142.131 135.826V163.056" stroke="black"/>
<path d="M153.484 123.181L141.939 114.139L131.576 123.181M153.68 133.366L142.135 125.06L131.771 133.366" stroke="black"/>
<path d="M153.68 133.367L142.135 125.06L131.771 133.367" stroke="black"/>
<path d="M142.131 115.036V153.496" stroke="black"/>
<path d="M132.827 143.455L121.786 135.879L110.221 145.104M132.16 155.071L121.786 147.132L110.506 156.068" stroke="black"/>
<path d="M121.783 135.92L121.783 162.358" stroke="black"/>
<path d="M132.275 133.013L121.57 125.306L110.221 133.446" stroke="black"/>
<path d="M121.783 125.9V153.21" stroke="black"/>
<path d="M185.034 125.9V163.88M185.034 125.9L173.463 134.099M185.034 125.9L194.945 133.177M173.774 144.06L185.034 135.784L194.586 143.349M173.463 155.344L185.034 147.037L194.944 155.134" stroke="black"/>
<path d="M185.034 95.0122V143.296M185.034 95.0122L173.507 103.37M185.034 95.0122L194.944 102.289M173.819 113.153L185.034 104.896L194.944 112.72M173.507 123.268L185.034 114.961L195.397 123.268" stroke="black"/>
<path d="M194.084 143.608L206.022 135.785L215.933 143.608M194.477 155.345L206.022 147.038L211.496 152.512" stroke="black"/>
<path d="M194.672 123.181L206.217 114.139L216.581 123.181M194.477 133.366L206.022 125.06L216.385 133.366" stroke="black"/>
<path d="M194.477 133.367L206.022 125.06L216.385 133.367" stroke="black"/>
<path d="M206.025 114.348V155.422" stroke="black"/>
<mask id="mask1_388_26690" style="mask-type:alpha" maskUnits="userSpaceOnUse" x="5" y="5" width="252" height="283">
<path d="M131.127 6.15527C200.345 6.15534 256.458 62.2675 256.458 131.485V286.947H5.79736V131.485C5.79736 62.2675 61.9096 6.15527 131.127 6.15527Z" fill="#D9D9D9" stroke="black"/>
</mask>
<g mask="url(#mask1_388_26690)">
<path d="M247.479 115.608V142.513M247.479 115.608L259.05 123.807M247.479 115.608L237.568 122.885M258.739 133.768L247.479 125.492L237.926 133.057" stroke="black"/>
<path d="M247.479 84.7202V133.004M247.479 84.7202L259.005 93.0777M247.479 84.7202L237.568 91.9973M258.694 102.861L247.479 94.6045L231.506 107.457M259.005 112.976L247.479 104.67L237.115 112.976" stroke="black"/>
<path d="M238.429 133.317L226.491 125.493L215.488 133.317M239.222 142.449L226.491 136.746L215.488 143.27" stroke="black"/>
<path d="M237.841 112.889L226.296 103.847L209.674 116.734M238.036 123.074L226.491 114.768L216.127 123.074" stroke="black"/>
<path d="M238.036 123.075L226.491 114.768L215.861 123.075" stroke="black"/>
<path d="M226.488 104.137V145.13" stroke="black"/>
</g>
<circle cx="25.9343" cy="96.5123" r="1.5" fill="#D40511"/>
<circle cx="51.7128" cy="124.592" r="1.5" transform="rotate(-16.247 51.7128 124.592)" fill="#D40511"/>
<circle cx="220.955" cy="97.891" r="1.5" transform="rotate(-135.335 220.955 97.891)" fill="#D40511"/>
<circle cx="54.7979" cy="54.9" r="1.5" fill="#D40511"/>
<circle cx="62.3315" cy="81.4313" r="1.5" fill="#D40511"/>
<circle cx="82.4372" cy="99.9312" r="1.5" transform="rotate(-16.247 82.4372 99.9312)" fill="#D40511"/>
<circle cx="184.468" cy="83.0317" r="1.5" transform="rotate(-135.335 184.468 83.0317)" fill="#D40511"/>
<circle cx="184.44" cy="58.5214" r="1.5" transform="rotate(-135.335 184.44 58.5214)" fill="#D40511"/>
<circle cx="223.064" cy="62.7641" r="1.5" transform="rotate(-135.335 223.064 62.7641)" fill="#D40511"/>
<circle cx="200.174" cy="42.9555" r="1.5" transform="rotate(-135.335 200.174 42.9555)" fill="#D40511"/>
<circle cx="47.7317" cy="72.4487" r="1.5" transform="rotate(-135.335 47.7317 72.4487)" fill="#D40511"/>
<path fill-rule="evenodd" clip-rule="evenodd" d="M124.811 60.1794C133.379 49.0172 131.356 33.4506 119.98 24.8232L102.679 45.0713L102.65 45.0492C93.0579 56.2716 94.8186 72.596 106.583 81.5148C118.348 90.4336 135.656 88.5667 145.248 77.3443C154.841 66.1219 153.08 49.7976 141.315 40.8788L124.818 60.1849L124.811 60.1794Z" fill="url(#paint0_radial_388_26690)"/>
<mask id="mask2_388_26690" style="mask-type:alpha" maskUnits="userSpaceOnUse" x="6" y="6" width="250" height="281">
<path d="M6.29736 131.485C6.29736 62.5436 62.1856 6.65527 131.127 6.65527C200.069 6.65527 255.957 62.5436 255.957 131.485V286.448H6.29736V131.485Z" fill="#D9D9D9"/>
</mask>
<g mask="url(#mask2_388_26690)">
<path d="M245.909 83.1872L167.464 66.0125M180.324 94.0552L163.176 83.1859M209.767 112.314L198.643 105.301M154.382 98.7428L149.927 91.91M136.982 111.991L134.151 99.5962M117.761 98.7428L115.139 119.971M101.465 93.4702L95.2366 101.126M88.4512 80.401L53.372 103.501M81.9886 66.0231L53.4612 71.3844M43.1388 73.6255L23.7769 77.0158M83.0661 47.882C67.1953 44.7753 45.8011 39.5898 45.8775 39.2189M90.5279 33.3509L73.7937 19.915M103.222 20.9844L95.2366 9.96871M118.311 15.0554L117.761 5.82176M134.497 14.0142L136.982 5.82174M152.007 19.9149L161.824 9.96868M161.824 32.0842L186.879 18.3526M168.394 49.8329L194.951 44.1423M206.667 41.6875L217.155 39.5671M45.8775 108.316L22.4773 122.94" stroke="#F5CB00" stroke-width="2" stroke-linecap="round"/>
</g>
<path fill-rule="evenodd" clip-rule="evenodd" d="M74.8834 234.081C80.1544 232.662 85.7069 232.662 90.9779 234.081L92.6187 234.523C97.6113 235.867 102.881 235.782 107.827 234.276C112.876 232.74 118.267 232.74 123.315 234.276L130.746 236.538L130.892 236.06L131.032 236.54L139.714 234.008C144.38 232.647 149.347 232.707 153.979 234.181C158.897 235.746 164.175 235.779 169.112 234.276L169.745 234.084C174.366 232.677 179.31 232.742 183.892 234.27C188.416 235.778 193.284 235.921 197.889 234.681L200.116 234.081C205.387 232.662 210.939 232.662 216.21 234.081L217.851 234.523C222.844 235.867 228.114 235.782 233.06 234.276C238.108 232.74 243.499 232.74 248.547 234.276L255.979 236.538L256.27 235.582L248.838 233.32C243.6 231.726 238.007 231.726 232.769 233.32C228.002 234.771 222.923 234.853 218.111 233.558L216.47 233.116C211.029 231.651 205.297 231.651 199.856 233.116L197.629 233.715C193.213 234.904 188.546 234.767 184.208 233.321C179.429 231.728 174.273 231.66 169.454 233.127L168.821 233.32C164.077 234.763 159.007 234.731 154.282 233.228C149.461 231.694 144.291 231.631 139.434 233.048L130.895 235.538L123.606 233.32C118.368 231.726 112.774 231.726 107.536 233.32C102.769 234.771 97.6904 234.853 92.8787 233.558L91.2379 233.116C85.7966 231.651 80.0647 231.651 74.6234 233.116L72.3962 233.715C67.981 234.904 63.3135 234.767 58.9757 233.321C54.1967 231.728 49.0406 231.66 44.2213 233.127L43.5883 233.32C38.8449 234.763 33.7747 234.731 29.0499 233.228C24.2282 231.694 19.0587 231.631 14.2012 233.048L5.51953 235.58L5.79954 236.54L14.4812 234.008C19.1479 232.647 24.1144 232.707 28.7467 234.181C33.6647 235.746 38.9421 235.779 43.8795 234.276L44.5125 234.084C49.1333 232.677 54.0772 232.742 58.6594 234.27C63.1835 235.778 68.0514 235.921 72.6562 234.681L74.8834 234.081Z" fill="black"/>
<path fill-rule="evenodd" clip-rule="evenodd" d="M74.8834 245.081C80.1544 243.662 85.7069 243.662 90.9779 245.081L92.6187 245.523C97.6113 246.867 102.881 246.782 107.827 245.276C112.876 243.74 118.267 243.74 123.315 245.276L130.746 247.538L130.892 247.06L131.032 247.54L139.714 245.008C144.38 243.647 149.347 243.707 153.979 245.181C158.897 246.746 164.175 246.779 169.112 245.276L169.745 245.084C174.366 243.677 179.31 243.742 183.892 245.27C188.416 246.778 193.284 246.921 197.889 245.681L200.116 245.081C205.387 243.662 210.939 243.662 216.21 245.081L217.851 245.523C222.844 246.867 228.114 246.782 233.06 245.276C238.108 243.74 243.499 243.74 248.547 245.276L255.979 247.538L256.27 246.582L248.838 244.32C243.6 242.726 238.007 242.726 232.769 244.32C228.002 245.771 222.923 245.853 218.111 244.558L216.47 244.116C211.029 242.651 205.297 242.651 199.856 244.116L197.629 244.715C193.213 245.904 188.546 245.767 184.208 244.321C179.429 242.728 174.273 242.66 169.454 244.127L168.821 244.32C164.077 245.763 159.007 245.731 154.282 244.228C149.461 242.694 144.291 242.631 139.434 244.048L130.895 246.538L123.606 244.32C118.368 242.726 112.774 242.726 107.536 244.32C102.769 245.771 97.6904 245.853 92.8787 244.558L91.2379 244.116C85.7966 242.651 80.0647 242.651 74.6234 244.116L72.3962 244.715C67.981 245.904 63.3135 245.767 58.9757 244.321C54.1967 242.728 49.0406 242.66 44.2213 244.127L43.5883 244.32C38.8449 245.763 33.7747 245.731 29.0499 244.228C24.2282 242.694 19.0587 242.631 14.2012 244.048L5.51953 246.58L5.79954 247.54L14.4812 245.008C19.1479 243.647 24.1144 243.707 28.7467 245.181C33.6647 246.746 38.9421 246.779 43.8795 245.276L44.5125 245.084C49.1333 243.677 54.0772 243.742 58.6594 245.27C63.1835 246.778 68.0514 246.921 72.6562 245.681L74.8834 245.081Z" fill="black"/>
<path fill-rule="evenodd" clip-rule="evenodd" d="M74.8834 256.081C80.1544 254.662 85.7069 254.662 90.9779 256.081L92.6187 256.523C97.6113 257.867 102.881 257.782 107.827 256.276C112.876 254.74 118.267 254.74 123.315 256.276L130.746 258.538L130.892 258.06L131.032 258.54L139.714 256.008C144.38 254.647 149.347 254.707 153.979 256.181C158.897 257.746 164.175 257.779 169.112 256.276L169.745 256.084C174.366 254.677 179.31 254.742 183.892 256.27C188.416 257.778 193.284 257.921 197.889 256.681L200.116 256.081C205.387 254.662 210.939 254.662 216.21 256.081L217.851 256.523C222.844 257.867 228.114 257.782 233.06 256.276C238.108 254.74 243.499 254.74 248.547 256.276L255.979 258.538L256.27 257.582L248.838 255.32C243.6 253.726 238.007 253.726 232.769 255.32C228.002 256.771 222.923 256.853 218.111 255.558L216.47 255.116C211.029 253.651 205.297 253.651 199.856 255.116L197.629 255.715C193.213 256.904 188.546 256.767 184.208 255.321C179.429 253.728 174.273 253.66 169.454 255.127L168.821 255.32C164.077 256.763 159.007 256.731 154.282 255.228C149.461 253.694 144.291 253.631 139.434 255.048L130.895 257.538L123.606 255.32C118.368 253.726 112.774 253.726 107.536 255.32C102.769 256.771 97.6904 256.853 92.8787 255.558L91.2379 255.116C85.7966 253.651 80.0647 253.651 74.6234 255.116L72.3962 255.715C67.981 256.904 63.3135 256.767 58.9757 255.321C54.1967 253.728 49.0406 253.66 44.2213 255.127L43.5883 255.32C38.8449 256.763 33.7747 256.731 29.0499 255.228C24.2282 253.694 19.0587 253.631 14.2012 255.048L5.51953 257.58L5.79954 258.54L14.4812 256.008C19.1479 254.647 24.1144 254.707 28.7467 256.181C33.6647 257.746 38.9421 257.779 43.8795 256.276L44.5125 256.084C49.1333 254.677 54.0772 254.742 58.6594 256.27C63.1835 257.778 68.0514 257.921 72.6562 256.681L74.8834 256.081Z" fill="black"/>
<defs>
<radialGradient id="paint0_radial_388_26690" cx="0" cy="0" r="1" gradientUnits="userSpaceOnUse" gradientTransform="translate(118.026 44.5432) rotate(81.0787) scale(102.309 89.9963)">
<stop offset="0.24" stop-color="#FFCC00"/>
<stop offset="1" stop-color="#D40511"/>
</radialGradient>
</defs>
</svg>
