<svg width="269" height="278" viewBox="0 0 269 278" fill="none" xmlns="http://www.w3.org/2000/svg">
<g clip-path="url(#clip0_648_158)">
<path d="M135 4.17773C206.979 4.17778 265.33 62.5286 265.33 134.508V274.737H4.66992V134.508C4.66992 62.5285 63.0207 4.17773 135 4.17773Z" stroke="black"/>
<path d="M135.297 9.83301C204.515 9.83307 260.627 65.9453 260.627 135.163V269.248H9.96729V135.163C9.96729 65.9452 66.0795 9.83301 135.297 9.83301Z" stroke="black"/>
<mask id="mask0_648_158" style="mask-type:alpha" maskUnits="userSpaceOnUse" x="11" y="140" width="250" height="88">
<path d="M11.1814 199.731L11.1815 227.566H260.127V140.6L243.463 140.6C237.698 140.6 231.995 141.787 226.709 144.086L193.796 158.404C190.096 160.013 186.183 161.081 182.179 161.574L166.115 163.554L151.266 160.83L145.64 159.388C138.394 157.53 130.784 157.641 123.596 159.71L91.982 168.806L22.3585 185.67C15.8149 187.185 11.1814 193.014 11.1814 199.731Z" fill="white"/>
</mask>
<g mask="url(#mask0_648_158)">
<path d="M171.83 177.835C175.365 176.161 179.264 175.402 183.169 175.63L186.954 175.85M167.954 175.85L169.591 175.023C174.118 172.735 179.253 171.94 184.26 172.751L190.546 173.771M164.363 173.109L167.966 171.339C172.622 169.052 177.893 168.335 182.991 169.295L194.704 171.502M191.68 170.368L193.388 168.867C196.308 166.301 200.062 164.885 203.95 164.885H207.56M186.954 169.612L189.754 166.811C192.91 163.655 197.24 161.961 201.7 162.137L211.435 162.522" stroke="black" stroke-linecap="round"/>
<path d="M249.307 209.763C241.174 208.366 232.79 207.514 224.706 209.225C216.74 210.916 209.767 215.248 203.918 220.868C192.032 232.285 185.023 247.689 175.012 260.659C169.624 267.632 163.312 274.004 155.449 278.015C155.094 278.197 154.852 277.603 155.208 277.421C170.115 269.805 178.82 254.394 187.669 240.678C196.518 226.962 206.545 213.505 222.26 209.168C231.088 206.739 240.4 207.583 249.389 209.13C249.784 209.2 249.709 209.83 249.307 209.763Z" fill="white" stroke="black"/>
<path d="M252.204 216.881C244.54 215.56 236.674 214.728 229.01 216.065C221.346 217.403 214.763 220.977 209.026 225.951C197.343 236.085 190.292 250.288 181.503 262.854C176.536 269.96 170.928 276.746 163.881 281.773C163.556 282.007 163.171 281.499 163.496 281.265C176.541 271.951 184.158 257.251 192.965 244.134C201.243 231.804 211.548 219.535 226.456 215.942C234.908 213.905 243.75 214.783 252.286 216.248C252.681 216.318 252.606 216.948 252.204 216.881Z" fill="white" stroke="black"/>
<path d="M255.097 223.992C247.906 222.756 240.549 221.947 233.336 222.962C226.248 223.955 219.731 226.902 214.096 231.29C202.708 240.151 195.53 253.141 187.691 265.098C183.129 272.058 178.212 278.849 172.14 284.513C171.849 284.788 171.461 284.273 171.754 284.006C182.902 273.609 189.772 259.665 198.568 247.336C206.659 235.996 216.898 225.498 230.947 222.716C238.925 221.14 247.172 221.984 255.179 223.359C255.574 223.429 255.5 224.059 255.097 223.992Z" fill="white" stroke="black"/>
<path d="M257.991 231.102C251.272 229.951 244.426 229.165 237.653 229.9C230.937 230.621 224.639 233.008 219.095 236.852C208.136 244.458 200.773 256.204 193.69 267.383C189.39 274.172 184.954 280.914 179.633 286.91C179.371 287.21 178.87 286.814 179.132 286.514C188.599 275.832 195.014 262.857 203.617 251.502C211.599 240.973 221.732 231.819 235.073 229.602C242.676 228.336 250.472 229.169 258.065 230.472C258.46 230.542 258.386 231.172 257.983 231.106L257.991 231.102Z" fill="white" stroke="black"/>
<path d="M260.887 238.22C254.582 237.14 248.167 236.382 241.804 236.894C235.538 237.404 229.536 239.265 224.171 242.537C213.623 248.98 206.19 259.517 199.54 269.828C195.414 276.232 191.453 282.736 186.831 288.779C186.586 289.1 186.085 288.704 186.33 288.383C194.449 277.751 200.587 265.655 209.097 255.326C213.024 250.562 217.448 246.141 222.6 242.762C227.724 239.403 233.475 237.256 239.557 236.47C246.663 235.563 253.882 236.363 260.947 237.577C261.342 237.647 261.268 238.277 260.865 238.21L260.887 238.22Z" fill="white" stroke="black"/>
<path d="M312.21 180.073C304.06 178.823 296.838 174.782 290.188 170.25C283.252 165.525 276.737 160.172 269.365 156.054C265.765 154.044 261.958 152.345 257.936 151.295C252.779 149.948 247.393 149.789 242.121 150.542C230.942 152.131 220.899 157.443 211.305 162.935C206.405 165.739 201.533 168.585 196.519 171.197C191.504 173.808 186.247 176.322 180.975 178.616C179.682 179.175 176.832 180.393 175.532 180.932C175.218 181.063 175.261 181.364 175.261 180.483C185.961 176.048 197.762 170.133 207.755 164.372C217.313 158.866 227.042 153.208 237.992 150.77C243.228 149.602 248.672 149.195 254 149.969C258.172 150.576 262.186 151.924 265.965 153.713C273.666 157.353 280.352 162.645 287.216 167.535C294.081 172.426 301.067 176.992 309.267 178.968C310.289 179.21 311.318 179.41 312.353 179.569C312.696 179.624 312.546 180.122 312.21 180.066V180.073Z" fill="white" stroke="black"/>
<path d="M306.525 183.279C291.63 180.122 280.855 168.568 268.235 161.186C261.162 157.048 253.444 154.392 245.068 154.692C234.992 155.059 225.534 158.97 216.825 163.602C211.936 166.199 207.2 169.049 202.374 171.739C197.416 174.502 191.76 177.457 186.608 179.866C186.31 180.006 186.046 179.572 186.344 179.432C191.004 177.256 196.189 174.562 200.696 172.092C205.203 169.623 209.384 167.12 213.767 164.69C222.24 159.998 231.227 155.78 241.018 154.525C245.615 153.938 250.303 154.045 254.824 155.072C258.423 155.893 261.876 157.248 265.142 158.91C271.951 162.374 277.97 167.066 284.148 171.452C290.985 176.304 298.245 181.009 306.67 182.791C306.996 182.858 306.858 183.345 306.532 183.272L306.525 183.279Z" fill="white" stroke="black"/>
<path d="M304.583 187.477C290.687 183.726 280.459 173.047 268.442 165.972C261.89 162.107 254.713 159.404 246.94 159.324C237.648 159.231 228.682 162.341 220.514 166.366C211.284 170.911 202.707 176.584 193.547 181.236C193.249 181.383 192.985 180.956 193.283 180.802C209.301 172.666 224.487 160.459 243.195 158.957C251.086 158.323 258.603 160.185 265.523 163.769C271.965 167.106 277.707 171.525 283.566 175.703C290.049 180.329 296.859 184.867 304.722 186.99C305.041 187.076 304.909 187.557 304.583 187.47V187.477Z" fill="white" stroke="black"/>
<path d="M302.441 191.268C289.571 186.976 279.884 177.145 268.464 170.41C262.375 166.819 255.705 164.163 248.5 163.802C239.784 163.369 231.2 165.885 223.392 169.429C219.03 171.411 214.835 173.721 210.681 176.083C208.553 177.292 206.438 178.52 204.309 179.728C202.18 180.936 200.28 182.137 198.214 183.252C197.923 183.412 197.659 182.978 197.95 182.818C199.829 181.803 201.632 180.655 203.491 179.608C205.349 178.56 207.187 177.498 209.031 176.444C212.81 174.281 216.603 172.139 220.528 170.223C228.114 166.512 236.324 163.629 244.901 163.282C252.224 162.988 259.186 164.91 265.586 168.234C271.986 171.558 277.145 175.536 282.679 179.507C288.843 183.933 295.229 188.338 302.566 190.781C302.878 190.887 302.746 191.368 302.427 191.261L302.441 191.268Z" fill="white" stroke="black"/>
<path d="M299.965 195.019C288.129 190.233 278.969 181.176 268.096 174.849C262.389 171.531 256.148 169.015 249.443 168.515C241.406 167.914 233.377 169.896 226.04 172.94C217.775 176.364 210.224 181.123 202.45 185.441C202.159 185.601 201.896 185.167 202.187 185.007C215.812 177.438 229.653 168.127 246.011 167.907C252.82 167.814 259.297 169.663 265.274 172.719C271.251 175.776 276.251 179.514 281.458 183.272C287.324 187.503 293.302 191.782 300.104 194.532C300.409 194.652 300.277 195.139 299.965 195.012V195.019Z" fill="white" stroke="black"/>
<path d="M297.496 198.61C286.658 193.517 277.984 185.174 267.673 179.267C262.41 176.251 256.668 173.921 250.531 173.274C243.23 172.506 235.866 173.961 229.043 176.431C221.103 179.307 213.836 183.599 206.576 187.764C206.285 187.931 206.028 187.497 206.312 187.33C218.905 180.115 232.364 172.192 247.571 172.58C260.371 172.907 270.8 180.242 280.64 187.343C286.104 191.288 291.602 195.286 297.767 198.176C298.065 198.316 297.802 198.75 297.503 198.61H297.496Z" fill="white" stroke="black"/>
<path d="M295.098 201.847C285.196 196.601 276.979 188.938 267.243 183.452C262.396 180.722 257.14 178.58 251.544 177.825C244.769 176.911 237.863 177.985 231.421 180.048C223.953 182.437 217.068 186.195 210.328 190.04C210.036 190.206 209.78 189.773 210.064 189.606C221.72 182.965 234.514 176.35 248.5 177.044C260.351 177.638 270.19 184.253 279.371 190.867C284.544 194.592 289.682 198.409 295.354 201.413C295.645 201.566 295.382 202 295.091 201.847H295.098Z" fill="white" stroke="black"/>
<path d="M292.622 205.131C283.636 199.871 275.876 192.883 266.751 187.837C262.223 185.335 257.348 183.372 252.168 182.578C245.997 181.63 239.659 182.371 233.689 184.033C226.817 185.942 220.424 189.092 214.239 192.496C213.947 192.656 213.684 192.223 213.975 192.062C224.681 186.162 236.622 180.856 249.277 181.75C260.184 182.518 269.421 188.411 277.963 194.512C282.859 198.009 287.664 201.64 292.879 204.697C293.163 204.864 292.906 205.298 292.615 205.131H292.622Z" fill="white" stroke="black"/>
<path d="M290.05 208.228C281.978 203.095 274.711 196.808 266.259 192.236C262.057 189.96 257.549 188.164 252.786 187.343C247.259 186.395 241.566 186.823 236.13 188.077C229.896 189.519 224.023 192.042 218.385 194.945C218.087 195.099 217.831 194.665 218.122 194.512C227.913 189.466 238.903 185.414 250.213 186.502C260.136 187.457 268.693 192.643 276.556 198.189C281.125 201.413 285.577 204.797 290.306 207.8C290.584 207.974 290.327 208.408 290.043 208.234L290.05 208.228Z" fill="white" stroke="black"/>
<path d="M287.518 210.997C280.328 206.145 273.615 200.578 265.912 196.467C262.056 194.411 257.944 192.762 253.617 191.915C248.777 190.967 243.764 191.087 238.917 191.935C233.307 192.916 227.94 194.838 222.809 197.201C222.511 197.341 222.247 196.907 222.546 196.767C231.456 192.662 241.413 189.779 251.378 191.054C260.344 192.202 268.186 196.787 275.391 201.793C279.551 204.683 283.58 207.74 287.782 210.57C288.052 210.75 287.796 211.191 287.518 211.004V210.997Z" fill="white" stroke="black"/>
<path d="M284.883 213.841C278.469 209.329 272.277 204.416 265.253 200.786C261.848 199.024 258.256 197.595 254.484 196.761C250.261 195.826 245.879 195.706 241.586 196.207C236.67 196.781 231.886 198.142 227.309 199.931C226.997 200.051 226.865 199.571 227.17 199.451C235.186 196.327 243.993 194.492 252.626 195.893C260.544 197.181 267.596 201.139 274.073 205.538C277.824 208.087 281.451 210.804 285.154 213.414C285.424 213.601 285.161 214.034 284.89 213.847L284.883 213.841Z" fill="white" stroke="black"/>
<path d="M282.137 216.55C276.749 212.679 271.41 208.675 265.488 205.571C259.567 202.467 252.598 200.405 245.518 200.585C241.198 200.692 236.934 201.493 232.808 202.694C232.489 202.788 232.35 202.307 232.669 202.214C239.777 200.145 247.349 199.324 254.65 200.946C261.245 202.414 267.215 205.664 272.748 209.322C276.035 211.491 279.204 213.821 282.394 216.117C282.657 216.31 282.394 216.744 282.13 216.55H282.137Z" fill="white" stroke="black"/>
<path d="M279.447 219.041C270.634 212.693 261.196 206.126 249.88 205.145C246.35 204.837 242.8 205.051 239.312 205.618C238.986 205.672 238.848 205.191 239.173 205.138C245.102 204.17 251.149 204.29 256.932 205.959C262.271 207.494 267.173 210.144 271.778 213.114C274.482 214.863 277.103 216.731 279.71 218.607C279.974 218.8 279.71 219.234 279.447 219.041Z" fill="white" stroke="black"/>
<path d="M270.62 217.632C263.901 213.407 256.585 210.137 248.465 209.703C248.133 209.683 248.133 209.182 248.465 209.202C256.682 209.643 264.081 212.92 270.884 217.198C271.161 217.372 270.904 217.806 270.62 217.632Z" fill="white" stroke="black"/>
<path d="M209.172 205.493L209.736 205.383C214.103 204.534 218.379 203.27 222.506 201.609L227.305 199.678" stroke="black" stroke-linecap="round"/>
<path d="M135.544 238.23C125.602 236.704 116.792 231.775 108.68 226.247C100.218 220.483 92.2714 213.952 83.2787 208.93C78.8869 206.477 74.2424 204.404 69.3365 203.123C63.0451 201.48 56.4748 201.286 50.044 202.205C36.4068 204.143 24.1551 210.623 12.4524 217.323C6.47468 220.744 0.531825 224.216 -5.58531 227.401C-11.7024 230.587 -18.1158 233.654 -24.5467 236.452C-26.1239 237.134 -29.6006 238.619 -31.1865 239.277C-31.5699 239.437 -31.5176 239.804 -31.5176 238.729C-18.4642 233.319 -4.0691 226.103 8.1216 219.075C19.7808 212.359 31.649 205.458 45.0074 202.483C51.3947 201.059 58.0346 200.562 64.5352 201.505C69.6241 202.247 74.5213 203.89 79.1309 206.073C88.5244 210.514 96.6806 216.969 105.055 222.935C113.429 228.901 121.951 234.471 131.954 236.881C133.2 237.176 134.455 237.421 135.719 237.615C136.137 237.682 135.954 238.289 135.544 238.221V238.23Z" fill="white" stroke="black"/>
<path d="M131.049 242.139C112.879 238.288 99.7342 224.194 84.3392 215.189C75.7112 210.141 66.2965 206.901 56.0783 207.267C43.7876 207.715 32.2498 212.486 21.6255 218.137C15.662 221.304 9.88465 224.781 3.99731 228.062C-2.05075 231.433 -8.95042 235.037 -15.2353 237.977C-15.5991 238.148 -15.9205 237.618 -15.5568 237.447C-9.87243 234.793 -3.54796 231.506 1.95027 228.493C7.44851 225.481 12.5492 222.428 17.8951 219.464C28.2318 213.74 39.1945 208.594 51.1383 207.064C56.7465 206.347 62.4647 206.477 67.9798 207.731C72.37 208.733 76.5824 210.386 80.5666 212.413C88.8731 216.639 96.2154 222.362 103.752 227.712C112.093 233.631 120.949 239.371 131.226 241.545C131.624 241.627 131.455 242.221 131.057 242.131L131.049 242.139Z" fill="white" stroke="black"/>
<path d="M128.68 247.261C111.729 242.685 99.2518 229.658 84.5927 221.027C76.5991 216.313 67.8442 213.016 58.3619 212.918C47.027 212.804 36.0898 216.598 26.1253 221.508C14.8666 227.053 4.40304 233.973 -6.77106 239.648C-7.13479 239.827 -7.45622 239.306 -7.09249 239.119C12.4474 229.194 30.9722 214.302 53.7941 212.47C63.4202 211.697 72.5896 213.968 81.0315 218.341C88.8897 222.412 95.8937 227.802 103.041 232.899C110.95 238.541 119.257 244.078 128.849 246.667C129.238 246.773 129.078 247.359 128.68 247.253V247.261Z" fill="white" stroke="black"/>
<path d="M126.067 251.885C110.367 246.65 98.55 234.657 84.6183 226.442C77.1915 222.061 69.0541 218.821 60.2654 218.381C49.6327 217.852 39.1606 220.921 29.636 225.245C24.3154 227.663 19.1978 230.48 14.131 233.362C11.5341 234.836 8.95418 236.334 6.35732 237.808C3.76046 239.282 1.44275 240.747 -1.07798 242.107C-1.43325 242.302 -1.75469 241.773 -1.39942 241.578C0.892923 240.34 3.09222 238.94 5.35919 237.661C7.62615 236.383 9.86773 235.088 12.1178 233.802C16.7278 231.164 21.3548 228.55 26.1425 226.214C35.3965 221.687 45.4117 218.169 55.8753 217.746C64.8078 217.388 73.3004 219.733 81.1079 223.787C88.9154 227.842 95.2088 232.695 101.959 237.539C109.479 242.937 117.269 248.311 126.219 251.291C126.599 251.421 126.439 252.008 126.05 251.877L126.067 251.885Z" fill="white" stroke="black"/>
<path d="M123.046 256.461C108.607 250.623 97.4331 239.574 84.1697 231.856C77.2081 227.809 69.5952 224.739 61.4155 224.129C51.6117 223.396 41.8164 225.814 32.867 229.527C22.784 233.704 13.5724 239.509 4.09004 244.777C3.73477 244.972 3.41333 244.443 3.7686 244.248C20.3902 235.015 37.274 223.657 57.2284 223.388C65.5349 223.274 73.4355 225.529 80.727 229.258C88.0185 232.987 94.1173 237.547 100.47 242.131C107.626 247.293 114.918 252.512 123.216 255.866C123.588 256.013 123.427 256.607 123.046 256.453V256.461Z" fill="white" stroke="black"/>
<path d="M213.633 201.826C203.69 200.301 194.88 195.371 186.768 189.843C178.307 184.079 170.36 177.548 161.367 172.526C156.975 170.073 152.331 168 147.425 166.72C141.133 165.076 134.563 164.883 128.132 165.801C114.495 167.739 102.243 174.219 90.5405 180.919C84.5628 184.34 78.62 187.812 72.5028 190.997C66.3857 194.183 59.9723 197.25 53.5415 200.048C51.9643 200.73 48.4876 202.215 46.9016 202.873C46.5182 203.033 46.5705 203.4 46.5705 202.325C59.6239 196.915 74.019 189.7 86.2097 182.672C97.8689 175.955 109.737 169.054 123.096 166.079C129.483 164.655 136.123 164.158 142.623 165.102C147.712 165.843 152.609 167.486 157.219 169.669C166.613 174.11 174.769 180.565 183.143 186.531C191.517 192.497 200.039 198.067 210.042 200.478C211.289 200.773 212.543 201.017 213.807 201.211C214.225 201.278 214.042 201.885 213.633 201.817V201.826Z" fill="white" stroke="black"/>
<path d="M209.137 205.736C190.967 201.885 177.822 187.791 162.427 178.786C153.799 173.738 144.385 170.497 134.166 170.864C121.876 171.312 110.338 176.083 99.7135 181.733C93.75 184.901 87.9727 188.377 82.0853 191.659C76.0373 195.029 69.1376 198.634 62.8527 201.573C62.489 201.744 62.1675 201.215 62.5313 201.044C68.2156 198.39 74.5401 195.103 80.0383 192.09C85.5365 189.078 90.6372 186.024 95.9832 183.061C106.32 177.337 117.282 172.191 129.226 170.66C134.835 169.944 140.553 170.074 146.068 171.328C150.458 172.329 154.67 173.982 158.655 176.01C166.961 180.235 174.303 185.959 181.84 191.308C190.181 197.228 199.037 202.968 209.314 205.142C209.712 205.223 209.543 205.818 209.145 205.728L209.137 205.736Z" fill="white" stroke="black"/>
<path d="M206.768 210.853C206.768 210.855 206.766 210.857 206.764 210.856C189.815 206.279 177.339 193.254 162.681 184.624C154.687 179.909 145.932 176.612 136.45 176.514C125.115 176.4 114.178 180.194 104.213 185.104C92.9546 190.649 82.4911 197.569 71.317 203.244C70.9532 203.424 70.6318 202.902 70.9955 202.715C90.5354 192.79 109.06 177.898 131.882 176.066C141.508 175.293 150.678 177.564 159.12 181.937C166.978 186.008 173.982 191.398 181.129 196.495C189.038 202.137 197.345 207.674 206.937 210.263C207.325 210.368 207.167 210.951 206.772 210.85C206.77 210.85 206.768 210.851 206.768 210.853Z" fill="white" stroke="black"/>
<path d="M204.155 215.482C188.455 210.246 176.638 198.253 162.706 190.038C155.28 185.657 147.142 182.417 138.353 181.977C127.721 181.448 117.249 184.517 107.724 188.841C102.403 191.259 97.2858 194.076 92.219 196.958C89.6221 198.432 87.0422 199.93 84.4453 201.404C81.8485 202.878 79.5308 204.343 77.01 205.703C76.6548 205.898 76.3333 205.369 76.6886 205.174C78.9809 203.936 81.1802 202.536 83.4472 201.257C85.7142 199.979 87.9557 198.685 90.2058 197.398C94.8158 194.76 99.4428 192.147 104.231 189.81C113.484 185.283 123.5 181.765 133.963 181.342C142.896 180.984 151.388 183.329 159.196 187.383C167.003 191.438 173.297 196.291 180.047 201.135C187.567 206.534 195.357 211.907 204.307 214.887C204.687 215.018 204.527 215.604 204.138 215.473L204.155 215.482Z" fill="white" stroke="black"/>
<path d="M201.134 220.058C186.695 214.22 175.521 203.171 162.258 195.453C155.296 191.406 147.683 188.337 139.503 187.726C129.7 186.993 119.904 189.411 110.955 193.124C100.872 197.301 91.6604 203.106 82.1781 208.374C81.8228 208.57 81.5013 208.04 81.8566 207.845C98.4782 198.612 115.362 187.254 135.316 186.985C143.623 186.871 151.523 189.126 158.815 192.855C166.106 196.585 172.205 201.144 178.558 205.728C185.714 210.89 193.006 216.109 201.304 219.464C201.676 219.61 201.515 220.205 201.134 220.05V220.058Z" fill="white" stroke="black"/>
<path d="M198.123 224.439C184.902 218.226 174.32 208.049 161.742 200.843C155.321 197.163 148.317 194.321 140.831 193.531C131.924 192.595 122.941 194.37 114.618 197.383C104.932 200.892 96.0673 206.127 87.2109 211.208C86.8557 211.411 86.5427 210.882 86.8895 210.679C102.251 201.877 118.669 192.212 137.219 192.685C152.834 193.084 165.557 202.032 177.56 210.695C184.225 215.507 190.933 220.384 198.453 223.909C198.817 224.08 198.495 224.61 198.131 224.439H198.123Z" fill="white" stroke="black"/>
<path d="M195.196 228.387C183.117 221.988 173.093 212.641 161.217 205.948C155.304 202.618 148.893 200.004 142.066 199.084C133.802 197.969 125.377 199.28 117.519 201.796C108.409 204.71 100.009 209.294 91.7872 213.984C91.4319 214.188 91.1189 213.658 91.4657 213.455C105.685 205.354 121.292 197.285 138.353 198.132C152.809 198.856 164.812 206.925 176.012 214.994C182.322 219.537 188.59 224.194 195.509 227.858C195.864 228.045 195.543 228.575 195.188 228.387H195.196Z" fill="white" stroke="black"/>
<path d="M192.176 232.393C181.214 225.977 171.748 217.453 160.616 211.297C155.093 208.244 149.146 205.85 142.828 204.881C135.299 203.725 127.568 204.629 120.285 206.656C111.902 208.985 104.103 212.828 96.5578 216.98C96.2025 217.176 95.8811 216.647 96.2364 216.451C109.297 209.254 123.863 202.781 139.3 203.872C152.606 204.808 163.873 211.997 174.294 219.439C180.266 223.706 186.128 228.135 192.489 231.864C192.836 232.068 192.523 232.597 192.168 232.393H192.176Z" fill="white" stroke="black"/>
<path d="M189.039 236.17C179.193 229.909 170.328 222.239 160.017 216.662C154.89 213.885 149.392 211.695 143.581 210.694C136.839 209.538 129.895 210.059 123.263 211.589C115.658 213.348 108.494 216.426 101.617 219.967C101.253 220.155 100.94 219.626 101.295 219.438C113.239 213.283 126.646 208.341 140.443 209.668C152.547 210.832 162.986 217.158 172.578 223.925C178.152 227.857 183.583 231.985 189.352 235.649C189.69 235.861 189.377 236.39 189.03 236.178L189.039 236.17Z" fill="white" stroke="black"/>
<path d="M185.951 239.549C177.179 233.63 168.991 226.839 159.593 221.824C154.89 219.316 149.874 217.305 144.596 216.271C138.691 215.115 132.576 215.261 126.663 216.296C119.82 217.492 113.273 219.837 107.013 222.72C106.649 222.891 106.328 222.361 106.692 222.19C117.561 217.183 129.708 213.666 141.863 215.221C152.801 216.621 162.368 222.215 171.156 228.321C176.232 231.847 181.146 235.576 186.272 239.028C186.602 239.248 186.289 239.785 185.951 239.557V239.549Z" fill="white" stroke="black"/>
<path d="M182.737 243.018C174.912 237.514 167.358 231.521 158.79 227.092C154.636 224.943 150.255 223.2 145.653 222.183C140.502 221.043 135.156 220.896 129.92 221.507C123.922 222.207 118.086 223.868 112.503 226.05C112.122 226.197 111.962 225.61 112.334 225.464C122.112 221.653 132.855 219.414 143.386 221.124C153.046 222.696 161.649 227.524 169.549 232.889C174.125 236 178.549 239.313 183.066 242.497C183.396 242.725 183.075 243.254 182.745 243.026L182.737 243.018Z" fill="white" stroke="black"/>
<path d="M179.387 246.323C172.814 241.6 166.301 236.715 159.077 232.929C151.853 229.143 143.352 226.627 134.715 226.847C129.446 226.977 124.243 227.954 119.21 229.42C118.821 229.534 118.652 228.948 119.041 228.834C127.712 226.31 136.949 225.308 145.856 227.287C153.9 229.078 161.183 233.043 167.933 237.505C171.943 240.151 175.808 242.993 179.699 245.793C180.021 246.03 179.7 246.559 179.378 246.323H179.387Z" fill="white" stroke="black"/>
<path d="M178.854 183.463L187.482 179.149" stroke="black" stroke-linecap="round"/>
<path d="M183.168 186.449L193.69 180.892" stroke="black" stroke-linecap="round"/>
<path d="M186.786 188.988L198.767 182.661" stroke="black" stroke-linecap="round"/>
<path d="M190.422 191.5L202.871 184.926" stroke="black" stroke-linecap="round"/>
<path d="M194.233 194.001L206.681 187.426" stroke="black" stroke-linecap="round"/>
<path d="M197.887 196.327L210.335 189.752" stroke="black" stroke-linecap="round"/>
<path d="M202.568 198.399L214.247 192.231" stroke="black" stroke-linecap="round"/>
<path d="M208.006 200.157L219.69 193.999" stroke="black" stroke-linecap="round"/>
<path d="M214.044 201.601L225.134 195.756" stroke="black" stroke-linecap="round"/>
<path d="M205.385 161.955L220.96 152.583C227.65 148.557 235.253 146.301 243.055 146.025L260.229 145.419" stroke="black" stroke-linecap="round"/>
<path d="M201.403 208.722L205.147 210.293C206.283 210.769 207.592 210.687 208.667 210.084C211.657 208.409 214.941 207.2 218.307 206.553L219.867 206.252L233.61 202.207" stroke="black" stroke-linecap="round"/>
</g>
<mask id="path-53-inside-1_648_158" fill="white">
<path d="M10.4673 227.252H260.127V269.407H10.4673V227.252Z"/>
</mask>
<path d="M10.4673 227.252V228.252H260.127V227.252V226.252H10.4673V227.252ZM260.127 269.407V268.407H10.4673V269.407V270.407H260.127V269.407Z" fill="black" mask="url(#path-53-inside-1_648_158)"/>
<path d="M9.99981 160.484L19.6971 150.787L29.8104 159.285M9.56006 173.147L19.6971 163.01L30.2727 172.034M19.7007 150.832V213.352M9.99983 136.978L19.8963 127.275L30.4718 137.096M9.99983 148.834L19.6969 139.137L30.2726 148.16M19.7006 128.249V170.026M28.9915 159.388L40.4606 150.889L51.4132 159.388M29.3695 172.136L40.4606 163.113L51.4132 171.891M40.4642 150.934V203.958M29.9381 147.814L40.6819 139.405L51.4558 148.311M40.4641 140.05V169.715M103.847 139.836V150.573M103.847 139.836L114.938 148.86M103.847 139.836L93.7339 147.741M103.847 150.573V162.797M103.847 150.573L115.376 159.793M103.847 150.573L93.7339 159.072M103.847 162.797V173.54M103.847 162.797L112.938 169.82M103.847 162.797L93.2716 171.82M103.847 106.285V117.021M103.847 106.285L114.938 115.308M103.847 106.285L93.7339 114.189M103.847 117.021V127.955M103.847 117.021L115.376 126.241M103.847 117.021L93.7339 125.52M103.847 127.955V158.733M103.847 127.955L114.938 136.978M103.847 127.955L93.2716 136.978M94.6121 159.072L82.4304 150.573L72.3171 159.072M94.2115 171.82L82.4304 162.797L71.8548 171.82M82.4268 150.618V184.899M94.0123 136.883L82.2312 127.061L71.6557 136.883M94.2116 147.947L82.4306 138.923L71.855 147.947M82.4269 128.035V169.812M73.136 159.174L61.6669 150.676L50.8377 159.663M72.758 171.923L61.6669 162.899L50.8377 171.923M61.6633 150.721V195.498M72.1894 147.6L61.4456 139.191L50.87 148.215M61.6634 139.836V169.502" stroke="black" stroke-width="1.5"/>
<path d="M167.292 129.578V172.137M167.292 129.578L178.161 137.884M167.292 129.578L157.381 136.855M178.589 147.95L167.292 139.462L157.381 147.286M178.161 159.022L167.292 150.715L156.928 159.022" stroke="black" stroke-width="1.5"/>
<path d="M167.292 98.6899V146.973M167.292 98.6899L178.161 106.997M167.292 98.6899L157.381 105.967M178.59 117.062L167.292 108.574L157.381 116.398M178.161 126.946L167.292 118.639L156.928 126.946" stroke="black" stroke-width="1.5"/>
<path d="M158.242 147.286L146.304 139.462L136.393 147.286M157.849 159.022L146.304 150.715L135.94 159.022" stroke="black" stroke-width="1.5"/>
<path d="M146.3 139.503V166.733" stroke="black" stroke-width="1.5"/>
<path d="M157.654 126.858L146.109 117.816L135.745 126.858M157.849 137.044L146.304 128.737L135.94 137.044" stroke="black" stroke-width="1.5"/>
<path d="M157.849 137.044L146.304 128.737L135.94 137.044" stroke="black" stroke-width="1.5"/>
<path d="M146.3 118.713V157.174" stroke="black" stroke-width="1.5"/>
<path d="M136.997 147.132L125.956 139.557L114.391 148.782M136.33 158.748L125.956 150.81L114.676 159.746" stroke="black" stroke-width="1.5"/>
<path d="M125.953 139.598L125.953 166.036" stroke="black" stroke-width="1.5"/>
<path d="M136.445 136.691L125.739 128.984L114.391 137.124" stroke="black" stroke-width="1.5"/>
<path d="M125.953 129.578V156.887" stroke="black" stroke-width="1.5"/>
<path d="M189.204 129.578V167.557M189.204 129.578L177.633 137.777M189.204 129.578L199.115 136.855M177.944 147.738L189.204 139.462L198.756 147.027M177.633 159.022L189.204 150.715L199.114 158.811" stroke="black" stroke-width="1.5"/>
<path d="M189.203 98.6899V146.973M189.203 98.6899L177.677 107.047M189.203 98.6899L199.114 105.967M177.988 116.831L189.203 108.574L199.114 116.398M177.677 126.946L189.203 118.639L199.567 126.946" stroke="black" stroke-width="1.5"/>
<path d="M198.254 147.286L210.192 139.462L220.102 147.286M198.646 159.022L210.192 150.715L215.666 156.189" stroke="black" stroke-width="1.5"/>
<path d="M198.842 126.858L210.387 117.816L220.751 126.858M198.646 137.044L210.192 128.737L220.555 137.044" stroke="black" stroke-width="1.5"/>
<path d="M198.646 137.044L210.192 128.737L220.555 137.044" stroke="black" stroke-width="1.5"/>
<path d="M210.195 118.025V159.099" stroke="black" stroke-width="1.5"/>
<mask id="mask1_648_158" style="mask-type:alpha" maskUnits="userSpaceOnUse" x="8" y="8" width="254" height="284">
<path d="M135.297 9.58301C204.653 9.58307 260.877 65.8072 260.877 135.163V290.875H9.71729V135.163C9.71729 65.8072 65.9414 9.58301 135.297 9.58301Z" fill="white" stroke="black" stroke-width="1.5"/>
</mask>
<g mask="url(#mask1_648_158)">
<path d="M251.649 119.286V146.191M251.649 119.286L263.22 127.485M251.649 119.286L241.738 126.563M262.909 137.446L251.649 129.17L242.096 136.735" stroke="black" stroke-width="1.5"/>
<path d="M251.649 88.3979V136.681M251.649 88.3979L263.176 96.7554M251.649 88.3979L241.738 95.675M262.864 106.539L251.649 98.2822L235.677 111.135M263.176 116.654L251.649 108.347L241.285 116.654" stroke="black" stroke-width="1.5"/>
<path d="M242.599 136.994L230.661 129.17L219.659 136.994M243.392 146.127L230.661 140.423L219.659 146.948" stroke="black" stroke-width="1.5"/>
<path d="M242.011 116.567L230.466 107.525L213.845 120.411M242.206 126.752L230.661 118.445L220.298 126.752" stroke="black" stroke-width="1.5"/>
<path d="M242.206 126.753L230.661 118.446L220.032 126.753" stroke="black" stroke-width="1.5"/>
<path d="M230.658 107.814V148.807" stroke="black" stroke-width="1.5"/>
</g>
<circle cx="30.1042" cy="100.19" r="1.5" fill="#040404"/>
<circle cx="55.8828" cy="128.27" r="1.5" transform="rotate(-16.247 55.8828 128.27)" fill="#040404"/>
<circle cx="225.125" cy="101.569" r="1.5" transform="rotate(-135.335 225.125 101.569)" fill="#040404"/>
<circle cx="58.9679" cy="58.5776" r="1.5" fill="#040404"/>
<circle cx="66.5015" cy="85.1089" r="1.5" fill="#040404"/>
<circle cx="86.6071" cy="103.609" r="1.5" transform="rotate(-16.247 86.6071 103.609)" fill="#040404"/>
<circle cx="188.637" cy="86.7093" r="1.5" transform="rotate(-135.335 188.637 86.7093)" fill="#040404"/>
<circle cx="188.61" cy="62.199" r="1.5" transform="rotate(-135.335 188.61 62.199)" fill="#040404"/>
<circle cx="227.234" cy="66.4417" r="1.5" transform="rotate(-135.335 227.234 66.4417)" fill="#040404"/>
<circle cx="204.344" cy="46.6331" r="1.5" transform="rotate(-135.335 204.344 46.6331)" fill="#040404"/>
<circle cx="51.9018" cy="76.1263" r="1.5" transform="rotate(-135.335 51.9018 76.1263)" fill="#040404"/>
<path fill-rule="evenodd" clip-rule="evenodd" d="M128.981 63.8569C137.549 52.6947 135.526 37.1281 124.15 28.5007L106.849 48.7488L106.82 48.7267C97.2277 59.9491 98.9884 76.2735 110.753 85.1923C122.518 94.1111 139.826 92.2442 149.418 81.0218C159.011 69.7994 157.25 53.4751 145.485 44.5563L128.988 63.8624L128.981 63.8569Z" fill="#0B0B0B"/>
<mask id="mask2_648_158" style="mask-type:alpha" maskUnits="userSpaceOnUse" x="10" y="10" width="251" height="281">
<path d="M10.4673 135.163C10.4673 66.2213 66.3555 10.333 135.297 10.333V10.333C204.239 10.333 260.127 66.2213 260.127 135.163V290.125H10.4673V135.163Z" fill="white"/>
</mask>
<g mask="url(#mask2_648_158)">
<path d="M250.079 86.8652L171.634 69.6905M184.494 97.7332L167.346 86.8639M213.937 115.992L202.813 108.978M158.552 102.421L154.097 95.588M141.152 115.669L138.321 103.274M121.931 102.421L119.309 123.649M105.635 97.1482L99.4067 104.804M92.6212 84.079L57.542 107.179M86.1587 69.701L57.6312 75.0624M47.3089 77.3034L27.9469 80.6938M87.2361 51.56C71.3653 48.4533 49.9712 43.2678 50.0475 42.8969M94.698 37.0289L77.9637 23.593M107.392 24.6624L99.4067 13.6467M122.481 18.7334L121.931 9.49973M138.667 17.6922L141.152 9.49972M156.177 23.5929L165.994 13.6467M165.994 35.7621L191.049 22.0306M172.564 53.5109L199.121 47.8203M210.837 45.3655L221.325 43.2451M50.0476 111.994L26.6473 126.618" stroke="#0C0C0C" stroke-width="2" stroke-linecap="round"/>
</g>
<path d="M203.96 236.552C209.444 235.076 215.222 235.076 220.705 236.552L222.346 236.994C227.112 238.277 232.143 238.195 236.866 236.758C242.151 235.15 247.795 235.15 253.08 236.758L260.513 239.02L260.076 240.455L252.644 238.193C247.644 236.671 242.303 236.671 237.303 238.193C232.312 239.712 226.994 239.798 221.956 238.442L220.315 238C215.087 236.593 209.579 236.593 204.351 238L202.123 238.6C197.471 239.853 192.553 239.709 187.983 238.185C183.45 236.674 178.559 236.609 173.988 238L173.355 238.193C168.369 239.71 163.04 239.677 158.074 238.097C153.489 236.638 148.572 236.578 143.953 237.925L135.272 240.457L135.062 239.738L134.843 240.455L127.411 238.193C122.411 236.671 117.071 236.671 112.071 238.193C107.08 239.712 101.762 239.798 96.724 238.442L95.0824 238C89.8542 236.593 84.3467 236.593 79.1185 238L76.891 238.6C72.2389 239.853 67.3209 239.709 62.7504 238.185C58.2173 236.674 53.3265 236.609 48.7552 238L48.1224 238.193C43.1368 239.71 37.8073 239.677 32.8412 238.097C28.2562 236.638 23.34 236.578 18.7211 237.925L10.0394 240.457L9.61951 239.018L18.3011 236.486C23.2062 235.055 28.4263 235.118 33.2953 236.667C37.9718 238.155 42.991 238.187 47.6859 236.758L48.3187 236.566C53.1875 235.084 58.3968 235.152 63.225 236.761C67.5162 238.192 72.1336 238.328 76.5013 237.152L78.7279 236.552C84.2117 235.076 89.9892 235.076 95.473 236.552L97.1136 236.994C101.88 238.277 106.911 238.195 111.633 236.758C116.918 235.15 122.563 235.15 127.848 236.758L135.067 238.955L143.534 236.486C148.439 235.055 153.659 235.118 158.528 236.667C163.204 238.155 168.223 238.187 172.918 236.758L173.551 236.566C178.42 235.084 183.629 235.152 188.457 236.761C192.749 238.192 197.366 238.328 201.734 237.152L203.96 236.552Z" fill="black"/>
<path d="M203.96 247.552C209.444 246.076 215.222 246.076 220.705 247.552L222.346 247.994C227.112 249.277 232.143 249.195 236.866 247.758C242.151 246.15 247.795 246.15 253.08 247.758L260.513 250.02L260.076 251.455L252.644 249.193C247.644 247.671 242.303 247.671 237.303 249.193C232.312 250.712 226.994 250.798 221.956 249.442L220.315 249C215.087 247.593 209.579 247.593 204.351 249L202.123 249.6C197.471 250.853 192.553 250.709 187.983 249.185C183.45 247.674 178.559 247.609 173.988 249L173.355 249.193C168.369 250.71 163.04 250.677 158.074 249.097C153.489 247.638 148.572 247.578 143.953 248.925L135.272 251.457L135.062 250.738L134.843 251.455L127.411 249.193C122.411 247.671 117.071 247.671 112.071 249.193C107.08 250.712 101.762 250.798 96.724 249.442L95.0824 249C89.8542 247.593 84.3467 247.593 79.1185 249L76.891 249.6C72.2389 250.853 67.3209 250.709 62.7504 249.185C58.2173 247.674 53.3265 247.609 48.7552 249L48.1224 249.193C43.1368 250.71 37.8073 250.677 32.8412 249.097C28.2562 247.638 23.34 247.578 18.7211 248.925L10.0394 251.457L9.61951 250.018L18.3011 247.486C23.2062 246.055 28.4263 246.118 33.2953 247.667C37.9718 249.155 42.991 249.187 47.6859 247.758L48.3187 247.566C53.1875 246.084 58.3968 246.152 63.225 247.761C67.5162 249.192 72.1336 249.328 76.5013 248.152L78.7279 247.552C84.2117 246.076 89.9892 246.076 95.473 247.552L97.1136 247.994C101.88 249.277 106.911 249.195 111.633 247.758C116.918 246.15 122.563 246.15 127.848 247.758L135.067 249.955L143.534 247.486C148.439 246.055 153.659 246.118 158.528 247.667C163.204 249.155 168.223 249.187 172.918 247.758L173.551 247.566C178.42 246.084 183.629 246.152 188.457 247.761C192.749 249.192 197.366 249.328 201.734 248.152L203.96 247.552Z" fill="black"/>
<path d="M203.96 258.552C209.444 257.076 215.222 257.076 220.705 258.552L222.346 258.994C227.112 260.277 232.143 260.195 236.866 258.758C242.151 257.15 247.795 257.15 253.08 258.758L260.513 261.02L260.076 262.455L252.644 260.193C247.644 258.671 242.303 258.671 237.303 260.193C232.312 261.712 226.994 261.798 221.956 260.442L220.315 260C215.087 258.593 209.579 258.593 204.351 260L202.123 260.6C197.471 261.853 192.553 261.709 187.983 260.185C183.45 258.674 178.559 258.609 173.988 260L173.355 260.193C168.369 261.71 163.04 261.677 158.074 260.097C153.489 258.638 148.572 258.578 143.953 259.925L135.272 262.457L135.062 261.738L134.843 262.455L127.411 260.193C122.411 258.671 117.071 258.671 112.071 260.193C107.08 261.712 101.762 261.798 96.724 260.442L95.0824 260C89.8542 258.593 84.3467 258.593 79.1185 260L76.891 260.6C72.2389 261.853 67.3209 261.709 62.7504 260.185C58.2173 258.674 53.3265 258.609 48.7552 260L48.1224 260.193C43.1368 261.71 37.8073 261.677 32.8412 260.097C28.2562 258.638 23.34 258.578 18.7211 259.925L10.0394 262.457L9.61951 261.018L18.3011 258.486C23.2062 257.055 28.4263 257.118 33.2953 258.667C37.9718 260.155 42.991 260.187 47.6859 258.758L48.3187 258.566C53.1875 257.084 58.3968 257.152 63.225 258.761C67.5162 260.192 72.1336 260.328 76.5013 259.152L78.7279 258.552C84.2117 257.076 89.9892 257.076 95.473 258.552L97.1136 258.994C101.88 260.277 106.911 260.195 111.633 258.758C116.918 257.15 122.563 257.15 127.848 258.758L135.067 260.955L143.534 258.486C148.439 257.055 153.659 257.118 158.528 258.667C163.204 260.155 168.223 260.187 172.918 258.758L173.551 258.566C178.42 257.084 183.629 257.152 188.457 258.761C192.749 260.192 197.366 260.328 201.734 259.152L203.96 258.552Z" fill="black"/>
</g>
<defs>
<clipPath id="clip0_648_158">
<rect width="269" height="278" fill="white"/>
</clipPath>
</defs>
</svg>
