<svg width="262" height="281" viewBox="0 0 262 281" fill="none" xmlns="http://www.w3.org/2000/svg">
<path d="M130.83 0.5C202.809 0.500041 261.16 58.8508 261.16 130.83V269.51H0.5V130.83C0.500036 58.8508 58.8508 0.5 130.83 0.5Z" stroke="black"/>
<path d="M130.511 5.12549C199.729 5.12555 255.841 61.2378 255.841 130.456V264.305H5.18103V130.456C5.18103 61.2377 61.2933 5.12549 130.511 5.12549Z" stroke="black"/>
<mask id="mask0_648_3" style="mask-type:alpha" maskUnits="userSpaceOnUse" x="6" y="135" width="250" height="104">
<path d="M6.39516 203.888L6.3952 238.821H255.341V135.893L240.114 135.893C233.426 135.893 226.835 137.49 220.888 140.551L189.661 156.629C185.536 158.752 181.088 160.178 176.497 160.848L161.329 163.06L146.479 159.836L142.725 158.697C134.313 156.144 125.312 156.296 116.99 159.129L87.1957 169.276L17.5723 189.236C10.9715 191.044 6.39515 197.043 6.39516 203.888Z" fill="#D9D9D9"/>
</mask>
<g mask="url(#mask0_648_3)">
<path d="M167.044 173.127C170.579 171.453 174.478 170.695 178.383 170.922L182.167 171.143M163.168 171.143L164.805 170.315C169.331 168.027 174.467 167.232 179.474 168.044L185.759 169.063M159.576 168.402L163.18 166.632C167.836 164.344 173.107 163.627 178.205 164.588L189.918 166.795M186.893 165.66L188.601 164.159C191.522 161.593 195.276 160.178 199.163 160.178H202.773M182.167 164.904L184.968 162.104C188.124 158.948 192.454 157.254 196.914 157.43L206.649 157.815" stroke="black" stroke-linecap="round"/>
<path d="M244.521 205.056C236.388 203.658 228.003 202.806 219.92 204.517C211.953 206.209 204.981 210.541 199.132 216.161C187.246 227.578 180.237 242.981 170.226 255.952C164.838 262.925 158.526 269.296 150.663 273.308C150.308 273.489 150.066 272.895 150.421 272.714C165.329 265.097 174.034 249.686 182.883 235.97C191.732 222.254 201.759 208.797 217.474 204.461C226.302 202.031 235.613 202.875 244.603 204.423C244.998 204.492 244.923 205.123 244.521 205.056Z" fill="#303856" stroke="black" stroke-width="0.5"/>
<path d="M247.417 212.173C239.754 210.853 231.887 210.021 224.224 211.358C216.56 212.695 209.977 216.269 204.24 221.243C192.557 231.378 185.506 245.58 176.717 258.146C171.749 265.253 166.142 272.038 159.095 277.066C158.77 277.299 158.384 276.792 158.709 276.558C171.755 267.244 179.372 252.543 188.179 239.426C196.456 227.096 206.762 214.827 221.67 211.234C230.122 209.198 238.964 210.076 247.499 211.54C247.894 211.61 247.82 212.24 247.417 212.173Z" fill="#303856" stroke="black" stroke-width="0.5"/>
<path d="M250.31 219.284C243.12 218.048 235.763 217.239 228.55 218.255C221.461 219.247 214.945 222.194 209.309 226.583C197.921 235.444 190.744 248.433 182.905 260.391C178.343 267.351 173.426 274.142 167.353 279.806C167.063 280.081 166.674 279.565 166.968 279.298C178.115 268.902 184.985 254.957 193.782 242.629C201.872 231.289 212.111 220.791 226.161 218.009C234.139 216.433 242.385 217.276 250.393 218.651C250.788 218.721 250.713 219.351 250.31 219.284Z" fill="#303856" stroke="black" stroke-width="0.5"/>
<path d="M253.204 226.395C246.486 225.243 239.64 224.458 232.867 225.193C226.15 225.914 219.853 228.301 214.309 232.144C203.349 239.751 195.987 251.496 188.904 262.675C184.604 269.464 180.168 276.207 174.847 282.202C174.585 282.503 174.084 282.107 174.346 281.806C183.813 271.124 190.228 258.15 198.831 246.795C206.813 236.265 216.946 227.112 230.287 224.895C237.89 223.628 245.685 224.462 253.279 225.765C253.674 225.835 253.599 226.465 253.197 226.398L253.204 226.395Z" fill="#303856" stroke="black" stroke-width="0.5"/>
<path d="M256.101 233.512C249.796 232.432 243.381 231.674 237.018 232.187C230.752 232.697 224.75 234.558 219.385 237.83C208.837 244.273 201.404 254.81 194.754 265.121C190.628 271.525 186.667 278.028 182.045 284.071C181.8 284.392 181.299 283.996 181.544 283.675C189.663 273.043 195.801 260.948 204.311 250.618C208.238 245.855 212.662 241.433 217.813 238.054C222.938 234.695 228.689 232.549 234.771 231.763C241.877 230.856 249.096 231.656 256.161 232.869C256.556 232.939 256.482 233.57 256.079 233.503L256.101 233.512Z" fill="#303856" stroke="black" stroke-width="0.5"/>
<path d="M258.994 240.623C247.419 238.632 235.418 238.034 224.789 243.531C214.16 249.028 207.069 258.208 200.664 267.672C196.89 273.25 193.43 279.051 189.656 284.629C189.425 284.963 188.932 284.563 189.155 284.233C195.981 274.136 201.909 263.326 210.161 254.338C213.933 250.228 218.179 246.535 223.008 243.767C227.836 240.999 233.537 239.233 239.285 238.703C245.878 238.097 252.528 238.861 259.065 239.985C259.46 240.055 259.385 240.685 258.983 240.618L258.994 240.623Z" fill="#303856" stroke="black" stroke-width="0.5"/>
<path d="M261.891 247.742C251.173 245.902 239.989 245.136 229.891 249.587C219.793 254.038 212.711 262.032 206.5 270.586C202.892 275.562 199.669 280.805 196.34 285.98C196.12 286.319 195.619 285.923 195.839 285.584C201.825 276.282 207.604 266.731 215.479 258.949C219.205 255.274 223.383 252.051 228.063 249.731C232.743 247.411 238.099 246.072 243.443 245.715C249.627 245.312 255.846 246.049 261.969 247.101C262.364 247.171 262.29 247.801 261.887 247.734L261.891 247.742Z" fill="#303856" stroke="black" stroke-width="0.5"/>
<path d="M307.424 175.366C299.274 174.116 292.052 170.074 285.402 165.543C278.466 160.818 271.951 155.464 264.579 151.347C260.979 149.337 257.172 147.637 253.15 146.587C247.993 145.24 242.607 145.081 237.335 145.834C226.156 147.423 216.112 152.735 206.519 158.227C201.619 161.032 196.747 163.878 191.733 166.489C186.718 169.1 181.461 171.615 176.189 173.908C174.896 174.468 172.046 175.685 170.746 176.224C170.432 176.355 170.475 176.656 170.475 175.775C181.175 171.34 192.976 165.425 202.969 159.664C212.527 154.158 222.256 148.501 233.206 146.062C238.442 144.895 243.885 144.487 249.214 145.261C253.386 145.869 257.4 147.216 261.179 149.005C268.879 152.646 275.565 157.937 282.43 162.828C289.295 167.719 296.281 172.285 304.481 174.261C305.503 174.502 306.531 174.703 307.567 174.862C307.91 174.917 307.76 175.414 307.424 175.359V175.366Z" fill="#303856" stroke="black" stroke-width="0.5"/>
<path d="M301.738 178.571C286.844 175.414 276.068 163.861 263.448 156.479C256.375 152.341 248.658 149.684 240.281 149.984C230.206 150.352 220.748 154.263 212.038 158.895C207.15 161.491 202.414 164.341 197.588 167.031C192.63 169.794 186.974 172.749 181.822 175.159C181.523 175.299 181.26 174.865 181.558 174.725C186.218 172.549 191.402 169.854 195.91 167.385C200.417 164.915 204.598 162.412 208.98 159.983C217.454 155.291 226.441 151.072 236.232 149.818C240.829 149.23 245.516 149.337 250.037 150.365C253.636 151.186 257.09 152.541 260.356 154.203C267.165 157.667 273.184 162.359 279.362 166.744C286.199 171.596 293.459 176.302 301.884 178.084C302.21 178.151 302.071 178.638 301.745 178.564L301.738 178.571Z" fill="#303856" stroke="black" stroke-width="0.5"/>
<path d="M299.797 182.769C285.901 179.018 275.673 168.339 263.656 161.264C257.103 157.4 249.927 154.697 242.153 154.616C232.862 154.523 223.896 157.633 215.727 161.658C206.498 166.203 197.921 171.877 188.761 176.529C188.462 176.676 188.199 176.248 188.497 176.095C204.515 167.959 219.701 155.751 238.409 154.249C246.3 153.615 253.817 155.477 260.737 159.062C267.179 162.399 272.92 166.817 278.78 170.996C285.263 175.621 292.072 180.16 299.936 182.282C300.255 182.369 300.123 182.849 299.797 182.763V182.769Z" fill="#303856" stroke="black" stroke-width="0.5"/>
<path d="M297.655 186.56C284.785 182.269 275.098 172.437 263.677 165.703C257.589 162.112 250.919 159.455 243.714 159.095C234.998 158.661 226.413 161.177 218.605 164.722C214.244 166.704 210.049 169.013 205.895 171.376C203.766 172.584 201.651 173.812 199.523 175.02C197.394 176.228 195.494 177.43 193.428 178.544C193.136 178.705 192.873 178.271 193.164 178.11C195.043 177.096 196.846 175.948 198.704 174.9C200.563 173.852 202.4 172.791 204.245 171.736C208.024 169.574 211.817 167.431 215.742 165.516C223.328 161.805 231.538 158.921 240.115 158.574C247.438 158.281 254.4 160.203 260.8 163.527C267.2 166.851 272.359 170.829 277.892 174.8C284.057 179.225 290.443 183.63 297.78 186.073C298.092 186.18 297.96 186.66 297.641 186.554L297.655 186.56Z" fill="#303856" stroke="black" stroke-width="0.5"/>
<path d="M295.179 190.311C283.342 185.526 274.182 176.469 263.31 170.141C257.603 166.824 251.362 164.308 244.657 163.807C236.62 163.206 228.59 165.189 221.254 168.232C212.989 171.656 205.437 176.415 197.664 180.733C197.373 180.894 197.109 180.46 197.401 180.3C211.026 172.731 224.867 163.42 241.224 163.2C248.034 163.106 254.51 164.955 260.488 168.012C266.465 171.069 271.464 174.807 276.672 178.564C282.538 182.796 288.515 187.074 295.318 189.824C295.623 189.944 295.491 190.431 295.179 190.305V190.311Z" fill="#303856" stroke="black" stroke-width="0.5"/>
<path d="M292.71 193.902C281.872 188.81 273.198 180.467 262.886 174.56C257.623 171.543 251.882 169.214 245.745 168.566C238.444 167.799 231.079 169.254 224.256 171.723C216.317 174.6 209.05 178.892 201.79 183.056C201.498 183.223 201.242 182.789 201.526 182.623C214.119 175.408 227.578 167.485 242.784 167.872C255.585 168.199 266.014 175.534 275.853 182.636C281.317 186.581 286.816 190.579 292.981 193.469C293.279 193.609 293.015 194.043 292.717 193.902H292.71Z" fill="#303856" stroke="black" stroke-width="0.5"/>
<path d="M290.311 197.139C280.409 191.893 272.192 184.231 262.457 178.744C257.61 176.015 252.354 173.872 246.758 173.118C239.983 172.203 233.077 173.278 226.635 175.34C219.167 177.73 212.281 181.488 205.541 185.332C205.25 185.499 204.994 185.065 205.278 184.898C216.934 178.257 229.728 171.643 243.714 172.337C255.564 172.931 265.404 179.545 274.585 186.16C279.757 189.884 284.896 193.702 290.568 196.705C290.859 196.859 290.596 197.293 290.304 197.139H290.311Z" fill="#303856" stroke="black" stroke-width="0.5"/>
<path d="M287.836 200.423C278.849 195.164 271.09 188.176 261.965 183.13C257.437 180.627 252.562 178.665 247.382 177.87C241.211 176.923 234.873 177.664 228.902 179.325C222.031 181.234 215.637 184.385 209.452 187.789C209.161 187.949 208.897 187.515 209.189 187.355C219.895 181.455 231.836 176.148 244.49 177.043C255.398 177.81 264.634 183.704 273.177 189.804C278.073 193.302 282.878 196.933 288.092 199.99C288.377 200.156 288.12 200.59 287.829 200.423H287.836Z" fill="#303856" stroke="black" stroke-width="0.5"/>
<path d="M285.264 203.52C277.192 198.387 269.925 192.1 261.473 187.528C257.27 185.252 252.763 183.457 247.999 182.636C242.473 181.688 236.78 182.115 231.344 183.37C225.11 184.812 219.237 187.334 213.599 190.238C213.301 190.391 213.044 189.958 213.336 189.804C223.127 184.758 234.117 180.707 245.427 181.795C255.35 182.749 263.906 187.935 271.77 193.482C276.339 196.705 280.791 200.089 285.52 203.093C285.797 203.266 285.541 203.7 285.257 203.527L285.264 203.52Z" fill="#303856" stroke="black" stroke-width="0.5"/>
<path d="M282.732 206.289C275.541 201.437 268.829 195.871 261.125 191.759C257.27 189.703 253.158 188.055 248.831 187.207C243.991 186.259 238.978 186.38 234.131 187.227C228.521 188.208 223.154 190.131 218.023 192.493C217.725 192.634 217.461 192.2 217.759 192.06C226.67 187.955 236.627 185.071 246.591 186.346C255.557 187.494 263.4 192.08 270.604 197.085C274.765 199.975 278.794 203.032 282.996 205.862C283.266 206.042 283.01 206.483 282.732 206.296V206.289Z" fill="#303856" stroke="black" stroke-width="0.5"/>
<path d="M280.097 209.133C273.683 204.621 267.491 199.709 260.466 196.078C257.062 194.316 253.47 192.888 249.698 192.053C245.475 191.119 241.092 190.999 236.8 191.499C231.884 192.073 227.099 193.435 222.523 195.224C222.211 195.344 222.079 194.863 222.384 194.743C230.4 191.62 239.206 189.784 247.839 191.186C255.758 192.474 262.81 196.432 269.287 200.83C273.038 203.38 276.665 206.096 280.367 208.706C280.638 208.893 280.374 209.327 280.104 209.14L280.097 209.133Z" fill="#303856" stroke="black" stroke-width="0.5"/>
<path d="M277.351 211.843C271.963 207.972 266.624 203.967 260.702 200.863C254.78 197.76 247.812 195.697 240.732 195.878C236.412 195.984 232.147 196.785 228.021 197.987C227.702 198.08 227.564 197.6 227.883 197.506C234.99 195.437 242.562 194.616 249.864 196.238C256.458 197.706 262.429 200.957 267.962 204.615C271.249 206.784 274.418 209.113 277.608 211.409C277.871 211.603 277.608 212.037 277.344 211.843H277.351Z" fill="#303856" stroke="black" stroke-width="0.5"/>
<path d="M274.661 214.333C265.847 207.986 256.41 201.418 245.093 200.437C241.564 200.13 238.014 200.344 234.526 200.911C234.2 200.964 234.061 200.484 234.387 200.43C240.316 199.463 246.362 199.583 252.146 201.251C257.485 202.786 262.387 205.436 266.992 208.406C269.696 210.155 272.317 212.024 274.924 213.899C275.188 214.093 274.924 214.527 274.661 214.333Z" fill="#303856" stroke="black" stroke-width="0.5"/>
<path d="M265.834 212.925C259.115 208.7 251.799 205.429 243.679 204.995C243.346 204.975 243.346 204.475 243.679 204.495C251.896 204.935 259.295 208.212 266.097 212.491C266.375 212.664 266.118 213.098 265.834 212.925Z" fill="#303856" stroke="black" stroke-width="0.5"/>
<path d="M204.386 200.785L204.95 200.675C209.316 199.826 213.592 198.563 217.719 196.902L222.518 194.971" stroke="black" stroke-linecap="round"/>
<path d="M130.758 233.522C120.816 231.997 112.006 227.067 103.893 221.539C95.4322 215.775 87.4852 209.244 78.4924 204.222C74.1007 201.77 69.4562 199.697 64.5503 198.416C58.2588 196.773 51.6886 196.579 45.2578 197.497C31.6206 199.436 19.3689 205.916 7.66614 212.615C1.68843 216.036 -4.25443 219.508 -10.3716 222.694C-16.4887 225.879 -22.9021 228.946 -29.3329 231.744C-30.9101 232.427 -34.3868 233.912 -35.9727 234.569C-36.3562 234.729 -36.3039 235.096 -36.3039 234.021C-23.2505 228.611 -8.85536 221.396 3.33534 214.368C14.9945 207.652 26.8628 200.75 40.2211 197.775C46.6084 196.351 53.2484 195.854 59.7489 196.798C64.8378 197.539 69.735 199.183 74.3446 201.365C83.7382 205.806 91.8944 212.261 100.268 218.227C108.642 224.194 117.165 229.764 127.168 232.174C128.414 232.469 129.669 232.713 130.932 232.907C131.351 232.974 131.168 233.581 130.758 233.514V233.522Z" fill="#303856" stroke="black" stroke-width="0.5"/>
<path d="M126.263 237.432C108.093 233.581 94.948 219.487 79.5529 210.482C70.9249 205.434 61.5103 202.193 51.292 202.56C39.0013 203.007 27.4635 207.779 16.8392 213.429C10.8758 216.596 5.09839 220.073 -0.788946 223.354C-6.837 226.725 -13.7367 230.33 -20.0216 233.269C-20.3853 233.44 -20.7067 232.911 -20.343 232.74C-14.6587 230.085 -8.33422 226.798 -2.83598 223.786C2.66225 220.773 7.76291 217.72 13.1089 214.756C23.4456 209.033 34.4082 203.887 46.3521 202.356C51.9603 201.64 57.6784 201.77 63.1936 203.024C67.5837 204.025 71.7962 205.678 75.7803 207.705C84.0869 211.931 91.4291 217.655 98.9659 223.004C107.306 228.924 116.163 234.664 126.44 236.838C126.838 236.919 126.669 237.513 126.271 237.424L126.263 237.432Z" fill="#303856" stroke="black" stroke-width="0.5"/>
<path d="M123.894 242.554C106.942 237.978 94.4656 224.95 79.8064 216.32C71.8128 211.606 63.0579 208.308 53.5756 208.21C42.2408 208.096 31.3035 211.891 21.339 216.8C10.0803 222.345 -0.383216 229.266 -11.5573 234.941C-11.921 235.12 -12.2425 234.599 -11.8787 234.412C7.66113 224.486 26.1859 209.595 49.0078 207.763C58.634 206.989 67.8033 209.261 76.2452 213.633C84.1035 217.704 91.1074 223.094 98.2551 228.191C106.164 233.833 114.471 239.37 124.063 241.959C124.452 242.065 124.291 242.651 123.894 242.545V242.554Z" fill="#303856" stroke="black" stroke-width="0.5"/>
<path d="M121.28 247.178C105.581 241.943 93.7638 229.949 79.8321 221.734C72.4052 217.354 64.2679 214.113 55.4791 213.673C44.8464 213.144 34.3744 216.214 24.8497 220.537C19.5291 222.955 14.4116 225.772 9.34472 228.655C6.74787 230.128 4.16792 231.627 1.57107 233.1C-1.02579 234.574 -3.3435 236.04 -5.86423 237.399C-6.2195 237.595 -6.54094 237.065 -6.18567 236.87C-3.89333 235.632 -1.69403 234.232 0.57293 232.954C2.83989 231.675 5.08147 230.381 7.33152 229.094C11.9416 226.456 16.5686 223.843 21.3562 221.506C30.6102 216.979 40.6254 213.462 51.089 213.038C60.0215 212.68 68.5142 215.025 76.3217 219.08C84.1292 223.134 90.4225 227.987 97.1727 232.832C104.693 238.23 112.483 243.604 121.433 246.584C121.813 246.714 121.653 247.3 121.263 247.17L121.28 247.178Z" fill="#303856" stroke="black" stroke-width="0.5"/>
<path d="M118.26 251.753C103.821 245.916 92.6469 234.867 79.3835 227.148C72.4218 223.102 64.8089 220.032 56.6292 219.421C46.8254 218.689 37.0301 221.107 28.0807 224.819C17.9978 228.996 8.78613 234.802 -0.696211 240.07C-1.05148 240.265 -1.37292 239.736 -1.01765 239.54C15.6039 230.307 32.4877 218.949 52.4421 218.68C60.7487 218.566 68.6492 220.822 75.9407 224.551C83.2322 228.28 89.331 232.839 95.6836 237.423C102.84 242.585 110.131 247.804 118.429 251.159C118.802 251.306 118.641 251.9 118.26 251.745V251.753Z" fill="#303856" stroke="black" stroke-width="0.5"/>
<path d="M115.249 256.134C102.028 249.922 91.4457 239.744 78.8675 232.539C72.4472 228.859 65.4433 226.017 57.9573 225.227C49.0501 224.291 40.0669 226.066 31.7434 229.078C22.058 232.588 13.1932 237.823 4.3368 242.904C3.98153 243.107 3.66855 242.578 4.01536 242.374C19.3766 233.573 35.7952 223.908 54.3453 224.38C69.9603 224.779 82.6824 233.727 94.6855 242.391C101.351 247.203 108.059 252.08 115.579 255.605C115.942 255.776 115.621 256.305 115.257 256.134H115.249Z" fill="#303856" stroke="black" stroke-width="0.5"/>
<path d="M112.322 260.083C100.243 253.684 90.2193 244.337 78.3431 237.644C72.4304 234.314 66.0186 231.7 59.1924 230.78C50.9281 229.665 42.5031 230.975 34.6449 233.491C25.5347 236.406 17.1351 240.99 8.91314 245.68C8.55787 245.884 8.24489 245.354 8.5917 245.151C22.811 237.049 38.4175 228.981 55.4789 229.827C69.9351 230.552 81.9381 238.621 93.1376 246.69C99.4479 251.233 105.716 255.89 112.635 259.554C112.99 259.741 112.669 260.27 112.314 260.083H112.322Z" fill="#303856" stroke="black" stroke-width="0.5"/>
<path d="M109.303 264.088C98.3399 257.672 88.8745 249.147 77.7427 242.992C72.2191 239.939 66.2725 237.545 59.9538 236.576C52.4254 235.42 44.694 236.324 37.411 238.351C29.0283 240.68 21.2293 244.523 13.684 248.675C13.3287 248.871 13.0073 248.341 13.3626 248.146C26.423 240.948 40.9891 234.475 56.4264 235.567C69.7322 236.503 80.9993 243.692 91.4206 251.134C97.3925 255.401 103.254 259.83 109.616 263.559C109.962 263.762 109.649 264.292 109.294 264.088H109.303Z" fill="#303856" stroke="black" stroke-width="0.5"/>
<path d="M208.846 197.118C198.904 195.593 190.094 190.663 181.981 185.135C173.52 179.371 165.573 172.841 156.581 167.818C152.189 165.366 147.544 163.293 142.638 162.012C136.347 160.369 129.777 160.175 123.346 161.094C109.709 163.032 97.457 169.512 85.7543 176.211C79.7766 179.633 73.8337 183.104 67.7166 186.29C61.5994 189.475 55.186 192.543 48.7552 195.34C47.178 196.023 43.7013 197.508 42.1154 198.165C41.732 198.325 41.7843 198.692 41.7843 197.617C54.8376 192.207 69.2328 184.992 81.4235 177.964C93.0826 171.248 104.951 164.346 118.309 161.372C124.697 159.947 131.337 159.45 137.837 160.394C142.926 161.136 147.823 162.779 152.433 164.961C161.826 169.402 169.983 175.857 178.357 181.824C186.731 187.79 195.253 193.36 205.256 195.77C206.502 196.065 207.757 196.309 209.021 196.503C209.439 196.571 209.256 197.177 208.846 197.11V197.118Z" fill="#303856" stroke="black" stroke-width="0.5"/>
<path d="M204.35 201.029C186.181 197.177 173.036 183.084 157.641 174.078C149.013 169.03 139.598 165.79 129.38 166.156C117.089 166.604 105.551 171.375 94.9271 177.026C88.9637 180.193 83.1863 183.67 77.2989 186.951C71.2509 190.322 64.3512 193.926 58.0663 196.866C57.7026 197.037 57.3811 196.507 57.7449 196.336C63.4292 193.682 69.7537 190.395 75.2519 187.383C80.7501 184.37 85.8508 181.317 91.1968 178.353C101.533 172.629 112.496 167.483 124.44 165.953C130.048 165.236 135.766 165.367 141.281 166.62C145.672 167.622 149.884 169.275 153.868 171.302C162.175 175.528 169.517 181.252 177.054 186.601C185.394 192.52 194.251 198.26 204.528 200.434C204.926 200.516 204.756 201.11 204.359 201.02L204.35 201.029Z" fill="#303856" stroke="black" stroke-width="0.5"/>
<path d="M201.982 206.146C201.982 206.148 201.98 206.149 201.978 206.149C185.028 201.572 172.552 188.546 157.894 179.916C149.901 175.202 141.146 171.904 131.663 171.807C120.329 171.693 109.391 175.487 99.4269 180.396C88.1682 185.941 77.7047 192.862 66.5306 198.537C66.1668 198.716 65.8454 198.195 66.2092 198.008C85.749 188.083 104.274 173.191 127.096 171.359C136.722 170.585 145.891 172.857 154.333 177.229C162.191 181.3 169.195 186.69 176.343 191.787C184.252 197.43 192.559 202.966 202.151 205.555C202.539 205.661 202.38 206.243 201.986 206.143C201.984 206.142 201.982 206.144 201.982 206.146Z" fill="#303856" stroke="black" stroke-width="0.5"/>
<path d="M199.368 210.774C183.669 205.539 171.852 193.546 157.92 185.33C150.493 180.95 142.356 177.709 133.567 177.27C122.935 176.74 112.463 179.81 102.938 184.133C97.6173 186.552 92.4997 189.369 87.4329 192.251C84.836 193.725 82.2561 195.223 79.6592 196.697C77.0623 198.17 74.7446 199.636 72.2239 200.995C71.8686 201.191 71.5472 200.662 71.9025 200.466C74.1948 199.229 76.3941 197.828 78.6611 196.55C80.928 195.272 83.1696 193.977 85.4197 192.691C90.0297 190.053 94.6567 187.439 99.4444 185.102C108.698 180.575 118.714 177.058 129.177 176.635C138.11 176.276 146.602 178.621 154.41 182.676C162.217 186.731 168.511 191.583 175.261 196.428C182.781 201.826 190.571 207.2 199.521 210.18C199.901 210.31 199.741 210.896 199.352 210.766L199.368 210.774Z" fill="#303856" stroke="black" stroke-width="0.5"/>
<path d="M196.348 215.351C181.909 209.513 170.735 198.464 157.472 190.745C150.51 186.699 142.897 183.629 134.717 183.018C124.914 182.286 115.118 184.704 106.169 188.417C96.0859 192.594 86.8743 198.399 77.3919 203.667C77.0367 203.862 76.7152 203.333 77.0705 203.137C93.6921 193.904 110.576 182.546 130.53 182.278C138.837 182.164 146.737 184.419 154.029 188.148C161.32 191.877 167.419 196.437 173.772 201.021C180.928 206.183 188.219 211.402 196.518 214.756C196.89 214.903 196.729 215.497 196.348 215.342V215.351Z" fill="#303856" stroke="black" stroke-width="0.5"/>
<path d="M193.337 219.731C180.116 213.519 169.534 203.341 156.955 196.135C150.535 192.455 143.531 189.614 136.045 188.824C127.138 187.888 118.155 189.662 109.831 192.675C100.146 196.184 91.2811 201.42 82.4247 206.5C82.0694 206.704 81.7564 206.175 82.1033 205.971C97.4645 197.169 113.883 187.505 132.433 187.977C148.048 188.376 160.77 197.324 172.773 205.987C179.439 210.799 186.147 215.676 193.667 219.202C194.03 219.373 193.709 219.902 193.345 219.731H193.337Z" fill="#303856" stroke="black" stroke-width="0.5"/>
<path d="M190.41 223.68C178.331 217.28 168.307 207.933 156.431 201.24C150.518 197.91 144.107 195.297 137.28 194.377C129.016 193.261 120.591 194.572 112.733 197.088C103.623 200.003 95.223 204.587 87.001 209.277C86.6458 209.48 86.3328 208.951 86.6796 208.747C100.899 200.646 116.505 192.577 133.567 193.424C148.023 194.149 160.026 202.218 171.226 210.286C177.536 214.83 183.804 219.487 190.723 223.151C191.078 223.338 190.757 223.867 190.402 223.68H190.41Z" fill="#303856" stroke="black" stroke-width="0.5"/>
<path d="M187.39 227.686C176.428 221.27 166.962 212.745 155.83 206.59C150.307 203.536 144.36 201.143 138.041 200.174C130.513 199.018 122.782 199.921 115.499 201.949C107.116 204.277 99.3169 208.12 91.7717 212.273C91.4164 212.468 91.0949 211.939 91.4502 211.744C104.511 204.546 119.077 198.073 134.514 199.164C147.82 200.101 159.087 207.29 169.508 214.732C175.48 218.998 181.342 223.427 187.703 227.157C188.05 227.36 187.737 227.889 187.382 227.686H187.39Z" fill="#303856" stroke="black" stroke-width="0.5"/>
<path d="M184.252 231.463C174.406 225.201 165.542 217.532 155.23 211.954C150.104 209.178 144.606 206.988 138.795 205.986C132.053 204.83 125.108 205.351 118.477 206.882C110.872 208.64 103.708 211.718 96.8306 215.26C96.4669 215.447 96.1539 214.918 96.5091 214.731C108.453 208.575 121.86 203.633 135.657 204.96C147.761 206.125 158.199 212.451 167.792 219.217C173.366 223.15 178.797 227.278 184.565 230.942C184.904 231.153 184.591 231.682 184.244 231.471L184.252 231.463Z" fill="#303856" stroke="black" stroke-width="0.5"/>
<path d="M181.165 234.842C172.393 228.922 164.205 222.132 154.807 217.116C150.104 214.609 145.088 212.598 139.809 211.564C133.905 210.407 127.789 210.554 121.877 211.588C115.034 212.785 108.486 215.13 102.227 218.012C101.863 218.183 101.542 217.654 101.905 217.483C112.775 212.475 124.922 208.958 137.077 210.513C148.015 211.914 157.581 217.507 166.37 223.614C171.445 227.139 176.36 230.868 181.486 234.321C181.816 234.54 181.503 235.078 181.165 234.85V234.842Z" fill="#303856" stroke="black" stroke-width="0.5"/>
<path d="M177.95 238.31C170.126 232.806 162.572 226.814 154.003 222.385C149.85 220.235 145.468 218.493 140.867 217.475C135.715 216.335 130.369 216.189 125.133 216.799C119.136 217.499 113.299 219.16 107.717 221.342C107.336 221.489 107.175 220.903 107.547 220.756C117.326 216.946 128.069 214.707 138.6 216.417C148.26 217.988 156.862 222.816 164.763 228.182C169.339 231.292 173.763 234.606 178.28 237.789C178.61 238.017 178.289 238.547 177.959 238.319L177.95 238.31Z" fill="#303856" stroke="black" stroke-width="0.5"/>
<path d="M174.6 241.615C168.028 236.893 161.514 232.008 154.291 228.221C147.067 224.435 138.566 221.92 129.929 222.139C124.659 222.27 119.457 223.247 114.424 224.712C114.035 224.826 113.866 224.24 114.255 224.126C122.925 221.602 132.162 220.601 141.069 222.579C149.114 224.37 156.397 228.335 163.147 232.797C167.156 235.443 171.022 238.285 174.913 241.086C175.235 241.322 174.913 241.851 174.592 241.615H174.6Z" fill="#303856" stroke="black" stroke-width="0.5"/>
<path d="M171.318 244.654C160.567 236.911 149.055 228.899 135.25 227.702C130.945 227.327 126.614 227.588 122.359 228.28C121.961 228.345 121.792 227.759 122.19 227.694C129.422 226.513 136.798 226.66 143.853 228.695C150.366 230.568 156.346 233.8 161.963 237.424C165.262 239.557 168.459 241.837 171.64 244.124C171.961 244.361 171.64 244.89 171.318 244.654Z" fill="#303856" stroke="black" stroke-width="0.5"/>
<path d="M157.917 243.214C149.72 238.06 140.796 234.07 130.891 233.541C130.485 233.517 130.485 232.906 130.891 232.93C140.915 233.468 149.94 237.465 158.238 242.685C158.577 242.896 158.264 243.425 157.917 243.214Z" fill="#303856" stroke="black" stroke-width="0.5"/>
<path d="M174.067 178.755L182.696 174.441" stroke="black" stroke-linecap="round"/>
<path d="M178.381 181.741L188.904 176.184" stroke="black" stroke-linecap="round"/>
<path d="M182 184.281L193.981 177.953" stroke="black" stroke-linecap="round"/>
<path d="M185.636 186.793L198.084 180.218" stroke="black" stroke-linecap="round"/>
<path d="M189.447 189.293L201.895 182.719" stroke="black" stroke-linecap="round"/>
<path d="M193.1 191.619L205.549 185.045" stroke="black" stroke-linecap="round"/>
<path d="M197.782 193.692L209.46 187.524" stroke="black" stroke-linecap="round"/>
<path d="M203.22 195.449L214.904 189.291" stroke="black" stroke-linecap="round"/>
<path d="M209.258 196.893L220.348 191.049" stroke="black" stroke-linecap="round"/>
<path d="M200.599 157.248L216.174 147.875C222.863 143.85 230.467 141.593 238.269 141.318L255.443 140.711" stroke="black" stroke-linecap="round"/>
<path d="M196.617 204.014L200.361 205.585C201.497 206.062 202.806 205.979 203.88 205.377C206.87 203.702 210.155 202.493 213.52 201.845L215.081 201.545L228.823 197.5" stroke="black" stroke-linecap="round"/>
<path d="M125.041 236.809L149.493 243.622" stroke="black" stroke-linecap="round"/>
</g>
<mask id="path-61-inside-1_648_3" fill="white">
<path d="M5.68103 222.544H255.341V264.7H5.68103V222.544Z"/>
</mask>
<path d="M5.68103 222.544H255.341V264.7H5.68103V222.544Z" fill="#FFCC00"/>
<path d="M5.68103 222.544V223.544H255.341V222.544V221.544H5.68103V222.544ZM255.341 264.7V263.7H5.68103V264.7V265.7H255.341V264.7Z" fill="black" mask="url(#path-61-inside-1_648_3)"/>
<path d="M5.21355 153.121L14.9108 143.596L25.0242 151.944M4.7738 165.561L14.9108 155.603L25.4864 164.467M14.9145 143.64V205.055M5.21357 130.031L15.11 120.499L25.6856 130.147M5.21357 141.677L14.9107 132.152L25.4863 141.015M14.9143 121.456V162.494M24.2052 152.045L35.6744 143.696L46.6269 152.045M24.5832 164.568L35.6744 155.704L46.6269 164.326M35.678 143.74V195.826M25.1518 140.675L35.8956 132.415L46.6696 141.163M35.6778 133.049V162.189M99.061 132.839V143.386M99.061 132.839L110.152 141.703M99.061 132.839L88.9476 140.604M99.061 143.386V155.393M99.061 143.386L110.589 152.443M99.061 143.386L88.9476 151.734M99.061 155.393V165.946M99.061 155.393L108.152 162.292M99.061 155.393L88.4854 164.257M99.061 99.8804V110.427M99.061 99.8804L110.152 108.744M99.061 99.8804L88.9476 107.645M99.061 110.427V121.167M99.061 110.427L110.589 119.484M99.061 110.427L88.9476 118.776M99.061 121.167V151.401M99.061 121.167L110.152 130.031M99.061 121.167L88.4854 130.031M89.8259 151.734L77.6442 143.386L67.5308 151.734M89.4252 164.257L77.6442 155.393L67.0686 164.257M77.6405 143.43V177.104M89.2261 129.937L77.445 120.289L66.8694 129.937M89.4253 140.806L77.6443 131.942L67.0687 140.806M77.6407 121.246V162.285M68.3498 151.835L56.8806 143.487L46.0514 152.314M67.9718 164.358L56.8806 155.494L46.0514 164.358M56.877 143.531V187.516M67.4032 140.465L56.6593 132.205L46.0837 141.069M56.8772 132.839V161.979" stroke="black"/>
<path d="M162.506 122.761V164.568M162.506 122.761L173.375 130.921M162.506 122.761L152.595 129.91M173.803 140.809L162.506 132.471L152.595 140.156M173.375 151.685L162.506 143.525L152.142 151.685" stroke="black"/>
<path d="M162.506 92.4199V139.85M162.506 92.4199L173.375 100.58M162.506 92.4199L152.595 99.5683M173.803 110.467L162.506 102.129L152.595 109.815M173.375 120.176L162.506 112.016L152.142 120.176" stroke="black"/>
<path d="M153.455 140.156L141.518 132.471L131.607 140.156M153.063 151.685L141.518 143.525L131.154 151.685" stroke="black"/>
<path d="M141.514 132.512V159.26" stroke="black"/>
<path d="M152.867 120.09L141.322 111.208L130.958 120.09M153.063 130.095L141.518 121.935L131.154 130.095" stroke="black"/>
<path d="M153.063 130.096L141.518 121.936L131.154 130.096" stroke="black"/>
<path d="M141.514 112.089V149.869" stroke="black"/>
<path d="M132.211 140.006L121.17 132.564L109.604 141.626M131.544 151.416L121.17 143.618L109.89 152.396" stroke="black"/>
<path d="M121.166 132.605L121.166 158.575" stroke="black"/>
<path d="M131.659 129.749L120.953 122.178L109.604 130.175" stroke="black"/>
<path d="M121.166 122.761V149.588" stroke="black"/>
<path d="M184.418 122.761V160.069M184.418 122.761L172.847 130.815M184.418 122.761L194.328 129.91M173.158 140.601L184.418 132.471L193.97 139.902M172.847 151.685L184.418 143.525L194.328 151.478" stroke="black"/>
<path d="M184.417 92.4199V139.85M184.417 92.4199L172.891 100.63M184.417 92.4199L194.328 99.5683M173.202 110.24L184.417 102.129L194.328 109.815M172.891 120.176L184.417 112.016L194.781 120.176" stroke="black"/>
<path d="M193.468 140.156L205.405 132.471L215.316 140.156M193.86 151.685L205.405 143.525L210.88 148.902" stroke="black"/>
<path d="M194.056 120.09L205.601 111.208L215.964 120.09M193.86 130.095L205.405 121.935L215.769 130.095" stroke="black"/>
<path d="M193.86 130.096L205.405 121.936L215.769 130.096" stroke="black"/>
<path d="M205.409 111.414V151.761" stroke="black"/>
<mask id="mask1_648_3" style="mask-type:alpha" maskUnits="userSpaceOnUse" x="4" y="4" width="253" height="278">
<path d="M130.511 5.12549C199.729 5.12555 255.841 61.2378 255.841 130.456V280.97H5.18103V130.456C5.18103 61.2377 61.2933 5.12549 130.511 5.12549Z" fill="#D9D9D9" stroke="black"/>
</mask>
<g mask="url(#mask1_648_3)">
<path d="M246.863 112.651V139.081M246.863 112.651L258.434 120.705M246.863 112.651L236.952 119.8M258.122 130.491L246.863 122.361L237.31 129.792" stroke="black"/>
<path d="M246.863 82.3101V129.74M246.863 82.3101L258.389 90.5197M246.863 82.3101L236.952 89.4585M258.078 100.13L246.863 92.0195L230.89 104.645M258.389 110.067L246.863 101.907L236.499 110.067" stroke="black"/>
<path d="M237.813 130.047L225.875 122.361L214.872 130.047M238.606 139.018L225.875 133.415L214.872 139.824" stroke="black"/>
<path d="M237.225 109.981L225.68 101.099L209.058 113.757M237.42 119.986L225.875 111.826L215.511 119.986" stroke="black"/>
<path d="M237.42 119.987L225.875 111.827L215.245 119.987" stroke="black"/>
<path d="M225.871 101.383V141.651" stroke="black"/>
</g>
<circle cx="25.318" cy="95.4824" r="1.5" fill="#D40511"/>
<circle cx="51.0966" cy="123.562" r="1.5" transform="rotate(-16.247 51.0966 123.562)" fill="#D40511"/>
<circle cx="220.339" cy="96.8611" r="1.5" transform="rotate(-135.335 220.339 96.8611)" fill="#D40511"/>
<circle cx="54.1816" cy="53.8701" r="1.5" fill="#D40511"/>
<circle cx="61.7152" cy="80.4014" r="1.5" fill="#D40511"/>
<circle cx="81.8208" cy="98.9013" r="1.5" transform="rotate(-16.247 81.8208 98.9013)" fill="#D40511"/>
<circle cx="183.851" cy="82.0018" r="1.5" transform="rotate(-135.335 183.851 82.0018)" fill="#D40511"/>
<circle cx="183.824" cy="57.4915" r="1.5" transform="rotate(-135.335 183.824 57.4915)" fill="#D40511"/>
<circle cx="222.448" cy="61.7342" r="1.5" transform="rotate(-135.335 222.448 61.7342)" fill="#D40511"/>
<circle cx="199.558" cy="41.9256" r="1.5" transform="rotate(-135.335 199.558 41.9256)" fill="#D40511"/>
<circle cx="47.1155" cy="71.4188" r="1.5" transform="rotate(-135.335 47.1155 71.4188)" fill="#D40511"/>
<path fill-rule="evenodd" clip-rule="evenodd" d="M124.195 59.1494C132.763 47.9871 130.74 32.4205 119.363 23.7932L102.063 44.0412L102.034 44.0192C92.4415 55.2416 94.2023 71.5659 105.967 80.4847C117.732 89.4035 135.04 87.5367 144.632 76.3143C154.224 65.0919 152.464 48.7676 140.699 39.8488L124.202 59.1549L124.195 59.1494Z" fill="url(#paint0_radial_648_3)"/>
<mask id="mask2_648_3" style="mask-type:alpha" maskUnits="userSpaceOnUse" x="6" y="6" width="250" height="124">
<path d="M6.16418 129.124C6.16418 61.193 61.2332 6.12402 129.164 6.12402H132.164C200.095 6.12402 255.164 61.193 255.164 129.124V129.124H6.16418V129.124Z" fill="#D9D9D9"/>
</mask>
<g mask="url(#mask2_648_3)">
<path d="M245.446 82.6562L167.001 65.4815M179.861 93.5242L162.713 82.6549M209.304 111.783L198.18 104.769M153.919 98.2118L149.464 91.379M136.519 111.46L133.688 99.0652M117.298 98.2118L114.676 119.44M101.002 92.9392L94.7736 100.595M87.9882 79.87L52.9089 102.97M81.5256 65.492L52.9981 70.8534M42.6758 73.0945L23.3138 76.4848M82.6031 47.351C66.7322 44.2443 45.3381 39.0588 45.4145 38.6879M90.0649 32.8199L73.3307 19.384M102.759 20.4534L94.7736 9.4377M117.848 14.5244L117.298 5.29075M134.034 13.4832L136.519 5.29073M151.544 19.3839L161.361 9.43767M161.361 31.5532L186.416 17.8216M167.931 49.3019L194.488 43.6113M206.203 41.1565L216.692 39.0361M45.4145 107.785L22.0143 122.409" stroke="#F5CB00" stroke-width="2" stroke-linecap="round"/>
</g>
<path d="M199.239 232.086C204.68 230.621 210.412 230.621 215.853 232.086L217.494 232.527C222.306 233.823 227.385 233.741 232.152 232.29C237.39 230.696 242.984 230.696 248.222 232.29L255.653 234.552L255.362 235.509L247.931 233.247C242.883 231.711 237.491 231.711 232.443 233.247C227.497 234.752 222.227 234.837 217.234 233.493L215.594 233.052C210.323 231.633 204.77 231.633 199.499 233.052L197.272 233.651C192.668 234.891 187.799 234.748 183.275 233.24C178.693 231.713 173.749 231.647 169.128 233.054L168.495 233.246C163.558 234.749 158.28 234.716 153.362 233.151C148.73 231.678 143.763 231.616 139.097 232.978L130.415 235.511L130.275 235.03L130.13 235.509L122.698 233.247C117.65 231.711 112.259 231.711 107.211 233.247C102.265 234.752 96.9943 234.837 92.0018 233.493L90.3612 233.052C85.0903 231.633 79.5374 231.633 74.2665 233.052L72.0399 233.651C67.4353 234.891 62.5668 234.748 58.0428 233.24C53.4607 231.713 48.5162 231.647 43.8954 233.054L43.2626 233.246C38.3253 234.749 33.0476 234.716 28.1298 233.151C23.4976 231.678 18.5307 231.616 13.8641 232.978L5.1825 235.511L4.9032 234.55L13.5848 232.018C18.4421 230.601 23.612 230.664 28.4335 232.198C33.1581 233.702 38.2284 233.734 42.9716 232.29L43.6044 232.098C48.4235 230.631 53.5803 230.698 58.3593 232.291C62.6968 233.737 67.3642 233.874 71.7792 232.686L74.0067 232.086C79.4478 230.621 85.1799 230.621 90.621 232.086L92.2616 232.527C97.0732 233.823 102.153 233.741 106.92 232.29C112.158 230.696 117.751 230.696 122.989 232.29L130.277 234.508L138.817 232.018C143.674 230.601 148.844 230.664 153.666 232.198C158.39 233.702 163.461 233.734 168.204 232.29L168.837 232.098C173.656 230.631 178.813 230.698 183.592 232.291C187.929 233.737 192.597 233.874 197.012 232.686L199.239 232.086Z" fill="black"/>
<path d="M199.239 243.086C204.68 241.621 210.412 241.621 215.853 243.086L217.494 243.527C222.306 244.823 227.385 244.741 232.152 243.29C237.39 241.696 242.984 241.696 248.222 243.29L255.653 245.552L255.362 246.509L247.931 244.247C242.883 242.711 237.491 242.711 232.443 244.247C227.497 245.752 222.227 245.837 217.234 244.493L215.594 244.052C210.323 242.633 204.77 242.633 199.499 244.052L197.272 244.651C192.668 245.891 187.799 245.748 183.275 244.24C178.693 242.713 173.749 242.647 169.128 244.054L168.495 244.246C163.558 245.749 158.28 245.716 153.362 244.151C148.73 242.678 143.763 242.616 139.097 243.978L130.415 246.511L130.275 246.03L130.13 246.509L122.698 244.247C117.65 242.711 112.259 242.711 107.211 244.247C102.265 245.752 96.9943 245.837 92.0018 244.493L90.3612 244.052C85.0903 242.633 79.5374 242.633 74.2665 244.052L72.0399 244.651C67.4353 245.891 62.5668 245.748 58.0428 244.24C53.4607 242.713 48.5162 242.647 43.8954 244.054L43.2626 244.246C38.3253 245.749 33.0476 245.716 28.1298 244.151C23.4976 242.678 18.5307 242.616 13.8641 243.978L5.1825 246.511L4.9032 245.55L13.5848 243.018C18.4421 241.601 23.612 241.664 28.4335 243.198C33.1581 244.702 38.2284 244.734 42.9716 243.29L43.6044 243.098C48.4235 241.631 53.5803 241.698 58.3593 243.291C62.6968 244.737 67.3642 244.874 71.7792 243.686L74.0067 243.086C79.4478 241.621 85.1799 241.621 90.621 243.086L92.2616 243.527C97.0732 244.823 102.153 244.741 106.92 243.29C112.158 241.696 117.751 241.696 122.989 243.29L130.277 245.508L138.817 243.018C143.674 241.601 148.844 241.664 153.666 243.198C158.39 244.702 163.461 244.734 168.204 243.29L168.837 243.098C173.656 241.631 178.813 241.698 183.592 243.291C187.929 244.737 192.597 244.874 197.012 243.686L199.239 243.086Z" fill="black"/>
<path d="M199.239 254.086C204.68 252.621 210.412 252.621 215.853 254.086L217.494 254.527C222.306 255.823 227.385 255.741 232.152 254.29C237.39 252.696 242.984 252.696 248.222 254.29L255.653 256.552L255.362 257.509L247.931 255.247C242.883 253.711 237.491 253.711 232.443 255.247C227.497 256.752 222.227 256.837 217.234 255.493L215.594 255.052C210.323 253.633 204.77 253.633 199.499 255.052L197.272 255.651C192.668 256.891 187.799 256.748 183.275 255.24C178.693 253.713 173.749 253.647 169.128 255.054L168.495 255.246C163.558 256.749 158.28 256.716 153.362 255.151C148.73 253.678 143.763 253.616 139.097 254.978L130.415 257.511L130.275 257.03L130.13 257.509L122.698 255.247C117.65 253.711 112.259 253.711 107.211 255.247C102.265 256.752 96.9943 256.837 92.0018 255.493L90.3612 255.052C85.0903 253.633 79.5374 253.633 74.2665 255.052L72.0399 255.651C67.4353 256.891 62.5668 256.748 58.0428 255.24C53.4607 253.713 48.5162 253.647 43.8954 255.054L43.2626 255.246C38.3253 256.749 33.0476 256.716 28.1298 255.151C23.4976 253.678 18.5307 253.616 13.8641 254.978L5.1825 257.511L4.9032 256.55L13.5848 254.018C18.4421 252.601 23.612 252.664 28.4335 254.198C33.1581 255.702 38.2284 255.734 42.9716 254.29L43.6044 254.098C48.4235 252.631 53.5803 252.698 58.3593 254.291C62.6968 255.737 67.3642 255.874 71.7792 254.686L74.0067 254.086C79.4478 252.621 85.1799 252.621 90.621 254.086L92.2616 254.527C97.0732 255.823 102.153 255.741 106.92 254.29C112.158 252.696 117.751 252.696 122.989 254.29L130.277 256.508L138.817 254.018C143.674 252.601 148.844 252.664 153.666 254.198C158.39 255.702 163.461 255.734 168.204 254.29L168.837 254.098C173.656 252.631 178.813 252.698 183.592 254.291C187.929 255.737 192.597 255.874 197.012 254.686L199.239 254.086Z" fill="black"/>
<defs>
<radialGradient id="paint0_radial_648_3" cx="0" cy="0" r="1" gradientUnits="userSpaceOnUse" gradientTransform="translate(117.409 43.5132) rotate(81.0787) scale(102.309 89.9963)">
<stop offset="0.24" stop-color="#FFCC00"/>
<stop offset="1" stop-color="#D40511"/>
</radialGradient>
</defs>
</svg>
