<svg width="262" height="343" viewBox="0 0 262 343" fill="none" xmlns="http://www.w3.org/2000/svg">
<path d="M130.83 0.529785C202.809 0.529826 261.16 58.8806 261.16 130.86V269.54H0.5V130.86C0.500033 58.8806 58.8508 0.529785 130.83 0.529785Z" stroke="black"/>
<path d="M130.511 5.15527C199.729 5.15534 255.841 61.2675 255.841 130.485V264.335H5.18103V130.485C5.18103 61.2675 61.2933 5.15527 130.511 5.15527Z" stroke="black"/>
<mask id="mask0_388_1183" style="mask-type:alpha" maskUnits="userSpaceOnUse" x="6" y="135" width="250" height="104">
<path d="M6.39516 203.917L6.3952 238.851H255.341V135.923L240.114 135.922C233.426 135.922 226.835 137.52 220.888 140.581L189.661 156.658C185.536 158.782 181.088 160.208 176.497 160.877L161.329 163.089L146.479 159.866L142.725 158.727C134.313 156.174 125.312 156.325 116.99 159.159L87.1957 169.305L17.5723 189.265C10.9715 191.074 6.39515 197.073 6.39516 203.917Z" fill="#D9D9D9"/>
</mask>
<g mask="url(#mask0_388_1183)">
<path d="M167.044 173.157C170.579 171.483 174.478 170.725 178.383 170.952L182.167 171.172M163.168 171.172L164.805 170.345C169.331 168.057 174.467 167.262 179.474 168.074L185.759 169.093M159.576 168.431L163.18 166.661C167.836 164.374 173.107 163.657 178.205 164.618L189.918 166.824M186.893 165.69L188.601 164.189C191.522 161.623 195.276 160.208 199.163 160.208H202.773M182.167 164.934L184.968 162.134C188.124 158.978 192.454 157.283 196.914 157.46L206.649 157.845" stroke="black" stroke-linecap="round"/>
<path d="M244.521 205.086C236.388 203.688 228.003 202.836 219.92 204.547C211.953 206.238 204.981 210.571 199.132 216.19C187.246 227.607 180.237 243.011 170.226 255.982C164.838 262.955 158.526 269.326 150.663 273.337C150.308 273.519 150.066 272.925 150.421 272.744C165.329 265.127 174.034 249.716 182.883 236C191.732 222.284 201.759 208.827 217.474 204.49C226.302 202.061 235.613 202.905 244.603 204.452C244.998 204.522 244.923 205.152 244.521 205.086Z" fill="#303856" stroke="black" stroke-width="0.5"/>
<path d="M247.417 212.203C239.754 210.882 231.887 210.05 224.224 211.388C216.56 212.725 209.977 216.299 204.24 221.273C192.557 231.408 185.506 245.61 176.717 258.176C171.749 265.282 166.142 272.068 159.095 277.095C158.77 277.329 158.384 276.821 158.709 276.588C171.755 267.274 179.372 252.573 188.179 239.456C196.456 227.126 206.762 214.857 221.67 211.264C230.122 209.228 238.964 210.106 247.499 211.57C247.894 211.64 247.82 212.27 247.417 212.203Z" fill="#303856" stroke="black" stroke-width="0.5"/>
<path d="M250.311 219.314C243.12 218.078 235.763 217.269 228.55 218.285C221.461 219.277 214.945 222.224 209.31 226.612C197.922 235.473 190.744 248.463 182.905 260.421C178.343 267.381 173.426 274.171 167.353 279.836C167.063 280.111 166.674 279.595 166.968 279.328C178.116 268.931 184.985 254.987 193.782 242.658C201.872 231.318 212.112 220.821 226.161 218.038C234.139 216.463 242.386 217.306 250.393 218.681C250.788 218.751 250.713 219.381 250.311 219.314Z" fill="#303856" stroke="black" stroke-width="0.5"/>
<path d="M253.204 226.425C246.486 225.273 239.64 224.487 232.867 225.222C226.15 225.943 219.853 228.331 214.309 232.174C203.349 239.781 195.987 251.526 188.904 262.705C184.604 269.494 180.168 276.237 174.847 282.232C174.585 282.533 174.084 282.136 174.346 281.836C183.813 271.154 190.228 258.179 198.831 246.825C206.813 236.295 216.946 227.142 230.287 224.925C237.89 223.658 245.685 224.491 253.279 225.795C253.674 225.865 253.599 226.495 253.197 226.428L253.204 226.425Z" fill="#303856" stroke="black" stroke-width="0.5"/>
<path d="M256.1 233.542C249.796 232.462 243.381 231.704 237.018 232.217C230.752 232.727 224.75 234.587 219.385 237.86C208.837 244.302 201.403 254.84 194.754 265.15C190.628 271.555 186.667 278.058 182.045 284.101C181.8 284.422 181.299 284.026 181.544 283.705C189.663 273.073 195.801 260.977 204.311 250.648C208.238 245.884 212.662 241.463 217.813 238.084C222.938 234.725 228.689 232.578 234.771 231.793C241.876 230.886 249.095 231.686 256.161 232.899C256.556 232.969 256.481 233.599 256.079 233.533L256.1 233.542Z" fill="#303856" stroke="black" stroke-width="0.5"/>
<path d="M258.994 240.653C247.419 238.662 235.418 238.064 224.789 243.561C214.16 249.058 207.069 258.238 200.664 267.701C196.89 273.279 193.43 279.08 189.656 284.659C189.426 284.992 188.932 284.593 189.155 284.263C195.982 274.166 201.909 263.356 210.161 254.368C213.933 250.258 218.179 246.564 223.008 243.797C227.836 241.029 233.537 239.263 239.285 238.733C245.878 238.127 252.528 238.891 259.065 240.015C259.46 240.085 259.385 240.715 258.983 240.648L258.994 240.653Z" fill="#303856" stroke="black" stroke-width="0.5"/>
<path d="M261.891 247.772C251.173 245.931 239.989 245.166 229.891 249.617C219.793 254.067 212.711 262.062 206.5 270.616C202.892 275.592 199.669 280.834 196.34 286.01C196.12 286.349 195.619 285.953 195.839 285.614C201.826 276.311 207.604 266.761 215.479 258.979C219.205 255.303 223.383 252.08 228.063 249.761C232.743 247.441 238.099 246.101 243.443 245.745C249.627 245.342 255.846 246.079 261.969 247.131C262.364 247.201 262.29 247.831 261.887 247.764L261.891 247.772Z" fill="#303856" stroke="black" stroke-width="0.5"/>
<path d="M307.424 175.396C299.274 174.145 292.052 170.104 285.402 165.573C278.466 160.848 271.951 155.494 264.579 151.377C260.979 149.367 257.172 147.667 253.15 146.617C247.993 145.27 242.607 145.111 237.335 145.864C226.156 147.453 216.112 152.765 206.519 158.257C201.619 161.062 196.747 163.908 191.733 166.519C186.718 169.13 181.461 171.645 176.189 173.938C174.896 174.498 172.046 175.715 170.746 176.254C170.432 176.385 170.475 176.686 170.475 175.805C181.175 171.37 192.976 165.455 202.969 159.694C212.527 154.188 222.256 148.531 233.206 146.092C238.442 144.925 243.885 144.517 249.214 145.291C253.386 145.899 257.4 147.246 261.179 149.035C268.879 152.675 275.565 157.967 282.43 162.858C289.295 167.749 296.281 172.315 304.481 174.29C305.503 174.532 306.531 174.732 307.567 174.891C307.91 174.947 307.76 175.444 307.424 175.389V175.396Z" fill="#303856" stroke="black" stroke-width="0.5"/>
<path d="M301.738 178.601C286.844 175.444 276.068 163.89 263.448 156.508C256.375 152.37 248.658 149.714 240.281 150.014C230.206 150.381 220.748 154.293 212.038 158.925C207.15 161.521 202.414 164.371 197.588 167.061C192.63 169.824 186.974 172.779 181.822 175.188C181.523 175.329 181.26 174.895 181.558 174.755C186.218 172.579 191.402 169.884 195.91 167.415C200.417 164.945 204.598 162.442 208.98 160.013C217.454 155.32 226.441 151.102 236.232 149.847C240.829 149.26 245.516 149.367 250.037 150.395C253.636 151.216 257.09 152.571 260.356 154.232C267.165 157.697 273.184 162.389 279.362 166.774C286.199 171.626 293.459 176.332 301.884 178.114C302.21 178.18 302.071 178.668 301.745 178.594L301.738 178.601Z" fill="#303856" stroke="black" stroke-width="0.5"/>
<path d="M299.797 182.799C285.901 179.048 275.673 168.369 263.656 161.294C257.103 157.43 249.927 154.726 242.153 154.646C232.862 154.553 223.896 157.663 215.727 161.688C206.498 166.233 197.921 171.906 188.761 176.559C188.462 176.705 188.199 176.278 188.497 176.125C204.515 167.989 219.701 155.781 238.409 154.279C246.3 153.645 253.817 155.507 260.737 159.091C267.179 162.429 272.92 166.847 278.78 171.025C285.263 175.651 292.072 180.189 299.936 182.312C300.255 182.399 300.123 182.879 299.797 182.792V182.799Z" fill="#303856" stroke="black" stroke-width="0.5"/>
<path d="M297.655 186.59C284.785 182.298 275.098 172.467 263.677 165.732C257.589 162.142 250.919 159.485 243.714 159.125C234.998 158.691 226.413 161.207 218.605 164.751C214.244 166.734 210.049 169.043 205.895 171.406C203.766 172.614 201.651 173.842 199.523 175.05C197.394 176.258 195.494 177.459 193.428 178.574C193.136 178.734 192.873 178.3 193.164 178.14C195.043 177.126 196.846 175.978 198.704 174.93C200.563 173.882 202.4 172.821 204.245 171.766C208.024 169.604 211.817 167.461 215.742 165.546C223.328 161.835 231.538 158.951 240.115 158.604C247.438 158.31 254.4 160.233 260.8 163.557C267.2 166.88 272.359 170.858 277.892 174.83C284.057 179.255 290.443 183.66 297.78 186.103C298.092 186.21 297.96 186.69 297.641 186.583L297.655 186.59Z" fill="#303856" stroke="black" stroke-width="0.5"/>
<path d="M295.179 190.341C283.342 185.556 274.182 176.498 263.31 170.171C257.603 166.854 251.362 164.337 244.657 163.837C236.62 163.236 228.59 165.218 221.254 168.262C212.989 171.686 205.437 176.445 197.664 180.763C197.373 180.923 197.109 180.49 197.401 180.329C211.026 172.761 224.867 163.45 241.224 163.229C248.034 163.136 254.51 164.985 260.488 168.042C266.465 171.099 271.464 174.836 276.672 178.594C282.538 182.826 288.515 187.104 295.318 189.854C295.623 189.974 295.491 190.461 295.179 190.334V190.341Z" fill="#303856" stroke="black" stroke-width="0.5"/>
<path d="M292.71 193.932C281.872 188.84 273.198 180.497 262.886 174.59C257.623 171.573 251.882 169.243 245.745 168.596C238.444 167.828 231.079 169.283 224.256 171.753C216.317 174.63 209.05 178.921 201.79 183.086C201.498 183.253 201.242 182.819 201.526 182.652C214.119 175.437 227.578 167.515 242.784 167.902C255.585 168.229 266.014 175.564 275.853 182.666C281.317 186.61 286.816 190.608 292.981 193.498C293.279 193.639 293.015 194.072 292.717 193.932H292.71Z" fill="#303856" stroke="black" stroke-width="0.5"/>
<path d="M290.311 197.169C280.409 191.923 272.192 184.261 262.457 178.774C257.61 176.044 252.354 173.902 246.758 173.148C239.983 172.233 233.077 173.308 226.635 175.37C219.167 177.76 212.281 181.517 205.541 185.362C205.25 185.529 204.994 185.095 205.278 184.928C216.934 178.287 229.728 171.673 243.714 172.367C255.564 172.961 265.404 179.575 274.585 186.189C279.757 189.914 284.896 193.732 290.568 196.735C290.859 196.889 290.596 197.322 290.304 197.169H290.311Z" fill="#303856" stroke="black" stroke-width="0.5"/>
<path d="M287.836 200.453C278.849 195.194 271.09 188.206 261.965 183.16C257.437 180.657 252.562 178.694 247.382 177.9C241.211 176.952 234.873 177.693 228.903 179.355C222.031 181.264 215.638 184.415 209.452 187.818C209.161 187.979 208.898 187.545 209.189 187.385C219.895 181.484 231.836 176.178 244.491 177.073C255.398 177.84 264.634 183.734 273.177 189.834C278.073 193.332 282.878 196.962 288.093 200.019C288.377 200.186 288.12 200.62 287.829 200.453H287.836Z" fill="#303856" stroke="black" stroke-width="0.5"/>
<path d="M285.263 203.55C277.192 198.417 269.925 192.13 261.472 187.558C257.27 185.282 252.763 183.486 247.999 182.665C242.473 181.718 236.78 182.145 231.344 183.4C225.11 184.841 219.237 187.364 213.599 190.268C213.301 190.421 213.044 189.987 213.336 189.834C223.127 184.788 234.117 180.737 245.427 181.824C255.35 182.779 263.906 187.965 271.77 193.511C276.339 196.735 280.791 200.119 285.52 203.123C285.797 203.296 285.541 203.73 285.257 203.557L285.263 203.55Z" fill="#303856" stroke="black" stroke-width="0.5"/>
<path d="M282.732 206.319C275.541 201.467 268.829 195.9 261.125 191.789C257.27 189.733 253.158 188.085 248.831 187.237C243.991 186.289 238.978 186.409 234.131 187.257C228.521 188.238 223.154 190.16 218.023 192.523C217.725 192.663 217.461 192.229 217.759 192.089C226.67 187.985 236.627 185.101 246.591 186.376C255.557 187.524 263.4 192.109 270.604 197.115C274.765 200.005 278.794 203.062 282.996 205.892C283.266 206.072 283.01 206.513 282.732 206.326V206.319Z" fill="#303856" stroke="black" stroke-width="0.5"/>
<path d="M280.097 209.163C273.683 204.651 267.491 199.739 260.466 196.108C257.062 194.346 253.47 192.917 249.698 192.083C245.475 191.149 241.092 191.029 236.8 191.529C231.884 192.103 227.099 193.465 222.523 195.254C222.211 195.374 222.079 194.893 222.384 194.773C230.4 191.649 239.206 189.814 247.839 191.215C255.758 192.504 262.81 196.462 269.287 200.86C273.038 203.41 276.665 206.126 280.367 208.736C280.638 208.923 280.374 209.357 280.104 209.17L280.097 209.163Z" fill="#303856" stroke="black" stroke-width="0.5"/>
<path d="M277.351 211.873C271.963 208.002 266.624 203.997 260.702 200.893C254.78 197.79 247.812 195.727 240.732 195.907C236.412 196.014 232.147 196.815 228.021 198.017C227.702 198.11 227.564 197.629 227.883 197.536C234.99 195.467 242.562 194.646 249.864 196.268C256.458 197.736 262.429 200.987 267.962 204.644C271.249 206.814 274.418 209.143 277.608 211.439C277.871 211.632 277.608 212.066 277.344 211.873H277.351Z" fill="#303856" stroke="black" stroke-width="0.5"/>
<path d="M274.661 214.363C265.847 208.016 256.41 201.448 245.093 200.467C241.564 200.16 238.014 200.373 234.526 200.941C234.2 200.994 234.061 200.514 234.387 200.46C240.316 199.492 246.362 199.612 252.146 201.281C257.485 202.816 262.387 205.466 266.992 208.436C269.696 210.185 272.317 212.054 274.924 213.929C275.188 214.123 274.924 214.557 274.661 214.363Z" fill="#303856" stroke="black" stroke-width="0.5"/>
<path d="M265.834 212.954C259.115 208.729 251.799 205.459 243.679 205.025C243.346 205.005 243.346 204.504 243.679 204.525C251.896 204.965 259.295 208.242 266.097 212.521C266.375 212.694 266.118 213.128 265.834 212.954Z" fill="#303856" stroke="black" stroke-width="0.5"/>
<path d="M204.386 200.815L204.95 200.705C209.316 199.856 213.592 198.592 217.719 196.932L222.518 195" stroke="black" stroke-linecap="round"/>
<path d="M130.758 233.552C120.816 232.027 112.006 227.097 103.893 221.569C95.4322 215.805 87.4852 209.274 78.4924 204.252C74.1007 201.8 69.4562 199.727 64.5503 198.446C58.2588 196.802 51.6886 196.609 45.2578 197.527C31.6206 199.465 19.3689 205.946 7.66614 212.645C1.68843 216.066 -4.25443 219.538 -10.3716 222.723C-16.4887 225.909 -22.9021 228.976 -29.3329 231.774C-30.9101 232.456 -34.3868 233.941 -35.9727 234.599C-36.3562 234.759 -36.3039 235.126 -36.3039 234.051C-23.2505 228.641 -8.85536 221.426 3.33534 214.398C14.9945 207.681 26.8628 200.78 40.2211 197.805C46.6084 196.381 53.2484 195.884 59.7489 196.828C64.8378 197.569 69.735 199.213 74.3446 201.395C83.7382 205.836 91.8944 212.291 100.268 218.257C108.642 224.223 117.165 229.794 127.168 232.204C128.414 232.499 129.669 232.743 130.932 232.937C131.351 233.004 131.168 233.611 130.758 233.544V233.552Z" fill="#303856" stroke="black" stroke-width="0.5"/>
<path d="M126.263 237.462C108.093 233.611 94.948 219.517 79.5529 210.512C70.9249 205.464 61.5103 202.223 51.292 202.589C39.0013 203.037 27.4635 207.808 16.8392 213.459C10.8758 216.626 5.0984 220.103 -0.788948 223.384C-6.83701 226.755 -13.7367 230.36 -20.0216 233.299C-20.3853 233.47 -20.7067 232.941 -20.343 232.77C-14.6587 230.115 -8.33421 226.828 -2.83598 223.816C2.66225 220.803 7.76291 217.75 13.1089 214.786C23.4456 209.062 34.4082 203.917 46.3521 202.386C51.9603 201.669 57.6784 201.8 63.1936 203.053C67.5837 204.055 71.7962 205.708 75.7803 207.735C84.0869 211.961 91.4291 217.685 98.9659 223.034C107.306 228.953 116.163 234.693 126.44 236.867C126.838 236.949 126.669 237.543 126.271 237.454L126.263 237.462Z" fill="#303856" stroke="black" stroke-width="0.5"/>
<path d="M123.894 242.583C106.942 238.008 94.4656 224.98 79.8064 216.35C71.8128 211.635 63.0579 208.338 53.5756 208.24C42.2408 208.126 31.3035 211.92 21.339 216.83C10.0803 222.375 -0.383217 229.296 -11.5573 234.971C-11.9211 235.15 -12.2425 234.629 -11.8787 234.441C7.66113 224.516 26.1859 209.624 49.0078 207.792C58.634 207.019 67.8033 209.291 76.2452 213.663C84.1035 217.734 91.1074 223.124 98.2551 228.221C106.164 233.863 114.471 239.4 124.063 241.989C124.452 242.095 124.291 242.681 123.894 242.575V242.583Z" fill="#303856" stroke="black" stroke-width="0.5"/>
<path d="M121.28 247.208C105.581 241.972 93.7638 229.979 79.8321 221.764C72.4052 217.383 64.2679 214.143 55.4791 213.703C44.8464 213.174 34.3744 216.244 24.8497 220.567C19.5291 222.985 14.4116 225.802 9.34473 228.685C6.74786 230.158 4.16792 231.656 1.57107 233.13C-1.02579 234.604 -3.34351 236.069 -5.86423 237.429C-6.21951 237.625 -6.54094 237.095 -6.18568 236.9C-3.89333 235.662 -1.69403 234.262 0.572929 232.984C2.8399 231.705 5.08147 230.411 7.33152 229.124C11.9416 226.486 16.5686 223.873 21.3562 221.536C30.6102 217.009 40.6254 213.492 51.089 213.068C60.0215 212.71 68.5142 215.055 76.3217 219.11C84.1292 223.164 90.4225 228.017 97.1727 232.861C104.693 238.26 112.483 243.633 121.433 246.613C121.813 246.744 121.653 247.33 121.263 247.2L121.28 247.208Z" fill="#303856" stroke="black" stroke-width="0.5"/>
<path d="M118.26 251.783C103.821 245.945 92.6469 234.897 79.3834 227.178C72.4218 223.131 64.8089 220.062 56.6292 219.451C46.8254 218.718 37.0301 221.137 28.0807 224.849C17.9978 229.026 8.78613 234.831 -0.696213 240.099C-1.05148 240.295 -1.37292 239.765 -1.01765 239.57C15.6039 230.337 32.4877 218.979 52.4421 218.71C60.7487 218.596 68.6492 220.852 75.9407 224.581C83.2322 228.31 89.331 232.869 95.6836 237.453C102.84 242.615 110.131 247.834 118.429 251.189C118.802 251.335 118.641 251.93 118.26 251.775V251.783Z" fill="#303856" stroke="black" stroke-width="0.5"/>
<path d="M115.249 256.164C102.028 249.952 91.4456 239.774 78.8674 232.569C72.4471 228.888 65.4432 226.047 57.9571 225.257C49.05 224.321 40.0667 226.096 31.7433 229.108C22.0579 232.617 13.1931 237.853 4.33668 242.933C3.98141 243.137 3.66843 242.608 4.01524 242.404C19.3765 233.603 35.795 223.938 54.3452 224.41C69.9602 224.809 82.6823 233.757 94.6853 242.42C101.351 247.232 108.059 252.109 115.579 255.635C115.942 255.806 115.621 256.335 115.257 256.164H115.249Z" fill="#303856" stroke="black" stroke-width="0.5"/>
<path d="M112.322 260.113C100.243 253.713 90.2193 244.366 78.3431 237.674C72.4304 234.343 66.0186 231.73 59.1924 230.81C50.9281 229.694 42.5031 231.005 34.6449 233.521C25.5347 236.436 17.1351 241.02 8.91314 245.71C8.55787 245.913 8.24489 245.384 8.5917 245.181C22.811 237.079 38.4175 229.01 55.4789 229.857C69.9351 230.582 81.9381 238.651 93.1376 246.719C99.4479 251.263 105.716 255.92 112.635 259.584C112.99 259.771 112.669 260.3 112.314 260.113H112.322Z" fill="#303856" stroke="black" stroke-width="0.5"/>
<path d="M109.303 264.118C98.34 257.702 88.8746 249.177 77.7428 243.022C72.2192 239.969 66.2726 237.575 59.9539 236.606C52.4255 235.45 44.6942 236.354 37.4111 238.381C29.0284 240.71 21.2294 244.553 13.6841 248.705C13.3289 248.9 13.0074 248.371 13.3627 248.176C26.4231 240.978 40.9892 234.505 56.4266 235.596C69.7323 236.533 80.9994 243.722 91.4207 251.164C97.3926 255.43 103.255 259.86 109.616 263.589C109.962 263.792 109.649 264.321 109.294 264.118H109.303Z" fill="#303856" stroke="black" stroke-width="0.5"/>
<path d="M208.846 197.148C198.904 195.623 190.094 190.693 181.981 185.165C173.52 179.401 165.573 172.87 156.581 167.848C152.189 165.396 147.544 163.323 142.638 162.042C136.347 160.399 129.777 160.205 123.346 161.123C109.709 163.062 97.457 169.542 85.7543 176.241C79.7766 179.662 73.8337 183.134 67.7166 186.32C61.5994 189.505 55.1861 192.572 48.7552 195.37C47.178 196.053 43.7013 197.538 42.1154 198.195C41.732 198.355 41.7843 198.722 41.7843 197.647C54.8376 192.237 69.2328 185.022 81.4235 177.994C93.0826 171.278 104.951 164.376 118.309 161.401C124.697 159.977 131.337 159.48 137.837 160.424C142.926 161.165 147.823 162.809 152.433 164.991C161.826 169.432 169.983 175.887 178.357 181.853C186.731 187.82 195.253 193.39 205.256 195.8C206.502 196.095 207.757 196.339 209.021 196.533C209.439 196.6 209.256 197.207 208.846 197.14V197.148Z" fill="#303856" stroke="black" stroke-width="0.5"/>
<path d="M204.351 201.058C186.181 197.207 173.036 183.113 157.641 174.108C149.013 169.06 139.598 165.82 129.38 166.186C117.089 166.634 105.552 171.405 94.9272 177.056C88.9638 180.223 83.1864 183.7 77.2991 186.981C71.251 190.352 64.3513 193.956 58.0664 196.895C57.7027 197.066 57.3813 196.537 57.745 196.366C63.4293 193.712 69.7538 190.425 75.252 187.412C80.7503 184.4 85.8509 181.347 91.1969 178.383C101.534 172.659 112.496 167.513 124.44 165.983C130.048 165.266 135.766 165.396 141.282 166.65C145.672 167.652 149.884 169.304 153.868 171.332C162.175 175.558 169.517 181.281 177.054 186.631C185.394 192.55 194.251 198.29 204.528 200.464C204.926 200.545 204.757 201.14 204.359 201.05L204.351 201.058Z" fill="#303856" stroke="black" stroke-width="0.5"/>
<path d="M201.982 206.175C201.982 206.178 201.98 206.179 201.978 206.178C185.028 201.602 172.552 188.576 157.894 179.946C149.901 175.232 141.146 171.934 131.664 171.836C120.329 171.722 109.392 175.517 99.427 180.426C88.1684 185.971 77.7048 192.892 66.5307 198.567C66.167 198.746 65.8456 198.225 66.2093 198.037C85.7492 188.112 104.274 173.221 127.096 171.389C136.722 170.615 145.891 172.887 154.333 177.259C162.192 181.33 169.195 186.72 176.343 191.817C184.252 197.459 192.559 202.996 202.151 205.585C202.539 205.691 202.38 206.273 201.986 206.172C201.984 206.172 201.982 206.173 201.982 206.175Z" fill="#303856" stroke="black" stroke-width="0.5"/>
<path d="M199.368 210.804C183.669 205.569 171.852 193.575 157.92 185.36C150.493 180.98 142.356 177.739 133.567 177.299C122.934 176.77 112.462 179.84 102.938 184.163C97.6172 186.581 92.4996 189.398 87.4327 192.281C84.8359 193.754 82.2559 195.253 79.6591 196.726C77.0622 198.2 74.7445 199.666 72.2238 201.025C71.8685 201.221 71.5471 200.691 71.9023 200.496C74.1947 199.258 76.394 197.858 78.6609 196.58C80.9279 195.301 83.1695 194.007 85.4195 192.72C90.0296 190.082 94.6566 187.469 99.4443 185.132C108.698 180.605 118.713 177.088 129.177 176.664C138.11 176.306 146.602 178.651 154.41 182.706C162.217 186.76 168.511 191.613 175.261 196.458C182.781 201.856 190.571 207.23 199.521 210.209C199.901 210.34 199.741 210.926 199.351 210.796L199.368 210.804Z" fill="#303856" stroke="black" stroke-width="0.5"/>
<path d="M196.348 215.38C181.909 209.542 170.735 198.494 157.471 190.775C150.51 186.728 142.897 183.659 134.717 183.048C124.913 182.315 115.118 184.734 106.169 188.446C96.0858 192.623 86.8741 198.429 77.3918 203.696C77.0365 203.892 76.7151 203.363 77.0704 203.167C93.6919 193.934 110.576 182.576 130.53 182.307C138.837 182.193 146.737 184.449 154.029 188.178C161.32 191.907 167.419 196.466 173.772 201.05C180.928 206.212 188.219 211.431 196.517 214.786C196.89 214.932 196.729 215.527 196.348 215.372V215.38Z" fill="#303856" stroke="black" stroke-width="0.5"/>
<path d="M193.337 219.761C180.116 213.548 169.534 203.371 156.955 196.165C150.535 192.485 143.531 189.643 136.045 188.854C127.138 187.917 118.155 189.692 109.831 192.705C100.146 196.214 91.2811 201.449 82.4247 206.53C82.0694 206.734 81.7564 206.204 82.1033 206.001C97.4645 197.199 113.883 187.535 132.433 188.007C148.048 188.406 160.77 197.354 172.773 206.017C179.439 210.829 186.147 215.706 193.667 219.232C194.03 219.403 193.709 219.932 193.345 219.761H193.337Z" fill="#303856" stroke="black" stroke-width="0.5"/>
<path d="M190.41 223.71C178.331 217.31 168.307 207.963 156.431 201.27C150.518 197.94 144.106 195.327 137.28 194.406C129.016 193.291 120.591 194.602 112.733 197.118C103.622 200.033 95.2229 204.617 87.0009 209.306C86.6456 209.51 86.3327 208.981 86.6795 208.777C100.899 200.676 116.505 192.607 133.567 193.454C148.023 194.179 160.026 202.247 171.225 210.316C177.536 214.859 183.804 219.517 190.723 223.18C191.078 223.368 190.757 223.897 190.402 223.71H190.41Z" fill="#303856" stroke="black" stroke-width="0.5"/>
<path d="M187.39 227.716C176.427 221.3 166.962 212.775 155.83 206.62C150.307 203.566 144.36 201.172 138.041 200.204C130.513 199.047 122.782 199.951 115.499 201.979C107.116 204.307 99.3168 208.15 91.7715 212.303C91.4163 212.498 91.0948 211.969 91.4501 211.773C104.511 204.576 119.077 198.103 134.514 199.194C147.82 200.13 159.087 207.32 169.508 214.762C175.48 219.028 181.342 223.457 187.703 227.186C188.05 227.39 187.737 227.919 187.382 227.716H187.39Z" fill="#303856" stroke="black" stroke-width="0.5"/>
<path d="M184.252 231.492C174.406 225.231 165.542 217.561 155.23 211.984C150.104 209.208 144.606 207.017 138.795 206.016C132.053 204.86 125.108 205.381 118.477 206.912C110.872 208.67 103.708 211.748 96.8306 215.29C96.4669 215.477 96.1539 214.948 96.5091 214.761C108.453 208.605 121.86 203.663 135.657 204.99C147.761 206.154 158.199 212.481 167.792 219.247C173.366 223.179 178.797 227.307 184.565 230.971C184.904 231.183 184.591 231.712 184.244 231.501L184.252 231.492Z" fill="#303856" stroke="black" stroke-width="0.5"/>
<path d="M181.165 234.871C172.393 228.952 164.205 222.162 154.807 217.146C150.104 214.638 145.088 212.627 139.809 211.593C133.905 210.437 127.789 210.584 121.877 211.618C115.033 212.815 108.486 215.16 102.227 218.042C101.863 218.213 101.542 217.684 101.905 217.513C112.775 212.505 124.922 208.988 137.077 210.543C148.014 211.943 157.581 217.537 166.37 223.644C171.445 227.169 176.36 230.898 181.486 234.35C181.816 234.57 181.503 235.108 181.165 234.88V234.871Z" fill="#303856" stroke="black" stroke-width="0.5"/>
<path d="M177.95 238.34C170.126 232.836 162.572 226.844 154.003 222.414C149.85 220.265 145.468 218.523 140.867 217.505C135.715 216.365 130.369 216.218 125.133 216.829C119.136 217.529 113.299 219.19 107.717 221.372C107.336 221.519 107.175 220.933 107.548 220.786C117.326 216.976 128.069 214.737 138.6 216.446C148.26 218.018 156.862 222.846 164.763 228.212C169.339 231.322 173.763 234.636 178.28 237.819C178.61 238.047 178.289 238.576 177.959 238.348L177.95 238.34Z" fill="#303856" stroke="black" stroke-width="0.5"/>
<path d="M174.6 241.645C168.028 236.922 161.514 232.037 154.291 228.251C147.067 224.465 138.566 221.949 129.929 222.169C124.659 222.299 119.457 223.276 114.424 224.742C114.035 224.856 113.866 224.27 114.255 224.156C122.925 221.632 132.162 220.63 141.069 222.609C149.114 224.4 156.397 228.365 163.147 232.827C167.157 235.473 171.022 238.315 174.913 241.116C175.235 241.352 174.913 241.881 174.592 241.645H174.6Z" fill="#303856" stroke="black" stroke-width="0.5"/>
<path d="M171.318 244.683C160.567 236.94 149.055 228.929 135.25 227.732C130.945 227.357 126.614 227.618 122.359 228.31C121.961 228.375 121.792 227.789 122.19 227.724C129.422 226.543 136.798 226.69 143.853 228.725C150.366 230.598 156.346 233.83 161.963 237.453C165.262 239.587 168.459 241.866 171.64 244.154C171.961 244.39 171.64 244.92 171.318 244.683Z" fill="#303856" stroke="black" stroke-width="0.5"/>
<path d="M157.917 243.244C149.72 238.09 140.796 234.1 130.891 233.571C130.485 233.546 130.485 232.936 130.891 232.96C140.915 233.498 149.94 237.495 158.238 242.714C158.577 242.926 158.264 243.455 157.917 243.244Z" fill="#303856" stroke="black" stroke-width="0.5"/>
<path d="M174.067 178.785L182.696 174.471" stroke="black" stroke-linecap="round"/>
<path d="M178.381 181.771L188.904 176.214" stroke="black" stroke-linecap="round"/>
<path d="M182 184.311L193.981 177.983" stroke="black" stroke-linecap="round"/>
<path d="M185.636 186.822L198.084 180.248" stroke="black" stroke-linecap="round"/>
<path d="M189.447 189.323L201.895 182.749" stroke="black" stroke-linecap="round"/>
<path d="M193.1 191.649L205.549 185.075" stroke="black" stroke-linecap="round"/>
<path d="M197.782 193.722L209.46 187.554" stroke="black" stroke-linecap="round"/>
<path d="M203.22 195.479L214.904 189.321" stroke="black" stroke-linecap="round"/>
<path d="M209.258 196.923L220.348 191.079" stroke="black" stroke-linecap="round"/>
<path d="M200.599 157.278L216.174 147.905C222.863 143.88 230.467 141.623 238.269 141.348L255.443 140.741" stroke="black" stroke-linecap="round"/>
<path d="M196.617 204.044L200.361 205.615C201.497 206.092 202.806 206.009 203.88 205.407C206.87 203.731 210.155 202.522 213.52 201.875L215.081 201.575L228.823 197.529" stroke="black" stroke-linecap="round"/>
<path d="M125.041 236.838L149.493 243.651" stroke="black" stroke-linecap="round"/>
</g>
<mask id="path-61-inside-1_388_1183" fill="white">
<path d="M5.68103 222.574H255.341V264.729H5.68103V222.574Z"/>
</mask>
<path d="M5.68103 222.574H255.341V264.729H5.68103V222.574Z" fill="#FFCC00"/>
<path d="M5.68103 223.574H255.341V221.574H5.68103V223.574ZM255.341 263.729H5.68103V265.729H255.341V263.729Z" fill="black" mask="url(#path-61-inside-1_388_1183)"/>
<path d="M5.21355 155.806L14.9108 146.109L25.0242 154.608M4.7738 168.47L14.9108 158.333L25.4864 167.356M14.9145 146.154V208.675M5.21357 132.3L15.11 122.597L25.6856 132.419M5.21357 144.156L14.9107 134.459L25.4863 143.482M14.9143 123.571V165.348M24.2052 154.71L35.6744 146.212L46.6269 154.71M24.5832 167.459L35.6744 158.435L46.6269 167.213M35.678 146.257V199.28M25.1518 143.136L35.8956 134.727L46.6696 143.633M35.6778 135.372V165.037M99.061 135.159V145.895M99.061 135.159L110.152 144.182M99.061 135.159L88.9476 143.063M99.061 145.895V158.119M99.061 145.895L110.589 155.116M99.061 145.895L88.9476 154.394M99.061 158.119V168.862M99.061 158.119L108.152 165.142M99.061 158.119L88.4854 167.142M99.061 101.607V112.344M99.061 101.607L110.152 110.63M99.061 101.607L88.9476 109.512M99.061 112.344V123.277M99.061 112.344L110.589 121.564M99.061 112.344L88.9476 120.842M99.061 123.277V154.055M99.061 123.277L110.152 132.3M99.061 123.277L88.4854 132.3M89.8259 154.394L77.6442 145.896L67.5308 154.394M89.4252 167.142L77.6442 158.119L67.0686 167.142M77.6405 145.94V180.221M89.2261 132.205L77.445 122.383L66.8694 132.205M89.4253 143.269L77.6443 134.246L67.0687 143.269M77.6407 123.357V165.135M68.3498 154.497L56.8806 145.998L46.0514 154.985M67.9718 167.245L56.8806 158.222L46.0514 167.245M56.877 146.043V190.82M67.4032 142.922L56.6593 134.514L46.0837 143.537M56.8772 135.159V164.824" stroke="black"/>
<path d="M162.506 124.9V167.459M162.506 124.9L173.375 133.207M162.506 124.9L152.595 132.177M173.803 143.272L162.506 134.784L152.595 142.608M173.375 154.344L162.506 146.037L152.142 154.344" stroke="black"/>
<path d="M162.506 94.0122V142.296M162.506 94.0122L173.375 102.319M162.506 94.0122L152.595 101.289M173.803 112.384L162.506 103.896L152.595 111.72M173.375 122.268L162.506 113.961L152.142 122.268" stroke="black"/>
<path d="M153.455 142.608L141.518 134.784L131.607 142.608M153.063 154.344L141.518 146.037L131.154 154.344" stroke="black"/>
<path d="M141.514 134.826V162.055" stroke="black"/>
<path d="M152.867 122.181L141.322 113.139L130.959 122.181M153.063 132.366L141.518 124.059L131.154 132.366" stroke="black"/>
<path d="M153.063 132.366L141.518 124.06L131.154 132.366" stroke="black"/>
<path d="M141.514 114.036V152.496" stroke="black"/>
<path d="M132.211 142.455L121.17 134.879L109.604 144.104M131.544 154.071L121.17 146.132L109.89 155.068" stroke="black"/>
<path d="M121.166 134.92L121.166 161.358" stroke="black"/>
<path d="M131.659 132.013L120.953 124.306L109.605 132.446" stroke="black"/>
<path d="M121.167 124.9V152.21" stroke="black"/>
<path d="M184.418 124.9V162.879M184.418 124.9L172.847 133.099M184.418 124.9L194.328 132.177M173.158 143.06L184.418 134.784L193.97 142.349M172.847 154.344L184.418 146.037L194.328 154.134" stroke="black"/>
<path d="M184.417 94.0122V142.296M184.417 94.0122L172.891 102.37M184.417 94.0122L194.328 101.289M173.202 112.153L184.417 103.896L194.328 111.72M172.891 122.268L184.417 113.961L194.781 122.268" stroke="black"/>
<path d="M193.468 142.608L205.405 134.784L215.316 142.608M193.86 154.344L205.405 146.037L210.88 151.512" stroke="black"/>
<path d="M194.056 122.181L205.601 113.139L215.964 122.181M193.86 132.366L205.405 124.059L215.769 132.366" stroke="black"/>
<path d="M193.86 132.366L205.405 124.06L215.769 132.366" stroke="black"/>
<path d="M205.409 113.348V154.421" stroke="black"/>
<mask id="mask1_388_1183" style="mask-type:alpha" maskUnits="userSpaceOnUse" x="4" y="4" width="253" height="283">
<path d="M130.511 5.15527C199.729 5.15534 255.841 61.2675 255.841 130.485V285.947H5.18103V130.485C5.18103 61.2675 61.2933 5.15527 130.511 5.15527Z" fill="#D9D9D9" stroke="black"/>
</mask>
<g mask="url(#mask1_388_1183)">
<path d="M246.863 114.608V141.513M246.863 114.608L258.434 122.807M246.863 114.608L236.952 121.885M258.122 132.768L246.863 124.492L237.31 132.057" stroke="black"/>
<path d="M246.863 83.7202V132.004M246.863 83.7202L258.389 92.0777M246.863 83.7202L236.952 90.9973M258.078 101.861L246.863 93.6045L230.89 106.457M258.389 111.976L246.863 103.67L236.499 111.976" stroke="black"/>
<path d="M237.813 132.317L225.875 124.493L214.872 132.317M238.606 141.449L225.875 135.746L214.872 142.27" stroke="black"/>
<path d="M237.225 111.889L225.68 102.847L209.058 115.734M237.42 122.074L225.875 113.768L215.511 122.074" stroke="black"/>
<path d="M237.42 122.075L225.875 113.768L215.245 122.075" stroke="black"/>
<path d="M225.872 103.136V144.13" stroke="black"/>
</g>
<circle cx="25.318" cy="95.5122" r="1.5" fill="#D40511"/>
<circle cx="51.0966" cy="123.592" r="1.5" transform="rotate(-16.247 51.0966 123.592)" fill="#D40511"/>
<circle cx="220.339" cy="96.8909" r="1.5" transform="rotate(-135.335 220.339 96.8909)" fill="#D40511"/>
<circle cx="54.1816" cy="53.8999" r="1.5" fill="#D40511"/>
<circle cx="61.7152" cy="80.4312" r="1.5" fill="#D40511"/>
<circle cx="81.8208" cy="98.9311" r="1.5" transform="rotate(-16.247 81.8208 98.9311)" fill="#D40511"/>
<circle cx="183.851" cy="82.0315" r="1.5" transform="rotate(-135.335 183.851 82.0315)" fill="#D40511"/>
<circle cx="183.824" cy="57.5213" r="1.5" transform="rotate(-135.335 183.824 57.5213)" fill="#D40511"/>
<circle cx="222.448" cy="61.764" r="1.5" transform="rotate(-135.335 222.448 61.764)" fill="#D40511"/>
<circle cx="199.558" cy="41.9554" r="1.5" transform="rotate(-135.335 199.558 41.9554)" fill="#D40511"/>
<circle cx="47.1155" cy="71.4485" r="1.5" transform="rotate(-135.335 47.1155 71.4485)" fill="#D40511"/>
<path fill-rule="evenodd" clip-rule="evenodd" d="M124.194 59.1792C132.763 48.0169 130.74 32.4503 119.363 23.823L102.063 44.071L102.034 44.049C92.4414 55.2714 94.2022 71.5957 105.967 80.5145C117.732 89.4333 135.04 87.5665 144.632 76.3441C154.224 65.1217 152.464 48.7974 140.699 39.8785L124.202 59.1847L124.194 59.1792Z" fill="url(#paint0_radial_388_1183)"/>
<mask id="mask2_388_1183" style="mask-type:alpha" maskUnits="userSpaceOnUse" x="5" y="5" width="251" height="281">
<path d="M5.68103 130.485C5.68103 61.5436 61.5693 5.65527 130.511 5.65527C199.453 5.65527 255.341 61.5436 255.341 130.485V285.448H5.68103V130.485Z" fill="#D9D9D9"/>
</mask>
<g mask="url(#mask2_388_1183)">
<path d="M245.293 82.1875L166.848 65.0128M179.708 93.0555L162.559 82.1861M209.151 111.314L198.027 104.301M153.766 97.7431L149.311 90.9103M136.365 110.991L133.535 98.5965M117.144 97.7431L114.522 118.971M100.849 92.4704L94.6204 100.127M87.835 79.4013L52.7557 102.501M81.3724 65.0233L52.8449 70.3847M42.5226 72.6257L23.1606 76.0161M82.4499 46.8823C66.5791 43.7755 45.1849 38.59 45.2613 38.2192M89.9117 32.3512L73.1775 18.9152M102.606 19.9847L94.6204 8.96895M117.695 14.0557L117.144 4.822M133.881 13.0144L136.365 4.82198M151.391 18.9152L161.208 8.96892M161.208 31.0844L186.263 17.3528M167.778 48.8332L194.334 43.1426M206.05 40.6878L216.539 38.5674M45.2613 107.316L21.8611 121.94" stroke="#F5CB00" stroke-width="2" stroke-linecap="round"/>
</g>
<path fill-rule="evenodd" clip-rule="evenodd" d="M74.2671 233.081C79.538 231.662 85.0906 231.662 90.3616 233.081L92.0024 233.523C96.995 234.867 102.265 234.782 107.211 233.276C112.259 231.74 117.65 231.74 122.698 233.276L130.13 235.538L130.276 235.06L130.416 235.54L139.097 233.008C143.764 231.647 148.73 231.707 153.363 233.181C158.281 234.746 163.558 234.779 168.496 233.276L169.129 233.084C173.749 231.677 178.693 231.742 183.276 233.27C187.8 234.778 192.668 234.921 197.272 233.681L199.5 233.081C204.771 231.662 210.323 231.662 215.594 233.081L217.235 233.523C222.227 234.867 227.497 234.782 232.444 233.276C237.492 231.74 242.883 231.74 247.931 233.276L255.363 235.538L255.654 234.582L248.222 232.32C242.984 230.726 237.39 230.726 232.152 232.32C227.385 233.771 222.307 233.853 217.495 232.558L215.854 232.116C210.413 230.651 204.681 230.651 199.24 232.116L197.012 232.715C192.597 233.904 187.93 233.767 183.592 232.321C178.813 230.728 173.657 230.66 168.837 232.127L168.204 232.32C163.461 233.763 158.391 233.731 153.666 232.228C148.844 230.694 143.675 230.631 138.817 232.048L130.279 234.538L122.989 232.32C117.752 230.726 112.158 230.726 106.92 232.32C102.153 233.771 97.074 233.853 92.2624 232.558L90.6216 232.116C85.1803 230.651 79.4483 230.651 74.0071 232.116L71.7799 232.715C67.3647 233.904 62.6972 233.767 58.3593 232.321C53.5803 230.728 48.4242 230.66 43.605 232.127L42.972 232.32C38.2286 233.763 33.1584 233.731 28.4335 232.228C23.6118 230.694 18.4424 230.631 13.5849 232.048L4.9032 234.58L5.18321 235.54L13.8649 233.008C18.5316 231.647 23.498 231.707 28.1303 233.181C33.0483 234.746 38.3258 234.779 43.2632 233.276L43.8961 233.084C48.517 231.677 53.4608 231.742 58.0431 233.27C62.5672 234.778 67.4351 234.921 72.0399 233.681L74.2671 233.081Z" fill="black"/>
<path fill-rule="evenodd" clip-rule="evenodd" d="M74.2671 244.081C79.538 242.662 85.0906 242.662 90.3616 244.081L92.0024 244.523C96.995 245.867 102.265 245.782 107.211 244.276C112.259 242.74 117.65 242.74 122.698 244.276L130.13 246.538L130.276 246.06L130.416 246.54L139.097 244.008C143.764 242.647 148.73 242.707 153.363 244.181C158.281 245.746 163.558 245.779 168.496 244.276L169.129 244.084C173.749 242.677 178.693 242.742 183.276 244.27C187.8 245.778 192.668 245.921 197.272 244.681L199.5 244.081C204.771 242.662 210.323 242.662 215.594 244.081L217.235 244.523C222.227 245.867 227.497 245.782 232.444 244.276C237.492 242.74 242.883 242.74 247.931 244.276L255.363 246.538L255.654 245.582L248.222 243.32C242.984 241.726 237.39 241.726 232.152 243.32C227.385 244.771 222.307 244.853 217.495 243.558L215.854 243.116C210.413 241.651 204.681 241.651 199.24 243.116L197.012 243.715C192.597 244.904 187.93 244.767 183.592 243.321C178.813 241.728 173.657 241.66 168.837 243.127L168.204 243.32C163.461 244.763 158.391 244.731 153.666 243.228C148.844 241.694 143.675 241.631 138.817 243.048L130.279 245.538L122.989 243.32C117.752 241.726 112.158 241.726 106.92 243.32C102.153 244.771 97.074 244.853 92.2624 243.558L90.6216 243.116C85.1803 241.651 79.4483 241.651 74.0071 243.116L71.7799 243.715C67.3647 244.904 62.6972 244.767 58.3593 243.321C53.5803 241.728 48.4242 241.66 43.605 243.127L42.972 243.32C38.2286 244.763 33.1584 244.731 28.4335 243.228C23.6118 241.694 18.4424 241.631 13.5849 243.048L4.9032 245.58L5.18321 246.54L13.8649 244.008C18.5316 242.647 23.498 242.707 28.1303 244.181C33.0483 245.746 38.3258 245.779 43.2632 244.276L43.8961 244.084C48.517 242.677 53.4608 242.742 58.0431 244.27C62.5672 245.778 67.4351 245.921 72.0399 244.681L74.2671 244.081Z" fill="black"/>
<path fill-rule="evenodd" clip-rule="evenodd" d="M74.2671 255.081C79.538 253.662 85.0906 253.662 90.3616 255.081L92.0024 255.523C96.995 256.867 102.265 256.782 107.211 255.276C112.259 253.74 117.65 253.74 122.698 255.276L130.13 257.538L130.276 257.06L130.416 257.54L139.097 255.008C143.764 253.647 148.73 253.707 153.363 255.181C158.281 256.746 163.558 256.779 168.496 255.276L169.129 255.084C173.749 253.677 178.693 253.742 183.276 255.27C187.8 256.778 192.668 256.921 197.272 255.681L199.5 255.081C204.771 253.662 210.323 253.662 215.594 255.081L217.235 255.523C222.227 256.867 227.497 256.782 232.444 255.276C237.492 253.74 242.883 253.74 247.931 255.276L255.363 257.538L255.654 256.582L248.222 254.32C242.984 252.726 237.39 252.726 232.152 254.32C227.385 255.771 222.307 255.853 217.495 254.558L215.854 254.116C210.413 252.651 204.681 252.651 199.24 254.116L197.012 254.715C192.597 255.904 187.93 255.767 183.592 254.321C178.813 252.728 173.657 252.66 168.837 254.127L168.204 254.32C163.461 255.763 158.391 255.731 153.666 254.228C148.844 252.694 143.675 252.631 138.817 254.048L130.279 256.538L122.989 254.32C117.752 252.726 112.158 252.726 106.92 254.32C102.153 255.771 97.074 255.853 92.2624 254.558L90.6216 254.116C85.1803 252.651 79.4483 252.651 74.0071 254.116L71.7799 254.715C67.3647 255.904 62.6972 255.767 58.3593 254.321C53.5803 252.728 48.4242 252.66 43.605 254.127L42.972 254.32C38.2286 255.763 33.1584 255.731 28.4335 254.228C23.6118 252.694 18.4424 252.631 13.5849 254.048L4.9032 256.58L5.18321 257.54L13.8649 255.008C18.5316 253.647 23.498 253.707 28.1303 255.181C33.0483 256.746 38.3258 256.779 43.2632 255.276L43.8961 255.084C48.517 253.677 53.4608 253.742 58.0431 255.27C62.5672 256.778 67.4351 256.921 72.0399 255.681L74.2671 255.081Z" fill="black"/>
<defs>
<radialGradient id="paint0_radial_388_1183" cx="0" cy="0" r="1" gradientUnits="userSpaceOnUse" gradientTransform="translate(117.409 43.543) rotate(81.0787) scale(102.309 89.9963)">
<stop offset="0.24" stop-color="#FFCC00"/>
<stop offset="1" stop-color="#D40511"/>
</radialGradient>
</defs>
</svg>
