<svg width="538" height="316" viewBox="0 0 538 316" fill="none" xmlns="http://www.w3.org/2000/svg">
<rect width="538" height="316" rx="8" fill="#E4572E"/>
<rect x="24" y="43" width="72" height="25" rx="12.5" fill="#FFECE7"/>
<path d="M33.4911 60L34.8771 50.928H35.6891L34.3031 60H33.4911ZM32.6231 56.332H38.9931V57.536H32.6231V56.332ZM39.4551 54.568H33.0711V53.35H39.4551V54.568ZM36.4031 60L37.8031 50.928H38.6151L37.2151 60H36.4031ZM40.3113 60V59.23L42.1733 59.118H42.3693V60H40.3113ZM41.6133 60C41.6226 59.524 41.6273 59.048 41.6273 58.572C41.6366 58.096 41.6413 57.6153 41.6413 57.13C41.6413 56.6447 41.6413 56.1593 41.6413 55.674V54.974C41.6413 54.498 41.6413 54.022 41.6413 53.546C41.6413 53.0607 41.6366 52.58 41.6273 52.104C41.6273 51.6187 41.6226 51.138 41.6133 50.662H43.3213C43.3213 51.138 43.3166 51.614 43.3073 52.09C43.3073 52.566 43.3073 53.0467 43.3073 53.532C43.3073 54.008 43.3073 54.4887 43.3073 54.974V55.604C43.3073 56.108 43.3073 56.6073 43.3073 57.102C43.3073 57.5873 43.3073 58.0727 43.3073 58.558C43.3166 59.034 43.3213 59.5147 43.3213 60H41.6133ZM42.4673 60V59.174H47.3113L46.7513 59.678L47.2133 57.438H48.1233L48.0253 60H42.4673ZM42.4673 55.632V54.834H45.7993V55.632H42.4673ZM45.4773 56.85L45.2253 55.38V55.044L45.4773 53.602H46.2753V56.85H45.4773ZM40.3113 51.432V50.662H42.3693V51.544H42.1733L40.3113 51.432ZM46.9333 53.154L46.4713 50.984L47.0453 51.488H42.4673V50.662H47.7453L47.8433 53.154H46.9333ZM52.9777 60.196V57.536L53.0057 57.284V52.216H52.6277L53.2017 51.936L51.5217 54.652L49.6317 57.088L49.8137 56.444V56.864H55.9457V57.97H48.9877V57.018L53.2997 50.9H54.4897V60.196H52.9777ZM59.6289 60.182C58.8169 60.182 58.1682 60.014 57.6829 59.678C57.2069 59.3327 56.9036 58.852 56.7729 58.236C56.8289 58.0587 56.9222 57.914 57.0529 57.802C57.1929 57.69 57.3656 57.634 57.5709 57.634C57.8229 57.634 58.0189 57.7087 58.1589 57.858C58.3082 57.998 58.4249 58.2593 58.5089 58.642L58.7329 59.72L58.1029 59.216C58.3362 59.3093 58.5649 59.3747 58.7889 59.412C59.0222 59.44 59.2556 59.454 59.4889 59.454C59.9276 59.454 60.3009 59.37 60.6089 59.202C60.9169 59.034 61.1502 58.796 61.3089 58.488C61.4676 58.18 61.5469 57.8113 61.5469 57.382C61.5469 56.9433 61.4676 56.5747 61.3089 56.276C61.1596 55.9773 60.9356 55.7533 60.6369 55.604C60.3476 55.4453 59.9882 55.366 59.5589 55.366C59.2509 55.366 58.9802 55.3847 58.7469 55.422C58.5229 55.45 58.3036 55.5013 58.0889 55.576L57.5429 55.338L57.8509 50.984H62.8629V52.314H58.1029L58.6349 51.474L58.3829 55.086L58.1729 54.988C58.4156 54.8107 58.6862 54.68 58.9849 54.596C59.2929 54.5027 59.6242 54.456 59.9789 54.456C60.6322 54.456 61.1969 54.5633 61.6729 54.778C62.1489 54.9927 62.5176 55.31 62.7789 55.73C63.0402 56.15 63.1709 56.6587 63.1709 57.256C63.1709 57.8533 63.0216 58.3713 62.7229 58.81C62.4336 59.2487 62.0182 59.5893 61.4769 59.832C60.9449 60.0653 60.3289 60.182 59.6289 60.182ZM65.6361 60L65.5661 59.748L69.9341 52.062L69.8501 52.664L69.8081 52.314H64.4461V50.984H70.6621V51.81L67.2461 60H65.6361ZM72.0493 60V58.936C72.4133 58.6 72.7726 58.2687 73.1273 57.942C73.482 57.606 73.8226 57.2793 74.1493 56.962C74.644 56.4673 75.0453 56.0147 75.3533 55.604C75.6706 55.1933 75.904 54.8013 76.0533 54.428C76.2026 54.0547 76.2773 53.686 76.2773 53.322C76.2773 52.762 76.1186 52.3187 75.8013 51.992C75.4933 51.6653 75.064 51.502 74.5133 51.502C74.2706 51.502 74.0373 51.5207 73.8133 51.558C73.5986 51.586 73.3793 51.6373 73.1553 51.712L74.0093 51.236L73.7153 52.468C73.6593 52.7013 73.5846 52.8973 73.4913 53.056C73.4073 53.2147 73.3046 53.3313 73.1833 53.406C73.062 53.4807 72.9173 53.518 72.7493 53.518C72.5253 53.518 72.348 53.462 72.2173 53.35C72.0866 53.2287 71.9933 53.098 71.9373 52.958C72.0026 52.5007 72.1706 52.1133 72.4413 51.796C72.7213 51.4787 73.076 51.236 73.5053 51.068C73.944 50.8907 74.4293 50.802 74.9613 50.802C75.5773 50.802 76.1046 50.9 76.5433 51.096C76.982 51.2827 77.318 51.558 77.5513 51.922C77.7846 52.286 77.9013 52.72 77.9013 53.224C77.9013 53.6533 77.8033 54.064 77.6073 54.456C77.4206 54.848 77.1173 55.2633 76.6973 55.702C76.2773 56.1407 75.7173 56.6493 75.0173 57.228C74.8026 57.396 74.5833 57.564 74.3593 57.732C74.1353 57.9 73.902 58.068 73.6593 58.236C73.426 58.404 73.188 58.5767 72.9453 58.754L73.1413 58.306V58.67H78.1813V60H72.0493ZM79.3445 60V59.23L81.2065 59.118H81.4025V60H79.3445ZM80.6465 60C80.6558 59.524 80.6605 59.048 80.6605 58.572C80.6698 58.096 80.6745 57.6153 80.6745 57.13C80.6745 56.6447 80.6745 56.1593 80.6745 55.674V54.974C80.6745 54.498 80.6745 54.022 80.6745 53.546C80.6745 53.0607 80.6698 52.58 80.6605 52.104C80.6605 51.6187 80.6558 51.138 80.6465 50.662H82.3545C82.3545 51.138 82.3498 51.614 82.3405 52.09C82.3405 52.566 82.3405 53.0467 82.3405 53.532C82.3405 54.008 82.3405 54.4887 82.3405 54.974V55.604C82.3405 56.108 82.3405 56.6073 82.3405 57.102C82.3405 57.5873 82.3405 58.0727 82.3405 58.558C82.3498 59.034 82.3545 59.5147 82.3545 60H80.6465ZM81.5005 60V59.174H86.3445L85.7845 59.678L86.2465 57.438H87.1565L87.0585 60H81.5005ZM81.5005 55.632V54.834H84.8325V55.632H81.5005ZM84.5105 56.85L84.2585 55.38V55.044L84.5105 53.602H85.3085V56.85H84.5105ZM79.3445 51.432V50.662H81.4025V51.544H81.2065L79.3445 51.432ZM85.9665 53.154L85.5045 50.984L86.0785 51.488H81.5005V50.662H86.7785L86.8765 53.154H85.9665Z" fill="#E4572E"/>
<rect x="104" y="43" width="37" height="25" rx="12.5" fill="#FFECE7"/>
<path d="M112.647 60V59.23L114.089 59.118H114.383L115.965 59.23V60H112.647ZM113.487 60L116.777 50.606H118.107L121.425 60H119.675L116.931 51.88H116.945L116.623 53.28L114.369 60H113.487ZM115.069 57.116V56.332H119.311V57.116H115.069ZM118.023 60V59.23L119.843 59.118H120.417L122.237 59.23V60H118.023ZM122.723 60V59.23L124.165 59.118H124.459L126.041 59.23V60H122.723ZM123.563 60L126.853 50.606H128.183L131.501 60H129.751L127.007 51.88H127.021L126.699 53.28L124.445 60H123.563ZM125.145 57.116V56.332H129.387V57.116H125.145ZM128.099 60V59.23L129.919 59.118H130.493L132.313 59.23V60H128.099Z" fill="#E4572E"/>
<path d="M43.41 106.035C43.41 106.975 43.235 107.93 42.885 108.9C42.535 109.87 42 110.77 41.28 111.6C40.57 112.42 39.67 113.08 38.58 113.58C37.49 114.08 36.21 114.33 34.74 114.33C32.75 114.33 31.05 113.845 29.64 112.875C28.24 111.895 27.17 110.55 26.43 108.84C25.7 107.13 25.335 105.165 25.335 102.945C25.335 100.715 25.7 98.745 26.43 97.035C27.17 95.325 28.24 93.985 29.64 93.015C31.05 92.045 32.75 91.56 34.74 91.56C36.39 91.56 37.8 91.875 38.97 92.505C40.14 93.135 41.075 93.945 41.775 94.935C42.475 95.925 42.945 96.96 43.185 98.04C43.335 98.67 43.41 99.27 43.41 99.84H39.435C39.435 99.55 39.415 99.25 39.375 98.94C39.265 98.18 39.01 97.49 38.61 96.87C38.22 96.24 37.7 95.745 37.05 95.385C36.4 95.015 35.63 94.83 34.74 94.83C33.68 94.83 32.745 95.125 31.935 95.715C31.135 96.305 30.505 97.2 30.045 98.4C29.585 99.6 29.355 101.115 29.355 102.945C29.355 104.755 29.585 106.265 30.045 107.475C30.505 108.685 31.135 109.59 31.935 110.19C32.745 110.79 33.68 111.09 34.74 111.09C35.5 111.09 36.17 110.95 36.75 110.67C37.33 110.39 37.82 110.015 38.22 109.545C38.62 109.065 38.92 108.525 39.12 107.925C39.33 107.325 39.435 106.695 39.435 106.035H43.41ZM44.7204 114L50.4354 91.845H56.6754L62.3454 114H58.2804L53.5404 94.29H53.5704L48.7854 114H44.7204ZM48.4104 108.615V105.45H58.7004V108.615H48.4104ZM68.9156 114H65.0756V91.875H71.2706L79.3556 112.395L78.7706 112.56V91.875H82.6256V114H76.3406L68.2856 93.525L68.9156 93.375V114ZM101.755 91.875L95.4101 106.35V114H91.4501V106.35L85.1501 91.875H89.3351L94.2401 104.265H92.6501L97.5401 91.875H101.755ZM111.663 114.33C110.323 114.33 109.073 114.08 107.913 113.58C106.753 113.08 105.733 112.345 104.853 111.375C103.983 110.395 103.303 109.2 102.813 107.79C102.333 106.37 102.093 104.745 102.093 102.915C102.093 101.085 102.333 99.465 102.813 98.055C103.303 96.645 103.983 95.46 104.853 94.5C105.723 93.53 106.738 92.8 107.898 92.31C109.068 91.81 110.323 91.56 111.663 91.56C113.023 91.56 114.283 91.81 115.443 92.31C116.613 92.8 117.633 93.53 118.503 94.5C119.373 95.46 120.048 96.645 120.528 98.055C121.018 99.465 121.263 101.085 121.263 102.915C121.263 104.745 121.018 106.37 120.528 107.79C120.038 109.2 119.353 110.395 118.473 111.375C117.603 112.345 116.588 113.08 115.428 113.58C114.268 114.08 113.013 114.33 111.663 114.33ZM111.663 111.075C112.703 111.075 113.643 110.795 114.483 110.235C115.323 109.665 115.988 108.78 116.478 107.58C116.978 106.38 117.228 104.825 117.228 102.915C117.228 100.995 116.978 99.445 116.478 98.265C115.978 97.075 115.308 96.205 114.468 95.655C113.628 95.105 112.693 94.83 111.663 94.83C110.653 94.83 109.723 95.105 108.873 95.655C108.033 96.205 107.358 97.075 106.848 98.265C106.348 99.445 106.098 100.995 106.098 102.915C106.098 104.835 106.348 106.395 106.848 107.595C107.358 108.795 108.033 109.675 108.873 110.235C109.723 110.795 110.653 111.075 111.663 111.075ZM128.359 114H124.519V91.875H130.714L138.799 112.395L138.214 112.56V91.875H142.069V114H135.784L127.729 93.525L128.359 93.375V114ZM155.625 95.025L157.41 93.06V102.51L156.48 101.325H164.76V104.475H156.48L157.41 103.305V112.815L155.625 110.85H166.425V114H153.435V91.875H166.425V95.025H155.625ZM185.971 91.875H192.691V114H188.926V94.395L189.016 94.425L184.261 114H178.981L174.166 94.41L174.256 94.365V114H170.491V91.875H177.211L181.696 111.84H181.441L185.971 91.875ZM205.045 91.875C206.525 91.875 207.755 92.085 208.735 92.505C209.715 92.915 210.45 93.515 210.94 94.305C211.44 95.095 211.69 96.06 211.69 97.2C211.69 98.3 211.465 99.235 211.015 100.005C210.575 100.765 210.015 101.35 209.335 101.76C208.655 102.17 207.955 102.4 207.235 102.45C207.995 102.47 208.755 102.655 209.515 103.005C210.285 103.355 210.925 103.915 211.435 104.685C211.945 105.455 212.2 106.49 212.2 107.79C212.2 109.02 211.955 110.105 211.465 111.045C210.975 111.975 210.195 112.7 209.125 113.22C208.065 113.74 206.68 114 204.97 114H196.765V91.875H205.045ZM200.545 102.15L199.24 100.995H203.695C205.015 100.995 206.015 100.72 206.695 100.17C207.385 99.61 207.73 98.835 207.73 97.845C207.73 97.175 207.585 96.635 207.295 96.225C207.015 95.815 206.595 95.515 206.035 95.325C205.485 95.125 204.82 95.025 204.04 95.025H198.76L200.545 93.06V102.15ZM204.19 110.85C205.47 110.85 206.455 110.56 207.145 109.98C207.835 109.4 208.18 108.59 208.18 107.55C208.18 106.95 208.07 106.435 207.85 106.005C207.64 105.565 207.34 105.21 206.95 104.94C206.57 104.66 206.12 104.455 205.6 104.325C205.09 104.195 204.53 104.13 203.92 104.13H199.24L200.545 102.96V112.815L198.76 110.85H204.19ZM217.852 95.025L219.637 93.06V102.51L218.707 101.325H226.987V104.475H218.707L219.637 103.305V112.815L217.852 110.85H228.652V114H215.662V91.875H228.652V95.025H217.852ZM232.507 114V91.875H241.027C243.257 91.875 244.932 92.385 246.052 93.405C247.172 94.425 247.732 95.925 247.732 97.905C247.732 99.065 247.512 100.05 247.072 100.86C246.632 101.67 246.097 102.295 245.467 102.735C244.837 103.175 244.237 103.425 243.667 103.485C244.247 103.525 244.807 103.675 245.347 103.935C245.887 104.195 246.327 104.605 246.667 105.165C247.017 105.715 247.192 106.46 247.192 107.4C247.192 108.15 247.192 108.9 247.192 109.65C247.192 110.39 247.192 111.135 247.192 111.885C247.192 112.355 247.232 112.79 247.312 113.19C247.392 113.58 247.492 113.85 247.612 114H243.637C243.537 113.82 243.447 113.545 243.367 113.175C243.297 112.795 243.262 112.365 243.262 111.885C243.262 111.205 243.262 110.54 243.262 109.89C243.262 109.23 243.262 108.555 243.262 107.865C243.262 106.955 243.007 106.265 242.497 105.795C241.987 105.325 241.217 105.09 240.187 105.09H235.312L236.362 103.755V114H232.507ZM236.362 103.425L235.312 101.94H240.217C240.867 101.94 241.452 101.79 241.972 101.49C242.492 101.18 242.902 100.75 243.202 100.2C243.512 99.65 243.667 99.005 243.667 98.265C243.667 97.185 243.357 96.375 242.737 95.835C242.117 95.295 241.237 95.025 240.097 95.025H235.207L236.362 93.63V103.425Z" fill="#FFECE7"/>
<path d="M24.756 142V141.19L27.078 140.974H27.276V142H24.756ZM26.43 142C26.454 141.388 26.466 140.776 26.466 140.164C26.478 139.54 26.484 138.916 26.484 138.292C26.484 137.668 26.484 137.044 26.484 136.42V135.538C26.484 134.914 26.484 134.29 26.484 133.666C26.484 133.042 26.478 132.418 26.466 131.794C26.466 131.17 26.454 130.552 26.43 129.94H28.266C28.266 130.54 28.26 131.152 28.248 131.776C28.236 132.4 28.23 133.024 28.23 133.648C28.23 134.272 28.23 134.902 28.23 135.538V136.186C28.23 136.882 28.23 137.56 28.23 138.22C28.23 138.868 28.236 139.504 28.248 140.128C28.26 140.752 28.266 141.376 28.266 142H26.43ZM27.42 142V141.1H29.418C30.582 141.1 31.446 140.896 32.01 140.488C32.574 140.068 32.856 139.468 32.856 138.688C32.856 137.86 32.574 137.242 32.01 136.834C31.458 136.414 30.564 136.204 29.328 136.204H27.348V135.322H29.256C29.976 135.322 30.558 135.244 31.002 135.088C31.458 134.92 31.794 134.668 32.01 134.332C32.226 133.984 32.334 133.546 32.334 133.018C32.334 132.478 32.232 132.052 32.028 131.74C31.824 131.416 31.512 131.182 31.092 131.038C30.672 130.894 30.156 130.822 29.544 130.822H27.42V129.94H30.048C30.888 129.94 31.608 130.066 32.208 130.318C32.808 130.558 33.264 130.9 33.576 131.344C33.9 131.776 34.062 132.286 34.062 132.874C34.062 133.378 33.936 133.834 33.684 134.242C33.432 134.65 33.048 134.986 32.532 135.25C32.028 135.514 31.374 135.688 30.57 135.772V135.7C31.518 135.76 32.292 135.922 32.892 136.186C33.492 136.45 33.942 136.792 34.242 137.212C34.542 137.632 34.692 138.118 34.692 138.67C34.692 139.114 34.596 139.534 34.404 139.93C34.212 140.326 33.918 140.68 33.522 140.992C33.138 141.304 32.634 141.55 32.01 141.73C31.398 141.91 30.666 142 29.814 142H27.42ZM24.756 130.75V129.94H27.276V130.966H27.078L24.756 130.75ZM40.4829 142.234C39.7629 142.234 39.0789 142.066 38.4309 141.73C37.7949 141.394 37.2789 140.89 36.8829 140.218C36.4869 139.534 36.2889 138.7 36.2889 137.716C36.2889 136.72 36.4869 135.88 36.8829 135.196C37.2789 134.512 37.7949 133.996 38.4309 133.648C39.0789 133.3 39.7629 133.126 40.4829 133.126C41.2029 133.126 41.8809 133.3 42.5169 133.648C43.1649 133.984 43.6869 134.494 44.0829 135.178C44.4909 135.862 44.6949 136.702 44.6949 137.698C44.6949 138.682 44.4909 139.516 44.0829 140.2C43.6869 140.872 43.1649 141.382 42.5169 141.73C41.8809 142.066 41.2029 142.234 40.4829 142.234ZM40.4829 141.37C41.0109 141.37 41.4549 141.232 41.8149 140.956C42.1869 140.68 42.4689 140.272 42.6609 139.732C42.8649 139.192 42.9669 138.52 42.9669 137.716C42.9669 136.9 42.8649 136.216 42.6609 135.664C42.4689 135.112 42.1869 134.698 41.8149 134.422C41.4549 134.134 41.0109 133.99 40.4829 133.99C39.9549 133.99 39.5049 134.134 39.1329 134.422C38.7729 134.698 38.4969 135.112 38.3049 135.664C38.1129 136.204 38.0169 136.882 38.0169 137.698C38.0169 138.514 38.1129 139.192 38.3049 139.732C38.4969 140.272 38.7729 140.68 39.1329 140.956C39.5049 141.232 39.9549 141.37 40.4829 141.37ZM45.8618 142V141.28L47.8958 140.974H48.3278L50.3798 141.28V142H45.8618ZM47.3018 142C47.3138 141.58 47.3198 141.16 47.3198 140.74C47.3198 140.308 47.3198 139.882 47.3198 139.462C47.3318 139.03 47.3378 138.604 47.3378 138.184V130.354L45.8438 130.138V129.454L48.6158 128.716L48.9578 128.824L48.8858 131.308V138.184C48.8858 138.604 48.8858 139.03 48.8858 139.462C48.8978 139.882 48.9038 140.308 48.9038 140.74C48.9158 141.16 48.9278 141.58 48.9398 142H47.3018ZM55.395 142.234C54.663 142.234 54.015 142.048 53.451 141.676C52.899 141.304 52.467 140.782 52.155 140.11C51.855 139.438 51.705 138.652 51.705 137.752C51.705 136.804 51.873 135.988 52.209 135.304C52.545 134.608 53.001 134.074 53.577 133.702C54.153 133.318 54.801 133.126 55.521 133.126C55.869 133.126 56.193 133.18 56.493 133.288C56.793 133.384 57.075 133.546 57.339 133.774C57.615 133.99 57.879 134.278 58.131 134.638H58.527L58.383 135.628C57.867 135.088 57.411 134.71 57.015 134.494C56.631 134.278 56.241 134.17 55.845 134.17C55.401 134.17 54.987 134.296 54.603 134.548C54.231 134.788 53.931 135.172 53.703 135.7C53.475 136.216 53.361 136.882 53.361 137.698C53.361 138.49 53.469 139.144 53.685 139.66C53.901 140.164 54.195 140.542 54.567 140.794C54.951 141.034 55.383 141.154 55.863 141.154C56.355 141.154 56.787 141.034 57.159 140.794C57.531 140.542 57.927 140.14 58.347 139.588L58.473 140.56H58.131C57.927 140.896 57.693 141.19 57.429 141.442C57.165 141.694 56.865 141.886 56.529 142.018C56.205 142.162 55.827 142.234 55.395 142.234ZM58.149 142.162L57.969 140.308V140.272V135.016L58.023 134.818L58.005 130.354L56.457 130.138V129.454L59.247 128.716L59.571 128.824L59.517 131.308V141.064L60.975 141.298V142L58.149 142.162ZM66.2558 142V141.28L68.2358 140.974H68.7758L70.7558 141.28V142H66.2558ZM67.6778 142C67.6898 141.58 67.6958 141.16 67.6958 140.74C67.7078 140.308 67.7138 139.882 67.7138 139.462C67.7258 139.03 67.7318 138.604 67.7318 138.184V134.332H66.2198V133.522L68.2718 133.252L67.7498 133.54C67.7978 132.832 67.8758 132.244 67.9838 131.776C68.1038 131.308 68.2598 130.906 68.4518 130.57C68.6558 130.234 68.9018 129.922 69.1898 129.634C69.4178 129.406 69.6878 129.214 69.9998 129.058C70.3118 128.89 70.6538 128.758 71.0258 128.662C71.3978 128.566 71.7818 128.518 72.1778 128.518C72.9698 128.518 73.6178 128.668 74.1218 128.968C74.6378 129.268 74.9138 129.682 74.9498 130.21C74.9138 130.426 74.8118 130.606 74.6438 130.75C74.4878 130.894 74.2778 130.966 74.0138 130.966C73.7738 130.966 73.5518 130.9 73.3478 130.768C73.1438 130.636 72.9578 130.456 72.7898 130.228L71.9438 129.076L72.0158 128.968H72.0878L72.2498 129.202C71.7938 129.226 71.3738 129.328 70.9898 129.508C70.6178 129.688 70.2998 129.922 70.0358 130.21C69.8318 130.438 69.6638 130.726 69.5318 131.074C69.4118 131.422 69.3278 131.836 69.2798 132.316C69.2438 132.796 69.2498 133.366 69.2978 134.026V138.184C69.2978 138.604 69.2978 139.03 69.2978 139.462C69.3098 139.882 69.3158 140.308 69.3158 140.74C69.3158 141.16 69.3218 141.58 69.3338 142H67.6778ZM71.9258 142V141.28L73.9058 140.974H74.3378L76.1918 141.28V142H71.9258ZM73.2578 142C73.2698 141.7 73.2758 141.328 73.2758 140.884C73.2878 140.428 73.2938 139.96 73.2938 139.48C73.3058 139 73.3118 138.574 73.3118 138.202V137.266C73.3118 136.858 73.3058 136.492 73.2938 136.168C73.2938 135.844 73.2878 135.532 73.2758 135.232C73.2758 134.932 73.2698 134.632 73.2578 134.332H68.5238V133.342H73.2038L74.6258 133.162L74.9138 133.306L74.8778 135.664V138.202C74.8778 138.574 74.8778 139 74.8778 139.48C74.8778 139.96 74.8778 140.428 74.8778 140.884C74.8898 141.328 74.9018 141.7 74.9138 142H73.2578ZM77.5787 142V141.28L79.5587 140.974H80.0267L82.0967 141.28V142H77.5787ZM78.8927 142C78.9047 141.7 78.9107 141.328 78.9107 140.884C78.9227 140.428 78.9287 139.96 78.9287 139.48C78.9407 139 78.9467 138.568 78.9467 138.184V137.302C78.9467 136.978 78.9407 136.69 78.9287 136.438C78.9287 136.186 78.9227 135.946 78.9107 135.718C78.9107 135.49 78.9047 135.25 78.8927 134.998L77.4527 134.872V134.188L79.9187 133.162L80.2607 133.306L80.4767 135.628L80.5127 135.646V138.184C80.5127 138.568 80.5127 139 80.5127 139.48C80.5127 139.96 80.5127 140.428 80.5127 140.884C80.5247 141.328 80.5367 141.7 80.5487 142H78.8927ZM80.4227 136.978L80.2067 135.718H80.4587C80.6627 135.178 80.9027 134.716 81.1787 134.332C81.4547 133.948 81.7607 133.654 82.0967 133.45C82.4327 133.234 82.7747 133.126 83.1227 133.126C83.4347 133.126 83.7047 133.198 83.9327 133.342C84.1727 133.474 84.3467 133.642 84.4547 133.846C84.4427 134.254 84.3467 134.578 84.1667 134.818C83.9987 135.058 83.7287 135.178 83.3567 135.178C83.1287 135.178 82.9247 135.136 82.7447 135.052C82.5647 134.968 82.3907 134.854 82.2227 134.71L81.7727 134.278L82.6727 134.152C82.0967 134.44 81.6287 134.824 81.2687 135.304C80.9207 135.772 80.6387 136.33 80.4227 136.978ZM89.4736 142.234C88.6096 142.234 87.8596 142.06 87.2236 141.712C86.5996 141.352 86.1136 140.842 85.7656 140.182C85.4296 139.51 85.2616 138.712 85.2616 137.788C85.2616 136.852 85.4416 136.036 85.8016 135.34C86.1736 134.644 86.6716 134.104 87.2956 133.72C87.9316 133.324 88.6336 133.126 89.4016 133.126C90.0736 133.126 90.6676 133.264 91.1836 133.54C91.6996 133.816 92.1076 134.212 92.4076 134.728C92.7076 135.244 92.8576 135.868 92.8576 136.6C92.8576 136.816 92.8456 137.02 92.8216 137.212C92.7976 137.392 92.7676 137.548 92.7316 137.68H86.0356V136.888H90.3556C90.7756 136.864 91.0456 136.768 91.1656 136.6C91.2856 136.42 91.3456 136.21 91.3456 135.97C91.3456 135.538 91.2676 135.178 91.1116 134.89C90.9556 134.59 90.7336 134.368 90.4456 134.224C90.1576 134.068 89.8096 133.99 89.4016 133.99C88.9816 133.99 88.5736 134.11 88.1776 134.35C87.7936 134.59 87.4816 134.974 87.2416 135.502C87.0016 136.018 86.8816 136.708 86.8816 137.572C86.8816 138.316 87.0016 138.946 87.2416 139.462C87.4816 139.978 87.8236 140.374 88.2676 140.65C88.7236 140.914 89.2576 141.046 89.8696 141.046C90.4576 141.046 90.9616 140.944 91.3816 140.74C91.8136 140.536 92.2096 140.236 92.5696 139.84L93.0016 140.2C92.7496 140.596 92.4676 140.95 92.1556 141.262C91.8436 141.574 91.4716 141.814 91.0396 141.982C90.6196 142.15 90.0976 142.234 89.4736 142.234ZM97.458 142.234C96.918 142.234 96.426 142.174 95.982 142.054C95.538 141.946 95.1 141.784 94.668 141.568L94.596 139.516H95.622L96.09 141.676H95.298V140.74C95.598 140.956 95.928 141.118 96.288 141.226C96.648 141.334 97.044 141.388 97.476 141.388C97.944 141.388 98.328 141.328 98.628 141.208C98.928 141.088 99.144 140.926 99.276 140.722C99.42 140.506 99.492 140.266 99.492 140.002C99.492 139.606 99.354 139.294 99.078 139.066C98.802 138.838 98.376 138.628 97.8 138.436L97.062 138.148C96.582 137.98 96.162 137.788 95.802 137.572C95.454 137.344 95.184 137.074 94.992 136.762C94.812 136.45 94.722 136.084 94.722 135.664C94.722 135.208 94.842 134.788 95.082 134.404C95.334 134.02 95.7 133.714 96.18 133.486C96.672 133.246 97.254 133.126 97.926 133.126C98.43 133.126 98.892 133.186 99.312 133.306C99.744 133.426 100.146 133.6 100.518 133.828L100.464 135.736H99.492L99.114 133.846H99.798V134.62C99.51 134.404 99.21 134.242 98.898 134.134C98.586 134.026 98.262 133.972 97.926 133.972C97.35 133.972 96.918 134.086 96.63 134.314C96.342 134.542 96.198 134.842 96.198 135.214C96.198 135.598 96.324 135.898 96.576 136.114C96.828 136.318 97.26 136.528 97.872 136.744L98.412 136.942C99.024 137.146 99.522 137.386 99.906 137.662C100.29 137.926 100.566 138.22 100.734 138.544C100.914 138.856 101.004 139.216 101.004 139.624C101.004 140.092 100.866 140.524 100.59 140.92C100.326 141.316 99.93 141.634 99.402 141.874C98.886 142.114 98.238 142.234 97.458 142.234ZM104.268 134.332V133.342H107.526V134.332H104.268ZM105.6 142.216C104.952 142.216 104.436 142.042 104.052 141.694C103.668 141.346 103.476 140.812 103.476 140.092C103.476 139.864 103.476 139.642 103.476 139.426C103.488 139.21 103.494 138.94 103.494 138.616V134.332H101.964V133.522L104.232 133.252L103.512 133.828L104.088 130.894H105.186L105.024 133.792L105.06 134.098V139.894C105.06 140.362 105.15 140.704 105.33 140.92C105.522 141.124 105.774 141.226 106.086 141.226C106.302 141.226 106.5 141.184 106.68 141.1C106.872 141.016 107.076 140.908 107.292 140.776L107.706 141.316C107.562 141.496 107.382 141.658 107.166 141.802C106.962 141.934 106.728 142.036 106.464 142.108C106.2 142.18 105.912 142.216 105.6 142.216ZM111.053 142.252C110.381 142.252 109.805 142.06 109.325 141.676C108.857 141.28 108.623 140.71 108.623 139.966C108.623 139.582 108.701 139.234 108.857 138.922C109.025 138.598 109.319 138.298 109.739 138.022C110.171 137.746 110.783 137.494 111.575 137.266C111.911 137.158 112.235 137.062 112.547 136.978C112.871 136.882 113.189 136.792 113.501 136.708C113.825 136.612 114.149 136.522 114.473 136.438V137.104C114.053 137.236 113.639 137.368 113.231 137.5C112.823 137.632 112.415 137.764 112.007 137.896C111.491 138.064 111.107 138.25 110.855 138.454C110.603 138.646 110.435 138.85 110.351 139.066C110.279 139.27 110.243 139.48 110.243 139.696C110.243 140.152 110.381 140.488 110.657 140.704C110.933 140.92 111.281 141.028 111.701 141.028C111.941 141.028 112.163 140.992 112.367 140.92C112.571 140.836 112.811 140.698 113.087 140.506C113.375 140.302 113.741 140.026 114.185 139.678L114.401 140.614H113.825C113.501 140.962 113.201 141.256 112.925 141.496C112.661 141.736 112.379 141.922 112.079 142.054C111.791 142.186 111.449 142.252 111.053 142.252ZM115.445 142.18C114.941 142.18 114.533 142.018 114.221 141.694C113.921 141.358 113.765 140.896 113.753 140.308V140.236V136.168C113.753 135.592 113.693 135.148 113.573 134.836C113.453 134.512 113.261 134.29 112.997 134.17C112.733 134.038 112.397 133.972 111.989 133.972C111.749 133.972 111.491 133.996 111.215 134.044C110.951 134.092 110.657 134.182 110.333 134.314L111.071 133.684L110.675 135.25C110.603 135.55 110.489 135.778 110.333 135.934C110.177 136.09 109.973 136.168 109.721 136.168C109.457 136.168 109.253 136.102 109.109 135.97C108.965 135.826 108.875 135.646 108.839 135.43C109.007 134.722 109.409 134.164 110.045 133.756C110.693 133.336 111.485 133.126 112.421 133.126C113.057 133.126 113.585 133.228 114.005 133.432C114.425 133.636 114.743 133.966 114.959 134.422C115.187 134.878 115.301 135.484 115.301 136.24V140.128C115.301 140.512 115.361 140.788 115.481 140.956C115.601 141.112 115.769 141.19 115.985 141.19C116.141 141.19 116.273 141.16 116.381 141.1C116.489 141.028 116.591 140.938 116.687 140.83L117.029 141.316C116.825 141.616 116.591 141.838 116.327 141.982C116.075 142.114 115.781 142.18 115.445 142.18ZM117.85 142V141.28L119.83 140.974H120.298L122.368 141.28V142H117.85ZM119.164 142C119.176 141.7 119.182 141.328 119.182 140.884C119.194 140.428 119.2 139.96 119.2 139.48C119.212 139 119.218 138.568 119.218 138.184V137.302C119.218 136.978 119.212 136.69 119.2 136.438C119.2 136.186 119.194 135.946 119.182 135.718C119.182 135.49 119.176 135.25 119.164 134.998L117.724 134.872V134.188L120.19 133.162L120.532 133.306L120.748 135.628L120.784 135.646V138.184C120.784 138.568 120.784 139 120.784 139.48C120.784 139.96 120.784 140.428 120.784 140.884C120.796 141.328 120.808 141.7 120.82 142H119.164ZM120.694 136.978L120.478 135.718H120.73C120.934 135.178 121.174 134.716 121.45 134.332C121.726 133.948 122.032 133.654 122.368 133.45C122.704 133.234 123.046 133.126 123.394 133.126C123.706 133.126 123.976 133.198 124.204 133.342C124.444 133.474 124.618 133.642 124.726 133.846C124.714 134.254 124.618 134.578 124.438 134.818C124.27 135.058 124 135.178 123.628 135.178C123.4 135.178 123.196 135.136 123.016 135.052C122.836 134.968 122.662 134.854 122.494 134.71L122.044 134.278L122.944 134.152C122.368 134.44 121.9 134.824 121.54 135.304C121.192 135.772 120.91 136.33 120.694 136.978ZM127.735 134.332V133.342H130.993V134.332H127.735ZM129.067 142.216C128.419 142.216 127.903 142.042 127.519 141.694C127.135 141.346 126.943 140.812 126.943 140.092C126.943 139.864 126.943 139.642 126.943 139.426C126.955 139.21 126.961 138.94 126.961 138.616V134.332H125.431V133.522L127.699 133.252L126.979 133.828L127.555 130.894H128.653L128.491 133.792L128.527 134.098V139.894C128.527 140.362 128.617 140.704 128.797 140.92C128.989 141.124 129.241 141.226 129.553 141.226C129.769 141.226 129.967 141.184 130.147 141.1C130.339 141.016 130.543 140.908 130.759 140.776L131.173 141.316C131.029 141.496 130.849 141.658 130.633 141.802C130.429 141.934 130.195 142.036 129.931 142.108C129.667 142.18 129.379 142.216 129.067 142.216ZM136.302 142.234C135.438 142.234 134.688 142.06 134.052 141.712C133.428 141.352 132.942 140.842 132.594 140.182C132.258 139.51 132.09 138.712 132.09 137.788C132.09 136.852 132.27 136.036 132.63 135.34C133.002 134.644 133.5 134.104 134.124 133.72C134.76 133.324 135.462 133.126 136.23 133.126C136.902 133.126 137.496 133.264 138.012 133.54C138.528 133.816 138.936 134.212 139.236 134.728C139.536 135.244 139.686 135.868 139.686 136.6C139.686 136.816 139.674 137.02 139.65 137.212C139.626 137.392 139.596 137.548 139.56 137.68H132.864V136.888H137.184C137.604 136.864 137.874 136.768 137.994 136.6C138.114 136.42 138.174 136.21 138.174 135.97C138.174 135.538 138.096 135.178 137.94 134.89C137.784 134.59 137.562 134.368 137.274 134.224C136.986 134.068 136.638 133.99 136.23 133.99C135.81 133.99 135.402 134.11 135.006 134.35C134.622 134.59 134.31 134.974 134.07 135.502C133.83 136.018 133.71 136.708 133.71 137.572C133.71 138.316 133.83 138.946 134.07 139.462C134.31 139.978 134.652 140.374 135.096 140.65C135.552 140.914 136.086 141.046 136.698 141.046C137.286 141.046 137.79 140.944 138.21 140.74C138.642 140.536 139.038 140.236 139.398 139.84L139.83 140.2C139.578 140.596 139.296 140.95 138.984 141.262C138.672 141.574 138.3 141.814 137.868 141.982C137.448 142.15 136.926 142.234 136.302 142.234ZM141.352 142V141.28L143.332 140.974H143.8L145.87 141.28V142H141.352ZM142.666 142C142.678 141.7 142.684 141.328 142.684 140.884C142.696 140.428 142.702 139.96 142.702 139.48C142.714 139 142.72 138.568 142.72 138.184V137.302C142.72 136.978 142.714 136.69 142.702 136.438C142.702 136.186 142.696 135.946 142.684 135.718C142.684 135.49 142.678 135.25 142.666 134.998L141.226 134.872V134.188L143.692 133.162L144.034 133.306L144.25 135.628L144.286 135.646V138.184C144.286 138.568 144.286 139 144.286 139.48C144.286 139.96 144.286 140.428 144.286 140.884C144.298 141.328 144.31 141.7 144.322 142H142.666ZM144.196 136.978L143.98 135.718H144.232C144.436 135.178 144.676 134.716 144.952 134.332C145.228 133.948 145.534 133.654 145.87 133.45C146.206 133.234 146.548 133.126 146.896 133.126C147.208 133.126 147.478 133.198 147.706 133.342C147.946 133.474 148.12 133.642 148.228 133.846C148.216 134.254 148.12 134.578 147.94 134.818C147.772 135.058 147.502 135.178 147.13 135.178C146.902 135.178 146.698 135.136 146.518 135.052C146.338 134.968 146.164 134.854 145.996 134.71L145.546 134.278L146.446 134.152C145.87 134.44 145.402 134.824 145.042 135.304C144.694 135.772 144.412 136.33 144.196 136.978ZM150.942 142.234C150.582 142.234 150.276 142.108 150.024 141.856C149.784 141.604 149.664 141.304 149.664 140.956C149.664 140.596 149.784 140.29 150.024 140.038C150.276 139.786 150.582 139.66 150.942 139.66C151.302 139.66 151.608 139.786 151.86 140.038C152.112 140.29 152.238 140.596 152.238 140.956C152.238 141.304 152.112 141.604 151.86 141.856C151.608 142.108 151.302 142.234 150.942 142.234ZM150.942 136.078C150.582 136.078 150.276 135.952 150.024 135.7C149.784 135.448 149.664 135.148 149.664 134.8C149.664 134.44 149.784 134.134 150.024 133.882C150.276 133.63 150.582 133.504 150.942 133.504C151.302 133.504 151.608 133.63 151.86 133.882C152.112 134.134 152.238 134.44 152.238 134.8C152.238 135.148 152.112 135.448 151.86 135.7C151.608 135.952 151.302 136.078 150.942 136.078ZM158.649 142V141.19L161.007 140.974H161.475L163.905 141.19V142H158.649ZM160.323 142C160.347 141.388 160.359 140.776 160.359 140.164C160.359 139.54 160.359 138.916 160.359 138.292C160.359 137.668 160.359 137.044 160.359 136.42V135.538C160.359 134.914 160.359 134.29 160.359 133.666C160.359 133.042 160.359 132.418 160.359 131.794C160.359 131.17 160.347 130.552 160.323 129.94H162.159C162.147 130.54 162.135 131.152 162.123 131.776C162.123 132.4 162.123 133.024 162.123 133.648C162.123 134.272 162.123 134.902 162.123 135.538V136.24C162.123 136.912 162.123 137.572 162.123 138.22C162.123 138.868 162.123 139.504 162.123 140.128C162.135 140.752 162.147 141.376 162.159 142H160.323ZM161.241 136.312V135.412H165.507V136.312H161.241ZM165.165 138.13L164.877 136.15V135.628L165.165 133.738H166.029V138.13H165.165ZM158.649 130.75V129.94H161.223V130.966H161.007L158.649 130.75ZM166.875 133.144L166.353 130.318L167.019 130.876H161.223V129.94H167.793L167.919 133.144H166.875ZM172.794 142.234C171.93 142.234 171.18 142.06 170.544 141.712C169.92 141.352 169.434 140.842 169.086 140.182C168.75 139.51 168.582 138.712 168.582 137.788C168.582 136.852 168.762 136.036 169.122 135.34C169.494 134.644 169.992 134.104 170.616 133.72C171.252 133.324 171.954 133.126 172.722 133.126C173.394 133.126 173.988 133.264 174.504 133.54C175.02 133.816 175.428 134.212 175.728 134.728C176.028 135.244 176.178 135.868 176.178 136.6C176.178 136.816 176.166 137.02 176.142 137.212C176.118 137.392 176.088 137.548 176.052 137.68H169.356V136.888H173.676C174.096 136.864 174.366 136.768 174.486 136.6C174.606 136.42 174.666 136.21 174.666 135.97C174.666 135.538 174.588 135.178 174.432 134.89C174.276 134.59 174.054 134.368 173.766 134.224C173.478 134.068 173.13 133.99 172.722 133.99C172.302 133.99 171.894 134.11 171.498 134.35C171.114 134.59 170.802 134.974 170.562 135.502C170.322 136.018 170.202 136.708 170.202 137.572C170.202 138.316 170.322 138.946 170.562 139.462C170.802 139.978 171.144 140.374 171.588 140.65C172.044 140.914 172.578 141.046 173.19 141.046C173.778 141.046 174.282 140.944 174.702 140.74C175.134 140.536 175.53 140.236 175.89 139.84L176.322 140.2C176.07 140.596 175.788 140.95 175.476 141.262C175.164 141.574 174.792 141.814 174.36 141.982C173.94 142.15 173.418 142.234 172.794 142.234ZM180.153 142.252C179.481 142.252 178.905 142.06 178.425 141.676C177.957 141.28 177.723 140.71 177.723 139.966C177.723 139.582 177.801 139.234 177.957 138.922C178.125 138.598 178.419 138.298 178.839 138.022C179.271 137.746 179.883 137.494 180.675 137.266C181.011 137.158 181.335 137.062 181.647 136.978C181.971 136.882 182.289 136.792 182.601 136.708C182.925 136.612 183.249 136.522 183.573 136.438V137.104C183.153 137.236 182.739 137.368 182.331 137.5C181.923 137.632 181.515 137.764 181.107 137.896C180.591 138.064 180.207 138.25 179.955 138.454C179.703 138.646 179.535 138.85 179.451 139.066C179.379 139.27 179.343 139.48 179.343 139.696C179.343 140.152 179.481 140.488 179.757 140.704C180.033 140.92 180.381 141.028 180.801 141.028C181.041 141.028 181.263 140.992 181.467 140.92C181.671 140.836 181.911 140.698 182.187 140.506C182.475 140.302 182.841 140.026 183.285 139.678L183.501 140.614H182.925C182.601 140.962 182.301 141.256 182.025 141.496C181.761 141.736 181.479 141.922 181.179 142.054C180.891 142.186 180.549 142.252 180.153 142.252ZM184.545 142.18C184.041 142.18 183.633 142.018 183.321 141.694C183.021 141.358 182.865 140.896 182.853 140.308V140.236V136.168C182.853 135.592 182.793 135.148 182.673 134.836C182.553 134.512 182.361 134.29 182.097 134.17C181.833 134.038 181.497 133.972 181.089 133.972C180.849 133.972 180.591 133.996 180.315 134.044C180.051 134.092 179.757 134.182 179.433 134.314L180.171 133.684L179.775 135.25C179.703 135.55 179.589 135.778 179.433 135.934C179.277 136.09 179.073 136.168 178.821 136.168C178.557 136.168 178.353 136.102 178.209 135.97C178.065 135.826 177.975 135.646 177.939 135.43C178.107 134.722 178.509 134.164 179.145 133.756C179.793 133.336 180.585 133.126 181.521 133.126C182.157 133.126 182.685 133.228 183.105 133.432C183.525 133.636 183.843 133.966 184.059 134.422C184.287 134.878 184.401 135.484 184.401 136.24V140.128C184.401 140.512 184.461 140.788 184.581 140.956C184.701 141.112 184.869 141.19 185.085 141.19C185.241 141.19 185.373 141.16 185.481 141.1C185.589 141.028 185.691 140.938 185.787 140.83L186.129 141.316C185.925 141.616 185.691 141.838 185.427 141.982C185.175 142.114 184.881 142.18 184.545 142.18ZM186.95 142V141.28L188.93 140.974H189.398L191.468 141.28V142H186.95ZM188.264 142C188.276 141.7 188.282 141.328 188.282 140.884C188.294 140.428 188.3 139.96 188.3 139.48C188.312 139 188.318 138.568 188.318 138.184V137.302C188.318 136.978 188.312 136.69 188.3 136.438C188.3 136.186 188.294 135.946 188.282 135.718C188.282 135.49 188.276 135.25 188.264 134.998L186.824 134.872V134.188L189.29 133.162L189.632 133.306L189.848 135.628L189.884 135.646V138.184C189.884 138.568 189.884 139 189.884 139.48C189.884 139.96 189.884 140.428 189.884 140.884C189.896 141.328 189.908 141.7 189.92 142H188.264ZM189.794 136.978L189.578 135.718H189.83C190.034 135.178 190.274 134.716 190.55 134.332C190.826 133.948 191.132 133.654 191.468 133.45C191.804 133.234 192.146 133.126 192.494 133.126C192.806 133.126 193.076 133.198 193.304 133.342C193.544 133.474 193.718 133.642 193.826 133.846C193.814 134.254 193.718 134.578 193.538 134.818C193.37 135.058 193.1 135.178 192.728 135.178C192.5 135.178 192.296 135.136 192.116 135.052C191.936 134.968 191.762 134.854 191.594 134.71L191.144 134.278L192.044 134.152C191.468 134.44 191 134.824 190.64 135.304C190.292 135.772 190.01 136.33 189.794 136.978ZM194.274 142V141.28L196.308 140.974H196.74L198.792 141.28V142H194.274ZM195.714 142C195.726 141.58 195.732 141.16 195.732 140.74C195.732 140.308 195.732 139.882 195.732 139.462C195.744 139.03 195.75 138.604 195.75 138.184V130.354L194.256 130.138V129.454L197.028 128.716L197.37 128.824L197.298 131.308V138.184C197.298 138.604 197.298 139.03 197.298 139.462C197.31 139.882 197.316 140.308 197.316 140.74C197.328 141.16 197.34 141.58 197.352 142H195.714ZM204.329 142.234C203.465 142.234 202.715 142.06 202.079 141.712C201.455 141.352 200.969 140.842 200.621 140.182C200.285 139.51 200.117 138.712 200.117 137.788C200.117 136.852 200.297 136.036 200.657 135.34C201.029 134.644 201.527 134.104 202.151 133.72C202.787 133.324 203.489 133.126 204.257 133.126C204.929 133.126 205.523 133.264 206.039 133.54C206.555 133.816 206.963 134.212 207.263 134.728C207.563 135.244 207.713 135.868 207.713 136.6C207.713 136.816 207.701 137.02 207.677 137.212C207.653 137.392 207.623 137.548 207.587 137.68H200.891V136.888H205.211C205.631 136.864 205.901 136.768 206.021 136.6C206.141 136.42 206.201 136.21 206.201 135.97C206.201 135.538 206.123 135.178 205.967 134.89C205.811 134.59 205.589 134.368 205.301 134.224C205.013 134.068 204.665 133.99 204.257 133.99C203.837 133.99 203.429 134.11 203.033 134.35C202.649 134.59 202.337 134.974 202.097 135.502C201.857 136.018 201.737 136.708 201.737 137.572C201.737 138.316 201.857 138.946 202.097 139.462C202.337 139.978 202.679 140.374 203.123 140.65C203.579 140.914 204.113 141.046 204.725 141.046C205.313 141.046 205.817 140.944 206.237 140.74C206.669 140.536 207.065 140.236 207.425 139.84L207.857 140.2C207.605 140.596 207.323 140.95 207.011 141.262C206.699 141.574 206.327 141.814 205.895 141.982C205.475 142.15 204.953 142.234 204.329 142.234ZM212.313 142.234C211.773 142.234 211.281 142.174 210.837 142.054C210.393 141.946 209.955 141.784 209.523 141.568L209.451 139.516H210.477L210.945 141.676H210.153V140.74C210.453 140.956 210.783 141.118 211.143 141.226C211.503 141.334 211.899 141.388 212.331 141.388C212.799 141.388 213.183 141.328 213.483 141.208C213.783 141.088 213.999 140.926 214.131 140.722C214.275 140.506 214.347 140.266 214.347 140.002C214.347 139.606 214.209 139.294 213.933 139.066C213.657 138.838 213.231 138.628 212.655 138.436L211.917 138.148C211.437 137.98 211.017 137.788 210.657 137.572C210.309 137.344 210.039 137.074 209.847 136.762C209.667 136.45 209.577 136.084 209.577 135.664C209.577 135.208 209.697 134.788 209.937 134.404C210.189 134.02 210.555 133.714 211.035 133.486C211.527 133.246 212.109 133.126 212.781 133.126C213.285 133.126 213.747 133.186 214.167 133.306C214.599 133.426 215.001 133.6 215.373 133.828L215.319 135.736H214.347L213.969 133.846H214.653V134.62C214.365 134.404 214.065 134.242 213.753 134.134C213.441 134.026 213.117 133.972 212.781 133.972C212.205 133.972 211.773 134.086 211.485 134.314C211.197 134.542 211.053 134.842 211.053 135.214C211.053 135.598 211.179 135.898 211.431 136.114C211.683 136.318 212.115 136.528 212.727 136.744L213.267 136.942C213.879 137.146 214.377 137.386 214.761 137.662C215.145 137.926 215.421 138.22 215.589 138.544C215.769 138.856 215.859 139.216 215.859 139.624C215.859 140.092 215.721 140.524 215.445 140.92C215.181 141.316 214.785 141.634 214.257 141.874C213.741 142.114 213.093 142.234 212.313 142.234ZM220.312 142.234C219.772 142.234 219.28 142.174 218.836 142.054C218.392 141.946 217.954 141.784 217.522 141.568L217.45 139.516H218.476L218.944 141.676H218.152V140.74C218.452 140.956 218.782 141.118 219.142 141.226C219.502 141.334 219.898 141.388 220.33 141.388C220.798 141.388 221.182 141.328 221.482 141.208C221.782 141.088 221.998 140.926 222.13 140.722C222.274 140.506 222.346 140.266 222.346 140.002C222.346 139.606 222.208 139.294 221.932 139.066C221.656 138.838 221.23 138.628 220.654 138.436L219.916 138.148C219.436 137.98 219.016 137.788 218.656 137.572C218.308 137.344 218.038 137.074 217.846 136.762C217.666 136.45 217.576 136.084 217.576 135.664C217.576 135.208 217.696 134.788 217.936 134.404C218.188 134.02 218.554 133.714 219.034 133.486C219.526 133.246 220.108 133.126 220.78 133.126C221.284 133.126 221.746 133.186 222.166 133.306C222.598 133.426 223 133.6 223.372 133.828L223.318 135.736H222.346L221.968 133.846H222.652V134.62C222.364 134.404 222.064 134.242 221.752 134.134C221.44 134.026 221.116 133.972 220.78 133.972C220.204 133.972 219.772 134.086 219.484 134.314C219.196 134.542 219.052 134.842 219.052 135.214C219.052 135.598 219.178 135.898 219.43 136.114C219.682 136.318 220.114 136.528 220.726 136.744L221.266 136.942C221.878 137.146 222.376 137.386 222.76 137.662C223.144 137.926 223.42 138.22 223.588 138.544C223.768 138.856 223.858 139.216 223.858 139.624C223.858 140.092 223.72 140.524 223.444 140.92C223.18 141.316 222.784 141.634 222.256 141.874C221.74 142.114 221.092 142.234 220.312 142.234ZM224.948 142V141.28L226.982 140.974H227.414L229.466 141.28V142H224.948ZM226.388 142C226.4 141.58 226.406 141.16 226.406 140.74C226.406 140.308 226.406 139.882 226.406 139.462C226.418 139.03 226.424 138.604 226.424 138.184V130.354L224.93 130.138V129.454L227.702 128.716L228.044 128.824L227.972 131.308V138.184C227.972 138.604 227.972 139.03 227.972 139.462C227.984 139.882 227.99 140.308 227.99 140.74C228.002 141.16 228.014 141.58 228.026 142H226.388ZM231.445 146.464C231.121 146.464 230.827 146.41 230.563 146.302C230.311 146.206 230.107 146.062 229.951 145.87C229.807 145.69 229.729 145.492 229.717 145.276C229.777 145.024 229.921 144.826 230.149 144.682C230.377 144.55 230.635 144.484 230.923 144.484C231.187 144.484 231.421 144.538 231.625 144.646C231.829 144.754 232.051 144.928 232.291 145.168L232.831 145.726L232.183 146.05L231.895 145.708C232.267 145.504 232.591 145.246 232.867 144.934C233.155 144.622 233.407 144.268 233.623 143.872C233.839 143.476 234.025 143.068 234.181 142.648L234.469 141.856L234.613 141.748L236.161 137.212L237.547 133.342H238.609L235.297 142C234.901 143.032 234.511 143.878 234.127 144.538C233.743 145.198 233.335 145.684 232.903 145.996C232.471 146.308 231.985 146.464 231.445 146.464ZM234.379 143.044L230.527 133.342H232.309L235.045 140.812L235.261 141.118L234.379 143.044ZM229.825 134.062V133.342H234.253V134.08L232.111 134.314H231.607L229.825 134.062ZM235.657 134.062V133.342H239.293V134.062L237.943 134.314H237.529L235.657 134.062ZM248.572 142.234C247.708 142.234 246.964 142.054 246.34 141.694C245.716 141.334 245.236 140.824 244.9 140.164C244.576 139.492 244.414 138.694 244.414 137.77C244.414 136.81 244.606 135.982 244.99 135.286C245.374 134.59 245.89 134.056 246.538 133.684C247.186 133.312 247.882 133.126 248.626 133.126C249.202 133.126 249.724 133.228 250.192 133.432C250.66 133.624 251.044 133.894 251.344 134.242C251.644 134.59 251.836 134.98 251.92 135.412C251.872 135.64 251.776 135.82 251.632 135.952C251.5 136.084 251.314 136.15 251.074 136.15C250.762 136.15 250.528 136.066 250.372 135.898C250.228 135.718 250.12 135.502 250.048 135.25L249.598 133.666L250.516 134.422C250.228 134.266 249.934 134.152 249.634 134.08C249.334 134.008 249.034 133.972 248.734 133.972C248.218 133.972 247.756 134.11 247.348 134.386C246.94 134.662 246.616 135.07 246.376 135.61C246.148 136.15 246.034 136.81 246.034 137.59C246.034 138.382 246.166 139.036 246.43 139.552C246.694 140.056 247.042 140.428 247.474 140.668C247.918 140.908 248.41 141.028 248.95 141.028C249.286 141.028 249.598 140.992 249.886 140.92C250.174 140.836 250.45 140.704 250.714 140.524C250.99 140.344 251.254 140.11 251.506 139.822L251.974 140.218C251.746 140.626 251.476 140.98 251.164 141.28C250.864 141.58 250.504 141.814 250.084 141.982C249.664 142.15 249.16 142.234 248.572 142.234ZM252.969 142V141.28L254.949 140.974H255.399L257.235 141.28V142H252.969ZM254.337 142C254.349 141.7 254.355 141.328 254.355 140.884C254.355 140.428 254.355 139.96 254.355 139.48C254.367 139 254.373 138.568 254.373 138.184V130.354L252.879 130.138V129.454L255.615 128.716L255.939 128.824L255.885 131.308L255.867 135.142L255.921 135.34V138.184C255.921 138.568 255.921 139 255.921 139.48C255.933 139.96 255.939 140.428 255.939 140.884C255.951 141.328 255.963 141.7 255.975 142H254.337ZM258.657 142V141.28L260.619 140.974H261.069L262.905 141.28V142H258.657ZM259.971 142C259.983 141.7 259.989 141.328 259.989 140.884C260.001 140.44 260.007 139.978 260.007 139.498C260.007 139.018 260.007 138.58 260.007 138.184V136.582C260.007 135.778 259.887 135.226 259.647 134.926C259.419 134.614 259.041 134.458 258.513 134.458C258.213 134.458 257.919 134.5 257.631 134.584C257.343 134.668 257.049 134.8 256.749 134.98C256.449 135.16 256.131 135.4 255.795 135.7L255.525 134.998H255.831C256.107 134.638 256.425 134.32 256.785 134.044C257.145 133.756 257.529 133.534 257.937 133.378C258.357 133.21 258.777 133.126 259.197 133.126C260.001 133.126 260.595 133.39 260.979 133.918C261.375 134.434 261.573 135.262 261.573 136.402V138.184C261.573 138.58 261.573 139.018 261.573 139.498C261.585 139.978 261.591 140.44 261.591 140.884C261.603 141.328 261.615 141.7 261.627 142H259.971ZM266.69 142.252C266.018 142.252 265.442 142.06 264.962 141.676C264.494 141.28 264.26 140.71 264.26 139.966C264.26 139.582 264.338 139.234 264.494 138.922C264.662 138.598 264.956 138.298 265.376 138.022C265.808 137.746 266.42 137.494 267.212 137.266C267.548 137.158 267.872 137.062 268.184 136.978C268.508 136.882 268.826 136.792 269.138 136.708C269.462 136.612 269.786 136.522 270.11 136.438V137.104C269.69 137.236 269.276 137.368 268.868 137.5C268.46 137.632 268.052 137.764 267.644 137.896C267.128 138.064 266.744 138.25 266.492 138.454C266.24 138.646 266.072 138.85 265.988 139.066C265.916 139.27 265.88 139.48 265.88 139.696C265.88 140.152 266.018 140.488 266.294 140.704C266.57 140.92 266.918 141.028 267.338 141.028C267.578 141.028 267.8 140.992 268.004 140.92C268.208 140.836 268.448 140.698 268.724 140.506C269.012 140.302 269.378 140.026 269.822 139.678L270.038 140.614H269.462C269.138 140.962 268.838 141.256 268.562 141.496C268.298 141.736 268.016 141.922 267.716 142.054C267.428 142.186 267.086 142.252 266.69 142.252ZM271.082 142.18C270.578 142.18 270.17 142.018 269.858 141.694C269.558 141.358 269.402 140.896 269.39 140.308V140.236V136.168C269.39 135.592 269.33 135.148 269.21 134.836C269.09 134.512 268.898 134.29 268.634 134.17C268.37 134.038 268.034 133.972 267.626 133.972C267.386 133.972 267.128 133.996 266.852 134.044C266.588 134.092 266.294 134.182 265.97 134.314L266.708 133.684L266.312 135.25C266.24 135.55 266.126 135.778 265.97 135.934C265.814 136.09 265.61 136.168 265.358 136.168C265.094 136.168 264.89 136.102 264.746 135.97C264.602 135.826 264.512 135.646 264.476 135.43C264.644 134.722 265.046 134.164 265.682 133.756C266.33 133.336 267.122 133.126 268.058 133.126C268.694 133.126 269.222 133.228 269.642 133.432C270.062 133.636 270.38 133.966 270.596 134.422C270.824 134.878 270.938 135.484 270.938 136.24V140.128C270.938 140.512 270.998 140.788 271.118 140.956C271.238 141.112 271.406 141.19 271.622 141.19C271.778 141.19 271.91 141.16 272.018 141.1C272.126 141.028 272.228 140.938 272.324 140.83L272.666 141.316C272.462 141.616 272.228 141.838 271.964 141.982C271.712 142.114 271.418 142.18 271.082 142.18ZM276.491 142.234C275.951 142.234 275.459 142.174 275.015 142.054C274.571 141.946 274.133 141.784 273.701 141.568L273.629 139.516H274.655L275.123 141.676H274.331V140.74C274.631 140.956 274.961 141.118 275.321 141.226C275.681 141.334 276.077 141.388 276.509 141.388C276.977 141.388 277.361 141.328 277.661 141.208C277.961 141.088 278.177 140.926 278.309 140.722C278.453 140.506 278.525 140.266 278.525 140.002C278.525 139.606 278.387 139.294 278.111 139.066C277.835 138.838 277.409 138.628 276.833 138.436L276.095 138.148C275.615 137.98 275.195 137.788 274.835 137.572C274.487 137.344 274.217 137.074 274.025 136.762C273.845 136.45 273.755 136.084 273.755 135.664C273.755 135.208 273.875 134.788 274.115 134.404C274.367 134.02 274.733 133.714 275.213 133.486C275.705 133.246 276.287 133.126 276.959 133.126C277.463 133.126 277.925 133.186 278.345 133.306C278.777 133.426 279.179 133.6 279.551 133.828L279.497 135.736H278.525L278.147 133.846H278.831V134.62C278.543 134.404 278.243 134.242 277.931 134.134C277.619 134.026 277.295 133.972 276.959 133.972C276.383 133.972 275.951 134.086 275.663 134.314C275.375 134.542 275.231 134.842 275.231 135.214C275.231 135.598 275.357 135.898 275.609 136.114C275.861 136.318 276.293 136.528 276.905 136.744L277.445 136.942C278.057 137.146 278.555 137.386 278.939 137.662C279.323 137.926 279.599 138.22 279.767 138.544C279.947 138.856 280.037 139.216 280.037 139.624C280.037 140.092 279.899 140.524 279.623 140.92C279.359 141.316 278.963 141.634 278.435 141.874C277.919 142.114 277.271 142.234 276.491 142.234ZM281.447 142V141.28L283.427 140.974H283.877L285.731 141.28V142H281.447ZM282.797 142C282.809 141.7 282.815 141.328 282.815 140.884C282.827 140.428 282.833 139.96 282.833 139.48C282.845 139 282.851 138.568 282.851 138.184V137.32C282.851 136.84 282.845 136.426 282.833 136.078C282.833 135.73 282.821 135.37 282.797 134.998L281.357 134.872V134.188L284.111 133.162L284.453 133.306L284.399 135.664V138.184C284.399 138.568 284.399 139 284.399 139.48C284.411 139.96 284.417 140.428 284.417 140.884C284.429 141.328 284.441 141.7 284.453 142H282.797ZM283.535 131.344C283.199 131.344 282.911 131.236 282.671 131.02C282.443 130.792 282.329 130.51 282.329 130.174C282.329 129.838 282.443 129.562 282.671 129.346C282.911 129.118 283.199 129.004 283.535 129.004C283.883 129.004 284.171 129.118 284.399 129.346C284.639 129.562 284.759 129.838 284.759 130.174C284.759 130.51 284.639 130.792 284.399 131.02C284.171 131.236 283.883 131.344 283.535 131.344ZM287.056 142V141.28L289.036 140.974H289.468L291.304 141.28V142H287.056ZM288.406 142C288.406 141.7 288.406 141.328 288.406 140.884C288.418 140.428 288.424 139.96 288.424 139.48C288.436 139 288.442 138.568 288.442 138.184V137.302C288.442 136.978 288.436 136.69 288.424 136.438C288.424 136.186 288.418 135.946 288.406 135.718C288.406 135.49 288.406 135.25 288.406 134.998L286.948 134.872V134.188L289.414 133.162L289.756 133.306L289.99 135.34L290.008 135.358V138.184C290.008 138.568 290.008 139 290.008 139.48C290.02 139.96 290.026 140.428 290.026 140.884C290.038 141.328 290.044 141.7 290.044 142H288.406ZM292.654 142V141.28L294.634 140.974H295.066L296.92 141.28V142H292.654ZM293.986 142C293.998 141.7 294.004 141.328 294.004 140.884C294.016 140.44 294.022 139.978 294.022 139.498C294.034 139.018 294.04 138.58 294.04 138.184V136.582C294.04 135.778 293.92 135.226 293.68 134.926C293.44 134.614 293.05 134.458 292.51 134.458C292.222 134.458 291.934 134.5 291.646 134.584C291.358 134.668 291.064 134.8 290.764 134.98C290.464 135.16 290.146 135.394 289.81 135.682L289.612 134.98H289.846C290.134 134.62 290.458 134.302 290.818 134.026C291.178 133.75 291.562 133.534 291.97 133.378C292.378 133.21 292.786 133.126 293.194 133.126C293.998 133.126 294.598 133.39 294.994 133.918C295.39 134.434 295.588 135.262 295.588 136.402V138.184C295.588 138.58 295.588 139.018 295.588 139.498C295.6 139.978 295.606 140.44 295.606 140.884C295.606 141.328 295.612 141.7 295.624 142H293.986ZM301.729 146.302C300.901 146.302 300.217 146.206 299.677 146.014C299.137 145.822 298.735 145.558 298.471 145.222C298.207 144.886 298.075 144.508 298.075 144.088C298.075 143.776 298.153 143.488 298.309 143.224C298.465 142.972 298.717 142.726 299.065 142.486C299.425 142.258 299.905 142.036 300.505 141.82L300.613 141.928C300.385 142.132 300.193 142.336 300.037 142.54C299.881 142.744 299.767 142.942 299.695 143.134C299.635 143.338 299.605 143.56 299.605 143.8C299.605 144.16 299.695 144.46 299.875 144.7C300.067 144.952 300.337 145.132 300.685 145.24C301.045 145.36 301.477 145.42 301.981 145.42C302.641 145.42 303.193 145.336 303.637 145.168C304.093 145 304.435 144.778 304.663 144.502C304.903 144.226 305.023 143.92 305.023 143.584C305.023 143.188 304.879 142.858 304.591 142.594C304.315 142.342 303.859 142.216 303.223 142.216H301.045C300.889 142.216 300.721 142.21 300.541 142.198C300.373 142.186 300.211 142.168 300.055 142.144V142.018C299.599 141.922 299.245 141.76 298.993 141.532C298.753 141.304 298.633 140.992 298.633 140.596C298.633 140.284 298.747 139.966 298.975 139.642C299.203 139.318 299.575 138.958 300.091 138.562V138.292L300.811 138.526C300.523 138.802 300.313 139.048 300.181 139.264C300.049 139.468 299.983 139.678 299.983 139.894C299.983 140.218 300.085 140.458 300.289 140.614C300.505 140.77 300.835 140.848 301.279 140.848H303.493C304.153 140.848 304.699 140.944 305.131 141.136C305.563 141.316 305.881 141.58 306.085 141.928C306.301 142.264 306.409 142.672 306.409 143.152C306.409 143.56 306.307 143.95 306.103 144.322C305.899 144.694 305.599 145.03 305.203 145.33C304.807 145.63 304.315 145.864 303.727 146.032C303.139 146.212 302.473 146.302 301.729 146.302ZM301.819 139.066C301.171 139.066 300.595 138.952 300.091 138.724C299.599 138.496 299.209 138.166 298.921 137.734C298.633 137.29 298.489 136.744 298.489 136.096C298.489 135.472 298.633 134.938 298.921 134.494C299.209 134.05 299.605 133.714 300.109 133.486C300.613 133.246 301.183 133.126 301.819 133.126C302.215 133.126 302.575 133.168 302.899 133.252C303.223 133.336 303.511 133.456 303.763 133.612C304.027 133.756 304.249 133.942 304.429 134.17L304.501 134.188C304.705 134.428 304.861 134.704 304.969 135.016C305.077 135.328 305.131 135.688 305.131 136.096C305.131 136.708 304.987 137.242 304.699 137.698C304.423 138.142 304.033 138.484 303.529 138.724C303.025 138.952 302.455 139.066 301.819 139.066ZM301.783 138.31C302.167 138.31 302.497 138.214 302.773 138.022C303.049 137.818 303.259 137.548 303.403 137.212C303.559 136.876 303.637 136.486 303.637 136.042C303.637 135.61 303.565 135.238 303.421 134.926C303.277 134.602 303.067 134.35 302.791 134.17C302.527 133.99 302.209 133.9 301.837 133.9C301.465 133.9 301.141 133.996 300.865 134.188C300.589 134.368 300.373 134.626 300.217 134.962C300.073 135.286 300.001 135.67 300.001 136.114C300.001 136.546 300.073 136.93 300.217 137.266C300.361 137.59 300.565 137.848 300.829 138.04C301.093 138.22 301.411 138.31 301.783 138.31ZM303.817 134.53V134.026H304.033L306.175 133.09L306.553 133.252V134.53H303.817ZM313.747 134.332V133.342H317.005V134.332H313.747ZM315.079 142.216C314.431 142.216 313.915 142.042 313.531 141.694C313.147 141.346 312.955 140.812 312.955 140.092C312.955 139.864 312.955 139.642 312.955 139.426C312.967 139.21 312.973 138.94 312.973 138.616V134.332H311.443V133.522L313.711 133.252L312.991 133.828L313.567 130.894H314.665L314.503 133.792L314.539 134.098V139.894C314.539 140.362 314.629 140.704 314.809 140.92C315.001 141.124 315.253 141.226 315.565 141.226C315.781 141.226 315.979 141.184 316.159 141.1C316.351 141.016 316.555 140.908 316.771 140.776L317.185 141.316C317.041 141.496 316.861 141.658 316.645 141.802C316.441 141.934 316.207 142.036 315.943 142.108C315.679 142.18 315.391 142.216 315.079 142.216ZM317.867 142V141.28L319.847 140.974H320.297L322.133 141.28V142H317.867ZM319.235 142C319.247 141.7 319.253 141.328 319.253 140.884C319.253 140.428 319.253 139.96 319.253 139.48C319.265 139 319.271 138.568 319.271 138.184V130.354L317.777 130.138V129.454L320.513 128.716L320.837 128.824L320.783 131.308L320.765 135.142L320.819 135.34V138.184C320.819 138.568 320.819 139 320.819 139.48C320.831 139.96 320.837 140.428 320.837 140.884C320.849 141.328 320.861 141.7 320.873 142H319.235ZM323.555 142V141.28L325.517 140.974H325.967L327.803 141.28V142H323.555ZM324.869 142C324.881 141.7 324.887 141.328 324.887 140.884C324.899 140.44 324.905 139.978 324.905 139.498C324.905 139.018 324.905 138.58 324.905 138.184V136.582C324.905 135.778 324.785 135.226 324.545 134.926C324.317 134.614 323.939 134.458 323.411 134.458C323.111 134.458 322.817 134.5 322.529 134.584C322.241 134.668 321.947 134.8 321.647 134.98C321.347 135.16 321.029 135.4 320.693 135.7L320.423 134.998H320.729C321.005 134.638 321.323 134.32 321.683 134.044C322.043 133.756 322.427 133.534 322.835 133.378C323.255 133.21 323.675 133.126 324.095 133.126C324.899 133.126 325.493 133.39 325.877 133.918C326.273 134.434 326.471 135.262 326.471 136.402V138.184C326.471 138.58 326.471 139.018 326.471 139.498C326.483 139.978 326.489 140.44 326.489 140.884C326.501 141.328 326.513 141.7 326.525 142H324.869ZM333.37 142.234C332.506 142.234 331.756 142.06 331.12 141.712C330.496 141.352 330.01 140.842 329.662 140.182C329.326 139.51 329.158 138.712 329.158 137.788C329.158 136.852 329.338 136.036 329.698 135.34C330.07 134.644 330.568 134.104 331.192 133.72C331.828 133.324 332.53 133.126 333.298 133.126C333.97 133.126 334.564 133.264 335.08 133.54C335.596 133.816 336.004 134.212 336.304 134.728C336.604 135.244 336.754 135.868 336.754 136.6C336.754 136.816 336.742 137.02 336.718 137.212C336.694 137.392 336.664 137.548 336.628 137.68H329.932V136.888H334.252C334.672 136.864 334.942 136.768 335.062 136.6C335.182 136.42 335.242 136.21 335.242 135.97C335.242 135.538 335.164 135.178 335.008 134.89C334.852 134.59 334.63 134.368 334.342 134.224C334.054 134.068 333.706 133.99 333.298 133.99C332.878 133.99 332.47 134.11 332.074 134.35C331.69 134.59 331.378 134.974 331.138 135.502C330.898 136.018 330.778 136.708 330.778 137.572C330.778 138.316 330.898 138.946 331.138 139.462C331.378 139.978 331.72 140.374 332.164 140.65C332.62 140.914 333.154 141.046 333.766 141.046C334.354 141.046 334.858 140.944 335.278 140.74C335.71 140.536 336.106 140.236 336.466 139.84L336.898 140.2C336.646 140.596 336.364 140.95 336.052 141.262C335.74 141.574 335.368 141.814 334.936 141.982C334.516 142.15 333.994 142.234 333.37 142.234ZM345.573 142.234C345.033 142.234 344.541 142.174 344.097 142.054C343.653 141.946 343.215 141.784 342.783 141.568L342.711 139.516H343.737L344.205 141.676H343.413V140.74C343.713 140.956 344.043 141.118 344.403 141.226C344.763 141.334 345.159 141.388 345.591 141.388C346.059 141.388 346.443 141.328 346.743 141.208C347.043 141.088 347.259 140.926 347.391 140.722C347.535 140.506 347.607 140.266 347.607 140.002C347.607 139.606 347.469 139.294 347.193 139.066C346.917 138.838 346.491 138.628 345.915 138.436L345.177 138.148C344.697 137.98 344.277 137.788 343.917 137.572C343.569 137.344 343.299 137.074 343.107 136.762C342.927 136.45 342.837 136.084 342.837 135.664C342.837 135.208 342.957 134.788 343.197 134.404C343.449 134.02 343.815 133.714 344.295 133.486C344.787 133.246 345.369 133.126 346.041 133.126C346.545 133.126 347.007 133.186 347.427 133.306C347.859 133.426 348.261 133.6 348.633 133.828L348.579 135.736H347.607L347.229 133.846H347.913V134.62C347.625 134.404 347.325 134.242 347.013 134.134C346.701 134.026 346.377 133.972 346.041 133.972C345.465 133.972 345.033 134.086 344.745 134.314C344.457 134.542 344.313 134.842 344.313 135.214C344.313 135.598 344.439 135.898 344.691 136.114C344.943 136.318 345.375 136.528 345.987 136.744L346.527 136.942C347.139 137.146 347.637 137.386 348.021 137.662C348.405 137.926 348.681 138.22 348.849 138.544C349.029 138.856 349.119 139.216 349.119 139.624C349.119 140.092 348.981 140.524 348.705 140.92C348.441 141.316 348.045 141.634 347.517 141.874C347.001 142.114 346.353 142.234 345.573 142.234ZM350.318 146.266V145.546L352.352 145.258H352.802L354.998 145.546V146.266H350.318ZM351.758 146.266C351.77 145.846 351.776 145.432 351.776 145.024C351.788 144.616 351.794 144.202 351.794 143.782C351.806 143.374 351.812 142.966 351.812 142.558V137.302C351.812 136.978 351.806 136.69 351.794 136.438C351.794 136.186 351.788 135.946 351.776 135.718C351.776 135.49 351.77 135.25 351.758 134.998L350.318 134.872V134.188L352.766 133.162L353.108 133.306L353.288 134.872L353.36 134.926V140.542L353.306 140.632L353.324 142.594C353.324 142.99 353.324 143.392 353.324 143.8C353.336 144.22 353.342 144.634 353.342 145.042C353.354 145.45 353.36 145.858 353.36 146.266H351.758ZM355.826 142.234C355.478 142.234 355.142 142.174 354.818 142.054C354.494 141.946 354.182 141.766 353.882 141.514C353.594 141.25 353.318 140.908 353.054 140.488H352.586L352.712 139.426C353.18 140.038 353.63 140.482 354.062 140.758C354.506 141.034 354.962 141.172 355.43 141.172C355.898 141.172 356.312 141.052 356.672 140.812C357.044 140.572 357.338 140.2 357.554 139.696C357.782 139.192 357.896 138.55 357.896 137.77C357.896 136.606 357.68 135.718 357.248 135.106C356.816 134.494 356.27 134.188 355.61 134.188C355.346 134.188 355.064 134.242 354.764 134.35C354.476 134.458 354.164 134.638 353.828 134.89C353.492 135.13 353.114 135.46 352.694 135.88L352.568 134.908H353.054C353.354 134.512 353.66 134.182 353.972 133.918C354.284 133.654 354.614 133.456 354.962 133.324C355.31 133.192 355.676 133.126 356.06 133.126C356.72 133.126 357.314 133.306 357.842 133.666C358.37 134.026 358.784 134.542 359.084 135.214C359.396 135.886 359.552 136.696 359.552 137.644C359.552 138.592 359.39 139.408 359.066 140.092C358.742 140.776 358.298 141.304 357.734 141.676C357.182 142.048 356.546 142.234 355.826 142.234ZM365.397 142.234C364.677 142.234 363.993 142.066 363.345 141.73C362.709 141.394 362.193 140.89 361.797 140.218C361.401 139.534 361.203 138.7 361.203 137.716C361.203 136.72 361.401 135.88 361.797 135.196C362.193 134.512 362.709 133.996 363.345 133.648C363.993 133.3 364.677 133.126 365.397 133.126C366.117 133.126 366.795 133.3 367.431 133.648C368.079 133.984 368.601 134.494 368.997 135.178C369.405 135.862 369.609 136.702 369.609 137.698C369.609 138.682 369.405 139.516 368.997 140.2C368.601 140.872 368.079 141.382 367.431 141.73C366.795 142.066 366.117 142.234 365.397 142.234ZM365.397 141.37C365.925 141.37 366.369 141.232 366.729 140.956C367.101 140.68 367.383 140.272 367.575 139.732C367.779 139.192 367.881 138.52 367.881 137.716C367.881 136.9 367.779 136.216 367.575 135.664C367.383 135.112 367.101 134.698 366.729 134.422C366.369 134.134 365.925 133.99 365.397 133.99C364.869 133.99 364.419 134.134 364.047 134.422C363.687 134.698 363.411 135.112 363.219 135.664C363.027 136.204 362.931 136.882 362.931 137.698C362.931 138.514 363.027 139.192 363.219 139.732C363.411 140.272 363.687 140.68 364.047 140.956C364.419 141.232 364.869 141.37 365.397 141.37ZM372.809 134.332V133.342H376.067V134.332H372.809ZM374.141 142.216C373.493 142.216 372.977 142.042 372.593 141.694C372.209 141.346 372.017 140.812 372.017 140.092C372.017 139.864 372.017 139.642 372.017 139.426C372.029 139.21 372.035 138.94 372.035 138.616V134.332H370.505V133.522L372.773 133.252L372.053 133.828L372.629 130.894H373.727L373.565 133.792L373.601 134.098V139.894C373.601 140.362 373.691 140.704 373.871 140.92C374.063 141.124 374.315 141.226 374.627 141.226C374.843 141.226 375.041 141.184 375.221 141.1C375.413 141.016 375.617 140.908 375.833 140.776L376.247 141.316C376.103 141.496 375.923 141.658 375.707 141.802C375.503 141.934 375.269 142.036 375.005 142.108C374.741 142.18 374.453 142.216 374.141 142.216ZM376.858 142V141.28L378.892 140.974H379.324L381.376 141.28V142H376.858ZM378.298 142C378.31 141.58 378.316 141.16 378.316 140.74C378.316 140.308 378.316 139.882 378.316 139.462C378.328 139.03 378.334 138.604 378.334 138.184V130.354L376.84 130.138V129.454L379.612 128.716L379.954 128.824L379.882 131.308V138.184C379.882 138.604 379.882 139.03 379.882 139.462C379.894 139.882 379.9 140.308 379.9 140.74C379.912 141.16 379.924 141.58 379.936 142H378.298ZM382.539 142V141.28L384.519 140.974H384.969L386.823 141.28V142H382.539ZM383.889 142C383.901 141.7 383.907 141.328 383.907 140.884C383.919 140.428 383.925 139.96 383.925 139.48C383.937 139 383.943 138.568 383.943 138.184V137.32C383.943 136.84 383.937 136.426 383.925 136.078C383.925 135.73 383.913 135.37 383.889 134.998L382.449 134.872V134.188L385.203 133.162L385.545 133.306L385.491 135.664V138.184C385.491 138.568 385.491 139 385.491 139.48C385.503 139.96 385.509 140.428 385.509 140.884C385.521 141.328 385.533 141.7 385.545 142H383.889ZM384.627 131.344C384.291 131.344 384.003 131.236 383.763 131.02C383.535 130.792 383.421 130.51 383.421 130.174C383.421 129.838 383.535 129.562 383.763 129.346C384.003 129.118 384.291 129.004 384.627 129.004C384.975 129.004 385.263 129.118 385.491 129.346C385.731 129.562 385.851 129.838 385.851 130.174C385.851 130.51 385.731 130.792 385.491 131.02C385.263 131.236 384.975 131.344 384.627 131.344ZM391.694 146.302C390.866 146.302 390.182 146.206 389.642 146.014C389.102 145.822 388.7 145.558 388.436 145.222C388.172 144.886 388.04 144.508 388.04 144.088C388.04 143.776 388.118 143.488 388.274 143.224C388.43 142.972 388.682 142.726 389.03 142.486C389.39 142.258 389.87 142.036 390.47 141.82L390.578 141.928C390.35 142.132 390.158 142.336 390.002 142.54C389.846 142.744 389.732 142.942 389.66 143.134C389.6 143.338 389.57 143.56 389.57 143.8C389.57 144.16 389.66 144.46 389.84 144.7C390.032 144.952 390.302 145.132 390.65 145.24C391.01 145.36 391.442 145.42 391.946 145.42C392.606 145.42 393.158 145.336 393.602 145.168C394.058 145 394.4 144.778 394.628 144.502C394.868 144.226 394.988 143.92 394.988 143.584C394.988 143.188 394.844 142.858 394.556 142.594C394.28 142.342 393.824 142.216 393.188 142.216H391.01C390.854 142.216 390.686 142.21 390.506 142.198C390.338 142.186 390.176 142.168 390.02 142.144V142.018C389.564 141.922 389.21 141.76 388.958 141.532C388.718 141.304 388.598 140.992 388.598 140.596C388.598 140.284 388.712 139.966 388.94 139.642C389.168 139.318 389.54 138.958 390.056 138.562V138.292L390.776 138.526C390.488 138.802 390.278 139.048 390.146 139.264C390.014 139.468 389.948 139.678 389.948 139.894C389.948 140.218 390.05 140.458 390.254 140.614C390.47 140.77 390.8 140.848 391.244 140.848H393.458C394.118 140.848 394.664 140.944 395.096 141.136C395.528 141.316 395.846 141.58 396.05 141.928C396.266 142.264 396.374 142.672 396.374 143.152C396.374 143.56 396.272 143.95 396.068 144.322C395.864 144.694 395.564 145.03 395.168 145.33C394.772 145.63 394.28 145.864 393.692 146.032C393.104 146.212 392.438 146.302 391.694 146.302ZM391.784 139.066C391.136 139.066 390.56 138.952 390.056 138.724C389.564 138.496 389.174 138.166 388.886 137.734C388.598 137.29 388.454 136.744 388.454 136.096C388.454 135.472 388.598 134.938 388.886 134.494C389.174 134.05 389.57 133.714 390.074 133.486C390.578 133.246 391.148 133.126 391.784 133.126C392.18 133.126 392.54 133.168 392.864 133.252C393.188 133.336 393.476 133.456 393.728 133.612C393.992 133.756 394.214 133.942 394.394 134.17L394.466 134.188C394.67 134.428 394.826 134.704 394.934 135.016C395.042 135.328 395.096 135.688 395.096 136.096C395.096 136.708 394.952 137.242 394.664 137.698C394.388 138.142 393.998 138.484 393.494 138.724C392.99 138.952 392.42 139.066 391.784 139.066ZM391.748 138.31C392.132 138.31 392.462 138.214 392.738 138.022C393.014 137.818 393.224 137.548 393.368 137.212C393.524 136.876 393.602 136.486 393.602 136.042C393.602 135.61 393.53 135.238 393.386 134.926C393.242 134.602 393.032 134.35 392.756 134.17C392.492 133.99 392.174 133.9 391.802 133.9C391.43 133.9 391.106 133.996 390.83 134.188C390.554 134.368 390.338 134.626 390.182 134.962C390.038 135.286 389.966 135.67 389.966 136.114C389.966 136.546 390.038 136.93 390.182 137.266C390.326 137.59 390.53 137.848 390.794 138.04C391.058 138.22 391.376 138.31 391.748 138.31ZM393.782 134.53V134.026H393.998L396.14 133.09L396.518 133.252V134.53H393.782ZM397.356 142V141.28L399.336 140.974H399.786L401.622 141.28V142H397.356ZM398.724 142C398.736 141.7 398.742 141.328 398.742 140.884C398.742 140.428 398.742 139.96 398.742 139.48C398.754 139 398.76 138.568 398.76 138.184V130.354L397.266 130.138V129.454L400.002 128.716L400.326 128.824L400.272 131.308L400.254 135.142L400.308 135.34V138.184C400.308 138.568 400.308 139 400.308 139.48C400.32 139.96 400.326 140.428 400.326 140.884C400.338 141.328 400.35 141.7 400.362 142H398.724ZM403.044 142V141.28L405.006 140.974H405.456L407.292 141.28V142H403.044ZM404.358 142C404.37 141.7 404.376 141.328 404.376 140.884C404.388 140.44 404.394 139.978 404.394 139.498C404.394 139.018 404.394 138.58 404.394 138.184V136.582C404.394 135.778 404.274 135.226 404.034 134.926C403.806 134.614 403.428 134.458 402.9 134.458C402.6 134.458 402.306 134.5 402.018 134.584C401.73 134.668 401.436 134.8 401.136 134.98C400.836 135.16 400.518 135.4 400.182 135.7L399.912 134.998H400.218C400.494 134.638 400.812 134.32 401.172 134.044C401.532 133.756 401.916 133.534 402.324 133.378C402.744 133.21 403.164 133.126 403.584 133.126C404.388 133.126 404.982 133.39 405.366 133.918C405.762 134.434 405.96 135.262 405.96 136.402V138.184C405.96 138.58 405.96 139.018 405.96 139.498C405.972 139.978 405.978 140.44 405.978 140.884C405.99 141.328 406.002 141.7 406.014 142H404.358ZM410.25 134.332V133.342H413.508V134.332H410.25ZM411.582 142.216C410.934 142.216 410.418 142.042 410.034 141.694C409.65 141.346 409.458 140.812 409.458 140.092C409.458 139.864 409.458 139.642 409.458 139.426C409.47 139.21 409.476 138.94 409.476 138.616V134.332H407.946V133.522L410.214 133.252L409.494 133.828L410.07 130.894H411.168L411.006 133.792L411.042 134.098V139.894C411.042 140.362 411.132 140.704 411.312 140.92C411.504 141.124 411.756 141.226 412.068 141.226C412.284 141.226 412.482 141.184 412.662 141.1C412.854 141.016 413.058 140.908 413.274 140.776L413.688 141.316C413.544 141.496 413.364 141.658 413.148 141.802C412.944 141.934 412.71 142.036 412.446 142.108C412.182 142.18 411.894 142.216 411.582 142.216ZM416.477 142.234C416.117 142.234 415.811 142.108 415.559 141.856C415.319 141.604 415.199 141.304 415.199 140.956C415.199 140.596 415.319 140.29 415.559 140.038C415.811 139.786 416.117 139.66 416.477 139.66C416.837 139.66 417.143 139.786 417.395 140.038C417.647 140.29 417.773 140.596 417.773 140.956C417.773 141.304 417.647 141.604 417.395 141.856C417.143 142.108 416.837 142.234 416.477 142.234Z" fill="#FFECE7"/>
<path d="M111.5 201.125H102.125V198C102.125 185.812 92.4375 176.125 80.25 176.125H74H67.75C55.5625 176.125 45.875 185.812 45.875 198V201.125H36.5C31.1875 201.125 27.125 205.188 27.125 210.5V260.5C27.125 265.5 31.1875 269.875 36.5 269.875H74H111.5C116.813 269.875 120.875 265.5 120.875 260.5V210.5C120.875 205.188 116.813 201.125 111.5 201.125ZM95.875 201.125H74H52.125V198C52.125 189.25 59 182.375 67.75 182.375H74H80.25C89 182.375 95.875 189.25 95.875 198V201.125Z" fill="#FFECE7"/>
<path d="M80.25 176.125H74H67.75C55.5625 176.125 45.875 185.812 45.875 198V223C45.875 224.563 47.4375 226.125 49 226.125C50.5625 226.125 52.125 224.563 52.125 223V198C52.125 189.25 59 182.375 67.75 182.375H74H80.25C89 182.375 95.875 189.25 95.875 198V223C95.875 224.563 97.4375 226.125 99 226.125C100.563 226.125 102.125 224.563 102.125 223V198C102.125 185.812 92.4375 176.125 80.25 176.125Z" fill="#FFECE7"/>
</svg>
