<svg width="538" height="316" viewBox="0 0 538 316" fill="none" xmlns="http://www.w3.org/2000/svg">
<rect width="538" height="316" rx="8" fill="#2F2F2F"/>
<rect x="24" y="39.5" width="72" height="25" rx="12.5" fill="#FFF9F2"/>
<path d="M33.3202 56.5L34.7062 47.428H35.5182L34.1322 56.5H33.3202ZM32.4522 52.832H38.8222V54.036H32.4522V52.832ZM39.2842 51.068H32.9002V49.85H39.2842V51.068ZM36.2322 56.5L37.6322 47.428H38.4442L37.0442 56.5H36.2322ZM40.3784 56.5V55.436C40.7424 55.1 41.1017 54.7687 41.4564 54.442C41.8111 54.106 42.1517 53.7793 42.4784 53.462C42.9731 52.9673 43.3744 52.5147 43.6824 52.104C43.9997 51.6933 44.2331 51.3013 44.3824 50.928C44.5317 50.5547 44.6064 50.186 44.6064 49.822C44.6064 49.262 44.4477 48.8187 44.1304 48.492C43.8224 48.1653 43.3931 48.002 42.8424 48.002C42.5997 48.002 42.3664 48.0207 42.1424 48.058C41.9277 48.086 41.7084 48.1373 41.4844 48.212L42.3384 47.736L42.0444 48.968C41.9884 49.2013 41.9137 49.3973 41.8204 49.556C41.7364 49.7147 41.6337 49.8313 41.5124 49.906C41.3911 49.9807 41.2464 50.018 41.0784 50.018C40.8544 50.018 40.6771 49.962 40.5464 49.85C40.4157 49.7287 40.3224 49.598 40.2664 49.458C40.3317 49.0007 40.4997 48.6133 40.7704 48.296C41.0504 47.9787 41.4051 47.736 41.8344 47.568C42.2731 47.3907 42.7584 47.302 43.2904 47.302C43.9064 47.302 44.4337 47.4 44.8724 47.596C45.3111 47.7827 45.6471 48.058 45.8804 48.422C46.1137 48.786 46.2304 49.22 46.2304 49.724C46.2304 50.1533 46.1324 50.564 45.9364 50.956C45.7497 51.348 45.4464 51.7633 45.0264 52.202C44.6064 52.6407 44.0464 53.1493 43.3464 53.728C43.1317 53.896 42.9124 54.064 42.6884 54.232C42.4644 54.4 42.2311 54.568 41.9884 54.736C41.7551 54.904 41.5171 55.0767 41.2744 55.254L41.4704 54.806V55.17H46.5104V56.5H40.3784ZM47.6736 56.5V55.73L49.5356 55.618H50.1656L52.1256 55.73V56.5H47.6736ZM48.9756 56.5C48.9849 56.024 48.9896 55.548 48.9896 55.072C48.9989 54.596 49.0036 54.1153 49.0036 53.63C49.0036 53.1447 49.0036 52.6593 49.0036 52.174V51.474C49.0036 50.998 49.0036 50.522 49.0036 50.046C49.0036 49.5607 48.9989 49.08 48.9896 48.604C48.9896 48.1187 48.9849 47.638 48.9756 47.162H50.6836C50.6836 47.638 50.6789 48.114 50.6696 48.59C50.6696 49.066 50.6696 49.5467 50.6696 50.032C50.6696 50.508 50.6696 50.9887 50.6696 51.474V52.104C50.6696 52.608 50.6696 53.1073 50.6696 53.602C50.6696 54.0873 50.6696 54.5727 50.6696 55.058C50.6789 55.534 50.6836 56.0147 50.6836 56.5H48.9756ZM49.8296 52.16V51.362H53.2036V52.16H49.8296ZM52.8956 53.448L52.6296 51.978V51.572L52.8956 50.13H53.6796V53.448H52.8956ZM47.6736 47.932V47.162H49.7316V48.044H49.5356L47.6736 47.932ZM54.3096 49.654L53.8336 47.484L54.4216 47.988H49.8296V47.162H55.1076L55.2196 49.654H54.3096ZM56.4702 56.5V55.436C56.8342 55.1 57.1935 54.7687 57.5482 54.442C57.9029 54.106 58.2435 53.7793 58.5702 53.462C59.0649 52.9673 59.4662 52.5147 59.7742 52.104C60.0915 51.6933 60.3249 51.3013 60.4742 50.928C60.6235 50.5547 60.6982 50.186 60.6982 49.822C60.6982 49.262 60.5395 48.8187 60.2222 48.492C59.9142 48.1653 59.4849 48.002 58.9342 48.002C58.6915 48.002 58.4582 48.0207 58.2342 48.058C58.0195 48.086 57.8002 48.1373 57.5762 48.212L58.4302 47.736L58.1362 48.968C58.0802 49.2013 58.0055 49.3973 57.9122 49.556C57.8282 49.7147 57.7255 49.8313 57.6042 49.906C57.4829 49.9807 57.3382 50.018 57.1702 50.018C56.9462 50.018 56.7689 49.962 56.6382 49.85C56.5075 49.7287 56.4142 49.598 56.3582 49.458C56.4235 49.0007 56.5915 48.6133 56.8622 48.296C57.1422 47.9787 57.4969 47.736 57.9262 47.568C58.3649 47.3907 58.8502 47.302 59.3822 47.302C59.9982 47.302 60.5255 47.4 60.9642 47.596C61.4029 47.7827 61.7389 48.058 61.9722 48.422C62.2055 48.786 62.3222 49.22 62.3222 49.724C62.3222 50.1533 62.2242 50.564 62.0282 50.956C61.8415 51.348 61.5382 51.7633 61.1182 52.202C60.6982 52.6407 60.1382 53.1493 59.4382 53.728C59.2235 53.896 59.0042 54.064 58.7802 54.232C58.5562 54.4 58.3229 54.568 58.0802 54.736C57.8469 54.904 57.6089 55.0767 57.3662 55.254L57.5622 54.806V55.17H62.6022V56.5H56.4702ZM63.7654 56.5V55.73L65.6274 55.618H66.2574L68.2174 55.73V56.5H63.7654ZM65.0674 56.5C65.0767 56.024 65.0814 55.548 65.0814 55.072C65.0907 54.596 65.0954 54.1153 65.0954 53.63C65.0954 53.1447 65.0954 52.6593 65.0954 52.174V51.474C65.0954 50.998 65.0954 50.522 65.0954 50.046C65.0954 49.5607 65.0907 49.08 65.0814 48.604C65.0814 48.1187 65.0767 47.638 65.0674 47.162H66.7754C66.7754 47.638 66.7707 48.114 66.7614 48.59C66.7614 49.066 66.7614 49.5467 66.7614 50.032C66.7614 50.508 66.7614 50.9887 66.7614 51.474V52.104C66.7614 52.608 66.7614 53.1073 66.7614 53.602C66.7614 54.0873 66.7614 54.5727 66.7614 55.058C66.7707 55.534 66.7754 56.0147 66.7754 56.5H65.0674ZM65.9214 52.16V51.362H69.2954V52.16H65.9214ZM68.9874 53.448L68.7214 51.978V51.572L68.9874 50.13H69.7714V53.448H68.9874ZM63.7654 47.932V47.162H65.8234V48.044H65.6274L63.7654 47.932ZM70.4014 49.654L69.9254 47.484L70.5134 47.988H65.9214V47.162H71.1994L71.3114 49.654H70.4014ZM72.562 56.5V55.436C72.926 55.1 73.2853 54.7687 73.64 54.442C73.9947 54.106 74.3353 53.7793 74.662 53.462C75.1567 52.9673 75.558 52.5147 75.866 52.104C76.1833 51.6933 76.4167 51.3013 76.566 50.928C76.7153 50.5547 76.79 50.186 76.79 49.822C76.79 49.262 76.6313 48.8187 76.314 48.492C76.006 48.1653 75.5767 48.002 75.026 48.002C74.7833 48.002 74.55 48.0207 74.326 48.058C74.1113 48.086 73.892 48.1373 73.668 48.212L74.522 47.736L74.228 48.968C74.172 49.2013 74.0973 49.3973 74.004 49.556C73.92 49.7147 73.8173 49.8313 73.696 49.906C73.5747 49.9807 73.43 50.018 73.262 50.018C73.038 50.018 72.8607 49.962 72.73 49.85C72.5993 49.7287 72.506 49.598 72.45 49.458C72.5153 49.0007 72.6833 48.6133 72.954 48.296C73.234 47.9787 73.5887 47.736 74.018 47.568C74.4567 47.3907 74.942 47.302 75.474 47.302C76.09 47.302 76.6173 47.4 77.056 47.596C77.4947 47.7827 77.8307 48.058 78.064 48.422C78.2973 48.786 78.414 49.22 78.414 49.724C78.414 50.1533 78.316 50.564 78.12 50.956C77.9333 51.348 77.63 51.7633 77.21 52.202C76.79 52.6407 76.23 53.1493 75.53 53.728C75.3153 53.896 75.096 54.064 74.872 54.232C74.648 54.4 74.4147 54.568 74.172 54.736C73.9387 54.904 73.7007 55.0767 73.458 55.254L73.654 54.806V55.17H78.694V56.5H72.562ZM79.8572 56.5V55.73L81.7192 55.618H82.3492L84.3092 55.73V56.5H79.8572ZM81.1592 56.5C81.1685 56.024 81.1732 55.548 81.1732 55.072C81.1825 54.596 81.1872 54.1153 81.1872 53.63C81.1872 53.1447 81.1872 52.6593 81.1872 52.174V51.474C81.1872 50.998 81.1872 50.522 81.1872 50.046C81.1872 49.5607 81.1825 49.08 81.1732 48.604C81.1732 48.1187 81.1685 47.638 81.1592 47.162H82.8672C82.8672 47.638 82.8625 48.114 82.8532 48.59C82.8532 49.066 82.8532 49.5467 82.8532 50.032C82.8532 50.508 82.8532 50.9887 82.8532 51.474V52.104C82.8532 52.608 82.8532 53.1073 82.8532 53.602C82.8532 54.0873 82.8532 54.5727 82.8532 55.058C82.8625 55.534 82.8672 56.0147 82.8672 56.5H81.1592ZM82.0132 52.16V51.362H85.3872V52.16H82.0132ZM85.0792 53.448L84.8132 51.978V51.572L85.0792 50.13H85.8632V53.448H85.0792ZM79.8572 47.932V47.162H81.9152V48.044H81.7192L79.8572 47.932ZM86.4932 49.654L86.0172 47.484L86.6052 47.988H82.0132V47.162H87.2912L87.4032 49.654H86.4932Z" fill="#2F2F2F"/>
<rect x="104" y="39.5" width="47" height="25" rx="12.5" fill="#FFF9F2"/>
<path d="M112.608 56.5V55.73L114.05 55.618H114.344L115.926 55.73V56.5H112.608ZM113.448 56.5L116.738 47.106H118.068L121.386 56.5H119.636L116.892 48.38H116.906L116.584 49.78L114.33 56.5H113.448ZM115.03 53.616V52.832H119.272V53.616H115.03ZM117.984 56.5V55.73L119.804 55.618H120.378L122.198 55.73V56.5H117.984ZM122.685 56.5V55.73L124.127 55.618H124.421L126.003 55.73V56.5H122.685ZM123.525 56.5L126.815 47.106H128.145L131.463 56.5H129.713L126.969 48.38H126.983L126.661 49.78L124.407 56.5H123.525ZM125.107 53.616V52.832H129.349V53.616H125.107ZM128.061 56.5V55.73L129.881 55.618H130.455L132.275 55.73V56.5H128.061ZM132.761 56.5V55.73L134.203 55.618H134.497L136.079 55.73V56.5H132.761ZM133.601 56.5L136.891 47.106H138.221L141.539 56.5H139.789L137.045 48.38H137.059L136.737 49.78L134.483 56.5H133.601ZM135.183 53.616V52.832H139.425V53.616H135.183ZM138.137 56.5V55.73L139.957 55.618H140.531L142.351 55.73V56.5H138.137Z" fill="#2F2F2F"/>
<path d="M43.41 102.535C43.41 103.475 43.235 104.43 42.885 105.4C42.535 106.37 42 107.27 41.28 108.1C40.57 108.92 39.67 109.58 38.58 110.08C37.49 110.58 36.21 110.83 34.74 110.83C32.75 110.83 31.05 110.345 29.64 109.375C28.24 108.395 27.17 107.05 26.43 105.34C25.7 103.63 25.335 101.665 25.335 99.445C25.335 97.215 25.7 95.245 26.43 93.535C27.17 91.825 28.24 90.485 29.64 89.515C31.05 88.545 32.75 88.06 34.74 88.06C36.39 88.06 37.8 88.375 38.97 89.005C40.14 89.635 41.075 90.445 41.775 91.435C42.475 92.425 42.945 93.46 43.185 94.54C43.335 95.17 43.41 95.77 43.41 96.34H39.435C39.435 96.05 39.415 95.75 39.375 95.44C39.265 94.68 39.01 93.99 38.61 93.37C38.22 92.74 37.7 92.245 37.05 91.885C36.4 91.515 35.63 91.33 34.74 91.33C33.68 91.33 32.745 91.625 31.935 92.215C31.135 92.805 30.505 93.7 30.045 94.9C29.585 96.1 29.355 97.615 29.355 99.445C29.355 101.255 29.585 102.765 30.045 103.975C30.505 105.185 31.135 106.09 31.935 106.69C32.745 107.29 33.68 107.59 34.74 107.59C35.5 107.59 36.17 107.45 36.75 107.17C37.33 106.89 37.82 106.515 38.22 106.045C38.62 105.565 38.92 105.025 39.12 104.425C39.33 103.825 39.435 103.195 39.435 102.535H43.41ZM63.2372 88.375V110.5H59.2772V99.7L61.0622 101.05H48.8522L50.6372 99.73V110.5H46.6772V88.375H50.6372V99.28L48.8522 97.9H61.0622L59.2772 99.265V88.375H63.2372ZM65.9606 110.5L71.6756 88.345H77.9156L83.5856 110.5H79.5206L74.7806 90.79H74.8106L70.0256 110.5H65.9606ZM69.6506 105.115V101.95H79.9406V105.115H69.6506ZM86.3159 110.5V88.375H94.8359C97.0659 88.375 98.7409 88.885 99.8609 89.905C100.981 90.925 101.541 92.425 101.541 94.405C101.541 95.565 101.321 96.55 100.881 97.36C100.441 98.17 99.9059 98.795 99.2759 99.235C98.6459 99.675 98.0459 99.925 97.4759 99.985C98.0559 100.025 98.6159 100.175 99.1559 100.435C99.6959 100.695 100.136 101.105 100.476 101.665C100.826 102.215 101.001 102.96 101.001 103.9C101.001 104.65 101.001 105.4 101.001 106.15C101.001 106.89 101.001 107.635 101.001 108.385C101.001 108.855 101.041 109.29 101.121 109.69C101.201 110.08 101.301 110.35 101.421 110.5H97.4459C97.3459 110.32 97.2559 110.045 97.1759 109.675C97.1059 109.295 97.0709 108.865 97.0709 108.385C97.0709 107.705 97.0709 107.04 97.0709 106.39C97.0709 105.73 97.0709 105.055 97.0709 104.365C97.0709 103.455 96.8159 102.765 96.3059 102.295C95.7959 101.825 95.0259 101.59 93.9959 101.59H89.1209L90.1709 100.255V110.5H86.3159ZM90.1709 99.925L89.1209 98.44H94.0259C94.6759 98.44 95.2609 98.29 95.7809 97.99C96.3009 97.68 96.7109 97.25 97.0109 96.7C97.3209 96.15 97.4759 95.505 97.4759 94.765C97.4759 93.685 97.1659 92.875 96.5459 92.335C95.9259 91.795 95.0459 91.525 93.9059 91.525H89.0159L90.1709 90.13V99.925ZM122.482 102.535C122.482 103.475 122.307 104.43 121.957 105.4C121.607 106.37 121.072 107.27 120.352 108.1C119.642 108.92 118.742 109.58 117.652 110.08C116.562 110.58 115.282 110.83 113.812 110.83C111.822 110.83 110.122 110.345 108.712 109.375C107.312 108.395 106.242 107.05 105.502 105.34C104.772 103.63 104.407 101.665 104.407 99.445C104.407 97.215 104.772 95.245 105.502 93.535C106.242 91.825 107.312 90.485 108.712 89.515C110.122 88.545 111.822 88.06 113.812 88.06C115.462 88.06 116.872 88.375 118.042 89.005C119.212 89.635 120.147 90.445 120.847 91.435C121.547 92.425 122.017 93.46 122.257 94.54C122.407 95.17 122.482 95.77 122.482 96.34H118.507C118.507 96.05 118.487 95.75 118.447 95.44C118.337 94.68 118.082 93.99 117.682 93.37C117.292 92.74 116.772 92.245 116.122 91.885C115.472 91.515 114.702 91.33 113.812 91.33C112.752 91.33 111.817 91.625 111.007 92.215C110.207 92.805 109.577 93.7 109.117 94.9C108.657 96.1 108.427 97.615 108.427 99.445C108.427 101.255 108.657 102.765 109.117 103.975C109.577 105.185 110.207 106.09 111.007 106.69C111.817 107.29 112.752 107.59 113.812 107.59C114.572 107.59 115.242 107.45 115.822 107.17C116.402 106.89 116.892 106.515 117.292 106.045C117.692 105.565 117.992 105.025 118.192 104.425C118.402 103.825 118.507 103.195 118.507 102.535H122.482ZM134.719 110.83C133.379 110.83 132.129 110.58 130.969 110.08C129.809 109.58 128.789 108.845 127.909 107.875C127.039 106.895 126.359 105.7 125.869 104.29C125.389 102.87 125.149 101.245 125.149 99.415C125.149 97.585 125.389 95.965 125.869 94.555C126.359 93.145 127.039 91.96 127.909 91C128.779 90.03 129.794 89.3 130.954 88.81C132.124 88.31 133.379 88.06 134.719 88.06C136.079 88.06 137.339 88.31 138.499 88.81C139.669 89.3 140.689 90.03 141.559 91C142.429 91.96 143.104 93.145 143.584 94.555C144.074 95.965 144.319 97.585 144.319 99.415C144.319 101.245 144.074 102.87 143.584 104.29C143.094 105.7 142.409 106.895 141.529 107.875C140.659 108.845 139.644 109.58 138.484 110.08C137.324 110.58 136.069 110.83 134.719 110.83ZM134.719 107.575C135.759 107.575 136.699 107.295 137.539 106.735C138.379 106.165 139.044 105.28 139.534 104.08C140.034 102.88 140.284 101.325 140.284 99.415C140.284 97.495 140.034 95.945 139.534 94.765C139.034 93.575 138.364 92.705 137.524 92.155C136.684 91.605 135.749 91.33 134.719 91.33C133.709 91.33 132.779 91.605 131.929 92.155C131.089 92.705 130.414 93.575 129.904 94.765C129.404 95.945 129.154 97.495 129.154 99.415C129.154 101.335 129.404 102.895 129.904 104.095C130.414 105.295 131.089 106.175 131.929 106.735C132.779 107.295 133.709 107.575 134.719 107.575ZM145.619 110.5L151.334 88.345H157.574L163.244 110.5H159.179L154.439 90.79H154.469L149.684 110.5H145.619ZM149.309 105.115V101.95H159.599V105.115H149.309ZM165.974 110.5V88.375H169.934V109.315L168.149 107.23H178.319V110.5H165.974ZM197.223 88.375C198.703 88.375 199.933 88.585 200.913 89.005C201.893 89.415 202.628 90.015 203.118 90.805C203.618 91.595 203.868 92.56 203.868 93.7C203.868 94.8 203.643 95.735 203.193 96.505C202.753 97.265 202.193 97.85 201.513 98.26C200.833 98.67 200.133 98.9 199.413 98.95C200.173 98.97 200.933 99.155 201.693 99.505C202.463 99.855 203.103 100.415 203.613 101.185C204.123 101.955 204.378 102.99 204.378 104.29C204.378 105.52 204.133 106.605 203.643 107.545C203.153 108.475 202.373 109.2 201.303 109.72C200.243 110.24 198.858 110.5 197.148 110.5H188.943V88.375H197.223ZM192.723 98.65L191.418 97.495H195.873C197.193 97.495 198.193 97.22 198.873 96.67C199.563 96.11 199.908 95.335 199.908 94.345C199.908 93.675 199.763 93.135 199.473 92.725C199.193 92.315 198.773 92.015 198.213 91.825C197.663 91.625 196.998 91.525 196.218 91.525H190.938L192.723 89.56V98.65ZM196.368 107.35C197.648 107.35 198.633 107.06 199.323 106.48C200.013 105.9 200.358 105.09 200.358 104.05C200.358 103.45 200.248 102.935 200.028 102.505C199.818 102.065 199.518 101.71 199.128 101.44C198.748 101.16 198.298 100.955 197.778 100.825C197.268 100.695 196.708 100.63 196.098 100.63H191.418L192.723 99.46V109.315L190.938 107.35H196.368ZM205.883 110.5L211.598 88.345H217.838L223.508 110.5H219.443L214.703 90.79H214.733L209.948 110.5H205.883ZM209.573 105.115V101.95H219.863V105.115H209.573ZM226.238 110.5V88.375H234.758C236.988 88.375 238.663 88.885 239.783 89.905C240.903 90.925 241.463 92.425 241.463 94.405C241.463 95.565 241.243 96.55 240.803 97.36C240.363 98.17 239.828 98.795 239.198 99.235C238.568 99.675 237.968 99.925 237.398 99.985C237.978 100.025 238.538 100.175 239.078 100.435C239.618 100.695 240.058 101.105 240.398 101.665C240.748 102.215 240.923 102.96 240.923 103.9C240.923 104.65 240.923 105.4 240.923 106.15C240.923 106.89 240.923 107.635 240.923 108.385C240.923 108.855 240.963 109.29 241.043 109.69C241.123 110.08 241.223 110.35 241.343 110.5H237.368C237.268 110.32 237.178 110.045 237.098 109.675C237.028 109.295 236.993 108.865 236.993 108.385C236.993 107.705 236.993 107.04 236.993 106.39C236.993 105.73 236.993 105.055 236.993 104.365C236.993 103.455 236.738 102.765 236.228 102.295C235.718 101.825 234.948 101.59 233.918 101.59H229.043L230.093 100.255V110.5H226.238ZM230.093 99.925L229.043 98.44H233.948C234.598 98.44 235.183 98.29 235.703 97.99C236.223 97.68 236.633 97.25 236.933 96.7C237.243 96.15 237.398 95.505 237.398 94.765C237.398 93.685 237.088 92.875 236.468 92.335C235.848 91.795 234.968 91.525 233.828 91.525H228.938L230.093 90.13V99.925ZM252.279 99.61L252.384 96.565L261.234 110.5H256.869L250.104 99.61L251.934 99.865L248.529 104.425L248.874 101.92V110.5H244.929V88.375H248.874V100.09L248.124 99.58L256.524 88.375H260.754L252.279 99.61Z" fill="#FFF9F2"/>
<path d="M28.302 138.77C27.594 138.77 26.922 138.674 26.286 138.482C25.65 138.29 25.128 138.068 24.72 137.816L24.81 135.26H25.926L26.412 138.014L25.242 137.582V136.682C25.602 136.934 25.932 137.15 26.232 137.33C26.532 137.498 26.838 137.624 27.15 137.708C27.474 137.792 27.846 137.834 28.266 137.834C28.842 137.834 29.34 137.75 29.76 137.582C30.18 137.402 30.498 137.15 30.714 136.826C30.942 136.502 31.056 136.118 31.056 135.674C31.056 135.29 30.978 134.966 30.822 134.702C30.666 134.438 30.426 134.204 30.102 134C29.778 133.796 29.358 133.598 28.842 133.406L28.14 133.136C27.516 132.884 26.964 132.596 26.484 132.272C26.004 131.948 25.626 131.558 25.35 131.102C25.086 130.646 24.954 130.106 24.954 129.482C24.954 128.786 25.128 128.192 25.476 127.7C25.836 127.208 26.322 126.83 26.934 126.566C27.558 126.302 28.26 126.17 29.04 126.17C29.676 126.17 30.246 126.26 30.75 126.44C31.266 126.608 31.704 126.824 32.064 127.088L31.974 129.5H30.876L30.354 126.8L31.524 127.286V128.222C31.092 127.826 30.678 127.544 30.282 127.376C29.898 127.196 29.454 127.106 28.95 127.106C28.482 127.106 28.062 127.184 27.69 127.34C27.33 127.496 27.042 127.724 26.826 128.024C26.622 128.324 26.52 128.684 26.52 129.104C26.52 129.476 26.598 129.8 26.754 130.076C26.922 130.352 27.156 130.598 27.456 130.814C27.768 131.018 28.146 131.21 28.59 131.39L29.292 131.642C30.072 131.942 30.708 132.266 31.2 132.614C31.692 132.95 32.052 133.34 32.28 133.784C32.52 134.216 32.64 134.732 32.64 135.332C32.64 136.04 32.454 136.652 32.082 137.168C31.722 137.684 31.218 138.08 30.57 138.356C29.922 138.632 29.166 138.77 28.302 138.77ZM35.7661 130.832V129.842H39.0241V130.832H35.7661ZM37.0981 138.716C36.4501 138.716 35.9341 138.542 35.5501 138.194C35.1661 137.846 34.9741 137.312 34.9741 136.592C34.9741 136.364 34.9741 136.142 34.9741 135.926C34.9861 135.71 34.9921 135.44 34.9921 135.116V130.832H33.4621V130.022L35.7301 129.752L35.0101 130.328L35.5861 127.394H36.6841L36.5221 130.292L36.5581 130.598V136.394C36.5581 136.862 36.6481 137.204 36.8281 137.42C37.0201 137.624 37.2721 137.726 37.5841 137.726C37.8001 137.726 37.9981 137.684 38.1781 137.6C38.3701 137.516 38.5741 137.408 38.7901 137.276L39.2041 137.816C39.0601 137.996 38.8801 138.158 38.6641 138.302C38.4601 138.434 38.2261 138.536 37.9621 138.608C37.6981 138.68 37.4101 138.716 37.0981 138.716ZM44.333 138.734C43.469 138.734 42.719 138.56 42.083 138.212C41.459 137.852 40.973 137.342 40.625 136.682C40.289 136.01 40.121 135.212 40.121 134.288C40.121 133.352 40.301 132.536 40.661 131.84C41.033 131.144 41.531 130.604 42.155 130.22C42.791 129.824 43.493 129.626 44.261 129.626C44.933 129.626 45.527 129.764 46.043 130.04C46.559 130.316 46.967 130.712 47.267 131.228C47.567 131.744 47.717 132.368 47.717 133.1C47.717 133.316 47.705 133.52 47.681 133.712C47.657 133.892 47.627 134.048 47.591 134.18H40.895V133.388H45.215C45.635 133.364 45.905 133.268 46.025 133.1C46.145 132.92 46.205 132.71 46.205 132.47C46.205 132.038 46.127 131.678 45.971 131.39C45.815 131.09 45.593 130.868 45.305 130.724C45.017 130.568 44.669 130.49 44.261 130.49C43.841 130.49 43.433 130.61 43.037 130.85C42.653 131.09 42.341 131.474 42.101 132.002C41.861 132.518 41.741 133.208 41.741 134.072C41.741 134.816 41.861 135.446 42.101 135.962C42.341 136.478 42.683 136.874 43.127 137.15C43.583 137.414 44.117 137.546 44.729 137.546C45.317 137.546 45.821 137.444 46.241 137.24C46.673 137.036 47.069 136.736 47.429 136.34L47.861 136.7C47.609 137.096 47.327 137.45 47.015 137.762C46.703 138.074 46.331 138.314 45.899 138.482C45.479 138.65 44.957 138.734 44.333 138.734ZM51.6916 138.752C51.0196 138.752 50.4436 138.56 49.9636 138.176C49.4956 137.78 49.2616 137.21 49.2616 136.466C49.2616 136.082 49.3396 135.734 49.4956 135.422C49.6636 135.098 49.9576 134.798 50.3776 134.522C50.8096 134.246 51.4216 133.994 52.2136 133.766C52.5496 133.658 52.8736 133.562 53.1856 133.478C53.5096 133.382 53.8276 133.292 54.1396 133.208C54.4636 133.112 54.7876 133.022 55.1116 132.938V133.604C54.6916 133.736 54.2776 133.868 53.8696 134C53.4616 134.132 53.0536 134.264 52.6456 134.396C52.1296 134.564 51.7456 134.75 51.4936 134.954C51.2416 135.146 51.0736 135.35 50.9896 135.566C50.9176 135.77 50.8816 135.98 50.8816 136.196C50.8816 136.652 51.0196 136.988 51.2956 137.204C51.5716 137.42 51.9196 137.528 52.3396 137.528C52.5796 137.528 52.8016 137.492 53.0056 137.42C53.2096 137.336 53.4496 137.198 53.7256 137.006C54.0136 136.802 54.3796 136.526 54.8236 136.178L55.0396 137.114H54.4636C54.1396 137.462 53.8396 137.756 53.5636 137.996C53.2996 138.236 53.0176 138.422 52.7176 138.554C52.4296 138.686 52.0876 138.752 51.6916 138.752ZM56.0836 138.68C55.5796 138.68 55.1716 138.518 54.8596 138.194C54.5596 137.858 54.4036 137.396 54.3916 136.808V136.736V132.668C54.3916 132.092 54.3316 131.648 54.2116 131.336C54.0916 131.012 53.8996 130.79 53.6356 130.67C53.3716 130.538 53.0356 130.472 52.6276 130.472C52.3876 130.472 52.1296 130.496 51.8536 130.544C51.5896 130.592 51.2956 130.682 50.9716 130.814L51.7096 130.184L51.3136 131.75C51.2416 132.05 51.1276 132.278 50.9716 132.434C50.8156 132.59 50.6116 132.668 50.3596 132.668C50.0956 132.668 49.8916 132.602 49.7476 132.47C49.6036 132.326 49.5136 132.146 49.4776 131.93C49.6456 131.222 50.0476 130.664 50.6836 130.256C51.3316 129.836 52.1236 129.626 53.0596 129.626C53.6956 129.626 54.2236 129.728 54.6436 129.932C55.0636 130.136 55.3816 130.466 55.5976 130.922C55.8256 131.378 55.9396 131.984 55.9396 132.74V136.628C55.9396 137.012 55.9996 137.288 56.1196 137.456C56.2396 137.612 56.4076 137.69 56.6236 137.69C56.7796 137.69 56.9116 137.66 57.0196 137.6C57.1276 137.528 57.2296 137.438 57.3256 137.33L57.6676 137.816C57.4636 138.116 57.2296 138.338 56.9656 138.482C56.7136 138.614 56.4196 138.68 56.0836 138.68ZM62.3032 138.734C61.5712 138.734 60.9232 138.548 60.3592 138.176C59.8072 137.804 59.3752 137.282 59.0632 136.61C58.7632 135.938 58.6132 135.152 58.6132 134.252C58.6132 133.304 58.7812 132.488 59.1172 131.804C59.4532 131.108 59.9092 130.574 60.4852 130.202C61.0612 129.818 61.7092 129.626 62.4292 129.626C62.7772 129.626 63.1012 129.68 63.4012 129.788C63.7012 129.884 63.9832 130.046 64.2472 130.274C64.5232 130.49 64.7872 130.778 65.0392 131.138H65.4352L65.2912 132.128C64.7752 131.588 64.3192 131.21 63.9232 130.994C63.5392 130.778 63.1492 130.67 62.7532 130.67C62.3092 130.67 61.8952 130.796 61.5112 131.048C61.1392 131.288 60.8392 131.672 60.6112 132.2C60.3832 132.716 60.2692 133.382 60.2692 134.198C60.2692 134.99 60.3772 135.644 60.5932 136.16C60.8092 136.664 61.1032 137.042 61.4752 137.294C61.8592 137.534 62.2912 137.654 62.7712 137.654C63.2632 137.654 63.6952 137.534 64.0672 137.294C64.4392 137.042 64.8352 136.64 65.2552 136.088L65.3812 137.06H65.0392C64.8352 137.396 64.6012 137.69 64.3372 137.942C64.0732 138.194 63.7732 138.386 63.4372 138.518C63.1132 138.662 62.7352 138.734 62.3032 138.734ZM65.0572 138.662L64.8772 136.808V136.772V131.516L64.9312 131.318L64.9132 126.854L63.3652 126.638V125.954L66.1552 125.216L66.4792 125.324L66.4252 127.808V137.564L67.8832 137.798V138.5L65.0572 138.662ZM68.9453 138.5V137.78L70.9253 137.474H71.4833L73.6613 137.78V138.5H68.9453ZM70.3673 138.5C70.3793 138.08 70.3853 137.66 70.3853 137.24C70.3973 136.808 70.4033 136.382 70.4033 135.962C70.4153 135.53 70.4213 135.104 70.4213 134.684V130.832H68.9093V130.022L70.9613 129.752L70.4213 130.112L70.4393 129.932C70.4993 129.284 70.5773 128.72 70.6733 128.24C70.7813 127.76 70.9313 127.334 71.1233 126.962C71.3273 126.59 71.5973 126.248 71.9333 125.936C72.2933 125.6 72.6713 125.366 73.0673 125.234C73.4753 125.09 73.8953 125.018 74.3273 125.018C74.7593 125.018 75.1373 125.096 75.4613 125.252C75.7853 125.408 75.9893 125.66 76.0733 126.008C76.0613 126.236 75.9593 126.434 75.7673 126.602C75.5873 126.758 75.3293 126.836 74.9933 126.836C74.7413 126.836 74.5073 126.782 74.2913 126.674C74.0873 126.566 73.8713 126.422 73.6433 126.242L72.8333 125.612L72.9233 125.522H73.8053L73.8953 125.576C73.6193 125.612 73.3853 125.69 73.1933 125.81C73.0013 125.918 72.8213 126.11 72.6533 126.386C72.5213 126.578 72.4073 126.794 72.3113 127.034C72.2153 127.274 72.1373 127.556 72.0773 127.88C72.0173 128.192 71.9753 128.564 71.9513 128.996C71.9393 129.428 71.9513 129.938 71.9873 130.526V134.684C71.9873 135.104 71.9873 135.53 71.9873 135.962C71.9993 136.382 72.0053 136.808 72.0053 137.24C72.0053 137.66 72.0113 138.08 72.0233 138.5H70.3673ZM71.2133 130.832V129.842H74.3993V130.832H71.2133ZM78.006 138.752C77.334 138.752 76.758 138.56 76.278 138.176C75.81 137.78 75.576 137.21 75.576 136.466C75.576 136.082 75.654 135.734 75.81 135.422C75.978 135.098 76.272 134.798 76.692 134.522C77.124 134.246 77.736 133.994 78.528 133.766C78.864 133.658 79.188 133.562 79.5 133.478C79.824 133.382 80.142 133.292 80.454 133.208C80.778 133.112 81.102 133.022 81.426 132.938V133.604C81.006 133.736 80.592 133.868 80.184 134C79.776 134.132 79.368 134.264 78.96 134.396C78.444 134.564 78.06 134.75 77.808 134.954C77.556 135.146 77.388 135.35 77.304 135.566C77.232 135.77 77.196 135.98 77.196 136.196C77.196 136.652 77.334 136.988 77.61 137.204C77.886 137.42 78.234 137.528 78.654 137.528C78.894 137.528 79.116 137.492 79.32 137.42C79.524 137.336 79.764 137.198 80.04 137.006C80.328 136.802 80.694 136.526 81.138 136.178L81.354 137.114H80.778C80.454 137.462 80.154 137.756 79.878 137.996C79.614 138.236 79.332 138.422 79.032 138.554C78.744 138.686 78.402 138.752 78.006 138.752ZM82.398 138.68C81.894 138.68 81.486 138.518 81.174 138.194C80.874 137.858 80.718 137.396 80.706 136.808V136.736V132.668C80.706 132.092 80.646 131.648 80.526 131.336C80.406 131.012 80.214 130.79 79.95 130.67C79.686 130.538 79.35 130.472 78.942 130.472C78.702 130.472 78.444 130.496 78.168 130.544C77.904 130.592 77.61 130.682 77.286 130.814L78.024 130.184L77.628 131.75C77.556 132.05 77.442 132.278 77.286 132.434C77.13 132.59 76.926 132.668 76.674 132.668C76.41 132.668 76.206 132.602 76.062 132.47C75.918 132.326 75.828 132.146 75.792 131.93C75.96 131.222 76.362 130.664 76.998 130.256C77.646 129.836 78.438 129.626 79.374 129.626C80.01 129.626 80.538 129.728 80.958 129.932C81.378 130.136 81.696 130.466 81.912 130.922C82.14 131.378 82.254 131.984 82.254 132.74V136.628C82.254 137.012 82.314 137.288 82.434 137.456C82.554 137.612 82.722 137.69 82.938 137.69C83.094 137.69 83.226 137.66 83.334 137.6C83.442 137.528 83.544 137.438 83.64 137.33L83.982 137.816C83.778 138.116 83.544 138.338 83.28 138.482C83.028 138.614 82.734 138.68 82.398 138.68ZM87.8076 138.734C87.2676 138.734 86.7756 138.674 86.3316 138.554C85.8876 138.446 85.4496 138.284 85.0176 138.068L84.9456 136.016H85.9716L86.4396 138.176H85.6476V137.24C85.9476 137.456 86.2776 137.618 86.6376 137.726C86.9976 137.834 87.3936 137.888 87.8256 137.888C88.2936 137.888 88.6776 137.828 88.9776 137.708C89.2776 137.588 89.4936 137.426 89.6256 137.222C89.7696 137.006 89.8416 136.766 89.8416 136.502C89.8416 136.106 89.7036 135.794 89.4276 135.566C89.1516 135.338 88.7256 135.128 88.1496 134.936L87.4116 134.648C86.9316 134.48 86.5116 134.288 86.1516 134.072C85.8036 133.844 85.5336 133.574 85.3416 133.262C85.1616 132.95 85.0716 132.584 85.0716 132.164C85.0716 131.708 85.1916 131.288 85.4316 130.904C85.6836 130.52 86.0496 130.214 86.5296 129.986C87.0216 129.746 87.6036 129.626 88.2756 129.626C88.7796 129.626 89.2416 129.686 89.6616 129.806C90.0936 129.926 90.4956 130.1 90.8676 130.328L90.8136 132.236H89.8416L89.4636 130.346H90.1476V131.12C89.8596 130.904 89.5596 130.742 89.2476 130.634C88.9356 130.526 88.6116 130.472 88.2756 130.472C87.6996 130.472 87.2676 130.586 86.9796 130.814C86.6916 131.042 86.5476 131.342 86.5476 131.714C86.5476 132.098 86.6736 132.398 86.9256 132.614C87.1776 132.818 87.6096 133.028 88.2216 133.244L88.7616 133.442C89.3736 133.646 89.8716 133.886 90.2556 134.162C90.6396 134.426 90.9156 134.72 91.0836 135.044C91.2636 135.356 91.3536 135.716 91.3536 136.124C91.3536 136.592 91.2156 137.024 90.9396 137.42C90.6756 137.816 90.2796 138.134 89.7516 138.374C89.2356 138.614 88.5876 138.734 87.8076 138.734ZM94.6177 130.832V129.842H97.8757V130.832H94.6177ZM95.9497 138.716C95.3017 138.716 94.7857 138.542 94.4017 138.194C94.0177 137.846 93.8257 137.312 93.8257 136.592C93.8257 136.364 93.8257 136.142 93.8257 135.926C93.8377 135.71 93.8437 135.44 93.8437 135.116V130.832H92.3137V130.022L94.5817 129.752L93.8617 130.328L94.4377 127.394H95.5357L95.3737 130.292L95.4097 130.598V136.394C95.4097 136.862 95.4997 137.204 95.6797 137.42C95.8717 137.624 96.1237 137.726 96.4357 137.726C96.6517 137.726 96.8497 137.684 97.0297 137.6C97.2217 137.516 97.4257 137.408 97.6417 137.276L98.0557 137.816C97.9117 137.996 97.7317 138.158 97.5157 138.302C97.3117 138.434 97.0777 138.536 96.8137 138.608C96.5497 138.68 96.2617 138.716 95.9497 138.716ZM107.349 138.734C106.485 138.734 105.741 138.554 105.117 138.194C104.493 137.834 104.013 137.324 103.677 136.664C103.353 135.992 103.191 135.194 103.191 134.27C103.191 133.31 103.383 132.482 103.767 131.786C104.151 131.09 104.667 130.556 105.315 130.184C105.963 129.812 106.659 129.626 107.403 129.626C107.979 129.626 108.501 129.728 108.969 129.932C109.437 130.124 109.821 130.394 110.121 130.742C110.421 131.09 110.613 131.48 110.697 131.912C110.649 132.14 110.553 132.32 110.409 132.452C110.277 132.584 110.091 132.65 109.851 132.65C109.539 132.65 109.305 132.566 109.149 132.398C109.005 132.218 108.897 132.002 108.825 131.75L108.375 130.166L109.293 130.922C109.005 130.766 108.711 130.652 108.411 130.58C108.111 130.508 107.811 130.472 107.511 130.472C106.995 130.472 106.533 130.61 106.125 130.886C105.717 131.162 105.393 131.57 105.153 132.11C104.925 132.65 104.811 133.31 104.811 134.09C104.811 134.882 104.943 135.536 105.207 136.052C105.471 136.556 105.819 136.928 106.251 137.168C106.695 137.408 107.187 137.528 107.727 137.528C108.063 137.528 108.375 137.492 108.663 137.42C108.951 137.336 109.227 137.204 109.491 137.024C109.767 136.844 110.031 136.61 110.283 136.322L110.751 136.718C110.523 137.126 110.253 137.48 109.941 137.78C109.641 138.08 109.281 138.314 108.861 138.482C108.441 138.65 107.937 138.734 107.349 138.734ZM112.12 138.5V137.78L114.1 137.474H114.568L116.638 137.78V138.5H112.12ZM113.434 138.5C113.446 138.2 113.452 137.828 113.452 137.384C113.464 136.928 113.47 136.46 113.47 135.98C113.482 135.5 113.488 135.068 113.488 134.684V133.802C113.488 133.478 113.482 133.19 113.47 132.938C113.47 132.686 113.464 132.446 113.452 132.218C113.452 131.99 113.446 131.75 113.434 131.498L111.994 131.372V130.688L114.46 129.662L114.802 129.806L115.018 132.128L115.054 132.146V134.684C115.054 135.068 115.054 135.5 115.054 135.98C115.054 136.46 115.054 136.928 115.054 137.384C115.066 137.828 115.078 138.2 115.09 138.5H113.434ZM114.964 133.478L114.748 132.218H115C115.204 131.678 115.444 131.216 115.72 130.832C115.996 130.448 116.302 130.154 116.638 129.95C116.974 129.734 117.316 129.626 117.664 129.626C117.976 129.626 118.246 129.698 118.474 129.842C118.714 129.974 118.888 130.142 118.996 130.346C118.984 130.754 118.888 131.078 118.708 131.318C118.54 131.558 118.27 131.678 117.898 131.678C117.67 131.678 117.466 131.636 117.286 131.552C117.106 131.468 116.932 131.354 116.764 131.21L116.314 130.778L117.214 130.652C116.638 130.94 116.17 131.324 115.81 131.804C115.462 132.272 115.18 132.83 114.964 133.478ZM119.816 138.5V137.78L121.796 137.474H122.246L124.1 137.78V138.5H119.816ZM121.166 138.5C121.178 138.2 121.184 137.828 121.184 137.384C121.196 136.928 121.202 136.46 121.202 135.98C121.214 135.5 121.22 135.068 121.22 134.684V133.82C121.22 133.34 121.214 132.926 121.202 132.578C121.202 132.23 121.19 131.87 121.166 131.498L119.726 131.372V130.688L122.48 129.662L122.822 129.806L122.768 132.164V134.684C122.768 135.068 122.768 135.5 122.768 135.98C122.78 136.46 122.786 136.928 122.786 137.384C122.798 137.828 122.81 138.2 122.822 138.5H121.166ZM121.904 127.844C121.568 127.844 121.28 127.736 121.04 127.52C120.812 127.292 120.698 127.01 120.698 126.674C120.698 126.338 120.812 126.062 121.04 125.846C121.28 125.618 121.568 125.504 121.904 125.504C122.252 125.504 122.54 125.618 122.768 125.846C123.008 126.062 123.128 126.338 123.128 126.674C123.128 127.01 123.008 127.292 122.768 127.52C122.54 127.736 122.252 127.844 121.904 127.844ZM127.208 130.832V129.842H130.466V130.832H127.208ZM128.54 138.716C127.892 138.716 127.376 138.542 126.992 138.194C126.608 137.846 126.416 137.312 126.416 136.592C126.416 136.364 126.416 136.142 126.416 135.926C126.428 135.71 126.434 135.44 126.434 135.116V130.832H124.904V130.022L127.172 129.752L126.452 130.328L127.028 127.394H128.126L127.964 130.292L128 130.598V136.394C128 136.862 128.09 137.204 128.27 137.42C128.462 137.624 128.714 137.726 129.026 137.726C129.242 137.726 129.44 137.684 129.62 137.6C129.812 137.516 130.016 137.408 130.232 137.276L130.646 137.816C130.502 137.996 130.322 138.158 130.106 138.302C129.902 138.434 129.668 138.536 129.404 138.608C129.14 138.68 128.852 138.716 128.54 138.716ZM131.4 138.5V137.78L133.38 137.474H133.83L135.684 137.78V138.5H131.4ZM132.75 138.5C132.762 138.2 132.768 137.828 132.768 137.384C132.78 136.928 132.786 136.46 132.786 135.98C132.798 135.5 132.804 135.068 132.804 134.684V133.82C132.804 133.34 132.798 132.926 132.786 132.578C132.786 132.23 132.774 131.87 132.75 131.498L131.31 131.372V130.688L134.064 129.662L134.406 129.806L134.352 132.164V134.684C134.352 135.068 134.352 135.5 134.352 135.98C134.364 136.46 134.37 136.928 134.37 137.384C134.382 137.828 134.394 138.2 134.406 138.5H132.75ZM133.488 127.844C133.152 127.844 132.864 127.736 132.624 127.52C132.396 127.292 132.282 127.01 132.282 126.674C132.282 126.338 132.396 126.062 132.624 125.846C132.864 125.618 133.152 125.504 133.488 125.504C133.836 125.504 134.124 125.618 134.352 125.846C134.592 126.062 134.712 126.338 134.712 126.674C134.712 127.01 134.592 127.292 134.352 127.52C134.124 127.736 133.836 127.844 133.488 127.844ZM141.257 138.734C140.393 138.734 139.649 138.554 139.025 138.194C138.401 137.834 137.921 137.324 137.585 136.664C137.261 135.992 137.099 135.194 137.099 134.27C137.099 133.31 137.291 132.482 137.675 131.786C138.059 131.09 138.575 130.556 139.223 130.184C139.871 129.812 140.567 129.626 141.311 129.626C141.887 129.626 142.409 129.728 142.877 129.932C143.345 130.124 143.729 130.394 144.029 130.742C144.329 131.09 144.521 131.48 144.605 131.912C144.557 132.14 144.461 132.32 144.317 132.452C144.185 132.584 143.999 132.65 143.759 132.65C143.447 132.65 143.213 132.566 143.057 132.398C142.913 132.218 142.805 132.002 142.733 131.75L142.283 130.166L143.201 130.922C142.913 130.766 142.619 130.652 142.319 130.58C142.019 130.508 141.719 130.472 141.419 130.472C140.903 130.472 140.441 130.61 140.033 130.886C139.625 131.162 139.301 131.57 139.061 132.11C138.833 132.65 138.719 133.31 138.719 134.09C138.719 134.882 138.851 135.536 139.115 136.052C139.379 136.556 139.727 136.928 140.159 137.168C140.603 137.408 141.095 137.528 141.635 137.528C141.971 137.528 142.283 137.492 142.571 137.42C142.859 137.336 143.135 137.204 143.399 137.024C143.675 136.844 143.939 136.61 144.191 136.322L144.659 136.718C144.431 137.126 144.161 137.48 143.849 137.78C143.549 138.08 143.189 138.314 142.769 138.482C142.349 138.65 141.845 138.734 141.257 138.734ZM147.954 138.734C147.594 138.734 147.288 138.608 147.036 138.356C146.796 138.104 146.676 137.804 146.676 137.456C146.676 137.096 146.796 136.79 147.036 136.538C147.288 136.286 147.594 136.16 147.954 136.16C148.314 136.16 148.62 136.286 148.872 136.538C149.124 136.79 149.25 137.096 149.25 137.456C149.25 137.804 149.124 138.104 148.872 138.356C148.62 138.608 148.314 138.734 147.954 138.734ZM147.954 132.578C147.594 132.578 147.288 132.452 147.036 132.2C146.796 131.948 146.676 131.648 146.676 131.3C146.676 130.94 146.796 130.634 147.036 130.382C147.288 130.13 147.594 130.004 147.954 130.004C148.314 130.004 148.62 130.13 148.872 130.382C149.124 130.634 149.25 130.94 149.25 131.3C149.25 131.648 149.124 131.948 148.872 132.2C148.62 132.452 148.314 132.578 147.954 132.578ZM155.643 138.5V137.69L157.965 137.474H158.163V138.5H155.643ZM157.317 138.5C157.341 137.888 157.353 137.276 157.353 136.664C157.365 136.04 157.371 135.404 157.371 134.756C157.371 134.096 157.371 133.424 157.371 132.74V132.038C157.371 131.414 157.371 130.79 157.371 130.166C157.371 129.542 157.365 128.918 157.353 128.294C157.353 127.67 157.341 127.052 157.317 126.44H159.153C159.153 127.04 159.147 127.652 159.135 128.276C159.123 128.9 159.117 129.524 159.117 130.148C159.117 130.772 159.117 131.402 159.117 132.038V132.74C159.117 133.412 159.117 134.072 159.117 134.72C159.117 135.368 159.123 136.004 159.135 136.628C159.147 137.252 159.153 137.876 159.153 138.5H157.317ZM158.307 138.5V137.6H160.611C161.559 137.6 162.357 137.396 163.005 136.988C163.665 136.58 164.163 135.998 164.499 135.242C164.847 134.474 165.021 133.55 165.021 132.47C165.021 130.802 164.649 129.53 163.905 128.654C163.161 127.766 162.123 127.322 160.791 127.322H158.307V126.44H161.061C162.237 126.44 163.269 126.674 164.157 127.142C165.045 127.598 165.741 128.27 166.245 129.158C166.749 130.046 167.001 131.144 167.001 132.452C167.001 133.748 166.725 134.846 166.173 135.746C165.633 136.646 164.889 137.33 163.941 137.798C163.005 138.266 161.931 138.5 160.719 138.5H158.307ZM155.643 127.25V126.44H158.163V127.466H157.965L155.643 127.25ZM171.1 138.752C170.428 138.752 169.852 138.56 169.372 138.176C168.904 137.78 168.67 137.21 168.67 136.466C168.67 136.082 168.748 135.734 168.904 135.422C169.072 135.098 169.366 134.798 169.786 134.522C170.218 134.246 170.83 133.994 171.622 133.766C171.958 133.658 172.282 133.562 172.594 133.478C172.918 133.382 173.236 133.292 173.548 133.208C173.872 133.112 174.196 133.022 174.52 132.938V133.604C174.1 133.736 173.686 133.868 173.278 134C172.87 134.132 172.462 134.264 172.054 134.396C171.538 134.564 171.154 134.75 170.902 134.954C170.65 135.146 170.482 135.35 170.398 135.566C170.326 135.77 170.29 135.98 170.29 136.196C170.29 136.652 170.428 136.988 170.704 137.204C170.98 137.42 171.328 137.528 171.748 137.528C171.988 137.528 172.21 137.492 172.414 137.42C172.618 137.336 172.858 137.198 173.134 137.006C173.422 136.802 173.788 136.526 174.232 136.178L174.448 137.114H173.872C173.548 137.462 173.248 137.756 172.972 137.996C172.708 138.236 172.426 138.422 172.126 138.554C171.838 138.686 171.496 138.752 171.1 138.752ZM175.492 138.68C174.988 138.68 174.58 138.518 174.268 138.194C173.968 137.858 173.812 137.396 173.8 136.808V136.736V132.668C173.8 132.092 173.74 131.648 173.62 131.336C173.5 131.012 173.308 130.79 173.044 130.67C172.78 130.538 172.444 130.472 172.036 130.472C171.796 130.472 171.538 130.496 171.262 130.544C170.998 130.592 170.704 130.682 170.38 130.814L171.118 130.184L170.722 131.75C170.65 132.05 170.536 132.278 170.38 132.434C170.224 132.59 170.02 132.668 169.768 132.668C169.504 132.668 169.3 132.602 169.156 132.47C169.012 132.326 168.922 132.146 168.886 131.93C169.054 131.222 169.456 130.664 170.092 130.256C170.74 129.836 171.532 129.626 172.468 129.626C173.104 129.626 173.632 129.728 174.052 129.932C174.472 130.136 174.79 130.466 175.006 130.922C175.234 131.378 175.348 131.984 175.348 132.74V136.628C175.348 137.012 175.408 137.288 175.528 137.456C175.648 137.612 175.816 137.69 176.032 137.69C176.188 137.69 176.32 137.66 176.428 137.6C176.536 137.528 176.638 137.438 176.734 137.33L177.076 137.816C176.872 138.116 176.638 138.338 176.374 138.482C176.122 138.614 175.828 138.68 175.492 138.68ZM177.897 138.5V137.78L179.877 137.474H180.345L182.415 137.78V138.5H177.897ZM179.211 138.5C179.223 138.2 179.229 137.828 179.229 137.384C179.241 136.928 179.247 136.46 179.247 135.98C179.259 135.5 179.265 135.068 179.265 134.684V133.802C179.265 133.478 179.259 133.19 179.247 132.938C179.247 132.686 179.241 132.446 179.229 132.218C179.229 131.99 179.223 131.75 179.211 131.498L177.771 131.372V130.688L180.237 129.662L180.579 129.806L180.795 132.128L180.831 132.146V134.684C180.831 135.068 180.831 135.5 180.831 135.98C180.831 136.46 180.831 136.928 180.831 137.384C180.843 137.828 180.855 138.2 180.867 138.5H179.211ZM180.741 133.478L180.525 132.218H180.777C180.981 131.678 181.221 131.216 181.497 130.832C181.773 130.448 182.079 130.154 182.415 129.95C182.751 129.734 183.093 129.626 183.441 129.626C183.753 129.626 184.023 129.698 184.251 129.842C184.491 129.974 184.665 130.142 184.773 130.346C184.761 130.754 184.665 131.078 184.485 131.318C184.317 131.558 184.047 131.678 183.675 131.678C183.447 131.678 183.243 131.636 183.063 131.552C182.883 131.468 182.709 131.354 182.541 131.21L182.091 130.778L182.991 130.652C182.415 130.94 181.947 131.324 181.587 131.804C181.239 132.272 180.957 132.83 180.741 133.478ZM185.221 138.5V137.78L187.255 137.474H187.687L189.739 137.78V138.5H185.221ZM186.661 138.5C186.673 138.188 186.679 137.876 186.679 137.564C186.679 137.24 186.679 136.922 186.679 136.61C186.691 136.286 186.697 135.962 186.697 135.638C186.697 135.314 186.697 134.996 186.697 134.684V126.854L185.203 126.638V125.954L187.975 125.216L188.317 125.324L188.245 127.808V134.684C188.245 134.996 188.245 135.314 188.245 135.638C188.245 135.962 188.245 136.286 188.245 136.61C188.257 136.922 188.263 137.24 188.263 137.564C188.275 137.876 188.287 138.188 188.299 138.5H186.661ZM187.507 135.98V134.774H187.705L190.063 132.29L192.421 129.842H193.609L187.507 135.98ZM192.259 138.5L189.271 133.676L190.351 132.578L193.537 137.582L194.761 137.798V138.5H192.259ZM190.009 130.598V129.842H194.329V130.598L192.259 130.886L191.773 130.976L190.009 130.598ZM195.904 141.722L195.634 141.056C196.09 140.84 196.462 140.612 196.75 140.372C197.05 140.144 197.284 139.88 197.452 139.58C197.62 139.28 197.746 138.926 197.83 138.518L198.028 139.094L197.164 138.59C196.876 138.458 196.66 138.302 196.516 138.122C196.384 137.93 196.318 137.708 196.318 137.456C196.318 137.108 196.42 136.82 196.624 136.592C196.828 136.352 197.128 136.232 197.524 136.232C197.728 136.232 197.92 136.268 198.1 136.34C198.28 136.412 198.454 136.538 198.622 136.718C198.682 136.91 198.718 137.12 198.73 137.348C198.754 137.564 198.766 137.78 198.766 137.996C198.766 138.584 198.64 139.118 198.388 139.598C198.136 140.09 197.794 140.516 197.362 140.876C196.93 141.236 196.444 141.518 195.904 141.722ZM208.183 138.734C207.643 138.734 207.151 138.674 206.707 138.554C206.263 138.446 205.825 138.284 205.393 138.068L205.321 136.016H206.347L206.815 138.176H206.023V137.24C206.323 137.456 206.653 137.618 207.013 137.726C207.373 137.834 207.769 137.888 208.201 137.888C208.669 137.888 209.053 137.828 209.353 137.708C209.653 137.588 209.869 137.426 210.001 137.222C210.145 137.006 210.217 136.766 210.217 136.502C210.217 136.106 210.079 135.794 209.803 135.566C209.527 135.338 209.101 135.128 208.525 134.936L207.787 134.648C207.307 134.48 206.887 134.288 206.527 134.072C206.179 133.844 205.909 133.574 205.717 133.262C205.537 132.95 205.447 132.584 205.447 132.164C205.447 131.708 205.567 131.288 205.807 130.904C206.059 130.52 206.425 130.214 206.905 129.986C207.397 129.746 207.979 129.626 208.651 129.626C209.155 129.626 209.617 129.686 210.037 129.806C210.469 129.926 210.871 130.1 211.243 130.328L211.189 132.236H210.217L209.839 130.346H210.523V131.12C210.235 130.904 209.935 130.742 209.623 130.634C209.311 130.526 208.987 130.472 208.651 130.472C208.075 130.472 207.643 130.586 207.355 130.814C207.067 131.042 206.923 131.342 206.923 131.714C206.923 132.098 207.049 132.398 207.301 132.614C207.553 132.818 207.985 133.028 208.597 133.244L209.137 133.442C209.749 133.646 210.247 133.886 210.631 134.162C211.015 134.426 211.291 134.72 211.459 135.044C211.639 135.356 211.729 135.716 211.729 136.124C211.729 136.592 211.591 137.024 211.315 137.42C211.051 137.816 210.655 138.134 210.127 138.374C209.611 138.614 208.963 138.734 208.183 138.734ZM214.993 130.832V129.842H218.251V130.832H214.993ZM216.325 138.716C215.677 138.716 215.161 138.542 214.777 138.194C214.393 137.846 214.201 137.312 214.201 136.592C214.201 136.364 214.201 136.142 214.201 135.926C214.213 135.71 214.219 135.44 214.219 135.116V130.832H212.689V130.022L214.957 129.752L214.237 130.328L214.813 127.394H215.911L215.749 130.292L215.785 130.598V136.394C215.785 136.862 215.875 137.204 216.055 137.42C216.247 137.624 216.499 137.726 216.811 137.726C217.027 137.726 217.225 137.684 217.405 137.6C217.597 137.516 217.801 137.408 218.017 137.276L218.431 137.816C218.287 137.996 218.107 138.158 217.891 138.302C217.687 138.434 217.453 138.536 217.189 138.608C216.925 138.68 216.637 138.716 216.325 138.716ZM223.542 138.734C222.822 138.734 222.138 138.566 221.49 138.23C220.854 137.894 220.338 137.39 219.942 136.718C219.546 136.034 219.348 135.2 219.348 134.216C219.348 133.22 219.546 132.38 219.942 131.696C220.338 131.012 220.854 130.496 221.49 130.148C222.138 129.8 222.822 129.626 223.542 129.626C224.262 129.626 224.94 129.8 225.576 130.148C226.224 130.484 226.746 130.994 227.142 131.678C227.55 132.362 227.754 133.202 227.754 134.198C227.754 135.182 227.55 136.016 227.142 136.7C226.746 137.372 226.224 137.882 225.576 138.23C224.94 138.566 224.262 138.734 223.542 138.734ZM223.542 137.87C224.07 137.87 224.514 137.732 224.874 137.456C225.246 137.18 225.528 136.772 225.72 136.232C225.924 135.692 226.026 135.02 226.026 134.216C226.026 133.4 225.924 132.716 225.72 132.164C225.528 131.612 225.246 131.198 224.874 130.922C224.514 130.634 224.07 130.49 223.542 130.49C223.014 130.49 222.564 130.634 222.192 130.922C221.832 131.198 221.556 131.612 221.364 132.164C221.172 132.704 221.076 133.382 221.076 134.198C221.076 135.014 221.172 135.692 221.364 136.232C221.556 136.772 221.832 137.18 222.192 137.456C222.564 137.732 223.014 137.87 223.542 137.87ZM229.24 138.5V137.78L231.22 137.474H231.67L233.524 137.78V138.5H229.24ZM230.59 138.5C230.602 138.2 230.608 137.828 230.608 137.384C230.62 136.928 230.626 136.46 230.626 135.98C230.638 135.5 230.644 135.068 230.644 134.684V133.82C230.644 133.34 230.638 132.926 230.626 132.578C230.626 132.23 230.614 131.87 230.59 131.498L229.15 131.372V130.688L231.904 129.662L232.246 129.806L232.192 132.164V134.684C232.192 135.068 232.192 135.5 232.192 135.98C232.204 136.46 232.21 136.928 232.21 137.384C232.222 137.828 232.234 138.2 232.246 138.5H230.59ZM231.328 127.844C230.992 127.844 230.704 127.736 230.464 127.52C230.236 127.292 230.122 127.01 230.122 126.674C230.122 126.338 230.236 126.062 230.464 125.846C230.704 125.618 230.992 125.504 231.328 125.504C231.676 125.504 231.964 125.618 232.192 125.846C232.432 126.062 232.552 126.338 232.552 126.674C232.552 127.01 232.432 127.292 232.192 127.52C231.964 127.736 231.676 127.844 231.328 127.844ZM239.097 138.734C238.233 138.734 237.489 138.554 236.865 138.194C236.241 137.834 235.761 137.324 235.425 136.664C235.101 135.992 234.939 135.194 234.939 134.27C234.939 133.31 235.131 132.482 235.515 131.786C235.899 131.09 236.415 130.556 237.063 130.184C237.711 129.812 238.407 129.626 239.151 129.626C239.727 129.626 240.249 129.728 240.717 129.932C241.185 130.124 241.569 130.394 241.869 130.742C242.169 131.09 242.361 131.48 242.445 131.912C242.397 132.14 242.301 132.32 242.157 132.452C242.025 132.584 241.839 132.65 241.599 132.65C241.287 132.65 241.053 132.566 240.897 132.398C240.753 132.218 240.645 132.002 240.573 131.75L240.123 130.166L241.041 130.922C240.753 130.766 240.459 130.652 240.159 130.58C239.859 130.508 239.559 130.472 239.259 130.472C238.743 130.472 238.281 130.61 237.873 130.886C237.465 131.162 237.141 131.57 236.901 132.11C236.673 132.65 236.559 133.31 236.559 134.09C236.559 134.882 236.691 135.536 236.955 136.052C237.219 136.556 237.567 136.928 237.999 137.168C238.443 137.408 238.935 137.528 239.475 137.528C239.811 137.528 240.123 137.492 240.411 137.42C240.699 137.336 240.975 137.204 241.239 137.024C241.515 136.844 241.779 136.61 242.031 136.322L242.499 136.718C242.271 137.126 242.001 137.48 241.689 137.78C241.389 138.08 241.029 138.314 240.609 138.482C240.189 138.65 239.685 138.734 239.097 138.734ZM244.156 141.722L243.886 141.056C244.342 140.84 244.714 140.612 245.002 140.372C245.302 140.144 245.536 139.88 245.704 139.58C245.872 139.28 245.998 138.926 246.082 138.518L246.28 139.094L245.416 138.59C245.128 138.458 244.912 138.302 244.768 138.122C244.636 137.93 244.57 137.708 244.57 137.456C244.57 137.108 244.672 136.82 244.876 136.592C245.08 136.352 245.38 136.232 245.776 136.232C245.98 136.232 246.172 136.268 246.352 136.34C246.532 136.412 246.706 136.538 246.874 136.718C246.934 136.91 246.97 137.12 246.982 137.348C247.006 137.564 247.018 137.78 247.018 137.996C247.018 138.584 246.892 139.118 246.64 139.598C246.388 140.09 246.046 140.516 245.614 140.876C245.182 141.236 244.696 141.518 244.156 141.722ZM27.258 165.752C26.586 165.752 26.01 165.56 25.53 165.176C25.062 164.78 24.828 164.21 24.828 163.466C24.828 163.082 24.906 162.734 25.062 162.422C25.23 162.098 25.524 161.798 25.944 161.522C26.376 161.246 26.988 160.994 27.78 160.766C28.116 160.658 28.44 160.562 28.752 160.478C29.076 160.382 29.394 160.292 29.706 160.208C30.03 160.112 30.354 160.022 30.678 159.938V160.604C30.258 160.736 29.844 160.868 29.436 161C29.028 161.132 28.62 161.264 28.212 161.396C27.696 161.564 27.312 161.75 27.06 161.954C26.808 162.146 26.64 162.35 26.556 162.566C26.484 162.77 26.448 162.98 26.448 163.196C26.448 163.652 26.586 163.988 26.862 164.204C27.138 164.42 27.486 164.528 27.906 164.528C28.146 164.528 28.368 164.492 28.572 164.42C28.776 164.336 29.016 164.198 29.292 164.006C29.58 163.802 29.946 163.526 30.39 163.178L30.606 164.114H30.03C29.706 164.462 29.406 164.756 29.13 164.996C28.866 165.236 28.584 165.422 28.284 165.554C27.996 165.686 27.654 165.752 27.258 165.752ZM31.65 165.68C31.146 165.68 30.738 165.518 30.426 165.194C30.126 164.858 29.97 164.396 29.958 163.808V163.736V159.668C29.958 159.092 29.898 158.648 29.778 158.336C29.658 158.012 29.466 157.79 29.202 157.67C28.938 157.538 28.602 157.472 28.194 157.472C27.954 157.472 27.696 157.496 27.42 157.544C27.156 157.592 26.862 157.682 26.538 157.814L27.276 157.184L26.88 158.75C26.808 159.05 26.694 159.278 26.538 159.434C26.382 159.59 26.178 159.668 25.926 159.668C25.662 159.668 25.458 159.602 25.314 159.47C25.17 159.326 25.08 159.146 25.044 158.93C25.212 158.222 25.614 157.664 26.25 157.256C26.898 156.836 27.69 156.626 28.626 156.626C29.262 156.626 29.79 156.728 30.21 156.932C30.63 157.136 30.948 157.466 31.164 157.922C31.392 158.378 31.506 158.984 31.506 159.74V163.628C31.506 164.012 31.566 164.288 31.686 164.456C31.806 164.612 31.974 164.69 32.19 164.69C32.346 164.69 32.478 164.66 32.586 164.6C32.694 164.528 32.796 164.438 32.892 164.33L33.234 164.816C33.03 165.116 32.796 165.338 32.532 165.482C32.28 165.614 31.986 165.68 31.65 165.68ZM34.0193 165.5V164.78L35.9993 164.474H36.4313L38.2673 164.78V165.5H34.0193ZM35.3693 165.5C35.3693 165.2 35.3693 164.828 35.3693 164.384C35.3813 163.928 35.3873 163.46 35.3873 162.98C35.3993 162.5 35.4053 162.068 35.4053 161.684V160.802C35.4053 160.478 35.3993 160.19 35.3873 159.938C35.3873 159.686 35.3813 159.446 35.3693 159.218C35.3693 158.99 35.3693 158.75 35.3693 158.498L33.9113 158.372V157.688L36.3773 156.662L36.7193 156.806L36.9533 158.84L36.9713 158.858V161.684C36.9713 162.068 36.9713 162.5 36.9713 162.98C36.9833 163.46 36.9893 163.928 36.9893 164.384C37.0013 164.828 37.0073 165.2 37.0073 165.5H35.3693ZM39.6173 165.5V164.78L41.5973 164.474H42.0293L43.8833 164.78V165.5H39.6173ZM40.9493 165.5C40.9613 165.2 40.9673 164.828 40.9673 164.384C40.9793 163.94 40.9853 163.478 40.9853 162.998C40.9973 162.518 41.0033 162.08 41.0033 161.684V160.082C41.0033 159.278 40.8833 158.726 40.6433 158.426C40.4033 158.114 40.0133 157.958 39.4733 157.958C39.1853 157.958 38.8973 158 38.6093 158.084C38.3213 158.168 38.0273 158.3 37.7273 158.48C37.4273 158.66 37.1093 158.894 36.7733 159.182L36.5753 158.48H36.8093C37.0973 158.12 37.4213 157.802 37.7812 157.526C38.1413 157.25 38.5253 157.034 38.9333 156.878C39.3413 156.71 39.7493 156.626 40.1573 156.626C40.9613 156.626 41.5613 156.89 41.9573 157.418C42.3533 157.934 42.5513 158.762 42.5513 159.902V161.684C42.5513 162.08 42.5513 162.518 42.5513 162.998C42.5633 163.478 42.5693 163.94 42.5693 164.384C42.5693 164.828 42.5753 165.2 42.5873 165.5H40.9493ZM48.9262 165.734C48.1942 165.734 47.5462 165.548 46.9822 165.176C46.4302 164.804 45.9982 164.282 45.6862 163.61C45.3862 162.938 45.2362 162.152 45.2362 161.252C45.2362 160.304 45.4042 159.488 45.7402 158.804C46.0762 158.108 46.5322 157.574 47.1082 157.202C47.6842 156.818 48.3322 156.626 49.0522 156.626C49.4002 156.626 49.7242 156.68 50.0242 156.788C50.3242 156.884 50.6062 157.046 50.8702 157.274C51.1462 157.49 51.4102 157.778 51.6622 158.138H52.0582L51.9142 159.128C51.3982 158.588 50.9422 158.21 50.5462 157.994C50.1622 157.778 49.7722 157.67 49.3762 157.67C48.9322 157.67 48.5182 157.796 48.1342 158.048C47.7622 158.288 47.4622 158.672 47.2342 159.2C47.0062 159.716 46.8922 160.382 46.8922 161.198C46.8922 161.99 47.0002 162.644 47.2162 163.16C47.4322 163.664 47.7262 164.042 48.0982 164.294C48.4822 164.534 48.9142 164.654 49.3942 164.654C49.8862 164.654 50.3182 164.534 50.6902 164.294C51.0622 164.042 51.4582 163.64 51.8782 163.088L52.0042 164.06H51.6622C51.4582 164.396 51.2242 164.69 50.9602 164.942C50.6962 165.194 50.3962 165.386 50.0602 165.518C49.7362 165.662 49.3582 165.734 48.9262 165.734ZM51.6802 165.662L51.5002 163.808V163.772V158.516L51.5542 158.318L51.5362 153.854L49.9882 153.638V152.954L52.7782 152.216L53.1022 152.324L53.0482 154.808V164.564L54.5062 164.798V165.5L51.6802 165.662ZM62.8291 165.734C62.2891 165.734 61.7971 165.674 61.3531 165.554C60.9091 165.446 60.4711 165.284 60.0391 165.068L59.9671 163.016H60.9931L61.4611 165.176H60.6691V164.24C60.9691 164.456 61.2991 164.618 61.6591 164.726C62.0191 164.834 62.4151 164.888 62.8471 164.888C63.3151 164.888 63.6991 164.828 63.9991 164.708C64.2991 164.588 64.5151 164.426 64.6471 164.222C64.7911 164.006 64.8631 163.766 64.8631 163.502C64.8631 163.106 64.7251 162.794 64.4491 162.566C64.1731 162.338 63.7471 162.128 63.1711 161.936L62.4331 161.648C61.9531 161.48 61.5331 161.288 61.1731 161.072C60.8251 160.844 60.5551 160.574 60.3631 160.262C60.1831 159.95 60.0931 159.584 60.0931 159.164C60.0931 158.708 60.2131 158.288 60.4531 157.904C60.7051 157.52 61.0711 157.214 61.5511 156.986C62.0431 156.746 62.6251 156.626 63.2971 156.626C63.8011 156.626 64.2631 156.686 64.6831 156.806C65.1151 156.926 65.5171 157.1 65.8891 157.328L65.8351 159.236H64.8631L64.4851 157.346H65.1691V158.12C64.8811 157.904 64.5811 157.742 64.2691 157.634C63.9571 157.526 63.6331 157.472 63.2971 157.472C62.7211 157.472 62.2891 157.586 62.0011 157.814C61.7131 158.042 61.5691 158.342 61.5691 158.714C61.5691 159.098 61.6951 159.398 61.9471 159.614C62.1991 159.818 62.6311 160.028 63.2431 160.244L63.7831 160.442C64.3951 160.646 64.8931 160.886 65.2771 161.162C65.6611 161.426 65.9371 161.72 66.1051 162.044C66.2851 162.356 66.3751 162.716 66.3751 163.124C66.3751 163.592 66.2371 164.024 65.9611 164.42C65.6971 164.816 65.3011 165.134 64.7731 165.374C64.2571 165.614 63.6091 165.734 62.8291 165.734ZM72.1591 165.734C71.2951 165.734 70.5451 165.56 69.9091 165.212C69.2851 164.852 68.7991 164.342 68.4511 163.682C68.1151 163.01 67.9471 162.212 67.9471 161.288C67.9471 160.352 68.1271 159.536 68.4871 158.84C68.8591 158.144 69.3571 157.604 69.9811 157.22C70.6171 156.824 71.3191 156.626 72.0871 156.626C72.7591 156.626 73.3531 156.764 73.8691 157.04C74.3851 157.316 74.7931 157.712 75.0931 158.228C75.3931 158.744 75.5431 159.368 75.5431 160.1C75.5431 160.316 75.5311 160.52 75.5071 160.712C75.4831 160.892 75.4531 161.048 75.4171 161.18H68.7211V160.388H73.0411C73.4611 160.364 73.7311 160.268 73.8511 160.1C73.9711 159.92 74.0311 159.71 74.0311 159.47C74.0311 159.038 73.9531 158.678 73.7971 158.39C73.6411 158.09 73.4191 157.868 73.1311 157.724C72.8431 157.568 72.4951 157.49 72.0871 157.49C71.6671 157.49 71.2591 157.61 70.8631 157.85C70.4791 158.09 70.1671 158.474 69.9271 159.002C69.6871 159.518 69.5671 160.208 69.5671 161.072C69.5671 161.816 69.6871 162.446 69.9271 162.962C70.1671 163.478 70.5091 163.874 70.9531 164.15C71.4091 164.414 71.9431 164.546 72.5551 164.546C73.1431 164.546 73.6471 164.444 74.0671 164.24C74.4991 164.036 74.8951 163.736 75.2551 163.34L75.6871 163.7C75.4351 164.096 75.1531 164.45 74.8411 164.762C74.5291 165.074 74.1571 165.314 73.7251 165.482C73.3051 165.65 72.7831 165.734 72.1591 165.734ZM81.4215 165.734C80.5575 165.734 79.8135 165.554 79.1895 165.194C78.5655 164.834 78.0855 164.324 77.7495 163.664C77.4255 162.992 77.2635 162.194 77.2635 161.27C77.2635 160.31 77.4555 159.482 77.8395 158.786C78.2235 158.09 78.7395 157.556 79.3875 157.184C80.0355 156.812 80.7315 156.626 81.4755 156.626C82.0515 156.626 82.5735 156.728 83.0415 156.932C83.5095 157.124 83.8935 157.394 84.1935 157.742C84.4935 158.09 84.6855 158.48 84.7695 158.912C84.7215 159.14 84.6255 159.32 84.4815 159.452C84.3495 159.584 84.1635 159.65 83.9235 159.65C83.6115 159.65 83.3775 159.566 83.2215 159.398C83.0775 159.218 82.9695 159.002 82.8975 158.75L82.4475 157.166L83.3655 157.922C83.0775 157.766 82.7835 157.652 82.4835 157.58C82.1835 157.508 81.8835 157.472 81.5835 157.472C81.0675 157.472 80.6055 157.61 80.1975 157.886C79.7895 158.162 79.4655 158.57 79.2255 159.11C78.9975 159.65 78.8835 160.31 78.8835 161.09C78.8835 161.882 79.0155 162.536 79.2795 163.052C79.5435 163.556 79.8915 163.928 80.3235 164.168C80.7675 164.408 81.2595 164.528 81.7995 164.528C82.1355 164.528 82.4475 164.492 82.7355 164.42C83.0235 164.336 83.2995 164.204 83.5635 164.024C83.8395 163.844 84.1035 163.61 84.3555 163.322L84.8235 163.718C84.5955 164.126 84.3255 164.48 84.0135 164.78C83.7135 165.08 83.3535 165.314 82.9335 165.482C82.5135 165.65 82.0095 165.734 81.4215 165.734ZM86.192 165.5V164.78L88.172 164.474H88.64L90.71 164.78V165.5H86.192ZM87.506 165.5C87.518 165.2 87.524 164.828 87.524 164.384C87.536 163.928 87.542 163.46 87.542 162.98C87.554 162.5 87.56 162.068 87.56 161.684V160.802C87.56 160.478 87.554 160.19 87.542 159.938C87.542 159.686 87.536 159.446 87.524 159.218C87.524 158.99 87.518 158.75 87.506 158.498L86.066 158.372V157.688L88.532 156.662L88.874 156.806L89.09 159.128L89.126 159.146V161.684C89.126 162.068 89.126 162.5 89.126 162.98C89.126 163.46 89.126 163.928 89.126 164.384C89.138 164.828 89.15 165.2 89.162 165.5H87.506ZM89.036 160.478L88.82 159.218H89.072C89.276 158.678 89.516 158.216 89.792 157.832C90.068 157.448 90.374 157.154 90.71 156.95C91.046 156.734 91.388 156.626 91.736 156.626C92.048 156.626 92.318 156.698 92.546 156.842C92.786 156.974 92.96 157.142 93.068 157.346C93.056 157.754 92.96 158.078 92.78 158.318C92.612 158.558 92.342 158.678 91.97 158.678C91.742 158.678 91.538 158.636 91.358 158.552C91.178 158.468 91.004 158.354 90.836 158.21L90.386 157.778L91.286 157.652C90.71 157.94 90.242 158.324 89.882 158.804C89.534 159.272 89.252 159.83 89.036 160.478ZM98.0869 165.734C97.2229 165.734 96.4729 165.56 95.8369 165.212C95.2129 164.852 94.7269 164.342 94.3789 163.682C94.0429 163.01 93.8749 162.212 93.8749 161.288C93.8749 160.352 94.0549 159.536 94.4149 158.84C94.7869 158.144 95.2849 157.604 95.9089 157.22C96.5449 156.824 97.2469 156.626 98.0149 156.626C98.6869 156.626 99.2809 156.764 99.7969 157.04C100.313 157.316 100.721 157.712 101.021 158.228C101.321 158.744 101.471 159.368 101.471 160.1C101.471 160.316 101.459 160.52 101.435 160.712C101.411 160.892 101.381 161.048 101.345 161.18H94.6489V160.388H98.9689C99.3889 160.364 99.6589 160.268 99.7789 160.1C99.8989 159.92 99.9589 159.71 99.9589 159.47C99.9589 159.038 99.8809 158.678 99.7249 158.39C99.5689 158.09 99.3469 157.868 99.0589 157.724C98.7709 157.568 98.4229 157.49 98.0149 157.49C97.5949 157.49 97.1869 157.61 96.7909 157.85C96.4069 158.09 96.0949 158.474 95.8549 159.002C95.6149 159.518 95.4949 160.208 95.4949 161.072C95.4949 161.816 95.6149 162.446 95.8549 162.962C96.0949 163.478 96.4369 163.874 96.8809 164.15C97.3369 164.414 97.8709 164.546 98.4829 164.546C99.0709 164.546 99.5749 164.444 99.9949 164.24C100.427 164.036 100.823 163.736 101.183 163.34L101.615 163.7C101.363 164.096 101.081 164.45 100.769 164.762C100.457 165.074 100.085 165.314 99.6529 165.482C99.2329 165.65 98.7109 165.734 98.0869 165.734ZM104.883 157.832V156.842H108.141V157.832H104.883ZM106.215 165.716C105.567 165.716 105.051 165.542 104.667 165.194C104.283 164.846 104.091 164.312 104.091 163.592C104.091 163.364 104.091 163.142 104.091 162.926C104.103 162.71 104.109 162.44 104.109 162.116V157.832H102.579V157.022L104.847 156.752L104.127 157.328L104.703 154.394H105.801L105.639 157.292L105.675 157.598V163.394C105.675 163.862 105.765 164.204 105.945 164.42C106.137 164.624 106.389 164.726 106.701 164.726C106.917 164.726 107.115 164.684 107.295 164.6C107.487 164.516 107.691 164.408 107.907 164.276L108.321 164.816C108.177 164.996 107.997 165.158 107.781 165.302C107.577 165.434 107.343 165.536 107.079 165.608C106.815 165.68 106.527 165.716 106.215 165.716ZM108.932 165.5V164.78L110.966 164.474H111.398L113.45 164.78V165.5H108.932ZM110.372 165.5C110.384 165.08 110.39 164.66 110.39 164.24C110.39 163.808 110.39 163.382 110.39 162.962C110.402 162.53 110.408 162.104 110.408 161.684V153.854L108.914 153.638V152.954L111.686 152.216L112.028 152.324L111.956 154.808V161.684C111.956 162.104 111.956 162.53 111.956 162.962C111.968 163.382 111.974 163.808 111.974 164.24C111.986 164.66 111.998 165.08 112.01 165.5H110.372ZM115.43 169.964C115.106 169.964 114.812 169.91 114.548 169.802C114.296 169.706 114.092 169.562 113.936 169.37C113.792 169.19 113.714 168.992 113.702 168.776C113.762 168.524 113.906 168.326 114.134 168.182C114.362 168.05 114.62 167.984 114.908 167.984C115.172 167.984 115.406 168.038 115.61 168.146C115.814 168.254 116.036 168.428 116.276 168.668L116.816 169.226L116.168 169.55L115.88 169.208C116.252 169.004 116.576 168.746 116.852 168.434C117.14 168.122 117.392 167.768 117.608 167.372C117.824 166.976 118.01 166.568 118.166 166.148L118.454 165.356L118.598 165.248L120.146 160.712L121.532 156.842H122.594L119.282 165.5C118.886 166.532 118.496 167.378 118.112 168.038C117.728 168.698 117.32 169.184 116.888 169.496C116.456 169.808 115.97 169.964 115.43 169.964ZM118.364 166.544L114.512 156.842H116.294L119.03 164.312L119.246 164.618L118.364 166.544ZM113.81 157.562V156.842H118.238V157.58L116.096 157.814H115.592L113.81 157.562ZM119.642 157.562V156.842H123.278V157.562L121.928 157.814H121.514L119.642 157.562ZM127.768 169.964C127.396 169.964 127.096 169.904 126.868 169.784C126.628 169.676 126.454 169.538 126.346 169.37C126.226 169.214 126.154 169.064 126.13 168.92C126.214 168.668 126.346 168.476 126.526 168.344C126.706 168.212 126.94 168.146 127.228 168.146C127.492 168.146 127.732 168.194 127.948 168.29C128.164 168.398 128.38 168.542 128.596 168.722L129.334 169.334L129.262 169.37H128.74L128.686 169.262C128.818 169.178 128.926 169.076 129.01 168.956C129.106 168.836 129.19 168.656 129.262 168.416C129.346 168.176 129.412 167.846 129.46 167.426C129.52 167.018 129.562 166.508 129.586 165.896C129.61 165.284 129.622 164.546 129.622 163.682V160.82C129.622 160.34 129.616 159.926 129.604 159.578C129.604 159.23 129.592 158.87 129.568 158.498L128.128 158.372V157.688L130.81 156.662L131.17 156.806L131.116 159.164V163.718C131.116 164.642 131.092 165.428 131.044 166.076C130.996 166.724 130.894 167.264 130.738 167.696C130.594 168.14 130.372 168.524 130.072 168.848C129.772 169.196 129.448 169.466 129.1 169.658C128.764 169.862 128.32 169.964 127.768 169.964ZM130.306 154.844C129.97 154.844 129.682 154.736 129.442 154.52C129.214 154.292 129.1 154.01 129.1 153.674C129.1 153.338 129.214 153.062 129.442 152.846C129.682 152.618 129.97 152.504 130.306 152.504C130.654 152.504 130.942 152.618 131.17 152.846C131.41 153.062 131.53 153.338 131.53 153.674C131.53 154.01 131.41 154.292 131.17 154.52C130.942 154.736 130.654 154.844 130.306 154.844ZM136.861 165.734C136.093 165.734 135.493 165.488 135.061 164.996C134.641 164.504 134.437 163.682 134.449 162.53L134.485 157.634L134.917 158.084L133.135 157.706V157.022L135.799 156.752L136.069 156.914L135.997 159.182V162.314C135.997 163.082 136.117 163.628 136.357 163.952C136.597 164.264 136.969 164.42 137.473 164.42C137.773 164.42 138.079 164.372 138.391 164.276C138.703 164.168 139.015 164.012 139.327 163.808C139.639 163.604 139.945 163.358 140.245 163.07L140.479 163.862H140.119C139.819 164.27 139.489 164.618 139.129 164.906C138.781 165.182 138.415 165.386 138.031 165.518C137.647 165.662 137.257 165.734 136.861 165.734ZM140.281 165.644L140.065 163.574L140.029 163.538L140.083 157.976L138.733 157.706V157.022L141.361 156.752L141.631 156.914L141.577 159.182V164.546L142.873 164.798V165.5L140.281 165.644ZM147.821 165.734C147.089 165.734 146.441 165.548 145.877 165.176C145.325 164.804 144.893 164.282 144.581 163.61C144.281 162.938 144.131 162.152 144.131 161.252C144.131 160.304 144.299 159.488 144.635 158.804C144.971 158.108 145.427 157.574 146.003 157.202C146.579 156.818 147.227 156.626 147.947 156.626C148.295 156.626 148.619 156.68 148.919 156.788C149.219 156.884 149.501 157.046 149.765 157.274C150.041 157.49 150.305 157.778 150.557 158.138H150.953L150.809 159.128C150.293 158.588 149.837 158.21 149.441 157.994C149.057 157.778 148.667 157.67 148.271 157.67C147.827 157.67 147.413 157.796 147.029 158.048C146.657 158.288 146.357 158.672 146.129 159.2C145.901 159.716 145.787 160.382 145.787 161.198C145.787 161.99 145.895 162.644 146.111 163.16C146.327 163.664 146.621 164.042 146.993 164.294C147.377 164.534 147.809 164.654 148.289 164.654C148.781 164.654 149.213 164.534 149.585 164.294C149.957 164.042 150.353 163.64 150.773 163.088L150.899 164.06H150.557C150.353 164.396 150.119 164.69 149.855 164.942C149.591 165.194 149.291 165.386 148.955 165.518C148.631 165.662 148.253 165.734 147.821 165.734ZM150.575 165.662L150.395 163.808V163.772V158.516L150.449 158.318L150.431 153.854L148.883 153.638V152.954L151.673 152.216L151.997 152.324L151.943 154.808V164.564L153.401 164.798V165.5L150.575 165.662ZM157.905 169.802C157.077 169.802 156.393 169.706 155.853 169.514C155.313 169.322 154.911 169.058 154.647 168.722C154.383 168.386 154.251 168.008 154.251 167.588C154.251 167.276 154.329 166.988 154.485 166.724C154.641 166.472 154.893 166.226 155.241 165.986C155.601 165.758 156.081 165.536 156.681 165.32L156.789 165.428C156.561 165.632 156.369 165.836 156.213 166.04C156.057 166.244 155.943 166.442 155.871 166.634C155.811 166.838 155.781 167.06 155.781 167.3C155.781 167.66 155.871 167.96 156.051 168.2C156.243 168.452 156.513 168.632 156.861 168.74C157.221 168.86 157.653 168.92 158.157 168.92C158.817 168.92 159.369 168.836 159.813 168.668C160.269 168.5 160.611 168.278 160.839 168.002C161.079 167.726 161.199 167.42 161.199 167.084C161.199 166.688 161.055 166.358 160.767 166.094C160.491 165.842 160.035 165.716 159.399 165.716H157.221C157.065 165.716 156.897 165.71 156.717 165.698C156.549 165.686 156.387 165.668 156.231 165.644V165.518C155.775 165.422 155.421 165.26 155.169 165.032C154.929 164.804 154.809 164.492 154.809 164.096C154.809 163.784 154.923 163.466 155.151 163.142C155.379 162.818 155.751 162.458 156.267 162.062V161.792L156.987 162.026C156.699 162.302 156.489 162.548 156.357 162.764C156.225 162.968 156.159 163.178 156.159 163.394C156.159 163.718 156.261 163.958 156.465 164.114C156.681 164.27 157.011 164.348 157.455 164.348H159.669C160.329 164.348 160.875 164.444 161.307 164.636C161.739 164.816 162.057 165.08 162.261 165.428C162.477 165.764 162.585 166.172 162.585 166.652C162.585 167.06 162.483 167.45 162.279 167.822C162.075 168.194 161.775 168.53 161.379 168.83C160.983 169.13 160.491 169.364 159.903 169.532C159.315 169.712 158.649 169.802 157.905 169.802ZM157.995 162.566C157.347 162.566 156.771 162.452 156.267 162.224C155.775 161.996 155.385 161.666 155.097 161.234C154.809 160.79 154.665 160.244 154.665 159.596C154.665 158.972 154.809 158.438 155.097 157.994C155.385 157.55 155.781 157.214 156.285 156.986C156.789 156.746 157.359 156.626 157.995 156.626C158.391 156.626 158.751 156.668 159.075 156.752C159.399 156.836 159.687 156.956 159.939 157.112C160.203 157.256 160.425 157.442 160.605 157.67L160.677 157.688C160.881 157.928 161.037 158.204 161.145 158.516C161.253 158.828 161.307 159.188 161.307 159.596C161.307 160.208 161.163 160.742 160.875 161.198C160.599 161.642 160.209 161.984 159.705 162.224C159.201 162.452 158.631 162.566 157.995 162.566ZM157.959 161.81C158.343 161.81 158.673 161.714 158.949 161.522C159.225 161.318 159.435 161.048 159.579 160.712C159.735 160.376 159.813 159.986 159.813 159.542C159.813 159.11 159.741 158.738 159.597 158.426C159.453 158.102 159.243 157.85 158.967 157.67C158.703 157.49 158.385 157.4 158.013 157.4C157.641 157.4 157.317 157.496 157.041 157.688C156.765 157.868 156.549 158.126 156.393 158.462C156.249 158.786 156.177 159.17 156.177 159.614C156.177 160.046 156.249 160.43 156.393 160.766C156.537 161.09 156.741 161.348 157.005 161.54C157.269 161.72 157.587 161.81 157.959 161.81ZM159.993 158.03V157.526H160.209L162.351 156.59L162.729 156.752V158.03H159.993ZM163.85 165.5V164.78L165.83 164.474H166.28L168.134 164.78V165.5H163.85ZM165.2 165.5C165.212 165.2 165.218 164.828 165.218 164.384C165.23 163.928 165.236 163.46 165.236 162.98C165.248 162.5 165.254 162.068 165.254 161.684V160.82C165.254 160.34 165.248 159.926 165.236 159.578C165.236 159.23 165.224 158.87 165.2 158.498L163.76 158.372V157.688L166.514 156.662L166.856 156.806L166.802 159.164V161.684C166.802 162.068 166.802 162.5 166.802 162.98C166.814 163.46 166.82 163.928 166.82 164.384C166.832 164.828 166.844 165.2 166.856 165.5H165.2ZM165.938 154.844C165.602 154.844 165.314 154.736 165.074 154.52C164.846 154.292 164.732 154.01 164.732 153.674C164.732 153.338 164.846 153.062 165.074 152.846C165.314 152.618 165.602 152.504 165.938 152.504C166.286 152.504 166.574 152.618 166.802 152.846C167.042 153.062 167.162 153.338 167.162 153.674C167.162 154.01 167.042 154.292 166.802 154.52C166.574 154.736 166.286 154.844 165.938 154.844ZM169.459 165.5V164.78L171.439 164.474H171.871L173.707 164.78V165.5H169.459ZM170.809 165.5C170.809 165.2 170.809 164.828 170.809 164.384C170.821 163.928 170.827 163.46 170.827 162.98C170.839 162.5 170.845 162.068 170.845 161.684V160.802C170.845 160.478 170.839 160.19 170.827 159.938C170.827 159.686 170.821 159.446 170.809 159.218C170.809 158.99 170.809 158.75 170.809 158.498L169.351 158.372V157.688L171.817 156.662L172.159 156.806L172.393 158.84L172.411 158.858V161.684C172.411 162.068 172.411 162.5 172.411 162.98C172.423 163.46 172.429 163.928 172.429 164.384C172.441 164.828 172.447 165.2 172.447 165.5H170.809ZM175.057 165.5V164.78L177.037 164.474H177.469L179.323 164.78V165.5H175.057ZM176.389 165.5C176.401 165.2 176.407 164.828 176.407 164.384C176.419 163.94 176.425 163.478 176.425 162.998C176.437 162.518 176.443 162.08 176.443 161.684V160.082C176.443 159.278 176.323 158.726 176.083 158.426C175.843 158.114 175.453 157.958 174.913 157.958C174.625 157.958 174.337 158 174.049 158.084C173.761 158.168 173.467 158.3 173.167 158.48C172.867 158.66 172.549 158.894 172.213 159.182L172.015 158.48H172.249C172.537 158.12 172.861 157.802 173.221 157.526C173.581 157.25 173.965 157.034 174.373 156.878C174.781 156.71 175.189 156.626 175.597 156.626C176.401 156.626 177.001 156.89 177.397 157.418C177.793 157.934 177.991 158.762 177.991 159.902V161.684C177.991 162.08 177.991 162.518 177.991 162.998C178.003 163.478 178.009 163.94 178.009 164.384C178.009 164.828 178.015 165.2 178.027 165.5H176.389ZM184.132 169.802C183.304 169.802 182.62 169.706 182.08 169.514C181.54 169.322 181.138 169.058 180.874 168.722C180.61 168.386 180.478 168.008 180.478 167.588C180.478 167.276 180.556 166.988 180.712 166.724C180.868 166.472 181.12 166.226 181.468 165.986C181.828 165.758 182.308 165.536 182.908 165.32L183.016 165.428C182.788 165.632 182.596 165.836 182.44 166.04C182.284 166.244 182.17 166.442 182.098 166.634C182.038 166.838 182.008 167.06 182.008 167.3C182.008 167.66 182.098 167.96 182.278 168.2C182.47 168.452 182.74 168.632 183.088 168.74C183.448 168.86 183.88 168.92 184.384 168.92C185.044 168.92 185.596 168.836 186.04 168.668C186.496 168.5 186.838 168.278 187.066 168.002C187.306 167.726 187.426 167.42 187.426 167.084C187.426 166.688 187.282 166.358 186.994 166.094C186.718 165.842 186.262 165.716 185.626 165.716H183.448C183.292 165.716 183.124 165.71 182.944 165.698C182.776 165.686 182.614 165.668 182.458 165.644V165.518C182.002 165.422 181.648 165.26 181.396 165.032C181.156 164.804 181.036 164.492 181.036 164.096C181.036 163.784 181.15 163.466 181.378 163.142C181.606 162.818 181.978 162.458 182.494 162.062V161.792L183.214 162.026C182.926 162.302 182.716 162.548 182.584 162.764C182.452 162.968 182.386 163.178 182.386 163.394C182.386 163.718 182.488 163.958 182.692 164.114C182.908 164.27 183.238 164.348 183.682 164.348H185.896C186.556 164.348 187.102 164.444 187.534 164.636C187.966 164.816 188.284 165.08 188.488 165.428C188.704 165.764 188.812 166.172 188.812 166.652C188.812 167.06 188.71 167.45 188.506 167.822C188.302 168.194 188.002 168.53 187.606 168.83C187.21 169.13 186.718 169.364 186.13 169.532C185.542 169.712 184.876 169.802 184.132 169.802ZM184.222 162.566C183.574 162.566 182.998 162.452 182.494 162.224C182.002 161.996 181.612 161.666 181.324 161.234C181.036 160.79 180.892 160.244 180.892 159.596C180.892 158.972 181.036 158.438 181.324 157.994C181.612 157.55 182.008 157.214 182.512 156.986C183.016 156.746 183.586 156.626 184.222 156.626C184.618 156.626 184.978 156.668 185.302 156.752C185.626 156.836 185.914 156.956 186.166 157.112C186.43 157.256 186.652 157.442 186.832 157.67L186.904 157.688C187.108 157.928 187.264 158.204 187.372 158.516C187.48 158.828 187.534 159.188 187.534 159.596C187.534 160.208 187.39 160.742 187.102 161.198C186.826 161.642 186.436 161.984 185.932 162.224C185.428 162.452 184.858 162.566 184.222 162.566ZM184.186 161.81C184.57 161.81 184.9 161.714 185.176 161.522C185.452 161.318 185.662 161.048 185.806 160.712C185.962 160.376 186.04 159.986 186.04 159.542C186.04 159.11 185.968 158.738 185.824 158.426C185.68 158.102 185.47 157.85 185.194 157.67C184.93 157.49 184.612 157.4 184.24 157.4C183.868 157.4 183.544 157.496 183.268 157.688C182.992 157.868 182.776 158.126 182.62 158.462C182.476 158.786 182.404 159.17 182.404 159.614C182.404 160.046 182.476 160.43 182.62 160.766C182.764 161.09 182.968 161.348 183.232 161.54C183.496 161.72 183.814 161.81 184.186 161.81ZM186.22 158.03V157.526H186.436L188.578 156.59L188.956 156.752V158.03H186.22ZM192.11 165.734C191.75 165.734 191.444 165.608 191.192 165.356C190.952 165.104 190.832 164.804 190.832 164.456C190.832 164.096 190.952 163.79 191.192 163.538C191.444 163.286 191.75 163.16 192.11 163.16C192.47 163.16 192.776 163.286 193.028 163.538C193.28 163.79 193.406 164.096 193.406 164.456C193.406 164.804 193.28 165.104 193.028 165.356C192.776 165.608 192.47 165.734 192.11 165.734Z" fill="#FFF9F2"/>
<path fill-rule="evenodd" clip-rule="evenodd" d="M63.9998 269.833C82.4092 269.833 97.3332 254.909 97.3332 236.5C97.3332 218.091 82.4092 203.167 63.9998 203.167C45.5903 203.167 30.6665 218.091 30.6665 236.5C30.6665 254.909 45.5903 269.833 63.9998 269.833ZM66.4998 226.5C66.4998 225.119 65.3805 224 63.9998 224C62.6192 224 61.4998 225.119 61.4998 226.5V234H53.9998C52.6191 234 51.4998 235.119 51.4998 236.5C51.4998 237.881 52.6191 239 53.9998 239H61.4998V246.5C61.4998 247.881 62.6192 249 63.9998 249C65.3805 249 66.4998 247.881 66.4998 246.5V239H73.9998C75.3805 239 76.4998 237.881 76.4998 236.5C76.4998 235.119 75.3805 234 73.9998 234H66.4998V226.5Z" fill="#FFF9F2"/>
</svg>
