<svg width="538" height="316" viewBox="0 0 538 316" fill="none" xmlns="http://www.w3.org/2000/svg">
<rect width="538" height="316" rx="8" fill="#35545D"/>
<rect x="24" y="27.5" width="78" height="25" rx="12.5" fill="#FFF9F2"/>
<path d="M37.9652 42.826H35.7532L35.2912 45.5H34.2132L34.6752 42.826H33.0512V41.804H34.8572L35.2632 39.424H33.6392V38.402H35.4452L35.9072 35.728H36.9712L36.5092 38.402H38.7212L39.1832 35.728H40.2612L39.7992 38.402H41.4232V39.424H39.6172L39.2112 41.804H40.8352V42.826H39.0292L38.5672 45.5H37.5032L37.9652 42.826ZM38.1332 41.804L38.5532 39.424H36.3412L35.9212 41.804H38.1332ZM45.6475 39.746C46.2542 39.746 46.7022 39.62 46.9915 39.368C47.2808 39.1067 47.4255 38.7753 47.4255 38.374V38.276C47.4255 37.828 47.2855 37.4873 47.0055 37.254C46.7255 37.0113 46.3475 36.89 45.8715 36.89C45.4048 36.89 45.0082 36.9973 44.6815 37.212C44.3548 37.4173 44.0795 37.7067 43.8555 38.08L42.8055 37.17C42.9548 36.9553 43.1228 36.75 43.3095 36.554C43.4962 36.358 43.7155 36.19 43.9675 36.05C44.2195 35.9007 44.5042 35.784 44.8215 35.7C45.1388 35.6067 45.5028 35.56 45.9135 35.56C46.3708 35.56 46.7955 35.616 47.1875 35.728C47.5795 35.84 47.9155 36.008 48.1955 36.232C48.4755 36.4467 48.6948 36.7127 48.8535 37.03C49.0122 37.338 49.0915 37.688 49.0915 38.08C49.0915 38.388 49.0402 38.668 48.9375 38.92C48.8442 39.172 48.7088 39.396 48.5315 39.592C48.3635 39.7787 48.1628 39.9327 47.9295 40.054C47.7055 40.1753 47.4675 40.264 47.2155 40.32V40.39C47.4955 40.446 47.7568 40.5393 47.9995 40.67C48.2515 40.7913 48.4708 40.9547 48.6575 41.16C48.8442 41.356 48.9888 41.594 49.0915 41.874C49.2035 42.1447 49.2595 42.4573 49.2595 42.812C49.2595 43.2413 49.1755 43.6333 49.0075 43.988C48.8395 44.3333 48.6015 44.632 48.2935 44.884C47.9948 45.136 47.6308 45.332 47.2015 45.472C46.7722 45.6027 46.2962 45.668 45.7735 45.668C45.3162 45.668 44.9148 45.6167 44.5695 45.514C44.2242 45.4207 43.9162 45.2947 43.6455 45.136C43.3842 44.968 43.1508 44.7813 42.9455 44.576C42.7495 44.3613 42.5768 44.142 42.4275 43.918L43.5895 43.008C43.7108 43.204 43.8368 43.386 43.9675 43.554C44.1075 43.7127 44.2615 43.8527 44.4295 43.974C44.6068 44.086 44.8028 44.1747 45.0175 44.24C45.2415 44.3053 45.4935 44.338 45.7735 44.338C46.3708 44.338 46.8282 44.198 47.1455 43.918C47.4628 43.6287 47.6215 43.232 47.6215 42.728V42.63C47.6215 42.126 47.4535 41.7433 47.1175 41.482C46.7815 41.2207 46.3055 41.09 45.6895 41.09H44.6535V39.746H45.6475ZM57.486 37.1H53.146L52.894 40.558H52.992C53.104 40.362 53.2207 40.1893 53.342 40.04C53.4634 39.8813 53.6034 39.746 53.762 39.634C53.9207 39.522 54.1027 39.438 54.308 39.382C54.5134 39.3167 54.756 39.284 55.036 39.284C55.456 39.284 55.8434 39.354 56.198 39.494C56.562 39.634 56.8747 39.8347 57.136 40.096C57.4067 40.3573 57.6167 40.6793 57.766 41.062C57.9154 41.4353 57.99 41.86 57.99 42.336C57.99 42.8213 57.9107 43.2693 57.752 43.68C57.6027 44.0907 57.3787 44.4453 57.08 44.744C56.7814 45.0333 56.4127 45.262 55.974 45.43C55.5447 45.5887 55.0547 45.668 54.504 45.668C54.0654 45.668 53.678 45.6167 53.342 45.514C53.006 45.4207 52.7074 45.2947 52.446 45.136C52.194 44.968 51.97 44.7813 51.774 44.576C51.5874 44.3613 51.4194 44.142 51.27 43.918L52.418 43.008C52.5394 43.204 52.6654 43.3813 52.796 43.54C52.9267 43.6987 53.076 43.8387 53.244 43.96C53.412 44.0813 53.5987 44.1747 53.804 44.24C54.0187 44.3053 54.2614 44.338 54.532 44.338C55.1107 44.338 55.554 44.1793 55.862 43.862C56.1794 43.5447 56.338 43.106 56.338 42.546V42.378C56.338 41.818 56.1794 41.3793 55.862 41.062C55.554 40.7447 55.1107 40.586 54.532 40.586C54.112 40.586 53.776 40.6653 53.524 40.824C53.272 40.9827 53.0574 41.16 52.88 41.356L51.578 41.174L51.942 35.728H57.486V37.1ZM65.8806 37.1H61.5406L61.2886 40.558H61.3866C61.4986 40.362 61.6152 40.1893 61.7366 40.04C61.8579 39.8813 61.9979 39.746 62.1566 39.634C62.3152 39.522 62.4972 39.438 62.7026 39.382C62.9079 39.3167 63.1506 39.284 63.4306 39.284C63.8506 39.284 64.2379 39.354 64.5926 39.494C64.9566 39.634 65.2692 39.8347 65.5306 40.096C65.8012 40.3573 66.0112 40.6793 66.1606 41.062C66.3099 41.4353 66.3846 41.86 66.3846 42.336C66.3846 42.8213 66.3052 43.2693 66.1466 43.68C65.9972 44.0907 65.7732 44.4453 65.4746 44.744C65.1759 45.0333 64.8072 45.262 64.3686 45.43C63.9392 45.5887 63.4492 45.668 62.8986 45.668C62.4599 45.668 62.0726 45.6167 61.7366 45.514C61.4006 45.4207 61.1019 45.2947 60.8406 45.136C60.5886 44.968 60.3646 44.7813 60.1686 44.576C59.9819 44.3613 59.8139 44.142 59.6646 43.918L60.8126 43.008C60.9339 43.204 61.0599 43.3813 61.1906 43.54C61.3212 43.6987 61.4706 43.8387 61.6386 43.96C61.8066 44.0813 61.9932 44.1747 62.1986 44.24C62.4132 44.3053 62.6559 44.338 62.9266 44.338C63.5052 44.338 63.9486 44.1793 64.2566 43.862C64.5739 43.5447 64.7326 43.106 64.7326 42.546V42.378C64.7326 41.818 64.5739 41.3793 64.2566 41.062C63.9486 40.7447 63.5052 40.586 62.9266 40.586C62.5066 40.586 62.1706 40.6653 61.9186 40.824C61.6666 40.9827 61.4519 41.16 61.2746 41.356L59.9726 41.174L60.3366 35.728H65.8806V37.1ZM72.1891 45.5V43.596H67.6531V42.238L71.6151 35.728H73.6871V42.35H75.0171V43.596H73.6871V45.5H72.1891ZM68.9971 42.35H72.1891V37.17H72.0911L68.9971 42.35ZM82.6696 37.1H78.3296L78.0776 40.558H78.1756C78.2876 40.362 78.4043 40.1893 78.5256 40.04C78.647 39.8813 78.787 39.746 78.9456 39.634C79.1043 39.522 79.2863 39.438 79.4916 39.382C79.697 39.3167 79.9396 39.284 80.2196 39.284C80.6396 39.284 81.027 39.354 81.3816 39.494C81.7456 39.634 82.0583 39.8347 82.3196 40.096C82.5903 40.3573 82.8003 40.6793 82.9496 41.062C83.099 41.4353 83.1736 41.86 83.1736 42.336C83.1736 42.8213 83.0943 43.2693 82.9356 43.68C82.7863 44.0907 82.5623 44.4453 82.2636 44.744C81.965 45.0333 81.5963 45.262 81.1576 45.43C80.7283 45.5887 80.2383 45.668 79.6876 45.668C79.249 45.668 78.8616 45.6167 78.5256 45.514C78.1896 45.4207 77.891 45.2947 77.6296 45.136C77.3776 44.968 77.1536 44.7813 76.9576 44.576C76.771 44.3613 76.603 44.142 76.4536 43.918L77.6016 43.008C77.723 43.204 77.849 43.3813 77.9796 43.54C78.1103 43.6987 78.2596 43.8387 78.4276 43.96C78.5956 44.0813 78.7823 44.1747 78.9876 44.24C79.2023 44.3053 79.445 44.338 79.7156 44.338C80.2943 44.338 80.7376 44.1793 81.0456 43.862C81.363 43.5447 81.5216 43.106 81.5216 42.546V42.378C81.5216 41.818 81.363 41.3793 81.0456 41.062C80.7376 40.7447 80.2943 40.586 79.7156 40.586C79.2956 40.586 78.9596 40.6653 78.7076 40.824C78.4556 40.9827 78.241 41.16 78.0636 41.356L76.7616 41.174L77.1256 35.728H82.6696V37.1ZM85.1561 35.728H88.6141C89.2395 35.728 89.8041 35.8307 90.3081 36.036C90.8215 36.2413 91.2555 36.5493 91.6101 36.96C91.9741 37.3613 92.2541 37.87 92.4501 38.486C92.6461 39.0927 92.7441 39.802 92.7441 40.614C92.7441 41.426 92.6461 42.14 92.4501 42.756C92.2541 43.3627 91.9741 43.8713 91.6101 44.282C91.2555 44.6833 90.8215 44.9867 90.3081 45.192C89.8041 45.3973 89.2395 45.5 88.6141 45.5H85.1561V35.728ZM88.6141 44.1C89.3421 44.1 89.9301 43.8713 90.3781 43.414C90.8261 42.9567 91.0501 42.2847 91.0501 41.398V39.83C91.0501 38.9433 90.8261 38.2713 90.3781 37.814C89.9301 37.3567 89.3421 37.128 88.6141 37.128H86.7381V44.1H88.6141Z" fill="#35545D"/>
<rect x="110" y="27.5" width="45" height="25" rx="12.5" fill="#FFF9F2"/>
<path d="M125.726 45.5L124.844 42.854H121.19L120.336 45.5H118.726L122.058 35.728H124.046L127.378 45.5H125.726ZM123.052 37.184H122.982L121.568 41.496H124.452L123.052 37.184ZM135.173 45.5L134.291 42.854H130.637L129.783 45.5H128.173L131.505 35.728H133.493L136.825 45.5H135.173ZM132.499 37.184H132.429L131.015 41.496H133.899L132.499 37.184ZM144.621 45.5L143.739 42.854H140.085L139.231 45.5H137.621L140.953 35.728H142.941L146.273 45.5H144.621ZM141.947 37.184H141.877L140.463 41.496H143.347L141.947 37.184Z" fill="#35545D"/>
<path d="M25.935 100.5V78.375H32.55C34.02 78.375 35.355 78.64 36.555 79.17C37.755 79.69 38.785 80.435 39.645 81.405C40.505 82.375 41.17 83.54 41.64 84.9C42.11 86.25 42.345 87.755 42.345 89.415C42.345 91.075 42.11 92.585 41.64 93.945C41.17 95.295 40.505 96.46 39.645 97.44C38.785 98.42 37.755 99.175 36.555 99.705C35.355 100.235 34.02 100.5 32.55 100.5H25.935ZM29.895 99.315L28.11 97.35H32.04C33.24 97.35 34.31 97.03 35.25 96.39C36.2 95.74 36.95 94.825 37.5 93.645C38.05 92.455 38.325 91.045 38.325 89.415C38.325 87.775 38.05 86.365 37.5 85.185C36.95 84.005 36.2 83.1 35.25 82.47C34.31 81.84 33.24 81.525 32.04 81.525H28.11L29.895 79.56V99.315ZM47.7832 81.525L49.5682 79.56V89.01L48.6382 87.825H56.9182V90.975H48.6382L49.5682 89.805V99.315L47.7832 97.35H58.5832V100.5H45.5932V78.375H58.5832V81.525H47.7832ZM64.6289 81.525L66.4139 79.56V89.01L65.4839 87.825H73.7639V90.975H65.4839L66.4139 89.805V99.315L64.6289 97.35H75.4289V100.5H62.4389V78.375H75.4289V81.525H64.6289ZM83.2446 100.5H79.2846V78.375H86.3946C88.0946 78.375 89.5296 78.7 90.6996 79.35C91.8796 79.99 92.7746 80.865 93.3846 81.975C94.0046 83.075 94.3146 84.305 94.3146 85.665C94.3146 87.035 94.0046 88.29 93.3846 89.43C92.7646 90.57 91.8596 91.485 90.6696 92.175C89.4896 92.855 88.0646 93.195 86.3946 93.195H83.2446V100.5ZM83.2446 91.935L81.4596 90.06H85.9596C86.8796 90.06 87.6646 89.885 88.3146 89.535C88.9646 89.175 89.4596 88.67 89.7996 88.02C90.1496 87.36 90.3246 86.575 90.3246 85.665C90.3246 84.755 90.1546 83.995 89.8146 83.385C89.4846 82.765 88.9946 82.3 88.3446 81.99C87.6946 81.68 86.8996 81.525 85.9596 81.525H81.4596L83.2446 79.56V91.935ZM119.065 81.525H112.06L113.515 79.56V100.5H109.555V79.56L111.085 81.525H104.02V78.375H119.065V81.525ZM122.088 100.5V78.375H125.988V100.5H122.088ZM145.57 78.375H152.29V100.5H148.525V80.895L148.615 80.925L143.86 100.5H138.58L133.765 80.91L133.855 80.865V100.5H130.09V78.375H136.81L141.295 98.34H141.04L145.57 78.375ZM164.645 78.375C166.125 78.375 167.355 78.585 168.335 79.005C169.315 79.415 170.05 80.015 170.54 80.805C171.04 81.595 171.29 82.56 171.29 83.7C171.29 84.8 171.065 85.735 170.615 86.505C170.175 87.265 169.615 87.85 168.935 88.26C168.255 88.67 167.555 88.9 166.835 88.95C167.595 88.97 168.355 89.155 169.115 89.505C169.885 89.855 170.525 90.415 171.035 91.185C171.545 91.955 171.8 92.99 171.8 94.29C171.8 95.52 171.555 96.605 171.065 97.545C170.575 98.475 169.795 99.2 168.725 99.72C167.665 100.24 166.28 100.5 164.57 100.5H156.365V78.375H164.645ZM160.145 88.65L158.84 87.495H163.295C164.615 87.495 165.615 87.22 166.295 86.67C166.985 86.11 167.33 85.335 167.33 84.345C167.33 83.675 167.185 83.135 166.895 82.725C166.615 82.315 166.195 82.015 165.635 81.825C165.085 81.625 164.42 81.525 163.64 81.525H158.36L160.145 79.56V88.65ZM163.79 97.35C165.07 97.35 166.055 97.06 166.745 96.48C167.435 95.9 167.78 95.09 167.78 94.05C167.78 93.45 167.67 92.935 167.45 92.505C167.24 92.065 166.94 91.71 166.55 91.44C166.17 91.16 165.72 90.955 165.2 90.825C164.69 90.695 164.13 90.63 163.52 90.63H158.84L160.145 89.46V99.315L158.36 97.35H163.79ZM177.451 81.525L179.236 79.56V89.01L178.306 87.825H186.586V90.975H178.306L179.236 89.805V99.315L177.451 97.35H188.251V100.5H175.261V78.375H188.251V81.525H177.451ZM192.107 100.5V78.375H200.627C202.857 78.375 204.532 78.885 205.652 79.905C206.772 80.925 207.332 82.425 207.332 84.405C207.332 85.565 207.112 86.55 206.672 87.36C206.232 88.17 205.697 88.795 205.067 89.235C204.437 89.675 203.837 89.925 203.267 89.985C203.847 90.025 204.407 90.175 204.947 90.435C205.487 90.695 205.927 91.105 206.267 91.665C206.617 92.215 206.792 92.96 206.792 93.9C206.792 94.65 206.792 95.4 206.792 96.15C206.792 96.89 206.792 97.635 206.792 98.385C206.792 98.855 206.832 99.29 206.912 99.69C206.992 100.08 207.092 100.35 207.212 100.5H203.237C203.137 100.32 203.047 100.045 202.967 99.675C202.897 99.295 202.862 98.865 202.862 98.385C202.862 97.705 202.862 97.04 202.862 96.39C202.862 95.73 202.862 95.055 202.862 94.365C202.862 93.455 202.607 92.765 202.097 92.295C201.587 91.825 200.817 91.59 199.787 91.59H194.912L195.962 90.255V100.5H192.107ZM195.962 89.925L194.912 88.44H199.817C200.467 88.44 201.052 88.29 201.572 87.99C202.092 87.68 202.502 87.25 202.802 86.7C203.112 86.15 203.267 85.505 203.267 84.765C203.267 83.685 202.957 82.875 202.337 82.335C201.717 81.795 200.837 81.525 199.697 81.525H194.807L195.962 80.13V89.925Z" fill="#FFF9F2"/>
<path d="M26.754 128.5V127.69L29.292 127.474H29.76L32.298 127.69V128.5H26.754ZM28.608 128.5C28.632 127.888 28.644 127.276 28.644 126.664C28.656 126.04 28.662 125.416 28.662 124.792C28.662 124.168 28.662 123.544 28.662 122.92V122.038C28.662 121.414 28.662 120.79 28.662 120.166C28.662 119.542 28.656 118.918 28.644 118.294C28.644 117.67 28.632 117.052 28.608 116.44H30.426C30.426 117.04 30.42 117.652 30.408 118.276C30.396 118.9 30.39 119.524 30.39 120.148C30.39 120.772 30.39 121.402 30.39 122.038V122.92C30.39 123.532 30.39 124.15 30.39 124.774C30.39 125.398 30.396 126.022 30.408 126.646C30.42 127.258 30.426 127.876 30.426 128.5H28.608ZM24.36 119.68L24.504 116.44H34.53L34.674 119.68H33.612L33.036 116.512L33.864 117.376H25.17L26.016 116.512L25.422 119.68H24.36ZM35.6331 128.5V127.78L37.6131 127.474H38.0631L39.8991 127.78V128.5H35.6331ZM37.0011 128.5C37.0131 128.2 37.0191 127.828 37.0191 127.384C37.0191 126.928 37.0191 126.46 37.0191 125.98C37.0311 125.5 37.0371 125.068 37.0371 124.684V116.854L35.5431 116.638V115.954L38.2791 115.216L38.6031 115.324L38.5491 117.808L38.5311 121.642L38.5851 121.84V124.684C38.5851 125.068 38.5851 125.5 38.5851 125.98C38.5971 126.46 38.6031 126.928 38.6031 127.384C38.6151 127.828 38.6271 128.2 38.6391 128.5H37.0011ZM41.3211 128.5V127.78L43.2831 127.474H43.7331L45.5691 127.78V128.5H41.3211ZM42.6351 128.5C42.6471 128.2 42.6531 127.828 42.6531 127.384C42.6651 126.94 42.6711 126.478 42.6711 125.998C42.6711 125.518 42.6711 125.08 42.6711 124.684V123.082C42.6711 122.278 42.5511 121.726 42.3111 121.426C42.0831 121.114 41.7051 120.958 41.1771 120.958C40.8771 120.958 40.5831 121 40.2951 121.084C40.0071 121.168 39.7131 121.3 39.4131 121.48C39.1131 121.66 38.7951 121.9 38.4591 122.2L38.1891 121.498H38.4951C38.7711 121.138 39.0891 120.82 39.4491 120.544C39.8091 120.256 40.1931 120.034 40.6011 119.878C41.0211 119.71 41.4411 119.626 41.8611 119.626C42.6651 119.626 43.2591 119.89 43.6431 120.418C44.0391 120.934 44.2371 121.762 44.2371 122.902V124.684C44.2371 125.08 44.2371 125.518 44.2371 125.998C44.2491 126.478 44.2551 126.94 44.2551 127.384C44.2671 127.828 44.2791 128.2 44.2911 128.5H42.6351ZM51.1357 128.734C50.2717 128.734 49.5217 128.56 48.8857 128.212C48.2617 127.852 47.7757 127.342 47.4277 126.682C47.0917 126.01 46.9237 125.212 46.9237 124.288C46.9237 123.352 47.1037 122.536 47.4637 121.84C47.8357 121.144 48.3337 120.604 48.9577 120.22C49.5937 119.824 50.2957 119.626 51.0637 119.626C51.7357 119.626 52.3297 119.764 52.8457 120.04C53.3617 120.316 53.7697 120.712 54.0697 121.228C54.3697 121.744 54.5197 122.368 54.5197 123.1C54.5197 123.316 54.5077 123.52 54.4837 123.712C54.4597 123.892 54.4297 124.048 54.3937 124.18H47.6977V123.388H52.0177C52.4377 123.364 52.7077 123.268 52.8277 123.1C52.9477 122.92 53.0077 122.71 53.0077 122.47C53.0077 122.038 52.9297 121.678 52.7737 121.39C52.6177 121.09 52.3957 120.868 52.1077 120.724C51.8197 120.568 51.4717 120.49 51.0637 120.49C50.6437 120.49 50.2357 120.61 49.8397 120.85C49.4557 121.09 49.1437 121.474 48.9037 122.002C48.6637 122.518 48.5437 123.208 48.5437 124.072C48.5437 124.816 48.6637 125.446 48.9037 125.962C49.1437 126.478 49.4857 126.874 49.9297 127.15C50.3857 127.414 50.9197 127.546 51.5317 127.546C52.1197 127.546 52.6237 127.444 53.0437 127.24C53.4757 127.036 53.8717 126.736 54.2317 126.34L54.6637 126.7C54.4117 127.096 54.1297 127.45 53.8177 127.762C53.5057 128.074 53.1337 128.314 52.7017 128.482C52.2817 128.65 51.7597 128.734 51.1357 128.734ZM68.7929 132.406C68.0249 132.406 67.3649 132.232 66.8129 131.884C66.2729 131.548 65.8589 131.086 65.5709 130.498C65.2949 129.922 65.1569 129.292 65.1569 128.608V128.194H66.8849C66.8489 128.878 66.9269 129.454 67.1189 129.922C67.3109 130.39 67.6049 130.744 68.0009 130.984C68.3969 131.224 68.8709 131.344 69.4229 131.344C69.6269 131.344 69.8489 131.326 70.0889 131.29C70.3289 131.254 70.5809 131.2 70.8449 131.128L71.0429 131.83C70.7549 132.01 70.4069 132.148 69.9989 132.244C69.6029 132.352 69.2009 132.406 68.7929 132.406ZM66.0929 128.77C65.3609 128.77 64.6589 128.632 63.9869 128.356C63.3149 128.08 62.7149 127.678 62.1869 127.15C61.6589 126.622 61.2389 125.968 60.9269 125.188C60.6269 124.396 60.4769 123.496 60.4769 122.488C60.4769 121.504 60.6269 120.622 60.9269 119.842C61.2389 119.062 61.6589 118.402 62.1869 117.862C62.7149 117.31 63.3149 116.89 63.9869 116.602C64.6589 116.314 65.3609 116.17 66.0929 116.17C66.8249 116.17 67.5209 116.308 68.1809 116.584C68.8529 116.848 69.4529 117.25 69.9809 117.79C70.5089 118.33 70.9229 118.99 71.2229 119.77C71.5349 120.538 71.6909 121.432 71.6909 122.452C71.6909 123.436 71.5409 124.318 71.2409 125.098C70.9409 125.878 70.5269 126.544 69.9989 127.096C69.4709 127.636 68.8709 128.05 68.1989 128.338C67.5269 128.626 66.8249 128.77 66.0929 128.77ZM66.0929 127.834C66.7289 127.834 67.2749 127.684 67.7309 127.384C68.1869 127.084 68.5589 126.682 68.8469 126.178C69.1469 125.674 69.3629 125.104 69.4949 124.468C69.6389 123.832 69.7109 123.166 69.7109 122.47C69.7109 121.786 69.6389 121.126 69.4949 120.49C69.3629 119.842 69.1469 119.266 68.8469 118.762C68.5589 118.258 68.1869 117.856 67.7309 117.556C67.2749 117.256 66.7289 117.106 66.0929 117.106C65.4689 117.106 64.9229 117.256 64.4549 117.556C63.9989 117.856 63.6209 118.258 63.3209 118.762C63.0329 119.266 62.8169 119.842 62.6729 120.49C62.5289 121.126 62.4569 121.786 62.4569 122.47C62.4569 123.166 62.5289 123.832 62.6729 124.468C62.8169 125.104 63.0329 125.674 63.3209 126.178C63.6209 126.682 63.9989 127.084 64.4549 127.384C64.9229 127.684 65.4689 127.834 66.0929 127.834ZM76.6732 128.734C75.9052 128.734 75.3052 128.488 74.8732 127.996C74.4532 127.504 74.2492 126.682 74.2612 125.53L74.2972 120.634L74.7292 121.084L72.9472 120.706V120.022L75.6112 119.752L75.8812 119.914L75.8092 122.182V125.314C75.8092 126.082 75.9292 126.628 76.1692 126.952C76.4092 127.264 76.7812 127.42 77.2852 127.42C77.5852 127.42 77.8912 127.372 78.2032 127.276C78.5152 127.168 78.8272 127.012 79.1392 126.808C79.4512 126.604 79.7572 126.358 80.0572 126.07L80.2912 126.862H79.9312C79.6312 127.27 79.3012 127.618 78.9412 127.906C78.5932 128.182 78.2272 128.386 77.8432 128.518C77.4592 128.662 77.0692 128.734 76.6732 128.734ZM80.0932 128.644L79.8772 126.574L79.8412 126.538L79.8952 120.976L78.5452 120.706V120.022L81.1732 119.752L81.4432 119.914L81.3892 122.182V127.546L82.6852 127.798V128.5L80.0932 128.644ZM83.957 128.5V127.78L85.937 127.474H86.387L88.241 127.78V128.5H83.957ZM85.307 128.5C85.319 128.2 85.325 127.828 85.325 127.384C85.337 126.928 85.343 126.46 85.343 125.98C85.355 125.5 85.361 125.068 85.361 124.684V123.82C85.361 123.34 85.355 122.926 85.343 122.578C85.343 122.23 85.331 121.87 85.307 121.498L83.867 121.372V120.688L86.621 119.662L86.963 119.806L86.909 122.164V124.684C86.909 125.068 86.909 125.5 86.909 125.98C86.921 126.46 86.927 126.928 86.927 127.384C86.939 127.828 86.951 128.2 86.963 128.5H85.307ZM86.045 117.844C85.709 117.844 85.421 117.736 85.181 117.52C84.953 117.292 84.839 117.01 84.839 116.674C84.839 116.338 84.953 116.062 85.181 115.846C85.421 115.618 85.709 115.504 86.045 115.504C86.393 115.504 86.681 115.618 86.909 115.846C87.149 116.062 87.269 116.338 87.269 116.674C87.269 117.01 87.149 117.292 86.909 117.52C86.681 117.736 86.393 117.844 86.045 117.844ZM93.8681 128.734C93.0041 128.734 92.2541 128.56 91.6181 128.212C90.9941 127.852 90.5081 127.342 90.1601 126.682C89.8241 126.01 89.6561 125.212 89.6561 124.288C89.6561 123.352 89.8361 122.536 90.1961 121.84C90.5681 121.144 91.0661 120.604 91.6901 120.22C92.3261 119.824 93.0281 119.626 93.7961 119.626C94.4681 119.626 95.0621 119.764 95.5781 120.04C96.0941 120.316 96.5021 120.712 96.8021 121.228C97.1021 121.744 97.2521 122.368 97.2521 123.1C97.2521 123.316 97.2401 123.52 97.2161 123.712C97.1921 123.892 97.1621 124.048 97.1261 124.18H90.4301V123.388H94.7501C95.1701 123.364 95.4401 123.268 95.5601 123.1C95.6801 122.92 95.7401 122.71 95.7401 122.47C95.7401 122.038 95.6621 121.678 95.5061 121.39C95.3501 121.09 95.1281 120.868 94.8401 120.724C94.5521 120.568 94.2041 120.49 93.7961 120.49C93.3761 120.49 92.9681 120.61 92.5721 120.85C92.1881 121.09 91.8761 121.474 91.6361 122.002C91.3961 122.518 91.2761 123.208 91.2761 124.072C91.2761 124.816 91.3961 125.446 91.6361 125.962C91.8761 126.478 92.2181 126.874 92.6621 127.15C93.1181 127.414 93.6521 127.546 94.2641 127.546C94.8521 127.546 95.3561 127.444 95.7761 127.24C96.2081 127.036 96.6041 126.736 96.9641 126.34L97.3961 126.7C97.1441 127.096 96.8621 127.45 96.5501 127.762C96.2381 128.074 95.8661 128.314 95.4341 128.482C95.0141 128.65 94.4921 128.734 93.8681 128.734ZM100.665 120.832V119.842H103.923V120.832H100.665ZM101.997 128.716C101.349 128.716 100.833 128.542 100.449 128.194C100.065 127.846 99.8725 127.312 99.8725 126.592C99.8725 126.364 99.8725 126.142 99.8725 125.926C99.8845 125.71 99.8905 125.44 99.8905 125.116V120.832H98.3605V120.022L100.629 119.752L99.9085 120.328L100.485 117.394H101.583L101.421 120.292L101.457 120.598V126.394C101.457 126.862 101.547 127.204 101.727 127.42C101.919 127.624 102.171 127.726 102.483 127.726C102.699 127.726 102.897 127.684 103.077 127.6C103.269 127.516 103.473 127.408 103.689 127.276L104.103 127.816C103.959 127.996 103.779 128.158 103.563 128.302C103.359 128.434 103.125 128.536 102.861 128.608C102.597 128.68 102.309 128.716 101.997 128.716ZM108.554 128.5V127.69L110.354 127.474H110.732L112.73 127.69V128.5H108.554ZM109.724 128.5L113.9 116.35H115.16L119.354 128.5H117.536L113.954 117.88H114.188L113.99 118.654L110.642 128.5H109.724ZM111.668 124.63V123.73H116.888V124.63H111.668ZM115.412 128.5V127.69L117.716 127.474H118.148L120.434 127.69V128.5H115.412ZM121.383 128.5V127.78L123.363 127.474H123.795L125.631 127.78V128.5H121.383ZM122.733 128.5C122.733 128.2 122.733 127.828 122.733 127.384C122.745 126.928 122.751 126.46 122.751 125.98C122.763 125.5 122.769 125.068 122.769 124.684V123.802C122.769 123.478 122.763 123.19 122.751 122.938C122.751 122.686 122.745 122.446 122.733 122.218C122.733 121.99 122.733 121.75 122.733 121.498L121.275 121.372V120.688L123.741 119.662L124.083 119.806L124.317 121.84L124.335 121.858V124.684C124.335 125.068 124.335 125.5 124.335 125.98C124.347 126.46 124.353 126.928 124.353 127.384C124.365 127.828 124.371 128.2 124.371 128.5H122.733ZM126.981 128.5V127.78L128.961 127.474H129.393L131.247 127.78V128.5H126.981ZM128.313 128.5C128.325 128.2 128.331 127.828 128.331 127.384C128.343 126.94 128.349 126.478 128.349 125.998C128.361 125.518 128.367 125.08 128.367 124.684V123.082C128.367 122.278 128.247 121.726 128.007 121.426C127.767 121.114 127.377 120.958 126.837 120.958C126.549 120.958 126.261 121 125.973 121.084C125.685 121.168 125.391 121.3 125.091 121.48C124.791 121.66 124.473 121.894 124.137 122.182L123.939 121.48H124.173C124.461 121.12 124.785 120.802 125.145 120.526C125.505 120.25 125.889 120.034 126.297 119.878C126.705 119.71 127.113 119.626 127.521 119.626C128.325 119.626 128.925 119.89 129.321 120.418C129.717 120.934 129.915 121.762 129.915 122.902V124.684C129.915 125.08 129.915 125.518 129.915 125.998C129.927 126.478 129.933 126.94 129.933 127.384C129.933 127.828 129.939 128.2 129.951 128.5H128.313ZM136.757 128.734C135.893 128.734 135.149 128.554 134.525 128.194C133.901 127.834 133.421 127.324 133.085 126.664C132.761 125.992 132.599 125.194 132.599 124.27C132.599 123.31 132.791 122.482 133.175 121.786C133.559 121.09 134.075 120.556 134.723 120.184C135.371 119.812 136.067 119.626 136.811 119.626C137.387 119.626 137.909 119.728 138.377 119.932C138.845 120.124 139.229 120.394 139.529 120.742C139.829 121.09 140.021 121.48 140.105 121.912C140.057 122.14 139.961 122.32 139.817 122.452C139.685 122.584 139.499 122.65 139.259 122.65C138.947 122.65 138.713 122.566 138.557 122.398C138.413 122.218 138.305 122.002 138.233 121.75L137.783 120.166L138.701 120.922C138.413 120.766 138.119 120.652 137.819 120.58C137.519 120.508 137.219 120.472 136.919 120.472C136.403 120.472 135.941 120.61 135.533 120.886C135.125 121.162 134.801 121.57 134.561 122.11C134.333 122.65 134.219 123.31 134.219 124.09C134.219 124.882 134.351 125.536 134.615 126.052C134.879 126.556 135.227 126.928 135.659 127.168C136.103 127.408 136.595 127.528 137.135 127.528C137.471 127.528 137.783 127.492 138.071 127.42C138.359 127.336 138.635 127.204 138.899 127.024C139.175 126.844 139.439 126.61 139.691 126.322L140.159 126.718C139.931 127.126 139.661 127.48 139.349 127.78C139.049 128.08 138.689 128.314 138.269 128.482C137.849 128.65 137.345 128.734 136.757 128.734ZM141.155 128.5V127.78L143.135 127.474H143.585L145.421 127.78V128.5H141.155ZM142.523 128.5C142.535 128.2 142.541 127.828 142.541 127.384C142.541 126.928 142.541 126.46 142.541 125.98C142.553 125.5 142.559 125.068 142.559 124.684V116.854L141.065 116.638V115.954L143.801 115.216L144.125 115.324L144.071 117.808L144.053 121.642L144.107 121.84V124.684C144.107 125.068 144.107 125.5 144.107 125.98C144.119 126.46 144.125 126.928 144.125 127.384C144.137 127.828 144.149 128.2 144.161 128.5H142.523ZM146.843 128.5V127.78L148.805 127.474H149.255L151.091 127.78V128.5H146.843ZM148.157 128.5C148.169 128.2 148.175 127.828 148.175 127.384C148.187 126.94 148.193 126.478 148.193 125.998C148.193 125.518 148.193 125.08 148.193 124.684V123.082C148.193 122.278 148.073 121.726 147.833 121.426C147.605 121.114 147.227 120.958 146.699 120.958C146.399 120.958 146.105 121 145.817 121.084C145.529 121.168 145.235 121.3 144.935 121.48C144.635 121.66 144.317 121.9 143.981 122.2L143.711 121.498H144.017C144.293 121.138 144.611 120.82 144.971 120.544C145.331 120.256 145.715 120.034 146.123 119.878C146.543 119.71 146.963 119.626 147.383 119.626C148.187 119.626 148.781 119.89 149.165 120.418C149.561 120.934 149.759 121.762 149.759 122.902V124.684C149.759 125.08 149.759 125.518 149.759 125.998C149.771 126.478 149.777 126.94 149.777 127.384C149.789 127.828 149.801 128.2 149.813 128.5H148.157ZM156.639 128.734C155.919 128.734 155.235 128.566 154.587 128.23C153.951 127.894 153.435 127.39 153.039 126.718C152.643 126.034 152.445 125.2 152.445 124.216C152.445 123.22 152.643 122.38 153.039 121.696C153.435 121.012 153.951 120.496 154.587 120.148C155.235 119.8 155.919 119.626 156.639 119.626C157.359 119.626 158.037 119.8 158.673 120.148C159.321 120.484 159.843 120.994 160.239 121.678C160.647 122.362 160.851 123.202 160.851 124.198C160.851 125.182 160.647 126.016 160.239 126.7C159.843 127.372 159.321 127.882 158.673 128.23C158.037 128.566 157.359 128.734 156.639 128.734ZM156.639 127.87C157.167 127.87 157.611 127.732 157.971 127.456C158.343 127.18 158.625 126.772 158.817 126.232C159.021 125.692 159.123 125.02 159.123 124.216C159.123 123.4 159.021 122.716 158.817 122.164C158.625 121.612 158.343 121.198 157.971 120.922C157.611 120.634 157.167 120.49 156.639 120.49C156.111 120.49 155.661 120.634 155.289 120.922C154.929 121.198 154.653 121.612 154.461 122.164C154.269 122.704 154.173 123.382 154.173 124.198C154.173 125.014 154.269 125.692 154.461 126.232C154.653 126.772 154.929 127.18 155.289 127.456C155.661 127.732 156.111 127.87 156.639 127.87ZM162.446 128.5V127.78L164.426 127.474H164.894L166.964 127.78V128.5H162.446ZM163.76 128.5C163.772 128.2 163.778 127.828 163.778 127.384C163.79 126.928 163.796 126.46 163.796 125.98C163.808 125.5 163.814 125.068 163.814 124.684V123.802C163.814 123.478 163.808 123.19 163.796 122.938C163.796 122.686 163.79 122.446 163.778 122.218C163.778 121.99 163.772 121.75 163.76 121.498L162.32 121.372V120.688L164.786 119.662L165.128 119.806L165.344 122.128L165.38 122.146V124.684C165.38 125.068 165.38 125.5 165.38 125.98C165.38 126.46 165.38 126.928 165.38 127.384C165.392 127.828 165.404 128.2 165.416 128.5H163.76ZM165.29 123.478L165.074 122.218H165.326C165.53 121.678 165.77 121.216 166.046 120.832C166.322 120.448 166.628 120.154 166.964 119.95C167.3 119.734 167.642 119.626 167.99 119.626C168.302 119.626 168.572 119.698 168.8 119.842C169.04 119.974 169.214 120.142 169.322 120.346C169.31 120.754 169.214 121.078 169.034 121.318C168.866 121.558 168.596 121.678 168.224 121.678C167.996 121.678 167.792 121.636 167.612 121.552C167.432 121.468 167.258 121.354 167.09 121.21L166.64 120.778L167.54 120.652C166.964 120.94 166.496 121.324 166.136 121.804C165.788 122.272 165.506 122.83 165.29 123.478ZM172.036 128.734C171.676 128.734 171.37 128.608 171.118 128.356C170.878 128.104 170.758 127.804 170.758 127.456C170.758 127.096 170.878 126.79 171.118 126.538C171.37 126.286 171.676 126.16 172.036 126.16C172.396 126.16 172.702 126.286 172.954 126.538C173.206 126.79 173.332 127.096 173.332 127.456C173.332 127.804 173.206 128.104 172.954 128.356C172.702 128.608 172.396 128.734 172.036 128.734ZM172.036 122.578C171.676 122.578 171.37 122.452 171.118 122.2C170.878 121.948 170.758 121.648 170.758 121.3C170.758 120.94 170.878 120.634 171.118 120.382C171.37 120.13 171.676 120.004 172.036 120.004C172.396 120.004 172.702 120.13 172.954 120.382C173.206 120.634 173.332 120.94 173.332 121.3C173.332 121.648 173.206 121.948 172.954 122.2C172.702 122.452 172.396 122.578 172.036 122.578ZM188.131 132.406C187.363 132.406 186.703 132.232 186.151 131.884C185.611 131.548 185.197 131.086 184.909 130.498C184.633 129.922 184.495 129.292 184.495 128.608V128.194H186.223C186.187 128.878 186.265 129.454 186.457 129.922C186.649 130.39 186.943 130.744 187.339 130.984C187.735 131.224 188.209 131.344 188.761 131.344C188.965 131.344 189.187 131.326 189.427 131.29C189.667 131.254 189.919 131.2 190.183 131.128L190.381 131.83C190.093 132.01 189.745 132.148 189.337 132.244C188.941 132.352 188.539 132.406 188.131 132.406ZM185.431 128.77C184.699 128.77 183.997 128.632 183.325 128.356C182.653 128.08 182.053 127.678 181.525 127.15C180.997 126.622 180.577 125.968 180.265 125.188C179.965 124.396 179.815 123.496 179.815 122.488C179.815 121.504 179.965 120.622 180.265 119.842C180.577 119.062 180.997 118.402 181.525 117.862C182.053 117.31 182.653 116.89 183.325 116.602C183.997 116.314 184.699 116.17 185.431 116.17C186.163 116.17 186.859 116.308 187.519 116.584C188.191 116.848 188.791 117.25 189.319 117.79C189.847 118.33 190.261 118.99 190.561 119.77C190.873 120.538 191.029 121.432 191.029 122.452C191.029 123.436 190.879 124.318 190.579 125.098C190.279 125.878 189.865 126.544 189.337 127.096C188.809 127.636 188.209 128.05 187.537 128.338C186.865 128.626 186.163 128.77 185.431 128.77ZM185.431 127.834C186.067 127.834 186.613 127.684 187.069 127.384C187.525 127.084 187.897 126.682 188.185 126.178C188.485 125.674 188.701 125.104 188.833 124.468C188.977 123.832 189.049 123.166 189.049 122.47C189.049 121.786 188.977 121.126 188.833 120.49C188.701 119.842 188.485 119.266 188.185 118.762C187.897 118.258 187.525 117.856 187.069 117.556C186.613 117.256 186.067 117.106 185.431 117.106C184.807 117.106 184.261 117.256 183.793 117.556C183.337 117.856 182.959 118.258 182.659 118.762C182.371 119.266 182.155 119.842 182.011 120.49C181.867 121.126 181.795 121.786 181.795 122.47C181.795 123.166 181.867 123.832 182.011 124.468C182.155 125.104 182.371 125.674 182.659 126.178C182.959 126.682 183.337 127.084 183.793 127.384C184.261 127.684 184.807 127.834 185.431 127.834ZM196.011 128.734C195.243 128.734 194.643 128.488 194.211 127.996C193.791 127.504 193.587 126.682 193.599 125.53L193.635 120.634L194.067 121.084L192.285 120.706V120.022L194.949 119.752L195.219 119.914L195.147 122.182V125.314C195.147 126.082 195.267 126.628 195.507 126.952C195.747 127.264 196.119 127.42 196.623 127.42C196.923 127.42 197.229 127.372 197.541 127.276C197.853 127.168 198.165 127.012 198.477 126.808C198.789 126.604 199.095 126.358 199.395 126.07L199.629 126.862H199.269C198.969 127.27 198.639 127.618 198.279 127.906C197.931 128.182 197.565 128.386 197.181 128.518C196.797 128.662 196.407 128.734 196.011 128.734ZM199.431 128.644L199.215 126.574L199.179 126.538L199.233 120.976L197.883 120.706V120.022L200.511 119.752L200.781 119.914L200.727 122.182V127.546L202.023 127.798V128.5L199.431 128.644ZM203.295 128.5V127.78L205.275 127.474H205.725L207.579 127.78V128.5H203.295ZM204.645 128.5C204.657 128.2 204.663 127.828 204.663 127.384C204.675 126.928 204.681 126.46 204.681 125.98C204.693 125.5 204.699 125.068 204.699 124.684V123.82C204.699 123.34 204.693 122.926 204.681 122.578C204.681 122.23 204.669 121.87 204.645 121.498L203.205 121.372V120.688L205.959 119.662L206.301 119.806L206.247 122.164V124.684C206.247 125.068 206.247 125.5 206.247 125.98C206.259 126.46 206.265 126.928 206.265 127.384C206.277 127.828 206.289 128.2 206.301 128.5H204.645ZM205.383 117.844C205.047 117.844 204.759 117.736 204.519 117.52C204.291 117.292 204.177 117.01 204.177 116.674C204.177 116.338 204.291 116.062 204.519 115.846C204.759 115.618 205.047 115.504 205.383 115.504C205.731 115.504 206.019 115.618 206.247 115.846C206.487 116.062 206.607 116.338 206.607 116.674C206.607 117.01 206.487 117.292 206.247 117.52C206.019 117.736 205.731 117.844 205.383 117.844ZM213.206 128.734C212.342 128.734 211.592 128.56 210.956 128.212C210.332 127.852 209.846 127.342 209.498 126.682C209.162 126.01 208.994 125.212 208.994 124.288C208.994 123.352 209.174 122.536 209.534 121.84C209.906 121.144 210.404 120.604 211.028 120.22C211.664 119.824 212.366 119.626 213.134 119.626C213.806 119.626 214.4 119.764 214.916 120.04C215.432 120.316 215.84 120.712 216.14 121.228C216.44 121.744 216.59 122.368 216.59 123.1C216.59 123.316 216.578 123.52 216.554 123.712C216.53 123.892 216.5 124.048 216.464 124.18H209.768V123.388H214.088C214.508 123.364 214.778 123.268 214.898 123.1C215.018 122.92 215.078 122.71 215.078 122.47C215.078 122.038 215 121.678 214.844 121.39C214.688 121.09 214.466 120.868 214.178 120.724C213.89 120.568 213.542 120.49 213.134 120.49C212.714 120.49 212.306 120.61 211.91 120.85C211.526 121.09 211.214 121.474 210.974 122.002C210.734 122.518 210.614 123.208 210.614 124.072C210.614 124.816 210.734 125.446 210.974 125.962C211.214 126.478 211.556 126.874 212 127.15C212.456 127.414 212.99 127.546 213.602 127.546C214.19 127.546 214.694 127.444 215.114 127.24C215.546 127.036 215.942 126.736 216.302 126.34L216.734 126.7C216.482 127.096 216.2 127.45 215.888 127.762C215.576 128.074 215.204 128.314 214.772 128.482C214.352 128.65 213.83 128.734 213.206 128.734ZM220.002 120.832V119.842H223.26V120.832H220.002ZM221.334 128.716C220.686 128.716 220.17 128.542 219.786 128.194C219.402 127.846 219.21 127.312 219.21 126.592C219.21 126.364 219.21 126.142 219.21 125.926C219.222 125.71 219.228 125.44 219.228 125.116V120.832H217.698V120.022L219.966 119.752L219.246 120.328L219.822 117.394H220.92L220.758 120.292L220.794 120.598V126.394C220.794 126.862 220.884 127.204 221.064 127.42C221.256 127.624 221.508 127.726 221.82 127.726C222.036 127.726 222.234 127.684 222.414 127.6C222.606 127.516 222.81 127.408 223.026 127.276L223.44 127.816C223.296 127.996 223.116 128.158 222.9 128.302C222.696 128.434 222.462 128.536 222.198 128.608C221.934 128.68 221.646 128.716 221.334 128.716ZM224.591 131.722L224.321 131.056C224.777 130.84 225.149 130.612 225.437 130.372C225.737 130.144 225.971 129.88 226.139 129.58C226.307 129.28 226.433 128.926 226.517 128.518L226.715 129.094L225.851 128.59C225.563 128.458 225.347 128.302 225.203 128.122C225.071 127.93 225.005 127.708 225.005 127.456C225.005 127.108 225.107 126.82 225.311 126.592C225.515 126.352 225.815 126.232 226.211 126.232C226.415 126.232 226.607 126.268 226.787 126.34C226.967 126.412 227.141 126.538 227.309 126.718C227.369 126.91 227.405 127.12 227.417 127.348C227.441 127.564 227.453 127.78 227.453 127.996C227.453 128.584 227.327 129.118 227.075 129.598C226.823 130.09 226.481 130.516 226.049 130.876C225.617 131.236 225.131 131.518 224.591 131.722ZM233.684 128.5V127.78L235.718 127.474H236.15L238.202 127.78V128.5H233.684ZM235.124 128.5C235.136 128.08 235.142 127.66 235.142 127.24C235.142 126.808 235.142 126.382 235.142 125.962C235.154 125.53 235.16 125.104 235.16 124.684V116.854L233.666 116.638V115.954L236.438 115.216L236.78 115.324L236.708 117.808V124.684C236.708 125.104 236.708 125.53 236.708 125.962C236.72 126.382 236.726 126.808 236.726 127.24C236.738 127.66 236.75 128.08 236.762 128.5H235.124ZM243.721 128.734C243.001 128.734 242.317 128.566 241.669 128.23C241.033 127.894 240.517 127.39 240.121 126.718C239.725 126.034 239.527 125.2 239.527 124.216C239.527 123.22 239.725 122.38 240.121 121.696C240.517 121.012 241.033 120.496 241.669 120.148C242.317 119.8 243.001 119.626 243.721 119.626C244.441 119.626 245.119 119.8 245.755 120.148C246.403 120.484 246.925 120.994 247.321 121.678C247.729 122.362 247.933 123.202 247.933 124.198C247.933 125.182 247.729 126.016 247.321 126.7C246.925 127.372 246.403 127.882 245.755 128.23C245.119 128.566 244.441 128.734 243.721 128.734ZM243.721 127.87C244.249 127.87 244.693 127.732 245.053 127.456C245.425 127.18 245.707 126.772 245.899 126.232C246.103 125.692 246.205 125.02 246.205 124.216C246.205 123.4 246.103 122.716 245.899 122.164C245.707 121.612 245.425 121.198 245.053 120.922C244.693 120.634 244.249 120.49 243.721 120.49C243.193 120.49 242.743 120.634 242.371 120.922C242.011 121.198 241.735 121.612 241.543 122.164C241.351 122.704 241.255 123.382 241.255 124.198C241.255 125.014 241.351 125.692 241.543 126.232C241.735 126.772 242.011 127.18 242.371 127.456C242.743 127.732 243.193 127.87 243.721 127.87ZM250.359 132.964C250.035 132.964 249.741 132.91 249.477 132.802C249.225 132.706 249.021 132.562 248.865 132.37C248.721 132.19 248.643 131.992 248.631 131.776C248.691 131.524 248.835 131.326 249.063 131.182C249.291 131.05 249.549 130.984 249.837 130.984C250.101 130.984 250.335 131.038 250.539 131.146C250.743 131.254 250.965 131.428 251.205 131.668L251.745 132.226L251.097 132.55L250.809 132.208C251.181 132.004 251.505 131.746 251.781 131.434C252.069 131.122 252.321 130.768 252.537 130.372C252.753 129.976 252.939 129.568 253.095 129.148L253.383 128.356L253.527 128.248L255.075 123.712L256.461 119.842H257.523L254.211 128.5C253.815 129.532 253.425 130.378 253.041 131.038C252.657 131.698 252.249 132.184 251.817 132.496C251.385 132.808 250.899 132.964 250.359 132.964ZM253.293 129.544L249.441 119.842H251.223L253.959 127.312L254.175 127.618L253.293 129.544ZM248.739 120.562V119.842H253.167V120.58L251.025 120.814H250.521L248.739 120.562ZM254.571 120.562V119.842H258.207V120.562L256.857 120.814H256.443L254.571 120.562ZM261.24 128.752C260.568 128.752 259.992 128.56 259.512 128.176C259.044 127.78 258.81 127.21 258.81 126.466C258.81 126.082 258.888 125.734 259.044 125.422C259.212 125.098 259.506 124.798 259.926 124.522C260.358 124.246 260.97 123.994 261.762 123.766C262.098 123.658 262.422 123.562 262.734 123.478C263.058 123.382 263.376 123.292 263.688 123.208C264.012 123.112 264.336 123.022 264.66 122.938V123.604C264.24 123.736 263.826 123.868 263.418 124C263.01 124.132 262.602 124.264 262.194 124.396C261.678 124.564 261.294 124.75 261.042 124.954C260.79 125.146 260.622 125.35 260.538 125.566C260.466 125.77 260.43 125.98 260.43 126.196C260.43 126.652 260.568 126.988 260.844 127.204C261.12 127.42 261.468 127.528 261.888 127.528C262.128 127.528 262.35 127.492 262.554 127.42C262.758 127.336 262.998 127.198 263.274 127.006C263.562 126.802 263.928 126.526 264.372 126.178L264.588 127.114H264.012C263.688 127.462 263.388 127.756 263.112 127.996C262.848 128.236 262.566 128.422 262.266 128.554C261.978 128.686 261.636 128.752 261.24 128.752ZM265.632 128.68C265.128 128.68 264.72 128.518 264.408 128.194C264.108 127.858 263.952 127.396 263.94 126.808V126.736V122.668C263.94 122.092 263.88 121.648 263.76 121.336C263.64 121.012 263.448 120.79 263.184 120.67C262.92 120.538 262.584 120.472 262.176 120.472C261.936 120.472 261.678 120.496 261.402 120.544C261.138 120.592 260.844 120.682 260.52 120.814L261.258 120.184L260.862 121.75C260.79 122.05 260.676 122.278 260.52 122.434C260.364 122.59 260.16 122.668 259.908 122.668C259.644 122.668 259.44 122.602 259.296 122.47C259.152 122.326 259.062 122.146 259.026 121.93C259.194 121.222 259.596 120.664 260.232 120.256C260.88 119.836 261.672 119.626 262.608 119.626C263.244 119.626 263.772 119.728 264.192 119.932C264.612 120.136 264.93 120.466 265.146 120.922C265.374 121.378 265.488 121.984 265.488 122.74V126.628C265.488 127.012 265.548 127.288 265.668 127.456C265.788 127.612 265.956 127.69 266.172 127.69C266.328 127.69 266.46 127.66 266.568 127.6C266.676 127.528 266.778 127.438 266.874 127.33L267.216 127.816C267.012 128.116 266.778 128.338 266.514 128.482C266.262 128.614 265.968 128.68 265.632 128.68ZM267.856 128.5V127.78L269.89 127.474H270.322L272.374 127.78V128.5H267.856ZM269.296 128.5C269.308 128.08 269.314 127.66 269.314 127.24C269.314 126.808 269.314 126.382 269.314 125.962C269.326 125.53 269.332 125.104 269.332 124.684V116.854L267.838 116.638V115.954L270.61 115.216L270.952 115.324L270.88 117.808V124.684C270.88 125.104 270.88 125.53 270.88 125.962C270.892 126.382 270.898 126.808 270.898 127.24C270.91 127.66 270.922 128.08 270.934 128.5H269.296ZM273.933 131.722L273.663 131.056C274.119 130.84 274.491 130.612 274.779 130.372C275.079 130.144 275.313 129.88 275.481 129.58C275.649 129.28 275.775 128.926 275.859 128.518L276.057 129.094L275.193 128.59C274.905 128.458 274.689 128.302 274.545 128.122C274.413 127.93 274.347 127.708 274.347 127.456C274.347 127.108 274.449 126.82 274.653 126.592C274.857 126.352 275.157 126.232 275.553 126.232C275.757 126.232 275.949 126.268 276.129 126.34C276.309 126.412 276.483 126.538 276.651 126.718C276.711 126.91 276.747 127.12 276.759 127.348C276.783 127.564 276.795 127.78 276.795 127.996C276.795 128.584 276.669 129.118 276.417 129.598C276.165 130.09 275.823 130.516 275.391 130.876C274.959 131.236 274.473 131.518 273.933 131.722ZM285.762 128.752C285.09 128.752 284.514 128.56 284.034 128.176C283.566 127.78 283.332 127.21 283.332 126.466C283.332 126.082 283.41 125.734 283.566 125.422C283.734 125.098 284.028 124.798 284.448 124.522C284.88 124.246 285.492 123.994 286.284 123.766C286.62 123.658 286.944 123.562 287.256 123.478C287.58 123.382 287.898 123.292 288.21 123.208C288.534 123.112 288.858 123.022 289.182 122.938V123.604C288.762 123.736 288.348 123.868 287.94 124C287.532 124.132 287.124 124.264 286.716 124.396C286.2 124.564 285.816 124.75 285.564 124.954C285.312 125.146 285.144 125.35 285.06 125.566C284.988 125.77 284.952 125.98 284.952 126.196C284.952 126.652 285.09 126.988 285.366 127.204C285.642 127.42 285.99 127.528 286.41 127.528C286.65 127.528 286.872 127.492 287.076 127.42C287.28 127.336 287.52 127.198 287.796 127.006C288.084 126.802 288.45 126.526 288.894 126.178L289.11 127.114H288.534C288.21 127.462 287.91 127.756 287.634 127.996C287.37 128.236 287.088 128.422 286.788 128.554C286.5 128.686 286.158 128.752 285.762 128.752ZM290.154 128.68C289.65 128.68 289.242 128.518 288.93 128.194C288.63 127.858 288.474 127.396 288.462 126.808V126.736V122.668C288.462 122.092 288.402 121.648 288.282 121.336C288.162 121.012 287.97 120.79 287.706 120.67C287.442 120.538 287.106 120.472 286.698 120.472C286.458 120.472 286.2 120.496 285.924 120.544C285.66 120.592 285.366 120.682 285.042 120.814L285.78 120.184L285.384 121.75C285.312 122.05 285.198 122.278 285.042 122.434C284.886 122.59 284.682 122.668 284.43 122.668C284.166 122.668 283.962 122.602 283.818 122.47C283.674 122.326 283.584 122.146 283.548 121.93C283.716 121.222 284.118 120.664 284.754 120.256C285.402 119.836 286.194 119.626 287.13 119.626C287.766 119.626 288.294 119.728 288.714 119.932C289.134 120.136 289.452 120.466 289.668 120.922C289.896 121.378 290.01 121.984 290.01 122.74V126.628C290.01 127.012 290.07 127.288 290.19 127.456C290.31 127.612 290.478 127.69 290.694 127.69C290.85 127.69 290.982 127.66 291.09 127.6C291.198 127.528 291.3 127.438 291.396 127.33L291.738 127.816C291.534 128.116 291.3 128.338 291.036 128.482C290.784 128.614 290.49 128.68 290.154 128.68ZM292.523 128.5V127.78L294.503 127.474H294.935L296.771 127.78V128.5H292.523ZM293.873 128.5C293.873 128.2 293.873 127.828 293.873 127.384C293.885 126.928 293.891 126.46 293.891 125.98C293.903 125.5 293.909 125.068 293.909 124.684V123.802C293.909 123.478 293.903 123.19 293.891 122.938C293.891 122.686 293.885 122.446 293.873 122.218C293.873 121.99 293.873 121.75 293.873 121.498L292.415 121.372V120.688L294.881 119.662L295.223 119.806L295.457 121.84L295.475 121.858V124.684C295.475 125.068 295.475 125.5 295.475 125.98C295.487 126.46 295.493 126.928 295.493 127.384C295.505 127.828 295.511 128.2 295.511 128.5H293.873ZM298.121 128.5V127.78L300.101 127.474H300.533L302.387 127.78V128.5H298.121ZM299.453 128.5C299.465 128.2 299.471 127.828 299.471 127.384C299.483 126.94 299.489 126.478 299.489 125.998C299.501 125.518 299.507 125.08 299.507 124.684V123.082C299.507 122.278 299.387 121.726 299.147 121.426C298.907 121.114 298.517 120.958 297.977 120.958C297.689 120.958 297.401 121 297.113 121.084C296.825 121.168 296.531 121.3 296.231 121.48C295.931 121.66 295.613 121.894 295.277 122.182L295.079 121.48H295.313C295.601 121.12 295.925 120.802 296.285 120.526C296.645 120.25 297.029 120.034 297.437 119.878C297.845 119.71 298.253 119.626 298.661 119.626C299.465 119.626 300.065 119.89 300.461 120.418C300.857 120.934 301.055 121.762 301.055 122.902V124.684C301.055 125.08 301.055 125.518 301.055 125.998C301.067 126.478 301.073 126.94 301.073 127.384C301.073 127.828 301.079 128.2 301.091 128.5H299.453ZM307.43 128.734C306.698 128.734 306.05 128.548 305.486 128.176C304.934 127.804 304.502 127.282 304.19 126.61C303.89 125.938 303.74 125.152 303.74 124.252C303.74 123.304 303.908 122.488 304.244 121.804C304.58 121.108 305.036 120.574 305.612 120.202C306.188 119.818 306.836 119.626 307.556 119.626C307.904 119.626 308.228 119.68 308.528 119.788C308.828 119.884 309.11 120.046 309.374 120.274C309.65 120.49 309.914 120.778 310.166 121.138H310.562L310.418 122.128C309.902 121.588 309.446 121.21 309.05 120.994C308.666 120.778 308.276 120.67 307.88 120.67C307.436 120.67 307.022 120.796 306.638 121.048C306.266 121.288 305.966 121.672 305.738 122.2C305.51 122.716 305.396 123.382 305.396 124.198C305.396 124.99 305.504 125.644 305.72 126.16C305.936 126.664 306.23 127.042 306.602 127.294C306.986 127.534 307.418 127.654 307.898 127.654C308.39 127.654 308.822 127.534 309.194 127.294C309.566 127.042 309.962 126.64 310.382 126.088L310.508 127.06H310.166C309.962 127.396 309.728 127.69 309.464 127.942C309.2 128.194 308.9 128.386 308.564 128.518C308.24 128.662 307.862 128.734 307.43 128.734ZM310.184 128.662L310.004 126.808V126.772V121.516L310.058 121.318L310.04 116.854L308.492 116.638V115.954L311.282 115.216L311.606 115.324L311.552 117.808V127.564L313.01 127.798V128.5L310.184 128.662ZM321.333 128.734C320.793 128.734 320.301 128.674 319.857 128.554C319.413 128.446 318.975 128.284 318.543 128.068L318.471 126.016H319.497L319.965 128.176H319.173V127.24C319.473 127.456 319.803 127.618 320.163 127.726C320.523 127.834 320.919 127.888 321.351 127.888C321.819 127.888 322.203 127.828 322.503 127.708C322.803 127.588 323.019 127.426 323.151 127.222C323.295 127.006 323.367 126.766 323.367 126.502C323.367 126.106 323.229 125.794 322.953 125.566C322.677 125.338 322.251 125.128 321.675 124.936L320.937 124.648C320.457 124.48 320.037 124.288 319.677 124.072C319.329 123.844 319.059 123.574 318.867 123.262C318.687 122.95 318.597 122.584 318.597 122.164C318.597 121.708 318.717 121.288 318.957 120.904C319.209 120.52 319.575 120.214 320.055 119.986C320.547 119.746 321.129 119.626 321.801 119.626C322.305 119.626 322.767 119.686 323.187 119.806C323.619 119.926 324.021 120.1 324.393 120.328L324.339 122.236H323.367L322.989 120.346H323.673V121.12C323.385 120.904 323.085 120.742 322.773 120.634C322.461 120.526 322.137 120.472 321.801 120.472C321.225 120.472 320.793 120.586 320.505 120.814C320.217 121.042 320.073 121.342 320.073 121.714C320.073 122.098 320.199 122.398 320.451 122.614C320.703 122.818 321.135 123.028 321.747 123.244L322.287 123.442C322.899 123.646 323.397 123.886 323.781 124.162C324.165 124.426 324.441 124.72 324.609 125.044C324.789 125.356 324.879 125.716 324.879 126.124C324.879 126.592 324.741 127.024 324.465 127.42C324.201 127.816 323.805 128.134 323.277 128.374C322.761 128.614 322.113 128.734 321.333 128.734ZM330.663 128.734C329.799 128.734 329.049 128.56 328.413 128.212C327.789 127.852 327.303 127.342 326.955 126.682C326.619 126.01 326.451 125.212 326.451 124.288C326.451 123.352 326.631 122.536 326.991 121.84C327.363 121.144 327.861 120.604 328.485 120.22C329.121 119.824 329.823 119.626 330.591 119.626C331.263 119.626 331.857 119.764 332.373 120.04C332.889 120.316 333.297 120.712 333.597 121.228C333.897 121.744 334.047 122.368 334.047 123.1C334.047 123.316 334.035 123.52 334.011 123.712C333.987 123.892 333.957 124.048 333.921 124.18H327.225V123.388H331.545C331.965 123.364 332.235 123.268 332.355 123.1C332.475 122.92 332.535 122.71 332.535 122.47C332.535 122.038 332.457 121.678 332.301 121.39C332.145 121.09 331.923 120.868 331.635 120.724C331.347 120.568 330.999 120.49 330.591 120.49C330.171 120.49 329.763 120.61 329.367 120.85C328.983 121.09 328.671 121.474 328.431 122.002C328.191 122.518 328.071 123.208 328.071 124.072C328.071 124.816 328.191 125.446 328.431 125.962C328.671 126.478 329.013 126.874 329.457 127.15C329.913 127.414 330.447 127.546 331.059 127.546C331.647 127.546 332.151 127.444 332.571 127.24C333.003 127.036 333.399 126.736 333.759 126.34L334.191 126.7C333.939 127.096 333.657 127.45 333.345 127.762C333.033 128.074 332.661 128.314 332.229 128.482C331.809 128.65 331.287 128.734 330.663 128.734ZM339.925 128.734C339.061 128.734 338.317 128.554 337.693 128.194C337.069 127.834 336.589 127.324 336.253 126.664C335.929 125.992 335.767 125.194 335.767 124.27C335.767 123.31 335.959 122.482 336.343 121.786C336.727 121.09 337.243 120.556 337.891 120.184C338.539 119.812 339.235 119.626 339.979 119.626C340.555 119.626 341.077 119.728 341.545 119.932C342.013 120.124 342.397 120.394 342.697 120.742C342.997 121.09 343.189 121.48 343.273 121.912C343.225 122.14 343.129 122.32 342.985 122.452C342.853 122.584 342.667 122.65 342.427 122.65C342.115 122.65 341.881 122.566 341.725 122.398C341.581 122.218 341.473 122.002 341.401 121.75L340.951 120.166L341.869 120.922C341.581 120.766 341.287 120.652 340.987 120.58C340.687 120.508 340.387 120.472 340.087 120.472C339.571 120.472 339.109 120.61 338.701 120.886C338.293 121.162 337.969 121.57 337.729 122.11C337.501 122.65 337.387 123.31 337.387 124.09C337.387 124.882 337.519 125.536 337.783 126.052C338.047 126.556 338.395 126.928 338.827 127.168C339.271 127.408 339.763 127.528 340.303 127.528C340.639 127.528 340.951 127.492 341.239 127.42C341.527 127.336 341.803 127.204 342.067 127.024C342.343 126.844 342.607 126.61 342.859 126.322L343.327 126.718C343.099 127.126 342.829 127.48 342.517 127.78C342.217 128.08 341.857 128.314 341.437 128.482C341.017 128.65 340.513 128.734 339.925 128.734ZM344.696 128.5V127.78L346.676 127.474H347.144L349.214 127.78V128.5H344.696ZM346.01 128.5C346.022 128.2 346.028 127.828 346.028 127.384C346.04 126.928 346.046 126.46 346.046 125.98C346.058 125.5 346.064 125.068 346.064 124.684V123.802C346.064 123.478 346.058 123.19 346.046 122.938C346.046 122.686 346.04 122.446 346.028 122.218C346.028 121.99 346.022 121.75 346.01 121.498L344.57 121.372V120.688L347.036 119.662L347.378 119.806L347.594 122.128L347.63 122.146V124.684C347.63 125.068 347.63 125.5 347.63 125.98C347.63 126.46 347.63 126.928 347.63 127.384C347.642 127.828 347.654 128.2 347.666 128.5H346.01ZM347.54 123.478L347.324 122.218H347.576C347.78 121.678 348.02 121.216 348.296 120.832C348.572 120.448 348.878 120.154 349.214 119.95C349.55 119.734 349.892 119.626 350.24 119.626C350.552 119.626 350.822 119.698 351.05 119.842C351.29 119.974 351.464 120.142 351.572 120.346C351.56 120.754 351.464 121.078 351.284 121.318C351.116 121.558 350.846 121.678 350.474 121.678C350.246 121.678 350.042 121.636 349.862 121.552C349.682 121.468 349.508 121.354 349.34 121.21L348.89 120.778L349.79 120.652C349.214 120.94 348.746 121.324 348.386 121.804C348.038 122.272 347.756 122.83 347.54 123.478ZM356.591 128.734C355.727 128.734 354.977 128.56 354.341 128.212C353.717 127.852 353.231 127.342 352.883 126.682C352.547 126.01 352.379 125.212 352.379 124.288C352.379 123.352 352.559 122.536 352.919 121.84C353.291 121.144 353.789 120.604 354.413 120.22C355.049 119.824 355.751 119.626 356.519 119.626C357.191 119.626 357.785 119.764 358.301 120.04C358.817 120.316 359.225 120.712 359.525 121.228C359.825 121.744 359.975 122.368 359.975 123.1C359.975 123.316 359.963 123.52 359.939 123.712C359.915 123.892 359.885 124.048 359.849 124.18H353.153V123.388H357.473C357.893 123.364 358.163 123.268 358.283 123.1C358.403 122.92 358.463 122.71 358.463 122.47C358.463 122.038 358.385 121.678 358.229 121.39C358.073 121.09 357.851 120.868 357.563 120.724C357.275 120.568 356.927 120.49 356.519 120.49C356.099 120.49 355.691 120.61 355.295 120.85C354.911 121.09 354.599 121.474 354.359 122.002C354.119 122.518 353.999 123.208 353.999 124.072C353.999 124.816 354.119 125.446 354.359 125.962C354.599 126.478 354.941 126.874 355.385 127.15C355.841 127.414 356.375 127.546 356.987 127.546C357.575 127.546 358.079 127.444 358.499 127.24C358.931 127.036 359.327 126.736 359.687 126.34L360.119 126.7C359.867 127.096 359.585 127.45 359.273 127.762C358.961 128.074 358.589 128.314 358.157 128.482C357.737 128.65 357.215 128.734 356.591 128.734ZM363.387 120.832V119.842H366.645V120.832H363.387ZM364.719 128.716C364.071 128.716 363.555 128.542 363.171 128.194C362.787 127.846 362.595 127.312 362.595 126.592C362.595 126.364 362.595 126.142 362.595 125.926C362.607 125.71 362.613 125.44 362.613 125.116V120.832H361.083V120.022L363.351 119.752L362.631 120.328L363.207 117.394H364.305L364.143 120.292L364.179 120.598V126.394C364.179 126.862 364.269 127.204 364.449 127.42C364.641 127.624 364.893 127.726 365.205 127.726C365.421 127.726 365.619 127.684 365.799 127.6C365.991 127.516 366.195 127.408 366.411 127.276L366.825 127.816C366.681 127.996 366.501 128.158 366.285 128.302C366.081 128.434 365.847 128.536 365.583 128.608C365.319 128.68 365.031 128.716 364.719 128.716ZM367.436 128.5V127.78L369.47 127.474H369.902L371.954 127.78V128.5H367.436ZM368.876 128.5C368.888 128.08 368.894 127.66 368.894 127.24C368.894 126.808 368.894 126.382 368.894 125.962C368.906 125.53 368.912 125.104 368.912 124.684V116.854L367.418 116.638V115.954L370.19 115.216L370.532 115.324L370.46 117.808V124.684C370.46 125.104 370.46 125.53 370.46 125.962C370.472 126.382 370.478 126.808 370.478 127.24C370.49 127.66 370.502 128.08 370.514 128.5H368.876ZM373.934 132.964C373.61 132.964 373.316 132.91 373.052 132.802C372.8 132.706 372.596 132.562 372.44 132.37C372.296 132.19 372.218 131.992 372.206 131.776C372.266 131.524 372.41 131.326 372.638 131.182C372.866 131.05 373.124 130.984 373.412 130.984C373.676 130.984 373.91 131.038 374.114 131.146C374.318 131.254 374.54 131.428 374.78 131.668L375.32 132.226L374.672 132.55L374.384 132.208C374.756 132.004 375.08 131.746 375.356 131.434C375.644 131.122 375.896 130.768 376.112 130.372C376.328 129.976 376.514 129.568 376.67 129.148L376.958 128.356L377.102 128.248L378.65 123.712L380.036 119.842H381.098L377.786 128.5C377.39 129.532 377 130.378 376.616 131.038C376.232 131.698 375.824 132.184 375.392 132.496C374.96 132.808 374.474 132.964 373.934 132.964ZM376.868 129.544L373.016 119.842H374.798L377.534 127.312L377.75 127.618L376.868 129.544ZM372.314 120.562V119.842H376.742V120.58L374.6 120.814H374.096L372.314 120.562ZM378.146 120.562V119.842H381.782V120.562L380.432 120.814H380.018L378.146 120.562ZM386.272 132.964C385.9 132.964 385.6 132.904 385.372 132.784C385.132 132.676 384.958 132.538 384.85 132.37C384.73 132.214 384.658 132.064 384.634 131.92C384.718 131.668 384.85 131.476 385.03 131.344C385.21 131.212 385.444 131.146 385.732 131.146C385.996 131.146 386.236 131.194 386.452 131.29C386.668 131.398 386.884 131.542 387.1 131.722L387.838 132.334L387.766 132.37H387.244L387.19 132.262C387.322 132.178 387.43 132.076 387.514 131.956C387.61 131.836 387.694 131.656 387.766 131.416C387.85 131.176 387.916 130.846 387.964 130.426C388.024 130.018 388.066 129.508 388.09 128.896C388.114 128.284 388.126 127.546 388.126 126.682V123.82C388.126 123.34 388.12 122.926 388.108 122.578C388.108 122.23 388.096 121.87 388.072 121.498L386.632 121.372V120.688L389.314 119.662L389.674 119.806L389.62 122.164V126.718C389.62 127.642 389.596 128.428 389.548 129.076C389.5 129.724 389.398 130.264 389.242 130.696C389.098 131.14 388.876 131.524 388.576 131.848C388.276 132.196 387.952 132.466 387.604 132.658C387.268 132.862 386.824 132.964 386.272 132.964ZM388.81 117.844C388.474 117.844 388.186 117.736 387.946 117.52C387.718 117.292 387.604 117.01 387.604 116.674C387.604 116.338 387.718 116.062 387.946 115.846C388.186 115.618 388.474 115.504 388.81 115.504C389.158 115.504 389.446 115.618 389.674 115.846C389.914 116.062 390.034 116.338 390.034 116.674C390.034 117.01 389.914 117.292 389.674 117.52C389.446 117.736 389.158 117.844 388.81 117.844ZM395.365 128.734C394.597 128.734 393.997 128.488 393.565 127.996C393.145 127.504 392.941 126.682 392.953 125.53L392.989 120.634L393.421 121.084L391.639 120.706V120.022L394.303 119.752L394.573 119.914L394.501 122.182V125.314C394.501 126.082 394.621 126.628 394.861 126.952C395.101 127.264 395.473 127.42 395.977 127.42C396.277 127.42 396.583 127.372 396.895 127.276C397.207 127.168 397.519 127.012 397.831 126.808C398.143 126.604 398.449 126.358 398.749 126.07L398.983 126.862H398.623C398.323 127.27 397.993 127.618 397.633 127.906C397.285 128.182 396.919 128.386 396.535 128.518C396.151 128.662 395.761 128.734 395.365 128.734ZM398.785 128.644L398.569 126.574L398.533 126.538L398.587 120.976L397.237 120.706V120.022L399.865 119.752L400.135 119.914L400.081 122.182V127.546L401.377 127.798V128.5L398.785 128.644ZM406.325 128.734C405.593 128.734 404.945 128.548 404.381 128.176C403.829 127.804 403.397 127.282 403.085 126.61C402.785 125.938 402.635 125.152 402.635 124.252C402.635 123.304 402.803 122.488 403.139 121.804C403.475 121.108 403.931 120.574 404.507 120.202C405.083 119.818 405.731 119.626 406.451 119.626C406.799 119.626 407.123 119.68 407.423 119.788C407.723 119.884 408.005 120.046 408.269 120.274C408.545 120.49 408.809 120.778 409.061 121.138H409.457L409.313 122.128C408.797 121.588 408.341 121.21 407.945 120.994C407.561 120.778 407.171 120.67 406.775 120.67C406.331 120.67 405.917 120.796 405.533 121.048C405.161 121.288 404.861 121.672 404.633 122.2C404.405 122.716 404.291 123.382 404.291 124.198C404.291 124.99 404.399 125.644 404.615 126.16C404.831 126.664 405.125 127.042 405.497 127.294C405.881 127.534 406.313 127.654 406.793 127.654C407.285 127.654 407.717 127.534 408.089 127.294C408.461 127.042 408.857 126.64 409.277 126.088L409.403 127.06H409.061C408.857 127.396 408.623 127.69 408.359 127.942C408.095 128.194 407.795 128.386 407.459 128.518C407.135 128.662 406.757 128.734 406.325 128.734ZM409.079 128.662L408.899 126.808V126.772V121.516L408.953 121.318L408.935 116.854L407.387 116.638V115.954L410.177 115.216L410.501 115.324L410.447 117.808V127.564L411.905 127.798V128.5L409.079 128.662ZM416.409 132.802C415.581 132.802 414.897 132.706 414.357 132.514C413.817 132.322 413.415 132.058 413.151 131.722C412.887 131.386 412.755 131.008 412.755 130.588C412.755 130.276 412.833 129.988 412.989 129.724C413.145 129.472 413.397 129.226 413.745 128.986C414.105 128.758 414.585 128.536 415.185 128.32L415.293 128.428C415.065 128.632 414.873 128.836 414.717 129.04C414.561 129.244 414.447 129.442 414.375 129.634C414.315 129.838 414.285 130.06 414.285 130.3C414.285 130.66 414.375 130.96 414.555 131.2C414.747 131.452 415.017 131.632 415.365 131.74C415.725 131.86 416.157 131.92 416.661 131.92C417.321 131.92 417.873 131.836 418.317 131.668C418.773 131.5 419.115 131.278 419.343 131.002C419.583 130.726 419.703 130.42 419.703 130.084C419.703 129.688 419.559 129.358 419.271 129.094C418.995 128.842 418.539 128.716 417.903 128.716H415.725C415.569 128.716 415.401 128.71 415.221 128.698C415.053 128.686 414.891 128.668 414.735 128.644V128.518C414.279 128.422 413.925 128.26 413.673 128.032C413.433 127.804 413.313 127.492 413.313 127.096C413.313 126.784 413.427 126.466 413.655 126.142C413.883 125.818 414.255 125.458 414.771 125.062V124.792L415.491 125.026C415.203 125.302 414.993 125.548 414.861 125.764C414.729 125.968 414.663 126.178 414.663 126.394C414.663 126.718 414.765 126.958 414.969 127.114C415.185 127.27 415.515 127.348 415.959 127.348H418.173C418.833 127.348 419.379 127.444 419.811 127.636C420.243 127.816 420.561 128.08 420.765 128.428C420.981 128.764 421.089 129.172 421.089 129.652C421.089 130.06 420.987 130.45 420.783 130.822C420.579 131.194 420.279 131.53 419.883 131.83C419.487 132.13 418.995 132.364 418.407 132.532C417.819 132.712 417.153 132.802 416.409 132.802ZM416.499 125.566C415.851 125.566 415.275 125.452 414.771 125.224C414.279 124.996 413.889 124.666 413.601 124.234C413.313 123.79 413.169 123.244 413.169 122.596C413.169 121.972 413.313 121.438 413.601 120.994C413.889 120.55 414.285 120.214 414.789 119.986C415.293 119.746 415.863 119.626 416.499 119.626C416.895 119.626 417.255 119.668 417.579 119.752C417.903 119.836 418.191 119.956 418.443 120.112C418.707 120.256 418.929 120.442 419.109 120.67L419.181 120.688C419.385 120.928 419.541 121.204 419.649 121.516C419.757 121.828 419.811 122.188 419.811 122.596C419.811 123.208 419.667 123.742 419.379 124.198C419.103 124.642 418.713 124.984 418.209 125.224C417.705 125.452 417.135 125.566 416.499 125.566ZM416.463 124.81C416.847 124.81 417.177 124.714 417.453 124.522C417.729 124.318 417.939 124.048 418.083 123.712C418.239 123.376 418.317 122.986 418.317 122.542C418.317 122.11 418.245 121.738 418.101 121.426C417.957 121.102 417.747 120.85 417.471 120.67C417.207 120.49 416.889 120.4 416.517 120.4C416.145 120.4 415.821 120.496 415.545 120.688C415.269 120.868 415.053 121.126 414.897 121.462C414.753 121.786 414.681 122.17 414.681 122.614C414.681 123.046 414.753 123.43 414.897 123.766C415.041 124.09 415.245 124.348 415.509 124.54C415.773 124.72 416.091 124.81 416.463 124.81ZM418.497 121.03V120.526H418.713L420.855 119.59L421.233 119.752V121.03H418.497ZM422.354 128.5V127.78L424.333 127.474H424.784L426.638 127.78V128.5H422.354ZM423.704 128.5C423.716 128.2 423.722 127.828 423.722 127.384C423.734 126.928 423.74 126.46 423.74 125.98C423.752 125.5 423.758 125.068 423.758 124.684V123.82C423.758 123.34 423.752 122.926 423.74 122.578C423.74 122.23 423.728 121.87 423.704 121.498L422.264 121.372V120.688L425.018 119.662L425.36 119.806L425.306 122.164V124.684C425.306 125.068 425.306 125.5 425.306 125.98C425.318 126.46 425.324 126.928 425.324 127.384C425.336 127.828 425.348 128.2 425.36 128.5H423.704ZM424.442 117.844C424.106 117.844 423.818 117.736 423.578 117.52C423.35 117.292 423.236 117.01 423.236 116.674C423.236 116.338 423.35 116.062 423.578 115.846C423.818 115.618 424.106 115.504 424.442 115.504C424.79 115.504 425.078 115.618 425.306 115.846C425.546 116.062 425.666 116.338 425.666 116.674C425.666 117.01 425.546 117.292 425.306 117.52C425.078 117.736 424.79 117.844 424.442 117.844ZM427.963 128.5V127.78L429.943 127.474H430.375L432.211 127.78V128.5H427.963ZM429.313 128.5C429.313 128.2 429.313 127.828 429.313 127.384C429.325 126.928 429.331 126.46 429.331 125.98C429.343 125.5 429.349 125.068 429.349 124.684V123.802C429.349 123.478 429.343 123.19 429.331 122.938C429.331 122.686 429.325 122.446 429.313 122.218C429.313 121.99 429.313 121.75 429.313 121.498L427.855 121.372V120.688L430.321 119.662L430.663 119.806L430.897 121.84L430.915 121.858V124.684C430.915 125.068 430.915 125.5 430.915 125.98C430.927 126.46 430.933 126.928 430.933 127.384C430.945 127.828 430.951 128.2 430.951 128.5H429.313ZM433.561 128.5V127.78L435.541 127.474H435.973L437.827 127.78V128.5H433.561ZM434.893 128.5C434.905 128.2 434.911 127.828 434.911 127.384C434.923 126.94 434.929 126.478 434.929 125.998C434.941 125.518 434.947 125.08 434.947 124.684V123.082C434.947 122.278 434.827 121.726 434.587 121.426C434.347 121.114 433.957 120.958 433.417 120.958C433.129 120.958 432.841 121 432.553 121.084C432.265 121.168 431.971 121.3 431.671 121.48C431.371 121.66 431.053 121.894 430.717 122.182L430.519 121.48H430.753C431.041 121.12 431.365 120.802 431.725 120.526C432.085 120.25 432.469 120.034 432.877 119.878C433.285 119.71 433.693 119.626 434.101 119.626C434.905 119.626 435.505 119.89 435.901 120.418C436.297 120.934 436.495 121.762 436.495 122.902V124.684C436.495 125.08 436.495 125.518 436.495 125.998C436.507 126.478 436.513 126.94 436.513 127.384C436.513 127.828 436.519 128.2 436.531 128.5H434.893ZM442.636 132.802C441.808 132.802 441.124 132.706 440.584 132.514C440.044 132.322 439.642 132.058 439.378 131.722C439.114 131.386 438.982 131.008 438.982 130.588C438.982 130.276 439.06 129.988 439.216 129.724C439.372 129.472 439.624 129.226 439.972 128.986C440.332 128.758 440.812 128.536 441.412 128.32L441.52 128.428C441.292 128.632 441.1 128.836 440.944 129.04C440.788 129.244 440.674 129.442 440.602 129.634C440.542 129.838 440.512 130.06 440.512 130.3C440.512 130.66 440.602 130.96 440.782 131.2C440.974 131.452 441.244 131.632 441.592 131.74C441.952 131.86 442.384 131.92 442.888 131.92C443.548 131.92 444.1 131.836 444.544 131.668C445 131.5 445.342 131.278 445.57 131.002C445.81 130.726 445.93 130.42 445.93 130.084C445.93 129.688 445.786 129.358 445.498 129.094C445.222 128.842 444.766 128.716 444.13 128.716H441.952C441.796 128.716 441.628 128.71 441.448 128.698C441.28 128.686 441.118 128.668 440.962 128.644V128.518C440.506 128.422 440.152 128.26 439.9 128.032C439.66 127.804 439.54 127.492 439.54 127.096C439.54 126.784 439.654 126.466 439.882 126.142C440.11 125.818 440.482 125.458 440.998 125.062V124.792L441.718 125.026C441.43 125.302 441.22 125.548 441.088 125.764C440.956 125.968 440.89 126.178 440.89 126.394C440.89 126.718 440.992 126.958 441.196 127.114C441.412 127.27 441.742 127.348 442.186 127.348H444.4C445.06 127.348 445.606 127.444 446.038 127.636C446.47 127.816 446.788 128.08 446.992 128.428C447.208 128.764 447.316 129.172 447.316 129.652C447.316 130.06 447.214 130.45 447.01 130.822C446.806 131.194 446.506 131.53 446.11 131.83C445.714 132.13 445.222 132.364 444.634 132.532C444.046 132.712 443.38 132.802 442.636 132.802ZM442.726 125.566C442.078 125.566 441.502 125.452 440.998 125.224C440.506 124.996 440.116 124.666 439.828 124.234C439.54 123.79 439.396 123.244 439.396 122.596C439.396 121.972 439.54 121.438 439.828 120.994C440.116 120.55 440.512 120.214 441.016 119.986C441.52 119.746 442.09 119.626 442.726 119.626C443.122 119.626 443.482 119.668 443.806 119.752C444.13 119.836 444.418 119.956 444.67 120.112C444.934 120.256 445.156 120.442 445.336 120.67L445.408 120.688C445.612 120.928 445.768 121.204 445.876 121.516C445.984 121.828 446.038 122.188 446.038 122.596C446.038 123.208 445.894 123.742 445.606 124.198C445.33 124.642 444.94 124.984 444.436 125.224C443.932 125.452 443.362 125.566 442.726 125.566ZM442.69 124.81C443.074 124.81 443.404 124.714 443.68 124.522C443.956 124.318 444.166 124.048 444.31 123.712C444.466 123.376 444.544 122.986 444.544 122.542C444.544 122.11 444.472 121.738 444.328 121.426C444.184 121.102 443.974 120.85 443.698 120.67C443.434 120.49 443.116 120.4 442.744 120.4C442.372 120.4 442.048 120.496 441.772 120.688C441.496 120.868 441.28 121.126 441.124 121.462C440.98 121.786 440.908 122.17 440.908 122.614C440.908 123.046 440.98 123.43 441.124 123.766C441.268 124.09 441.472 124.348 441.736 124.54C442 124.72 442.318 124.81 442.69 124.81ZM444.724 121.03V120.526H444.94L447.082 119.59L447.46 119.752V121.03H444.724ZM453.879 132.964C453.555 132.964 453.261 132.91 452.997 132.802C452.745 132.706 452.541 132.562 452.385 132.37C452.241 132.19 452.163 131.992 452.151 131.776C452.211 131.524 452.355 131.326 452.583 131.182C452.811 131.05 453.069 130.984 453.357 130.984C453.621 130.984 453.855 131.038 454.059 131.146C454.263 131.254 454.485 131.428 454.725 131.668L455.265 132.226L454.617 132.55L454.329 132.208C454.701 132.004 455.025 131.746 455.301 131.434C455.589 131.122 455.841 130.768 456.057 130.372C456.273 129.976 456.459 129.568 456.615 129.148L456.903 128.356L457.047 128.248L458.595 123.712L459.981 119.842H461.043L457.731 128.5C457.335 129.532 456.945 130.378 456.561 131.038C456.177 131.698 455.769 132.184 455.337 132.496C454.905 132.808 454.419 132.964 453.879 132.964ZM456.813 129.544L452.961 119.842H454.743L457.479 127.312L457.695 127.618L456.813 129.544ZM452.259 120.562V119.842H456.687V120.58L454.545 120.814H454.041L452.259 120.562ZM458.091 120.562V119.842H461.727V120.562L460.377 120.814H459.963L458.091 120.562ZM466.506 128.734C465.786 128.734 465.102 128.566 464.454 128.23C463.818 127.894 463.302 127.39 462.906 126.718C462.51 126.034 462.312 125.2 462.312 124.216C462.312 123.22 462.51 122.38 462.906 121.696C463.302 121.012 463.818 120.496 464.454 120.148C465.102 119.8 465.786 119.626 466.506 119.626C467.226 119.626 467.904 119.8 468.54 120.148C469.188 120.484 469.71 120.994 470.106 121.678C470.514 122.362 470.718 123.202 470.718 124.198C470.718 125.182 470.514 126.016 470.106 126.7C469.71 127.372 469.188 127.882 468.54 128.23C467.904 128.566 467.226 128.734 466.506 128.734ZM466.506 127.87C467.034 127.87 467.478 127.732 467.838 127.456C468.21 127.18 468.492 126.772 468.684 126.232C468.888 125.692 468.99 125.02 468.99 124.216C468.99 123.4 468.888 122.716 468.684 122.164C468.492 121.612 468.21 121.198 467.838 120.922C467.478 120.634 467.034 120.49 466.506 120.49C465.978 120.49 465.528 120.634 465.156 120.922C464.796 121.198 464.52 121.612 464.328 122.164C464.136 122.704 464.04 123.382 464.04 124.198C464.04 125.014 464.136 125.692 464.328 126.232C464.52 126.772 464.796 127.18 465.156 127.456C465.528 127.732 465.978 127.87 466.506 127.87ZM475.538 128.734C474.77 128.734 474.17 128.488 473.738 127.996C473.318 127.504 473.114 126.682 473.126 125.53L473.162 120.634L473.594 121.084L471.812 120.706V120.022L474.476 119.752L474.746 119.914L474.674 122.182V125.314C474.674 126.082 474.794 126.628 475.034 126.952C475.274 127.264 475.646 127.42 476.15 127.42C476.45 127.42 476.756 127.372 477.068 127.276C477.38 127.168 477.692 127.012 478.004 126.808C478.316 126.604 478.622 126.358 478.922 126.07L479.156 126.862H478.796C478.496 127.27 478.166 127.618 477.806 127.906C477.458 128.182 477.092 128.386 476.708 128.518C476.324 128.662 475.934 128.734 475.538 128.734ZM478.958 128.644L478.742 126.574L478.706 126.538L478.76 120.976L477.41 120.706V120.022L480.038 119.752L480.308 119.914L480.254 122.182V127.546L481.55 127.798V128.5L478.958 128.644ZM482.93 128.5V127.78L484.91 127.474H485.378L487.448 127.78V128.5H482.93ZM484.244 128.5C484.256 128.2 484.262 127.828 484.262 127.384C484.274 126.928 484.28 126.46 484.28 125.98C484.292 125.5 484.298 125.068 484.298 124.684V123.802C484.298 123.478 484.292 123.19 484.28 122.938C484.28 122.686 484.274 122.446 484.262 122.218C484.262 121.99 484.256 121.75 484.244 121.498L482.804 121.372V120.688L485.27 119.662L485.612 119.806L485.828 122.128L485.864 122.146V124.684C485.864 125.068 485.864 125.5 485.864 125.98C485.864 126.46 485.864 126.928 485.864 127.384C485.876 127.828 485.888 128.2 485.9 128.5H484.244ZM485.774 123.478L485.558 122.218H485.81C486.014 121.678 486.254 121.216 486.53 120.832C486.806 120.448 487.112 120.154 487.448 119.95C487.784 119.734 488.126 119.626 488.474 119.626C488.786 119.626 489.056 119.698 489.284 119.842C489.524 119.974 489.698 120.142 489.806 120.346C489.794 120.754 489.698 121.078 489.518 121.318C489.35 121.558 489.08 121.678 488.708 121.678C488.48 121.678 488.276 121.636 488.096 121.552C487.916 121.468 487.742 121.354 487.574 121.21L487.124 120.778L488.024 120.652C487.448 120.94 486.98 121.324 486.62 121.804C486.272 122.272 485.99 122.83 485.774 123.478ZM27.708 155.734C27.168 155.734 26.676 155.674 26.232 155.554C25.788 155.446 25.35 155.284 24.918 155.068L24.846 153.016H25.872L26.34 155.176H25.548V154.24C25.848 154.456 26.178 154.618 26.538 154.726C26.898 154.834 27.294 154.888 27.726 154.888C28.194 154.888 28.578 154.828 28.878 154.708C29.178 154.588 29.394 154.426 29.526 154.222C29.67 154.006 29.742 153.766 29.742 153.502C29.742 153.106 29.604 152.794 29.328 152.566C29.052 152.338 28.626 152.128 28.05 151.936L27.312 151.648C26.832 151.48 26.412 151.288 26.052 151.072C25.704 150.844 25.434 150.574 25.242 150.262C25.062 149.95 24.972 149.584 24.972 149.164C24.972 148.708 25.092 148.288 25.332 147.904C25.584 147.52 25.95 147.214 26.43 146.986C26.922 146.746 27.504 146.626 28.176 146.626C28.68 146.626 29.142 146.686 29.562 146.806C29.994 146.926 30.396 147.1 30.768 147.328L30.714 149.236H29.742L29.364 147.346H30.048V148.12C29.76 147.904 29.46 147.742 29.148 147.634C28.836 147.526 28.512 147.472 28.176 147.472C27.6 147.472 27.168 147.586 26.88 147.814C26.592 148.042 26.448 148.342 26.448 148.714C26.448 149.098 26.574 149.398 26.826 149.614C27.078 149.818 27.51 150.028 28.122 150.244L28.662 150.442C29.274 150.646 29.772 150.886 30.156 151.162C30.54 151.426 30.816 151.72 30.984 152.044C31.164 152.356 31.254 152.716 31.254 153.124C31.254 153.592 31.116 154.024 30.84 154.42C30.576 154.816 30.18 155.134 29.652 155.374C29.136 155.614 28.488 155.734 27.708 155.734ZM32.4531 159.766V159.046L34.4871 158.758H34.9371L37.1331 159.046V159.766H32.4531ZM33.8931 159.766C33.9051 159.346 33.9111 158.932 33.9111 158.524C33.9231 158.116 33.9291 157.702 33.9291 157.282C33.9411 156.874 33.9471 156.466 33.9471 156.058V150.802C33.9471 150.478 33.9411 150.19 33.9291 149.938C33.9291 149.686 33.9231 149.446 33.9111 149.218C33.9111 148.99 33.9051 148.75 33.8931 148.498L32.4531 148.372V147.688L34.9011 146.662L35.2431 146.806L35.4231 148.372L35.4951 148.426V154.042L35.4411 154.132L35.4591 156.094C35.4591 156.49 35.4591 156.892 35.4591 157.3C35.4711 157.72 35.4771 158.134 35.4771 158.542C35.4891 158.95 35.4951 159.358 35.4951 159.766H33.8931ZM37.9611 155.734C37.6131 155.734 37.2771 155.674 36.9531 155.554C36.6291 155.446 36.3171 155.266 36.0171 155.014C35.7291 154.75 35.4531 154.408 35.1891 153.988H34.7211L34.8471 152.926C35.3151 153.538 35.7651 153.982 36.1971 154.258C36.6411 154.534 37.0971 154.672 37.5651 154.672C38.0331 154.672 38.4471 154.552 38.8071 154.312C39.1791 154.072 39.4731 153.7 39.6891 153.196C39.9171 152.692 40.0311 152.05 40.0311 151.27C40.0311 150.106 39.8151 149.218 39.3831 148.606C38.9511 147.994 38.4051 147.688 37.7451 147.688C37.4811 147.688 37.1991 147.742 36.8991 147.85C36.6111 147.958 36.2991 148.138 35.9631 148.39C35.6271 148.63 35.2491 148.96 34.8291 149.38L34.7031 148.408H35.1891C35.4891 148.012 35.7951 147.682 36.1071 147.418C36.4191 147.154 36.7491 146.956 37.0971 146.824C37.4451 146.692 37.8111 146.626 38.1951 146.626C38.8551 146.626 39.4491 146.806 39.9771 147.166C40.5051 147.526 40.9191 148.042 41.2191 148.714C41.5311 149.386 41.6871 150.196 41.6871 151.144C41.6871 152.092 41.5251 152.908 41.2011 153.592C40.8771 154.276 40.4331 154.804 39.8691 155.176C39.3171 155.548 38.6811 155.734 37.9611 155.734ZM47.5498 155.734C46.6858 155.734 45.9358 155.56 45.2998 155.212C44.6758 154.852 44.1898 154.342 43.8418 153.682C43.5058 153.01 43.3378 152.212 43.3378 151.288C43.3378 150.352 43.5178 149.536 43.8778 148.84C44.2498 148.144 44.7478 147.604 45.3718 147.22C46.0078 146.824 46.7098 146.626 47.4778 146.626C48.1498 146.626 48.7438 146.764 49.2598 147.04C49.7758 147.316 50.1838 147.712 50.4838 148.228C50.7838 148.744 50.9338 149.368 50.9338 150.1C50.9338 150.316 50.9218 150.52 50.8978 150.712C50.8738 150.892 50.8438 151.048 50.8078 151.18H44.1118V150.388H48.4318C48.8518 150.364 49.1218 150.268 49.2418 150.1C49.3618 149.92 49.4218 149.71 49.4218 149.47C49.4218 149.038 49.3438 148.678 49.1878 148.39C49.0318 148.09 48.8098 147.868 48.5218 147.724C48.2338 147.568 47.8858 147.49 47.4778 147.49C47.0578 147.49 46.6498 147.61 46.2538 147.85C45.8698 148.09 45.5578 148.474 45.3178 149.002C45.0778 149.518 44.9578 150.208 44.9578 151.072C44.9578 151.816 45.0778 152.446 45.3178 152.962C45.5578 153.478 45.8998 153.874 46.3438 154.15C46.7998 154.414 47.3338 154.546 47.9458 154.546C48.5338 154.546 49.0378 154.444 49.4578 154.24C49.8898 154.036 50.2858 153.736 50.6458 153.34L51.0778 153.7C50.8258 154.096 50.5438 154.45 50.2318 154.762C49.9198 155.074 49.5478 155.314 49.1158 155.482C48.6958 155.65 48.1738 155.734 47.5498 155.734ZM52.5642 155.5V154.78L54.5442 154.474H54.9762L56.8122 154.78V155.5H52.5642ZM53.9142 155.5C53.9142 155.2 53.9142 154.828 53.9142 154.384C53.9262 153.928 53.9322 153.46 53.9322 152.98C53.9442 152.5 53.9502 152.068 53.9502 151.684V150.802C53.9502 150.478 53.9442 150.19 53.9322 149.938C53.9322 149.686 53.9262 149.446 53.9142 149.218C53.9142 148.99 53.9142 148.75 53.9142 148.498L52.4562 148.372V147.688L54.9222 146.662L55.2642 146.806L55.4982 148.84L55.5162 148.858V151.684C55.5162 152.068 55.5162 152.5 55.5162 152.98C55.5282 153.46 55.5342 153.928 55.5342 154.384C55.5462 154.828 55.5522 155.2 55.5522 155.5H53.9142ZM58.1622 155.5V154.78L60.1422 154.474H60.5742L62.4282 154.78V155.5H58.1622ZM59.4942 155.5C59.5062 155.2 59.5122 154.828 59.5122 154.384C59.5242 153.94 59.5302 153.478 59.5302 152.998C59.5422 152.518 59.5482 152.08 59.5482 151.684V150.082C59.5482 149.278 59.4282 148.726 59.1882 148.426C58.9482 148.114 58.5582 147.958 58.0182 147.958C57.7302 147.958 57.4422 148 57.1542 148.084C56.8662 148.168 56.5722 148.3 56.2722 148.48C55.9722 148.66 55.6542 148.894 55.3182 149.182L55.1202 148.48H55.3542C55.6422 148.12 55.9662 147.802 56.3262 147.526C56.6862 147.25 57.0702 147.034 57.4782 146.878C57.8862 146.71 58.2942 146.626 58.7022 146.626C59.5062 146.626 60.1062 146.89 60.5022 147.418C60.8982 147.934 61.0962 148.762 61.0962 149.902V151.684C61.0962 152.08 61.0962 152.518 61.0962 152.998C61.1082 153.478 61.1142 153.94 61.1142 154.384C61.1142 154.828 61.1202 155.2 61.1322 155.5H59.4942ZM67.4711 155.734C66.7391 155.734 66.0911 155.548 65.5271 155.176C64.9751 154.804 64.5431 154.282 64.2311 153.61C63.9311 152.938 63.7811 152.152 63.7811 151.252C63.7811 150.304 63.9491 149.488 64.2851 148.804C64.6211 148.108 65.0771 147.574 65.6531 147.202C66.2291 146.818 66.8771 146.626 67.5971 146.626C67.9451 146.626 68.2691 146.68 68.5691 146.788C68.8691 146.884 69.1511 147.046 69.4151 147.274C69.6911 147.49 69.9551 147.778 70.2071 148.138H70.6031L70.4591 149.128C69.9431 148.588 69.4871 148.21 69.0911 147.994C68.7071 147.778 68.3171 147.67 67.9211 147.67C67.4771 147.67 67.0631 147.796 66.6791 148.048C66.3071 148.288 66.0071 148.672 65.7791 149.2C65.5511 149.716 65.4371 150.382 65.4371 151.198C65.4371 151.99 65.5451 152.644 65.7611 153.16C65.9771 153.664 66.2711 154.042 66.6431 154.294C67.0271 154.534 67.4591 154.654 67.9391 154.654C68.4311 154.654 68.8631 154.534 69.2351 154.294C69.6071 154.042 70.0031 153.64 70.4231 153.088L70.5491 154.06H70.2071C70.0031 154.396 69.7691 154.69 69.5051 154.942C69.2411 155.194 68.9411 155.386 68.6051 155.518C68.2811 155.662 67.9031 155.734 67.4711 155.734ZM70.2251 155.662L70.0451 153.808V153.772V148.516L70.0991 148.318L70.0811 143.854L68.5331 143.638V142.954L71.3231 142.216L71.6471 142.324L71.5931 144.808V154.564L73.0511 154.798V155.5L70.2251 155.662ZM74.1133 155.5V154.78L76.0933 154.474H76.5433L78.3973 154.78V155.5H74.1133ZM75.4633 155.5C75.4753 155.2 75.4813 154.828 75.4813 154.384C75.4933 153.928 75.4993 153.46 75.4993 152.98C75.5113 152.5 75.5173 152.068 75.5173 151.684V150.82C75.5173 150.34 75.5113 149.926 75.4993 149.578C75.4993 149.23 75.4873 148.87 75.4633 148.498L74.0233 148.372V147.688L76.7773 146.662L77.1193 146.806L77.0653 149.164V151.684C77.0653 152.068 77.0653 152.5 77.0653 152.98C77.0773 153.46 77.0833 153.928 77.0833 154.384C77.0953 154.828 77.1073 155.2 77.1193 155.5H75.4633ZM76.2013 144.844C75.8653 144.844 75.5773 144.736 75.3373 144.52C75.1093 144.292 74.9953 144.01 74.9953 143.674C74.9953 143.338 75.1093 143.062 75.3373 142.846C75.5773 142.618 75.8653 142.504 76.2013 142.504C76.5493 142.504 76.8373 142.618 77.0653 142.846C77.3053 143.062 77.4253 143.338 77.4253 143.674C77.4253 144.01 77.3053 144.292 77.0653 144.52C76.8373 144.736 76.5493 144.844 76.2013 144.844ZM79.7224 155.5V154.78L81.7024 154.474H82.1344L83.9704 154.78V155.5H79.7224ZM81.0724 155.5C81.0724 155.2 81.0724 154.828 81.0724 154.384C81.0844 153.928 81.0904 153.46 81.0904 152.98C81.1024 152.5 81.1084 152.068 81.1084 151.684V150.802C81.1084 150.478 81.1024 150.19 81.0904 149.938C81.0904 149.686 81.0844 149.446 81.0724 149.218C81.0724 148.99 81.0724 148.75 81.0724 148.498L79.6144 148.372V147.688L82.0804 146.662L82.4224 146.806L82.6564 148.84L82.6744 148.858V151.684C82.6744 152.068 82.6744 152.5 82.6744 152.98C82.6864 153.46 82.6924 153.928 82.6924 154.384C82.7044 154.828 82.7104 155.2 82.7104 155.5H81.0724ZM85.3204 155.5V154.78L87.3004 154.474H87.7324L89.5864 154.78V155.5H85.3204ZM86.6524 155.5C86.6644 155.2 86.6704 154.828 86.6704 154.384C86.6824 153.94 86.6884 153.478 86.6884 152.998C86.7004 152.518 86.7064 152.08 86.7064 151.684V150.082C86.7064 149.278 86.5864 148.726 86.3464 148.426C86.1064 148.114 85.7164 147.958 85.1764 147.958C84.8884 147.958 84.6004 148 84.3124 148.084C84.0244 148.168 83.7304 148.3 83.4304 148.48C83.1304 148.66 82.8124 148.894 82.4764 149.182L82.2784 148.48H82.5124C82.8004 148.12 83.1244 147.802 83.4844 147.526C83.8444 147.25 84.2284 147.034 84.6364 146.878C85.0444 146.71 85.4524 146.626 85.8604 146.626C86.6644 146.626 87.2644 146.89 87.6604 147.418C88.0564 147.934 88.2544 148.762 88.2544 149.902V151.684C88.2544 152.08 88.2544 152.518 88.2544 152.998C88.2664 153.478 88.2724 153.94 88.2724 154.384C88.2724 154.828 88.2784 155.2 88.2904 155.5H86.6524ZM94.3953 159.802C93.5673 159.802 92.8833 159.706 92.3433 159.514C91.8033 159.322 91.4013 159.058 91.1373 158.722C90.8733 158.386 90.7413 158.008 90.7413 157.588C90.7413 157.276 90.8193 156.988 90.9753 156.724C91.1313 156.472 91.3833 156.226 91.7313 155.986C92.0913 155.758 92.5713 155.536 93.1713 155.32L93.2793 155.428C93.0513 155.632 92.8593 155.836 92.7033 156.04C92.5473 156.244 92.4333 156.442 92.3613 156.634C92.3013 156.838 92.2713 157.06 92.2713 157.3C92.2713 157.66 92.3613 157.96 92.5413 158.2C92.7333 158.452 93.0033 158.632 93.3513 158.74C93.7113 158.86 94.1433 158.92 94.6473 158.92C95.3073 158.92 95.8593 158.836 96.3033 158.668C96.7593 158.5 97.1013 158.278 97.3293 158.002C97.5693 157.726 97.6893 157.42 97.6893 157.084C97.6893 156.688 97.5453 156.358 97.2573 156.094C96.9813 155.842 96.5253 155.716 95.8893 155.716H93.7113C93.5553 155.716 93.3873 155.71 93.2073 155.698C93.0393 155.686 92.8773 155.668 92.7213 155.644V155.518C92.2653 155.422 91.9113 155.26 91.6593 155.032C91.4193 154.804 91.2993 154.492 91.2993 154.096C91.2993 153.784 91.4133 153.466 91.6413 153.142C91.8693 152.818 92.2413 152.458 92.7573 152.062V151.792L93.4773 152.026C93.1893 152.302 92.9793 152.548 92.8473 152.764C92.7153 152.968 92.6493 153.178 92.6493 153.394C92.6493 153.718 92.7513 153.958 92.9553 154.114C93.1713 154.27 93.5013 154.348 93.9453 154.348H96.1593C96.8193 154.348 97.3653 154.444 97.7973 154.636C98.2293 154.816 98.5473 155.08 98.7513 155.428C98.9673 155.764 99.0753 156.172 99.0753 156.652C99.0753 157.06 98.9733 157.45 98.7693 157.822C98.5653 158.194 98.2653 158.53 97.8693 158.83C97.4733 159.13 96.9813 159.364 96.3933 159.532C95.8053 159.712 95.1393 159.802 94.3953 159.802ZM94.4853 152.566C93.8373 152.566 93.2613 152.452 92.7573 152.224C92.2653 151.996 91.8753 151.666 91.5873 151.234C91.2993 150.79 91.1553 150.244 91.1553 149.596C91.1553 148.972 91.2993 148.438 91.5873 147.994C91.8753 147.55 92.2713 147.214 92.7753 146.986C93.2793 146.746 93.8493 146.626 94.4853 146.626C94.8813 146.626 95.2413 146.668 95.5653 146.752C95.8893 146.836 96.1773 146.956 96.4293 147.112C96.6933 147.256 96.9153 147.442 97.0953 147.67L97.1673 147.688C97.3713 147.928 97.5273 148.204 97.6353 148.516C97.7433 148.828 97.7973 149.188 97.7973 149.596C97.7973 150.208 97.6533 150.742 97.3653 151.198C97.0893 151.642 96.6993 151.984 96.1953 152.224C95.6913 152.452 95.1213 152.566 94.4853 152.566ZM94.4493 151.81C94.8333 151.81 95.1633 151.714 95.4393 151.522C95.7153 151.318 95.9253 151.048 96.0693 150.712C96.2253 150.376 96.3033 149.986 96.3033 149.542C96.3033 149.11 96.2313 148.738 96.0873 148.426C95.9433 148.102 95.7333 147.85 95.4573 147.67C95.1933 147.49 94.8753 147.4 94.5033 147.4C94.1313 147.4 93.8073 147.496 93.5313 147.688C93.2553 147.868 93.0393 148.126 92.8833 148.462C92.7393 148.786 92.6673 149.17 92.6673 149.614C92.6673 150.046 92.7393 150.43 92.8833 150.766C93.0273 151.09 93.2313 151.348 93.4953 151.54C93.7593 151.72 94.0773 151.81 94.4493 151.81ZM96.4833 148.03V147.526H96.6993L98.8413 146.59L99.2193 146.752V148.03H96.4833ZM102.374 155.734C102.014 155.734 101.708 155.608 101.456 155.356C101.216 155.104 101.096 154.804 101.096 154.456C101.096 154.096 101.216 153.79 101.456 153.538C101.708 153.286 102.014 153.16 102.374 153.16C102.734 153.16 103.04 153.286 103.292 153.538C103.544 153.79 103.67 154.096 103.67 154.456C103.67 154.804 103.544 155.104 103.292 155.356C103.04 155.608 102.734 155.734 102.374 155.734Z" fill="#FFF9F2"/>
<g clip-path="url(#clip0_0_806)">
<path fill-rule="evenodd" clip-rule="evenodd" d="M55.1563 216.625L47.3594 191.625H27.125C25.3969 191.625 24 193.025 24 194.75C24 196.478 25.3969 197.875 27.125 197.875H42.75L49.0343 216.625H49L55.25 254.125C55.25 261.028 60.8469 266.625 67.75 266.625H102.125C109.028 266.625 114.625 261.028 114.625 254.125L124 216.625H55.1563ZM99 272.875C95.55 272.875 92.75 275.675 92.75 279.125C92.75 282.575 95.55 285.375 99 285.375C102.45 285.375 105.25 282.575 105.25 279.125C105.25 275.675 102.45 272.875 99 272.875ZM67.75 272.875C64.3 272.875 61.5 275.675 61.5 279.125C61.5 282.575 64.3 285.375 67.75 285.375C71.2 285.375 74 282.575 74 279.125C74 275.675 71.2 272.875 67.75 272.875Z" fill="#FFF9F2"/>
</g>
<defs>
<clipPath id="clip0_0_806">
<rect width="100" height="100" fill="white" transform="translate(24 188.5)"/>
</clipPath>
</defs>
</svg>
