<svg width="538" height="316" viewBox="0 0 538 316" fill="none" xmlns="http://www.w3.org/2000/svg">
<rect x="0.75" y="0.75" width="536.5" height="314.5" rx="7.25" fill="#FFF9F2"/>
<rect x="0.75" y="0.75" width="536.5" height="314.5" rx="7.25" stroke="#D7D334" stroke-width="1.5"/>
<rect x="24" y="54.5" width="70" height="22" rx="11" fill="#2F2F2F"/>
<path d="M33.2544 69.5L34.4424 61.724H35.1504L33.9624 69.5H33.2544ZM32.5224 66.356H37.9824V67.388H32.5224V66.356ZM38.3664 64.844H32.9064V63.8H38.3664V64.844ZM35.7504 69.5L36.9504 61.724H37.6584L36.4704 69.5H35.7504ZM39.0885 69.5V68.792L40.6725 68.732H40.8525V69.5H39.0885ZM40.2285 69.5C40.2365 69.092 40.2405 68.684 40.2405 68.276C40.2405 67.868 40.2405 67.456 40.2405 67.04C40.2405 66.624 40.2405 66.212 40.2405 65.804V65.18C40.2405 64.772 40.2405 64.364 40.2405 63.956C40.2405 63.548 40.2405 63.14 40.2405 62.732C40.2405 62.316 40.2365 61.904 40.2285 61.496H41.7045C41.7045 61.904 41.7005 62.312 41.6925 62.72C41.6925 63.128 41.6925 63.536 41.6925 63.944C41.6925 64.352 41.6925 64.764 41.6925 65.18V65.756C41.6925 66.18 41.6925 66.604 41.6925 67.028C41.6925 67.444 41.6925 67.856 41.6925 68.264C41.7005 68.672 41.7045 69.084 41.7045 69.5H40.2285ZM40.9605 69.5V68.768H45.1965L44.6805 69.212L45.1125 67.268H45.9045L45.8085 69.5H40.9605ZM40.9725 65.768V65.06H43.8765V65.768H40.9725ZM43.5885 66.8L43.3485 65.552V65.252L43.5885 64.028H44.2845V66.8H43.5885ZM39.0885 62.204V61.496H40.8525V62.264H40.6725L39.0885 62.204ZM44.8725 63.644L44.4405 61.784L44.9685 62.228H40.9605V61.496H45.5685L45.6645 63.644H44.8725ZM47.0861 69.5V68.564C47.4061 68.284 47.7181 68.004 48.0221 67.724C48.3261 67.444 48.6221 67.168 48.9101 66.896C49.3501 66.472 49.7061 66.084 49.9781 65.732C50.2501 65.38 50.4501 65.048 50.5781 64.736C50.7061 64.416 50.7701 64.1 50.7701 63.788C50.7701 63.308 50.6341 62.932 50.3621 62.66C50.0901 62.38 49.7061 62.24 49.2101 62.24C48.9941 62.24 48.7941 62.252 48.6101 62.276C48.4261 62.3 48.2461 62.336 48.0701 62.384L48.7901 61.988L48.5381 63.032C48.4981 63.24 48.4381 63.412 48.3581 63.548C48.2861 63.684 48.1941 63.788 48.0821 63.86C47.9781 63.924 47.8461 63.956 47.6861 63.956C47.4781 63.956 47.3181 63.9 47.2061 63.788C47.0941 63.676 47.0181 63.56 46.9781 63.44C47.0421 63.072 47.1901 62.752 47.4221 62.48C47.6621 62.2 47.9661 61.988 48.3341 61.844C48.7101 61.692 49.1301 61.616 49.5941 61.616C50.1301 61.616 50.5901 61.7 50.9741 61.868C51.3661 62.028 51.6661 62.264 51.8741 62.576C52.0901 62.88 52.1981 63.256 52.1981 63.704C52.1981 64.072 52.1141 64.424 51.9461 64.76C51.7861 65.096 51.5261 65.448 51.1661 65.816C50.8061 66.184 50.3261 66.604 49.7261 67.076C49.5341 67.228 49.3341 67.376 49.1261 67.52C48.9261 67.664 48.7181 67.808 48.5021 67.952C48.2941 68.088 48.0861 68.228 47.8781 68.372L48.0461 68.024V68.336H52.4261V69.5H47.0861ZM53.4083 69.5V68.792L54.8843 68.732H55.0763V69.5H53.4083ZM54.5483 69.5C54.5563 69.092 54.5603 68.684 54.5603 68.276C54.5603 67.86 54.5603 67.444 54.5603 67.028C54.5603 66.612 54.5603 66.188 54.5603 65.756V65.18C54.5603 64.772 54.5603 64.364 54.5603 63.956C54.5603 63.548 54.5603 63.14 54.5603 62.732C54.5603 62.316 54.5563 61.904 54.5483 61.496H56.0243C56.0243 61.904 56.0203 62.312 56.0123 62.72C56.0123 63.128 56.0123 63.536 56.0123 63.944C56.0123 64.352 56.0123 64.764 56.0123 65.18V65.756C56.0123 66.18 56.0123 66.604 56.0123 67.028C56.0123 67.444 56.0123 67.856 56.0123 68.264C56.0203 68.672 56.0243 69.084 56.0243 69.5H54.5483ZM55.4963 69.5V68.792H56.9603C57.6003 68.792 58.1403 68.66 58.5803 68.396C59.0203 68.124 59.3523 67.74 59.5763 67.244C59.8083 66.748 59.9243 66.152 59.9243 65.456C59.9243 64.4 59.6763 63.596 59.1803 63.044C58.6843 62.484 57.9923 62.204 57.1043 62.204H55.4963V61.496H57.2363C58.0843 61.496 58.8243 61.644 59.4563 61.94C60.0963 62.228 60.5923 62.664 60.9443 63.248C61.2963 63.832 61.4723 64.556 61.4723 65.42C61.4723 66.284 61.2883 67.02 60.9203 67.628C60.5603 68.236 60.0483 68.7 59.3843 69.02C58.7203 69.34 57.9403 69.5 57.0443 69.5H55.4963ZM53.4083 62.204V61.496H55.0763V62.264H54.8843L53.4083 62.204ZM66.966 69.692C66.342 69.692 65.766 69.6 65.238 69.416C64.71 69.232 64.25 68.964 63.858 68.612C63.474 68.26 63.174 67.824 62.958 67.304C62.742 66.784 62.634 66.192 62.634 65.528C62.634 64.864 62.746 64.272 62.97 63.752C63.194 63.224 63.506 62.78 63.906 62.42C64.314 62.052 64.782 61.776 65.31 61.592C65.846 61.4 66.418 61.304 67.026 61.304C67.538 61.304 68.002 61.356 68.418 61.46C68.842 61.564 69.202 61.696 69.498 61.856L69.546 63.656H68.742L68.346 61.916L69.186 61.976V62.72C68.906 62.504 68.594 62.34 68.25 62.228C67.906 62.108 67.534 62.048 67.134 62.048C66.582 62.048 66.082 62.176 65.634 62.432C65.194 62.688 64.842 63.072 64.578 63.584C64.314 64.096 64.182 64.732 64.182 65.492C64.182 66.252 64.306 66.888 64.554 67.4C64.802 67.912 65.142 68.3 65.574 68.564C66.014 68.82 66.518 68.948 67.086 68.948C67.542 68.948 67.954 68.892 68.322 68.78C68.698 68.66 69.03 68.496 69.318 68.288V69.02L68.478 69.08L68.862 67.304H69.666L69.618 69.14C69.33 69.284 68.962 69.412 68.514 69.524C68.074 69.636 67.558 69.692 66.966 69.692ZM70.5763 69.5V68.792L72.0523 68.732H72.2443V69.5H70.5763ZM71.7163 69.5C71.7243 69.092 71.7283 68.684 71.7283 68.276C71.7283 67.86 71.7283 67.444 71.7283 67.028C71.7283 66.612 71.7283 66.188 71.7283 65.756V65.18C71.7283 64.772 71.7283 64.364 71.7283 63.956C71.7283 63.548 71.7283 63.14 71.7283 62.732C71.7283 62.316 71.7243 61.904 71.7163 61.496H73.1923C73.1923 61.904 73.1883 62.312 73.1803 62.72C73.1803 63.128 73.1803 63.536 73.1803 63.944C73.1803 64.352 73.1803 64.764 73.1803 65.18V65.756C73.1803 66.18 73.1803 66.604 73.1803 67.028C73.1803 67.444 73.1803 67.856 73.1803 68.264C73.1883 68.672 73.1923 69.084 73.1923 69.5H71.7163ZM72.6643 69.5V68.792H74.1283C74.7683 68.792 75.3083 68.66 75.7483 68.396C76.1883 68.124 76.5203 67.74 76.7443 67.244C76.9763 66.748 77.0923 66.152 77.0923 65.456C77.0923 64.4 76.8443 63.596 76.3483 63.044C75.8523 62.484 75.1603 62.204 74.2723 62.204H72.6643V61.496H74.4043C75.2523 61.496 75.9923 61.644 76.6243 61.94C77.2643 62.228 77.7603 62.664 78.1123 63.248C78.4643 63.832 78.6403 64.556 78.6403 65.42C78.6403 66.284 78.4563 67.02 78.0883 67.628C77.7283 68.236 77.2163 68.7 76.5523 69.02C75.8883 69.34 75.1083 69.5 74.2123 69.5H72.6643ZM70.5763 62.204V61.496H72.2443V62.264H72.0523L70.5763 62.204ZM80.2114 69.5V68.816L82.1074 68.708H82.9474L84.8074 68.816V69.5H80.2114ZM81.8314 69.5C81.8314 69.132 81.8314 68.768 81.8314 68.408C81.8394 68.04 81.8434 67.672 81.8434 67.304C81.8434 66.936 81.8434 66.568 81.8434 66.2V62.912L80.3194 63.128V62.444L82.8394 61.736L83.2594 61.772L83.2354 64.616V66.2C83.2354 66.568 83.2354 66.936 83.2354 67.304C83.2434 67.672 83.2474 68.04 83.2474 68.408C83.2474 68.768 83.2474 69.132 83.2474 69.5H81.8314Z" fill="#FFF9F2"/>
<rect x="102" y="54.5" width="43" height="22" rx="11" fill="#2F2F2F"/>
<path d="M110.496 69.5V68.792L111.732 68.732H112.008L113.388 68.792V69.5H110.496ZM111.204 69.5L114.048 61.448H115.272L118.14 69.5H116.604L114.228 62.54H114.168L113.832 64.076L112.008 69.5H111.204ZM112.584 67.04V66.344H116.28V67.04H112.584ZM115.176 69.5V68.792L116.76 68.732H117.276L118.86 68.792V69.5H115.176ZM119.309 69.5V68.792L120.545 68.732H120.821L122.201 68.792V69.5H119.309ZM120.017 69.5L122.861 61.448H124.085L126.953 69.5H125.417L123.041 62.54H122.981L122.645 64.076L120.821 69.5H120.017ZM121.397 67.04V66.344H125.093V67.04H121.397ZM123.989 69.5V68.792L125.573 68.732H126.089L127.673 68.792V69.5H123.989ZM128.121 69.5V68.792L129.357 68.732H129.633L131.013 68.792V69.5H128.121ZM128.829 69.5L131.673 61.448H132.897L135.765 69.5H134.229L131.853 62.54H131.793L131.457 64.076L129.633 69.5H128.829ZM130.209 67.04V66.344H133.905V67.04H130.209ZM132.801 69.5V68.792L134.385 68.732H134.901L136.485 68.792V69.5H132.801Z" fill="#FFF9F2"/>
<path d="M28.08 103.525L29.865 101.56V111.145L28.635 110.08H37.665V113.245H28.635L29.865 112.105V122.5H25.935V100.375H39V103.525H28.08ZM49.7878 122.83C48.4478 122.83 47.1978 122.58 46.0378 122.08C44.8778 121.58 43.8578 120.845 42.9778 119.875C42.1078 118.895 41.4278 117.7 40.9378 116.29C40.4578 114.87 40.2178 113.245 40.2178 111.415C40.2178 109.585 40.4578 107.965 40.9378 106.555C41.4278 105.145 42.1078 103.96 42.9778 103C43.8478 102.03 44.8628 101.3 46.0228 100.81C47.1928 100.31 48.4478 100.06 49.7878 100.06C51.1478 100.06 52.4078 100.31 53.5678 100.81C54.7378 101.3 55.7578 102.03 56.6278 103C57.4978 103.96 58.1728 105.145 58.6528 106.555C59.1428 107.965 59.3878 109.585 59.3878 111.415C59.3878 113.245 59.1428 114.87 58.6528 116.29C58.1628 117.7 57.4778 118.895 56.5978 119.875C55.7278 120.845 54.7128 121.58 53.5528 122.08C52.3928 122.58 51.1378 122.83 49.7878 122.83ZM49.7878 119.575C50.8278 119.575 51.7678 119.295 52.6078 118.735C53.4478 118.165 54.1128 117.28 54.6028 116.08C55.1028 114.88 55.3528 113.325 55.3528 111.415C55.3528 109.495 55.1028 107.945 54.6028 106.765C54.1028 105.575 53.4328 104.705 52.5928 104.155C51.7528 103.605 50.8178 103.33 49.7878 103.33C48.7778 103.33 47.8478 103.605 46.9978 104.155C46.1578 104.705 45.4828 105.575 44.9728 106.765C44.4728 107.945 44.2228 109.495 44.2228 111.415C44.2228 113.335 44.4728 114.895 44.9728 116.095C45.4828 117.295 46.1578 118.175 46.9978 118.735C47.8478 119.295 48.7778 119.575 49.7878 119.575ZM71.329 122.83C69.609 122.83 68.044 122.39 66.634 121.51C65.234 120.63 64.119 119.345 63.289 117.655C62.459 115.965 62.044 113.91 62.044 111.49C62.044 109.06 62.474 106.995 63.334 105.295C64.194 103.595 65.354 102.3 66.814 101.41C68.284 100.51 69.924 100.06 71.734 100.06C73.234 100.06 74.504 100.31 75.544 100.81C76.594 101.3 77.444 101.935 78.094 102.715C78.754 103.495 79.229 104.315 79.519 105.175C79.819 106.035 79.969 106.835 79.969 107.575C79.969 107.605 79.969 107.635 79.969 107.665C79.969 107.695 79.969 107.725 79.969 107.755H76.129C76.129 107.725 76.129 107.695 76.129 107.665C76.129 107.635 76.129 107.605 76.129 107.575C76.129 107.055 76.039 106.545 75.859 106.045C75.679 105.545 75.404 105.09 75.034 104.68C74.664 104.27 74.204 103.945 73.654 103.705C73.104 103.465 72.464 103.345 71.734 103.345C70.744 103.345 69.814 103.62 68.944 104.17C68.084 104.72 67.384 105.595 66.844 106.795C66.314 107.985 66.049 109.55 66.049 111.49C66.049 112.96 66.199 114.21 66.499 115.24C66.799 116.27 67.204 117.105 67.714 117.745C68.234 118.385 68.824 118.855 69.484 119.155C70.154 119.445 70.859 119.59 71.599 119.59C72.599 119.59 73.429 119.42 74.089 119.08C74.759 118.74 75.279 118.315 75.649 117.805C76.029 117.295 76.269 116.795 76.369 116.305V114.58H71.644V111.61H79.909V122.5H77.629L77.299 120.04C77.229 120.22 77.064 120.465 76.804 120.775C76.554 121.085 76.194 121.4 75.724 121.72C75.254 122.03 74.654 122.29 73.924 122.5C73.204 122.72 72.339 122.83 71.329 122.83ZM108.801 114.535C108.801 115.475 108.626 116.43 108.276 117.4C107.926 118.37 107.391 119.27 106.671 120.1C105.961 120.92 105.061 121.58 103.971 122.08C102.881 122.58 101.601 122.83 100.131 122.83C98.1406 122.83 96.4406 122.345 95.0306 121.375C93.6306 120.395 92.5606 119.05 91.8206 117.34C91.0906 115.63 90.7256 113.665 90.7256 111.445C90.7256 109.215 91.0906 107.245 91.8206 105.535C92.5606 103.825 93.6306 102.485 95.0306 101.515C96.4406 100.545 98.1406 100.06 100.131 100.06C101.781 100.06 103.191 100.375 104.361 101.005C105.531 101.635 106.466 102.445 107.166 103.435C107.866 104.425 108.336 105.46 108.576 106.54C108.726 107.17 108.801 107.77 108.801 108.34H104.826C104.826 108.05 104.806 107.75 104.766 107.44C104.656 106.68 104.401 105.99 104.001 105.37C103.611 104.74 103.091 104.245 102.441 103.885C101.791 103.515 101.021 103.33 100.131 103.33C99.0706 103.33 98.1356 103.625 97.3256 104.215C96.5256 104.805 95.8956 105.7 95.4356 106.9C94.9756 108.1 94.7456 109.615 94.7456 111.445C94.7456 113.255 94.9756 114.765 95.4356 115.975C95.8956 117.185 96.5256 118.09 97.3256 118.69C98.1356 119.29 99.0706 119.59 100.131 119.59C100.891 119.59 101.561 119.45 102.141 119.17C102.721 118.89 103.211 118.515 103.611 118.045C104.011 117.565 104.311 117.025 104.511 116.425C104.721 115.825 104.826 115.195 104.826 114.535H108.801ZM112.068 122.5V100.375H120.588C122.818 100.375 124.493 100.885 125.613 101.905C126.733 102.925 127.293 104.425 127.293 106.405C127.293 107.565 127.073 108.55 126.633 109.36C126.193 110.17 125.658 110.795 125.028 111.235C124.398 111.675 123.798 111.925 123.228 111.985C123.808 112.025 124.368 112.175 124.908 112.435C125.448 112.695 125.888 113.105 126.228 113.665C126.578 114.215 126.753 114.96 126.753 115.9C126.753 116.65 126.753 117.4 126.753 118.15C126.753 118.89 126.753 119.635 126.753 120.385C126.753 120.855 126.793 121.29 126.873 121.69C126.953 122.08 127.053 122.35 127.173 122.5H123.198C123.098 122.32 123.008 122.045 122.928 121.675C122.858 121.295 122.823 120.865 122.823 120.385C122.823 119.705 122.823 119.04 122.823 118.39C122.823 117.73 122.823 117.055 122.823 116.365C122.823 115.455 122.568 114.765 122.058 114.295C121.548 113.825 120.778 113.59 119.748 113.59H114.873L115.923 112.255V122.5H112.068ZM115.923 111.925L114.873 110.44H119.778C120.428 110.44 121.013 110.29 121.533 109.99C122.053 109.68 122.463 109.25 122.763 108.7C123.073 108.15 123.228 107.505 123.228 106.765C123.228 105.685 122.918 104.875 122.298 104.335C121.678 103.795 120.798 103.525 119.658 103.525H114.768L115.923 102.13V111.925ZM132.949 103.525L134.734 101.56V111.01L133.804 109.825H142.084V112.975H133.804L134.734 111.805V121.315L132.949 119.35H143.749V122.5H130.759V100.375H143.749V103.525H132.949ZM146.029 122.5L151.744 100.345H157.984L163.654 122.5H159.589L154.849 102.79H154.879L150.094 122.5H146.029ZM149.719 117.115V113.95H160.009V117.115H149.719ZM182.074 100.375H188.794V122.5H185.029V102.895L185.119 102.925L180.364 122.5H175.084L170.269 102.91L170.359 102.865V122.5H166.594V100.375H173.314L177.799 120.34H177.544L182.074 100.375Z" fill="#2F2F2F"/>
<path d="M31.002 150.77C30.102 150.77 29.274 150.62 28.518 150.32C27.762 150.008 27.108 149.576 26.556 149.024C26.004 148.46 25.578 147.794 25.278 147.026C24.99 146.258 24.846 145.412 24.846 144.488C24.846 143.564 24.996 142.718 25.296 141.95C25.608 141.17 26.04 140.498 26.592 139.934C27.144 139.37 27.804 138.938 28.572 138.638C29.34 138.326 30.18 138.17 31.092 138.17C31.608 138.17 32.082 138.206 32.514 138.278C32.946 138.338 33.348 138.428 33.72 138.548C34.104 138.668 34.452 138.818 34.764 138.998L34.836 141.644H33.72L33.234 138.98L34.386 139.286V140.33C33.93 139.91 33.438 139.604 32.91 139.412C32.382 139.208 31.824 139.106 31.236 139.106C30.396 139.106 29.64 139.316 28.968 139.736C28.308 140.144 27.786 140.75 27.402 141.554C27.018 142.346 26.826 143.318 26.826 144.47C26.826 145.61 27.006 146.582 27.366 147.386C27.738 148.178 28.26 148.784 28.932 149.204C29.616 149.612 30.414 149.816 31.326 149.816C31.866 149.816 32.346 149.756 32.766 149.636C33.186 149.516 33.636 149.336 34.116 149.096L33.306 149.96V148.916C33.306 148.232 33.306 147.542 33.306 146.846C33.306 146.15 33.294 145.46 33.27 144.776H35.088C35.076 145.448 35.064 146.132 35.052 146.828C35.04 147.524 35.034 148.22 35.034 148.916V149.726C34.434 150.038 33.804 150.29 33.144 150.482C32.496 150.674 31.782 150.77 31.002 150.77ZM31.398 145.55V144.776H36.204V145.55L34.224 145.712H33.792L31.398 145.55ZM41.5732 150.734C40.7092 150.734 39.9592 150.56 39.3232 150.212C38.6992 149.852 38.2132 149.342 37.8652 148.682C37.5292 148.01 37.3612 147.212 37.3612 146.288C37.3612 145.352 37.5412 144.536 37.9012 143.84C38.2732 143.144 38.7712 142.604 39.3952 142.22C40.0312 141.824 40.7332 141.626 41.5012 141.626C42.1732 141.626 42.7672 141.764 43.2832 142.04C43.7992 142.316 44.2072 142.712 44.5072 143.228C44.8072 143.744 44.9572 144.368 44.9572 145.1C44.9572 145.316 44.9452 145.52 44.9212 145.712C44.8972 145.892 44.8672 146.048 44.8312 146.18H38.1352V145.388H42.4552C42.8752 145.364 43.1452 145.268 43.2652 145.1C43.3852 144.92 43.4452 144.71 43.4452 144.47C43.4452 144.038 43.3672 143.678 43.2112 143.39C43.0552 143.09 42.8332 142.868 42.5452 142.724C42.2572 142.568 41.9092 142.49 41.5012 142.49C41.0812 142.49 40.6732 142.61 40.2772 142.85C39.8932 143.09 39.5812 143.474 39.3412 144.002C39.1012 144.518 38.9812 145.208 38.9812 146.072C38.9812 146.816 39.1012 147.446 39.3412 147.962C39.5812 148.478 39.9232 148.874 40.3672 149.15C40.8232 149.414 41.3572 149.546 41.9692 149.546C42.5572 149.546 43.0612 149.444 43.4812 149.24C43.9132 149.036 44.3092 148.736 44.6692 148.34L45.1012 148.7C44.8492 149.096 44.5672 149.45 44.2552 149.762C43.9432 150.074 43.5712 150.314 43.1392 150.482C42.7192 150.65 42.1972 150.734 41.5732 150.734ZM46.5876 150.5V149.78L48.5676 149.474H48.9996L50.8356 149.78V150.5H46.5876ZM47.9376 150.5C47.9376 150.2 47.9376 149.828 47.9376 149.384C47.9496 148.928 47.9556 148.46 47.9556 147.98C47.9676 147.5 47.9736 147.068 47.9736 146.684V145.802C47.9736 145.478 47.9676 145.19 47.9556 144.938C47.9556 144.686 47.9496 144.446 47.9376 144.218C47.9376 143.99 47.9376 143.75 47.9376 143.498L46.4796 143.372V142.688L48.9456 141.662L49.2876 141.806L49.5216 143.84L49.5396 143.858V146.684C49.5396 147.068 49.5396 147.5 49.5396 147.98C49.5516 148.46 49.5576 148.928 49.5576 149.384C49.5696 149.828 49.5756 150.2 49.5756 150.5H47.9376ZM52.1856 150.5V149.78L54.1656 149.474H54.5976L56.4516 149.78V150.5H52.1856ZM53.5176 150.5C53.5296 150.2 53.5356 149.828 53.5356 149.384C53.5476 148.94 53.5536 148.478 53.5536 147.998C53.5656 147.518 53.5716 147.08 53.5716 146.684V145.082C53.5716 144.278 53.4516 143.726 53.2116 143.426C52.9716 143.114 52.5816 142.958 52.0416 142.958C51.7536 142.958 51.4656 143 51.1776 143.084C50.8896 143.168 50.5956 143.3 50.2956 143.48C49.9956 143.66 49.6776 143.894 49.3416 144.182L49.1436 143.48H49.3776C49.6656 143.12 49.9896 142.802 50.3496 142.526C50.7096 142.25 51.0936 142.034 51.5016 141.878C51.9096 141.71 52.3176 141.626 52.7256 141.626C53.5296 141.626 54.1296 141.89 54.5256 142.418C54.9216 142.934 55.1196 143.762 55.1196 144.902V146.684C55.1196 147.08 55.1196 147.518 55.1196 147.998C55.1316 148.478 55.1376 148.94 55.1376 149.384C55.1376 149.828 55.1436 150.2 55.1556 150.5H53.5176ZM59.4087 142.832V141.842H62.6667V142.832H59.4087ZM60.7407 150.716C60.0927 150.716 59.5767 150.542 59.1927 150.194C58.8087 149.846 58.6167 149.312 58.6167 148.592C58.6167 148.364 58.6167 148.142 58.6167 147.926C58.6287 147.71 58.6347 147.44 58.6347 147.116V142.832H57.1047V142.022L59.3727 141.752L58.6527 142.328L59.2287 139.394H60.3267L60.1647 142.292L60.2007 142.598V148.394C60.2007 148.862 60.2907 149.204 60.4707 149.42C60.6627 149.624 60.9147 149.726 61.2267 149.726C61.4427 149.726 61.6407 149.684 61.8207 149.6C62.0127 149.516 62.2167 149.408 62.4327 149.276L62.8467 149.816C62.7027 149.996 62.5227 150.158 62.3067 150.302C62.1027 150.434 61.8687 150.536 61.6047 150.608C61.3407 150.68 61.0527 150.716 60.7407 150.716ZM63.4575 150.5V149.78L65.4915 149.474H65.9235L67.9755 149.78V150.5H63.4575ZM64.8975 150.5C64.9095 150.08 64.9155 149.66 64.9155 149.24C64.9155 148.808 64.9155 148.382 64.9155 147.962C64.9275 147.53 64.9335 147.104 64.9335 146.684V138.854L63.4395 138.638V137.954L66.2115 137.216L66.5535 137.324L66.4815 139.808V146.684C66.4815 147.104 66.4815 147.53 66.4815 147.962C66.4935 148.382 66.4995 148.808 66.4995 149.24C66.5115 149.66 66.5235 150.08 66.5355 150.5H64.8975ZM73.5127 150.734C72.6487 150.734 71.8987 150.56 71.2627 150.212C70.6387 149.852 70.1527 149.342 69.8047 148.682C69.4687 148.01 69.3007 147.212 69.3007 146.288C69.3007 145.352 69.4807 144.536 69.8407 143.84C70.2127 143.144 70.7107 142.604 71.3347 142.22C71.9707 141.824 72.6727 141.626 73.4407 141.626C74.1127 141.626 74.7067 141.764 75.2227 142.04C75.7387 142.316 76.1467 142.712 76.4467 143.228C76.7467 143.744 76.8967 144.368 76.8967 145.1C76.8967 145.316 76.8847 145.52 76.8607 145.712C76.8367 145.892 76.8067 146.048 76.7707 146.18H70.0747V145.388H74.3947C74.8147 145.364 75.0847 145.268 75.2047 145.1C75.3247 144.92 75.3847 144.71 75.3847 144.47C75.3847 144.038 75.3067 143.678 75.1507 143.39C74.9947 143.09 74.7727 142.868 74.4847 142.724C74.1967 142.568 73.8487 142.49 73.4407 142.49C73.0207 142.49 72.6127 142.61 72.2167 142.85C71.8327 143.09 71.5207 143.474 71.2807 144.002C71.0407 144.518 70.9207 145.208 70.9207 146.072C70.9207 146.816 71.0407 147.446 71.2807 147.962C71.5207 148.478 71.8627 148.874 72.3067 149.15C72.7627 149.414 73.2967 149.546 73.9087 149.546C74.4967 149.546 75.0007 149.444 75.4207 149.24C75.8527 149.036 76.2487 148.736 76.6087 148.34L77.0407 148.7C76.7887 149.096 76.5067 149.45 76.1947 149.762C75.8827 150.074 75.5107 150.314 75.0787 150.482C74.6587 150.65 74.1367 150.734 73.5127 150.734ZM87.0298 150.734C86.3098 150.734 85.6258 150.566 84.9778 150.23C84.3418 149.894 83.8258 149.39 83.4298 148.718C83.0338 148.034 82.8358 147.2 82.8358 146.216C82.8358 145.22 83.0338 144.38 83.4298 143.696C83.8258 143.012 84.3418 142.496 84.9778 142.148C85.6258 141.8 86.3098 141.626 87.0298 141.626C87.7498 141.626 88.4278 141.8 89.0638 142.148C89.7118 142.484 90.2338 142.994 90.6298 143.678C91.0378 144.362 91.2418 145.202 91.2418 146.198C91.2418 147.182 91.0378 148.016 90.6298 148.7C90.2338 149.372 89.7118 149.882 89.0638 150.23C88.4278 150.566 87.7498 150.734 87.0298 150.734ZM87.0298 149.87C87.5578 149.87 88.0018 149.732 88.3618 149.456C88.7338 149.18 89.0158 148.772 89.2078 148.232C89.4118 147.692 89.5138 147.02 89.5138 146.216C89.5138 145.4 89.4118 144.716 89.2078 144.164C89.0158 143.612 88.7338 143.198 88.3618 142.922C88.0018 142.634 87.5578 142.49 87.0298 142.49C86.5018 142.49 86.0518 142.634 85.6798 142.922C85.3198 143.198 85.0438 143.612 84.8518 144.164C84.6598 144.704 84.5638 145.382 84.5638 146.198C84.5638 147.014 84.6598 147.692 84.8518 148.232C85.0438 148.772 85.3198 149.18 85.6798 149.456C86.0518 149.732 86.5018 149.87 87.0298 149.87ZM92.5527 154.766V154.046L94.5867 153.758H95.0367L97.2327 154.046V154.766H92.5527ZM93.9927 154.766C94.0047 154.346 94.0107 153.932 94.0107 153.524C94.0227 153.116 94.0287 152.702 94.0287 152.282C94.0407 151.874 94.0467 151.466 94.0467 151.058V145.802C94.0467 145.478 94.0407 145.19 94.0287 144.938C94.0287 144.686 94.0227 144.446 94.0107 144.218C94.0107 143.99 94.0047 143.75 93.9927 143.498L92.5527 143.372V142.688L95.0007 141.662L95.3427 141.806L95.5227 143.372L95.5947 143.426V149.042L95.5407 149.132L95.5587 151.094C95.5587 151.49 95.5587 151.892 95.5587 152.3C95.5707 152.72 95.5767 153.134 95.5767 153.542C95.5887 153.95 95.5947 154.358 95.5947 154.766H93.9927ZM98.0607 150.734C97.7127 150.734 97.3767 150.674 97.0527 150.554C96.7287 150.446 96.4167 150.266 96.1167 150.014C95.8287 149.75 95.5527 149.408 95.2887 148.988H94.8207L94.9467 147.926C95.4147 148.538 95.8647 148.982 96.2967 149.258C96.7407 149.534 97.1967 149.672 97.6647 149.672C98.1327 149.672 98.5467 149.552 98.9067 149.312C99.2787 149.072 99.5727 148.7 99.7887 148.196C100.017 147.692 100.131 147.05 100.131 146.27C100.131 145.106 99.9147 144.218 99.4827 143.606C99.0507 142.994 98.5047 142.688 97.8447 142.688C97.5807 142.688 97.2987 142.742 96.9987 142.85C96.7107 142.958 96.3987 143.138 96.0627 143.39C95.7267 143.63 95.3487 143.96 94.9287 144.38L94.8027 143.408H95.2887C95.5887 143.012 95.8947 142.682 96.2067 142.418C96.5187 142.154 96.8487 141.956 97.1967 141.824C97.5447 141.692 97.9107 141.626 98.2947 141.626C98.9547 141.626 99.5487 141.806 100.077 142.166C100.605 142.526 101.019 143.042 101.319 143.714C101.631 144.386 101.787 145.196 101.787 146.144C101.787 147.092 101.625 147.908 101.301 148.592C100.977 149.276 100.533 149.804 99.9687 150.176C99.4167 150.548 98.7807 150.734 98.0607 150.734ZM104.989 142.832V141.842H108.247V142.832H104.989ZM106.321 150.716C105.673 150.716 105.157 150.542 104.773 150.194C104.389 149.846 104.197 149.312 104.197 148.592C104.197 148.364 104.197 148.142 104.197 147.926C104.209 147.71 104.215 147.44 104.215 147.116V142.832H102.685V142.022L104.953 141.752L104.233 142.328L104.809 139.394H105.907L105.745 142.292L105.781 142.598V148.394C105.781 148.862 105.871 149.204 106.051 149.42C106.243 149.624 106.495 149.726 106.807 149.726C107.023 149.726 107.221 149.684 107.401 149.6C107.593 149.516 107.797 149.408 108.013 149.276L108.427 149.816C108.283 149.996 108.103 150.158 107.887 150.302C107.683 150.434 107.449 150.536 107.185 150.608C106.921 150.68 106.633 150.716 106.321 150.716ZM109.182 150.5V149.78L111.162 149.474H111.612L113.466 149.78V150.5H109.182ZM110.532 150.5C110.544 150.2 110.55 149.828 110.55 149.384C110.562 148.928 110.568 148.46 110.568 147.98C110.58 147.5 110.586 147.068 110.586 146.684V145.82C110.586 145.34 110.58 144.926 110.568 144.578C110.568 144.23 110.556 143.87 110.532 143.498L109.092 143.372V142.688L111.846 141.662L112.188 141.806L112.134 144.164V146.684C112.134 147.068 112.134 147.5 112.134 147.98C112.146 148.46 112.152 148.928 112.152 149.384C112.164 149.828 112.176 150.2 112.188 150.5H110.532ZM111.27 139.844C110.934 139.844 110.646 139.736 110.406 139.52C110.178 139.292 110.064 139.01 110.064 138.674C110.064 138.338 110.178 138.062 110.406 137.846C110.646 137.618 110.934 137.504 111.27 137.504C111.618 137.504 111.906 137.618 112.134 137.846C112.374 138.062 112.494 138.338 112.494 138.674C112.494 139.01 112.374 139.292 112.134 139.52C111.906 139.736 111.618 139.844 111.27 139.844ZM114.791 150.5V149.78L116.771 149.474H117.203L119.039 149.78V150.5H114.791ZM116.141 150.5C116.141 150.2 116.141 149.828 116.141 149.384C116.153 148.928 116.159 148.46 116.159 147.98C116.171 147.5 116.177 147.068 116.177 146.684V145.802C116.177 145.478 116.171 145.19 116.159 144.938C116.159 144.686 116.153 144.446 116.141 144.218C116.141 143.99 116.141 143.75 116.141 143.498L114.683 143.372V142.688L117.149 141.662L117.491 141.806L117.725 143.84L117.743 143.876V146.684C117.743 147.068 117.743 147.5 117.743 147.98C117.755 148.46 117.761 148.928 117.761 149.384C117.773 149.828 117.779 150.2 117.779 150.5H116.141ZM120.299 150.5V149.78L122.279 149.474H122.711L124.565 149.78V150.5H120.299ZM121.649 150.5C121.649 150.2 121.649 149.828 121.649 149.384C121.661 148.94 121.667 148.478 121.667 147.998C121.679 147.518 121.685 147.08 121.685 146.684V145.082C121.685 144.29 121.571 143.738 121.343 143.426C121.115 143.114 120.731 142.958 120.191 142.958C119.903 142.958 119.615 143 119.327 143.084C119.051 143.168 118.763 143.306 118.463 143.498C118.175 143.678 117.869 143.906 117.545 144.182L117.311 143.534H117.563C117.827 143.174 118.133 142.85 118.481 142.562C118.841 142.274 119.219 142.046 119.615 141.878C120.023 141.71 120.437 141.626 120.857 141.626C121.661 141.626 122.255 141.89 122.639 142.418C123.035 142.934 123.233 143.762 123.233 144.902V146.684C123.233 147.08 123.233 147.518 123.233 147.998C123.245 148.478 123.251 148.94 123.251 149.384C123.263 149.828 123.275 150.2 123.287 150.5H121.649ZM125.807 150.5V149.78L127.787 149.474H128.219L130.073 149.78V150.5H125.807ZM127.157 150.5C127.157 150.2 127.157 149.828 127.157 149.384C127.169 148.94 127.175 148.478 127.175 147.998C127.187 147.518 127.193 147.08 127.193 146.684V145.064C127.193 144.248 127.073 143.696 126.833 143.408C126.593 143.108 126.203 142.958 125.663 142.958C125.399 142.958 125.129 143 124.853 143.084C124.577 143.156 124.289 143.282 123.989 143.462C123.701 143.642 123.389 143.882 123.053 144.182L122.747 143.57H122.999C123.299 143.15 123.623 142.796 123.971 142.508C124.331 142.208 124.709 141.986 125.105 141.842C125.513 141.698 125.933 141.626 126.365 141.626C127.133 141.626 127.721 141.872 128.129 142.364C128.537 142.856 128.741 143.648 128.741 144.74V146.684C128.741 147.08 128.741 147.518 128.741 147.998C128.753 148.478 128.759 148.94 128.759 149.384C128.771 149.828 128.783 150.2 128.795 150.5H127.157ZM131.26 150.5V149.78L133.24 149.474H133.69L135.544 149.78V150.5H131.26ZM132.61 150.5C132.622 150.2 132.628 149.828 132.628 149.384C132.64 148.928 132.646 148.46 132.646 147.98C132.658 147.5 132.664 147.068 132.664 146.684V145.82C132.664 145.34 132.658 144.926 132.646 144.578C132.646 144.23 132.634 143.87 132.61 143.498L131.17 143.372V142.688L133.924 141.662L134.266 141.806L134.212 144.164V146.684C134.212 147.068 134.212 147.5 134.212 147.98C134.224 148.46 134.23 148.928 134.23 149.384C134.242 149.828 134.254 150.2 134.266 150.5H132.61ZM133.348 139.844C133.012 139.844 132.724 139.736 132.484 139.52C132.256 139.292 132.142 139.01 132.142 138.674C132.142 138.338 132.256 138.062 132.484 137.846C132.724 137.618 133.012 137.504 133.348 137.504C133.696 137.504 133.984 137.618 134.212 137.846C134.452 138.062 134.572 138.338 134.572 138.674C134.572 139.01 134.452 139.292 134.212 139.52C133.984 139.736 133.696 139.844 133.348 139.844ZM139.839 150.734C139.299 150.734 138.807 150.674 138.363 150.554C137.919 150.446 137.481 150.284 137.049 150.068L136.977 148.016H138.003L138.471 150.176H137.679V149.24C137.979 149.456 138.309 149.618 138.669 149.726C139.029 149.834 139.425 149.888 139.857 149.888C140.325 149.888 140.709 149.828 141.009 149.708C141.309 149.588 141.525 149.426 141.657 149.222C141.801 149.006 141.873 148.766 141.873 148.502C141.873 148.106 141.735 147.794 141.459 147.566C141.183 147.338 140.757 147.128 140.181 146.936L139.443 146.648C138.963 146.48 138.543 146.288 138.183 146.072C137.835 145.844 137.565 145.574 137.373 145.262C137.193 144.95 137.103 144.584 137.103 144.164C137.103 143.708 137.223 143.288 137.463 142.904C137.715 142.52 138.081 142.214 138.561 141.986C139.053 141.746 139.635 141.626 140.307 141.626C140.811 141.626 141.273 141.686 141.693 141.806C142.125 141.926 142.527 142.1 142.899 142.328L142.845 144.236H141.873L141.495 142.346H142.179V143.12C141.891 142.904 141.591 142.742 141.279 142.634C140.967 142.526 140.643 142.472 140.307 142.472C139.731 142.472 139.299 142.586 139.011 142.814C138.723 143.042 138.579 143.342 138.579 143.714C138.579 144.098 138.705 144.398 138.957 144.614C139.209 144.818 139.641 145.028 140.253 145.244L140.793 145.442C141.405 145.646 141.903 145.886 142.287 146.162C142.671 146.426 142.947 146.72 143.115 147.044C143.295 147.356 143.385 147.716 143.385 148.124C143.385 148.592 143.247 149.024 142.971 149.42C142.707 149.816 142.311 150.134 141.783 150.374C141.267 150.614 140.619 150.734 139.839 150.734ZM146.649 142.832V141.842H149.907V142.832H146.649ZM147.981 150.716C147.333 150.716 146.817 150.542 146.433 150.194C146.049 149.846 145.857 149.312 145.857 148.592C145.857 148.364 145.857 148.142 145.857 147.926C145.869 147.71 145.875 147.44 145.875 147.116V142.832H144.345V142.022L146.613 141.752L145.893 142.328L146.469 139.394H147.567L147.405 142.292L147.441 142.598V148.394C147.441 148.862 147.531 149.204 147.711 149.42C147.903 149.624 148.155 149.726 148.467 149.726C148.683 149.726 148.881 149.684 149.061 149.6C149.253 149.516 149.457 149.408 149.673 149.276L150.087 149.816C149.943 149.996 149.763 150.158 149.547 150.302C149.343 150.434 149.109 150.536 148.845 150.608C148.581 150.68 148.293 150.716 147.981 150.716ZM152.876 150.734C152.516 150.734 152.21 150.608 151.958 150.356C151.718 150.104 151.598 149.804 151.598 149.456C151.598 149.096 151.718 148.79 151.958 148.538C152.21 148.286 152.516 148.16 152.876 148.16C153.236 148.16 153.542 148.286 153.794 148.538C154.046 148.79 154.172 149.096 154.172 149.456C154.172 149.804 154.046 150.104 153.794 150.356C153.542 150.608 153.236 150.734 152.876 150.734ZM152.876 144.578C152.516 144.578 152.21 144.452 151.958 144.2C151.718 143.948 151.598 143.648 151.598 143.3C151.598 142.94 151.718 142.634 151.958 142.382C152.21 142.13 152.516 142.004 152.876 142.004C153.236 142.004 153.542 142.13 153.794 142.382C154.046 142.634 154.172 142.94 154.172 143.3C154.172 143.648 154.046 143.948 153.794 144.2C153.542 144.452 153.236 144.578 152.876 144.578ZM168.971 154.406C168.203 154.406 167.543 154.232 166.991 153.884C166.451 153.548 166.037 153.086 165.749 152.498C165.473 151.922 165.335 151.292 165.335 150.608V150.194H167.063C167.027 150.878 167.105 151.454 167.297 151.922C167.489 152.39 167.783 152.744 168.179 152.984C168.575 153.224 169.049 153.344 169.601 153.344C169.805 153.344 170.027 153.326 170.267 153.29C170.507 153.254 170.759 153.2 171.023 153.128L171.221 153.83C170.933 154.01 170.585 154.148 170.177 154.244C169.781 154.352 169.379 154.406 168.971 154.406ZM166.271 150.77C165.539 150.77 164.837 150.632 164.165 150.356C163.493 150.08 162.893 149.678 162.365 149.15C161.837 148.622 161.417 147.968 161.105 147.188C160.805 146.396 160.655 145.496 160.655 144.488C160.655 143.504 160.805 142.622 161.105 141.842C161.417 141.062 161.837 140.402 162.365 139.862C162.893 139.31 163.493 138.89 164.165 138.602C164.837 138.314 165.539 138.17 166.271 138.17C167.003 138.17 167.699 138.308 168.359 138.584C169.031 138.848 169.631 139.25 170.159 139.79C170.687 140.33 171.101 140.99 171.401 141.77C171.713 142.538 171.869 143.432 171.869 144.452C171.869 145.436 171.719 146.318 171.419 147.098C171.119 147.878 170.705 148.544 170.177 149.096C169.649 149.636 169.049 150.05 168.377 150.338C167.705 150.626 167.003 150.77 166.271 150.77ZM166.271 149.834C166.907 149.834 167.453 149.684 167.909 149.384C168.365 149.084 168.737 148.682 169.025 148.178C169.325 147.674 169.541 147.104 169.673 146.468C169.817 145.832 169.889 145.166 169.889 144.47C169.889 143.786 169.817 143.126 169.673 142.49C169.541 141.842 169.325 141.266 169.025 140.762C168.737 140.258 168.365 139.856 167.909 139.556C167.453 139.256 166.907 139.106 166.271 139.106C165.647 139.106 165.101 139.256 164.633 139.556C164.177 139.856 163.799 140.258 163.499 140.762C163.211 141.266 162.995 141.842 162.851 142.49C162.707 143.126 162.635 143.786 162.635 144.47C162.635 145.166 162.707 145.832 162.851 146.468C162.995 147.104 163.211 147.674 163.499 148.178C163.799 148.682 164.177 149.084 164.633 149.384C165.101 149.684 165.647 149.834 166.271 149.834ZM176.851 150.734C176.083 150.734 175.483 150.488 175.051 149.996C174.631 149.504 174.427 148.682 174.439 147.53L174.475 142.634L174.907 143.084L173.125 142.706V142.022L175.789 141.752L176.059 141.914L175.987 144.182V147.314C175.987 148.082 176.107 148.628 176.347 148.952C176.587 149.264 176.959 149.42 177.463 149.42C177.763 149.42 178.069 149.372 178.381 149.276C178.693 149.168 179.005 149.012 179.317 148.808C179.629 148.604 179.935 148.358 180.235 148.07L180.469 148.862H180.109C179.809 149.27 179.479 149.618 179.119 149.906C178.771 150.182 178.405 150.386 178.021 150.518C177.637 150.662 177.247 150.734 176.851 150.734ZM180.271 150.644L180.055 148.574L180.019 148.538L180.073 142.976L178.723 142.706V142.022L181.351 141.752L181.621 141.914L181.567 144.182V149.546L182.863 149.798V150.5L180.271 150.644ZM184.135 150.5V149.78L186.115 149.474H186.565L188.419 149.78V150.5H184.135ZM185.485 150.5C185.497 150.2 185.503 149.828 185.503 149.384C185.515 148.928 185.521 148.46 185.521 147.98C185.533 147.5 185.539 147.068 185.539 146.684V145.82C185.539 145.34 185.533 144.926 185.521 144.578C185.521 144.23 185.509 143.87 185.485 143.498L184.045 143.372V142.688L186.799 141.662L187.141 141.806L187.087 144.164V146.684C187.087 147.068 187.087 147.5 187.087 147.98C187.099 148.46 187.105 148.928 187.105 149.384C187.117 149.828 187.129 150.2 187.141 150.5H185.485ZM186.223 139.844C185.887 139.844 185.599 139.736 185.359 139.52C185.131 139.292 185.017 139.01 185.017 138.674C185.017 138.338 185.131 138.062 185.359 137.846C185.599 137.618 185.887 137.504 186.223 137.504C186.571 137.504 186.859 137.618 187.087 137.846C187.327 138.062 187.447 138.338 187.447 138.674C187.447 139.01 187.327 139.292 187.087 139.52C186.859 139.736 186.571 139.844 186.223 139.844ZM194.046 150.734C193.182 150.734 192.432 150.56 191.796 150.212C191.172 149.852 190.686 149.342 190.338 148.682C190.002 148.01 189.834 147.212 189.834 146.288C189.834 145.352 190.014 144.536 190.374 143.84C190.746 143.144 191.244 142.604 191.868 142.22C192.504 141.824 193.206 141.626 193.974 141.626C194.646 141.626 195.24 141.764 195.756 142.04C196.272 142.316 196.68 142.712 196.98 143.228C197.28 143.744 197.43 144.368 197.43 145.1C197.43 145.316 197.418 145.52 197.394 145.712C197.37 145.892 197.34 146.048 197.304 146.18H190.608V145.388H194.928C195.348 145.364 195.618 145.268 195.738 145.1C195.858 144.92 195.918 144.71 195.918 144.47C195.918 144.038 195.84 143.678 195.684 143.39C195.528 143.09 195.306 142.868 195.018 142.724C194.73 142.568 194.382 142.49 193.974 142.49C193.554 142.49 193.146 142.61 192.75 142.85C192.366 143.09 192.054 143.474 191.814 144.002C191.574 144.518 191.454 145.208 191.454 146.072C191.454 146.816 191.574 147.446 191.814 147.962C192.054 148.478 192.396 148.874 192.84 149.15C193.296 149.414 193.83 149.546 194.442 149.546C195.03 149.546 195.534 149.444 195.954 149.24C196.386 149.036 196.782 148.736 197.142 148.34L197.574 148.7C197.322 149.096 197.04 149.45 196.728 149.762C196.416 150.074 196.044 150.314 195.612 150.482C195.192 150.65 194.67 150.734 194.046 150.734ZM200.842 142.832V141.842H204.1V142.832H200.842ZM202.174 150.716C201.526 150.716 201.01 150.542 200.626 150.194C200.242 149.846 200.05 149.312 200.05 148.592C200.05 148.364 200.05 148.142 200.05 147.926C200.062 147.71 200.068 147.44 200.068 147.116V142.832H198.538V142.022L200.806 141.752L200.086 142.328L200.662 139.394H201.76L201.598 142.292L201.634 142.598V148.394C201.634 148.862 201.724 149.204 201.904 149.42C202.096 149.624 202.348 149.726 202.66 149.726C202.876 149.726 203.074 149.684 203.254 149.6C203.446 149.516 203.65 149.408 203.866 149.276L204.28 149.816C204.136 149.996 203.956 150.158 203.74 150.302C203.536 150.434 203.302 150.536 203.038 150.608C202.774 150.68 202.486 150.716 202.174 150.716ZM205.431 153.722L205.161 153.056C205.617 152.84 205.989 152.612 206.277 152.372C206.577 152.144 206.811 151.88 206.979 151.58C207.147 151.28 207.273 150.926 207.357 150.518L207.555 151.094L206.691 150.59C206.403 150.458 206.187 150.302 206.043 150.122C205.911 149.93 205.845 149.708 205.845 149.456C205.845 149.108 205.947 148.82 206.151 148.592C206.355 148.352 206.655 148.232 207.051 148.232C207.255 148.232 207.447 148.268 207.627 148.34C207.807 148.412 207.981 148.538 208.149 148.718C208.209 148.91 208.245 149.12 208.257 149.348C208.281 149.564 208.293 149.78 208.293 149.996C208.293 150.584 208.167 151.118 207.915 151.598C207.663 152.09 207.321 152.516 206.889 152.876C206.457 153.236 205.971 153.518 205.431 153.722ZM214.668 154.766V154.046L216.702 153.758H217.152L219.348 154.046V154.766H214.668ZM216.108 154.766C216.12 154.346 216.126 153.932 216.126 153.524C216.138 153.116 216.144 152.702 216.144 152.282C216.156 151.874 216.162 151.466 216.162 151.058V145.802C216.162 145.478 216.156 145.19 216.144 144.938C216.144 144.686 216.138 144.446 216.126 144.218C216.126 143.99 216.12 143.75 216.108 143.498L214.668 143.372V142.688L217.116 141.662L217.458 141.806L217.638 143.372L217.71 143.426V149.042L217.656 149.132L217.674 151.094C217.674 151.49 217.674 151.892 217.674 152.3C217.686 152.72 217.692 153.134 217.692 153.542C217.704 153.95 217.71 154.358 217.71 154.766H216.108ZM220.176 150.734C219.828 150.734 219.492 150.674 219.168 150.554C218.844 150.446 218.532 150.266 218.232 150.014C217.944 149.75 217.668 149.408 217.404 148.988H216.936L217.062 147.926C217.53 148.538 217.98 148.982 218.412 149.258C218.856 149.534 219.312 149.672 219.78 149.672C220.248 149.672 220.662 149.552 221.022 149.312C221.394 149.072 221.688 148.7 221.904 148.196C222.132 147.692 222.246 147.05 222.246 146.27C222.246 145.106 222.03 144.218 221.598 143.606C221.166 142.994 220.62 142.688 219.96 142.688C219.696 142.688 219.414 142.742 219.114 142.85C218.826 142.958 218.514 143.138 218.178 143.39C217.842 143.63 217.464 143.96 217.044 144.38L216.918 143.408H217.404C217.704 143.012 218.01 142.682 218.322 142.418C218.634 142.154 218.964 141.956 219.312 141.824C219.66 141.692 220.026 141.626 220.41 141.626C221.07 141.626 221.664 141.806 222.192 142.166C222.72 142.526 223.134 143.042 223.434 143.714C223.746 144.386 223.902 145.196 223.902 146.144C223.902 147.092 223.74 147.908 223.416 148.592C223.092 149.276 222.648 149.804 222.084 150.176C221.532 150.548 220.896 150.734 220.176 150.734ZM227.983 150.752C227.311 150.752 226.735 150.56 226.255 150.176C225.787 149.78 225.553 149.21 225.553 148.466C225.553 148.082 225.631 147.734 225.787 147.422C225.955 147.098 226.249 146.798 226.669 146.522C227.101 146.246 227.713 145.994 228.505 145.766C228.841 145.658 229.165 145.562 229.477 145.478C229.801 145.382 230.119 145.292 230.431 145.208C230.755 145.112 231.079 145.022 231.403 144.938V145.604C230.983 145.736 230.569 145.868 230.161 146C229.753 146.132 229.345 146.264 228.937 146.396C228.421 146.564 228.037 146.75 227.785 146.954C227.533 147.146 227.365 147.35 227.281 147.566C227.209 147.77 227.173 147.98 227.173 148.196C227.173 148.652 227.311 148.988 227.587 149.204C227.863 149.42 228.211 149.528 228.631 149.528C228.871 149.528 229.093 149.492 229.297 149.42C229.501 149.336 229.741 149.198 230.017 149.006C230.305 148.802 230.671 148.526 231.115 148.178L231.331 149.114H230.755C230.431 149.462 230.131 149.756 229.855 149.996C229.591 150.236 229.309 150.422 229.009 150.554C228.721 150.686 228.379 150.752 227.983 150.752ZM232.375 150.68C231.871 150.68 231.463 150.518 231.151 150.194C230.851 149.858 230.695 149.396 230.683 148.808V148.736V144.668C230.683 144.092 230.623 143.648 230.503 143.336C230.383 143.012 230.191 142.79 229.927 142.67C229.663 142.538 229.327 142.472 228.919 142.472C228.679 142.472 228.421 142.496 228.145 142.544C227.881 142.592 227.587 142.682 227.263 142.814L228.001 142.184L227.605 143.75C227.533 144.05 227.419 144.278 227.263 144.434C227.107 144.59 226.903 144.668 226.651 144.668C226.387 144.668 226.183 144.602 226.039 144.47C225.895 144.326 225.805 144.146 225.769 143.93C225.937 143.222 226.339 142.664 226.975 142.256C227.623 141.836 228.415 141.626 229.351 141.626C229.987 141.626 230.515 141.728 230.935 141.932C231.355 142.136 231.673 142.466 231.889 142.922C232.117 143.378 232.231 143.984 232.231 144.74V148.628C232.231 149.012 232.291 149.288 232.411 149.456C232.531 149.612 232.699 149.69 232.915 149.69C233.071 149.69 233.203 149.66 233.311 149.6C233.419 149.528 233.521 149.438 233.617 149.33L233.959 149.816C233.755 150.116 233.521 150.338 233.257 150.482C233.005 150.614 232.711 150.68 232.375 150.68ZM236.596 142.832V141.842H239.854V142.832H236.596ZM237.928 150.716C237.28 150.716 236.764 150.542 236.38 150.194C235.996 149.846 235.804 149.312 235.804 148.592C235.804 148.364 235.804 148.142 235.804 147.926C235.816 147.71 235.822 147.44 235.822 147.116V142.832H234.292V142.022L236.56 141.752L235.84 142.328L236.416 139.394H237.514L237.352 142.292L237.388 142.598V148.394C237.388 148.862 237.478 149.204 237.658 149.42C237.85 149.624 238.102 149.726 238.414 149.726C238.63 149.726 238.828 149.684 239.008 149.6C239.2 149.516 239.404 149.408 239.62 149.276L240.034 149.816C239.89 149.996 239.71 150.158 239.494 150.302C239.29 150.434 239.056 150.536 238.792 150.608C238.528 150.68 238.24 150.716 237.928 150.716ZM240.789 150.5V149.78L242.769 149.474H243.219L245.073 149.78V150.5H240.789ZM242.139 150.5C242.151 150.2 242.157 149.828 242.157 149.384C242.169 148.928 242.175 148.46 242.175 147.98C242.187 147.5 242.193 147.068 242.193 146.684V145.82C242.193 145.34 242.187 144.926 242.175 144.578C242.175 144.23 242.163 143.87 242.139 143.498L240.699 143.372V142.688L243.453 141.662L243.795 141.806L243.741 144.164V146.684C243.741 147.068 243.741 147.5 243.741 147.98C243.753 148.46 243.759 148.928 243.759 149.384C243.771 149.828 243.783 150.2 243.795 150.5H242.139ZM242.877 139.844C242.541 139.844 242.253 139.736 242.013 139.52C241.785 139.292 241.671 139.01 241.671 138.674C241.671 138.338 241.785 138.062 242.013 137.846C242.253 137.618 242.541 137.504 242.877 137.504C243.225 137.504 243.513 137.618 243.741 137.846C243.981 138.062 244.101 138.338 244.101 138.674C244.101 139.01 243.981 139.292 243.741 139.52C243.513 139.736 243.225 139.844 242.877 139.844ZM250.7 150.734C249.836 150.734 249.086 150.56 248.45 150.212C247.826 149.852 247.34 149.342 246.992 148.682C246.656 148.01 246.488 147.212 246.488 146.288C246.488 145.352 246.668 144.536 247.028 143.84C247.4 143.144 247.898 142.604 248.522 142.22C249.158 141.824 249.86 141.626 250.628 141.626C251.3 141.626 251.894 141.764 252.41 142.04C252.926 142.316 253.334 142.712 253.634 143.228C253.934 143.744 254.084 144.368 254.084 145.1C254.084 145.316 254.072 145.52 254.048 145.712C254.024 145.892 253.994 146.048 253.958 146.18H247.262V145.388H251.582C252.002 145.364 252.272 145.268 252.392 145.1C252.512 144.92 252.572 144.71 252.572 144.47C252.572 144.038 252.494 143.678 252.338 143.39C252.182 143.09 251.96 142.868 251.672 142.724C251.384 142.568 251.036 142.49 250.628 142.49C250.208 142.49 249.8 142.61 249.404 142.85C249.02 143.09 248.708 143.474 248.468 144.002C248.228 144.518 248.108 145.208 248.108 146.072C248.108 146.816 248.228 147.446 248.468 147.962C248.708 148.478 249.05 148.874 249.494 149.15C249.95 149.414 250.484 149.546 251.096 149.546C251.684 149.546 252.188 149.444 252.608 149.24C253.04 149.036 253.436 148.736 253.796 148.34L254.228 148.7C253.976 149.096 253.694 149.45 253.382 149.762C253.07 150.074 252.698 150.314 252.266 150.482C251.846 150.65 251.324 150.734 250.7 150.734ZM255.715 150.5V149.78L257.695 149.474H258.127L259.963 149.78V150.5H255.715ZM257.065 150.5C257.065 150.2 257.065 149.828 257.065 149.384C257.077 148.928 257.083 148.46 257.083 147.98C257.095 147.5 257.101 147.068 257.101 146.684V145.802C257.101 145.478 257.095 145.19 257.083 144.938C257.083 144.686 257.077 144.446 257.065 144.218C257.065 143.99 257.065 143.75 257.065 143.498L255.607 143.372V142.688L258.073 141.662L258.415 141.806L258.649 143.84L258.667 143.858V146.684C258.667 147.068 258.667 147.5 258.667 147.98C258.679 148.46 258.685 148.928 258.685 149.384C258.697 149.828 258.703 150.2 258.703 150.5H257.065ZM261.313 150.5V149.78L263.293 149.474H263.725L265.579 149.78V150.5H261.313ZM262.645 150.5C262.657 150.2 262.663 149.828 262.663 149.384C262.675 148.94 262.681 148.478 262.681 147.998C262.693 147.518 262.699 147.08 262.699 146.684V145.082C262.699 144.278 262.579 143.726 262.339 143.426C262.099 143.114 261.709 142.958 261.169 142.958C260.881 142.958 260.593 143 260.305 143.084C260.017 143.168 259.723 143.3 259.423 143.48C259.123 143.66 258.805 143.894 258.469 144.182L258.271 143.48H258.505C258.793 143.12 259.117 142.802 259.477 142.526C259.837 142.25 260.221 142.034 260.629 141.878C261.037 141.71 261.445 141.626 261.853 141.626C262.657 141.626 263.257 141.89 263.653 142.418C264.049 142.934 264.247 143.762 264.247 144.902V146.684C264.247 147.08 264.247 147.518 264.247 147.998C264.259 148.478 264.265 148.94 264.265 149.384C264.265 149.828 264.271 150.2 264.283 150.5H262.645ZM268.536 142.832V141.842H271.794V142.832H268.536ZM269.868 150.716C269.22 150.716 268.704 150.542 268.32 150.194C267.936 149.846 267.744 149.312 267.744 148.592C267.744 148.364 267.744 148.142 267.744 147.926C267.756 147.71 267.762 147.44 267.762 147.116V142.832H266.232V142.022L268.5 141.752L267.78 142.328L268.356 139.394H269.454L269.292 142.292L269.328 142.598V148.394C269.328 148.862 269.418 149.204 269.598 149.42C269.79 149.624 270.042 149.726 270.354 149.726C270.57 149.726 270.768 149.684 270.948 149.6C271.14 149.516 271.344 149.408 271.56 149.276L271.974 149.816C271.83 149.996 271.65 150.158 271.434 150.302C271.23 150.434 270.996 150.536 270.732 150.608C270.468 150.68 270.18 150.716 269.868 150.716ZM273.125 153.722L272.855 153.056C273.311 152.84 273.683 152.612 273.971 152.372C274.271 152.144 274.505 151.88 274.673 151.58C274.841 151.28 274.967 150.926 275.051 150.518L275.249 151.094L274.385 150.59C274.097 150.458 273.881 150.302 273.737 150.122C273.605 149.93 273.539 149.708 273.539 149.456C273.539 149.108 273.641 148.82 273.845 148.592C274.049 148.352 274.349 148.232 274.745 148.232C274.949 148.232 275.141 148.268 275.321 148.34C275.501 148.412 275.675 148.538 275.843 148.718C275.903 148.91 275.939 149.12 275.951 149.348C275.975 149.564 275.987 149.78 275.987 149.996C275.987 150.584 275.861 151.118 275.609 151.598C275.357 152.09 275.015 152.516 274.583 152.876C274.151 153.236 273.665 153.518 273.125 153.722ZM284.953 150.752C284.281 150.752 283.705 150.56 283.225 150.176C282.757 149.78 282.523 149.21 282.523 148.466C282.523 148.082 282.601 147.734 282.757 147.422C282.925 147.098 283.219 146.798 283.639 146.522C284.071 146.246 284.683 145.994 285.475 145.766C285.811 145.658 286.135 145.562 286.447 145.478C286.771 145.382 287.089 145.292 287.401 145.208C287.725 145.112 288.049 145.022 288.373 144.938V145.604C287.953 145.736 287.539 145.868 287.131 146C286.723 146.132 286.315 146.264 285.907 146.396C285.391 146.564 285.007 146.75 284.755 146.954C284.503 147.146 284.335 147.35 284.251 147.566C284.179 147.77 284.143 147.98 284.143 148.196C284.143 148.652 284.281 148.988 284.557 149.204C284.833 149.42 285.181 149.528 285.601 149.528C285.841 149.528 286.063 149.492 286.267 149.42C286.471 149.336 286.711 149.198 286.987 149.006C287.275 148.802 287.641 148.526 288.085 148.178L288.301 149.114H287.725C287.401 149.462 287.101 149.756 286.825 149.996C286.561 150.236 286.279 150.422 285.979 150.554C285.691 150.686 285.349 150.752 284.953 150.752ZM289.345 150.68C288.841 150.68 288.433 150.518 288.121 150.194C287.821 149.858 287.665 149.396 287.653 148.808V148.736V144.668C287.653 144.092 287.593 143.648 287.473 143.336C287.353 143.012 287.161 142.79 286.897 142.67C286.633 142.538 286.297 142.472 285.889 142.472C285.649 142.472 285.391 142.496 285.115 142.544C284.851 142.592 284.557 142.682 284.233 142.814L284.971 142.184L284.575 143.75C284.503 144.05 284.389 144.278 284.233 144.434C284.077 144.59 283.873 144.668 283.621 144.668C283.357 144.668 283.153 144.602 283.009 144.47C282.865 144.326 282.775 144.146 282.739 143.93C282.907 143.222 283.309 142.664 283.945 142.256C284.593 141.836 285.385 141.626 286.321 141.626C286.957 141.626 287.485 141.728 287.905 141.932C288.325 142.136 288.643 142.466 288.859 142.922C289.087 143.378 289.201 143.984 289.201 144.74V148.628C289.201 149.012 289.261 149.288 289.381 149.456C289.501 149.612 289.669 149.69 289.885 149.69C290.041 149.69 290.173 149.66 290.281 149.6C290.389 149.528 290.491 149.438 290.587 149.33L290.929 149.816C290.725 150.116 290.491 150.338 290.227 150.482C289.975 150.614 289.681 150.68 289.345 150.68ZM291.715 150.5V149.78L293.695 149.474H294.127L295.963 149.78V150.5H291.715ZM293.065 150.5C293.065 150.2 293.065 149.828 293.065 149.384C293.077 148.928 293.083 148.46 293.083 147.98C293.095 147.5 293.101 147.068 293.101 146.684V145.802C293.101 145.478 293.095 145.19 293.083 144.938C293.083 144.686 293.077 144.446 293.065 144.218C293.065 143.99 293.065 143.75 293.065 143.498L291.607 143.372V142.688L294.073 141.662L294.415 141.806L294.649 143.84L294.667 143.858V146.684C294.667 147.068 294.667 147.5 294.667 147.98C294.679 148.46 294.685 148.928 294.685 149.384C294.697 149.828 294.703 150.2 294.703 150.5H293.065ZM297.313 150.5V149.78L299.293 149.474H299.725L301.579 149.78V150.5H297.313ZM298.645 150.5C298.657 150.2 298.663 149.828 298.663 149.384C298.675 148.94 298.681 148.478 298.681 147.998C298.693 147.518 298.699 147.08 298.699 146.684V145.082C298.699 144.278 298.579 143.726 298.339 143.426C298.099 143.114 297.709 142.958 297.169 142.958C296.881 142.958 296.593 143 296.305 143.084C296.017 143.168 295.723 143.3 295.423 143.48C295.123 143.66 294.805 143.894 294.469 144.182L294.271 143.48H294.505C294.793 143.12 295.117 142.802 295.477 142.526C295.837 142.25 296.221 142.034 296.629 141.878C297.037 141.71 297.445 141.626 297.853 141.626C298.657 141.626 299.257 141.89 299.653 142.418C300.049 142.934 300.247 143.762 300.247 144.902V146.684C300.247 147.08 300.247 147.518 300.247 147.998C300.259 148.478 300.265 148.94 300.265 149.384C300.265 149.828 300.271 150.2 300.283 150.5H298.645ZM306.622 150.734C305.89 150.734 305.242 150.548 304.678 150.176C304.126 149.804 303.694 149.282 303.382 148.61C303.082 147.938 302.932 147.152 302.932 146.252C302.932 145.304 303.1 144.488 303.436 143.804C303.772 143.108 304.228 142.574 304.804 142.202C305.38 141.818 306.028 141.626 306.748 141.626C307.096 141.626 307.42 141.68 307.72 141.788C308.02 141.884 308.302 142.046 308.566 142.274C308.842 142.49 309.106 142.778 309.358 143.138H309.754L309.61 144.128C309.094 143.588 308.638 143.21 308.242 142.994C307.858 142.778 307.468 142.67 307.072 142.67C306.628 142.67 306.214 142.796 305.83 143.048C305.458 143.288 305.158 143.672 304.93 144.2C304.702 144.716 304.588 145.382 304.588 146.198C304.588 146.99 304.696 147.644 304.912 148.16C305.128 148.664 305.422 149.042 305.794 149.294C306.178 149.534 306.61 149.654 307.09 149.654C307.582 149.654 308.014 149.534 308.386 149.294C308.758 149.042 309.154 148.64 309.574 148.088L309.7 149.06H309.358C309.154 149.396 308.92 149.69 308.656 149.942C308.392 150.194 308.092 150.386 307.756 150.518C307.432 150.662 307.054 150.734 306.622 150.734ZM309.376 150.662L309.196 148.808V148.772V143.516L309.25 143.318L309.232 138.854L307.684 138.638V137.954L310.474 137.216L310.798 137.324L310.744 139.808V149.564L312.202 149.798V150.5L309.376 150.662ZM317.338 150.5V149.78L319.372 149.474H319.804L321.856 149.78V150.5H317.338ZM318.778 150.5C318.79 150.08 318.796 149.66 318.796 149.24C318.796 148.808 318.796 148.382 318.796 147.962C318.808 147.53 318.814 147.104 318.814 146.684V138.854L317.32 138.638V137.954L320.092 137.216L320.434 137.324L320.362 139.808V146.684C320.362 147.104 320.362 147.53 320.362 147.962C320.374 148.382 320.38 148.808 320.38 149.24C320.392 149.66 320.404 150.08 320.416 150.5H318.778ZM327.376 150.734C326.656 150.734 325.972 150.566 325.324 150.23C324.688 149.894 324.172 149.39 323.776 148.718C323.38 148.034 323.182 147.2 323.182 146.216C323.182 145.22 323.38 144.38 323.776 143.696C324.172 143.012 324.688 142.496 325.324 142.148C325.972 141.8 326.656 141.626 327.376 141.626C328.096 141.626 328.774 141.8 329.41 142.148C330.058 142.484 330.58 142.994 330.976 143.678C331.384 144.362 331.588 145.202 331.588 146.198C331.588 147.182 331.384 148.016 330.976 148.7C330.58 149.372 330.058 149.882 329.41 150.23C328.774 150.566 328.096 150.734 327.376 150.734ZM327.376 149.87C327.904 149.87 328.348 149.732 328.708 149.456C329.08 149.18 329.362 148.772 329.554 148.232C329.758 147.692 329.86 147.02 329.86 146.216C329.86 145.4 329.758 144.716 329.554 144.164C329.362 143.612 329.08 143.198 328.708 142.922C328.348 142.634 327.904 142.49 327.376 142.49C326.848 142.49 326.398 142.634 326.026 142.922C325.666 143.198 325.39 143.612 325.198 144.164C325.006 144.704 324.91 145.382 324.91 146.198C324.91 147.014 325.006 147.692 325.198 148.232C325.39 148.772 325.666 149.18 326.026 149.456C326.398 149.732 326.848 149.87 327.376 149.87ZM336.368 150.59L333.218 141.842H334.946L337.268 149.006H336.98L337.178 148.196L339.464 141.842H340.202L342.74 148.988H342.47L342.65 148.178L344.594 141.842H345.692L342.686 150.59H341.84L339.41 143.714H339.698L339.518 144.362L337.232 150.59H336.368ZM332.48 142.598V141.842H336.656V142.598L334.694 142.886H334.244L332.48 142.598ZM337.808 142.598V141.842H341.876V142.598L340.184 142.868H339.644L337.808 142.598ZM342.974 142.598V141.842H346.376V142.598L345.062 142.886H344.63L342.974 142.598ZM347.12 146.594V145.37H351.35V146.594H347.12ZM352.6 150.5V149.78L354.634 149.474H355.066L357.118 149.78V150.5H352.6ZM354.04 150.5C354.052 150.188 354.058 149.876 354.058 149.564C354.058 149.24 354.058 148.922 354.058 148.61C354.07 148.286 354.076 147.962 354.076 147.638C354.076 147.314 354.076 146.996 354.076 146.684V138.854L352.582 138.638V137.954L355.354 137.216L355.696 137.324L355.624 139.808V146.684C355.624 146.996 355.624 147.314 355.624 147.638C355.624 147.962 355.624 148.286 355.624 148.61C355.636 148.922 355.642 149.24 355.642 149.564C355.654 149.876 355.666 150.188 355.678 150.5H354.04ZM354.886 147.98V146.774H355.084L357.442 144.29L359.8 141.842H360.988L354.886 147.98ZM359.638 150.5L356.65 145.676L357.73 144.578L360.916 149.582L362.14 149.798V150.5H359.638ZM357.388 142.598V141.842H361.708V142.598L359.638 142.886L359.152 142.976L357.388 142.598ZM366.909 150.734C366.045 150.734 365.295 150.56 364.659 150.212C364.035 149.852 363.549 149.342 363.201 148.682C362.865 148.01 362.697 147.212 362.697 146.288C362.697 145.352 362.877 144.536 363.237 143.84C363.609 143.144 364.107 142.604 364.731 142.22C365.367 141.824 366.069 141.626 366.837 141.626C367.509 141.626 368.103 141.764 368.619 142.04C369.135 142.316 369.543 142.712 369.843 143.228C370.143 143.744 370.293 144.368 370.293 145.1C370.293 145.316 370.281 145.52 370.257 145.712C370.233 145.892 370.203 146.048 370.167 146.18H363.471V145.388H367.791C368.211 145.364 368.481 145.268 368.601 145.1C368.721 144.92 368.781 144.71 368.781 144.47C368.781 144.038 368.703 143.678 368.547 143.39C368.391 143.09 368.169 142.868 367.881 142.724C367.593 142.568 367.245 142.49 366.837 142.49C366.417 142.49 366.009 142.61 365.613 142.85C365.229 143.09 364.917 143.474 364.677 144.002C364.437 144.518 364.317 145.208 364.317 146.072C364.317 146.816 364.437 147.446 364.677 147.962C364.917 148.478 365.259 148.874 365.703 149.15C366.159 149.414 366.693 149.546 367.305 149.546C367.893 149.546 368.397 149.444 368.817 149.24C369.249 149.036 369.645 148.736 370.005 148.34L370.437 148.7C370.185 149.096 369.903 149.45 369.591 149.762C369.279 150.074 368.907 150.314 368.475 150.482C368.055 150.65 367.533 150.734 366.909 150.734ZM372.756 154.964C372.432 154.964 372.138 154.91 371.874 154.802C371.622 154.706 371.418 154.562 371.262 154.37C371.118 154.19 371.04 153.992 371.028 153.776C371.088 153.524 371.232 153.326 371.46 153.182C371.688 153.05 371.946 152.984 372.234 152.984C372.498 152.984 372.732 153.038 372.936 153.146C373.14 153.254 373.362 153.428 373.602 153.668L374.142 154.226L373.494 154.55L373.206 154.208C373.578 154.004 373.902 153.746 374.178 153.434C374.466 153.122 374.718 152.768 374.934 152.372C375.15 151.976 375.336 151.568 375.492 151.148L375.78 150.356L375.924 150.248L377.472 145.712L378.858 141.842H379.92L376.608 150.5C376.212 151.532 375.822 152.378 375.438 153.038C375.054 153.698 374.646 154.184 374.214 154.496C373.782 154.808 373.296 154.964 372.756 154.964ZM375.69 151.544L371.838 141.842H373.62L376.356 149.312L376.572 149.618L375.69 151.544ZM371.136 142.562V141.842H375.564V142.58L373.422 142.814H372.918L371.136 142.562ZM376.968 142.562V141.842H380.604V142.562L379.254 142.814H378.84L376.968 142.562ZM385.562 154.766V154.046L387.596 153.758H388.046L390.242 154.046V154.766H385.562ZM387.002 154.766C387.014 154.346 387.02 153.932 387.02 153.524C387.032 153.116 387.038 152.702 387.038 152.282C387.05 151.874 387.056 151.466 387.056 151.058V145.802C387.056 145.478 387.05 145.19 387.038 144.938C387.038 144.686 387.032 144.446 387.02 144.218C387.02 143.99 387.014 143.75 387.002 143.498L385.562 143.372V142.688L388.01 141.662L388.352 141.806L388.532 143.372L388.604 143.426V149.042L388.55 149.132L388.568 151.094C388.568 151.49 388.568 151.892 388.568 152.3C388.58 152.72 388.586 153.134 388.586 153.542C388.598 153.95 388.604 154.358 388.604 154.766H387.002ZM391.07 150.734C390.722 150.734 390.386 150.674 390.062 150.554C389.738 150.446 389.426 150.266 389.126 150.014C388.838 149.75 388.562 149.408 388.298 148.988H387.83L387.956 147.926C388.424 148.538 388.874 148.982 389.306 149.258C389.75 149.534 390.206 149.672 390.674 149.672C391.142 149.672 391.556 149.552 391.916 149.312C392.288 149.072 392.582 148.7 392.798 148.196C393.026 147.692 393.14 147.05 393.14 146.27C393.14 145.106 392.924 144.218 392.492 143.606C392.06 142.994 391.514 142.688 390.854 142.688C390.59 142.688 390.308 142.742 390.008 142.85C389.72 142.958 389.408 143.138 389.072 143.39C388.736 143.63 388.358 143.96 387.938 144.38L387.812 143.408H388.298C388.598 143.012 388.904 142.682 389.216 142.418C389.528 142.154 389.858 141.956 390.206 141.824C390.554 141.692 390.92 141.626 391.304 141.626C391.964 141.626 392.558 141.806 393.086 142.166C393.614 142.526 394.028 143.042 394.328 143.714C394.64 144.386 394.796 145.196 394.796 146.144C394.796 147.092 394.634 147.908 394.31 148.592C393.986 149.276 393.542 149.804 392.978 150.176C392.426 150.548 391.79 150.734 391.07 150.734ZM400.659 150.734C399.795 150.734 399.045 150.56 398.409 150.212C397.785 149.852 397.299 149.342 396.951 148.682C396.615 148.01 396.447 147.212 396.447 146.288C396.447 145.352 396.627 144.536 396.987 143.84C397.359 143.144 397.857 142.604 398.481 142.22C399.117 141.824 399.819 141.626 400.587 141.626C401.259 141.626 401.853 141.764 402.369 142.04C402.885 142.316 403.293 142.712 403.593 143.228C403.893 143.744 404.043 144.368 404.043 145.1C404.043 145.316 404.031 145.52 404.007 145.712C403.983 145.892 403.953 146.048 403.917 146.18H397.221V145.388H401.541C401.961 145.364 402.231 145.268 402.351 145.1C402.471 144.92 402.531 144.71 402.531 144.47C402.531 144.038 402.453 143.678 402.297 143.39C402.141 143.09 401.919 142.868 401.631 142.724C401.343 142.568 400.995 142.49 400.587 142.49C400.167 142.49 399.759 142.61 399.363 142.85C398.979 143.09 398.667 143.474 398.427 144.002C398.187 144.518 398.067 145.208 398.067 146.072C398.067 146.816 398.187 147.446 398.427 147.962C398.667 148.478 399.009 148.874 399.453 149.15C399.909 149.414 400.443 149.546 401.055 149.546C401.643 149.546 402.147 149.444 402.567 149.24C402.999 149.036 403.395 148.736 403.755 148.34L404.187 148.7C403.935 149.096 403.653 149.45 403.341 149.762C403.029 150.074 402.657 150.314 402.225 150.482C401.805 150.65 401.283 150.734 400.659 150.734ZM405.71 150.5V149.78L407.69 149.474H408.158L410.228 149.78V150.5H405.71ZM407.024 150.5C407.036 150.2 407.042 149.828 407.042 149.384C407.054 148.928 407.06 148.46 407.06 147.98C407.072 147.5 407.078 147.068 407.078 146.684V145.802C407.078 145.478 407.072 145.19 407.06 144.938C407.06 144.686 407.054 144.446 407.042 144.218C407.042 143.99 407.036 143.75 407.024 143.498L405.584 143.372V142.688L408.05 141.662L408.392 141.806L408.608 144.128L408.644 144.146V146.684C408.644 147.068 408.644 147.5 408.644 147.98C408.644 148.46 408.644 148.928 408.644 149.384C408.656 149.828 408.668 150.2 408.68 150.5H407.024ZM408.554 145.478L408.338 144.218H408.59C408.794 143.678 409.034 143.216 409.31 142.832C409.586 142.448 409.892 142.154 410.228 141.95C410.564 141.734 410.906 141.626 411.254 141.626C411.566 141.626 411.836 141.698 412.064 141.842C412.304 141.974 412.478 142.142 412.586 142.346C412.574 142.754 412.478 143.078 412.298 143.318C412.13 143.558 411.86 143.678 411.488 143.678C411.26 143.678 411.056 143.636 410.876 143.552C410.696 143.468 410.522 143.354 410.354 143.21L409.904 142.778L410.804 142.652C410.228 142.94 409.76 143.324 409.4 143.804C409.052 144.272 408.77 144.83 408.554 145.478ZM416.308 150.734C415.768 150.734 415.276 150.674 414.832 150.554C414.388 150.446 413.95 150.284 413.518 150.068L413.446 148.016H414.472L414.94 150.176H414.148V149.24C414.448 149.456 414.778 149.618 415.138 149.726C415.498 149.834 415.894 149.888 416.326 149.888C416.794 149.888 417.178 149.828 417.478 149.708C417.778 149.588 417.994 149.426 418.126 149.222C418.27 149.006 418.342 148.766 418.342 148.502C418.342 148.106 418.204 147.794 417.928 147.566C417.652 147.338 417.226 147.128 416.65 146.936L415.912 146.648C415.432 146.48 415.012 146.288 414.652 146.072C414.304 145.844 414.034 145.574 413.842 145.262C413.662 144.95 413.572 144.584 413.572 144.164C413.572 143.708 413.692 143.288 413.932 142.904C414.184 142.52 414.55 142.214 415.03 141.986C415.522 141.746 416.104 141.626 416.776 141.626C417.28 141.626 417.742 141.686 418.162 141.806C418.594 141.926 418.996 142.1 419.368 142.328L419.314 144.236H418.342L417.964 142.346H418.648V143.12C418.36 142.904 418.06 142.742 417.748 142.634C417.436 142.526 417.112 142.472 416.776 142.472C416.2 142.472 415.768 142.586 415.48 142.814C415.192 143.042 415.048 143.342 415.048 143.714C415.048 144.098 415.174 144.398 415.426 144.614C415.678 144.818 416.11 145.028 416.722 145.244L417.262 145.442C417.874 145.646 418.372 145.886 418.756 146.162C419.14 146.426 419.416 146.72 419.584 147.044C419.764 147.356 419.854 147.716 419.854 148.124C419.854 148.592 419.716 149.024 419.44 149.42C419.176 149.816 418.78 150.134 418.252 150.374C417.736 150.614 417.088 150.734 416.308 150.734ZM424.738 150.734C423.97 150.734 423.37 150.488 422.938 149.996C422.518 149.504 422.314 148.682 422.326 147.53L422.362 142.634L422.794 143.084L421.012 142.706V142.022L423.676 141.752L423.946 141.914L423.874 144.182V147.314C423.874 148.082 423.994 148.628 424.234 148.952C424.474 149.264 424.846 149.42 425.35 149.42C425.65 149.42 425.956 149.372 426.268 149.276C426.58 149.168 426.892 149.012 427.204 148.808C427.516 148.604 427.822 148.358 428.122 148.07L428.356 148.862H427.996C427.696 149.27 427.366 149.618 427.006 149.906C426.658 150.182 426.292 150.386 425.908 150.518C425.524 150.662 425.134 150.734 424.738 150.734ZM428.158 150.644L427.942 148.574L427.906 148.538L427.96 142.976L426.61 142.706V142.022L429.238 141.752L429.508 141.914L429.454 144.182V149.546L430.75 149.798V150.5L428.158 150.644ZM434.613 150.752C433.941 150.752 433.365 150.56 432.885 150.176C432.417 149.78 432.183 149.21 432.183 148.466C432.183 148.082 432.261 147.734 432.417 147.422C432.585 147.098 432.879 146.798 433.299 146.522C433.731 146.246 434.343 145.994 435.135 145.766C435.471 145.658 435.795 145.562 436.107 145.478C436.431 145.382 436.749 145.292 437.061 145.208C437.385 145.112 437.709 145.022 438.033 144.938V145.604C437.613 145.736 437.199 145.868 436.791 146C436.383 146.132 435.975 146.264 435.567 146.396C435.051 146.564 434.667 146.75 434.415 146.954C434.163 147.146 433.995 147.35 433.911 147.566C433.839 147.77 433.803 147.98 433.803 148.196C433.803 148.652 433.941 148.988 434.217 149.204C434.493 149.42 434.841 149.528 435.261 149.528C435.501 149.528 435.723 149.492 435.927 149.42C436.131 149.336 436.371 149.198 436.647 149.006C436.935 148.802 437.301 148.526 437.745 148.178L437.961 149.114H437.385C437.061 149.462 436.761 149.756 436.485 149.996C436.221 150.236 435.939 150.422 435.639 150.554C435.351 150.686 435.009 150.752 434.613 150.752ZM439.005 150.68C438.501 150.68 438.093 150.518 437.781 150.194C437.481 149.858 437.325 149.396 437.313 148.808V148.736V144.668C437.313 144.092 437.253 143.648 437.133 143.336C437.013 143.012 436.821 142.79 436.557 142.67C436.293 142.538 435.957 142.472 435.549 142.472C435.309 142.472 435.051 142.496 434.775 142.544C434.511 142.592 434.217 142.682 433.893 142.814L434.631 142.184L434.235 143.75C434.163 144.05 434.049 144.278 433.893 144.434C433.737 144.59 433.533 144.668 433.281 144.668C433.017 144.668 432.813 144.602 432.669 144.47C432.525 144.326 432.435 144.146 432.399 143.93C432.567 143.222 432.969 142.664 433.605 142.256C434.253 141.836 435.045 141.626 435.981 141.626C436.617 141.626 437.145 141.728 437.565 141.932C437.985 142.136 438.303 142.466 438.519 142.922C438.747 143.378 438.861 143.984 438.861 144.74V148.628C438.861 149.012 438.921 149.288 439.041 149.456C439.161 149.612 439.329 149.69 439.545 149.69C439.701 149.69 439.833 149.66 439.941 149.6C440.049 149.528 440.151 149.438 440.247 149.33L440.589 149.816C440.385 150.116 440.151 150.338 439.887 150.482C439.635 150.614 439.341 150.68 439.005 150.68ZM444.415 150.734C443.875 150.734 443.383 150.674 442.939 150.554C442.495 150.446 442.057 150.284 441.625 150.068L441.553 148.016H442.579L443.047 150.176H442.255V149.24C442.555 149.456 442.885 149.618 443.245 149.726C443.605 149.834 444.001 149.888 444.433 149.888C444.901 149.888 445.285 149.828 445.585 149.708C445.885 149.588 446.101 149.426 446.233 149.222C446.377 149.006 446.449 148.766 446.449 148.502C446.449 148.106 446.311 147.794 446.035 147.566C445.759 147.338 445.333 147.128 444.757 146.936L444.019 146.648C443.539 146.48 443.119 146.288 442.759 146.072C442.411 145.844 442.141 145.574 441.949 145.262C441.769 144.95 441.679 144.584 441.679 144.164C441.679 143.708 441.799 143.288 442.039 142.904C442.291 142.52 442.657 142.214 443.137 141.986C443.629 141.746 444.211 141.626 444.883 141.626C445.387 141.626 445.849 141.686 446.269 141.806C446.701 141.926 447.103 142.1 447.475 142.328L447.421 144.236H446.449L446.071 142.346H446.755V143.12C446.467 142.904 446.167 142.742 445.855 142.634C445.543 142.526 445.219 142.472 444.883 142.472C444.307 142.472 443.875 142.586 443.587 142.814C443.299 143.042 443.155 143.342 443.155 143.714C443.155 144.098 443.281 144.398 443.533 144.614C443.785 144.818 444.217 145.028 444.829 145.244L445.369 145.442C445.981 145.646 446.479 145.886 446.863 146.162C447.247 146.426 447.523 146.72 447.691 147.044C447.871 147.356 447.961 147.716 447.961 148.124C447.961 148.592 447.823 149.024 447.547 149.42C447.283 149.816 446.887 150.134 446.359 150.374C445.843 150.614 445.195 150.734 444.415 150.734ZM449.371 150.5V149.78L451.351 149.474H451.801L453.655 149.78V150.5H449.371ZM450.721 150.5C450.733 150.2 450.739 149.828 450.739 149.384C450.751 148.928 450.757 148.46 450.757 147.98C450.769 147.5 450.775 147.068 450.775 146.684V145.82C450.775 145.34 450.769 144.926 450.757 144.578C450.757 144.23 450.745 143.87 450.721 143.498L449.281 143.372V142.688L452.035 141.662L452.377 141.806L452.323 144.164V146.684C452.323 147.068 452.323 147.5 452.323 147.98C452.335 148.46 452.341 148.928 452.341 149.384C452.353 149.828 452.365 150.2 452.377 150.5H450.721ZM451.459 139.844C451.123 139.844 450.835 139.736 450.595 139.52C450.367 139.292 450.253 139.01 450.253 138.674C450.253 138.338 450.367 138.062 450.595 137.846C450.835 137.618 451.123 137.504 451.459 137.504C451.807 137.504 452.095 137.618 452.323 137.846C452.563 138.062 452.683 138.338 452.683 138.674C452.683 139.01 452.563 139.292 452.323 139.52C452.095 139.736 451.807 139.844 451.459 139.844ZM458.246 150.59L454.628 141.842H456.464L459.254 149.222H458.948L459.2 148.358L461.504 141.842H462.566L459.182 150.59H458.246ZM453.98 142.598V141.842H458.426V142.598L456.284 142.886H455.708L453.98 142.598ZM459.668 142.598V141.842H463.232V142.598L461.9 142.886H461.486L459.668 142.598ZM468.177 150.734C467.313 150.734 466.563 150.56 465.927 150.212C465.303 149.852 464.817 149.342 464.469 148.682C464.133 148.01 463.965 147.212 463.965 146.288C463.965 145.352 464.145 144.536 464.505 143.84C464.877 143.144 465.375 142.604 465.999 142.22C466.635 141.824 467.337 141.626 468.105 141.626C468.777 141.626 469.371 141.764 469.887 142.04C470.403 142.316 470.811 142.712 471.111 143.228C471.411 143.744 471.561 144.368 471.561 145.1C471.561 145.316 471.549 145.52 471.525 145.712C471.501 145.892 471.471 146.048 471.435 146.18H464.739V145.388H469.059C469.479 145.364 469.749 145.268 469.869 145.1C469.989 144.92 470.049 144.71 470.049 144.47C470.049 144.038 469.971 143.678 469.815 143.39C469.659 143.09 469.437 142.868 469.149 142.724C468.861 142.568 468.513 142.49 468.105 142.49C467.685 142.49 467.277 142.61 466.881 142.85C466.497 143.09 466.185 143.474 465.945 144.002C465.705 144.518 465.585 145.208 465.585 146.072C465.585 146.816 465.705 147.446 465.945 147.962C466.185 148.478 466.527 148.874 466.971 149.15C467.427 149.414 467.961 149.546 468.573 149.546C469.161 149.546 469.665 149.444 470.085 149.24C470.517 149.036 470.913 148.736 471.273 148.34L471.705 148.7C471.453 149.096 471.171 149.45 470.859 149.762C470.547 150.074 470.175 150.314 469.743 150.482C469.323 150.65 468.801 150.734 468.177 150.734ZM474.802 150.734C474.442 150.734 474.136 150.608 473.884 150.356C473.644 150.104 473.524 149.804 473.524 149.456C473.524 149.096 473.644 148.79 473.884 148.538C474.136 148.286 474.442 148.16 474.802 148.16C475.162 148.16 475.468 148.286 475.72 148.538C475.972 148.79 476.098 149.096 476.098 149.456C476.098 149.804 475.972 150.104 475.72 150.356C475.468 150.608 475.162 150.734 474.802 150.734Z" fill="#2F2F2F"/>
<path d="M90.6665 230.867V248.167C90.6665 249.935 89.9641 251.63 88.7139 252.881C87.4636 254.131 85.7679 254.833 83.9998 254.833H43.9998C42.2317 254.833 40.536 254.131 39.2858 252.881C38.0355 251.63 37.3332 249.935 37.3332 248.167V230.867C38.6827 231.284 40.0871 231.498 41.4998 231.5C44.1489 231.496 46.745 230.757 48.9998 229.367C51.2535 230.759 53.8505 231.497 56.4998 231.497C59.1492 231.497 61.7461 230.759 63.9998 229.367C66.2535 230.759 68.8505 231.497 71.4998 231.497C74.1492 231.497 76.7461 230.759 78.9998 229.367C81.2547 230.757 83.8507 231.496 86.4998 231.5C87.9125 231.498 89.317 231.284 90.6665 230.867ZM96.5332 211.5L91.2332 193C90.8353 191.609 89.9958 190.385 88.8412 189.513C87.6867 188.641 86.2799 188.169 84.8332 188.167H43.1665C41.7197 188.169 40.3129 188.641 39.1584 189.513C38.0039 190.385 37.1644 191.609 36.7665 193L31.4665 211.5C30.9348 213.399 30.6657 215.362 30.6665 217.333C30.6699 219.455 31.2965 221.53 32.4684 223.299C33.6403 225.068 35.306 226.454 37.2586 227.285C39.2113 228.115 41.365 228.354 43.4522 227.972C45.5395 227.59 47.4686 226.602 48.9998 225.133C51.0131 227.076 53.7019 228.162 56.4998 228.162C59.2978 228.162 61.9866 227.076 63.9998 225.133C66.0131 227.076 68.7019 228.162 71.4998 228.162C74.2978 228.162 76.9866 227.076 78.9998 225.133C80.5311 226.602 82.4601 227.59 84.5474 227.972C86.6347 228.354 88.7884 228.115 90.741 227.285C92.6937 226.454 94.3594 225.068 95.5313 223.299C96.7032 221.53 97.3298 219.455 97.3332 217.333C97.334 215.362 97.0648 213.399 96.5332 211.5Z" fill="#2F2F2F"/>
</svg>
