<svg width="600" height="400" viewBox="0 0 600 400" fill="none" xmlns="http://www.w3.org/2000/svg">
<rect width="600" height="400" rx="24" fill="#35545D"/>
<path d="M214.483 203.01L218.552 208.86C215.422 210.836 209.945 212.18 205.172 212.18C193.669 212.18 186 204.275 186 192.417C186 180.559 193.043 172.654 203.606 172.654C214.092 172.654 221.135 179.611 221.135 190.046V197.16H193.199C194.373 201.903 199.068 205.065 205.25 205.065C208.38 205.065 211.979 204.275 214.483 203.01ZM193.199 190.046H214.014C214.014 183.88 209.867 179.769 203.606 179.769C197.346 179.769 193.199 183.88 193.199 190.046Z" fill="#FBF2E7"/>
<path d="M301.863 172.655H308.905V177.793C311.566 174.236 315.478 172.259 320.252 172.259C326.434 172.259 331.285 175.421 333.711 180.718C336.137 175.421 340.753 172.259 346.857 172.259C355.699 172.259 361.959 178.82 361.959 188.702L361.881 212.18H354.76L354.839 188.86C354.839 183.168 351.552 179.374 345.996 179.374C339.658 179.374 335.432 183.959 335.432 190.283H335.354L335.276 212.18H328.155L328.233 188.86C328.233 183.168 324.947 179.374 319.391 179.374C313.757 179.374 309.531 183.089 308.905 188.781V212.18H301.863V172.655Z" fill="#FBF2E7"/>
<path d="M365.903 172.655H372.946V177.793C375.606 174.236 379.519 172.259 384.292 172.259C390.474 172.259 395.326 175.421 397.751 180.718C400.177 175.421 404.794 172.259 410.898 172.259C419.74 172.259 426 178.82 426 188.702L425.922 212.18H418.801L418.879 188.86C418.879 183.168 415.593 179.374 410.037 179.374C403.698 179.374 399.473 183.959 399.473 190.283H399.395L399.316 212.18H392.196L392.274 188.86C392.274 183.168 388.987 179.374 383.431 179.374C377.797 179.374 373.572 183.089 372.946 188.781V212.18H365.903V172.655Z" fill="#FBF2E7"/>
<path d="M225.042 184.751C229.125 174.378 240.759 169.311 251.027 173.435L254.171 174.698L251.671 181.047L248.529 179.784C241.731 177.054 234.029 180.408 231.326 187.275C228.623 194.142 231.943 201.923 238.741 204.654C245.539 207.384 253.242 204.03 255.945 197.163L257.193 193.989L263.479 196.512L262.229 199.688C258.146 210.061 246.512 215.127 236.243 211.002C225.974 206.878 220.959 195.125 225.042 184.751ZM260.774 184.738C264.864 174.367 276.501 169.309 286.766 173.44C297.032 177.572 302.04 189.329 297.95 199.7C293.86 210.071 282.222 215.129 271.956 210.997L268.815 209.733L271.318 203.386L274.459 204.651C281.255 207.386 288.959 204.037 291.667 197.171C294.374 190.306 291.059 182.522 284.263 179.787C277.467 177.053 269.764 180.401 267.057 187.267L265.805 190.439L259.523 187.912L260.774 184.738Z" fill="#FBF2E7"/>
<path d="M237.711 251.54V228.46H241.445L250.954 244.106C251.153 244.423 251.331 244.74 251.488 245.057C251.655 245.363 251.802 245.659 251.927 245.945H252.037C252.027 245.617 252.016 245.268 252.006 244.898C252.006 244.518 252.006 244.164 252.006 243.836V228.46H255.301V251.54H251.535L242.042 235.926C241.843 235.609 241.66 235.292 241.492 234.975C241.336 234.658 241.194 234.357 241.069 234.071H240.959C240.969 234.399 240.975 234.758 240.975 235.149C240.985 235.53 240.99 235.889 240.99 236.227V251.54H237.711Z" fill="#FBF2E7"/>
<path d="M259.522 240.713V239.287C259.522 235.651 260.427 232.861 262.237 230.917C264.047 228.972 266.379 228 269.235 228C272.081 228 274.413 228.972 276.234 230.917C278.054 232.861 278.964 235.651 278.964 239.287V240.713C278.964 244.349 278.054 247.139 276.234 249.083C274.413 251.028 272.081 252 269.235 252C266.379 252 264.047 251.028 262.237 249.083C260.427 247.139 259.522 244.349 259.522 240.713ZM263.147 240.904C263.147 243.546 263.701 245.569 264.81 246.975C265.919 248.38 267.394 249.083 269.235 249.083C271.076 249.083 272.551 248.38 273.66 246.975C274.78 245.569 275.339 243.546 275.339 240.904V239.096C275.339 236.454 274.78 234.431 273.66 233.025C272.551 231.62 271.076 230.917 269.235 230.917C267.394 230.917 265.919 231.62 264.81 233.025C263.701 234.431 263.147 236.454 263.147 239.096V240.904Z" fill="#FBF2E7"/>
<path d="M283.185 251.54V228.46H290.843C293.322 228.46 295.242 229.083 296.601 230.33C297.961 231.577 298.641 233.268 298.641 235.403C298.641 237.527 297.956 239.234 296.586 240.523C295.226 241.802 293.311 242.441 290.843 242.441H286.731V251.54H283.185ZM286.731 239.651H290.748C292.359 239.651 293.484 239.25 294.122 238.447C294.76 237.643 295.079 236.634 295.079 235.419C295.079 234.204 294.76 233.21 294.122 232.439C293.484 231.667 292.359 231.276 290.748 231.266H286.731V239.651ZM295.817 251.54L290.356 240.904L293.95 240.507L299.787 251.54H295.817Z" fill="#FBF2E7"/>
<path d="M299.473 231.329V228.46H317.205V231.329H310.112V251.54H306.55V231.329H299.473Z" fill="#FBF2E7"/>
<path d="M320.092 251.54V228.46H323.638V238.193H334.261V228.46H337.808V251.54H334.261V241.078H323.638V251.54H320.092Z" fill="#FBF2E7"/>
<path d="M346.454 251.667L340.946 228.46H344.477L348.211 245.12C348.295 245.469 348.352 245.754 348.384 245.976C348.415 246.188 348.452 246.473 348.494 246.832H348.635C348.677 246.473 348.713 246.188 348.745 245.976C348.787 245.754 348.849 245.469 348.933 245.12L353.029 228.46H356.763L360.969 245.104C361.063 245.453 361.125 245.738 361.157 245.96C361.188 246.182 361.225 246.473 361.267 246.832H361.392C361.434 246.473 361.476 246.182 361.518 245.96C361.56 245.738 361.617 245.453 361.69 245.104L365.284 228.46H368.61L363.134 251.667H359.462L355.225 234.959C355.131 234.621 355.053 234.299 354.99 233.992C354.938 233.675 354.885 233.342 354.833 232.993H354.723C354.671 233.342 354.613 233.675 354.551 233.992C354.498 234.299 354.425 234.621 354.331 234.959L350.094 251.667H346.454Z" fill="#FBF2E7"/>
<path d="M371.78 251.54V228.46H386.263V231.329H375.311V238.225H384.82V241.062H375.311V248.687H386.42V251.54H371.78Z" fill="#FBF2E7"/>
<path d="M388.806 245.168V244.819H392.368V245.136C392.368 246.457 392.796 247.45 393.654 248.116C394.512 248.771 395.705 249.099 397.232 249.099C398.759 249.099 399.931 248.771 400.747 248.116C401.563 247.45 401.971 246.584 401.971 245.517C401.971 244.502 401.579 243.699 400.794 243.107C400.009 242.515 398.466 241.886 396.165 241.221C393.738 240.513 391.975 239.657 390.877 238.653C389.778 237.638 389.229 236.217 389.229 234.388C389.229 232.518 389.93 230.986 391.332 229.791C392.734 228.597 394.653 228 397.091 228C399.518 228 401.453 228.624 402.897 229.871C404.351 231.107 405.078 232.724 405.078 234.721V235.023H401.531V234.753C401.531 233.591 401.16 232.661 400.417 231.963C399.675 231.266 398.566 230.917 397.091 230.917C395.616 230.917 394.528 231.213 393.827 231.805C393.136 232.396 392.791 233.2 392.791 234.214C392.791 235.155 393.152 235.894 393.874 236.433C394.606 236.962 396.139 237.559 398.472 238.225C400.857 238.912 402.625 239.789 403.775 240.856C404.937 241.923 405.517 243.435 405.517 245.39C405.517 247.376 404.769 248.978 403.273 250.193C401.777 251.398 399.764 252 397.232 252C394.711 252 392.676 251.403 391.128 250.209C389.58 249.004 388.806 247.324 388.806 245.168Z" fill="#FBF2E7"/>
<path d="M407.055 231.329V228.46H424.786V231.329H417.694V251.54H414.132V231.329H407.055Z" fill="#FBF2E7"/>
<path d="M470 252V253.5H142V252H470Z" fill="#FF00BF"/>
<path d="M470 171V172.5H142V171H470Z" fill="#00E040"/>
<rect x="166.75" y="152.75" width="278.5" height="118.5" stroke="#7285FF" stroke-width="1.5"/>
<rect x="16" y="97" width="141" height="54" rx="2" fill="#D7D334"/>
<path d="M34.9432 112.148H33.1705C33.1023 111.769 32.9754 111.436 32.7898 111.148C32.6042 110.86 32.3769 110.616 32.108 110.415C31.839 110.214 31.5379 110.062 31.2045 109.96C30.875 109.858 30.5246 109.807 30.1534 109.807C29.483 109.807 28.8826 109.975 28.3523 110.312C27.8258 110.65 27.4091 111.144 27.1023 111.795C26.7992 112.447 26.6477 113.242 26.6477 114.182C26.6477 115.129 26.7992 115.928 27.1023 116.58C27.4091 117.231 27.8277 117.723 28.358 118.057C28.8883 118.39 29.4848 118.557 30.1477 118.557C30.5152 118.557 30.8636 118.508 31.1932 118.409C31.5265 118.307 31.8277 118.157 32.0966 117.96C32.3655 117.763 32.5928 117.523 32.7784 117.239C32.9678 116.951 33.0985 116.621 33.1705 116.25L34.9432 116.256C34.8485 116.828 34.6648 117.354 34.392 117.835C34.1231 118.312 33.7765 118.725 33.3523 119.074C32.9318 119.419 32.4508 119.686 31.9091 119.875C31.3674 120.064 30.7765 120.159 30.1364 120.159C29.1288 120.159 28.2311 119.92 27.4432 119.443C26.6553 118.962 26.0341 118.275 25.5795 117.381C25.1288 116.487 24.9034 115.42 24.9034 114.182C24.9034 112.939 25.1307 111.873 25.5852 110.983C26.0398 110.089 26.661 109.403 27.4489 108.926C28.2367 108.445 29.1326 108.205 30.1364 108.205C30.7538 108.205 31.3295 108.294 31.8636 108.472C32.4015 108.646 32.8845 108.903 33.3125 109.244C33.7405 109.581 34.0947 109.994 34.375 110.483C34.6553 110.968 34.8447 111.523 34.9432 112.148ZM37.9489 120H36.0852L40.2727 108.364H42.3011L46.4886 120H44.625L41.3352 110.477H41.2443L37.9489 120ZM38.2614 115.443H44.3068V116.92H38.2614V115.443ZM48.169 120V108.364H52.3168C53.2221 108.364 53.9721 108.528 54.5668 108.858C55.1615 109.187 55.6065 109.638 55.902 110.21C56.1974 110.778 56.3452 111.419 56.3452 112.131C56.3452 112.847 56.1955 113.491 55.8963 114.062C55.6009 114.631 55.1539 115.081 54.5554 115.415C53.9607 115.744 53.2126 115.909 52.3111 115.909H49.4588V114.42H52.152C52.724 114.42 53.188 114.322 53.544 114.125C53.9001 113.924 54.1615 113.652 54.3281 113.307C54.4948 112.962 54.5781 112.57 54.5781 112.131C54.5781 111.691 54.4948 111.301 54.3281 110.96C54.1615 110.619 53.8982 110.352 53.5384 110.159C53.1823 109.966 52.7126 109.869 52.1293 109.869H49.9247V120H48.169ZM62.6378 120V108.364H64.3935V113.42H70.1946V108.364H71.956V120H70.1946V114.926H64.3935V120H62.6378ZM74.5128 120V108.364H81.8082V109.875H76.2685V113.42H81.4276V114.926H76.2685V118.489H81.8764V120H74.5128ZM85.9091 108.364V120H84.1534V108.364H85.9091ZM96.3409 112.04C96.2311 111.695 96.0833 111.386 95.8977 111.114C95.7159 110.837 95.4981 110.602 95.2443 110.409C94.9905 110.212 94.7008 110.062 94.375 109.96C94.053 109.858 93.6989 109.807 93.3125 109.807C92.6572 109.807 92.0663 109.975 91.5398 110.312C91.0133 110.65 90.5966 111.144 90.2898 111.795C89.9867 112.443 89.8352 113.237 89.8352 114.176C89.8352 115.119 89.9886 115.917 90.2955 116.568C90.6023 117.22 91.0227 117.714 91.5568 118.051C92.0909 118.388 92.6989 118.557 93.3807 118.557C94.0133 118.557 94.5644 118.428 95.0341 118.17C95.5076 117.913 95.8731 117.549 96.1307 117.08C96.392 116.606 96.5227 116.049 96.5227 115.409L96.9773 115.494H93.6477V114.045H98.2216V115.369C98.2216 116.347 98.0133 117.195 97.5966 117.915C97.1837 118.631 96.6117 119.184 95.8807 119.574C95.1534 119.964 94.3201 120.159 93.3807 120.159C92.3277 120.159 91.4034 119.917 90.608 119.432C89.8163 118.947 89.1989 118.259 88.7557 117.369C88.3125 116.475 88.0909 115.415 88.0909 114.188C88.0909 113.259 88.2197 112.426 88.4773 111.688C88.7348 110.949 89.0966 110.322 89.5625 109.807C90.0322 109.288 90.5833 108.892 91.2159 108.619C91.8523 108.343 92.5473 108.205 93.3011 108.205C93.9299 108.205 94.5152 108.297 95.0568 108.483C95.6023 108.669 96.0871 108.932 96.5114 109.273C96.9394 109.614 97.2936 110.019 97.5739 110.489C97.8542 110.955 98.0436 111.472 98.142 112.04H96.3409ZM100.45 120V108.364H102.206V113.42H108.007V108.364H109.768V120H108.007V114.926H102.206V120H100.45ZM111.751 109.875V108.364H120.757V109.875H117.126V120H115.376V109.875H111.751ZM127.339 114.182C127.339 112.758 127.527 111.447 127.902 110.25C128.277 109.053 128.824 107.949 129.544 106.938H131.101C130.821 107.312 130.559 107.773 130.317 108.318C130.074 108.864 129.862 109.462 129.68 110.114C129.499 110.761 129.357 111.434 129.254 112.131C129.152 112.824 129.101 113.508 129.101 114.182C129.101 115.083 129.19 115.996 129.368 116.92C129.546 117.845 129.786 118.703 130.089 119.494C130.393 120.286 130.73 120.932 131.101 121.432H129.544C128.824 120.42 128.277 119.316 127.902 118.119C127.527 116.922 127.339 115.61 127.339 114.182ZM134.25 108.364L137.034 112.915H137.125L139.909 108.364H141.943L138.318 114.182L141.966 120H139.92L137.125 115.511H137.034L134.239 120H132.193L135.903 114.182L132.216 108.364H134.25ZM146.815 114.182C146.815 115.61 146.628 116.922 146.253 118.119C145.878 119.316 145.33 120.42 144.611 121.432H143.054C143.334 121.057 143.596 120.597 143.838 120.051C144.08 119.506 144.293 118.909 144.474 118.261C144.656 117.61 144.798 116.936 144.901 116.239C145.003 115.542 145.054 114.856 145.054 114.182C145.054 113.284 144.965 112.373 144.787 111.449C144.609 110.525 144.368 109.667 144.065 108.875C143.762 108.083 143.425 107.438 143.054 106.938H144.611C145.33 107.949 145.878 109.053 146.253 110.25C146.628 111.447 146.815 112.758 146.815 114.182ZM24.875 136.727V135.307L29.9034 127.364H31.0227V129.455H30.3125L26.7159 135.148V135.239H33.608V136.727H24.875ZM30.392 139V136.295L30.4034 135.648V127.364H32.0682V139H30.392ZM39.6392 139.193C38.7415 139.189 37.9744 138.953 37.3381 138.483C36.7017 138.013 36.215 137.33 35.8778 136.432C35.5407 135.534 35.3722 134.453 35.3722 133.188C35.3722 131.926 35.5407 130.848 35.8778 129.955C36.2188 129.061 36.7074 128.379 37.3438 127.909C37.9839 127.439 38.7491 127.205 39.6392 127.205C40.5294 127.205 41.2926 127.441 41.929 127.915C42.5653 128.384 43.0521 129.066 43.3892 129.96C43.7301 130.85 43.9006 131.926 43.9006 133.188C43.9006 134.456 43.732 135.54 43.3949 136.438C43.0578 137.331 42.571 138.015 41.9347 138.489C41.2983 138.958 40.5331 139.193 39.6392 139.193ZM39.6392 137.676C40.4271 137.676 41.0426 137.292 41.4858 136.523C41.9328 135.754 42.1562 134.642 42.1562 133.188C42.1562 132.222 42.054 131.405 41.8494 130.739C41.6487 130.068 41.3589 129.561 40.9801 129.216C40.6051 128.867 40.1581 128.693 39.6392 128.693C38.8551 128.693 38.2396 129.08 37.7926 129.852C37.3456 130.625 37.1203 131.737 37.1165 133.188C37.1165 134.157 37.2169 134.977 37.4176 135.648C37.6222 136.314 37.9119 136.82 38.2869 137.165C38.6619 137.506 39.1127 137.676 39.6392 137.676ZM50.3097 139V127.364H54.4574C55.3627 127.364 56.1127 127.528 56.7074 127.858C57.3021 128.187 57.7472 128.638 58.0426 129.21C58.3381 129.778 58.4858 130.419 58.4858 131.131C58.4858 131.847 58.3362 132.491 58.0369 133.062C57.7415 133.631 57.2945 134.081 56.696 134.415C56.1013 134.744 55.3532 134.909 54.4517 134.909H51.5994V133.42H54.2926C54.8646 133.42 55.3286 133.322 55.6847 133.125C56.0407 132.924 56.3021 132.652 56.4688 132.307C56.6354 131.962 56.7188 131.57 56.7188 131.131C56.7188 130.691 56.6354 130.301 56.4688 129.96C56.3021 129.619 56.0388 129.352 55.679 129.159C55.3229 128.966 54.8532 128.869 54.2699 128.869H52.0653V139H50.3097ZM61.7656 127.364L64.5497 131.915H64.6406L67.4247 127.364H69.4588L65.8338 133.182L69.4815 139H67.4361L64.6406 134.511H64.5497L61.7543 139H59.7088L63.419 133.182L59.7315 127.364H61.7656Z" fill="#2F2F2F"/>
<path d="M96.5303 151.47C96.2374 151.177 95.7626 151.177 95.4697 151.47L90.6967 156.243C90.4038 156.536 90.4038 157.01 90.6967 157.303C90.9896 157.596 91.4645 157.596 91.7574 157.303L96 153.061L100.243 157.303C100.536 157.596 101.01 157.596 101.303 157.303C101.596 157.01 101.596 156.536 101.303 156.243L96.5303 151.47ZM96 171.754H95.25V172.504H96V171.754ZM96 152H95.25V153.646H96H96.75V152H96ZM96 156.939H95.25V160.231H96H96.75V156.939H96ZM96 163.523H95.25V166.816H96H96.75V163.523H96ZM96 170.108H95.25V171.754H96H96.75V170.108H96ZM96 171.754V172.504H97.484V171.754V171.004H96V171.754ZM100.452 171.754V172.504H103.42V171.754V171.004H100.452V171.754ZM106.388 171.754V172.504H109.356V171.754V171.004H106.388V171.754ZM112.324 171.754V172.504H115.292V171.754V171.004H112.324V171.754ZM118.26 171.754V172.504H121.227V171.754V171.004H118.26V171.754ZM124.195 171.754V172.504H127.163V171.754V171.004H124.195V171.754ZM130.131 171.754V172.504H133.099V171.754V171.004H130.131V171.754ZM136.067 171.754V172.504H139.035V171.754V171.004H136.067V171.754ZM142.003 171.754V172.504H143.487V171.754V171.004H142.003V171.754Z" fill="#00E040"/>
<path d="M316.53 89.4244C316.823 89.1315 316.823 88.6566 316.53 88.3637L311.757 83.5907C311.464 83.2978 310.99 83.2978 310.697 83.5907C310.404 83.8836 310.404 84.3585 310.697 84.6514L314.939 88.894L310.697 93.1367C310.404 93.4296 310.404 93.9045 310.697 94.1973C310.99 94.4902 311.464 94.4902 311.757 94.1973L316.53 89.4244ZM262.379 88.894V88.144H261.629V88.894H262.379ZM316 88.894V88.144H314.511V88.894V89.644H316V88.894ZM311.532 88.894V88.144H308.553V88.894V89.644H311.532V88.894ZM305.574 88.894V88.144H302.595V88.894V89.644H305.574V88.894ZM299.616 88.894V88.144H296.637V88.894V89.644H299.616V88.894ZM293.658 88.894V88.144H290.679V88.894V89.644H293.658V88.894ZM287.7 88.894V88.144H284.721V88.894V89.644H287.7V88.894ZM281.742 88.894V88.144H278.763V88.894V89.644H281.742V88.894ZM275.785 88.894V88.144H272.806V88.894V89.644H275.785V88.894ZM269.827 88.894V88.144H266.848V88.894V89.644H269.827V88.894ZM263.869 88.894V88.144H262.379V88.894V89.644H263.869V88.894ZM262.379 88.894H261.629V90.4132H262.379H263.129V88.894H262.379ZM262.379 93.4515H261.629V96.4898H262.379H263.129V93.4515H262.379ZM262.379 99.5281H261.629V102.566H262.379H263.129V99.5281H262.379ZM262.379 105.605H261.629V108.643H262.379H263.129V105.605H262.379ZM262.379 111.681H261.629V114.72H262.379H263.129V111.681H262.379ZM262.379 117.758H261.629V120.796H262.379H263.129V117.758H262.379ZM262.379 123.835H261.629V126.873H262.379H263.129V123.835H262.379ZM262.379 129.911H261.629V132.95H262.379H263.129V129.911H262.379ZM262.379 135.988H261.629V139.026H262.379H263.129V135.988H262.379ZM262.379 142.065H261.629V145.103H262.379H263.129V142.065H262.379ZM262.379 148.141H261.629V151.18H262.379H263.129V148.141H262.379ZM262.379 154.218H261.629V157.256H262.379H263.129V154.218H262.379ZM262.379 160.294H261.629V163.333H262.379H263.129V160.294H262.379ZM262.379 166.371H261.629V169.409H262.379H263.129V166.371H262.379ZM262.379 172.448H261.629V175.486H262.379H263.129V172.448H262.379ZM262.379 178.524H261.629V181.563H262.379H263.129V178.524H262.379ZM262.379 184.601H261.629V186.12H262.379H263.129V184.601H262.379Z" fill="#D7D334"/>
<line x1="186.75" y1="115.684" x2="186.75" y2="308.317" stroke="#7285FF" stroke-width="1.5"/>
<line x1="426.75" y1="115.684" x2="426.75" y2="308.316" stroke="#7285FF" stroke-width="1.5"/>
<rect x="466" y="100" width="118" height="44" rx="2" fill="#D7D334"/>
<path d="M483.575 113.129H482.024C481.964 112.798 481.853 112.506 481.691 112.254C481.529 112.002 481.33 111.789 481.094 111.613C480.859 111.437 480.596 111.305 480.304 111.215C480.016 111.126 479.709 111.081 479.384 111.081C478.798 111.081 478.272 111.228 477.808 111.523C477.348 111.818 476.983 112.251 476.714 112.821C476.449 113.391 476.317 114.087 476.317 114.909C476.317 115.738 476.449 116.437 476.714 117.007C476.983 117.577 477.349 118.008 477.813 118.3C478.277 118.591 478.799 118.737 479.379 118.737C479.701 118.737 480.006 118.694 480.294 118.608C480.586 118.518 480.849 118.388 481.085 118.215C481.32 118.043 481.519 117.832 481.681 117.584C481.847 117.332 481.961 117.044 482.024 116.719L483.575 116.724C483.492 117.224 483.332 117.685 483.093 118.106C482.858 118.523 482.554 118.885 482.183 119.19C481.815 119.491 481.394 119.725 480.92 119.891C480.446 120.056 479.929 120.139 479.369 120.139C478.488 120.139 477.702 119.93 477.013 119.513C476.323 119.092 475.78 118.49 475.382 117.708C474.988 116.926 474.79 115.993 474.79 114.909C474.79 113.822 474.989 112.889 475.387 112.11C475.785 111.328 476.328 110.728 477.018 110.31C477.707 109.889 478.491 109.679 479.369 109.679C479.91 109.679 480.413 109.757 480.881 109.913C481.351 110.065 481.774 110.29 482.148 110.589C482.523 110.884 482.833 111.245 483.078 111.673C483.323 112.097 483.489 112.582 483.575 113.129ZM485.414 120V109.818H486.95V118.678H491.563V120H485.414ZM493.316 120V109.818H499.699V111.141H494.852V114.243H499.366V115.56H494.852V118.678H499.759V120H493.316ZM502.612 120H500.981L504.645 109.818H506.42L510.084 120H508.453L505.575 111.668H505.495L502.612 120ZM502.885 116.013H508.175V117.305H502.885V116.013ZM511.554 120V109.818H515.183C515.972 109.818 516.627 109.954 517.147 110.226C517.671 110.498 518.062 110.874 518.32 111.354C518.579 111.832 518.708 112.384 518.708 113.01C518.708 113.633 518.577 114.182 518.316 114.656C518.057 115.126 517.666 115.492 517.142 115.754C516.622 116.016 515.967 116.147 515.178 116.147H512.429V114.825H515.039C515.536 114.825 515.941 114.753 516.252 114.611C516.567 114.468 516.798 114.261 516.943 113.989C517.089 113.718 517.162 113.391 517.162 113.01C517.162 112.625 517.088 112.292 516.938 112.011C516.793 111.729 516.562 111.513 516.247 111.364C515.936 111.212 515.526 111.136 515.019 111.136H513.09V120H511.554ZM516.58 115.406L519.096 120H517.346L514.88 115.406H516.58ZM529.836 112.493C529.783 112.022 529.564 111.658 529.18 111.399C528.795 111.137 528.311 111.006 527.728 111.006C527.31 111.006 526.949 111.073 526.644 111.205C526.339 111.335 526.102 111.513 525.933 111.742C525.768 111.968 525.685 112.224 525.685 112.513C525.685 112.755 525.741 112.964 525.854 113.139C525.97 113.315 526.121 113.462 526.306 113.582C526.495 113.698 526.697 113.795 526.913 113.875C527.128 113.951 527.335 114.014 527.534 114.064L528.528 114.322C528.853 114.402 529.186 114.51 529.528 114.646C529.869 114.781 530.186 114.96 530.477 115.183C530.769 115.405 531.004 115.68 531.183 116.008C531.366 116.336 531.457 116.729 531.457 117.186C531.457 117.763 531.308 118.275 531.009 118.722C530.714 119.17 530.285 119.523 529.722 119.781C529.161 120.04 528.484 120.169 527.688 120.169C526.926 120.169 526.266 120.048 525.71 119.806C525.153 119.564 524.717 119.221 524.402 118.777C524.087 118.33 523.913 117.799 523.88 117.186H525.421C525.451 117.554 525.57 117.861 525.779 118.106C525.991 118.348 526.261 118.528 526.589 118.648C526.921 118.764 527.284 118.822 527.678 118.822C528.112 118.822 528.499 118.754 528.837 118.618C529.178 118.479 529.446 118.286 529.642 118.041C529.838 117.793 529.935 117.503 529.935 117.171C529.935 116.87 529.849 116.623 529.677 116.43C529.508 116.238 529.277 116.079 528.986 115.953C528.697 115.827 528.371 115.716 528.006 115.62L526.803 115.292C525.988 115.07 525.342 114.743 524.864 114.312C524.39 113.882 524.153 113.312 524.153 112.602C524.153 112.016 524.313 111.504 524.631 111.066C524.949 110.629 525.38 110.289 525.923 110.047C526.467 109.802 527.08 109.679 527.763 109.679C528.452 109.679 529.06 109.8 529.587 110.042C530.118 110.284 530.535 110.617 530.84 111.041C531.145 111.462 531.304 111.946 531.317 112.493H529.836ZM533.292 120V109.818H536.922C537.714 109.818 538.37 109.962 538.89 110.251C539.411 110.539 539.8 110.933 540.059 111.434C540.317 111.931 540.447 112.491 540.447 113.114C540.447 113.741 540.316 114.304 540.054 114.805C539.795 115.302 539.404 115.696 538.881 115.988C538.36 116.276 537.706 116.42 536.917 116.42H534.421V115.118H536.778C537.278 115.118 537.684 115.032 537.996 114.859C538.307 114.684 538.536 114.445 538.682 114.143C538.827 113.842 538.9 113.499 538.9 113.114C538.9 112.73 538.827 112.388 538.682 112.09C538.536 111.792 538.305 111.558 537.991 111.389C537.679 111.22 537.268 111.136 536.758 111.136H534.829V120H533.292ZM542.028 120H540.397L544.061 109.818H545.836L549.5 120H547.869L544.991 111.668H544.911L542.028 120ZM542.301 116.013H547.591V117.305H542.301V116.013ZM558.948 113.129H557.397C557.338 112.798 557.227 112.506 557.064 112.254C556.902 112.002 556.703 111.789 556.468 111.613C556.232 111.437 555.969 111.305 555.677 111.215C555.389 111.126 555.082 111.081 554.757 111.081C554.171 111.081 553.645 111.228 553.181 111.523C552.721 111.818 552.356 112.251 552.088 112.821C551.822 113.391 551.69 114.087 551.69 114.909C551.69 115.738 551.822 116.437 552.088 117.007C552.356 117.577 552.722 118.008 553.186 118.3C553.65 118.591 554.172 118.737 554.752 118.737C555.074 118.737 555.379 118.694 555.667 118.608C555.959 118.518 556.222 118.388 556.458 118.215C556.693 118.043 556.892 117.832 557.054 117.584C557.22 117.332 557.334 117.044 557.397 116.719L558.948 116.724C558.865 117.224 558.705 117.685 558.466 118.106C558.231 118.523 557.927 118.885 557.556 119.19C557.188 119.491 556.767 119.725 556.294 119.891C555.82 120.056 555.302 120.139 554.742 120.139C553.861 120.139 553.075 119.93 552.386 119.513C551.696 119.092 551.153 118.49 550.755 117.708C550.361 116.926 550.164 115.993 550.164 114.909C550.164 113.822 550.362 112.889 550.76 112.11C551.158 111.328 551.701 110.728 552.391 110.31C553.08 109.889 553.864 109.679 554.742 109.679C555.283 109.679 555.786 109.757 556.254 109.913C556.724 110.065 557.147 110.29 557.521 110.589C557.896 110.884 558.206 111.245 558.451 111.673C558.696 112.097 558.862 112.582 558.948 113.129ZM560.787 120V109.818H567.17V111.141H562.323V114.243H566.837V115.56H562.323V118.678H567.23V120H560.787ZM478.524 134.169C477.739 134.166 477.067 133.959 476.511 133.548C475.954 133.137 475.528 132.538 475.233 131.753C474.938 130.967 474.79 130.021 474.79 128.914C474.79 127.81 474.938 126.867 475.233 126.085C475.531 125.303 475.959 124.706 476.516 124.295C477.076 123.884 477.745 123.679 478.524 123.679C479.303 123.679 479.971 123.886 480.528 124.3C481.085 124.711 481.51 125.308 481.805 126.09C482.104 126.869 482.253 127.81 482.253 128.914C482.253 130.024 482.105 130.972 481.81 131.758C481.515 132.54 481.089 133.138 480.533 133.553C479.976 133.964 479.306 134.169 478.524 134.169ZM478.524 132.842C479.214 132.842 479.752 132.505 480.14 131.832C480.531 131.16 480.727 130.187 480.727 128.914C480.727 128.069 480.637 127.355 480.458 126.771C480.282 126.185 480.029 125.741 479.697 125.439C479.369 125.134 478.978 124.982 478.524 124.982C477.838 124.982 477.299 125.32 476.908 125.996C476.517 126.672 476.32 127.645 476.317 128.914C476.317 129.763 476.405 130.48 476.58 131.067C476.759 131.65 477.013 132.093 477.341 132.394C477.669 132.692 478.063 132.842 478.524 132.842ZM484.647 134.094C484.375 134.094 484.141 133.998 483.946 133.806C483.75 133.611 483.652 133.375 483.652 133.1C483.652 132.828 483.75 132.596 483.946 132.404C484.141 132.209 484.375 132.111 484.647 132.111C484.918 132.111 485.152 132.209 485.348 132.404C485.543 132.596 485.641 132.828 485.641 133.1C485.641 133.282 485.595 133.45 485.502 133.602C485.412 133.751 485.293 133.871 485.144 133.96C484.995 134.05 484.829 134.094 484.647 134.094ZM490.809 134.139C490.186 134.139 489.626 134.02 489.129 133.781C488.635 133.539 488.24 133.208 487.945 132.787C487.65 132.366 487.493 131.885 487.473 131.345H488.964C489.001 131.783 489.195 132.142 489.546 132.424C489.897 132.706 490.318 132.847 490.809 132.847C491.2 132.847 491.546 132.757 491.848 132.578C492.153 132.396 492.392 132.146 492.564 131.827C492.74 131.509 492.827 131.146 492.827 130.739C492.827 130.324 492.738 129.955 492.559 129.63C492.38 129.305 492.133 129.05 491.818 128.864C491.507 128.679 491.149 128.584 490.744 128.581C490.436 128.581 490.126 128.634 489.815 128.74C489.503 128.846 489.251 128.985 489.059 129.158L487.652 128.949L488.224 123.818H493.822V125.136H489.501L489.178 127.984H489.238C489.437 127.792 489.7 127.631 490.028 127.502C490.36 127.373 490.714 127.308 491.092 127.308C491.712 127.308 492.264 127.456 492.748 127.751C493.235 128.046 493.618 128.448 493.896 128.959C494.178 129.466 494.317 130.049 494.314 130.709C494.317 131.368 494.168 131.957 493.866 132.474C493.568 132.991 493.154 133.398 492.624 133.697C492.097 133.992 491.492 134.139 490.809 134.139ZM501.028 126.364L502.713 129.337L504.414 126.364H506.039L503.658 130.182L506.059 134H504.434L502.713 131.146L500.998 134H499.368L501.744 130.182L499.397 126.364H501.028ZM512.459 123.818L514.895 127.8H514.975L517.411 123.818H519.191L516.019 128.909L519.21 134H517.421L514.975 130.072H514.895L512.449 134H510.659L513.906 128.909L510.679 123.818H512.459ZM524.777 128.029V126.727H531.146V128.029H524.777ZM524.777 131.092V129.789H531.146V131.092H524.777ZM537.309 134V132.886L540.755 129.317C541.123 128.929 541.426 128.589 541.665 128.298C541.907 128.003 542.087 127.723 542.206 127.457C542.326 127.192 542.385 126.911 542.385 126.612C542.385 126.274 542.306 125.982 542.147 125.737C541.988 125.489 541.771 125.298 541.496 125.165C541.22 125.03 540.911 124.962 540.566 124.962C540.201 124.962 539.883 125.036 539.611 125.185C539.34 125.335 539.131 125.545 538.985 125.817C538.839 126.089 538.766 126.407 538.766 126.771H537.3C537.3 126.152 537.442 125.61 537.727 125.146C538.012 124.682 538.403 124.322 538.9 124.067C539.398 123.808 539.963 123.679 540.596 123.679C541.235 123.679 541.799 123.807 542.286 124.062C542.777 124.314 543.159 124.658 543.434 125.096C543.71 125.53 543.847 126.021 543.847 126.567C543.847 126.945 543.776 127.315 543.633 127.676C543.494 128.037 543.251 128.44 542.903 128.884C542.555 129.325 542.071 129.86 541.451 130.49L539.427 132.608V132.683H544.011V134H537.309ZM549.44 134.169C548.655 134.166 547.983 133.959 547.427 133.548C546.87 133.137 546.444 132.538 546.149 131.753C545.854 130.967 545.706 130.021 545.706 128.914C545.706 127.81 545.854 126.867 546.149 126.085C546.447 125.303 546.875 124.706 547.432 124.295C547.992 123.884 548.661 123.679 549.44 123.679C550.219 123.679 550.887 123.886 551.444 124.3C552.001 124.711 552.426 125.308 552.721 126.09C553.02 126.869 553.169 127.81 553.169 128.914C553.169 130.024 553.021 130.972 552.726 131.758C552.431 132.54 552.006 133.138 551.449 133.553C550.892 133.964 550.222 134.169 549.44 134.169ZM549.44 132.842C550.13 132.842 550.668 132.505 551.056 131.832C551.447 131.16 551.643 130.187 551.643 128.914C551.643 128.069 551.553 127.355 551.374 126.771C551.198 126.185 550.945 125.741 550.613 125.439C550.285 125.134 549.894 124.982 549.44 124.982C548.754 124.982 548.215 125.32 547.824 125.996C547.433 126.672 547.236 127.645 547.233 128.914C547.233 129.763 547.321 130.48 547.496 131.067C547.675 131.65 547.929 132.093 548.257 132.394C548.585 132.692 548.979 132.842 549.44 132.842ZM558.777 134V123.818H562.406C563.198 123.818 563.854 123.962 564.375 124.251C564.895 124.539 565.285 124.933 565.543 125.434C565.802 125.931 565.931 126.491 565.931 127.114C565.931 127.741 565.8 128.304 565.538 128.805C565.28 129.302 564.889 129.696 564.365 129.988C563.845 130.276 563.19 130.42 562.401 130.42H559.905V129.118H562.262C562.762 129.118 563.168 129.032 563.48 128.859C563.791 128.684 564.02 128.445 564.166 128.143C564.312 127.842 564.385 127.499 564.385 127.114C564.385 126.73 564.312 126.388 564.166 126.09C564.02 125.792 563.79 125.558 563.475 125.389C563.163 125.22 562.752 125.136 562.242 125.136H560.313V134H558.777ZM568.801 123.818L571.237 127.8H571.316L573.752 123.818H575.532L572.36 128.909L575.552 134H573.762L571.316 130.072H571.237L568.791 134H567.001L570.248 128.909L567.021 123.818H568.801Z" fill="#2F2F2F"/>
<rect x="318" y="72" width="100" height="30" rx="2" fill="#D7D334"/>
<path d="M327.119 92V81.8182H328.655V90.6776H333.268V92H327.119ZM343.469 86.9091C343.469 87.9962 343.27 88.9309 342.872 89.7131C342.475 90.492 341.929 91.0919 341.237 91.5128C340.547 91.9304 339.763 92.1392 338.885 92.1392C338.003 92.1392 337.216 91.9304 336.524 91.5128C335.834 91.0919 335.291 90.4903 334.893 89.7081C334.495 88.9259 334.296 87.9929 334.296 86.9091C334.296 85.822 334.495 84.889 334.893 84.1101C335.291 83.3279 335.834 82.728 336.524 82.3104C337.216 81.8894 338.003 81.679 338.885 81.679C339.763 81.679 340.547 81.8894 341.237 82.3104C341.929 82.728 342.475 83.3279 342.872 84.1101C343.27 84.889 343.469 85.822 343.469 86.9091ZM341.948 86.9091C341.948 86.0805 341.813 85.3828 341.545 84.8161C341.28 84.246 340.915 83.8151 340.451 83.5234C339.99 83.2285 339.468 83.081 338.885 83.081C338.298 83.081 337.775 83.2285 337.314 83.5234C336.853 83.8151 336.489 84.246 336.22 84.8161C335.955 85.3828 335.823 86.0805 335.823 86.9091C335.823 87.7377 335.955 88.437 336.22 89.0071C336.489 89.5739 336.853 90.0047 337.314 90.2997C337.775 90.5914 338.298 90.7372 338.885 90.7372C339.468 90.7372 339.99 90.5914 340.451 90.2997C340.915 90.0047 341.28 89.5739 341.545 89.0071C341.813 88.437 341.948 87.7377 341.948 86.9091ZM352.275 85.0348C352.179 84.7332 352.049 84.4631 351.887 84.2244C351.728 83.9825 351.537 83.777 351.315 83.608C351.093 83.4356 350.84 83.3047 350.555 83.2152C350.273 83.1257 349.963 83.081 349.625 83.081C349.052 83.081 348.535 83.2285 348.074 83.5234C347.613 83.8184 347.249 84.2509 346.98 84.821C346.715 85.3878 346.582 86.0821 346.582 86.9041C346.582 87.7294 346.717 88.4271 346.985 88.9972C347.254 89.5672 347.621 89.9998 348.089 90.2947C348.556 90.5897 349.088 90.7372 349.685 90.7372C350.238 90.7372 350.72 90.6245 351.131 90.3991C351.546 90.1738 351.866 89.8556 352.091 89.4446C352.32 89.0303 352.434 88.5431 352.434 87.983L352.832 88.0575H349.918V86.7898H353.92V87.9482C353.92 88.8033 353.738 89.5457 353.374 90.1754C353.012 90.8018 352.512 91.2857 351.872 91.6271C351.236 91.9685 350.507 92.1392 349.685 92.1392C348.763 92.1392 347.955 91.9271 347.259 91.5028C346.566 91.0786 346.026 90.477 345.638 89.6982C345.25 88.916 345.056 87.9879 345.056 86.9141C345.056 86.102 345.169 85.3729 345.394 84.7266C345.62 84.0803 345.936 83.5317 346.344 83.081C346.755 82.6269 347.237 82.2805 347.79 82.0419C348.347 81.8 348.955 81.679 349.615 81.679C350.165 81.679 350.677 81.7602 351.151 81.9226C351.629 82.085 352.053 82.3153 352.424 82.6136C352.799 82.9119 353.108 83.2666 353.354 83.6776C353.599 84.0852 353.765 84.5376 353.851 85.0348H352.275ZM364.715 86.9091C364.715 87.9962 364.516 88.9309 364.118 89.7131C363.721 90.492 363.175 91.0919 362.483 91.5128C361.793 91.9304 361.01 92.1392 360.131 92.1392C359.25 92.1392 358.462 91.9304 357.77 91.5128C357.08 91.0919 356.537 90.4903 356.139 89.7081C355.741 88.9259 355.542 87.9929 355.542 86.9091C355.542 85.822 355.741 84.889 356.139 84.1101C356.537 83.3279 357.08 82.728 357.77 82.3104C358.462 81.8894 359.25 81.679 360.131 81.679C361.01 81.679 361.793 81.8894 362.483 82.3104C363.175 82.728 363.721 83.3279 364.118 84.1101C364.516 84.889 364.715 85.822 364.715 86.9091ZM363.194 86.9091C363.194 86.0805 363.059 85.3828 362.791 84.8161C362.526 84.246 362.161 83.8151 361.697 83.5234C361.237 83.2285 360.715 83.081 360.131 83.081C359.545 83.081 359.021 83.2285 358.56 83.5234C358.099 83.8151 357.735 84.246 357.466 84.8161C357.201 85.3828 357.069 86.0805 357.069 86.9091C357.069 87.7377 357.201 88.437 357.466 89.0071C357.735 89.5739 358.099 90.0047 358.56 90.2997C359.021 90.5914 359.545 90.7372 360.131 90.7372C360.715 90.7372 361.237 90.5914 361.697 90.2997C362.161 90.0047 362.526 89.5739 362.791 89.0071C363.059 88.437 363.194 87.7377 363.194 86.9091ZM370.335 81.8182H372.2L375.441 89.733H375.561L378.802 81.8182H380.666V92H379.205V84.6321H379.11L376.107 91.9851H374.894L371.892 84.6271H371.797V92H370.335V81.8182ZM383.76 92H382.129L385.793 81.8182H387.568L391.232 92H389.602L386.723 83.6676H386.643L383.76 92ZM384.033 88.0128H389.323V89.3054H384.033V88.0128ZM392.703 92V81.8182H396.332C397.121 81.8182 397.775 81.9541 398.296 82.2259C398.819 82.4976 399.21 82.8738 399.469 83.3544C399.727 83.8317 399.857 84.3835 399.857 85.0099C399.857 85.633 399.726 86.1816 399.464 86.6555C399.205 87.1262 398.814 87.4924 398.291 87.7543C397.77 88.0161 397.116 88.147 396.327 88.147H393.578V86.8246H396.188C396.685 86.8246 397.089 86.7533 397.401 86.6108C397.716 86.4683 397.946 86.2611 398.092 85.9893C398.238 85.7176 398.311 85.3911 398.311 85.0099C398.311 84.6255 398.236 84.2924 398.087 84.0107C397.941 83.7289 397.711 83.5135 397.396 83.3643C397.084 83.2119 396.675 83.1357 396.168 83.1357H394.239V92H392.703ZM397.729 87.4062L400.244 92H398.494L396.029 87.4062H397.729ZM401.726 92V81.8182H403.262V86.6804H403.387L407.657 81.8182H409.591L405.485 86.402L409.606 92H407.757L404.465 87.451L403.262 88.8331V92H401.726Z" fill="#2F2F2F"/>
<rect x="501" y="207" width="83" height="30" rx="2" fill="#D7D334"/>
<path d="M510.119 227V216.818H513.847C514.57 216.818 515.168 216.937 515.642 217.176C516.116 217.411 516.471 217.731 516.706 218.136C516.941 218.537 517.059 218.989 517.059 219.493C517.059 219.917 516.981 220.275 516.825 220.567C516.67 220.855 516.461 221.087 516.199 221.263C515.94 221.435 515.655 221.561 515.344 221.641V221.74C515.682 221.757 516.012 221.866 516.333 222.068C516.658 222.267 516.926 222.55 517.138 222.918C517.351 223.286 517.457 223.734 517.457 224.261C517.457 224.781 517.334 225.248 517.089 225.663C516.847 226.074 516.472 226.4 515.965 226.642C515.458 226.881 514.81 227 514.021 227H510.119ZM511.655 225.683H513.872C514.608 225.683 515.135 225.54 515.453 225.255C515.771 224.97 515.93 224.614 515.93 224.186C515.93 223.865 515.849 223.57 515.687 223.301C515.524 223.033 515.292 222.819 514.991 222.66C514.692 222.501 514.338 222.421 513.927 222.421H511.655V225.683ZM511.655 221.223H513.713C514.058 221.223 514.368 221.157 514.643 221.024C514.921 220.892 515.142 220.706 515.304 220.467C515.47 220.225 515.553 219.94 515.553 219.612C515.553 219.191 515.405 218.838 515.11 218.553C514.815 218.268 514.363 218.126 513.753 218.126H511.655V221.223ZM520.139 227H518.508L522.172 216.818H523.947L527.611 227H525.98L523.102 218.668H523.022L520.139 227ZM520.412 223.013H525.702V224.305H520.412V223.013ZM534.553 219.493C534.5 219.022 534.281 218.658 533.896 218.399C533.512 218.137 533.028 218.006 532.445 218.006C532.027 218.006 531.666 218.073 531.361 218.205C531.056 218.335 530.819 218.513 530.65 218.742C530.484 218.968 530.401 219.224 530.401 219.513C530.401 219.755 530.458 219.964 530.57 220.139C530.686 220.315 530.837 220.462 531.023 220.582C531.212 220.698 531.414 220.795 531.629 220.875C531.845 220.951 532.052 221.014 532.251 221.064L533.245 221.322C533.57 221.402 533.903 221.51 534.244 221.646C534.586 221.781 534.902 221.96 535.194 222.183C535.486 222.405 535.721 222.68 535.9 223.008C536.082 223.336 536.173 223.729 536.173 224.186C536.173 224.763 536.024 225.275 535.726 225.722C535.431 226.17 535.002 226.523 534.438 226.781C533.878 227.04 533.2 227.169 532.405 227.169C531.643 227.169 530.983 227.048 530.426 226.806C529.869 226.564 529.434 226.221 529.119 225.777C528.804 225.33 528.63 224.799 528.597 224.186H530.138C530.168 224.554 530.287 224.861 530.496 225.106C530.708 225.348 530.978 225.528 531.306 225.648C531.638 225.764 532.001 225.822 532.395 225.822C532.829 225.822 533.215 225.754 533.553 225.618C533.895 225.479 534.163 225.286 534.359 225.041C534.554 224.793 534.652 224.503 534.652 224.171C534.652 223.87 534.566 223.623 534.394 223.43C534.225 223.238 533.994 223.079 533.703 222.953C533.414 222.827 533.088 222.716 532.723 222.62L531.52 222.292C530.705 222.07 530.058 221.743 529.581 221.312C529.107 220.882 528.87 220.312 528.87 219.602C528.87 219.016 529.029 218.504 529.347 218.066C529.666 217.629 530.097 217.289 530.64 217.047C531.184 216.802 531.797 216.679 532.48 216.679C533.169 216.679 533.777 216.8 534.304 217.042C534.834 217.284 535.252 217.617 535.557 218.041C535.862 218.462 536.021 218.946 536.034 219.493H534.553ZM538.009 227V216.818H544.393V218.141H539.545V221.243H544.06V222.56H539.545V225.678H544.452V227H538.009ZM546.445 227V216.818H547.981V225.678H552.595V227H546.445ZM555.883 216.818V227H554.347V216.818H555.883ZM566.339 216.818V227H564.927L559.751 219.533H559.657V227H558.121V216.818H559.542L564.723 224.295H564.817V216.818H566.339ZM568.58 227V216.818H574.963V218.141H570.116V221.243H574.63V222.56H570.116V225.678H575.023V227H568.58Z" fill="#2F2F2F"/>
<path d="M436 122V121.25H435.25V122H436ZM466.53 122.53C466.823 122.237 466.823 121.763 466.53 121.47L461.757 116.697C461.464 116.404 460.99 116.404 460.697 116.697C460.404 116.99 460.404 117.464 460.697 117.757L464.939 122L460.697 126.243C460.404 126.536 460.404 127.01 460.697 127.303C460.99 127.596 461.464 127.596 461.757 127.303L466.53 122.53ZM436 152H436.75V150.5H436H435.25V152H436ZM436 147.5H436.75V144.5H436H435.25V147.5H436ZM436 141.5H436.75V138.5H436H435.25V141.5H436ZM436 135.5H436.75V132.5H436H435.25V135.5H436ZM436 129.5H436.75V126.5H436H435.25V129.5H436ZM436 123.5H436.75V122H436H435.25V123.5H436ZM436 122V122.75H437.5V122V121.25H436V122ZM440.5 122V122.75H443.5V122V121.25H440.5V122ZM446.5 122V122.75H449.5V122V121.25H446.5V122ZM452.5 122V122.75H455.5V122V121.25H452.5V122ZM458.5 122V122.75H461.5V122V121.25H458.5V122ZM464.5 122V122.75H466V122V121.25H464.5V122Z" fill="#7285FF"/>
<path d="M470.013 223.502V222.752H469.263V223.502H470.013ZM500.543 224.032C500.836 223.739 500.836 223.264 500.543 222.971L495.77 218.198C495.477 217.905 495.002 217.905 494.709 218.198C494.417 218.491 494.417 218.966 494.709 219.259L498.952 223.502L494.709 227.744C494.417 228.037 494.417 228.512 494.709 228.805C495.002 229.098 495.477 229.098 495.77 228.805L500.543 224.032ZM470.013 253.502H470.763V252.002H470.013H469.263V253.502H470.013ZM470.013 249.002H470.763V246.002H470.013H469.263V249.002H470.013ZM470.013 243.002H470.763V240.002H470.013H469.263V243.002H470.013ZM470.013 237.002H470.763V234.002H470.013H469.263V237.002H470.013ZM470.013 231.002H470.763V228.002H470.013H469.263V231.002H470.013ZM470.013 225.002H470.763V223.502H470.013H469.263V225.002H470.013ZM470.013 223.502V224.252H471.513V223.502V222.752H470.013V223.502ZM474.513 223.502V224.252H477.513V223.502V222.752H474.513V223.502ZM480.513 223.502V224.252H483.513V223.502V222.752H480.513V223.502ZM486.513 223.502V224.252H489.513V223.502V222.752H486.513V223.502ZM492.513 223.502V224.252H495.513V223.502V222.752H492.513V223.502ZM498.513 223.502V224.252H500.013V223.502V222.752H498.513V223.502Z" fill="#FF00BF"/>
<path d="M470.013 223.501V222.751H469.263V223.501H470.013ZM500.543 224.032C500.836 223.739 500.836 223.264 500.543 222.971L495.77 218.198C495.477 217.905 495.002 217.905 494.709 218.198C494.417 218.491 494.417 218.966 494.709 219.259L498.952 223.501L494.709 227.744C494.417 228.037 494.417 228.512 494.709 228.805C495.002 229.098 495.477 229.098 495.77 228.805L500.543 224.032ZM470.013 253.501H470.763V252.001H470.013H469.263V253.501H470.013ZM470.013 249.001H470.763V246.001H470.013H469.263V249.001H470.013ZM470.013 243.001H470.763V240.001H470.013H469.263V243.001H470.013ZM470.013 237.001H470.763V234.001H470.013H469.263V237.001H470.013ZM470.013 231.001H470.763V228.001H470.013H469.263V231.001H470.013ZM470.013 225.001H470.763V223.501H470.013H469.263V225.001H470.013ZM470.013 223.501V224.251H471.513V223.501V222.751H470.013V223.501ZM474.513 223.501V224.251H477.513V223.501V222.751H474.513V223.501ZM480.513 223.501V224.251H483.513V223.501V222.751H480.513V223.501ZM486.513 223.501V224.251H489.513V223.501V222.751H486.513V223.501ZM492.513 223.501V224.251H495.513V223.501V222.751H492.513V223.501ZM498.513 223.501V224.251H500.013V223.501V222.751H498.513V223.501Z" fill="#FF00BF"/>
<rect x="174.5" y="292" width="263" height="35" rx="2" fill="#D7D334"/>
<path d="M186.057 315L182.83 303.364H184.676L186.943 312.375H187.051L189.409 303.364H191.239L193.597 312.381H193.705L195.966 303.364H197.818L194.585 315H192.818L190.369 306.284H190.278L187.83 315H186.057ZM201.175 303.364V315H199.419V303.364H201.175ZM207.499 315H203.732V303.364H207.618C208.758 303.364 209.737 303.597 210.555 304.062C211.374 304.525 212 305.189 212.436 306.057C212.875 306.92 213.095 307.956 213.095 309.165C213.095 310.377 212.874 311.419 212.43 312.29C211.991 313.161 211.355 313.831 210.521 314.301C209.688 314.767 208.68 315 207.499 315ZM205.487 313.466H207.402C208.288 313.466 209.025 313.299 209.612 312.966C210.199 312.629 210.639 312.142 210.93 311.506C211.222 310.866 211.368 310.085 211.368 309.165C211.368 308.252 211.222 307.477 210.93 306.841C210.643 306.205 210.213 305.722 209.641 305.392C209.069 305.062 208.358 304.898 207.51 304.898H205.487V313.466ZM214.205 304.875V303.364H223.21V304.875H219.58V315H217.83V304.875H214.205ZM225.2 315V303.364H226.956V308.42H232.757V303.364H234.518V315H232.757V309.926H226.956V315H225.2ZM248.088 313.068L241.554 306.534L242.628 305.46L249.162 311.994L248.088 313.068ZM242.628 313.068L241.554 311.994L248.088 305.46L249.162 306.534L242.628 313.068ZM256.2 315V303.364H257.956V308.42H263.757V303.364H265.518V315H263.757V309.926H257.956V315H256.2ZM268.075 315V303.364H275.371V304.875H269.831V308.42H274.99V309.926H269.831V313.489H275.439V315H268.075ZM279.472 303.364V315H277.716V303.364H279.472ZM289.903 307.04C289.794 306.695 289.646 306.386 289.46 306.114C289.278 305.837 289.061 305.602 288.807 305.409C288.553 305.212 288.263 305.062 287.938 304.96C287.616 304.858 287.261 304.807 286.875 304.807C286.22 304.807 285.629 304.975 285.102 305.312C284.576 305.65 284.159 306.144 283.852 306.795C283.549 307.443 283.398 308.237 283.398 309.176C283.398 310.119 283.551 310.917 283.858 311.568C284.165 312.22 284.585 312.714 285.119 313.051C285.653 313.388 286.261 313.557 286.943 313.557C287.576 313.557 288.127 313.428 288.597 313.17C289.07 312.913 289.436 312.549 289.693 312.08C289.955 311.606 290.085 311.049 290.085 310.409L290.54 310.494H287.21V309.045H291.784V310.369C291.784 311.347 291.576 312.195 291.159 312.915C290.746 313.631 290.174 314.184 289.443 314.574C288.716 314.964 287.883 315.159 286.943 315.159C285.89 315.159 284.966 314.917 284.17 314.432C283.379 313.947 282.761 313.259 282.318 312.369C281.875 311.475 281.653 310.415 281.653 309.188C281.653 308.259 281.782 307.426 282.04 306.688C282.297 305.949 282.659 305.322 283.125 304.807C283.595 304.288 284.146 303.892 284.778 303.619C285.415 303.343 286.11 303.205 286.864 303.205C287.492 303.205 288.078 303.297 288.619 303.483C289.165 303.669 289.65 303.932 290.074 304.273C290.502 304.614 290.856 305.019 291.136 305.489C291.417 305.955 291.606 306.472 291.705 307.04H289.903ZM294.013 315V303.364H295.768V308.42H301.57V303.364H303.331V315H301.57V309.926H295.768V315H294.013ZM305.314 304.875V303.364H314.32V304.875H310.689V315H308.939V304.875H305.314ZM320.953 308.176V306.688H328.232V308.176H320.953ZM320.953 311.676V310.188H328.232V311.676H320.953ZM335.276 315V313.727L339.213 309.648C339.634 309.205 339.98 308.816 340.253 308.483C340.529 308.146 340.736 307.826 340.872 307.523C341.009 307.22 341.077 306.898 341.077 306.557C341.077 306.17 340.986 305.837 340.804 305.557C340.622 305.273 340.374 305.055 340.06 304.903C339.745 304.748 339.391 304.67 338.997 304.67C338.58 304.67 338.217 304.756 337.906 304.926C337.596 305.097 337.357 305.337 337.19 305.648C337.024 305.958 336.94 306.322 336.94 306.739H335.264C335.264 306.03 335.427 305.411 335.753 304.881C336.079 304.35 336.526 303.939 337.094 303.648C337.662 303.352 338.308 303.205 339.031 303.205C339.762 303.205 340.406 303.35 340.963 303.642C341.524 303.93 341.961 304.324 342.276 304.824C342.59 305.32 342.747 305.881 342.747 306.506C342.747 306.938 342.666 307.36 342.503 307.773C342.344 308.186 342.065 308.646 341.668 309.153C341.27 309.657 340.717 310.269 340.009 310.989L337.696 313.409V313.494H342.935V315H335.276ZM344.594 312.727V311.307L349.622 303.364H350.741V305.455H350.031L346.435 311.148V311.239H353.327V312.727H344.594ZM350.111 315V312.295L350.122 311.648V303.364H351.787V315H350.111ZM359.358 315.193C358.46 315.189 357.693 314.953 357.057 314.483C356.42 314.013 355.934 313.33 355.597 312.432C355.259 311.534 355.091 310.453 355.091 309.188C355.091 307.926 355.259 306.848 355.597 305.955C355.938 305.061 356.426 304.379 357.062 303.909C357.703 303.439 358.468 303.205 359.358 303.205C360.248 303.205 361.011 303.441 361.648 303.915C362.284 304.384 362.771 305.066 363.108 305.96C363.449 306.85 363.619 307.926 363.619 309.188C363.619 310.456 363.451 311.54 363.114 312.438C362.777 313.331 362.29 314.015 361.653 314.489C361.017 314.958 360.252 315.193 359.358 315.193ZM359.358 313.676C360.146 313.676 360.761 313.292 361.205 312.523C361.652 311.754 361.875 310.642 361.875 309.188C361.875 308.222 361.773 307.405 361.568 306.739C361.367 306.068 361.078 305.561 360.699 305.216C360.324 304.867 359.877 304.693 359.358 304.693C358.574 304.693 357.958 305.08 357.511 305.852C357.064 306.625 356.839 307.737 356.835 309.188C356.835 310.157 356.936 310.977 357.136 311.648C357.341 312.314 357.631 312.82 358.006 313.165C358.381 313.506 358.831 313.676 359.358 313.676ZM376.807 313.068L370.273 306.534L371.347 305.46L377.881 311.994L376.807 313.068ZM371.347 313.068L370.273 311.994L376.807 305.46L377.881 306.534L371.347 313.068ZM388.692 315.159C387.877 315.159 387.158 315.019 386.533 314.739C385.911 314.458 385.425 314.072 385.072 313.58C384.72 313.087 384.546 312.527 384.55 311.898C384.546 311.405 384.646 310.953 384.851 310.54C385.059 310.123 385.341 309.777 385.697 309.5C386.054 309.22 386.451 309.042 386.891 308.966V308.898C386.311 308.758 385.847 308.447 385.499 307.966C385.15 307.485 384.978 306.932 384.982 306.307C384.978 305.712 385.135 305.182 385.453 304.716C385.775 304.246 386.216 303.877 386.777 303.608C387.338 303.339 387.976 303.205 388.692 303.205C389.4 303.205 390.033 303.341 390.589 303.614C391.15 303.883 391.591 304.252 391.913 304.722C392.235 305.187 392.398 305.716 392.402 306.307C392.398 306.932 392.22 307.485 391.868 307.966C391.516 308.447 391.057 308.758 390.493 308.898V308.966C390.929 309.042 391.321 309.22 391.669 309.5C392.021 309.777 392.302 310.123 392.51 310.54C392.722 310.953 392.83 311.405 392.834 311.898C392.83 312.527 392.652 313.087 392.3 313.58C391.947 314.072 391.459 314.458 390.834 314.739C390.213 315.019 389.499 315.159 388.692 315.159ZM388.692 313.722C389.173 313.722 389.589 313.642 389.942 313.483C390.294 313.32 390.567 313.095 390.76 312.807C390.953 312.515 391.052 312.174 391.055 311.784C391.052 311.379 390.946 311.021 390.737 310.71C390.533 310.4 390.254 310.155 389.902 309.977C389.55 309.799 389.146 309.71 388.692 309.71C388.233 309.71 387.826 309.799 387.47 309.977C387.114 310.155 386.834 310.4 386.629 310.71C386.425 311.021 386.324 311.379 386.328 311.784C386.324 312.174 386.417 312.515 386.607 312.807C386.8 313.095 387.074 313.32 387.43 313.483C387.786 313.642 388.207 313.722 388.692 313.722ZM388.692 308.307C389.078 308.307 389.421 308.229 389.72 308.074C390.019 307.919 390.254 307.703 390.425 307.426C390.599 307.15 390.688 306.826 390.692 306.455C390.688 306.091 390.601 305.773 390.43 305.5C390.264 305.227 390.031 305.017 389.732 304.869C389.432 304.718 389.086 304.642 388.692 304.642C388.29 304.642 387.938 304.718 387.635 304.869C387.336 305.017 387.103 305.227 386.936 305.5C386.769 305.773 386.688 306.091 386.692 306.455C386.688 306.826 386.771 307.15 386.942 307.426C387.112 307.703 387.347 307.919 387.646 308.074C387.949 308.229 388.298 308.307 388.692 308.307ZM398.92 315.193C398.023 315.189 397.256 314.953 396.619 314.483C395.983 314.013 395.496 313.33 395.159 312.432C394.822 311.534 394.653 310.453 394.653 309.188C394.653 307.926 394.822 306.848 395.159 305.955C395.5 305.061 395.989 304.379 396.625 303.909C397.265 303.439 398.03 303.205 398.92 303.205C399.811 303.205 400.574 303.441 401.21 303.915C401.847 304.384 402.333 305.066 402.67 305.96C403.011 306.85 403.182 307.926 403.182 309.188C403.182 310.456 403.013 311.54 402.676 312.438C402.339 313.331 401.852 314.015 401.216 314.489C400.58 314.958 399.814 315.193 398.92 315.193ZM398.92 313.676C399.708 313.676 400.324 313.292 400.767 312.523C401.214 311.754 401.438 310.642 401.438 309.188C401.438 308.222 401.335 307.405 401.131 306.739C400.93 306.068 400.64 305.561 400.261 305.216C399.886 304.867 399.439 304.693 398.92 304.693C398.136 304.693 397.521 305.08 397.074 305.852C396.627 306.625 396.402 307.737 396.398 309.188C396.398 310.157 396.498 310.977 396.699 311.648C396.903 312.314 397.193 312.82 397.568 313.165C397.943 313.506 398.394 313.676 398.92 313.676ZM409.591 315V303.364H413.739C414.644 303.364 415.394 303.528 415.989 303.858C416.583 304.187 417.028 304.638 417.324 305.21C417.619 305.778 417.767 306.419 417.767 307.131C417.767 307.847 417.617 308.491 417.318 309.062C417.023 309.631 416.576 310.081 415.977 310.415C415.383 310.744 414.634 310.909 413.733 310.909H410.881V309.42H413.574C414.146 309.42 414.61 309.322 414.966 309.125C415.322 308.924 415.583 308.652 415.75 308.307C415.917 307.962 416 307.57 416 307.131C416 306.691 415.917 306.301 415.75 305.96C415.583 305.619 415.32 305.352 414.96 305.159C414.604 304.966 414.134 304.869 413.551 304.869H411.347V315H409.591ZM421.047 303.364L423.831 307.915H423.922L426.706 303.364H428.74L425.115 309.182L428.763 315H426.717L423.922 310.511H423.831L421.036 315H418.99L422.7 309.182L419.013 303.364H421.047Z" fill="#2F2F2F"/>
</svg>
