<svg width="538" height="316" viewBox="0 0 538 316" fill="none" xmlns="http://www.w3.org/2000/svg">
<rect width="538" height="316" rx="8" fill="#6175B0"/>
<rect x="24" y="29.5" width="71" height="25" rx="12.5" fill="#FFF9F2"/>
<path d="M33.5038 46.5L34.8898 37.428H35.7018L34.3158 46.5H33.5038ZM32.6358 42.832H39.0058V44.036H32.6358V42.832ZM39.4678 41.068H33.0838V39.85H39.4678V41.068ZM36.4158 46.5L37.8158 37.428H38.6278L37.2278 46.5H36.4158ZM43.628 46.682C42.984 46.682 42.41 46.542 41.906 46.262C41.4113 45.982 41.024 45.5573 40.744 44.988C40.464 44.4093 40.324 43.6907 40.324 42.832C40.324 42.1227 40.4547 41.4553 40.716 40.83C40.9773 40.2047 41.3553 39.6447 41.85 39.15C42.354 38.6553 42.9653 38.2493 43.684 37.932C44.412 37.6053 45.238 37.3953 46.162 37.302L46.302 37.904C45.518 38.0813 44.846 38.324 44.286 38.632C43.7353 38.94 43.2827 39.3087 42.928 39.738C42.5827 40.158 42.3307 40.634 42.172 41.166C42.0133 41.698 41.934 42.2767 41.934 42.902C41.934 43.6487 42.004 44.246 42.144 44.694C42.2933 45.1327 42.494 45.4547 42.746 45.66C42.998 45.856 43.2873 45.954 43.614 45.954C43.95 45.954 44.2393 45.87 44.482 45.702C44.7247 45.534 44.9113 45.2913 45.042 44.974C45.1727 44.6473 45.238 44.2553 45.238 43.798C45.238 43.1727 45.0933 42.7013 44.804 42.384C44.5147 42.0573 44.1227 41.894 43.628 41.894C43.2827 41.894 42.9513 41.95 42.634 42.062C42.3167 42.174 42.018 42.37 41.738 42.65L41.528 42.146L41.836 42.188C42.116 41.7773 42.452 41.4647 42.844 41.25C43.236 41.0353 43.6933 40.928 44.216 40.928C44.7573 40.928 45.2193 41.0447 45.602 41.278C45.9847 41.502 46.2787 41.8193 46.484 42.23C46.6893 42.6407 46.792 43.1213 46.792 43.672C46.792 44.1387 46.708 44.5587 46.54 44.932C46.3813 45.296 46.1573 45.6087 45.868 45.87C45.5787 46.1313 45.238 46.332 44.846 46.472C44.4633 46.612 44.0573 46.682 43.628 46.682ZM48.4732 46.5V45.758L50.6292 45.59H51.7072L53.8212 45.758V46.5H48.4732ZM50.3632 46.5C50.3725 46.0987 50.3772 45.6973 50.3772 45.296C50.3772 44.8947 50.3772 44.4933 50.3772 44.092C50.3865 43.6813 50.3912 43.2753 50.3912 42.874V38.758L48.6132 38.996V38.226L51.5812 37.428L52.0012 37.498L51.9732 40.48V42.874C51.9732 43.2753 51.9732 43.6813 51.9732 44.092C51.9732 44.4933 51.9732 44.8947 51.9732 45.296C51.9825 45.6973 51.9872 46.0987 51.9872 46.5H50.3632ZM56.7484 46.5L56.6784 46.248L61.0464 38.562L60.9624 39.164L60.9204 38.814H55.5584V37.484H61.7744V38.31L58.3584 46.5H56.7484ZM65.8076 46.682C64.9956 46.682 64.3469 46.514 63.8616 46.178C63.3856 45.8327 63.0823 45.352 62.9516 44.736C63.0076 44.5587 63.1009 44.414 63.2316 44.302C63.3716 44.19 63.5443 44.134 63.7496 44.134C64.0016 44.134 64.1976 44.2087 64.3376 44.358C64.4869 44.498 64.6036 44.7593 64.6876 45.142L64.9116 46.22L64.2816 45.716C64.5149 45.8093 64.7436 45.8747 64.9676 45.912C65.2009 45.94 65.4343 45.954 65.6676 45.954C66.1063 45.954 66.4796 45.87 66.7876 45.702C67.0956 45.534 67.3289 45.296 67.4876 44.988C67.6463 44.68 67.7256 44.3113 67.7256 43.882C67.7256 43.4433 67.6463 43.0747 67.4876 42.776C67.3383 42.4773 67.1143 42.2533 66.8156 42.104C66.5263 41.9453 66.1669 41.866 65.7376 41.866C65.4296 41.866 65.1589 41.8847 64.9256 41.922C64.7016 41.95 64.4823 42.0013 64.2676 42.076L63.7216 41.838L64.0296 37.484H69.0416V38.814H64.2816L64.8136 37.974L64.5616 41.586L64.3516 41.488C64.5943 41.3107 64.8649 41.18 65.1636 41.096C65.4716 41.0027 65.8029 40.956 66.1576 40.956C66.8109 40.956 67.3756 41.0633 67.8516 41.278C68.3276 41.4927 68.6963 41.81 68.9576 42.23C69.2189 42.65 69.3496 43.1587 69.3496 43.756C69.3496 44.3533 69.2003 44.8713 68.9016 45.31C68.6123 45.7487 68.1969 46.0893 67.6556 46.332C67.1236 46.5653 66.5076 46.682 65.8076 46.682ZM70.4288 46.5V45.73L72.2068 45.618H72.3888V46.5H70.4288ZM71.7448 46.5C71.7541 46.024 71.7588 45.548 71.7588 45.072C71.7588 44.5867 71.7588 44.106 71.7588 43.63C71.7588 43.1447 71.7588 42.6593 71.7588 42.174V41.488C71.7588 41.0027 71.7588 40.522 71.7588 40.046C71.7588 39.5607 71.7588 39.08 71.7588 38.604C71.7588 38.1187 71.7541 37.638 71.7448 37.162H73.4388C73.4388 37.638 73.4341 38.1187 73.4248 38.604C73.4248 39.08 73.4248 39.556 73.4248 40.032C73.4248 40.508 73.4248 40.9933 73.4248 41.488V42.09C73.4248 42.594 73.4248 43.0933 73.4248 43.588C73.4248 44.0827 73.4248 44.5727 73.4248 45.058C73.4341 45.534 73.4388 46.0147 73.4388 46.5H71.7448ZM72.7808 46.5V45.702H74.3348C75.2121 45.702 75.8561 45.548 76.2668 45.24C76.6775 44.9227 76.8828 44.47 76.8828 43.882C76.8828 43.2753 76.6775 42.818 76.2668 42.51C75.8655 42.202 75.2261 42.048 74.3488 42.048H72.6408V41.278H74.2648C74.7595 41.278 75.1655 41.2173 75.4828 41.096C75.8095 40.9653 76.0521 40.774 76.2108 40.522C76.3695 40.27 76.4488 39.9527 76.4488 39.57C76.4488 39.1873 76.3695 38.8793 76.2108 38.646C76.0615 38.4033 75.8328 38.226 75.5248 38.114C75.2261 38.002 74.8481 37.946 74.3908 37.946H72.7808V37.162H74.7268C75.4268 37.162 76.0288 37.2553 76.5328 37.442C77.0368 37.6193 77.4241 37.876 77.6948 38.212C77.9655 38.5387 78.1008 38.9353 78.1008 39.402C78.1008 39.85 77.9841 40.228 77.7508 40.536C77.5175 40.844 77.1815 41.0867 76.7428 41.264C76.3135 41.432 75.7955 41.5347 75.1888 41.572V41.656C75.9168 41.684 76.5328 41.7867 77.0368 41.964C77.5501 42.132 77.9375 42.3747 78.1988 42.692C78.4695 43.0093 78.6048 43.406 78.6048 43.882C78.6048 44.246 78.5208 44.5913 78.3528 44.918C78.1941 45.2353 77.9468 45.5153 77.6108 45.758C77.2841 45.9913 76.8688 46.1733 76.3648 46.304C75.8608 46.4347 75.2635 46.5 74.5728 46.5H72.7808ZM70.4288 37.932V37.162H72.3888V38.044H72.2068L70.4288 37.932ZM82.947 46.682C82.331 46.682 81.7757 46.5187 81.281 46.192C80.7863 45.856 80.3943 45.3473 80.105 44.666C79.825 43.9753 79.685 43.098 79.685 42.034C79.685 40.9607 79.825 40.074 80.105 39.374C80.3943 38.674 80.7863 38.156 81.281 37.82C81.7757 37.4747 82.331 37.302 82.947 37.302C83.563 37.302 84.1137 37.47 84.599 37.806C85.0937 38.1327 85.481 38.6413 85.761 39.332C86.0503 40.0227 86.195 40.9047 86.195 41.978C86.195 43.042 86.0503 43.924 85.761 44.624C85.481 45.3147 85.0937 45.8327 84.599 46.178C84.1137 46.514 83.563 46.682 82.947 46.682ZM82.947 45.954C83.2177 45.954 83.451 45.884 83.647 45.744C83.8523 45.5947 84.0203 45.3613 84.151 45.044C84.291 44.7267 84.3937 44.3207 84.459 43.826C84.5337 43.322 84.571 42.7153 84.571 42.006C84.571 41.2873 84.5337 40.676 84.459 40.172C84.3937 39.668 84.291 39.2573 84.151 38.94C84.0203 38.6227 83.8523 38.394 83.647 38.254C83.451 38.1047 83.2177 38.03 82.947 38.03C82.6763 38.03 82.4383 38.1047 82.233 38.254C82.0277 38.394 81.855 38.6227 81.715 38.94C81.5843 39.2573 81.4817 39.668 81.407 40.172C81.3417 40.676 81.309 41.2873 81.309 42.006C81.309 42.7153 81.3417 43.322 81.407 43.826C81.4817 44.33 81.5843 44.7407 81.715 45.058C81.855 45.366 82.0277 45.5947 82.233 45.744C82.4383 45.884 82.6763 45.954 82.947 45.954Z" fill="#6175B0"/>
<rect x="103" y="29.5" width="37" height="25" rx="12.5" fill="#FFF9F2"/>
<path d="M111.647 46.5V45.73L113.089 45.618H113.383L114.965 45.73V46.5H111.647ZM112.487 46.5L115.777 37.106H117.107L120.425 46.5H118.675L115.931 38.38H115.945L115.623 39.78L113.369 46.5H112.487ZM114.069 43.616V42.832H118.311V43.616H114.069ZM117.023 46.5V45.73L118.843 45.618H119.417L121.237 45.73V46.5H117.023ZM121.723 46.5V45.73L123.165 45.618H123.459L125.041 45.73V46.5H121.723ZM122.563 46.5L125.853 37.106H127.183L130.501 46.5H128.751L126.007 38.38H126.021L125.699 39.78L123.445 46.5H122.563ZM124.145 43.616V42.832H128.387V43.616H124.145ZM127.099 46.5V45.73L128.919 45.618H129.493L131.313 45.73V46.5H127.099Z" fill="#6175B0"/>
<path d="M25.935 100.5V78.375H29.895V99.315L28.11 97.23H38.28V100.5H25.935ZM40.4138 100.5L46.1288 78.345H52.3688L58.0388 100.5H53.9738L49.2338 80.79H49.2638L44.4788 100.5H40.4138ZM44.1038 95.115V91.95H54.3938V95.115H44.1038ZM68.119 89.61L68.224 86.565L77.074 100.5H72.709L65.944 89.61L67.774 89.865L64.369 94.425L64.714 91.92V100.5H60.769V78.375H64.714V90.09L63.964 89.58L72.364 78.375H76.594L68.119 89.61ZM82.0313 81.525L83.8163 79.56V89.01L82.8863 87.825H91.1663V90.975H82.8863L83.8163 89.805V99.315L82.0313 97.35H92.8313V100.5H79.8413V78.375H92.8313V81.525H82.0313ZM111.402 100.83C109.832 100.83 108.462 100.58 107.292 100.08C106.122 99.58 105.212 98.83 104.562 97.83C103.912 96.82 103.587 95.57 103.587 94.08C103.587 93.91 103.587 93.76 103.587 93.63C103.587 93.49 103.587 93.335 103.587 93.165H107.532C107.532 93.315 107.532 93.455 107.532 93.585C107.532 93.705 107.532 93.845 107.532 94.005C107.532 95.205 107.857 96.105 108.507 96.705C109.167 97.295 110.137 97.59 111.417 97.59C112.707 97.59 113.692 97.375 114.372 96.945C115.062 96.515 115.407 95.825 115.407 94.875C115.407 94.185 115.172 93.6 114.702 93.12C114.242 92.63 113.607 92.2 112.797 91.83C111.987 91.46 111.067 91.115 110.037 90.795C108.877 90.435 107.822 89.97 106.872 89.4C105.922 88.83 105.162 88.11 104.592 87.24C104.022 86.37 103.737 85.3 103.737 84.03C103.737 82.76 104.062 81.68 104.712 80.79C105.372 79.9 106.272 79.225 107.412 78.765C108.562 78.295 109.867 78.06 111.327 78.06C112.857 78.06 114.202 78.3 115.362 78.78C116.532 79.26 117.447 79.975 118.107 80.925C118.767 81.875 119.097 83.06 119.097 84.48C119.097 84.67 119.097 84.835 119.097 84.975C119.097 85.115 119.097 85.275 119.097 85.455H115.137C115.137 85.325 115.137 85.195 115.137 85.065C115.137 84.925 115.137 84.79 115.137 84.66C115.137 83.52 114.827 82.68 114.207 82.14C113.587 81.59 112.647 81.315 111.387 81.315C110.157 81.315 109.212 81.53 108.552 81.96C107.892 82.39 107.562 83.075 107.562 84.015C107.562 84.715 107.787 85.3 108.237 85.77C108.687 86.24 109.302 86.65 110.082 87C110.872 87.34 111.767 87.685 112.767 88.035C114.097 88.475 115.247 88.975 116.217 89.535C117.187 90.085 117.937 90.775 118.467 91.605C118.997 92.425 119.262 93.47 119.262 94.74C119.262 96.04 118.932 97.145 118.272 98.055C117.622 98.955 116.707 99.645 115.527 100.125C114.357 100.595 112.982 100.83 111.402 100.83ZM122.527 100.5V78.375H126.487V99.315L124.702 97.23H134.872V100.5H122.527ZM137.006 100.5L142.721 78.345H148.961L154.631 100.5H150.566L145.826 80.79H145.856L141.071 100.5H137.006ZM140.696 95.115V91.95H150.986V95.115H140.696ZM169.133 81.525H162.128L163.583 79.56V100.5H159.623V79.56L161.153 81.525H154.088V78.375H169.133V81.525ZM174.316 81.525L176.101 79.56V89.01L175.171 87.825H183.451V90.975H175.171L176.101 89.805V99.315L174.316 97.35H185.116V100.5H172.126V78.375H185.116V81.525H174.316Z" fill="#FFF9F2"/>
<path d="M31.038 128.77C30.126 128.77 29.292 128.62 28.536 128.32C27.78 128.02 27.126 127.594 26.574 127.042C26.022 126.49 25.596 125.83 25.296 125.062C24.996 124.282 24.846 123.424 24.846 122.488C24.846 121.552 25.002 120.7 25.314 119.932C25.626 119.164 26.058 118.498 26.61 117.934C27.174 117.37 27.834 116.938 28.59 116.638C29.346 116.326 30.168 116.17 31.056 116.17C31.608 116.17 32.19 116.236 32.802 116.368C33.414 116.488 34.002 116.704 34.566 117.016L34.638 119.644H33.522L33.054 116.998L34.188 117.214V118.294C33.708 117.862 33.216 117.556 32.712 117.376C32.208 117.196 31.716 117.106 31.236 117.106C30.42 117.106 29.676 117.316 29.004 117.736C28.344 118.144 27.816 118.744 27.42 119.536C27.024 120.328 26.826 121.306 26.826 122.47C26.826 123.634 27.006 124.618 27.366 125.422C27.738 126.214 28.248 126.814 28.896 127.222C29.556 127.63 30.3 127.834 31.128 127.834C31.692 127.834 32.25 127.744 32.802 127.564C33.366 127.384 33.894 127.102 34.386 126.718V127.726L33.234 127.942L33.702 125.278H34.818L34.746 127.924C34.23 128.2 33.654 128.41 33.018 128.554C32.394 128.698 31.734 128.77 31.038 128.77ZM38.7893 128.752C38.1173 128.752 37.5413 128.56 37.0613 128.176C36.5933 127.78 36.3593 127.21 36.3593 126.466C36.3593 126.082 36.4373 125.734 36.5933 125.422C36.7613 125.098 37.0553 124.798 37.4753 124.522C37.9073 124.246 38.5193 123.994 39.3113 123.766C39.6473 123.658 39.9713 123.562 40.2832 123.478C40.6073 123.382 40.9253 123.292 41.2373 123.208C41.5613 123.112 41.8853 123.022 42.2093 122.938V123.604C41.7893 123.736 41.3753 123.868 40.9673 124C40.5593 124.132 40.1513 124.264 39.7433 124.396C39.2273 124.564 38.8433 124.75 38.5913 124.954C38.3393 125.146 38.1713 125.35 38.0873 125.566C38.0153 125.77 37.9793 125.98 37.9793 126.196C37.9793 126.652 38.1173 126.988 38.3933 127.204C38.6693 127.42 39.0173 127.528 39.4373 127.528C39.6773 127.528 39.8993 127.492 40.1033 127.42C40.3073 127.336 40.5473 127.198 40.8232 127.006C41.1113 126.802 41.4773 126.526 41.9213 126.178L42.1373 127.114H41.5613C41.2373 127.462 40.9373 127.756 40.6613 127.996C40.3973 128.236 40.1153 128.422 39.8153 128.554C39.5273 128.686 39.1853 128.752 38.7893 128.752ZM43.1813 128.68C42.6773 128.68 42.2693 128.518 41.9573 128.194C41.6573 127.858 41.5013 127.396 41.4893 126.808V126.736V122.668C41.4893 122.092 41.4293 121.648 41.3093 121.336C41.1893 121.012 40.9973 120.79 40.7333 120.67C40.4693 120.538 40.1333 120.472 39.7253 120.472C39.4853 120.472 39.2273 120.496 38.9513 120.544C38.6873 120.592 38.3933 120.682 38.0693 120.814L38.8073 120.184L38.4113 121.75C38.3393 122.05 38.2253 122.278 38.0693 122.434C37.9133 122.59 37.7093 122.668 37.4573 122.668C37.1933 122.668 36.9893 122.602 36.8453 122.47C36.7013 122.326 36.6113 122.146 36.5753 121.93C36.7433 121.222 37.1453 120.664 37.7812 120.256C38.4293 119.836 39.2213 119.626 40.1572 119.626C40.7933 119.626 41.3213 119.728 41.7413 119.932C42.1613 120.136 42.4793 120.466 42.6953 120.922C42.9233 121.378 43.0373 121.984 43.0373 122.74V126.628C43.0373 127.012 43.0973 127.288 43.2173 127.456C43.3373 127.612 43.5053 127.69 43.7213 127.69C43.8773 127.69 44.0093 127.66 44.1173 127.6C44.2253 127.528 44.3273 127.438 44.4233 127.33L44.7653 127.816C44.5613 128.116 44.3273 128.338 44.0633 128.482C43.8113 128.614 43.5173 128.68 43.1813 128.68ZM45.4048 128.5V127.78L47.4388 127.474H47.8708L49.9228 127.78V128.5H45.4048ZM46.8448 128.5C46.8568 128.08 46.8628 127.66 46.8628 127.24C46.8628 126.808 46.8628 126.382 46.8628 125.962C46.8748 125.53 46.8808 125.104 46.8808 124.684V116.854L45.3868 116.638V115.954L48.1588 115.216L48.5008 115.324L48.4288 117.808V124.684C48.4288 125.104 48.4288 125.53 48.4288 125.962C48.4408 126.382 48.4468 126.808 48.4468 127.24C48.4588 127.66 48.4708 128.08 48.4828 128.5H46.8448ZM51.1579 128.5V127.78L53.1379 127.474H53.5699L55.4059 127.78V128.5H51.1579ZM52.5079 128.5C52.5079 128.2 52.5079 127.828 52.5079 127.384C52.5199 126.928 52.5259 126.46 52.5259 125.98C52.5379 125.5 52.5439 125.068 52.5439 124.684V123.802C52.5439 123.478 52.5379 123.19 52.5259 122.938C52.5259 122.686 52.5199 122.446 52.5079 122.218C52.5079 121.99 52.5079 121.75 52.5079 121.498L51.0499 121.372V120.688L53.5159 119.662L53.8579 119.806L54.0919 121.84L54.1099 121.876V124.684C54.1099 125.068 54.1099 125.5 54.1099 125.98C54.1219 126.46 54.1279 126.928 54.1279 127.384C54.1399 127.828 54.1459 128.2 54.1459 128.5H52.5079ZM56.6659 128.5V127.78L58.6459 127.474H59.0779L60.9319 127.78V128.5H56.6659ZM58.0159 128.5C58.0159 128.2 58.0159 127.828 58.0159 127.384C58.0279 126.94 58.0339 126.478 58.0339 125.998C58.0459 125.518 58.0519 125.08 58.0519 124.684V123.082C58.0519 122.29 57.9379 121.738 57.7099 121.426C57.4819 121.114 57.0979 120.958 56.5579 120.958C56.2699 120.958 55.9819 121 55.6939 121.084C55.4179 121.168 55.1299 121.306 54.8299 121.498C54.5419 121.678 54.2359 121.906 53.9119 122.182L53.6779 121.534H53.9299C54.1939 121.174 54.4999 120.85 54.8479 120.562C55.2079 120.274 55.5859 120.046 55.9819 119.878C56.3899 119.71 56.8039 119.626 57.2239 119.626C58.0279 119.626 58.6219 119.89 59.0059 120.418C59.4019 120.934 59.5999 121.762 59.5999 122.902V124.684C59.5999 125.08 59.5999 125.518 59.5999 125.998C59.6119 126.478 59.6179 126.94 59.6179 127.384C59.6299 127.828 59.6419 128.2 59.6539 128.5H58.0159ZM62.1739 128.5V127.78L64.1539 127.474H64.5859L66.4399 127.78V128.5H62.1739ZM63.5239 128.5C63.5239 128.2 63.5239 127.828 63.5239 127.384C63.5359 126.94 63.5419 126.478 63.5419 125.998C63.5539 125.518 63.5599 125.08 63.5599 124.684V123.064C63.5599 122.248 63.4399 121.696 63.1999 121.408C62.9599 121.108 62.5699 120.958 62.0299 120.958C61.7659 120.958 61.4959 121 61.2199 121.084C60.9439 121.156 60.6559 121.282 60.3559 121.462C60.0679 121.642 59.7559 121.882 59.4199 122.182L59.1139 121.57H59.3659C59.6659 121.15 59.9899 120.796 60.3379 120.508C60.6979 120.208 61.0759 119.986 61.4719 119.842C61.8799 119.698 62.2999 119.626 62.7319 119.626C63.4999 119.626 64.0879 119.872 64.4959 120.364C64.9039 120.856 65.1079 121.648 65.1079 122.74V124.684C65.1079 125.08 65.1079 125.518 65.1079 125.998C65.1199 126.478 65.1259 126.94 65.1259 127.384C65.1379 127.828 65.1499 128.2 65.1619 128.5H63.5239ZM73.6997 120.832V119.842H76.9577V120.832H73.6997ZM75.0317 128.716C74.3837 128.716 73.8677 128.542 73.4837 128.194C73.0997 127.846 72.9077 127.312 72.9077 126.592C72.9077 126.364 72.9077 126.142 72.9077 125.926C72.9197 125.71 72.9257 125.44 72.9257 125.116V120.832H71.3957V120.022L73.6637 119.752L72.9437 120.328L73.5197 117.394H74.6177L74.4557 120.292L74.4917 120.598V126.394C74.4917 126.862 74.5817 127.204 74.7617 127.42C74.9537 127.624 75.2057 127.726 75.5177 127.726C75.7337 127.726 75.9317 127.684 76.1117 127.6C76.3037 127.516 76.5077 127.408 76.7237 127.276L77.1377 127.816C76.9937 127.996 76.8137 128.158 76.5977 128.302C76.3937 128.434 76.1597 128.536 75.8957 128.608C75.6317 128.68 75.3437 128.716 75.0317 128.716ZM77.8206 128.5V127.78L79.8006 127.474H80.2506L82.0866 127.78V128.5H77.8206ZM79.1886 128.5C79.2006 128.2 79.2066 127.828 79.2066 127.384C79.2066 126.928 79.2066 126.46 79.2066 125.98C79.2186 125.5 79.2246 125.068 79.2246 124.684V116.854L77.7306 116.638V115.954L80.4666 115.216L80.7906 115.324L80.7366 117.808L80.7186 121.642L80.7726 121.84V124.684C80.7726 125.068 80.7726 125.5 80.7726 125.98C80.7846 126.46 80.7906 126.928 80.7906 127.384C80.8026 127.828 80.8146 128.2 80.8266 128.5H79.1886ZM83.5086 128.5V127.78L85.4706 127.474H85.9206L87.7566 127.78V128.5H83.5086ZM84.8226 128.5C84.8346 128.2 84.8406 127.828 84.8406 127.384C84.8526 126.94 84.8586 126.478 84.8586 125.998C84.8586 125.518 84.8586 125.08 84.8586 124.684V123.082C84.8586 122.278 84.7386 121.726 84.4986 121.426C84.2706 121.114 83.8926 120.958 83.3646 120.958C83.0646 120.958 82.7706 121 82.4826 121.084C82.1946 121.168 81.9006 121.3 81.6006 121.48C81.3006 121.66 80.9826 121.9 80.6466 122.2L80.3766 121.498H80.6826C80.9586 121.138 81.2766 120.82 81.6366 120.544C81.9966 120.256 82.3806 120.034 82.7886 119.878C83.2086 119.71 83.6286 119.626 84.0486 119.626C84.8526 119.626 85.4466 119.89 85.8306 120.418C86.2266 120.934 86.4246 121.762 86.4246 122.902V124.684C86.4246 125.08 86.4246 125.518 86.4246 125.998C86.4366 126.478 86.4426 126.94 86.4426 127.384C86.4546 127.828 86.4666 128.2 86.4786 128.5H84.8226ZM88.9492 128.5V127.78L90.9292 127.474H91.3792L93.2332 127.78V128.5H88.9492ZM90.2992 128.5C90.3112 128.2 90.3172 127.828 90.3172 127.384C90.3292 126.928 90.3352 126.46 90.3352 125.98C90.3472 125.5 90.3532 125.068 90.3532 124.684V123.82C90.3532 123.34 90.3472 122.926 90.3352 122.578C90.3352 122.23 90.3232 121.87 90.2992 121.498L88.8592 121.372V120.688L91.6132 119.662L91.9552 119.806L91.9012 122.164V124.684C91.9012 125.068 91.9012 125.5 91.9012 125.98C91.9132 126.46 91.9192 126.928 91.9192 127.384C91.9312 127.828 91.9432 128.2 91.9552 128.5H90.2992ZM91.0372 117.844C90.7012 117.844 90.4132 117.736 90.1732 117.52C89.9452 117.292 89.8312 117.01 89.8312 116.674C89.8312 116.338 89.9452 116.062 90.1732 115.846C90.4132 115.618 90.7012 115.504 91.0372 115.504C91.3852 115.504 91.6732 115.618 91.9012 115.846C92.1412 116.062 92.2612 116.338 92.2612 116.674C92.2612 117.01 92.1412 117.292 91.9012 117.52C91.6732 117.736 91.3852 117.844 91.0372 117.844ZM94.5583 128.5V127.78L96.5383 127.474H96.9703L98.8063 127.78V128.5H94.5583ZM95.9083 128.5C95.9083 128.2 95.9083 127.828 95.9083 127.384C95.9203 126.928 95.9263 126.46 95.9263 125.98C95.9383 125.5 95.9443 125.068 95.9443 124.684V123.802C95.9443 123.478 95.9383 123.19 95.9263 122.938C95.9263 122.686 95.9203 122.446 95.9083 122.218C95.9083 121.99 95.9083 121.75 95.9083 121.498L94.4503 121.372V120.688L96.9163 119.662L97.2583 119.806L97.4923 121.84L97.5103 121.858V124.684C97.5103 125.068 97.5103 125.5 97.5103 125.98C97.5223 126.46 97.5283 126.928 97.5283 127.384C97.5403 127.828 97.5463 128.2 97.5463 128.5H95.9083ZM100.156 128.5V127.78L102.136 127.474H102.568L104.422 127.78V128.5H100.156ZM101.488 128.5C101.5 128.2 101.506 127.828 101.506 127.384C101.518 126.94 101.524 126.478 101.524 125.998C101.536 125.518 101.542 125.08 101.542 124.684V123.082C101.542 122.278 101.422 121.726 101.182 121.426C100.942 121.114 100.552 120.958 100.012 120.958C99.7243 120.958 99.4363 121 99.1483 121.084C98.8603 121.168 98.5663 121.3 98.2663 121.48C97.9663 121.66 97.6483 121.894 97.3123 122.182L97.1143 121.48H97.3483C97.6363 121.12 97.9603 120.802 98.3203 120.526C98.6803 120.25 99.0643 120.034 99.4723 119.878C99.8803 119.71 100.288 119.626 100.696 119.626C101.5 119.626 102.1 119.89 102.496 120.418C102.892 120.934 103.09 121.762 103.09 122.902V124.684C103.09 125.08 103.09 125.518 103.09 125.998C103.102 126.478 103.108 126.94 103.108 127.384C103.108 127.828 103.114 128.2 103.126 128.5H101.488ZM105.469 128.5V127.78L107.503 127.474H107.935L109.987 127.78V128.5H105.469ZM106.909 128.5C106.921 128.188 106.927 127.876 106.927 127.564C106.927 127.24 106.927 126.922 106.927 126.61C106.939 126.286 106.945 125.962 106.945 125.638C106.945 125.314 106.945 124.996 106.945 124.684V116.854L105.451 116.638V115.954L108.223 115.216L108.565 115.324L108.493 117.808V124.684C108.493 124.996 108.493 125.314 108.493 125.638C108.493 125.962 108.493 126.286 108.493 126.61C108.505 126.922 108.511 127.24 108.511 127.564C108.523 127.876 108.535 128.188 108.547 128.5H106.909ZM107.755 125.98V124.774H107.953L110.311 122.29L112.669 119.842H113.857L107.755 125.98ZM112.507 128.5L109.519 123.676L110.599 122.578L113.785 127.582L115.009 127.798V128.5H112.507ZM110.257 120.598V119.842H114.577V120.598L112.507 120.886L112.021 120.976L110.257 120.598ZM119.778 128.734C118.914 128.734 118.164 128.56 117.528 128.212C116.904 127.852 116.418 127.342 116.07 126.682C115.734 126.01 115.566 125.212 115.566 124.288C115.566 123.352 115.746 122.536 116.106 121.84C116.478 121.144 116.976 120.604 117.6 120.22C118.236 119.824 118.938 119.626 119.706 119.626C120.378 119.626 120.972 119.764 121.488 120.04C122.004 120.316 122.412 120.712 122.712 121.228C123.012 121.744 123.162 122.368 123.162 123.1C123.162 123.316 123.15 123.52 123.126 123.712C123.102 123.892 123.072 124.048 123.036 124.18H116.34V123.388H120.66C121.08 123.364 121.35 123.268 121.47 123.1C121.59 122.92 121.65 122.71 121.65 122.47C121.65 122.038 121.572 121.678 121.416 121.39C121.26 121.09 121.038 120.868 120.75 120.724C120.462 120.568 120.114 120.49 119.706 120.49C119.286 120.49 118.878 120.61 118.482 120.85C118.098 121.09 117.786 121.474 117.546 122.002C117.306 122.518 117.186 123.208 117.186 124.072C117.186 124.816 117.306 125.446 117.546 125.962C117.786 126.478 118.128 126.874 118.572 127.15C119.028 127.414 119.562 127.546 120.174 127.546C120.762 127.546 121.266 127.444 121.686 127.24C122.118 127.036 122.514 126.736 122.874 126.34L123.306 126.7C123.054 127.096 122.772 127.45 122.46 127.762C122.148 128.074 121.776 128.314 121.344 128.482C120.924 128.65 120.402 128.734 119.778 128.734ZM124.829 128.5V127.78L126.809 127.474H127.277L129.347 127.78V128.5H124.829ZM126.143 128.5C126.155 128.2 126.161 127.828 126.161 127.384C126.173 126.928 126.179 126.46 126.179 125.98C126.191 125.5 126.197 125.068 126.197 124.684V123.802C126.197 123.478 126.191 123.19 126.179 122.938C126.179 122.686 126.173 122.446 126.161 122.218C126.161 121.99 126.155 121.75 126.143 121.498L124.703 121.372V120.688L127.169 119.662L127.511 119.806L127.727 122.128L127.763 122.146V124.684C127.763 125.068 127.763 125.5 127.763 125.98C127.763 126.46 127.763 126.928 127.763 127.384C127.775 127.828 127.787 128.2 127.799 128.5H126.143ZM127.673 123.478L127.457 122.218H127.709C127.913 121.678 128.153 121.216 128.429 120.832C128.705 120.448 129.011 120.154 129.347 119.95C129.683 119.734 130.025 119.626 130.373 119.626C130.685 119.626 130.955 119.698 131.183 119.842C131.423 119.974 131.597 120.142 131.705 120.346C131.693 120.754 131.597 121.078 131.417 121.318C131.249 121.558 130.979 121.678 130.607 121.678C130.379 121.678 130.175 121.636 129.995 121.552C129.815 121.468 129.641 121.354 129.473 121.21L129.023 120.778L129.923 120.652C129.347 120.94 128.879 121.324 128.519 121.804C128.171 122.272 127.889 122.83 127.673 123.478ZM134.419 128.734C134.059 128.734 133.753 128.608 133.501 128.356C133.261 128.104 133.141 127.804 133.141 127.456C133.141 127.096 133.261 126.79 133.501 126.538C133.753 126.286 134.059 126.16 134.419 126.16C134.779 126.16 135.085 126.286 135.337 126.538C135.589 126.79 135.715 127.096 135.715 127.456C135.715 127.804 135.589 128.104 135.337 128.356C135.085 128.608 134.779 128.734 134.419 128.734ZM134.419 122.578C134.059 122.578 133.753 122.452 133.501 122.2C133.261 121.948 133.141 121.648 133.141 121.3C133.141 120.94 133.261 120.634 133.501 120.382C133.753 120.13 134.059 120.004 134.419 120.004C134.779 120.004 135.085 120.13 135.337 120.382C135.589 120.634 135.715 120.94 135.715 121.3C135.715 121.648 135.589 121.948 135.337 122.2C135.085 122.452 134.779 122.578 134.419 122.578ZM148.39 128.77C147.478 128.77 146.644 128.62 145.888 128.32C145.132 128.02 144.478 127.594 143.926 127.042C143.374 126.49 142.948 125.83 142.648 125.062C142.348 124.282 142.198 123.424 142.198 122.488C142.198 121.552 142.354 120.7 142.666 119.932C142.978 119.164 143.41 118.498 143.962 117.934C144.526 117.37 145.186 116.938 145.942 116.638C146.698 116.326 147.52 116.17 148.408 116.17C148.96 116.17 149.542 116.236 150.154 116.368C150.766 116.488 151.354 116.704 151.918 117.016L151.99 119.644H150.874L150.406 116.998L151.54 117.214V118.294C151.06 117.862 150.568 117.556 150.064 117.376C149.56 117.196 149.068 117.106 148.588 117.106C147.772 117.106 147.028 117.316 146.356 117.736C145.696 118.144 145.168 118.744 144.772 119.536C144.376 120.328 144.178 121.306 144.178 122.47C144.178 123.634 144.358 124.618 144.718 125.422C145.09 126.214 145.6 126.814 146.248 127.222C146.908 127.63 147.652 127.834 148.48 127.834C149.044 127.834 149.602 127.744 150.154 127.564C150.718 127.384 151.246 127.102 151.738 126.718V127.726L150.586 127.942L151.054 125.278H152.17L152.098 127.924C151.582 128.2 151.006 128.41 150.37 128.554C149.746 128.698 149.086 128.77 148.39 128.77ZM156.141 128.752C155.469 128.752 154.893 128.56 154.413 128.176C153.945 127.78 153.711 127.21 153.711 126.466C153.711 126.082 153.789 125.734 153.945 125.422C154.113 125.098 154.407 124.798 154.827 124.522C155.259 124.246 155.871 123.994 156.663 123.766C156.999 123.658 157.323 123.562 157.635 123.478C157.959 123.382 158.277 123.292 158.589 123.208C158.913 123.112 159.237 123.022 159.561 122.938V123.604C159.141 123.736 158.727 123.868 158.319 124C157.911 124.132 157.503 124.264 157.095 124.396C156.579 124.564 156.195 124.75 155.943 124.954C155.691 125.146 155.523 125.35 155.439 125.566C155.367 125.77 155.331 125.98 155.331 126.196C155.331 126.652 155.469 126.988 155.745 127.204C156.021 127.42 156.369 127.528 156.789 127.528C157.029 127.528 157.251 127.492 157.455 127.42C157.659 127.336 157.899 127.198 158.175 127.006C158.463 126.802 158.829 126.526 159.273 126.178L159.489 127.114H158.913C158.589 127.462 158.289 127.756 158.013 127.996C157.749 128.236 157.467 128.422 157.167 128.554C156.879 128.686 156.537 128.752 156.141 128.752ZM160.533 128.68C160.029 128.68 159.621 128.518 159.309 128.194C159.009 127.858 158.853 127.396 158.841 126.808V126.736V122.668C158.841 122.092 158.781 121.648 158.661 121.336C158.541 121.012 158.349 120.79 158.085 120.67C157.821 120.538 157.485 120.472 157.077 120.472C156.837 120.472 156.579 120.496 156.303 120.544C156.039 120.592 155.745 120.682 155.421 120.814L156.159 120.184L155.763 121.75C155.691 122.05 155.577 122.278 155.421 122.434C155.265 122.59 155.061 122.668 154.809 122.668C154.545 122.668 154.341 122.602 154.197 122.47C154.053 122.326 153.963 122.146 153.927 121.93C154.095 121.222 154.497 120.664 155.133 120.256C155.781 119.836 156.573 119.626 157.509 119.626C158.145 119.626 158.673 119.728 159.093 119.932C159.513 120.136 159.831 120.466 160.047 120.922C160.275 121.378 160.389 121.984 160.389 122.74V126.628C160.389 127.012 160.449 127.288 160.569 127.456C160.689 127.612 160.857 127.69 161.073 127.69C161.229 127.69 161.361 127.66 161.469 127.6C161.577 127.528 161.679 127.438 161.775 127.33L162.117 127.816C161.913 128.116 161.679 128.338 161.415 128.482C161.163 128.614 160.869 128.68 160.533 128.68ZM162.756 128.5V127.78L164.79 127.474H165.222L167.274 127.78V128.5H162.756ZM164.196 128.5C164.208 128.08 164.214 127.66 164.214 127.24C164.214 126.808 164.214 126.382 164.214 125.962C164.226 125.53 164.232 125.104 164.232 124.684V116.854L162.738 116.638V115.954L165.51 115.216L165.852 115.324L165.78 117.808V124.684C165.78 125.104 165.78 125.53 165.78 125.962C165.792 126.382 165.798 126.808 165.798 127.24C165.81 127.66 165.822 128.08 165.834 128.5H164.196ZM168.509 128.5V127.78L170.489 127.474H170.921L172.757 127.78V128.5H168.509ZM169.859 128.5C169.859 128.2 169.859 127.828 169.859 127.384C169.871 126.928 169.877 126.46 169.877 125.98C169.889 125.5 169.895 125.068 169.895 124.684V123.802C169.895 123.478 169.889 123.19 169.877 122.938C169.877 122.686 169.871 122.446 169.859 122.218C169.859 121.99 169.859 121.75 169.859 121.498L168.401 121.372V120.688L170.867 119.662L171.209 119.806L171.443 121.84L171.461 121.876V124.684C171.461 125.068 171.461 125.5 171.461 125.98C171.473 126.46 171.479 126.928 171.479 127.384C171.491 127.828 171.497 128.2 171.497 128.5H169.859ZM174.017 128.5V127.78L175.997 127.474H176.429L178.283 127.78V128.5H174.017ZM175.367 128.5C175.367 128.2 175.367 127.828 175.367 127.384C175.379 126.94 175.385 126.478 175.385 125.998C175.397 125.518 175.403 125.08 175.403 124.684V123.082C175.403 122.29 175.289 121.738 175.061 121.426C174.833 121.114 174.449 120.958 173.909 120.958C173.621 120.958 173.333 121 173.045 121.084C172.769 121.168 172.481 121.306 172.181 121.498C171.893 121.678 171.587 121.906 171.263 122.182L171.029 121.534H171.281C171.545 121.174 171.851 120.85 172.199 120.562C172.559 120.274 172.937 120.046 173.333 119.878C173.741 119.71 174.155 119.626 174.575 119.626C175.379 119.626 175.973 119.89 176.357 120.418C176.753 120.934 176.951 121.762 176.951 122.902V124.684C176.951 125.08 176.951 125.518 176.951 125.998C176.963 126.478 176.969 126.94 176.969 127.384C176.981 127.828 176.993 128.2 177.005 128.5H175.367ZM179.525 128.5V127.78L181.505 127.474H181.937L183.791 127.78V128.5H179.525ZM180.875 128.5C180.875 128.2 180.875 127.828 180.875 127.384C180.887 126.94 180.893 126.478 180.893 125.998C180.905 125.518 180.911 125.08 180.911 124.684V123.064C180.911 122.248 180.791 121.696 180.551 121.408C180.311 121.108 179.921 120.958 179.381 120.958C179.117 120.958 178.847 121 178.571 121.084C178.295 121.156 178.007 121.282 177.707 121.462C177.419 121.642 177.107 121.882 176.771 122.182L176.465 121.57H176.717C177.017 121.15 177.341 120.796 177.689 120.508C178.049 120.208 178.427 119.986 178.823 119.842C179.231 119.698 179.651 119.626 180.083 119.626C180.851 119.626 181.439 119.872 181.847 120.364C182.255 120.856 182.459 121.648 182.459 122.74V124.684C182.459 125.08 182.459 125.518 182.459 125.998C182.471 126.478 182.477 126.94 182.477 127.384C182.489 127.828 182.501 128.2 182.513 128.5H180.875ZM185.375 131.722L185.105 131.056C185.561 130.84 185.933 130.612 186.221 130.372C186.521 130.144 186.755 129.88 186.923 129.58C187.091 129.28 187.217 128.926 187.301 128.518L187.499 129.094L186.635 128.59C186.347 128.458 186.131 128.302 185.987 128.122C185.855 127.93 185.789 127.708 185.789 127.456C185.789 127.108 185.891 126.82 186.095 126.592C186.299 126.352 186.599 126.232 186.995 126.232C187.199 126.232 187.391 126.268 187.571 126.34C187.751 126.412 187.925 126.538 188.093 126.718C188.153 126.91 188.189 127.12 188.201 127.348C188.225 127.564 188.237 127.78 188.237 127.996C188.237 128.584 188.111 129.118 187.859 129.598C187.607 130.09 187.265 130.516 186.833 130.876C186.401 131.236 185.915 131.518 185.375 131.722ZM198.931 128.734C198.067 128.734 197.323 128.554 196.699 128.194C196.075 127.834 195.595 127.324 195.259 126.664C194.935 125.992 194.773 125.194 194.773 124.27C194.773 123.31 194.965 122.482 195.349 121.786C195.733 121.09 196.249 120.556 196.897 120.184C197.545 119.812 198.241 119.626 198.985 119.626C199.561 119.626 200.083 119.728 200.551 119.932C201.019 120.124 201.403 120.394 201.703 120.742C202.003 121.09 202.195 121.48 202.279 121.912C202.231 122.14 202.135 122.32 201.991 122.452C201.859 122.584 201.673 122.65 201.433 122.65C201.121 122.65 200.887 122.566 200.731 122.398C200.587 122.218 200.479 122.002 200.407 121.75L199.957 120.166L200.875 120.922C200.587 120.766 200.293 120.652 199.993 120.58C199.693 120.508 199.393 120.472 199.093 120.472C198.577 120.472 198.115 120.61 197.707 120.886C197.299 121.162 196.975 121.57 196.735 122.11C196.507 122.65 196.393 123.31 196.393 124.09C196.393 124.882 196.525 125.536 196.789 126.052C197.053 126.556 197.401 126.928 197.833 127.168C198.277 127.408 198.769 127.528 199.309 127.528C199.645 127.528 199.957 127.492 200.245 127.42C200.533 127.336 200.809 127.204 201.073 127.024C201.349 126.844 201.613 126.61 201.865 126.322L202.333 126.718C202.105 127.126 201.835 127.48 201.523 127.78C201.223 128.08 200.863 128.314 200.443 128.482C200.023 128.65 199.519 128.734 198.931 128.734ZM207.95 128.734C207.23 128.734 206.546 128.566 205.898 128.23C205.262 127.894 204.746 127.39 204.35 126.718C203.954 126.034 203.756 125.2 203.756 124.216C203.756 123.22 203.954 122.38 204.35 121.696C204.746 121.012 205.262 120.496 205.898 120.148C206.546 119.8 207.23 119.626 207.95 119.626C208.67 119.626 209.348 119.8 209.984 120.148C210.632 120.484 211.154 120.994 211.55 121.678C211.958 122.362 212.162 123.202 212.162 124.198C212.162 125.182 211.958 126.016 211.55 126.7C211.154 127.372 210.632 127.882 209.984 128.23C209.348 128.566 208.67 128.734 207.95 128.734ZM207.95 127.87C208.478 127.87 208.922 127.732 209.282 127.456C209.654 127.18 209.936 126.772 210.128 126.232C210.332 125.692 210.434 125.02 210.434 124.216C210.434 123.4 210.332 122.716 210.128 122.164C209.936 121.612 209.654 121.198 209.282 120.922C208.922 120.634 208.478 120.49 207.95 120.49C207.422 120.49 206.972 120.634 206.6 120.922C206.24 121.198 205.964 121.612 205.772 122.164C205.58 122.704 205.484 123.382 205.484 124.198C205.484 125.014 205.58 125.692 205.772 126.232C205.964 126.772 206.24 127.18 206.6 127.456C206.972 127.732 207.422 127.87 207.95 127.87ZM218.004 128.734C217.284 128.734 216.6 128.566 215.952 128.23C215.316 127.894 214.8 127.39 214.404 126.718C214.008 126.034 213.81 125.2 213.81 124.216C213.81 123.22 214.008 122.38 214.404 121.696C214.8 121.012 215.316 120.496 215.952 120.148C216.6 119.8 217.284 119.626 218.004 119.626C218.724 119.626 219.402 119.8 220.038 120.148C220.686 120.484 221.208 120.994 221.604 121.678C222.012 122.362 222.216 123.202 222.216 124.198C222.216 125.182 222.012 126.016 221.604 126.7C221.208 127.372 220.686 127.882 220.038 128.23C219.402 128.566 218.724 128.734 218.004 128.734ZM218.004 127.87C218.532 127.87 218.976 127.732 219.336 127.456C219.708 127.18 219.99 126.772 220.182 126.232C220.386 125.692 220.488 125.02 220.488 124.216C220.488 123.4 220.386 122.716 220.182 122.164C219.99 121.612 219.708 121.198 219.336 120.922C218.976 120.634 218.532 120.49 218.004 120.49C217.476 120.49 217.026 120.634 216.654 120.922C216.294 121.198 216.018 121.612 215.826 122.164C215.634 122.704 215.538 123.382 215.538 124.198C215.538 125.014 215.634 125.692 215.826 126.232C216.018 126.772 216.294 127.18 216.654 127.456C217.026 127.732 217.476 127.87 218.004 127.87ZM223.383 128.5V127.78L225.417 127.474H225.849L227.901 127.78V128.5H223.383ZM224.823 128.5C224.835 128.08 224.841 127.66 224.841 127.24C224.841 126.808 224.841 126.382 224.841 125.962C224.853 125.53 224.859 125.104 224.859 124.684V116.854L223.365 116.638V115.954L226.137 115.216L226.479 115.324L226.407 117.808V124.684C226.407 125.104 226.407 125.53 226.407 125.962C226.419 126.382 226.425 126.808 226.425 127.24C226.437 127.66 226.449 128.08 226.461 128.5H224.823ZM229.46 131.722L229.19 131.056C229.646 130.84 230.018 130.612 230.306 130.372C230.606 130.144 230.84 129.88 231.008 129.58C231.176 129.28 231.302 128.926 231.386 128.518L231.584 129.094L230.72 128.59C230.432 128.458 230.216 128.302 230.072 128.122C229.94 127.93 229.874 127.708 229.874 127.456C229.874 127.108 229.976 126.82 230.18 126.592C230.384 126.352 230.684 126.232 231.08 126.232C231.284 126.232 231.476 126.268 231.656 126.34C231.836 126.412 232.01 126.538 232.178 126.718C232.238 126.91 232.274 127.12 232.286 127.348C232.31 127.564 232.322 127.78 232.322 127.996C232.322 128.584 232.196 129.118 231.944 129.598C231.692 130.09 231.35 130.516 230.918 130.876C230.486 131.236 230 131.518 229.46 131.722ZM241.289 128.752C240.617 128.752 240.041 128.56 239.561 128.176C239.093 127.78 238.859 127.21 238.859 126.466C238.859 126.082 238.937 125.734 239.093 125.422C239.261 125.098 239.555 124.798 239.975 124.522C240.407 124.246 241.019 123.994 241.811 123.766C242.147 123.658 242.471 123.562 242.783 123.478C243.107 123.382 243.425 123.292 243.737 123.208C244.061 123.112 244.385 123.022 244.709 122.938V123.604C244.289 123.736 243.875 123.868 243.467 124C243.059 124.132 242.651 124.264 242.243 124.396C241.727 124.564 241.343 124.75 241.091 124.954C240.839 125.146 240.671 125.35 240.587 125.566C240.515 125.77 240.479 125.98 240.479 126.196C240.479 126.652 240.617 126.988 240.893 127.204C241.169 127.42 241.517 127.528 241.937 127.528C242.177 127.528 242.399 127.492 242.603 127.42C242.807 127.336 243.047 127.198 243.323 127.006C243.611 126.802 243.977 126.526 244.421 126.178L244.637 127.114H244.061C243.737 127.462 243.437 127.756 243.161 127.996C242.897 128.236 242.615 128.422 242.315 128.554C242.027 128.686 241.685 128.752 241.289 128.752ZM245.681 128.68C245.177 128.68 244.769 128.518 244.457 128.194C244.157 127.858 244.001 127.396 243.989 126.808V126.736V122.668C243.989 122.092 243.929 121.648 243.809 121.336C243.689 121.012 243.497 120.79 243.233 120.67C242.969 120.538 242.633 120.472 242.225 120.472C241.985 120.472 241.727 120.496 241.451 120.544C241.187 120.592 240.893 120.682 240.569 120.814L241.307 120.184L240.911 121.75C240.839 122.05 240.725 122.278 240.569 122.434C240.413 122.59 240.209 122.668 239.957 122.668C239.693 122.668 239.489 122.602 239.345 122.47C239.201 122.326 239.111 122.146 239.075 121.93C239.243 121.222 239.645 120.664 240.281 120.256C240.929 119.836 241.721 119.626 242.657 119.626C243.293 119.626 243.821 119.728 244.241 119.932C244.661 120.136 244.979 120.466 245.195 120.922C245.423 121.378 245.537 121.984 245.537 122.74V126.628C245.537 127.012 245.597 127.288 245.717 127.456C245.837 127.612 246.005 127.69 246.221 127.69C246.377 127.69 246.509 127.66 246.617 127.6C246.725 127.528 246.827 127.438 246.923 127.33L247.265 127.816C247.061 128.116 246.827 128.338 246.563 128.482C246.311 128.614 246.017 128.68 245.681 128.68ZM248.051 128.5V127.78L250.031 127.474H250.463L252.299 127.78V128.5H248.051ZM249.401 128.5C249.401 128.2 249.401 127.828 249.401 127.384C249.413 126.928 249.419 126.46 249.419 125.98C249.431 125.5 249.437 125.068 249.437 124.684V123.802C249.437 123.478 249.431 123.19 249.419 122.938C249.419 122.686 249.413 122.446 249.401 122.218C249.401 121.99 249.401 121.75 249.401 121.498L247.943 121.372V120.688L250.409 119.662L250.751 119.806L250.985 121.84L251.003 121.858V124.684C251.003 125.068 251.003 125.5 251.003 125.98C251.015 126.46 251.021 126.928 251.021 127.384C251.033 127.828 251.039 128.2 251.039 128.5H249.401ZM253.649 128.5V127.78L255.629 127.474H256.061L257.915 127.78V128.5H253.649ZM254.981 128.5C254.993 128.2 254.999 127.828 254.999 127.384C255.011 126.94 255.017 126.478 255.017 125.998C255.029 125.518 255.035 125.08 255.035 124.684V123.082C255.035 122.278 254.915 121.726 254.675 121.426C254.435 121.114 254.045 120.958 253.505 120.958C253.217 120.958 252.929 121 252.641 121.084C252.353 121.168 252.059 121.3 251.759 121.48C251.459 121.66 251.141 121.894 250.805 122.182L250.607 121.48H250.841C251.129 121.12 251.453 120.802 251.812 120.526C252.173 120.25 252.557 120.034 252.965 119.878C253.373 119.71 253.781 119.626 254.189 119.626C254.993 119.626 255.593 119.89 255.989 120.418C256.385 120.934 256.583 121.762 256.583 122.902V124.684C256.583 125.08 256.583 125.518 256.583 125.998C256.595 126.478 256.601 126.94 256.601 127.384C256.601 127.828 256.607 128.2 256.619 128.5H254.981ZM262.957 128.734C262.225 128.734 261.577 128.548 261.013 128.176C260.461 127.804 260.029 127.282 259.717 126.61C259.417 125.938 259.267 125.152 259.267 124.252C259.267 123.304 259.435 122.488 259.771 121.804C260.107 121.108 260.563 120.574 261.139 120.202C261.715 119.818 262.363 119.626 263.083 119.626C263.431 119.626 263.755 119.68 264.055 119.788C264.355 119.884 264.637 120.046 264.901 120.274C265.177 120.49 265.441 120.778 265.693 121.138H266.089L265.945 122.128C265.429 121.588 264.973 121.21 264.577 120.994C264.193 120.778 263.803 120.67 263.407 120.67C262.963 120.67 262.549 120.796 262.165 121.048C261.793 121.288 261.493 121.672 261.265 122.2C261.037 122.716 260.923 123.382 260.923 124.198C260.923 124.99 261.031 125.644 261.247 126.16C261.463 126.664 261.757 127.042 262.129 127.294C262.513 127.534 262.945 127.654 263.425 127.654C263.917 127.654 264.349 127.534 264.721 127.294C265.093 127.042 265.489 126.64 265.909 126.088L266.035 127.06H265.693C265.489 127.396 265.255 127.69 264.991 127.942C264.727 128.194 264.427 128.386 264.091 128.518C263.767 128.662 263.389 128.734 262.957 128.734ZM265.711 128.662L265.531 126.808V126.772V121.516L265.585 121.318L265.567 116.854L264.019 116.638V115.954L266.809 115.216L267.133 115.324L267.079 117.808V127.564L268.537 127.798V128.5L265.711 128.662ZM275.708 128.5L275.564 128.284L280.712 117.88L280.694 118.654L280.604 118.348H274.052V116.854H281.648V117.79L277.292 128.5H275.708ZM286.936 128.734C286.252 128.734 285.61 128.536 285.01 128.14C284.422 127.732 283.948 127.084 283.588 126.196C283.228 125.308 283.048 124.144 283.048 122.704C283.048 121.252 283.228 120.082 283.588 119.194C283.948 118.306 284.422 117.658 285.01 117.25C285.61 116.83 286.252 116.62 286.936 116.62C287.62 116.62 288.25 116.824 288.826 117.232C289.414 117.64 289.888 118.288 290.248 119.176C290.608 120.064 290.788 121.234 290.788 122.686C290.788 124.126 290.608 125.29 290.248 126.178C289.888 127.066 289.414 127.714 288.826 128.122C288.25 128.53 287.62 128.734 286.936 128.734ZM286.936 127.888C287.248 127.888 287.53 127.804 287.782 127.636C288.034 127.468 288.256 127.186 288.448 126.79C288.652 126.394 288.808 125.866 288.916 125.206C289.024 124.534 289.078 123.7 289.078 122.704C289.078 121.696 289.024 120.856 288.916 120.184C288.808 119.512 288.652 118.978 288.448 118.582C288.256 118.186 288.034 117.904 287.782 117.736C287.53 117.556 287.248 117.466 286.936 117.466C286.624 117.466 286.336 117.55 286.072 117.718C285.808 117.886 285.574 118.168 285.37 118.564C285.178 118.96 285.028 119.5 284.92 120.184C284.812 120.856 284.758 121.696 284.758 122.704C284.758 123.7 284.812 124.534 284.92 125.206C285.028 125.866 285.178 126.394 285.37 126.79C285.574 127.186 285.808 127.468 286.072 127.636C286.336 127.804 286.624 127.888 286.936 127.888ZM294.888 123.82C294.42 123.82 293.988 123.688 293.592 123.424C293.196 123.16 292.872 122.752 292.62 122.2C292.38 121.636 292.26 120.922 292.26 120.058C292.26 119.182 292.38 118.468 292.62 117.916C292.872 117.352 293.196 116.938 293.592 116.674C293.988 116.398 294.42 116.26 294.888 116.26C295.344 116.26 295.764 116.392 296.148 116.656C296.544 116.92 296.862 117.334 297.102 117.898C297.354 118.45 297.48 119.164 297.48 120.04C297.48 120.904 297.354 121.618 297.102 122.182C296.862 122.746 296.544 123.16 296.148 123.424C295.764 123.688 295.344 123.82 294.888 123.82ZM294.888 123.208C295.128 123.208 295.338 123.124 295.518 122.956C295.698 122.776 295.842 122.458 295.95 122.002C296.058 121.534 296.112 120.886 296.112 120.058C296.112 119.206 296.058 118.558 295.95 118.114C295.842 117.658 295.698 117.346 295.518 117.178C295.338 116.998 295.128 116.908 294.888 116.908C294.648 116.908 294.432 116.998 294.24 117.178C294.048 117.346 293.898 117.658 293.79 118.114C293.682 118.558 293.628 119.206 293.628 120.058C293.628 120.886 293.682 121.534 293.79 122.002C293.898 122.458 294.048 122.776 294.24 122.956C294.432 123.124 294.648 123.208 294.888 123.208ZM295.68 128.968L295.086 128.5L303.492 116.44L304.086 116.908L295.68 128.968ZM304.32 128.662C303.852 128.662 303.42 128.53 303.024 128.266C302.628 128.002 302.304 127.594 302.052 127.042C301.812 126.478 301.692 125.764 301.692 124.9C301.692 124.024 301.812 123.31 302.052 122.758C302.304 122.194 302.628 121.78 303.024 121.516C303.42 121.24 303.852 121.102 304.32 121.102C304.776 121.102 305.196 121.234 305.58 121.498C305.976 121.762 306.294 122.176 306.534 122.74C306.786 123.292 306.912 124.006 306.912 124.882C306.912 125.746 306.786 126.46 306.534 127.024C306.294 127.588 305.976 128.002 305.58 128.266C305.196 128.53 304.776 128.662 304.32 128.662ZM304.32 128.05C304.56 128.05 304.77 127.966 304.95 127.798C305.13 127.618 305.274 127.3 305.382 126.844C305.49 126.376 305.544 125.728 305.544 124.9C305.544 124.048 305.49 123.4 305.382 122.956C305.274 122.5 305.13 122.188 304.95 122.02C304.77 121.84 304.56 121.75 304.32 121.75C304.08 121.75 303.864 121.84 303.672 122.02C303.48 122.188 303.33 122.5 303.222 122.956C303.114 123.4 303.06 124.048 303.06 124.9C303.06 125.728 303.114 126.376 303.222 126.844C303.33 127.3 303.48 127.618 303.672 127.798C303.864 127.966 304.08 128.05 304.32 128.05ZM24.738 155.5V154.78L26.718 154.474H27.15L28.986 154.78V155.5H24.738ZM26.088 155.5C26.088 155.2 26.088 154.828 26.088 154.384C26.1 153.928 26.106 153.46 26.106 152.98C26.118 152.5 26.124 152.068 26.124 151.684V150.802C26.124 150.478 26.118 150.19 26.106 149.938C26.106 149.686 26.1 149.446 26.088 149.218C26.088 148.99 26.088 148.75 26.088 148.498L24.63 148.372V147.688L27.096 146.662L27.438 146.806L27.672 148.84L27.69 148.876V151.684C27.69 152.068 27.69 152.5 27.69 152.98C27.702 153.46 27.708 153.928 27.708 154.384C27.72 154.828 27.726 155.2 27.726 155.5H26.088ZM30.246 155.5V154.78L32.226 154.474H32.658L34.512 154.78V155.5H30.246ZM31.596 155.5C31.596 155.2 31.596 154.828 31.596 154.384C31.608 153.94 31.614 153.478 31.614 152.998C31.626 152.518 31.632 152.08 31.632 151.684V150.082C31.632 149.29 31.518 148.738 31.29 148.426C31.062 148.114 30.678 147.958 30.138 147.958C29.85 147.958 29.562 148 29.274 148.084C28.998 148.168 28.71 148.306 28.41 148.498C28.122 148.678 27.816 148.906 27.492 149.182L27.258 148.534H27.51C27.774 148.174 28.08 147.85 28.428 147.562C28.788 147.274 29.166 147.046 29.562 146.878C29.97 146.71 30.384 146.626 30.804 146.626C31.608 146.626 32.202 146.89 32.586 147.418C32.982 147.934 33.18 148.762 33.18 149.902V151.684C33.18 152.08 33.18 152.518 33.18 152.998C33.192 153.478 33.198 153.94 33.198 154.384C33.21 154.828 33.222 155.2 33.234 155.5H31.596ZM35.754 155.5V154.78L37.734 154.474H38.166L40.02 154.78V155.5H35.754ZM37.104 155.5C37.104 155.2 37.104 154.828 37.104 154.384C37.116 153.94 37.122 153.478 37.122 152.998C37.134 152.518 37.14 152.08 37.14 151.684V150.064C37.14 149.248 37.02 148.696 36.78 148.408C36.54 148.108 36.15 147.958 35.61 147.958C35.346 147.958 35.076 148 34.8 148.084C34.524 148.156 34.236 148.282 33.936 148.462C33.648 148.642 33.336 148.882 33 149.182L32.694 148.57H32.946C33.246 148.15 33.57 147.796 33.918 147.508C34.278 147.208 34.656 146.986 35.052 146.842C35.46 146.698 35.88 146.626 36.312 146.626C37.08 146.626 37.668 146.872 38.076 147.364C38.484 147.856 38.688 148.648 38.688 149.74V151.684C38.688 152.08 38.688 152.518 38.688 152.998C38.7 153.478 38.706 153.94 38.706 154.384C38.718 154.828 38.73 155.2 38.742 155.5H37.104ZM41.7069 159.964C41.3829 159.964 41.0889 159.91 40.8249 159.802C40.5729 159.706 40.3689 159.562 40.2129 159.37C40.0689 159.19 39.9909 158.992 39.9789 158.776C40.0389 158.524 40.1829 158.326 40.4109 158.182C40.6389 158.05 40.8969 157.984 41.1849 157.984C41.4489 157.984 41.6829 158.038 41.8869 158.146C42.0909 158.254 42.3129 158.428 42.5529 158.668L43.0929 159.226L42.4449 159.55L42.1569 159.208C42.5289 159.004 42.8529 158.746 43.1289 158.434C43.4169 158.122 43.6689 157.768 43.8849 157.372C44.1009 156.976 44.2869 156.568 44.4429 156.148L44.7309 155.356L44.8749 155.248L46.4229 150.712L47.8089 146.842H48.8709L45.5589 155.5C45.1629 156.532 44.7729 157.378 44.3889 158.038C44.0049 158.698 43.5969 159.184 43.1649 159.496C42.7329 159.808 42.2469 159.964 41.7069 159.964ZM44.6409 156.544L40.7889 146.842H42.5709L45.3069 154.312L45.5229 154.618L44.6409 156.544ZM40.0869 147.562V146.842H44.5149V147.58L42.3729 147.814H41.8689L40.0869 147.562ZM45.9189 147.562V146.842H49.5549V147.562L48.2049 147.814H47.7909L45.9189 147.562ZM53.1611 155.734C52.6211 155.734 52.1291 155.674 51.6851 155.554C51.2411 155.446 50.8031 155.284 50.3711 155.068L50.2991 153.016H51.3251L51.7931 155.176H51.0011V154.24C51.3011 154.456 51.6311 154.618 51.9911 154.726C52.3511 154.834 52.7471 154.888 53.1791 154.888C53.6471 154.888 54.0311 154.828 54.3311 154.708C54.6311 154.588 54.8471 154.426 54.9791 154.222C55.1231 154.006 55.1951 153.766 55.1951 153.502C55.1951 153.106 55.0571 152.794 54.7811 152.566C54.5051 152.338 54.0791 152.128 53.5031 151.936L52.7651 151.648C52.2851 151.48 51.8651 151.288 51.5051 151.072C51.1571 150.844 50.8871 150.574 50.6951 150.262C50.5151 149.95 50.4251 149.584 50.4251 149.164C50.4251 148.708 50.5451 148.288 50.7851 147.904C51.0371 147.52 51.4031 147.214 51.8831 146.986C52.3751 146.746 52.9571 146.626 53.6291 146.626C54.1331 146.626 54.5951 146.686 55.0151 146.806C55.4471 146.926 55.8491 147.1 56.2211 147.328L56.1671 149.236H55.1951L54.8171 147.346H55.5011V148.12C55.2131 147.904 54.9131 147.742 54.6011 147.634C54.2891 147.526 53.9651 147.472 53.6291 147.472C53.0531 147.472 52.6211 147.586 52.3331 147.814C52.0451 148.042 51.9011 148.342 51.9011 148.714C51.9011 149.098 52.0271 149.398 52.2791 149.614C52.5311 149.818 52.9631 150.028 53.5751 150.244L54.1151 150.442C54.7271 150.646 55.2251 150.886 55.6091 151.162C55.9931 151.426 56.2691 151.72 56.4371 152.044C56.6171 152.356 56.7071 152.716 56.7071 153.124C56.7071 153.592 56.5691 154.024 56.2931 154.42C56.0291 154.816 55.6331 155.134 55.1051 155.374C54.5891 155.614 53.9411 155.734 53.1611 155.734ZM59.9712 147.832V146.842H63.2292V147.832H59.9712ZM61.3032 155.716C60.6552 155.716 60.1392 155.542 59.7552 155.194C59.3712 154.846 59.1792 154.312 59.1792 153.592C59.1792 153.364 59.1792 153.142 59.1792 152.926C59.1912 152.71 59.1972 152.44 59.1972 152.116V147.832H57.6672V147.022L59.9352 146.752L59.2152 147.328L59.7912 144.394H60.8892L60.7272 147.292L60.7632 147.598V153.394C60.7632 153.862 60.8532 154.204 61.0332 154.42C61.2252 154.624 61.4772 154.726 61.7892 154.726C62.0052 154.726 62.2032 154.684 62.3832 154.6C62.5752 154.516 62.7792 154.408 62.9952 154.276L63.4092 154.816C63.2652 154.996 63.0852 155.158 62.8692 155.302C62.6652 155.434 62.4312 155.536 62.1672 155.608C61.9032 155.68 61.6152 155.716 61.3032 155.716ZM68.538 155.734C67.674 155.734 66.924 155.56 66.288 155.212C65.664 154.852 65.178 154.342 64.83 153.682C64.494 153.01 64.326 152.212 64.326 151.288C64.326 150.352 64.506 149.536 64.866 148.84C65.238 148.144 65.736 147.604 66.36 147.22C66.996 146.824 67.698 146.626 68.466 146.626C69.138 146.626 69.732 146.764 70.248 147.04C70.764 147.316 71.172 147.712 71.472 148.228C71.772 148.744 71.922 149.368 71.922 150.1C71.922 150.316 71.91 150.52 71.886 150.712C71.862 150.892 71.832 151.048 71.796 151.18H65.1V150.388H69.42C69.84 150.364 70.11 150.268 70.23 150.1C70.35 149.92 70.41 149.71 70.41 149.47C70.41 149.038 70.332 148.678 70.176 148.39C70.02 148.09 69.798 147.868 69.51 147.724C69.222 147.568 68.874 147.49 68.466 147.49C68.046 147.49 67.638 147.61 67.242 147.85C66.858 148.09 66.546 148.474 66.306 149.002C66.066 149.518 65.946 150.208 65.946 151.072C65.946 151.816 66.066 152.446 66.306 152.962C66.546 153.478 66.888 153.874 67.332 154.15C67.788 154.414 68.322 154.546 68.934 154.546C69.522 154.546 70.026 154.444 70.446 154.24C70.878 154.036 71.274 153.736 71.634 153.34L72.066 153.7C71.814 154.096 71.532 154.45 71.22 154.762C70.908 155.074 70.536 155.314 70.104 155.482C69.684 155.65 69.162 155.734 68.538 155.734ZM73.5885 155.5V154.78L75.5685 154.474H76.0365L78.1065 154.78V155.5H73.5885ZM74.9025 155.5C74.9145 155.2 74.9205 154.828 74.9205 154.384C74.9325 153.928 74.9385 153.46 74.9385 152.98C74.9505 152.5 74.9565 152.068 74.9565 151.684V150.802C74.9565 150.478 74.9505 150.19 74.9385 149.938C74.9385 149.686 74.9325 149.446 74.9205 149.218C74.9205 148.99 74.9145 148.75 74.9025 148.498L73.4625 148.372V147.688L75.9285 146.662L76.2705 146.806L76.4865 149.128L76.5225 149.146V151.684C76.5225 152.068 76.5225 152.5 76.5225 152.98C76.5225 153.46 76.5225 153.928 76.5225 154.384C76.5345 154.828 76.5465 155.2 76.5585 155.5H74.9025ZM76.4325 150.478L76.2165 149.218H76.4685C76.6725 148.678 76.9125 148.216 77.1885 147.832C77.4645 147.448 77.7705 147.154 78.1065 146.95C78.4425 146.734 78.7845 146.626 79.1325 146.626C79.4445 146.626 79.7145 146.698 79.9425 146.842C80.1825 146.974 80.3565 147.142 80.4645 147.346C80.4525 147.754 80.3565 148.078 80.1765 148.318C80.0085 148.558 79.7385 148.678 79.3665 148.678C79.1385 148.678 78.9345 148.636 78.7545 148.552C78.5745 148.468 78.4005 148.354 78.2325 148.21L77.7825 147.778L78.6825 147.652C78.1065 147.94 77.6385 148.324 77.2785 148.804C76.9305 149.272 76.6485 149.83 76.4325 150.478ZM81.2851 155.5V154.78L83.2651 154.474H83.7151L85.5691 154.78V155.5H81.2851ZM82.6351 155.5C82.6471 155.2 82.6531 154.828 82.6531 154.384C82.6651 153.928 82.6711 153.46 82.6711 152.98C82.6831 152.5 82.6891 152.068 82.6891 151.684V150.82C82.6891 150.34 82.6831 149.926 82.6711 149.578C82.6711 149.23 82.6591 148.87 82.6351 148.498L81.1951 148.372V147.688L83.9491 146.662L84.2911 146.806L84.2371 149.164V151.684C84.2371 152.068 84.2371 152.5 84.2371 152.98C84.2491 153.46 84.2551 153.928 84.2551 154.384C84.2671 154.828 84.2791 155.2 84.2911 155.5H82.6351ZM83.3731 144.844C83.0371 144.844 82.7491 144.736 82.5091 144.52C82.2811 144.292 82.1671 144.01 82.1671 143.674C82.1671 143.338 82.2811 143.062 82.5091 142.846C82.7491 142.618 83.0371 142.504 83.3731 142.504C83.7211 142.504 84.0091 142.618 84.2371 142.846C84.4771 143.062 84.5971 143.338 84.5971 143.674C84.5971 144.01 84.4771 144.292 84.2371 144.52C84.0091 144.736 83.7211 144.844 83.3731 144.844ZM91.1783 155.734C90.4583 155.734 89.7743 155.566 89.1263 155.23C88.4903 154.894 87.9743 154.39 87.5783 153.718C87.1823 153.034 86.9843 152.2 86.9843 151.216C86.9843 150.22 87.1823 149.38 87.5783 148.696C87.9743 148.012 88.4903 147.496 89.1263 147.148C89.7743 146.8 90.4583 146.626 91.1783 146.626C91.8983 146.626 92.5763 146.8 93.2123 147.148C93.8603 147.484 94.3823 147.994 94.7783 148.678C95.1863 149.362 95.3903 150.202 95.3903 151.198C95.3903 152.182 95.1863 153.016 94.7783 153.7C94.3823 154.372 93.8603 154.882 93.2123 155.23C92.5763 155.566 91.8983 155.734 91.1783 155.734ZM91.1783 154.87C91.7063 154.87 92.1503 154.732 92.5103 154.456C92.8823 154.18 93.1643 153.772 93.3563 153.232C93.5603 152.692 93.6623 152.02 93.6623 151.216C93.6623 150.4 93.5603 149.716 93.3563 149.164C93.1643 148.612 92.8823 148.198 92.5103 147.922C92.1503 147.634 91.7063 147.49 91.1783 147.49C90.6503 147.49 90.2003 147.634 89.8283 147.922C89.4683 148.198 89.1923 148.612 89.0003 149.164C88.8083 149.704 88.7123 150.382 88.7123 151.198C88.7123 152.014 88.8083 152.692 89.0003 153.232C89.1923 153.772 89.4683 154.18 89.8283 154.456C90.2003 154.732 90.6503 154.87 91.1783 154.87ZM100.21 155.734C99.4423 155.734 98.8423 155.488 98.4103 154.996C97.9903 154.504 97.7863 153.682 97.7983 152.53L97.8343 147.634L98.2663 148.084L96.4843 147.706V147.022L99.1483 146.752L99.4183 146.914L99.3463 149.182V152.314C99.3463 153.082 99.4663 153.628 99.7063 153.952C99.9463 154.264 100.318 154.42 100.822 154.42C101.122 154.42 101.428 154.372 101.74 154.276C102.052 154.168 102.364 154.012 102.676 153.808C102.988 153.604 103.294 153.358 103.594 153.07L103.828 153.862H103.468C103.168 154.27 102.838 154.618 102.478 154.906C102.13 155.182 101.764 155.386 101.38 155.518C100.996 155.662 100.606 155.734 100.21 155.734ZM103.63 155.644L103.414 153.574L103.378 153.538L103.432 147.976L102.082 147.706V147.022L104.71 146.752L104.98 146.914L104.926 149.182V154.546L106.222 154.798V155.5L103.63 155.644ZM110.536 155.734C109.996 155.734 109.504 155.674 109.06 155.554C108.616 155.446 108.178 155.284 107.746 155.068L107.674 153.016H108.7L109.168 155.176H108.376V154.24C108.676 154.456 109.006 154.618 109.366 154.726C109.726 154.834 110.122 154.888 110.554 154.888C111.022 154.888 111.406 154.828 111.706 154.708C112.006 154.588 112.222 154.426 112.354 154.222C112.498 154.006 112.57 153.766 112.57 153.502C112.57 153.106 112.432 152.794 112.156 152.566C111.88 152.338 111.454 152.128 110.878 151.936L110.14 151.648C109.66 151.48 109.24 151.288 108.88 151.072C108.532 150.844 108.262 150.574 108.07 150.262C107.89 149.95 107.8 149.584 107.8 149.164C107.8 148.708 107.92 148.288 108.16 147.904C108.412 147.52 108.778 147.214 109.258 146.986C109.75 146.746 110.332 146.626 111.004 146.626C111.508 146.626 111.97 146.686 112.39 146.806C112.822 146.926 113.224 147.1 113.596 147.328L113.542 149.236H112.57L112.192 147.346H112.876V148.12C112.588 147.904 112.288 147.742 111.976 147.634C111.664 147.526 111.34 147.472 111.004 147.472C110.428 147.472 109.996 147.586 109.708 147.814C109.42 148.042 109.276 148.342 109.276 148.714C109.276 149.098 109.402 149.398 109.654 149.614C109.906 149.818 110.338 150.028 110.95 150.244L111.49 150.442C112.102 150.646 112.6 150.886 112.984 151.162C113.368 151.426 113.644 151.72 113.812 152.044C113.992 152.356 114.082 152.716 114.082 153.124C114.082 153.592 113.944 154.024 113.668 154.42C113.404 154.816 113.008 155.134 112.48 155.374C111.964 155.614 111.316 155.734 110.536 155.734ZM117.175 155.734C116.815 155.734 116.509 155.608 116.257 155.356C116.017 155.104 115.897 154.804 115.897 154.456C115.897 154.096 116.017 153.79 116.257 153.538C116.509 153.286 116.815 153.16 117.175 153.16C117.535 153.16 117.841 153.286 118.093 153.538C118.345 153.79 118.471 154.096 118.471 154.456C118.471 154.804 118.345 155.104 118.093 155.356C117.841 155.608 117.535 155.734 117.175 155.734Z" fill="#FFF9F2"/>
<g clip-path="url(#clip0_0_1033)">
<path d="M23.9999 249C23.9999 253.6 25.1332 257.8 27.3999 261.6C29.6665 265.4 32.6999 268.433 36.4999 270.7C40.2999 272.967 44.4665 274.067 48.9999 274H105.3C110.433 274 114.833 272.167 118.5 268.5C122.167 264.833 124 260.433 124 255.3V249C124 243.867 122.167 239.467 118.5 235.8C114.833 232.133 110.433 230.3 105.3 230.3C105.167 230.3 105 230.3 104.8 230.3C104.6 230.3 104.433 230.333 104.3 230.4C104.967 228 105.3 225.867 105.3 224C105.3 217.133 102.833 211.267 97.8999 206.4C92.9665 201.533 87.0999 199.067 80.2999 199C74.2999 199 69.0332 200.9 64.4999 204.7C59.9665 208.5 57.0665 213.233 55.7999 218.9C53.3999 218.167 51.1332 217.8 48.9999 217.8C42.1332 217.8 36.2332 220.233 31.2999 225.1C26.3665 229.967 23.9332 235.867 23.9999 242.8V249Z" fill="#FFF9F2"/>
</g>
<defs>
<clipPath id="clip0_0_1033">
<rect width="100" height="100" fill="white" transform="translate(24 186.5)"/>
</clipPath>
</defs>
</svg>
