<svg width="538" height="316" viewBox="0 0 538 316" fill="none" xmlns="http://www.w3.org/2000/svg">
<rect width="538" height="316" rx="8" fill="#D7D334"/>
<rect x="24" y="29.5" width="75" height="25" rx="12.5" fill="#2F2F2F"/>
<path d="M33.5009 46.5L34.8869 37.428H35.6989L34.3129 46.5H33.5009ZM32.6329 42.832H39.0029V44.036H32.6329V42.832ZM39.4649 41.068H33.0809V39.85H39.4649V41.068ZM36.4129 46.5L37.8129 37.428H38.6249L37.2249 46.5H36.4129ZM40.2931 46.5V45.73L42.0711 45.618H42.2671V46.5H40.2931ZM41.6091 46.5C41.6184 46.024 41.6231 45.548 41.6231 45.072C41.6231 44.5867 41.6231 44.0967 41.6231 43.602C41.6231 43.1073 41.6231 42.608 41.6231 42.104V41.474C41.6231 40.998 41.6231 40.522 41.6231 40.046C41.6231 39.5607 41.6231 39.08 41.6231 38.604C41.6231 38.1187 41.6184 37.638 41.6091 37.162H43.3031C43.3031 37.638 43.2984 38.114 43.2891 38.59C43.2891 39.066 43.2891 39.5467 43.2891 40.032C43.2891 40.508 43.2891 40.9887 43.2891 41.474V42.104C43.2891 42.608 43.2891 43.1073 43.2891 43.602C43.2891 44.0873 43.2891 44.5727 43.2891 45.058C43.2984 45.534 43.3031 46.0147 43.3031 46.5H41.6091ZM42.6311 46.5V45.702H44.3671C45.0951 45.702 45.7111 45.548 46.2151 45.24C46.7191 44.9227 47.1017 44.4747 47.3631 43.896C47.6244 43.308 47.7551 42.608 47.7551 41.796C47.7551 40.5453 47.4704 39.5933 46.9011 38.94C46.3317 38.2773 45.5337 37.946 44.5071 37.946H42.6311V37.162H44.6891C45.6597 37.162 46.5091 37.3393 47.2371 37.694C47.9651 38.0393 48.5297 38.5527 48.9311 39.234C49.3324 39.9153 49.5331 40.76 49.5331 41.768C49.5331 42.776 49.3231 43.6347 48.9031 44.344C48.4831 45.044 47.8904 45.5807 47.1251 45.954C46.3597 46.318 45.4684 46.5 44.4511 46.5H42.6311ZM40.2931 37.932V37.162H42.2671V38.044H42.0711L40.2931 37.932ZM52.0697 46.5L51.9997 46.248L56.3677 38.562L56.2837 39.164L56.2417 38.814H50.8797V37.484H57.0957V38.31L53.6797 46.5H52.0697ZM58.2169 46.5V45.73L59.9949 45.618H60.1909V46.5H58.2169ZM59.5329 46.5C59.5422 46.024 59.5469 45.548 59.5469 45.072C59.5469 44.5867 59.5469 44.0967 59.5469 43.602C59.5469 43.1073 59.5469 42.608 59.5469 42.104V41.474C59.5469 40.998 59.5469 40.522 59.5469 40.046C59.5469 39.5607 59.5469 39.08 59.5469 38.604C59.5469 38.1187 59.5422 37.638 59.5329 37.162H61.2269C61.2269 37.638 61.2222 38.114 61.2129 38.59C61.2129 39.066 61.2129 39.5467 61.2129 40.032C61.2129 40.508 61.2129 40.9887 61.2129 41.474V42.104C61.2129 42.608 61.2129 43.1073 61.2129 43.602C61.2129 44.0873 61.2129 44.5727 61.2129 45.058C61.2222 45.534 61.2269 46.0147 61.2269 46.5H59.5329ZM60.5549 46.5V45.702H62.2909C63.0189 45.702 63.6349 45.548 64.1389 45.24C64.6429 44.9227 65.0256 44.4747 65.2869 43.896C65.5482 43.308 65.6789 42.608 65.6789 41.796C65.6789 40.5453 65.3942 39.5933 64.8249 38.94C64.2556 38.2773 63.4576 37.946 62.4309 37.946H60.5549V37.162H62.6129C63.5836 37.162 64.4329 37.3393 65.1609 37.694C65.8889 38.0393 66.4536 38.5527 66.8549 39.234C67.2562 39.9153 67.4569 40.76 67.4569 41.768C67.4569 42.776 67.2469 43.6347 66.8269 44.344C66.4069 45.044 65.8142 45.5807 65.0489 45.954C64.2836 46.318 63.3922 46.5 62.3749 46.5H60.5549ZM58.2169 37.932V37.162H60.1909V38.044H59.9949L58.2169 37.932ZM71.6035 46.682C70.8102 46.682 70.1615 46.5187 69.6575 46.192C69.1628 45.8653 68.8548 45.3753 68.7335 44.722C68.7895 44.554 68.8828 44.414 69.0135 44.302C69.1442 44.19 69.3075 44.134 69.5035 44.134C69.7555 44.134 69.9515 44.2133 70.0915 44.372C70.2408 44.5213 70.3575 44.7827 70.4415 45.156L70.6655 46.276L70.0215 45.8C70.2175 45.856 70.4275 45.898 70.6515 45.926C70.8755 45.954 71.1182 45.968 71.3795 45.968C71.8462 45.968 72.2288 45.8933 72.5275 45.744C72.8355 45.5853 73.0642 45.3613 73.2135 45.072C73.3722 44.7733 73.4515 44.4233 73.4515 44.022C73.4515 43.6393 73.3722 43.3127 73.2135 43.042C73.0548 42.762 72.8122 42.552 72.4855 42.412C72.1682 42.2627 71.7668 42.188 71.2815 42.188H70.6655V41.418H71.1695C71.6362 41.418 72.0188 41.348 72.3175 41.208C72.6255 41.0587 72.8542 40.8487 73.0035 40.578C73.1528 40.3073 73.2275 39.9853 73.2275 39.612C73.2275 39.2667 73.1622 38.9773 73.0315 38.744C72.9008 38.5013 72.7048 38.3193 72.4435 38.198C72.1822 38.0673 71.8508 38.002 71.4495 38.002C71.2255 38.002 71.0108 38.016 70.8055 38.044C70.6095 38.072 70.4088 38.1093 70.2035 38.156L70.9175 37.736L70.6795 38.786C70.6048 39.1127 70.4975 39.3507 70.3575 39.5C70.2175 39.64 70.0215 39.71 69.7695 39.71C69.5642 39.71 69.4008 39.6587 69.2795 39.556C69.1582 39.4533 69.0742 39.318 69.0275 39.15C69.1115 38.7487 69.2795 38.4127 69.5315 38.142C69.7835 37.862 70.1055 37.652 70.4975 37.512C70.8895 37.372 71.3328 37.302 71.8275 37.302C72.4248 37.302 72.9475 37.3953 73.3955 37.582C73.8435 37.7593 74.1888 38.0113 74.4315 38.338C74.6835 38.6553 74.8095 39.0333 74.8095 39.472C74.8095 39.8827 74.7022 40.256 74.4875 40.592C74.2728 40.9187 73.9695 41.1847 73.5775 41.39C73.1855 41.5953 72.7188 41.7307 72.1775 41.796V41.782C72.8122 41.8193 73.3395 41.9313 73.7595 42.118C74.1888 42.2953 74.5108 42.5473 74.7255 42.874C74.9402 43.1913 75.0475 43.588 75.0475 44.064C75.0475 44.5493 74.9122 44.9927 74.6415 45.394C74.3708 45.786 73.9788 46.0987 73.4655 46.332C72.9522 46.5653 72.3315 46.682 71.6035 46.682ZM79.1367 46.682C78.3434 46.682 77.6947 46.5187 77.1907 46.192C76.6961 45.8653 76.3881 45.3753 76.2667 44.722C76.3227 44.554 76.4161 44.414 76.5467 44.302C76.6774 44.19 76.8407 44.134 77.0367 44.134C77.2887 44.134 77.4847 44.2133 77.6247 44.372C77.7741 44.5213 77.8907 44.7827 77.9747 45.156L78.1987 46.276L77.5547 45.8C77.7507 45.856 77.9607 45.898 78.1847 45.926C78.4087 45.954 78.6514 45.968 78.9127 45.968C79.3794 45.968 79.7621 45.8933 80.0607 45.744C80.3687 45.5853 80.5974 45.3613 80.7467 45.072C80.9054 44.7733 80.9847 44.4233 80.9847 44.022C80.9847 43.6393 80.9054 43.3127 80.7467 43.042C80.5881 42.762 80.3454 42.552 80.0187 42.412C79.7014 42.2627 79.3001 42.188 78.8147 42.188H78.1987V41.418H78.7027C79.1694 41.418 79.5521 41.348 79.8507 41.208C80.1587 41.0587 80.3874 40.8487 80.5367 40.578C80.6861 40.3073 80.7607 39.9853 80.7607 39.612C80.7607 39.2667 80.6954 38.9773 80.5647 38.744C80.4341 38.5013 80.2381 38.3193 79.9767 38.198C79.7154 38.0673 79.3841 38.002 78.9827 38.002C78.7587 38.002 78.5441 38.016 78.3387 38.044C78.1427 38.072 77.9421 38.1093 77.7367 38.156L78.4507 37.736L78.2127 38.786C78.1381 39.1127 78.0307 39.3507 77.8907 39.5C77.7507 39.64 77.5547 39.71 77.3027 39.71C77.0974 39.71 76.9341 39.6587 76.8127 39.556C76.6914 39.4533 76.6074 39.318 76.5607 39.15C76.6447 38.7487 76.8127 38.4127 77.0647 38.142C77.3167 37.862 77.6387 37.652 78.0307 37.512C78.4227 37.372 78.8661 37.302 79.3607 37.302C79.9581 37.302 80.4807 37.3953 80.9287 37.582C81.3767 37.7593 81.7221 38.0113 81.9647 38.338C82.2167 38.6553 82.3427 39.0333 82.3427 39.472C82.3427 39.8827 82.2354 40.256 82.0207 40.592C81.8061 40.9187 81.5027 41.1847 81.1107 41.39C80.7187 41.5953 80.2521 41.7307 79.7107 41.796V41.782C80.3454 41.8193 80.8727 41.9313 81.2927 42.118C81.7221 42.2953 82.0441 42.5473 82.2587 42.874C82.4734 43.1913 82.5807 43.588 82.5807 44.064C82.5807 44.5493 82.4454 44.9927 82.1747 45.394C81.9041 45.786 81.5121 46.0987 80.9987 46.332C80.4854 46.5653 79.8647 46.682 79.1367 46.682ZM87.4679 46.696V44.036L87.4959 43.784V38.716H87.1179L87.6919 38.436L86.0119 41.152L84.1219 43.588L84.3039 42.944V43.364H90.4359V44.47H83.4779V43.518L87.7899 37.4H88.9799V46.696H87.4679Z" fill="#D7D334"/>
<rect x="107" y="29.5" width="47" height="25" rx="12.5" fill="#2F2F2F"/>
<path d="M115.608 46.5V45.73L117.05 45.618H117.344L118.926 45.73V46.5H115.608ZM116.448 46.5L119.738 37.106H121.068L124.386 46.5H122.636L119.892 38.38H119.906L119.584 39.78L117.33 46.5H116.448ZM118.03 43.616V42.832H122.272V43.616H118.03ZM120.984 46.5V45.73L122.804 45.618H123.378L125.198 45.73V46.5H120.984ZM125.685 46.5V45.73L127.127 45.618H127.421L129.003 45.73V46.5H125.685ZM126.525 46.5L129.815 37.106H131.145L134.463 46.5H132.713L129.969 38.38H129.983L129.661 39.78L127.407 46.5H126.525ZM128.107 43.616V42.832H132.349V43.616H128.107ZM131.061 46.5V45.73L132.881 45.618H133.455L135.275 45.73V46.5H131.061ZM135.761 46.5V45.73L137.203 45.618H137.497L139.079 45.73V46.5H135.761ZM136.601 46.5L139.891 37.106H141.221L144.539 46.5H142.789L140.045 38.38H140.059L139.737 39.78L137.483 46.5H136.601ZM138.183 43.616V42.832H142.425V43.616H138.183ZM141.137 46.5V45.73L142.957 45.618H143.531L145.351 45.73V46.5H141.137Z" fill="#D7D334"/>
<path d="M25.935 100.5V78.375H29.895V99.315L28.11 97.23H38.28V100.5H25.935ZM41.4338 100.5V78.375H45.3338V100.5H41.4338ZM66.701 92.535C66.701 93.475 66.526 94.43 66.176 95.4C65.826 96.37 65.291 97.27 64.571 98.1C63.861 98.92 62.961 99.58 61.871 100.08C60.781 100.58 59.501 100.83 58.031 100.83C56.041 100.83 54.341 100.345 52.931 99.375C51.531 98.395 50.461 97.05 49.721 95.34C48.991 93.63 48.626 91.665 48.626 89.445C48.626 87.215 48.991 85.245 49.721 83.535C50.461 81.825 51.531 80.485 52.931 79.515C54.341 78.545 56.041 78.06 58.031 78.06C59.681 78.06 61.091 78.375 62.261 79.005C63.431 79.635 64.366 80.445 65.066 81.435C65.766 82.425 66.236 83.46 66.476 84.54C66.626 85.17 66.701 85.77 66.701 86.34H62.726C62.726 86.05 62.706 85.75 62.666 85.44C62.556 84.68 62.301 83.99 61.901 83.37C61.511 82.74 60.991 82.245 60.341 81.885C59.691 81.515 58.921 81.33 58.031 81.33C56.971 81.33 56.036 81.625 55.226 82.215C54.426 82.805 53.796 83.7 53.336 84.9C52.876 86.1 52.646 87.615 52.646 89.445C52.646 91.255 52.876 92.765 53.336 93.975C53.796 95.185 54.426 96.09 55.226 96.69C56.036 97.29 56.971 97.59 58.031 97.59C58.791 97.59 59.461 97.45 60.041 97.17C60.621 96.89 61.111 96.515 61.511 96.045C61.911 95.565 62.211 95.025 62.411 94.425C62.621 93.825 62.726 93.195 62.726 92.535H66.701ZM86.5282 78.375V100.5H82.5682V89.7L84.3532 91.05H72.1432L73.9282 89.73V100.5H69.9682V78.375H73.9282V89.28L72.1432 87.9H84.3532L82.5682 89.265V78.375H86.5282ZM92.5781 81.525L94.3631 79.56V89.01L93.4331 87.825H101.713V90.975H93.4331L94.3631 89.805V99.315L92.5781 97.35H103.378V100.5H90.3881V78.375H103.378V81.525H92.5781ZM111.074 100.5H107.234V78.375H113.429L121.514 98.895L120.929 99.06V78.375H124.784V100.5H118.499L110.444 80.025L111.074 79.875V100.5ZM144.835 100.83C143.115 100.83 141.55 100.39 140.14 99.51C138.74 98.63 137.625 97.345 136.795 95.655C135.965 93.965 135.55 91.91 135.55 89.49C135.55 87.06 135.98 84.995 136.84 83.295C137.7 81.595 138.86 80.3 140.32 79.41C141.79 78.51 143.43 78.06 145.24 78.06C146.74 78.06 148.01 78.31 149.05 78.81C150.1 79.3 150.95 79.935 151.6 80.715C152.26 81.495 152.735 82.315 153.025 83.175C153.325 84.035 153.475 84.835 153.475 85.575C153.475 85.605 153.475 85.635 153.475 85.665C153.475 85.695 153.475 85.725 153.475 85.755H149.635C149.635 85.725 149.635 85.695 149.635 85.665C149.635 85.635 149.635 85.605 149.635 85.575C149.635 85.055 149.545 84.545 149.365 84.045C149.185 83.545 148.91 83.09 148.54 82.68C148.17 82.27 147.71 81.945 147.16 81.705C146.61 81.465 145.97 81.345 145.24 81.345C144.25 81.345 143.32 81.62 142.45 82.17C141.59 82.72 140.89 83.595 140.35 84.795C139.82 85.985 139.555 87.55 139.555 89.49C139.555 90.96 139.705 92.21 140.005 93.24C140.305 94.27 140.71 95.105 141.22 95.745C141.74 96.385 142.33 96.855 142.99 97.155C143.66 97.445 144.365 97.59 145.105 97.59C146.105 97.59 146.935 97.42 147.595 97.08C148.265 96.74 148.785 96.315 149.155 95.805C149.535 95.295 149.775 94.795 149.875 94.305V92.58H145.15V89.61H153.415V100.5H151.135L150.805 98.04C150.735 98.22 150.57 98.465 150.31 98.775C150.06 99.085 149.7 99.4 149.23 99.72C148.76 100.03 148.16 100.29 147.43 100.5C146.71 100.72 145.845 100.83 144.835 100.83ZM157.331 100.5V78.375H161.291V99.315L159.506 97.23H169.676V100.5H157.331ZM180.1 100.83C178.76 100.83 177.51 100.58 176.35 100.08C175.19 99.58 174.17 98.845 173.29 97.875C172.42 96.895 171.74 95.7 171.25 94.29C170.77 92.87 170.53 91.245 170.53 89.415C170.53 87.585 170.77 85.965 171.25 84.555C171.74 83.145 172.42 81.96 173.29 81C174.16 80.03 175.175 79.3 176.335 78.81C177.505 78.31 178.76 78.06 180.1 78.06C181.46 78.06 182.72 78.31 183.88 78.81C185.05 79.3 186.07 80.03 186.94 81C187.81 81.96 188.485 83.145 188.965 84.555C189.455 85.965 189.7 87.585 189.7 89.415C189.7 91.245 189.455 92.87 188.965 94.29C188.475 95.7 187.79 96.895 186.91 97.875C186.04 98.845 185.025 99.58 183.865 100.08C182.705 100.58 181.45 100.83 180.1 100.83ZM180.1 97.575C181.14 97.575 182.08 97.295 182.92 96.735C183.76 96.165 184.425 95.28 184.915 94.08C185.415 92.88 185.665 91.325 185.665 89.415C185.665 87.495 185.415 85.945 184.915 84.765C184.415 83.575 183.745 82.705 182.905 82.155C182.065 81.605 181.13 81.33 180.1 81.33C179.09 81.33 178.16 81.605 177.31 82.155C176.47 82.705 175.795 83.575 175.285 84.765C174.785 85.945 174.535 87.495 174.535 89.415C174.535 91.335 174.785 92.895 175.285 94.095C175.795 95.295 176.47 96.175 177.31 96.735C178.16 97.295 179.09 97.575 180.1 97.575ZM194.422 100.5L191.092 78.375H195.172L197.722 99.465L197.152 99.435L201.232 78.375H206.212L210.277 99.435L209.707 99.465L212.257 78.375H216.352L212.992 100.5H206.932L203.512 81.24H203.932L200.512 100.5H194.422Z" fill="#2F2F2F"/>
<path d="M24.756 128.5V127.69L27.132 127.474H27.582L29.958 127.69V128.5H24.756ZM26.43 128.5C26.454 127.888 26.466 127.276 26.466 126.664C26.478 126.04 26.484 125.416 26.484 124.792C26.484 124.168 26.484 123.544 26.484 122.92V122.038C26.484 121.414 26.484 120.79 26.484 120.166C26.484 119.542 26.478 118.918 26.466 118.294C26.466 117.67 26.454 117.052 26.43 116.44H28.266C28.266 117.064 28.26 117.688 28.248 118.312C28.236 118.936 28.23 119.566 28.23 120.202C28.23 120.838 28.23 121.504 28.23 122.2V122.758C28.23 123.43 28.23 124.09 28.23 124.738C28.23 125.374 28.236 126.004 28.248 126.628C28.26 127.252 28.266 127.876 28.266 128.5H26.43ZM34.296 128.68C33.72 128.68 33.282 128.59 32.982 128.41C32.682 128.218 32.472 127.894 32.352 127.438L31.65 124.684C31.542 124.204 31.386 123.838 31.182 123.586C30.978 123.334 30.72 123.166 30.408 123.082C30.108 122.986 29.712 122.938 29.22 122.938H27.384V122.092H29.67C30.318 122.092 30.852 121.984 31.272 121.768C31.704 121.552 32.022 121.258 32.226 120.886C32.43 120.514 32.532 120.088 32.532 119.608C32.532 118.864 32.316 118.3 31.884 117.916C31.452 117.52 30.768 117.322 29.832 117.322H27.42V116.44H29.922C31.326 116.44 32.412 116.716 33.18 117.268C33.96 117.82 34.35 118.588 34.35 119.572C34.35 120.1 34.206 120.592 33.918 121.048C33.642 121.492 33.228 121.858 32.676 122.146C32.136 122.422 31.476 122.59 30.696 122.65V122.596C31.068 122.62 31.398 122.68 31.686 122.776C31.986 122.86 32.244 122.992 32.46 123.172C32.676 123.352 32.862 123.586 33.018 123.874C33.186 124.15 33.33 124.492 33.45 124.9L34.332 127.924L33.702 127.492L35.682 127.708V128.5C35.562 128.536 35.43 128.566 35.286 128.59C35.142 128.614 34.986 128.632 34.818 128.644C34.662 128.668 34.488 128.68 34.296 128.68ZM24.756 117.25V116.44H27.276V117.466H27.078L24.756 117.25ZM40.8173 128.734C39.9533 128.734 39.2033 128.56 38.5673 128.212C37.9433 127.852 37.4573 127.342 37.1093 126.682C36.7733 126.01 36.6053 125.212 36.6053 124.288C36.6053 123.352 36.7853 122.536 37.1453 121.84C37.5173 121.144 38.0153 120.604 38.6393 120.22C39.2753 119.824 39.9773 119.626 40.7453 119.626C41.4173 119.626 42.0113 119.764 42.5273 120.04C43.0433 120.316 43.4513 120.712 43.7513 121.228C44.0513 121.744 44.2013 122.368 44.2013 123.1C44.2013 123.316 44.1893 123.52 44.1653 123.712C44.1413 123.892 44.1113 124.048 44.0753 124.18H37.3793V123.388H41.6993C42.1193 123.364 42.3893 123.268 42.5093 123.1C42.6293 122.92 42.6893 122.71 42.6893 122.47C42.6893 122.038 42.6113 121.678 42.4553 121.39C42.2993 121.09 42.0773 120.868 41.7893 120.724C41.5013 120.568 41.1533 120.49 40.7453 120.49C40.3253 120.49 39.9173 120.61 39.5213 120.85C39.1373 121.09 38.8253 121.474 38.5853 122.002C38.3453 122.518 38.2253 123.208 38.2253 124.072C38.2253 124.816 38.3453 125.446 38.5853 125.962C38.8253 126.478 39.1673 126.874 39.6113 127.15C40.0673 127.414 40.6013 127.546 41.2133 127.546C41.8013 127.546 42.3053 127.444 42.7253 127.24C43.1573 127.036 43.5533 126.736 43.9133 126.34L44.3453 126.7C44.0933 127.096 43.8113 127.45 43.4993 127.762C43.1873 128.074 42.8153 128.314 42.3833 128.482C41.9633 128.65 41.4413 128.734 40.8173 128.734ZM48.8018 128.734C48.2618 128.734 47.7698 128.674 47.3258 128.554C46.8818 128.446 46.4438 128.284 46.0118 128.068L45.9398 126.016H46.9658L47.4338 128.176H46.6418V127.24C46.9418 127.456 47.2718 127.618 47.6318 127.726C47.9918 127.834 48.3878 127.888 48.8198 127.888C49.2878 127.888 49.6718 127.828 49.9718 127.708C50.2718 127.588 50.4878 127.426 50.6198 127.222C50.7638 127.006 50.8358 126.766 50.8358 126.502C50.8358 126.106 50.6978 125.794 50.4218 125.566C50.1458 125.338 49.7198 125.128 49.1438 124.936L48.4058 124.648C47.9258 124.48 47.5058 124.288 47.1458 124.072C46.7978 123.844 46.5278 123.574 46.3358 123.262C46.1558 122.95 46.0658 122.584 46.0658 122.164C46.0658 121.708 46.1858 121.288 46.4258 120.904C46.6778 120.52 47.0438 120.214 47.5238 119.986C48.0158 119.746 48.5978 119.626 49.2698 119.626C49.7738 119.626 50.2358 119.686 50.6558 119.806C51.0878 119.926 51.4898 120.1 51.8618 120.328L51.8078 122.236H50.8358L50.4578 120.346H51.1418V121.12C50.8538 120.904 50.5538 120.742 50.2418 120.634C49.9298 120.526 49.6058 120.472 49.2698 120.472C48.6938 120.472 48.2618 120.586 47.9738 120.814C47.6858 121.042 47.5418 121.342 47.5418 121.714C47.5418 122.098 47.6678 122.398 47.9198 122.614C48.1718 122.818 48.6038 123.028 49.2158 123.244L49.7558 123.442C50.3678 123.646 50.8658 123.886 51.2498 124.162C51.6338 124.426 51.9098 124.72 52.0778 125.044C52.2578 125.356 52.3478 125.716 52.3478 126.124C52.3478 126.592 52.2098 127.024 51.9338 127.42C51.6698 127.816 51.2738 128.134 50.7458 128.374C50.2298 128.614 49.5818 128.734 48.8018 128.734ZM55.6118 120.832V119.842H58.8698V120.832H55.6118ZM56.9438 128.716C56.2958 128.716 55.7798 128.542 55.3958 128.194C55.0118 127.846 54.8198 127.312 54.8198 126.592C54.8198 126.364 54.8198 126.142 54.8198 125.926C54.8318 125.71 54.8378 125.44 54.8378 125.116V120.832H53.3078V120.022L55.5758 119.752L54.8558 120.328L55.4318 117.394H56.5298L56.3678 120.292L56.4038 120.598V126.394C56.4038 126.862 56.4938 127.204 56.6738 127.42C56.8658 127.624 57.1178 127.726 57.4298 127.726C57.6458 127.726 57.8438 127.684 58.0238 127.6C58.2158 127.516 58.4198 127.408 58.6358 127.276L59.0498 127.816C58.9058 127.996 58.7258 128.158 58.5098 128.302C58.3058 128.434 58.0718 128.536 57.8078 128.608C57.5438 128.68 57.2558 128.716 56.9438 128.716ZM59.6607 128.5V127.78L61.6947 127.474H62.1267L64.1787 127.78V128.5H59.6607ZM61.1007 128.5C61.1127 128.08 61.1187 127.66 61.1187 127.24C61.1187 126.808 61.1187 126.382 61.1187 125.962C61.1307 125.53 61.1367 125.104 61.1367 124.684V116.854L59.6427 116.638V115.954L62.4147 115.216L62.7567 115.324L62.6847 117.808V124.684C62.6847 125.104 62.6847 125.53 62.6847 125.962C62.6967 126.382 62.7027 126.808 62.7027 127.24C62.7147 127.66 62.7267 128.08 62.7387 128.5H61.1007ZM69.7158 128.734C68.8518 128.734 68.1018 128.56 67.4658 128.212C66.8418 127.852 66.3558 127.342 66.0078 126.682C65.6718 126.01 65.5038 125.212 65.5038 124.288C65.5038 123.352 65.6838 122.536 66.0438 121.84C66.4158 121.144 66.9138 120.604 67.5378 120.22C68.1738 119.824 68.8758 119.626 69.6438 119.626C70.3158 119.626 70.9098 119.764 71.4258 120.04C71.9418 120.316 72.3498 120.712 72.6498 121.228C72.9498 121.744 73.0998 122.368 73.0998 123.1C73.0998 123.316 73.0878 123.52 73.0638 123.712C73.0398 123.892 73.0098 124.048 72.9738 124.18H66.2778V123.388H70.5978C71.0178 123.364 71.2878 123.268 71.4078 123.1C71.5278 122.92 71.5878 122.71 71.5878 122.47C71.5878 122.038 71.5098 121.678 71.3538 121.39C71.1978 121.09 70.9758 120.868 70.6878 120.724C70.3998 120.568 70.0518 120.49 69.6438 120.49C69.2238 120.49 68.8158 120.61 68.4198 120.85C68.0358 121.09 67.7238 121.474 67.4838 122.002C67.2438 122.518 67.1238 123.208 67.1238 124.072C67.1238 124.816 67.2438 125.446 67.4838 125.962C67.7238 126.478 68.0658 126.874 68.5098 127.15C68.9658 127.414 69.4998 127.546 70.1118 127.546C70.6998 127.546 71.2038 127.444 71.6238 127.24C72.0558 127.036 72.4518 126.736 72.8118 126.34L73.2438 126.7C72.9918 127.096 72.7098 127.45 72.3978 127.762C72.0858 128.074 71.7138 128.314 71.2818 128.482C70.8618 128.65 70.3398 128.734 69.7158 128.734ZM77.7002 128.734C77.1602 128.734 76.6682 128.674 76.2242 128.554C75.7802 128.446 75.3422 128.284 74.9102 128.068L74.8382 126.016H75.8642L76.3322 128.176H75.5402V127.24C75.8402 127.456 76.1702 127.618 76.5302 127.726C76.8902 127.834 77.2862 127.888 77.7182 127.888C78.1862 127.888 78.5702 127.828 78.8702 127.708C79.1702 127.588 79.3862 127.426 79.5182 127.222C79.6622 127.006 79.7342 126.766 79.7342 126.502C79.7342 126.106 79.5962 125.794 79.3202 125.566C79.0442 125.338 78.6182 125.128 78.0422 124.936L77.3042 124.648C76.8242 124.48 76.4042 124.288 76.0442 124.072C75.6962 123.844 75.4262 123.574 75.2342 123.262C75.0542 122.95 74.9642 122.584 74.9642 122.164C74.9642 121.708 75.0842 121.288 75.3242 120.904C75.5762 120.52 75.9422 120.214 76.4222 119.986C76.9142 119.746 77.4962 119.626 78.1682 119.626C78.6722 119.626 79.1342 119.686 79.5542 119.806C79.9862 119.926 80.3882 120.1 80.7602 120.328L80.7062 122.236H79.7342L79.3562 120.346H80.0402V121.12C79.7522 120.904 79.4522 120.742 79.1402 120.634C78.8282 120.526 78.5042 120.472 78.1682 120.472C77.5922 120.472 77.1602 120.586 76.8722 120.814C76.5842 121.042 76.4402 121.342 76.4402 121.714C76.4402 122.098 76.5662 122.398 76.8182 122.614C77.0702 122.818 77.5022 123.028 78.1142 123.244L78.6542 123.442C79.2662 123.646 79.7642 123.886 80.1482 124.162C80.5322 124.426 80.8082 124.72 80.9762 125.044C81.1562 125.356 81.2462 125.716 81.2462 126.124C81.2462 126.592 81.1082 127.024 80.8322 127.42C80.5682 127.816 80.1722 128.134 79.6442 128.374C79.1282 128.614 78.4802 128.734 77.7002 128.734ZM85.6982 128.734C85.1582 128.734 84.6662 128.674 84.2222 128.554C83.7782 128.446 83.3402 128.284 82.9082 128.068L82.8362 126.016H83.8622L84.3302 128.176H83.5382V127.24C83.8382 127.456 84.1682 127.618 84.5282 127.726C84.8882 127.834 85.2842 127.888 85.7162 127.888C86.1842 127.888 86.5682 127.828 86.8682 127.708C87.1682 127.588 87.3842 127.426 87.5162 127.222C87.6602 127.006 87.7322 126.766 87.7322 126.502C87.7322 126.106 87.5942 125.794 87.3182 125.566C87.0422 125.338 86.6162 125.128 86.0402 124.936L85.3022 124.648C84.8222 124.48 84.4022 124.288 84.0422 124.072C83.6942 123.844 83.4242 123.574 83.2322 123.262C83.0522 122.95 82.9622 122.584 82.9622 122.164C82.9622 121.708 83.0822 121.288 83.3222 120.904C83.5742 120.52 83.9402 120.214 84.4202 119.986C84.9122 119.746 85.4942 119.626 86.1662 119.626C86.6702 119.626 87.1322 119.686 87.5522 119.806C87.9842 119.926 88.3862 120.1 88.7582 120.328L88.7042 122.236H87.7322L87.3542 120.346H88.0382V121.12C87.7502 120.904 87.4502 120.742 87.1382 120.634C86.8262 120.526 86.5022 120.472 86.1662 120.472C85.5902 120.472 85.1582 120.586 84.8702 120.814C84.5822 121.042 84.4382 121.342 84.4382 121.714C84.4382 122.098 84.5642 122.398 84.8162 122.614C85.0682 122.818 85.5002 123.028 86.1122 123.244L86.6522 123.442C87.2642 123.646 87.7622 123.886 88.1462 124.162C88.5302 124.426 88.8062 124.72 88.9742 125.044C89.1542 125.356 89.2442 125.716 89.2442 126.124C89.2442 126.592 89.1062 127.024 88.8302 127.42C88.5662 127.816 88.1702 128.134 87.6422 128.374C87.1262 128.614 86.4782 128.734 85.6982 128.734ZM97.915 128.734C97.375 128.734 96.883 128.674 96.439 128.554C95.995 128.446 95.557 128.284 95.125 128.068L95.053 126.016H96.079L96.547 128.176H95.755V127.24C96.055 127.456 96.385 127.618 96.745 127.726C97.105 127.834 97.501 127.888 97.933 127.888C98.401 127.888 98.785 127.828 99.085 127.708C99.385 127.588 99.601 127.426 99.733 127.222C99.877 127.006 99.949 126.766 99.949 126.502C99.949 126.106 99.811 125.794 99.535 125.566C99.259 125.338 98.833 125.128 98.257 124.936L97.519 124.648C97.039 124.48 96.619 124.288 96.259 124.072C95.911 123.844 95.641 123.574 95.449 123.262C95.269 122.95 95.179 122.584 95.179 122.164C95.179 121.708 95.299 121.288 95.539 120.904C95.791 120.52 96.157 120.214 96.637 119.986C97.129 119.746 97.711 119.626 98.383 119.626C98.887 119.626 99.349 119.686 99.769 119.806C100.201 119.926 100.603 120.1 100.975 120.328L100.921 122.236H99.949L99.571 120.346H100.255V121.12C99.967 120.904 99.667 120.742 99.355 120.634C99.043 120.526 98.719 120.472 98.383 120.472C97.807 120.472 97.375 120.586 97.087 120.814C96.799 121.042 96.655 121.342 96.655 121.714C96.655 122.098 96.781 122.398 97.033 122.614C97.285 122.818 97.717 123.028 98.329 123.244L98.869 123.442C99.481 123.646 99.979 123.886 100.363 124.162C100.747 124.426 101.023 124.72 101.191 125.044C101.371 125.356 101.461 125.716 101.461 126.124C101.461 126.592 101.323 127.024 101.047 127.42C100.783 127.816 100.387 128.134 99.859 128.374C99.343 128.614 98.695 128.734 97.915 128.734ZM102.66 132.766V132.046L104.694 131.758H105.144L107.34 132.046V132.766H102.66ZM104.1 132.766C104.112 132.346 104.118 131.932 104.118 131.524C104.13 131.116 104.136 130.702 104.136 130.282C104.148 129.874 104.154 129.466 104.154 129.058V123.802C104.154 123.478 104.148 123.19 104.136 122.938C104.136 122.686 104.13 122.446 104.118 122.218C104.118 121.99 104.112 121.75 104.1 121.498L102.66 121.372V120.688L105.108 119.662L105.45 119.806L105.63 121.372L105.702 121.426V127.042L105.648 127.132L105.666 129.094C105.666 129.49 105.666 129.892 105.666 130.3C105.678 130.72 105.684 131.134 105.684 131.542C105.696 131.95 105.702 132.358 105.702 132.766H104.1ZM108.168 128.734C107.82 128.734 107.484 128.674 107.16 128.554C106.836 128.446 106.524 128.266 106.224 128.014C105.936 127.75 105.66 127.408 105.396 126.988H104.928L105.054 125.926C105.522 126.538 105.972 126.982 106.404 127.258C106.848 127.534 107.304 127.672 107.772 127.672C108.24 127.672 108.654 127.552 109.014 127.312C109.386 127.072 109.68 126.7 109.896 126.196C110.124 125.692 110.238 125.05 110.238 124.27C110.238 123.106 110.022 122.218 109.59 121.606C109.158 120.994 108.612 120.688 107.952 120.688C107.688 120.688 107.406 120.742 107.106 120.85C106.818 120.958 106.506 121.138 106.17 121.39C105.834 121.63 105.456 121.96 105.036 122.38L104.91 121.408H105.396C105.696 121.012 106.002 120.682 106.314 120.418C106.626 120.154 106.956 119.956 107.304 119.824C107.652 119.692 108.018 119.626 108.402 119.626C109.062 119.626 109.656 119.806 110.184 120.166C110.712 120.526 111.126 121.042 111.426 121.714C111.738 122.386 111.894 123.196 111.894 124.144C111.894 125.092 111.732 125.908 111.408 126.592C111.084 127.276 110.64 127.804 110.076 128.176C109.524 128.548 108.888 128.734 108.168 128.734ZM115.975 128.752C115.303 128.752 114.727 128.56 114.247 128.176C113.779 127.78 113.545 127.21 113.545 126.466C113.545 126.082 113.623 125.734 113.779 125.422C113.947 125.098 114.241 124.798 114.661 124.522C115.093 124.246 115.705 123.994 116.497 123.766C116.833 123.658 117.157 123.562 117.469 123.478C117.793 123.382 118.111 123.292 118.423 123.208C118.747 123.112 119.071 123.022 119.395 122.938V123.604C118.975 123.736 118.561 123.868 118.153 124C117.745 124.132 117.337 124.264 116.929 124.396C116.413 124.564 116.029 124.75 115.777 124.954C115.525 125.146 115.357 125.35 115.273 125.566C115.201 125.77 115.165 125.98 115.165 126.196C115.165 126.652 115.303 126.988 115.579 127.204C115.855 127.42 116.203 127.528 116.623 127.528C116.863 127.528 117.085 127.492 117.289 127.42C117.493 127.336 117.733 127.198 118.009 127.006C118.297 126.802 118.663 126.526 119.107 126.178L119.323 127.114H118.747C118.423 127.462 118.123 127.756 117.847 127.996C117.583 128.236 117.301 128.422 117.001 128.554C116.713 128.686 116.371 128.752 115.975 128.752ZM120.367 128.68C119.863 128.68 119.455 128.518 119.143 128.194C118.843 127.858 118.687 127.396 118.675 126.808V126.736V122.668C118.675 122.092 118.615 121.648 118.495 121.336C118.375 121.012 118.183 120.79 117.919 120.67C117.655 120.538 117.319 120.472 116.911 120.472C116.671 120.472 116.413 120.496 116.137 120.544C115.873 120.592 115.579 120.682 115.255 120.814L115.993 120.184L115.597 121.75C115.525 122.05 115.411 122.278 115.255 122.434C115.099 122.59 114.895 122.668 114.643 122.668C114.379 122.668 114.175 122.602 114.031 122.47C113.887 122.326 113.797 122.146 113.761 121.93C113.929 121.222 114.331 120.664 114.967 120.256C115.615 119.836 116.407 119.626 117.343 119.626C117.979 119.626 118.507 119.728 118.927 119.932C119.347 120.136 119.665 120.466 119.881 120.922C120.109 121.378 120.223 121.984 120.223 122.74V126.628C120.223 127.012 120.283 127.288 120.403 127.456C120.523 127.612 120.691 127.69 120.907 127.69C121.063 127.69 121.195 127.66 121.303 127.6C121.411 127.528 121.513 127.438 121.609 127.33L121.951 127.816C121.747 128.116 121.513 128.338 121.249 128.482C120.997 128.614 120.703 128.68 120.367 128.68ZM122.772 128.5V127.78L124.752 127.474H125.22L127.29 127.78V128.5H122.772ZM124.086 128.5C124.098 128.2 124.104 127.828 124.104 127.384C124.116 126.928 124.122 126.46 124.122 125.98C124.134 125.5 124.14 125.068 124.14 124.684V123.802C124.14 123.478 124.134 123.19 124.122 122.938C124.122 122.686 124.116 122.446 124.104 122.218C124.104 121.99 124.098 121.75 124.086 121.498L122.646 121.372V120.688L125.112 119.662L125.454 119.806L125.67 122.128L125.706 122.146V124.684C125.706 125.068 125.706 125.5 125.706 125.98C125.706 126.46 125.706 126.928 125.706 127.384C125.718 127.828 125.73 128.2 125.742 128.5H124.086ZM125.616 123.478L125.4 122.218H125.652C125.856 121.678 126.096 121.216 126.372 120.832C126.648 120.448 126.954 120.154 127.29 119.95C127.626 119.734 127.968 119.626 128.316 119.626C128.628 119.626 128.898 119.698 129.126 119.842C129.366 119.974 129.54 120.142 129.648 120.346C129.636 120.754 129.54 121.078 129.36 121.318C129.192 121.558 128.922 121.678 128.55 121.678C128.322 121.678 128.118 121.636 127.938 121.552C127.758 121.468 127.584 121.354 127.416 121.21L126.966 120.778L127.866 120.652C127.29 120.94 126.822 121.324 126.462 121.804C126.114 122.272 125.832 122.83 125.616 123.478ZM130.096 128.5V127.78L132.13 127.474H132.562L134.614 127.78V128.5H130.096ZM131.536 128.5C131.548 128.188 131.554 127.876 131.554 127.564C131.554 127.24 131.554 126.922 131.554 126.61C131.566 126.286 131.572 125.962 131.572 125.638C131.572 125.314 131.572 124.996 131.572 124.684V116.854L130.078 116.638V115.954L132.85 115.216L133.192 115.324L133.12 117.808V124.684C133.12 124.996 133.12 125.314 133.12 125.638C133.12 125.962 133.12 126.286 133.12 126.61C133.132 126.922 133.138 127.24 133.138 127.564C133.15 127.876 133.162 128.188 133.174 128.5H131.536ZM132.382 125.98V124.774H132.58L134.938 122.29L137.296 119.842H138.484L132.382 125.98ZM137.134 128.5L134.146 123.676L135.226 122.578L138.412 127.582L139.636 127.798V128.5H137.134ZM134.884 120.598V119.842H139.204V120.598L137.134 120.886L136.648 120.976L134.884 120.598ZM142.417 128.734C142.057 128.734 141.751 128.608 141.499 128.356C141.259 128.104 141.139 127.804 141.139 127.456C141.139 127.096 141.259 126.79 141.499 126.538C141.751 126.286 142.057 126.16 142.417 126.16C142.777 126.16 143.083 126.286 143.335 126.538C143.587 126.79 143.713 127.096 143.713 127.456C143.713 127.804 143.587 128.104 143.335 128.356C143.083 128.608 142.777 128.734 142.417 128.734ZM142.417 122.578C142.057 122.578 141.751 122.452 141.499 122.2C141.259 121.948 141.139 121.648 141.139 121.3C141.139 120.94 141.259 120.634 141.499 120.382C141.751 120.13 142.057 120.004 142.417 120.004C142.777 120.004 143.083 120.13 143.335 120.382C143.587 120.634 143.713 120.94 143.713 121.3C143.713 121.648 143.587 121.948 143.335 122.2C143.083 122.452 142.777 122.578 142.417 122.578ZM151.752 128.5V127.69L154.29 127.474H154.758L157.296 127.69V128.5H151.752ZM153.606 128.5C153.63 127.888 153.642 127.276 153.642 126.664C153.654 126.04 153.66 125.416 153.66 124.792C153.66 124.168 153.66 123.544 153.66 122.92V122.038C153.66 121.414 153.66 120.79 153.66 120.166C153.66 119.542 153.654 118.918 153.642 118.294C153.642 117.67 153.63 117.052 153.606 116.44H155.424C155.424 117.04 155.418 117.652 155.406 118.276C155.394 118.9 155.388 119.524 155.388 120.148C155.388 120.772 155.388 121.402 155.388 122.038V122.92C155.388 123.532 155.388 124.15 155.388 124.774C155.388 125.398 155.394 126.022 155.406 126.646C155.418 127.258 155.424 127.876 155.424 128.5H153.606ZM149.358 119.68L149.502 116.44H159.528L159.672 119.68H158.61L158.034 116.512L158.862 117.376H150.168L151.014 116.512L150.42 119.68H149.358ZM160.631 128.5V127.78L162.611 127.474H163.061L164.897 127.78V128.5H160.631ZM161.999 128.5C162.011 128.2 162.017 127.828 162.017 127.384C162.017 126.928 162.017 126.46 162.017 125.98C162.029 125.5 162.035 125.068 162.035 124.684V116.854L160.541 116.638V115.954L163.277 115.216L163.601 115.324L163.547 117.808L163.529 121.642L163.583 121.84V124.684C163.583 125.068 163.583 125.5 163.583 125.98C163.595 126.46 163.601 126.928 163.601 127.384C163.613 127.828 163.625 128.2 163.637 128.5H161.999ZM166.319 128.5V127.78L168.281 127.474H168.731L170.567 127.78V128.5H166.319ZM167.633 128.5C167.645 128.2 167.651 127.828 167.651 127.384C167.663 126.94 167.669 126.478 167.669 125.998C167.669 125.518 167.669 125.08 167.669 124.684V123.082C167.669 122.278 167.549 121.726 167.309 121.426C167.081 121.114 166.703 120.958 166.175 120.958C165.875 120.958 165.581 121 165.293 121.084C165.005 121.168 164.711 121.3 164.411 121.48C164.111 121.66 163.793 121.9 163.457 122.2L163.187 121.498H163.493C163.769 121.138 164.087 120.82 164.447 120.544C164.807 120.256 165.191 120.034 165.599 119.878C166.019 119.71 166.439 119.626 166.859 119.626C167.663 119.626 168.257 119.89 168.641 120.418C169.037 120.934 169.235 121.762 169.235 122.902V124.684C169.235 125.08 169.235 125.518 169.235 125.998C169.247 126.478 169.253 126.94 169.253 127.384C169.265 127.828 169.277 128.2 169.289 128.5H167.633ZM176.134 128.734C175.27 128.734 174.52 128.56 173.884 128.212C173.26 127.852 172.774 127.342 172.426 126.682C172.09 126.01 171.922 125.212 171.922 124.288C171.922 123.352 172.102 122.536 172.462 121.84C172.834 121.144 173.332 120.604 173.956 120.22C174.592 119.824 175.294 119.626 176.062 119.626C176.734 119.626 177.328 119.764 177.844 120.04C178.36 120.316 178.768 120.712 179.068 121.228C179.368 121.744 179.518 122.368 179.518 123.1C179.518 123.316 179.506 123.52 179.482 123.712C179.458 123.892 179.428 124.048 179.392 124.18H172.696V123.388H177.016C177.436 123.364 177.706 123.268 177.826 123.1C177.946 122.92 178.006 122.71 178.006 122.47C178.006 122.038 177.928 121.678 177.772 121.39C177.616 121.09 177.394 120.868 177.106 120.724C176.818 120.568 176.47 120.49 176.062 120.49C175.642 120.49 175.234 120.61 174.838 120.85C174.454 121.09 174.142 121.474 173.902 122.002C173.662 122.518 173.542 123.208 173.542 124.072C173.542 124.816 173.662 125.446 173.902 125.962C174.142 126.478 174.484 126.874 174.928 127.15C175.384 127.414 175.918 127.546 176.53 127.546C177.118 127.546 177.622 127.444 178.042 127.24C178.474 127.036 178.87 126.736 179.23 126.34L179.662 126.7C179.41 127.096 179.128 127.45 178.816 127.762C178.504 128.074 178.132 128.314 177.7 128.482C177.28 128.65 176.758 128.734 176.134 128.734ZM189.669 128.734C188.805 128.734 188.055 128.56 187.419 128.212C186.795 127.852 186.309 127.342 185.961 126.682C185.625 126.01 185.457 125.212 185.457 124.288C185.457 123.352 185.637 122.536 185.997 121.84C186.369 121.144 186.867 120.604 187.491 120.22C188.127 119.824 188.829 119.626 189.597 119.626C190.269 119.626 190.863 119.764 191.379 120.04C191.895 120.316 192.303 120.712 192.603 121.228C192.903 121.744 193.053 122.368 193.053 123.1C193.053 123.316 193.041 123.52 193.017 123.712C192.993 123.892 192.963 124.048 192.927 124.18H186.231V123.388H190.551C190.971 123.364 191.241 123.268 191.361 123.1C191.481 122.92 191.541 122.71 191.541 122.47C191.541 122.038 191.463 121.678 191.307 121.39C191.151 121.09 190.929 120.868 190.641 120.724C190.353 120.568 190.005 120.49 189.597 120.49C189.177 120.49 188.769 120.61 188.373 120.85C187.989 121.09 187.677 121.474 187.437 122.002C187.197 122.518 187.077 123.208 187.077 124.072C187.077 124.816 187.197 125.446 187.437 125.962C187.677 126.478 188.019 126.874 188.463 127.15C188.919 127.414 189.453 127.546 190.065 127.546C190.653 127.546 191.157 127.444 191.577 127.24C192.009 127.036 192.405 126.736 192.765 126.34L193.197 126.7C192.945 127.096 192.663 127.45 192.351 127.762C192.039 128.074 191.667 128.314 191.235 128.482C190.815 128.65 190.293 128.734 189.669 128.734ZM194.161 128.5V127.78L195.745 127.546H196.177L197.851 127.78V128.5H194.161ZM194.629 128.5L198.427 123.748L199.057 124.27H198.895L197.383 126.412L195.817 128.5H194.629ZM198.985 128.5V127.78L200.983 127.474H201.487L203.449 127.78V128.5H198.985ZM199.111 124.504L198.517 123.91H198.679L200.155 121.858L201.667 119.842H202.873L199.111 124.504ZM200.965 128.5L198.193 124.594L194.863 119.842H196.591L199.237 123.586L202.783 128.5H200.965ZM194.269 120.598V119.842H198.409V120.598L196.645 120.886H196.177L194.269 120.598ZM199.723 120.598V119.842H203.215V120.598L201.649 120.868H201.253L199.723 120.598ZM206.186 120.832V119.842H209.444V120.832H206.186ZM207.518 128.716C206.87 128.716 206.354 128.542 205.97 128.194C205.586 127.846 205.394 127.312 205.394 126.592C205.394 126.364 205.394 126.142 205.394 125.926C205.406 125.71 205.412 125.44 205.412 125.116V120.832H203.882V120.022L206.15 119.752L205.43 120.328L206.006 117.394H207.104L206.942 120.292L206.978 120.598V126.394C206.978 126.862 207.068 127.204 207.248 127.42C207.44 127.624 207.692 127.726 208.004 127.726C208.22 127.726 208.418 127.684 208.598 127.6C208.79 127.516 208.994 127.408 209.21 127.276L209.624 127.816C209.48 127.996 209.3 128.158 209.084 128.302C208.88 128.434 208.646 128.536 208.382 128.608C208.118 128.68 207.83 128.716 207.518 128.716ZM210.487 128.5V127.78L212.467 127.474H212.935L215.005 127.78V128.5H210.487ZM211.801 128.5C211.813 128.2 211.819 127.828 211.819 127.384C211.831 126.928 211.837 126.46 211.837 125.98C211.849 125.5 211.855 125.068 211.855 124.684V123.802C211.855 123.478 211.849 123.19 211.837 122.938C211.837 122.686 211.831 122.446 211.819 122.218C211.819 121.99 211.813 121.75 211.801 121.498L210.361 121.372V120.688L212.827 119.662L213.169 119.806L213.385 122.128L213.421 122.146V124.684C213.421 125.068 213.421 125.5 213.421 125.98C213.421 126.46 213.421 126.928 213.421 127.384C213.433 127.828 213.445 128.2 213.457 128.5H211.801ZM213.331 123.478L213.115 122.218H213.367C213.571 121.678 213.811 121.216 214.087 120.832C214.363 120.448 214.669 120.154 215.005 119.95C215.341 119.734 215.683 119.626 216.031 119.626C216.343 119.626 216.613 119.698 216.841 119.842C217.081 119.974 217.255 120.142 217.363 120.346C217.351 120.754 217.255 121.078 217.075 121.318C216.907 121.558 216.637 121.678 216.265 121.678C216.037 121.678 215.833 121.636 215.653 121.552C215.473 121.468 215.299 121.354 215.131 121.21L214.681 120.778L215.581 120.652C215.005 120.94 214.537 121.324 214.177 121.804C213.829 122.272 213.547 122.83 213.331 123.478ZM222.364 128.734C221.644 128.734 220.96 128.566 220.312 128.23C219.676 127.894 219.16 127.39 218.764 126.718C218.368 126.034 218.17 125.2 218.17 124.216C218.17 123.22 218.368 122.38 218.764 121.696C219.16 121.012 219.676 120.496 220.312 120.148C220.96 119.8 221.644 119.626 222.364 119.626C223.084 119.626 223.762 119.8 224.398 120.148C225.046 120.484 225.568 120.994 225.964 121.678C226.372 122.362 226.576 123.202 226.576 124.198C226.576 125.182 226.372 126.016 225.964 126.7C225.568 127.372 225.046 127.882 224.398 128.23C223.762 128.566 223.084 128.734 222.364 128.734ZM222.364 127.87C222.892 127.87 223.336 127.732 223.696 127.456C224.068 127.18 224.35 126.772 224.542 126.232C224.746 125.692 224.848 125.02 224.848 124.216C224.848 123.4 224.746 122.716 224.542 122.164C224.35 121.612 224.068 121.198 223.696 120.922C223.336 120.634 222.892 120.49 222.364 120.49C221.836 120.49 221.386 120.634 221.014 120.922C220.654 121.198 220.378 121.612 220.186 122.164C219.994 122.704 219.898 123.382 219.898 124.198C219.898 125.014 219.994 125.692 220.186 126.232C220.378 126.772 220.654 127.18 221.014 127.456C221.386 127.732 221.836 127.87 222.364 127.87ZM231.734 128.59L228.116 119.842H229.952L232.742 127.222H232.436L232.688 126.358L234.992 119.842H236.054L232.67 128.59H231.734ZM227.468 120.598V119.842H231.914V120.598L229.772 120.886H229.196L227.468 120.598ZM233.156 120.598V119.842H236.72V120.598L235.388 120.886H234.974L233.156 120.598ZM241.665 128.734C240.801 128.734 240.051 128.56 239.415 128.212C238.791 127.852 238.305 127.342 237.957 126.682C237.621 126.01 237.453 125.212 237.453 124.288C237.453 123.352 237.633 122.536 237.993 121.84C238.365 121.144 238.863 120.604 239.487 120.22C240.123 119.824 240.825 119.626 241.593 119.626C242.265 119.626 242.859 119.764 243.375 120.04C243.891 120.316 244.299 120.712 244.599 121.228C244.899 121.744 245.049 122.368 245.049 123.1C245.049 123.316 245.037 123.52 245.013 123.712C244.989 123.892 244.959 124.048 244.923 124.18H238.227V123.388H242.547C242.967 123.364 243.237 123.268 243.357 123.1C243.477 122.92 243.537 122.71 243.537 122.47C243.537 122.038 243.459 121.678 243.303 121.39C243.147 121.09 242.925 120.868 242.637 120.724C242.349 120.568 242.001 120.49 241.593 120.49C241.173 120.49 240.765 120.61 240.369 120.85C239.985 121.09 239.673 121.474 239.433 122.002C239.193 122.518 239.073 123.208 239.073 124.072C239.073 124.816 239.193 125.446 239.433 125.962C239.673 126.478 240.015 126.874 240.459 127.15C240.915 127.414 241.449 127.546 242.061 127.546C242.649 127.546 243.153 127.444 243.573 127.24C244.005 127.036 244.401 126.736 244.761 126.34L245.193 126.7C244.941 127.096 244.659 127.45 244.347 127.762C244.035 128.074 243.663 128.314 243.231 128.482C242.811 128.65 242.289 128.734 241.665 128.734ZM246.715 128.5V127.78L248.695 127.474H249.163L251.233 127.78V128.5H246.715ZM248.029 128.5C248.041 128.2 248.047 127.828 248.047 127.384C248.059 126.928 248.065 126.46 248.065 125.98C248.077 125.5 248.083 125.068 248.083 124.684V123.802C248.083 123.478 248.077 123.19 248.065 122.938C248.065 122.686 248.059 122.446 248.047 122.218C248.047 121.99 248.041 121.75 248.029 121.498L246.589 121.372V120.688L249.055 119.662L249.397 119.806L249.613 122.128L249.649 122.146V124.684C249.649 125.068 249.649 125.5 249.649 125.98C249.649 126.46 249.649 126.928 249.649 127.384C249.661 127.828 249.673 128.2 249.685 128.5H248.029ZM249.559 123.478L249.343 122.218H249.595C249.799 121.678 250.039 121.216 250.315 120.832C250.591 120.448 250.897 120.154 251.233 119.95C251.569 119.734 251.911 119.626 252.259 119.626C252.571 119.626 252.841 119.698 253.069 119.842C253.309 119.974 253.483 120.142 253.591 120.346C253.579 120.754 253.483 121.078 253.303 121.318C253.135 121.558 252.865 121.678 252.493 121.678C252.265 121.678 252.061 121.636 251.881 121.552C251.701 121.468 251.527 121.354 251.359 121.21L250.909 120.778L251.809 120.652C251.233 120.94 250.765 121.324 250.405 121.804C250.057 122.272 249.775 122.83 249.559 123.478ZM256.6 120.832V119.842H259.858V120.832H256.6ZM257.932 128.716C257.284 128.716 256.768 128.542 256.384 128.194C256 127.846 255.808 127.312 255.808 126.592C255.808 126.364 255.808 126.142 255.808 125.926C255.82 125.71 255.826 125.44 255.826 125.116V120.832H254.296V120.022L256.564 119.752L255.844 120.328L256.42 117.394H257.518L257.356 120.292L257.392 120.598V126.394C257.392 126.862 257.482 127.204 257.662 127.42C257.854 127.624 258.106 127.726 258.418 127.726C258.634 127.726 258.832 127.684 259.012 127.6C259.204 127.516 259.408 127.408 259.624 127.276L260.038 127.816C259.894 127.996 259.714 128.158 259.498 128.302C259.294 128.434 259.06 128.536 258.796 128.608C258.532 128.68 258.244 128.716 257.932 128.716ZM269.368 128.734C268.648 128.734 267.964 128.566 267.316 128.23C266.68 127.894 266.164 127.39 265.768 126.718C265.372 126.034 265.174 125.2 265.174 124.216C265.174 123.22 265.372 122.38 265.768 121.696C266.164 121.012 266.68 120.496 267.316 120.148C267.964 119.8 268.648 119.626 269.368 119.626C270.088 119.626 270.766 119.8 271.402 120.148C272.05 120.484 272.572 120.994 272.968 121.678C273.376 122.362 273.58 123.202 273.58 124.198C273.58 125.182 273.376 126.016 272.968 126.7C272.572 127.372 272.05 127.882 271.402 128.23C270.766 128.566 270.088 128.734 269.368 128.734ZM269.368 127.87C269.896 127.87 270.34 127.732 270.7 127.456C271.072 127.18 271.354 126.772 271.546 126.232C271.75 125.692 271.852 125.02 271.852 124.216C271.852 123.4 271.75 122.716 271.546 122.164C271.354 121.612 271.072 121.198 270.7 120.922C270.34 120.634 269.896 120.49 269.368 120.49C268.84 120.49 268.39 120.634 268.018 120.922C267.658 121.198 267.382 121.612 267.19 122.164C266.998 122.704 266.902 123.382 266.902 124.198C266.902 125.014 266.998 125.692 267.19 126.232C267.382 126.772 267.658 127.18 268.018 127.456C268.39 127.732 268.84 127.87 269.368 127.87ZM275.066 128.5V127.78L277.046 127.474H277.604L279.782 127.78V128.5H275.066ZM276.488 128.5C276.5 128.08 276.506 127.66 276.506 127.24C276.518 126.808 276.524 126.382 276.524 125.962C276.536 125.53 276.542 125.104 276.542 124.684V120.832H275.03V120.022L277.082 119.752L276.542 120.112L276.56 119.932C276.62 119.284 276.698 118.72 276.794 118.24C276.902 117.76 277.052 117.334 277.244 116.962C277.448 116.59 277.718 116.248 278.054 115.936C278.414 115.6 278.792 115.366 279.188 115.234C279.596 115.09 280.016 115.018 280.448 115.018C280.88 115.018 281.258 115.096 281.582 115.252C281.906 115.408 282.11 115.66 282.194 116.008C282.182 116.236 282.08 116.434 281.888 116.602C281.708 116.758 281.45 116.836 281.114 116.836C280.862 116.836 280.628 116.782 280.412 116.674C280.208 116.566 279.992 116.422 279.764 116.242L278.954 115.612L279.044 115.522H279.926L280.016 115.576C279.74 115.612 279.506 115.69 279.314 115.81C279.122 115.918 278.942 116.11 278.774 116.386C278.642 116.578 278.528 116.794 278.432 117.034C278.336 117.274 278.258 117.556 278.198 117.88C278.138 118.192 278.096 118.564 278.072 118.996C278.06 119.428 278.072 119.938 278.108 120.526V124.684C278.108 125.104 278.108 125.53 278.108 125.962C278.12 126.382 278.126 126.808 278.126 127.24C278.126 127.66 278.132 128.08 278.144 128.5H276.488ZM277.334 120.832V119.842H280.52V120.832H277.334ZM287.608 120.832V119.842H290.866V120.832H287.608ZM288.94 128.716C288.292 128.716 287.776 128.542 287.392 128.194C287.008 127.846 286.816 127.312 286.816 126.592C286.816 126.364 286.816 126.142 286.816 125.926C286.828 125.71 286.834 125.44 286.834 125.116V120.832H285.304V120.022L287.572 119.752L286.852 120.328L287.428 117.394H288.526L288.364 120.292L288.4 120.598V126.394C288.4 126.862 288.49 127.204 288.67 127.42C288.862 127.624 289.114 127.726 289.426 127.726C289.642 127.726 289.84 127.684 290.02 127.6C290.212 127.516 290.416 127.408 290.632 127.276L291.046 127.816C290.902 127.996 290.722 128.158 290.506 128.302C290.302 128.434 290.068 128.536 289.804 128.608C289.54 128.68 289.252 128.716 288.94 128.716ZM291.729 128.5V127.78L293.709 127.474H294.159L295.995 127.78V128.5H291.729ZM293.097 128.5C293.109 128.2 293.115 127.828 293.115 127.384C293.115 126.928 293.115 126.46 293.115 125.98C293.127 125.5 293.133 125.068 293.133 124.684V116.854L291.639 116.638V115.954L294.375 115.216L294.699 115.324L294.645 117.808L294.627 121.642L294.681 121.84V124.684C294.681 125.068 294.681 125.5 294.681 125.98C294.693 126.46 294.699 126.928 294.699 127.384C294.711 127.828 294.723 128.2 294.735 128.5H293.097ZM297.417 128.5V127.78L299.379 127.474H299.829L301.665 127.78V128.5H297.417ZM298.731 128.5C298.743 128.2 298.749 127.828 298.749 127.384C298.761 126.94 298.767 126.478 298.767 125.998C298.767 125.518 298.767 125.08 298.767 124.684V123.082C298.767 122.278 298.647 121.726 298.407 121.426C298.179 121.114 297.801 120.958 297.273 120.958C296.973 120.958 296.679 121 296.391 121.084C296.103 121.168 295.809 121.3 295.509 121.48C295.209 121.66 294.891 121.9 294.555 122.2L294.285 121.498H294.591C294.867 121.138 295.185 120.82 295.545 120.544C295.905 120.256 296.289 120.034 296.697 119.878C297.117 119.71 297.537 119.626 297.957 119.626C298.761 119.626 299.355 119.89 299.739 120.418C300.135 120.934 300.333 121.762 300.333 122.902V124.684C300.333 125.08 300.333 125.518 300.333 125.998C300.345 126.478 300.351 126.94 300.351 127.384C300.363 127.828 300.375 128.2 300.387 128.5H298.731ZM307.231 128.734C306.367 128.734 305.617 128.56 304.981 128.212C304.357 127.852 303.871 127.342 303.523 126.682C303.187 126.01 303.019 125.212 303.019 124.288C303.019 123.352 303.199 122.536 303.559 121.84C303.931 121.144 304.429 120.604 305.053 120.22C305.689 119.824 306.391 119.626 307.159 119.626C307.831 119.626 308.425 119.764 308.941 120.04C309.457 120.316 309.865 120.712 310.165 121.228C310.465 121.744 310.615 122.368 310.615 123.1C310.615 123.316 310.603 123.52 310.579 123.712C310.555 123.892 310.525 124.048 310.489 124.18H303.793V123.388H308.113C308.533 123.364 308.803 123.268 308.923 123.1C309.043 122.92 309.103 122.71 309.103 122.47C309.103 122.038 309.025 121.678 308.869 121.39C308.713 121.09 308.491 120.868 308.203 120.724C307.915 120.568 307.567 120.49 307.159 120.49C306.739 120.49 306.331 120.61 305.935 120.85C305.551 121.09 305.239 121.474 304.999 122.002C304.759 122.518 304.639 123.208 304.639 124.072C304.639 124.816 304.759 125.446 304.999 125.962C305.239 126.478 305.581 126.874 306.025 127.15C306.481 127.414 307.015 127.546 307.627 127.546C308.215 127.546 308.719 127.444 309.139 127.24C309.571 127.036 309.967 126.736 310.327 126.34L310.759 126.7C310.507 127.096 310.225 127.45 309.913 127.762C309.601 128.074 309.229 128.314 308.797 128.482C308.377 128.65 307.855 128.734 307.231 128.734ZM316.393 128.5V127.78L318.373 127.474H318.931L321.109 127.78V128.5H316.393ZM317.815 128.5C317.827 128.08 317.833 127.66 317.833 127.24C317.845 126.808 317.851 126.382 317.851 125.962C317.863 125.53 317.869 125.104 317.869 124.684V120.832H316.357V120.022L318.409 119.752L317.869 120.112L317.887 119.932C317.947 119.284 318.025 118.72 318.121 118.24C318.229 117.76 318.379 117.334 318.571 116.962C318.775 116.59 319.045 116.248 319.381 115.936C319.741 115.6 320.119 115.366 320.515 115.234C320.923 115.09 321.343 115.018 321.775 115.018C322.207 115.018 322.585 115.096 322.909 115.252C323.233 115.408 323.437 115.66 323.521 116.008C323.509 116.236 323.407 116.434 323.215 116.602C323.035 116.758 322.777 116.836 322.441 116.836C322.189 116.836 321.955 116.782 321.739 116.674C321.535 116.566 321.319 116.422 321.091 116.242L320.281 115.612L320.371 115.522H321.253L321.343 115.576C321.067 115.612 320.833 115.69 320.641 115.81C320.449 115.918 320.269 116.11 320.101 116.386C319.969 116.578 319.855 116.794 319.759 117.034C319.663 117.274 319.585 117.556 319.525 117.88C319.465 118.192 319.423 118.564 319.399 118.996C319.387 119.428 319.399 119.938 319.435 120.526V124.684C319.435 125.104 319.435 125.53 319.435 125.962C319.447 126.382 319.453 126.808 319.453 127.24C319.453 127.66 319.459 128.08 319.471 128.5H317.815ZM318.661 120.832V119.842H321.847V120.832H318.661ZM326.971 128.734C326.251 128.734 325.567 128.566 324.919 128.23C324.283 127.894 323.767 127.39 323.371 126.718C322.975 126.034 322.777 125.2 322.777 124.216C322.777 123.22 322.975 122.38 323.371 121.696C323.767 121.012 324.283 120.496 324.919 120.148C325.567 119.8 326.251 119.626 326.971 119.626C327.691 119.626 328.369 119.8 329.005 120.148C329.653 120.484 330.175 120.994 330.571 121.678C330.979 122.362 331.183 123.202 331.183 124.198C331.183 125.182 330.979 126.016 330.571 126.7C330.175 127.372 329.653 127.882 329.005 128.23C328.369 128.566 327.691 128.734 326.971 128.734ZM326.971 127.87C327.499 127.87 327.943 127.732 328.303 127.456C328.675 127.18 328.957 126.772 329.149 126.232C329.353 125.692 329.455 125.02 329.455 124.216C329.455 123.4 329.353 122.716 329.149 122.164C328.957 121.612 328.675 121.198 328.303 120.922C327.943 120.634 327.499 120.49 326.971 120.49C326.443 120.49 325.993 120.634 325.621 120.922C325.261 121.198 324.985 121.612 324.793 122.164C324.601 122.704 324.505 123.382 324.505 124.198C324.505 125.014 324.601 125.692 324.793 126.232C324.985 126.772 325.261 127.18 325.621 127.456C325.993 127.732 326.443 127.87 326.971 127.87ZM332.778 128.5V127.78L334.758 127.474H335.226L337.296 127.78V128.5H332.778ZM334.092 128.5C334.104 128.2 334.11 127.828 334.11 127.384C334.122 126.928 334.128 126.46 334.128 125.98C334.14 125.5 334.146 125.068 334.146 124.684V123.802C334.146 123.478 334.14 123.19 334.128 122.938C334.128 122.686 334.122 122.446 334.11 122.218C334.11 121.99 334.104 121.75 334.092 121.498L332.652 121.372V120.688L335.118 119.662L335.46 119.806L335.676 122.128L335.712 122.146V124.684C335.712 125.068 335.712 125.5 335.712 125.98C335.712 126.46 335.712 126.928 335.712 127.384C335.724 127.828 335.736 128.2 335.748 128.5H334.092ZM335.622 123.478L335.406 122.218H335.658C335.862 121.678 336.102 121.216 336.378 120.832C336.654 120.448 336.96 120.154 337.296 119.95C337.632 119.734 337.974 119.626 338.322 119.626C338.634 119.626 338.904 119.698 339.132 119.842C339.372 119.974 339.546 120.142 339.654 120.346C339.642 120.754 339.546 121.078 339.366 121.318C339.198 121.558 338.928 121.678 338.556 121.678C338.328 121.678 338.124 121.636 337.944 121.552C337.764 121.468 337.59 121.354 337.422 121.21L336.972 120.778L337.872 120.652C337.296 120.94 336.828 121.324 336.468 121.804C336.12 122.272 335.838 122.83 335.622 123.478ZM344.673 128.734C343.809 128.734 343.059 128.56 342.423 128.212C341.799 127.852 341.313 127.342 340.965 126.682C340.629 126.01 340.461 125.212 340.461 124.288C340.461 123.352 340.641 122.536 341.001 121.84C341.373 121.144 341.871 120.604 342.495 120.22C343.131 119.824 343.833 119.626 344.601 119.626C345.273 119.626 345.867 119.764 346.383 120.04C346.899 120.316 347.307 120.712 347.607 121.228C347.907 121.744 348.057 122.368 348.057 123.1C348.057 123.316 348.045 123.52 348.021 123.712C347.997 123.892 347.967 124.048 347.931 124.18H341.235V123.388H345.555C345.975 123.364 346.245 123.268 346.365 123.1C346.485 122.92 346.545 122.71 346.545 122.47C346.545 122.038 346.467 121.678 346.311 121.39C346.155 121.09 345.933 120.868 345.645 120.724C345.357 120.568 345.009 120.49 344.601 120.49C344.181 120.49 343.773 120.61 343.377 120.85C342.993 121.09 342.681 121.474 342.441 122.002C342.201 122.518 342.081 123.208 342.081 124.072C342.081 124.816 342.201 125.446 342.441 125.962C342.681 126.478 343.023 126.874 343.467 127.15C343.923 127.414 344.457 127.546 345.069 127.546C345.657 127.546 346.161 127.444 346.581 127.24C347.013 127.036 347.409 126.736 347.769 126.34L348.201 126.7C347.949 127.096 347.667 127.45 347.355 127.762C347.043 128.074 346.671 128.314 346.239 128.482C345.819 128.65 345.297 128.734 344.673 128.734ZM352.657 128.734C352.117 128.734 351.625 128.674 351.181 128.554C350.737 128.446 350.299 128.284 349.867 128.068L349.795 126.016H350.821L351.289 128.176H350.497V127.24C350.797 127.456 351.127 127.618 351.487 127.726C351.847 127.834 352.243 127.888 352.675 127.888C353.143 127.888 353.527 127.828 353.827 127.708C354.127 127.588 354.343 127.426 354.475 127.222C354.619 127.006 354.691 126.766 354.691 126.502C354.691 126.106 354.553 125.794 354.277 125.566C354.001 125.338 353.575 125.128 352.999 124.936L352.261 124.648C351.781 124.48 351.361 124.288 351.001 124.072C350.653 123.844 350.383 123.574 350.191 123.262C350.011 122.95 349.921 122.584 349.921 122.164C349.921 121.708 350.041 121.288 350.281 120.904C350.533 120.52 350.899 120.214 351.379 119.986C351.871 119.746 352.453 119.626 353.125 119.626C353.629 119.626 354.091 119.686 354.511 119.806C354.943 119.926 355.345 120.1 355.717 120.328L355.663 122.236H354.691L354.313 120.346H354.997V121.12C354.709 120.904 354.409 120.742 354.097 120.634C353.785 120.526 353.461 120.472 353.125 120.472C352.549 120.472 352.117 120.586 351.829 120.814C351.541 121.042 351.397 121.342 351.397 121.714C351.397 122.098 351.523 122.398 351.775 122.614C352.027 122.818 352.459 123.028 353.071 123.244L353.611 123.442C354.223 123.646 354.721 123.886 355.105 124.162C355.489 124.426 355.765 124.72 355.933 125.044C356.113 125.356 356.203 125.716 356.203 126.124C356.203 126.592 356.065 127.024 355.789 127.42C355.525 127.816 355.129 128.134 354.601 128.374C354.085 128.614 353.437 128.734 352.657 128.734ZM359.467 120.832V119.842H362.725V120.832H359.467ZM360.799 128.716C360.151 128.716 359.635 128.542 359.251 128.194C358.867 127.846 358.675 127.312 358.675 126.592C358.675 126.364 358.675 126.142 358.675 125.926C358.687 125.71 358.693 125.44 358.693 125.116V120.832H357.163V120.022L359.431 119.752L358.711 120.328L359.287 117.394H360.385L360.223 120.292L360.259 120.598V126.394C360.259 126.862 360.349 127.204 360.529 127.42C360.721 127.624 360.973 127.726 361.285 127.726C361.501 127.726 361.699 127.684 361.879 127.6C362.071 127.516 362.275 127.408 362.491 127.276L362.905 127.816C362.761 127.996 362.581 128.158 362.365 128.302C362.161 128.434 361.927 128.536 361.663 128.608C361.399 128.68 361.111 128.716 360.799 128.716ZM364.056 131.722L363.786 131.056C364.242 130.84 364.614 130.612 364.902 130.372C365.202 130.144 365.436 129.88 365.604 129.58C365.772 129.28 365.898 128.926 365.982 128.518L366.18 129.094L365.316 128.59C365.028 128.458 364.812 128.302 364.668 128.122C364.536 127.93 364.47 127.708 364.47 127.456C364.47 127.108 364.572 126.82 364.776 126.592C364.98 126.352 365.28 126.232 365.676 126.232C365.88 126.232 366.072 126.268 366.252 126.34C366.432 126.412 366.606 126.538 366.774 126.718C366.834 126.91 366.87 127.12 366.882 127.348C366.906 127.564 366.918 127.78 366.918 127.996C366.918 128.584 366.792 129.118 366.54 129.598C366.288 130.09 365.946 130.516 365.514 130.876C365.082 131.236 364.596 131.518 364.056 131.722ZM373.293 128.5V127.78L375.273 127.474H375.723L377.577 127.78V128.5H373.293ZM374.643 128.5C374.655 128.2 374.661 127.828 374.661 127.384C374.673 126.928 374.679 126.46 374.679 125.98C374.691 125.5 374.697 125.068 374.697 124.684V123.82C374.697 123.34 374.691 122.926 374.679 122.578C374.679 122.23 374.667 121.87 374.643 121.498L373.203 121.372V120.688L375.957 119.662L376.299 119.806L376.245 122.164V124.684C376.245 125.068 376.245 125.5 376.245 125.98C376.257 126.46 376.263 126.928 376.263 127.384C376.275 127.828 376.287 128.2 376.299 128.5H374.643ZM375.381 117.844C375.045 117.844 374.757 117.736 374.517 117.52C374.289 117.292 374.175 117.01 374.175 116.674C374.175 116.338 374.289 116.062 374.517 115.846C374.757 115.618 375.045 115.504 375.381 115.504C375.729 115.504 376.017 115.618 376.245 115.846C376.485 116.062 376.605 116.338 376.605 116.674C376.605 117.01 376.485 117.292 376.245 117.52C376.017 117.736 375.729 117.844 375.381 117.844ZM378.902 128.5V127.78L380.882 127.474H381.314L383.15 127.78V128.5H378.902ZM380.252 128.5C380.252 128.2 380.252 127.828 380.252 127.384C380.264 126.928 380.27 126.46 380.27 125.98C380.282 125.5 380.288 125.068 380.288 124.684V123.802C380.288 123.478 380.282 123.19 380.27 122.938C380.27 122.686 380.264 122.446 380.252 122.218C380.252 121.99 380.252 121.75 380.252 121.498L378.794 121.372V120.688L381.26 119.662L381.602 119.806L381.836 121.84L381.854 121.876V124.684C381.854 125.068 381.854 125.5 381.854 125.98C381.866 126.46 381.872 126.928 381.872 127.384C381.884 127.828 381.89 128.2 381.89 128.5H380.252ZM384.41 128.5V127.78L386.39 127.474H386.822L388.676 127.78V128.5H384.41ZM385.76 128.5C385.76 128.2 385.76 127.828 385.76 127.384C385.772 126.94 385.778 126.478 385.778 125.998C385.79 125.518 385.796 125.08 385.796 124.684V123.082C385.796 122.29 385.682 121.738 385.454 121.426C385.226 121.114 384.842 120.958 384.302 120.958C384.014 120.958 383.726 121 383.438 121.084C383.162 121.168 382.874 121.306 382.574 121.498C382.286 121.678 381.98 121.906 381.656 122.182L381.422 121.534H381.674C381.938 121.174 382.244 120.85 382.592 120.562C382.952 120.274 383.33 120.046 383.726 119.878C384.134 119.71 384.548 119.626 384.968 119.626C385.772 119.626 386.366 119.89 386.75 120.418C387.146 120.934 387.344 121.762 387.344 122.902V124.684C387.344 125.08 387.344 125.518 387.344 125.998C387.356 126.478 387.362 126.94 387.362 127.384C387.374 127.828 387.386 128.2 387.398 128.5H385.76ZM389.918 128.5V127.78L391.898 127.474H392.33L394.184 127.78V128.5H389.918ZM391.268 128.5C391.268 128.2 391.268 127.828 391.268 127.384C391.28 126.94 391.286 126.478 391.286 125.998C391.298 125.518 391.304 125.08 391.304 124.684V123.064C391.304 122.248 391.184 121.696 390.944 121.408C390.704 121.108 390.314 120.958 389.774 120.958C389.51 120.958 389.24 121 388.964 121.084C388.688 121.156 388.4 121.282 388.1 121.462C387.812 121.642 387.5 121.882 387.164 122.182L386.858 121.57H387.11C387.41 121.15 387.734 120.796 388.082 120.508C388.442 120.208 388.82 119.986 389.216 119.842C389.624 119.698 390.044 119.626 390.476 119.626C391.244 119.626 391.832 119.872 392.24 120.364C392.648 120.856 392.852 121.648 392.852 122.74V124.684C392.852 125.08 392.852 125.518 392.852 125.998C392.864 126.478 392.87 126.94 392.87 127.384C392.882 127.828 392.894 128.2 392.906 128.5H391.268ZM395.125 132.766V132.046L397.159 131.758H397.609L399.805 132.046V132.766H395.125ZM396.565 132.766C396.577 132.346 396.583 131.932 396.583 131.524C396.595 131.116 396.601 130.702 396.601 130.282C396.613 129.874 396.619 129.466 396.619 129.058V123.802C396.619 123.478 396.613 123.19 396.601 122.938C396.601 122.686 396.595 122.446 396.583 122.218C396.583 121.99 396.577 121.75 396.565 121.498L395.125 121.372V120.688L397.573 119.662L397.915 119.806L398.095 121.372L398.167 121.426V127.042L398.113 127.132L398.131 129.094C398.131 129.49 398.131 129.892 398.131 130.3C398.143 130.72 398.149 131.134 398.149 131.542C398.161 131.95 398.167 132.358 398.167 132.766H396.565ZM400.633 128.734C400.285 128.734 399.949 128.674 399.625 128.554C399.301 128.446 398.989 128.266 398.689 128.014C398.401 127.75 398.125 127.408 397.861 126.988H397.393L397.519 125.926C397.987 126.538 398.437 126.982 398.869 127.258C399.313 127.534 399.769 127.672 400.237 127.672C400.705 127.672 401.119 127.552 401.479 127.312C401.851 127.072 402.145 126.7 402.361 126.196C402.589 125.692 402.703 125.05 402.703 124.27C402.703 123.106 402.487 122.218 402.055 121.606C401.623 120.994 401.077 120.688 400.417 120.688C400.153 120.688 399.871 120.742 399.571 120.85C399.283 120.958 398.971 121.138 398.635 121.39C398.299 121.63 397.921 121.96 397.501 122.38L397.375 121.408H397.861C398.161 121.012 398.467 120.682 398.779 120.418C399.091 120.154 399.421 119.956 399.769 119.824C400.117 119.692 400.483 119.626 400.867 119.626C401.527 119.626 402.121 119.806 402.649 120.166C403.177 120.526 403.591 121.042 403.891 121.714C404.203 122.386 404.359 123.196 404.359 124.144C404.359 125.092 404.197 125.908 403.873 126.592C403.549 127.276 403.105 127.804 402.541 128.176C401.989 128.548 401.353 128.734 400.633 128.734ZM410.204 128.734C409.484 128.734 408.8 128.566 408.152 128.23C407.516 127.894 407 127.39 406.604 126.718C406.208 126.034 406.01 125.2 406.01 124.216C406.01 123.22 406.208 122.38 406.604 121.696C407 121.012 407.516 120.496 408.152 120.148C408.8 119.8 409.484 119.626 410.204 119.626C410.924 119.626 411.602 119.8 412.238 120.148C412.886 120.484 413.408 120.994 413.804 121.678C414.212 122.362 414.416 123.202 414.416 124.198C414.416 125.182 414.212 126.016 413.804 126.7C413.408 127.372 412.886 127.882 412.238 128.23C411.602 128.566 410.924 128.734 410.204 128.734ZM410.204 127.87C410.732 127.87 411.176 127.732 411.536 127.456C411.908 127.18 412.19 126.772 412.382 126.232C412.586 125.692 412.688 125.02 412.688 124.216C412.688 123.4 412.586 122.716 412.382 122.164C412.19 121.612 411.908 121.198 411.536 120.922C411.176 120.634 410.732 120.49 410.204 120.49C409.676 120.49 409.226 120.634 408.854 120.922C408.494 121.198 408.218 121.612 408.026 122.164C407.834 122.704 407.738 123.382 407.738 124.198C407.738 125.014 407.834 125.692 408.026 126.232C408.218 126.772 408.494 127.18 408.854 127.456C409.226 127.732 409.676 127.87 410.204 127.87ZM418.944 128.734C418.404 128.734 417.912 128.674 417.468 128.554C417.024 128.446 416.586 128.284 416.154 128.068L416.082 126.016H417.108L417.576 128.176H416.784V127.24C417.084 127.456 417.414 127.618 417.774 127.726C418.134 127.834 418.53 127.888 418.962 127.888C419.43 127.888 419.814 127.828 420.114 127.708C420.414 127.588 420.63 127.426 420.762 127.222C420.906 127.006 420.978 126.766 420.978 126.502C420.978 126.106 420.84 125.794 420.564 125.566C420.288 125.338 419.862 125.128 419.286 124.936L418.548 124.648C418.068 124.48 417.648 124.288 417.288 124.072C416.94 123.844 416.67 123.574 416.478 123.262C416.298 122.95 416.208 122.584 416.208 122.164C416.208 121.708 416.328 121.288 416.568 120.904C416.82 120.52 417.186 120.214 417.666 119.986C418.158 119.746 418.74 119.626 419.412 119.626C419.916 119.626 420.378 119.686 420.798 119.806C421.23 119.926 421.632 120.1 422.004 120.328L421.95 122.236H420.978L420.6 120.346H421.284V121.12C420.996 120.904 420.696 120.742 420.384 120.634C420.072 120.526 419.748 120.472 419.412 120.472C418.836 120.472 418.404 120.586 418.116 120.814C417.828 121.042 417.684 121.342 417.684 121.714C417.684 122.098 417.81 122.398 418.062 122.614C418.314 122.818 418.746 123.028 419.358 123.244L419.898 123.442C420.51 123.646 421.008 123.886 421.392 124.162C421.776 124.426 422.052 124.72 422.22 125.044C422.4 125.356 422.49 125.716 422.49 126.124C422.49 126.592 422.352 127.024 422.076 127.42C421.812 127.816 421.416 128.134 420.888 128.374C420.372 128.614 419.724 128.734 418.944 128.734ZM426.942 128.734C426.402 128.734 425.91 128.674 425.466 128.554C425.022 128.446 424.584 128.284 424.152 128.068L424.08 126.016H425.106L425.574 128.176H424.782V127.24C425.082 127.456 425.412 127.618 425.772 127.726C426.132 127.834 426.528 127.888 426.96 127.888C427.428 127.888 427.812 127.828 428.112 127.708C428.412 127.588 428.628 127.426 428.76 127.222C428.904 127.006 428.976 126.766 428.976 126.502C428.976 126.106 428.838 125.794 428.562 125.566C428.286 125.338 427.86 125.128 427.284 124.936L426.546 124.648C426.066 124.48 425.646 124.288 425.286 124.072C424.938 123.844 424.668 123.574 424.476 123.262C424.296 122.95 424.206 122.584 424.206 122.164C424.206 121.708 424.326 121.288 424.566 120.904C424.818 120.52 425.184 120.214 425.664 119.986C426.156 119.746 426.738 119.626 427.41 119.626C427.914 119.626 428.376 119.686 428.796 119.806C429.228 119.926 429.63 120.1 430.002 120.328L429.948 122.236H428.976L428.598 120.346H429.282V121.12C428.994 120.904 428.694 120.742 428.382 120.634C428.07 120.526 427.746 120.472 427.41 120.472C426.834 120.472 426.402 120.586 426.114 120.814C425.826 121.042 425.682 121.342 425.682 121.714C425.682 122.098 425.808 122.398 426.06 122.614C426.312 122.818 426.744 123.028 427.356 123.244L427.896 123.442C428.508 123.646 429.006 123.886 429.39 124.162C429.774 124.426 430.05 124.72 430.218 125.044C430.398 125.356 430.488 125.716 430.488 126.124C430.488 126.592 430.35 127.024 430.074 127.42C429.81 127.816 429.414 128.134 428.886 128.374C428.37 128.614 427.722 128.734 426.942 128.734ZM431.898 128.5V127.78L433.878 127.474H434.328L436.182 127.78V128.5H431.898ZM433.248 128.5C433.26 128.2 433.266 127.828 433.266 127.384C433.278 126.928 433.284 126.46 433.284 125.98C433.296 125.5 433.302 125.068 433.302 124.684V123.82C433.302 123.34 433.296 122.926 433.284 122.578C433.284 122.23 433.272 121.87 433.248 121.498L431.808 121.372V120.688L434.562 119.662L434.904 119.806L434.85 122.164V124.684C434.85 125.068 434.85 125.5 434.85 125.98C434.862 126.46 434.868 126.928 434.868 127.384C434.88 127.828 434.892 128.2 434.904 128.5H433.248ZM433.986 117.844C433.65 117.844 433.362 117.736 433.122 117.52C432.894 117.292 432.78 117.01 432.78 116.674C432.78 116.338 432.894 116.062 433.122 115.846C433.362 115.618 433.65 115.504 433.986 115.504C434.334 115.504 434.622 115.618 434.85 115.846C435.09 116.062 435.21 116.338 435.21 116.674C435.21 117.01 435.09 117.292 434.85 117.52C434.622 117.736 434.334 117.844 433.986 117.844ZM437.364 128.5V127.798L438.75 127.546C438.75 127.246 438.75 126.928 438.75 126.592C438.75 126.256 438.75 125.926 438.75 125.602C438.762 125.266 438.768 124.96 438.768 124.684V116.854L437.274 116.638V115.954L440.01 115.216L440.334 115.324L440.28 117.808L440.262 121.318L440.316 121.516V126.952V126.988L440.118 128.662L437.364 128.5ZM442.854 128.734C442.494 128.734 442.146 128.674 441.81 128.554C441.486 128.434 441.168 128.236 440.856 127.96C440.556 127.684 440.268 127.312 439.992 126.844H439.614L439.74 125.944C440.208 126.544 440.676 126.982 441.144 127.258C441.612 127.534 442.074 127.672 442.53 127.672C442.962 127.672 443.358 127.552 443.718 127.312C444.09 127.06 444.384 126.682 444.6 126.178C444.816 125.662 444.924 125.014 444.924 124.234C444.924 123.07 444.708 122.188 444.276 121.588C443.844 120.988 443.286 120.688 442.602 120.688C442.35 120.688 442.08 120.742 441.792 120.85C441.504 120.946 441.192 121.12 440.856 121.372C440.52 121.612 440.142 121.948 439.722 122.38L439.596 121.498H440.01C440.31 121.078 440.622 120.73 440.946 120.454C441.27 120.178 441.606 119.974 441.954 119.842C442.314 119.698 442.698 119.626 443.106 119.626C443.754 119.626 444.342 119.8 444.87 120.148C445.398 120.496 445.812 121.006 446.112 121.678C446.424 122.338 446.58 123.148 446.58 124.108C446.58 125.044 446.418 125.86 446.094 126.556C445.77 127.252 445.326 127.792 444.762 128.176C444.21 128.548 443.574 128.734 442.854 128.734ZM447.751 128.5V127.78L449.785 127.474H450.217L452.269 127.78V128.5H447.751ZM449.191 128.5C449.203 128.08 449.209 127.66 449.209 127.24C449.209 126.808 449.209 126.382 449.209 125.962C449.221 125.53 449.227 125.104 449.227 124.684V116.854L447.733 116.638V115.954L450.505 115.216L450.847 115.324L450.775 117.808V124.684C450.775 125.104 450.775 125.53 450.775 125.962C450.787 126.382 450.793 126.808 450.793 127.24C450.805 127.66 450.817 128.08 450.829 128.5H449.191ZM457.806 128.734C456.942 128.734 456.192 128.56 455.556 128.212C454.932 127.852 454.446 127.342 454.098 126.682C453.762 126.01 453.594 125.212 453.594 124.288C453.594 123.352 453.774 122.536 454.134 121.84C454.506 121.144 455.004 120.604 455.628 120.22C456.264 119.824 456.966 119.626 457.734 119.626C458.406 119.626 459 119.764 459.516 120.04C460.032 120.316 460.44 120.712 460.74 121.228C461.04 121.744 461.19 122.368 461.19 123.1C461.19 123.316 461.178 123.52 461.154 123.712C461.13 123.892 461.1 124.048 461.064 124.18H454.368V123.388H458.688C459.108 123.364 459.378 123.268 459.498 123.1C459.618 122.92 459.678 122.71 459.678 122.47C459.678 122.038 459.6 121.678 459.444 121.39C459.288 121.09 459.066 120.868 458.778 120.724C458.49 120.568 458.142 120.49 457.734 120.49C457.314 120.49 456.906 120.61 456.51 120.85C456.126 121.09 455.814 121.474 455.574 122.002C455.334 122.518 455.214 123.208 455.214 124.072C455.214 124.816 455.334 125.446 455.574 125.962C455.814 126.478 456.156 126.874 456.6 127.15C457.056 127.414 457.59 127.546 458.202 127.546C458.79 127.546 459.294 127.444 459.714 127.24C460.146 127.036 460.542 126.736 460.902 126.34L461.334 126.7C461.082 127.096 460.8 127.45 460.488 127.762C460.176 128.074 459.804 128.314 459.372 128.482C458.952 128.65 458.43 128.734 457.806 128.734ZM468.821 120.832V119.842H472.079V120.832H468.821ZM470.153 128.716C469.505 128.716 468.989 128.542 468.605 128.194C468.221 127.846 468.029 127.312 468.029 126.592C468.029 126.364 468.029 126.142 468.029 125.926C468.041 125.71 468.047 125.44 468.047 125.116V120.832H466.517V120.022L468.785 119.752L468.065 120.328L468.641 117.394H469.739L469.577 120.292L469.613 120.598V126.394C469.613 126.862 469.703 127.204 469.883 127.42C470.075 127.624 470.327 127.726 470.639 127.726C470.855 127.726 471.053 127.684 471.233 127.6C471.425 127.516 471.629 127.408 471.845 127.276L472.259 127.816C472.115 127.996 471.935 128.158 471.719 128.302C471.515 128.434 471.281 128.536 471.017 128.608C470.753 128.68 470.465 128.716 470.153 128.716ZM477.37 128.734C476.65 128.734 475.966 128.566 475.318 128.23C474.682 127.894 474.166 127.39 473.77 126.718C473.374 126.034 473.176 125.2 473.176 124.216C473.176 123.22 473.374 122.38 473.77 121.696C474.166 121.012 474.682 120.496 475.318 120.148C475.966 119.8 476.65 119.626 477.37 119.626C478.09 119.626 478.768 119.8 479.404 120.148C480.052 120.484 480.574 120.994 480.97 121.678C481.378 122.362 481.582 123.202 481.582 124.198C481.582 125.182 481.378 126.016 480.97 126.7C480.574 127.372 480.052 127.882 479.404 128.23C478.768 128.566 478.09 128.734 477.37 128.734ZM477.37 127.87C477.898 127.87 478.342 127.732 478.702 127.456C479.074 127.18 479.356 126.772 479.548 126.232C479.752 125.692 479.854 125.02 479.854 124.216C479.854 123.4 479.752 122.716 479.548 122.164C479.356 121.612 479.074 121.198 478.702 120.922C478.342 120.634 477.898 120.49 477.37 120.49C476.842 120.49 476.392 120.634 476.02 120.922C475.66 121.198 475.384 121.612 475.192 122.164C475 122.704 474.904 123.382 474.904 124.198C474.904 125.014 475 125.692 475.192 126.232C475.384 126.772 475.66 127.18 476.02 127.456C476.392 127.732 476.842 127.87 477.37 127.87ZM24.666 155.5V154.78L26.646 154.474H27.096L28.95 154.78V155.5H24.666ZM26.016 155.5C26.028 155.2 26.034 154.828 26.034 154.384C26.046 153.928 26.052 153.46 26.052 152.98C26.064 152.5 26.07 152.068 26.07 151.684V150.82C26.07 150.34 26.064 149.926 26.052 149.578C26.052 149.23 26.04 148.87 26.016 148.498L24.576 148.372V147.688L27.33 146.662L27.672 146.806L27.618 149.164V151.684C27.618 152.068 27.618 152.5 27.618 152.98C27.63 153.46 27.636 153.928 27.636 154.384C27.648 154.828 27.66 155.2 27.672 155.5H26.016ZM26.754 144.844C26.418 144.844 26.13 144.736 25.89 144.52C25.662 144.292 25.548 144.01 25.548 143.674C25.548 143.338 25.662 143.062 25.89 142.846C26.13 142.618 26.418 142.504 26.754 142.504C27.102 142.504 27.39 142.618 27.618 142.846C27.858 143.062 27.978 143.338 27.978 143.674C27.978 144.01 27.858 144.292 27.618 144.52C27.39 144.736 27.102 144.844 26.754 144.844ZM33.8211 159.802C32.9931 159.802 32.3091 159.706 31.7691 159.514C31.2291 159.322 30.8271 159.058 30.5631 158.722C30.2991 158.386 30.1671 158.008 30.1671 157.588C30.1671 157.276 30.2451 156.988 30.4011 156.724C30.5571 156.472 30.8091 156.226 31.1571 155.986C31.5171 155.758 31.9971 155.536 32.5971 155.32L32.7051 155.428C32.4771 155.632 32.2851 155.836 32.1291 156.04C31.9731 156.244 31.8591 156.442 31.7871 156.634C31.7271 156.838 31.6971 157.06 31.6971 157.3C31.6971 157.66 31.7871 157.96 31.9671 158.2C32.1591 158.452 32.4291 158.632 32.7771 158.74C33.1371 158.86 33.5691 158.92 34.0731 158.92C34.7331 158.92 35.2851 158.836 35.7291 158.668C36.1851 158.5 36.5271 158.278 36.7551 158.002C36.9951 157.726 37.1151 157.42 37.1151 157.084C37.1151 156.688 36.9711 156.358 36.6831 156.094C36.4071 155.842 35.9511 155.716 35.3151 155.716H33.1371C32.9811 155.716 32.8131 155.71 32.6331 155.698C32.4651 155.686 32.3031 155.668 32.1471 155.644V155.518C31.6911 155.422 31.3371 155.26 31.0851 155.032C30.8451 154.804 30.7251 154.492 30.7251 154.096C30.7251 153.784 30.8391 153.466 31.0671 153.142C31.2951 152.818 31.6671 152.458 32.1831 152.062V151.792L32.9031 152.026C32.6151 152.302 32.4051 152.548 32.2731 152.764C32.1411 152.968 32.0751 153.178 32.0751 153.394C32.0751 153.718 32.1771 153.958 32.3811 154.114C32.5971 154.27 32.9271 154.348 33.3711 154.348H35.5851C36.2451 154.348 36.7911 154.444 37.2231 154.636C37.6551 154.816 37.9731 155.08 38.1771 155.428C38.3931 155.764 38.5011 156.172 38.5011 156.652C38.5011 157.06 38.3991 157.45 38.1951 157.822C37.9911 158.194 37.6911 158.53 37.2951 158.83C36.8991 159.13 36.4071 159.364 35.8191 159.532C35.2311 159.712 34.5651 159.802 33.8211 159.802ZM33.9111 152.566C33.2631 152.566 32.6871 152.452 32.1831 152.224C31.6911 151.996 31.3011 151.666 31.0131 151.234C30.7251 150.79 30.5811 150.244 30.5811 149.596C30.5811 148.972 30.7251 148.438 31.0131 147.994C31.3011 147.55 31.6971 147.214 32.2011 146.986C32.7051 146.746 33.2751 146.626 33.9111 146.626C34.3071 146.626 34.6671 146.668 34.9911 146.752C35.3151 146.836 35.6031 146.956 35.8551 147.112C36.1191 147.256 36.3411 147.442 36.5211 147.67L36.5931 147.688C36.7971 147.928 36.9531 148.204 37.0611 148.516C37.1691 148.828 37.2231 149.188 37.2231 149.596C37.2231 150.208 37.0791 150.742 36.7911 151.198C36.5151 151.642 36.1251 151.984 35.6211 152.224C35.1171 152.452 34.5471 152.566 33.9111 152.566ZM33.8751 151.81C34.2591 151.81 34.5891 151.714 34.8651 151.522C35.1411 151.318 35.3511 151.048 35.4951 150.712C35.6511 150.376 35.7291 149.986 35.7291 149.542C35.7291 149.11 35.6571 148.738 35.5131 148.426C35.3691 148.102 35.1591 147.85 34.8831 147.67C34.6191 147.49 34.3011 147.4 33.9291 147.4C33.5571 147.4 33.2331 147.496 32.9571 147.688C32.6811 147.868 32.4651 148.126 32.3091 148.462C32.1651 148.786 32.0931 149.17 32.0931 149.614C32.0931 150.046 32.1651 150.43 32.3091 150.766C32.4531 151.09 32.6571 151.348 32.9211 151.54C33.1851 151.72 33.5031 151.81 33.8751 151.81ZM35.9091 148.03V147.526H36.1251L38.2671 146.59L38.6451 146.752V148.03H35.9091ZM39.8376 155.5V154.78L41.8176 154.474H42.2496L44.0856 154.78V155.5H39.8376ZM41.1876 155.5C41.1876 155.2 41.1876 154.828 41.1876 154.384C41.1996 153.928 41.2056 153.46 41.2056 152.98C41.2176 152.5 41.2236 152.068 41.2236 151.684V150.802C41.2236 150.478 41.2176 150.19 41.2056 149.938C41.2056 149.686 41.1996 149.446 41.1876 149.218C41.1876 148.99 41.1876 148.75 41.1876 148.498L39.7296 148.372V147.688L42.1956 146.662L42.5376 146.806L42.7716 148.84L42.7896 148.858V151.684C42.7896 152.068 42.7896 152.5 42.7896 152.98C42.8016 153.46 42.8076 153.928 42.8076 154.384C42.8196 154.828 42.8256 155.2 42.8256 155.5H41.1876ZM45.4356 155.5V154.78L47.4156 154.474H47.8476L49.7016 154.78V155.5H45.4356ZM46.7676 155.5C46.7796 155.2 46.7856 154.828 46.7856 154.384C46.7976 153.94 46.8036 153.478 46.8036 152.998C46.8156 152.518 46.8216 152.08 46.8216 151.684V150.082C46.8216 149.278 46.7016 148.726 46.4616 148.426C46.2216 148.114 45.8316 147.958 45.2916 147.958C45.0036 147.958 44.7156 148 44.4276 148.084C44.1396 148.168 43.8456 148.3 43.5456 148.48C43.2456 148.66 42.9276 148.894 42.5916 149.182L42.3936 148.48H42.6276C42.9156 148.12 43.2396 147.802 43.5996 147.526C43.9596 147.25 44.3436 147.034 44.7516 146.878C45.1596 146.71 45.5676 146.626 45.9756 146.626C46.7796 146.626 47.3796 146.89 47.7756 147.418C48.1716 147.934 48.3696 148.762 48.3696 149.902V151.684C48.3696 152.08 48.3696 152.518 48.3696 152.998C48.3816 153.478 48.3876 153.94 48.3876 154.384C48.3876 154.828 48.3936 155.2 48.4056 155.5H46.7676ZM55.2486 155.734C54.5286 155.734 53.8446 155.566 53.1966 155.23C52.5606 154.894 52.0446 154.39 51.6486 153.718C51.2526 153.034 51.0546 152.2 51.0546 151.216C51.0546 150.22 51.2526 149.38 51.6486 148.696C52.0446 148.012 52.5606 147.496 53.1966 147.148C53.8446 146.8 54.5286 146.626 55.2486 146.626C55.9686 146.626 56.6466 146.8 57.2826 147.148C57.9306 147.484 58.4526 147.994 58.8486 148.678C59.2566 149.362 59.4606 150.202 59.4606 151.198C59.4606 152.182 59.2566 153.016 58.8486 153.7C58.4526 154.372 57.9306 154.882 57.2826 155.23C56.6466 155.566 55.9686 155.734 55.2486 155.734ZM55.2486 154.87C55.7766 154.87 56.2206 154.732 56.5806 154.456C56.9526 154.18 57.2346 153.772 57.4266 153.232C57.6306 152.692 57.7326 152.02 57.7326 151.216C57.7326 150.4 57.6306 149.716 57.4266 149.164C57.2346 148.612 56.9526 148.198 56.5806 147.922C56.2206 147.634 55.7766 147.49 55.2486 147.49C54.7206 147.49 54.2706 147.634 53.8986 147.922C53.5386 148.198 53.2626 148.612 53.0706 149.164C52.8786 149.704 52.7826 150.382 52.7826 151.198C52.7826 152.014 52.8786 152.692 53.0706 153.232C53.2626 153.772 53.5386 154.18 53.8986 154.456C54.2706 154.732 54.7206 154.87 55.2486 154.87ZM61.0553 155.5V154.78L63.0353 154.474H63.5033L65.5732 154.78V155.5H61.0553ZM62.3693 155.5C62.3813 155.2 62.3873 154.828 62.3873 154.384C62.3993 153.928 62.4053 153.46 62.4053 152.98C62.4173 152.5 62.4233 152.068 62.4233 151.684V150.802C62.4233 150.478 62.4173 150.19 62.4053 149.938C62.4053 149.686 62.3993 149.446 62.3873 149.218C62.3873 148.99 62.3813 148.75 62.3693 148.498L60.9293 148.372V147.688L63.3953 146.662L63.7373 146.806L63.9533 149.128L63.9893 149.146V151.684C63.9893 152.068 63.9893 152.5 63.9893 152.98C63.9893 153.46 63.9893 153.928 63.9893 154.384C64.0013 154.828 64.0133 155.2 64.0253 155.5H62.3693ZM63.8993 150.478L63.6833 149.218H63.9353C64.1393 148.678 64.3793 148.216 64.6553 147.832C64.9313 147.448 65.2373 147.154 65.5732 146.95C65.9093 146.734 66.2513 146.626 66.5993 146.626C66.9113 146.626 67.1813 146.698 67.4093 146.842C67.6493 146.974 67.8233 147.142 67.9313 147.346C67.9193 147.754 67.8233 148.078 67.6433 148.318C67.4753 148.558 67.2053 148.678 66.8333 148.678C66.6053 148.678 66.4013 148.636 66.2213 148.552C66.0413 148.468 65.8673 148.354 65.6993 148.21L65.2493 147.778L66.1493 147.652C65.5733 147.94 65.1053 148.324 64.7453 148.804C64.3973 149.272 64.1153 149.83 63.8993 150.478ZM72.9502 155.734C72.0862 155.734 71.3362 155.56 70.7002 155.212C70.0762 154.852 69.5902 154.342 69.2422 153.682C68.9062 153.01 68.7382 152.212 68.7382 151.288C68.7382 150.352 68.9182 149.536 69.2782 148.84C69.6502 148.144 70.1482 147.604 70.7722 147.22C71.4082 146.824 72.1102 146.626 72.8782 146.626C73.5502 146.626 74.1442 146.764 74.6602 147.04C75.1762 147.316 75.5842 147.712 75.8842 148.228C76.1842 148.744 76.3342 149.368 76.3342 150.1C76.3342 150.316 76.3222 150.52 76.2982 150.712C76.2742 150.892 76.2442 151.048 76.2082 151.18H69.5122V150.388H73.8322C74.2522 150.364 74.5222 150.268 74.6422 150.1C74.7622 149.92 74.8222 149.71 74.8222 149.47C74.8222 149.038 74.7442 148.678 74.5882 148.39C74.4322 148.09 74.2102 147.868 73.9222 147.724C73.6342 147.568 73.2862 147.49 72.8782 147.49C72.4582 147.49 72.0502 147.61 71.6542 147.85C71.2702 148.09 70.9582 148.474 70.7182 149.002C70.4782 149.518 70.3582 150.208 70.3582 151.072C70.3582 151.816 70.4782 152.446 70.7182 152.962C70.9582 153.478 71.3002 153.874 71.7442 154.15C72.2002 154.414 72.7342 154.546 73.3462 154.546C73.9342 154.546 74.4382 154.444 74.8582 154.24C75.2902 154.036 75.6862 153.736 76.0462 153.34L76.4782 153.7C76.2262 154.096 75.9442 154.45 75.6322 154.762C75.3202 155.074 74.9482 155.314 74.5162 155.482C74.0962 155.65 73.5742 155.734 72.9502 155.734Z" fill="#2F2F2F"/>
<g clip-path="url(#clip0_0_861)">
<path d="M118.836 190.941V195.042L29.1727 214.797V212.449H24V257.148H29.1727V253.592L48.5959 258.731C48.5363 258.944 48.4513 259.165 48.4513 259.411V268.872C48.4513 270.08 49.2595 271.144 50.4165 271.475L73.2598 277.992C73.498 278.06 73.7618 278.111 74.0085 278.111C74.587 278.111 75.1656 277.916 75.642 277.55C76.3141 277.048 76.7055 276.257 76.7055 275.406V266.167L118.827 277.303V282.059H124V190.941H118.836ZM71.303 271.782L53.8707 266.822V260.118L71.303 264.72V271.782ZM105.496 219.297L42.2831 225.261V219.842L105.496 205.838V219.297Z" fill="#2F2F2F"/>
</g>
<defs>
<clipPath id="clip0_0_861">
<rect width="100" height="100" fill="white" transform="translate(24 186.5)"/>
</clipPath>
</defs>
</svg>
