<svg width="553" height="306" viewBox="0 0 553 306" fill="none" xmlns="http://www.w3.org/2000/svg">
<rect width="553" height="306" rx="20" fill="#2F2F2F"/>
<path d="M223.586 202.454V175.018H228.071L239.49 193.616C239.729 193.993 239.942 194.37 240.131 194.747C240.332 195.111 240.507 195.463 240.658 195.802H240.79C240.778 195.412 240.765 194.998 240.752 194.558C240.752 194.106 240.752 193.685 240.752 193.296V175.018H244.71V202.454H240.187L228.787 183.893C228.548 183.516 228.328 183.139 228.127 182.762C227.939 182.386 227.769 182.027 227.619 181.688H227.487C227.499 182.078 227.506 182.505 227.506 182.97C227.518 183.422 227.524 183.849 227.524 184.251V202.454H223.586Z" fill="#FFF9F2"/>
<path d="M249.778 189.584V187.888C249.778 183.566 250.865 180.25 253.038 177.939C255.211 175.627 258.013 174.471 261.442 174.471C264.859 174.471 267.661 175.627 269.846 177.939C272.032 180.25 273.125 183.566 273.125 187.888V189.584C273.125 193.905 272.032 197.221 269.846 199.533C267.661 201.844 264.859 203 261.442 203C258.013 203 255.211 201.844 253.038 199.533C250.865 197.221 249.778 193.905 249.778 189.584ZM254.131 189.81C254.131 192.95 254.797 195.356 256.128 197.027C257.46 198.697 259.231 199.533 261.442 199.533C263.653 199.533 265.424 198.697 266.756 197.027C268.1 195.356 268.772 192.95 268.772 189.81V187.662C268.772 184.521 268.1 182.115 266.756 180.445C265.424 178.774 263.653 177.939 261.442 177.939C259.231 177.939 257.46 178.774 256.128 180.445C254.797 182.115 254.131 184.521 254.131 187.662V189.81Z" fill="#FFF9F2"/>
<path d="M278.194 202.454V175.018H287.389C290.367 175.018 292.672 175.759 294.305 177.241C295.938 178.724 296.754 180.734 296.754 183.271C296.754 185.796 295.932 187.825 294.286 189.358C292.653 190.878 290.354 191.638 287.389 191.638H282.452V202.454H278.194ZM282.452 188.321H287.276C289.211 188.321 290.561 187.844 291.328 186.889C292.094 185.934 292.477 184.735 292.477 183.29C292.477 181.845 292.094 180.665 291.328 179.747C290.561 178.83 289.211 178.366 287.276 178.353H282.452V188.321ZM293.363 202.454L286.805 189.81L291.12 189.339L298.13 202.454H293.363Z" fill="#FFF9F2"/>
<path d="M297.753 178.428V175.018H319.046V178.428H310.529V202.454H306.251V178.428H297.753Z" fill="#FFF9F2"/>
<path d="M322.513 202.454V175.018H326.772V186.588H339.529V175.018H343.787V202.454H339.529V190.017H326.772V202.454H322.513Z" fill="#FFF9F2"/>
<path d="M354.17 202.604L347.556 175.018H351.796L356.28 194.822C356.381 195.237 356.45 195.576 356.487 195.84C356.525 196.091 356.569 196.43 356.619 196.857H356.789C356.839 196.43 356.883 196.091 356.921 195.84C356.971 195.576 357.046 195.237 357.147 194.822L362.065 175.018H366.55L371.6 194.803C371.713 195.218 371.788 195.557 371.826 195.821C371.864 196.085 371.908 196.43 371.958 196.857H372.108C372.159 196.43 372.209 196.085 372.259 195.821C372.309 195.557 372.379 195.218 372.467 194.803L376.782 175.018H380.776L374.2 202.604H369.791L364.703 182.744C364.59 182.342 364.496 181.958 364.42 181.594C364.358 181.217 364.295 180.822 364.232 180.407H364.1C364.037 180.822 363.968 181.217 363.893 181.594C363.83 181.958 363.742 182.342 363.629 182.744L358.541 202.604H354.17Z" fill="#FFF9F2"/>
<path d="M384.583 202.454V175.018H401.975V178.428H388.822V186.625H400.241V189.998H388.822V199.062H402.163V202.454H384.583Z" fill="#FFF9F2"/>
<path d="M405.028 194.879V194.464H409.305V194.841C409.305 196.411 409.82 197.592 410.85 198.383C411.88 199.162 413.312 199.552 415.146 199.552C416.98 199.552 418.387 199.162 419.367 198.383C420.347 197.592 420.837 196.562 420.837 195.293C420.837 194.087 420.366 193.132 419.424 192.429C418.482 191.725 416.629 190.978 413.865 190.187C410.951 189.345 408.834 188.327 407.515 187.134C406.196 185.928 405.536 184.238 405.536 182.065C405.536 179.842 406.378 178.02 408.061 176.601C409.745 175.181 412.05 174.471 414.977 174.471C417.891 174.471 420.215 175.213 421.949 176.695C423.695 178.165 424.568 180.087 424.568 182.461V182.819H420.309V182.499C420.309 181.117 419.863 180.011 418.972 179.182C418.08 178.353 416.748 177.939 414.977 177.939C413.206 177.939 411.899 178.29 411.057 178.994C410.228 179.697 409.814 180.652 409.814 181.858C409.814 182.976 410.247 183.855 411.114 184.496C411.993 185.124 413.834 185.834 416.635 186.625C419.499 187.442 421.622 188.484 423.004 189.753C424.398 191.022 425.096 192.818 425.096 195.142C425.096 197.504 424.197 199.407 422.401 200.852C420.605 202.284 418.186 203 415.146 203C412.119 203 409.676 202.29 407.816 200.871C405.957 199.439 405.028 197.441 405.028 194.879Z" fill="#FFF9F2"/>
<path d="M426.942 178.428V175.018H448.235V178.428H439.718V202.454H435.441V178.428H426.942Z" fill="#FFF9F2"/>
<path d="M145.528 146.93L151.351 155.217C146.872 158.017 139.033 159.921 132.202 159.921C115.739 159.921 104.765 148.722 104.765 131.924C104.765 115.126 114.843 103.927 129.962 103.927C144.968 103.927 155.047 113.782 155.047 128.564V138.643H115.067C116.747 145.362 123.467 149.842 132.313 149.842C136.793 149.842 141.944 148.722 145.528 146.93ZM115.067 128.564H144.856C144.856 119.829 138.921 114.006 129.962 114.006C121.003 114.006 115.067 119.829 115.067 128.564Z" fill="#FFF9F2"/>
<path d="M270.579 103.927H280.658V111.206C284.465 106.167 290.065 103.367 296.896 103.367C305.743 103.367 312.686 107.847 316.158 115.35C319.629 107.847 326.236 103.367 334.971 103.367C347.626 103.367 356.585 112.662 356.585 126.661L356.473 159.921H346.282L346.394 126.885C346.394 118.822 341.691 113.446 333.74 113.446C324.669 113.446 318.621 119.941 318.621 128.9H318.509L318.397 159.921H308.207L308.319 126.885C308.319 118.822 303.615 113.446 295.664 113.446C287.601 113.446 281.554 118.71 280.658 126.773V159.921H270.579V103.927Z" fill="#FFF9F2"/>
<path d="M362.229 103.927H372.308V111.206C376.115 106.167 381.715 103.367 388.546 103.367C397.393 103.367 404.336 107.847 407.808 115.35C411.279 107.847 417.887 103.367 426.622 103.367C439.276 103.367 448.235 112.662 448.235 126.661L448.123 159.921H437.932L438.044 126.885C438.044 118.822 433.341 113.446 425.39 113.446C416.319 113.446 410.271 119.941 410.271 128.9H410.159L410.047 159.921H399.857L399.969 126.885C399.969 118.822 395.265 113.446 387.314 113.446C379.251 113.446 373.204 118.71 372.308 126.773V159.921H362.229V103.927Z" fill="#FFF9F2"/>
<path d="M160.638 121.064C166.481 106.368 183.132 99.1911 197.827 105.033L202.326 106.822L198.749 115.816L194.252 114.027C184.523 110.159 173.5 114.911 169.632 124.639C165.764 134.368 170.515 145.391 180.244 149.259C189.973 153.127 200.996 148.376 204.864 138.647L206.651 134.15L215.647 137.725L213.858 142.225C208.014 156.92 191.365 164.095 176.669 158.253C161.973 152.41 154.796 135.76 160.638 121.064ZM211.776 121.045C217.629 106.354 234.283 99.1882 248.974 105.041C263.666 110.894 270.832 127.549 264.979 142.241C259.126 156.933 242.47 164.099 227.778 158.246L223.284 156.455L226.866 147.463L231.36 149.255C241.087 153.129 252.113 148.385 255.988 138.659C259.862 128.933 255.118 117.907 245.392 114.032C235.666 110.158 224.642 114.902 220.767 124.627L218.976 129.122L209.985 125.542L211.776 121.045Z" fill="#FFF9F2"/>
</svg>
