<svg width="538" height="316" viewBox="0 0 538 316" fill="none" xmlns="http://www.w3.org/2000/svg">
<rect width="538" height="316" rx="8" fill="#611C28"/>
<rect x="24" y="27.5" width="77" height="25" rx="12.5" fill="#FFF9F2"/>
<path d="M37.807 42.826H35.595L35.133 45.5H34.055L34.517 42.826H32.893V41.804H34.699L35.105 39.424H33.481V38.402H35.287L35.749 35.728H36.813L36.351 38.402H38.563L39.025 35.728H40.103L39.641 38.402H41.265V39.424H39.459L39.053 41.804H40.677V42.826H38.871L38.409 45.5H37.345L37.807 42.826ZM37.975 41.804L38.395 39.424H36.183L35.763 41.804H37.975ZM46.0493 45.668C45.508 45.668 45.0226 45.5793 44.5933 45.402C44.1733 45.2247 43.814 44.9727 43.5153 44.646C43.226 44.31 43.002 43.9087 42.8433 43.442C42.6846 42.9753 42.6053 42.448 42.6053 41.86C42.6053 41.1507 42.7126 40.4833 42.9273 39.858C43.142 39.2327 43.4173 38.6587 43.7533 38.136C44.0893 37.6133 44.4626 37.1513 44.8733 36.75C45.2933 36.3393 45.704 35.9987 46.1053 35.728H48.2053C47.6546 36.1293 47.16 36.5167 46.7213 36.89C46.2826 37.2633 45.9 37.646 45.5733 38.038C45.2466 38.43 44.9713 38.8453 44.7473 39.284C44.5326 39.7227 44.3646 40.2033 44.2433 40.726L44.3413 40.754C44.444 40.558 44.5606 40.376 44.6913 40.208C44.8313 40.0307 44.99 39.8767 45.1673 39.746C45.354 39.6153 45.564 39.5127 45.7973 39.438C46.0306 39.3633 46.3013 39.326 46.6093 39.326C47.02 39.326 47.398 39.396 47.7433 39.536C48.098 39.676 48.4013 39.8813 48.6533 40.152C48.9146 40.4133 49.1153 40.7307 49.2553 41.104C49.4046 41.4773 49.4793 41.8927 49.4793 42.35C49.4793 42.8447 49.3953 43.2973 49.2273 43.708C49.0686 44.1093 48.84 44.4547 48.5413 44.744C48.2426 45.0333 47.8786 45.262 47.4493 45.43C47.0293 45.5887 46.5626 45.668 46.0493 45.668ZM46.0493 44.38C46.6186 44.38 47.062 44.2307 47.3793 43.932C47.6966 43.624 47.8553 43.176 47.8553 42.588V42.392C47.8553 41.804 47.6966 41.3607 47.3793 41.062C47.062 40.754 46.6186 40.6 46.0493 40.6C45.48 40.6 45.0366 40.754 44.7193 41.062C44.402 41.3607 44.2433 41.804 44.2433 42.392V42.588C44.2433 43.176 44.402 43.624 44.7193 43.932C45.0366 44.2307 45.48 44.38 46.0493 44.38ZM51.4478 45.5V44.184H54.1918V36.876H54.0798L51.8118 39.298L50.8458 38.43L53.3378 35.728H55.7458V44.184H58.1258V45.5H51.4478ZM59.8424 45.5V44.184H62.5864V36.876H62.4744L60.2064 39.298L59.2404 38.43L61.7324 35.728H64.1404V44.184H66.5204V45.5H59.8424ZM71.8769 45.668C70.5982 45.668 69.5949 45.2387 68.8669 44.38C68.1389 43.512 67.7749 42.2567 67.7749 40.614C67.7749 39.7927 67.8682 39.0693 68.0549 38.444C68.2415 37.8187 68.5122 37.2913 68.8669 36.862C69.2215 36.4327 69.6509 36.1107 70.1549 35.896C70.6682 35.672 71.2422 35.56 71.8769 35.56C72.7262 35.56 73.4355 35.7467 74.0049 36.12C74.5835 36.4933 75.0362 37.044 75.3629 37.772L74.0329 38.5C73.8649 38.0333 73.6035 37.6647 73.2489 37.394C72.9035 37.114 72.4462 36.974 71.8769 36.974C71.1209 36.974 70.5282 37.2307 70.0989 37.744C69.6695 38.2573 69.4549 38.9667 69.4549 39.872V41.356C69.4549 42.2613 69.6695 42.9707 70.0989 43.484C70.5282 43.9973 71.1209 44.254 71.8769 44.254C72.4649 44.254 72.9409 44.1047 73.3049 43.806C73.6782 43.498 73.9535 43.106 74.1309 42.63L75.4049 43.4C75.0782 44.1093 74.6209 44.6647 74.0329 45.066C73.4449 45.4673 72.7262 45.668 71.8769 45.668ZM83.4519 45.5H76.8159V43.988L79.9379 41.202C80.4326 40.754 80.8106 40.3293 81.0719 39.928C81.3426 39.5173 81.4779 39.088 81.4779 38.64V38.458C81.4779 37.982 81.3333 37.6087 81.0439 37.338C80.7639 37.0673 80.3813 36.932 79.8959 36.932C79.6253 36.932 79.3873 36.974 79.1819 37.058C78.9859 37.1327 78.8133 37.24 78.6639 37.38C78.5146 37.52 78.3886 37.6833 78.2859 37.87C78.1926 38.0567 78.1179 38.2573 78.0619 38.472L76.6759 37.94C76.7786 37.632 76.9186 37.338 77.0959 37.058C77.2733 36.7687 77.4973 36.512 77.7679 36.288C78.0386 36.064 78.3559 35.8867 78.7199 35.756C79.0933 35.6253 79.5273 35.56 80.0219 35.56C80.5166 35.56 80.9599 35.6347 81.3519 35.784C81.7439 35.924 82.0706 36.1247 82.3319 36.386C82.6026 36.638 82.8079 36.9413 82.9479 37.296C83.0879 37.6507 83.1579 38.038 83.1579 38.458C83.1579 38.85 83.0973 39.214 82.9759 39.55C82.8546 39.886 82.6866 40.2033 82.4719 40.502C82.2573 40.8007 82.0053 41.0853 81.7159 41.356C81.4359 41.6267 81.1373 41.902 80.8199 42.182L78.5239 44.156H83.4519V45.5ZM88.4725 45.668C87.9031 45.668 87.3991 45.598 86.9605 45.458C86.5311 45.3087 86.1671 45.108 85.8685 44.856C85.5791 44.604 85.3551 44.3053 85.1965 43.96C85.0471 43.6147 84.9725 43.2413 84.9725 42.84C84.9725 42.1867 85.1498 41.664 85.5045 41.272C85.8685 40.8707 86.3445 40.5907 86.9325 40.432V40.32C86.4285 40.1427 86.0225 39.8627 85.7145 39.48C85.4158 39.0973 85.2665 38.626 85.2665 38.066C85.2665 37.6927 85.3365 37.352 85.4765 37.044C85.6258 36.736 85.8358 36.4747 86.1065 36.26C86.3771 36.036 86.7131 35.8633 87.1145 35.742C87.5158 35.6207 87.9685 35.56 88.4725 35.56C88.9765 35.56 89.4291 35.6207 89.8305 35.742C90.2318 35.8633 90.5678 36.036 90.8385 36.26C91.1091 36.4747 91.3145 36.736 91.4545 37.044C91.6038 37.352 91.6785 37.6927 91.6785 38.066C91.6785 38.626 91.5245 39.0973 91.2165 39.48C90.9178 39.8627 90.5165 40.1427 90.0125 40.32V40.432C90.6005 40.5907 91.0718 40.8707 91.4265 41.272C91.7905 41.664 91.9725 42.1867 91.9725 42.84C91.9725 43.2413 91.8931 43.6147 91.7345 43.96C91.5851 44.3053 91.3611 44.604 91.0625 44.856C90.7731 45.108 90.4091 45.3087 89.9705 45.458C89.5411 45.598 89.0418 45.668 88.4725 45.668ZM88.4725 44.394C89.0605 44.394 89.5131 44.2587 89.8305 43.988C90.1571 43.7173 90.3205 43.3393 90.3205 42.854V42.574C90.3205 42.0887 90.1571 41.7107 89.8305 41.44C89.5131 41.1693 89.0605 41.034 88.4725 41.034C87.8845 41.034 87.4271 41.1693 87.1005 41.44C86.7831 41.7107 86.6245 42.0887 86.6245 42.574V42.854C86.6245 43.3393 86.7831 43.7173 87.1005 43.988C87.4271 44.2587 87.8845 44.394 88.4725 44.394ZM88.4725 39.816C89.0138 39.816 89.4245 39.6993 89.7045 39.466C89.9938 39.2327 90.1385 38.892 90.1385 38.444V38.206C90.1385 37.758 89.9938 37.4173 89.7045 37.184C89.4245 36.9507 89.0138 36.834 88.4725 36.834C87.9311 36.834 87.5158 36.9507 87.2265 37.184C86.9465 37.4173 86.8065 37.758 86.8065 38.206V38.444C86.8065 38.892 86.9465 39.2327 87.2265 39.466C87.5158 39.6993 87.9311 39.816 88.4725 39.816Z" fill="#611C28"/>
<rect x="109" y="27.5" width="45" height="25" rx="12.5" fill="#FFF9F2"/>
<path d="M124.726 45.5L123.844 42.854H120.19L119.336 45.5H117.726L121.058 35.728H123.046L126.378 45.5H124.726ZM122.052 37.184H121.982L120.568 41.496H123.452L122.052 37.184ZM134.173 45.5L133.291 42.854H129.637L128.783 45.5H127.173L130.505 35.728H132.493L135.825 45.5H134.173ZM131.499 37.184H131.429L130.015 41.496H132.899L131.499 37.184ZM143.621 45.5L142.739 42.854H139.085L138.231 45.5H136.621L139.953 35.728H141.941L145.273 45.5H143.621ZM140.947 37.184H140.877L139.463 41.496H142.347L140.947 37.184Z" fill="#611C28"/>
<path d="M33.15 100.83C31.58 100.83 30.21 100.58 29.04 100.08C27.87 99.58 26.96 98.83 26.31 97.83C25.66 96.82 25.335 95.57 25.335 94.08C25.335 93.91 25.335 93.76 25.335 93.63C25.335 93.49 25.335 93.335 25.335 93.165H29.28C29.28 93.315 29.28 93.455 29.28 93.585C29.28 93.705 29.28 93.845 29.28 94.005C29.28 95.205 29.605 96.105 30.255 96.705C30.915 97.295 31.885 97.59 33.165 97.59C34.455 97.59 35.44 97.375 36.12 96.945C36.81 96.515 37.155 95.825 37.155 94.875C37.155 94.185 36.92 93.6 36.45 93.12C35.99 92.63 35.355 92.2 34.545 91.83C33.735 91.46 32.815 91.115 31.785 90.795C30.625 90.435 29.57 89.97 28.62 89.4C27.67 88.83 26.91 88.11 26.34 87.24C25.77 86.37 25.485 85.3 25.485 84.03C25.485 82.76 25.81 81.68 26.46 80.79C27.12 79.9 28.02 79.225 29.16 78.765C30.31 78.295 31.615 78.06 33.075 78.06C34.605 78.06 35.95 78.3 37.11 78.78C38.28 79.26 39.195 79.975 39.855 80.925C40.515 81.875 40.845 83.06 40.845 84.48C40.845 84.67 40.845 84.835 40.845 84.975C40.845 85.115 40.845 85.275 40.845 85.455H36.885C36.885 85.325 36.885 85.195 36.885 85.065C36.885 84.925 36.885 84.79 36.885 84.66C36.885 83.52 36.575 82.68 35.955 82.14C35.335 81.59 34.395 81.315 33.135 81.315C31.905 81.315 30.96 81.53 30.3 81.96C29.64 82.39 29.31 83.075 29.31 84.015C29.31 84.715 29.535 85.3 29.985 85.77C30.435 86.24 31.05 86.65 31.83 87C32.62 87.34 33.515 87.685 34.515 88.035C35.845 88.475 36.995 88.975 37.965 89.535C38.935 90.085 39.685 90.775 40.215 91.605C40.745 92.425 41.01 93.47 41.01 94.74C41.01 96.04 40.68 97.145 40.02 98.055C39.37 98.955 38.455 99.645 37.275 100.125C36.105 100.595 34.73 100.83 33.15 100.83ZM53.2448 100.83C51.9048 100.83 50.6548 100.58 49.4948 100.08C48.3348 99.58 47.3148 98.845 46.4348 97.875C45.5648 96.895 44.8848 95.7 44.3948 94.29C43.9148 92.87 43.6748 91.245 43.6748 89.415C43.6748 87.585 43.9148 85.965 44.3948 84.555C44.8848 83.145 45.5648 81.96 46.4348 81C47.3048 80.03 48.3198 79.3 49.4798 78.81C50.6498 78.31 51.9048 78.06 53.2448 78.06C54.6048 78.06 55.8648 78.31 57.0248 78.81C58.1948 79.3 59.2148 80.03 60.0848 81C60.9548 81.96 61.6298 83.145 62.1098 84.555C62.5998 85.965 62.8448 87.585 62.8448 89.415C62.8448 91.245 62.5998 92.87 62.1098 94.29C61.6198 95.7 60.9348 96.895 60.0548 97.875C59.1848 98.845 58.1698 99.58 57.0098 100.08C55.8498 100.58 54.5948 100.83 53.2448 100.83ZM53.2448 97.575C54.2848 97.575 55.2248 97.295 56.0648 96.735C56.9048 96.165 57.5698 95.28 58.0598 94.08C58.5598 92.88 58.8098 91.325 58.8098 89.415C58.8098 87.495 58.5598 85.945 58.0598 84.765C57.5598 83.575 56.8898 82.705 56.0498 82.155C55.2098 81.605 54.2748 81.33 53.2448 81.33C52.2348 81.33 51.3048 81.605 50.4548 82.155C49.6148 82.705 48.9398 83.575 48.4298 84.765C47.9298 85.945 47.6798 87.495 47.6798 89.415C47.6798 91.335 47.9298 92.895 48.4298 94.095C48.9398 95.295 49.6148 96.175 50.4548 96.735C51.3048 97.295 52.2348 97.575 53.2448 97.575ZM66.131 100.5V78.375H70.031V100.5H66.131ZM73.9233 100.5V78.375H77.8833V99.315L76.0983 97.23H86.2683V100.5H73.9233ZM112.582 78.375H119.302V100.5H115.537V80.895L115.627 80.925L110.872 100.5H105.592L100.777 80.91L100.867 80.865V100.5H97.102V78.375H103.822L108.307 98.34H108.052L112.582 78.375ZM122.24 100.5L127.955 78.345H134.195L139.865 100.5H135.8L131.06 80.79H131.09L126.305 100.5H122.24ZM125.93 95.115V91.95H136.22V95.115H125.93ZM142.595 100.5V78.375H151.115C153.345 78.375 155.02 78.885 156.14 79.905C157.26 80.925 157.82 82.425 157.82 84.405C157.82 85.565 157.6 86.55 157.16 87.36C156.72 88.17 156.185 88.795 155.555 89.235C154.925 89.675 154.325 89.925 153.755 89.985C154.335 90.025 154.895 90.175 155.435 90.435C155.975 90.695 156.415 91.105 156.755 91.665C157.105 92.215 157.28 92.96 157.28 93.9C157.28 94.65 157.28 95.4 157.28 96.15C157.28 96.89 157.28 97.635 157.28 98.385C157.28 98.855 157.32 99.29 157.4 99.69C157.48 100.08 157.58 100.35 157.7 100.5H153.725C153.625 100.32 153.535 100.045 153.455 99.675C153.385 99.295 153.35 98.865 153.35 98.385C153.35 97.705 153.35 97.04 153.35 96.39C153.35 95.73 153.35 95.055 153.35 94.365C153.35 93.455 153.095 92.765 152.585 92.295C152.075 91.825 151.305 91.59 150.275 91.59H145.4L146.45 90.255V100.5H142.595ZM146.45 89.925L145.4 88.44H150.305C150.955 88.44 151.54 88.29 152.06 87.99C152.58 87.68 152.99 87.25 153.29 86.7C153.6 86.15 153.755 85.505 153.755 84.765C153.755 83.685 153.445 82.875 152.825 82.335C152.205 81.795 151.325 81.525 150.185 81.525H145.295L146.45 80.13V89.925ZM170.257 100.83C168.917 100.83 167.667 100.58 166.507 100.08C165.347 99.58 164.327 98.845 163.447 97.875C162.577 96.895 161.897 95.7 161.407 94.29C160.927 92.87 160.687 91.245 160.687 89.415C160.687 87.585 160.927 85.965 161.407 84.555C161.897 83.145 162.577 81.96 163.447 81C164.317 80.03 165.332 79.3 166.492 78.81C167.662 78.31 168.917 78.06 170.257 78.06C171.617 78.06 172.877 78.31 174.037 78.81C175.207 79.3 176.227 80.03 177.097 81C177.967 81.96 178.642 83.145 179.122 84.555C179.612 85.965 179.857 87.585 179.857 89.415C179.857 91.245 179.612 92.87 179.122 94.29C178.632 95.7 177.947 96.895 177.067 97.875C176.197 98.845 175.182 99.58 174.022 100.08C172.862 100.58 171.607 100.83 170.257 100.83ZM170.257 97.575C171.297 97.575 172.237 97.295 173.077 96.735C173.917 96.165 174.582 95.28 175.072 94.08C175.572 92.88 175.822 91.325 175.822 89.415C175.822 87.495 175.572 85.945 175.072 84.765C174.572 83.575 173.902 82.705 173.062 82.155C172.222 81.605 171.287 81.33 170.257 81.33C169.247 81.33 168.317 81.605 167.467 82.155C166.627 82.705 165.952 83.575 165.442 84.765C164.942 85.945 164.692 87.495 164.692 89.415C164.692 91.335 164.942 92.895 165.442 94.095C165.952 95.295 166.627 96.175 167.467 96.735C168.317 97.295 169.247 97.575 170.257 97.575ZM192.083 100.83C190.743 100.83 189.493 100.58 188.333 100.08C187.173 99.58 186.153 98.845 185.273 97.875C184.403 96.895 183.723 95.7 183.233 94.29C182.753 92.87 182.513 91.245 182.513 89.415C182.513 87.585 182.753 85.965 183.233 84.555C183.723 83.145 184.403 81.96 185.273 81C186.143 80.03 187.158 79.3 188.318 78.81C189.488 78.31 190.743 78.06 192.083 78.06C193.443 78.06 194.703 78.31 195.863 78.81C197.033 79.3 198.053 80.03 198.923 81C199.793 81.96 200.468 83.145 200.948 84.555C201.438 85.965 201.683 87.585 201.683 89.415C201.683 91.245 201.438 92.87 200.948 94.29C200.458 95.7 199.773 96.895 198.893 97.875C198.023 98.845 197.008 99.58 195.848 100.08C194.688 100.58 193.433 100.83 192.083 100.83ZM192.083 97.575C193.123 97.575 194.063 97.295 194.903 96.735C195.743 96.165 196.408 95.28 196.898 94.08C197.398 92.88 197.648 91.325 197.648 89.415C197.648 87.495 197.398 85.945 196.898 84.765C196.398 83.575 195.728 82.705 194.888 82.155C194.048 81.605 193.113 81.33 192.083 81.33C191.073 81.33 190.143 81.605 189.293 82.155C188.453 82.705 187.778 83.575 187.268 84.765C186.768 85.945 186.518 87.495 186.518 89.415C186.518 91.335 186.768 92.895 187.268 94.095C187.778 95.295 188.453 96.175 189.293 96.735C190.143 97.295 191.073 97.575 192.083 97.575ZM208.779 100.5H204.939V78.375H211.134L219.219 98.895L218.634 99.06V78.375H222.489V100.5H216.204L208.149 80.025L208.779 79.875V100.5Z" fill="#FFF9F2"/>
<path d="M26.754 128.5V127.69L29.292 127.474H29.76L32.298 127.69V128.5H26.754ZM28.608 128.5C28.632 127.888 28.644 127.276 28.644 126.664C28.656 126.04 28.662 125.416 28.662 124.792C28.662 124.168 28.662 123.544 28.662 122.92V122.038C28.662 121.414 28.662 120.79 28.662 120.166C28.662 119.542 28.656 118.918 28.644 118.294C28.644 117.67 28.632 117.052 28.608 116.44H30.426C30.426 117.04 30.42 117.652 30.408 118.276C30.396 118.9 30.39 119.524 30.39 120.148C30.39 120.772 30.39 121.402 30.39 122.038V122.92C30.39 123.532 30.39 124.15 30.39 124.774C30.39 125.398 30.396 126.022 30.408 126.646C30.42 127.258 30.426 127.876 30.426 128.5H28.608ZM24.36 119.68L24.504 116.44H34.53L34.674 119.68H33.612L33.036 116.512L33.864 117.376H25.17L26.016 116.512L25.422 119.68H24.36ZM35.6331 128.5V127.78L37.6131 127.474H38.0631L39.8991 127.78V128.5H35.6331ZM37.0011 128.5C37.0131 128.2 37.0191 127.828 37.0191 127.384C37.0191 126.928 37.0191 126.46 37.0191 125.98C37.0311 125.5 37.0371 125.068 37.0371 124.684V116.854L35.5431 116.638V115.954L38.2791 115.216L38.6031 115.324L38.5491 117.808L38.5311 121.642L38.5851 121.84V124.684C38.5851 125.068 38.5851 125.5 38.5851 125.98C38.5971 126.46 38.6031 126.928 38.6031 127.384C38.6151 127.828 38.6271 128.2 38.6391 128.5H37.0011ZM41.3211 128.5V127.78L43.2831 127.474H43.7331L45.5691 127.78V128.5H41.3211ZM42.6351 128.5C42.6471 128.2 42.6531 127.828 42.6531 127.384C42.6651 126.94 42.6711 126.478 42.6711 125.998C42.6711 125.518 42.6711 125.08 42.6711 124.684V123.082C42.6711 122.278 42.5511 121.726 42.3111 121.426C42.0831 121.114 41.7051 120.958 41.1771 120.958C40.8771 120.958 40.5831 121 40.2951 121.084C40.0071 121.168 39.7131 121.3 39.4131 121.48C39.1131 121.66 38.7951 121.9 38.4591 122.2L38.1891 121.498H38.4951C38.7711 121.138 39.0891 120.82 39.4491 120.544C39.8091 120.256 40.1931 120.034 40.6011 119.878C41.0211 119.71 41.4411 119.626 41.8611 119.626C42.6651 119.626 43.2591 119.89 43.6431 120.418C44.0391 120.934 44.2371 121.762 44.2371 122.902V124.684C44.2371 125.08 44.2371 125.518 44.2371 125.998C44.2491 126.478 44.2551 126.94 44.2551 127.384C44.2671 127.828 44.2791 128.2 44.2911 128.5H42.6351ZM51.1357 128.734C50.2717 128.734 49.5217 128.56 48.8857 128.212C48.2617 127.852 47.7757 127.342 47.4277 126.682C47.0917 126.01 46.9237 125.212 46.9237 124.288C46.9237 123.352 47.1037 122.536 47.4637 121.84C47.8357 121.144 48.3337 120.604 48.9577 120.22C49.5937 119.824 50.2957 119.626 51.0637 119.626C51.7357 119.626 52.3297 119.764 52.8457 120.04C53.3617 120.316 53.7697 120.712 54.0697 121.228C54.3697 121.744 54.5197 122.368 54.5197 123.1C54.5197 123.316 54.5077 123.52 54.4837 123.712C54.4597 123.892 54.4297 124.048 54.3937 124.18H47.6977V123.388H52.0177C52.4377 123.364 52.7077 123.268 52.8277 123.1C52.9477 122.92 53.0077 122.71 53.0077 122.47C53.0077 122.038 52.9297 121.678 52.7737 121.39C52.6177 121.09 52.3957 120.868 52.1077 120.724C51.8197 120.568 51.4717 120.49 51.0637 120.49C50.6437 120.49 50.2357 120.61 49.8397 120.85C49.4557 121.09 49.1437 121.474 48.9037 122.002C48.6637 122.518 48.5437 123.208 48.5437 124.072C48.5437 124.816 48.6637 125.446 48.9037 125.962C49.1437 126.478 49.4857 126.874 49.9297 127.15C50.3857 127.414 50.9197 127.546 51.5317 127.546C52.1197 127.546 52.6237 127.444 53.0437 127.24C53.4757 127.036 53.8717 126.736 54.2317 126.34L54.6637 126.7C54.4117 127.096 54.1297 127.45 53.8177 127.762C53.5057 128.074 53.1337 128.314 52.7017 128.482C52.2817 128.65 51.7597 128.734 51.1357 128.734ZM60.3869 128.5V127.69L62.7089 127.474H62.9069V128.5H60.3869ZM62.0609 128.5C62.0849 127.888 62.0969 127.276 62.0969 126.664C62.1089 126.04 62.1149 125.416 62.1149 124.792C62.1149 124.168 62.1149 123.544 62.1149 122.92V122.038C62.1149 121.414 62.1149 120.79 62.1149 120.166C62.1149 119.542 62.1089 118.918 62.0969 118.294C62.0969 117.67 62.0849 117.052 62.0609 116.44H63.8969C63.8969 117.04 63.8909 117.652 63.8789 118.276C63.8669 118.9 63.8609 119.524 63.8609 120.148C63.8609 120.772 63.8609 121.402 63.8609 122.038V122.686C63.8609 123.382 63.8609 124.06 63.8609 124.72C63.8609 125.368 63.8669 126.004 63.8789 126.628C63.8909 127.252 63.8969 127.876 63.8969 128.5H62.0609ZM63.0509 128.5V127.6H65.0489C66.2129 127.6 67.0769 127.396 67.6409 126.988C68.2049 126.568 68.4869 125.968 68.4869 125.188C68.4869 124.36 68.2049 123.742 67.6409 123.334C67.0889 122.914 66.1949 122.704 64.9589 122.704H62.9789V121.822H64.8869C65.6069 121.822 66.1889 121.744 66.6329 121.588C67.0889 121.42 67.4249 121.168 67.6409 120.832C67.8569 120.484 67.9649 120.046 67.9649 119.518C67.9649 118.978 67.8629 118.552 67.6589 118.24C67.4549 117.916 67.1429 117.682 66.7229 117.538C66.3029 117.394 65.7869 117.322 65.1749 117.322H63.0509V116.44H65.6789C66.5189 116.44 67.2389 116.566 67.8389 116.818C68.4389 117.058 68.8949 117.4 69.2069 117.844C69.5309 118.276 69.6929 118.786 69.6929 119.374C69.6929 119.878 69.5669 120.334 69.3149 120.742C69.0629 121.15 68.6789 121.486 68.1629 121.75C67.6589 122.014 67.0049 122.188 66.2009 122.272V122.2C67.1489 122.26 67.9229 122.422 68.5229 122.686C69.1229 122.95 69.5729 123.292 69.8729 123.712C70.1729 124.132 70.3229 124.618 70.3229 125.17C70.3229 125.614 70.2269 126.034 70.0349 126.43C69.8429 126.826 69.5489 127.18 69.1529 127.492C68.7689 127.804 68.2649 128.05 67.6409 128.23C67.0289 128.41 66.2969 128.5 65.4449 128.5H63.0509ZM60.3869 117.25V116.44H62.9069V117.466H62.7089L60.3869 117.25ZM71.8658 128.5V127.78L73.8458 127.474H74.3138L76.3838 127.78V128.5H71.8658ZM73.1798 128.5C73.1918 128.2 73.1978 127.828 73.1978 127.384C73.2098 126.928 73.2158 126.46 73.2158 125.98C73.2278 125.5 73.2338 125.068 73.2338 124.684V123.802C73.2338 123.478 73.2278 123.19 73.2158 122.938C73.2158 122.686 73.2098 122.446 73.1978 122.218C73.1978 121.99 73.1918 121.75 73.1798 121.498L71.7398 121.372V120.688L74.2058 119.662L74.5478 119.806L74.7638 122.128L74.7998 122.146V124.684C74.7998 125.068 74.7998 125.5 74.7998 125.98C74.7998 126.46 74.7998 126.928 74.7998 127.384C74.8118 127.828 74.8238 128.2 74.8358 128.5H73.1798ZM74.7098 123.478L74.4938 122.218H74.7458C74.9498 121.678 75.1898 121.216 75.4658 120.832C75.7418 120.448 76.0478 120.154 76.3838 119.95C76.7198 119.734 77.0618 119.626 77.4098 119.626C77.7218 119.626 77.9918 119.698 78.2198 119.842C78.4598 119.974 78.6338 120.142 78.7418 120.346C78.7298 120.754 78.6338 121.078 78.4538 121.318C78.2858 121.558 78.0158 121.678 77.6438 121.678C77.4158 121.678 77.2118 121.636 77.0318 121.552C76.8518 121.468 76.6778 121.354 76.5098 121.21L76.0598 120.778L76.9598 120.652C76.3838 120.94 75.9158 121.324 75.5558 121.804C75.2078 122.272 74.9258 122.83 74.7098 123.478ZM83.7427 128.734C83.0227 128.734 82.3387 128.566 81.6907 128.23C81.0547 127.894 80.5387 127.39 80.1427 126.718C79.7467 126.034 79.5487 125.2 79.5487 124.216C79.5487 123.22 79.7467 122.38 80.1427 121.696C80.5387 121.012 81.0547 120.496 81.6907 120.148C82.3387 119.8 83.0227 119.626 83.7427 119.626C84.4627 119.626 85.1407 119.8 85.7767 120.148C86.4247 120.484 86.9467 120.994 87.3427 121.678C87.7507 122.362 87.9547 123.202 87.9547 124.198C87.9547 125.182 87.7507 126.016 87.3427 126.7C86.9467 127.372 86.4247 127.882 85.7767 128.23C85.1407 128.566 84.4627 128.734 83.7427 128.734ZM83.7427 127.87C84.2707 127.87 84.7147 127.732 85.0747 127.456C85.4467 127.18 85.7287 126.772 85.9207 126.232C86.1247 125.692 86.2267 125.02 86.2267 124.216C86.2267 123.4 86.1247 122.716 85.9207 122.164C85.7287 121.612 85.4467 121.198 85.0747 120.922C84.7147 120.634 84.2707 120.49 83.7427 120.49C83.2147 120.49 82.7647 120.634 82.3927 120.922C82.0327 121.198 81.7567 121.612 81.5647 122.164C81.3727 122.704 81.2767 123.382 81.2767 124.198C81.2767 125.014 81.3727 125.692 81.5647 126.232C81.7567 126.772 82.0327 127.18 82.3927 127.456C82.7647 127.732 83.2147 127.87 83.7427 127.87ZM93.7974 128.734C93.0774 128.734 92.3934 128.566 91.7454 128.23C91.1094 127.894 90.5934 127.39 90.1974 126.718C89.8014 126.034 89.6034 125.2 89.6034 124.216C89.6034 123.22 89.8014 122.38 90.1974 121.696C90.5934 121.012 91.1094 120.496 91.7454 120.148C92.3934 119.8 93.0774 119.626 93.7974 119.626C94.5174 119.626 95.1954 119.8 95.8314 120.148C96.4794 120.484 97.0014 120.994 97.3974 121.678C97.8054 122.362 98.0094 123.202 98.0094 124.198C98.0094 125.182 97.8054 126.016 97.3974 126.7C97.0014 127.372 96.4794 127.882 95.8314 128.23C95.1954 128.566 94.5174 128.734 93.7974 128.734ZM93.7974 127.87C94.3254 127.87 94.7694 127.732 95.1294 127.456C95.5014 127.18 95.7834 126.772 95.9754 126.232C96.1794 125.692 96.2814 125.02 96.2814 124.216C96.2814 123.4 96.1794 122.716 95.9754 122.164C95.7834 121.612 95.5014 121.198 95.1294 120.922C94.7694 120.634 94.3254 120.49 93.7974 120.49C93.2694 120.49 92.8194 120.634 92.4474 120.922C92.0874 121.198 91.8114 121.612 91.6194 122.164C91.4274 122.704 91.3314 123.382 91.3314 124.198C91.3314 125.014 91.4274 125.692 91.6194 126.232C91.8114 126.772 92.0874 127.18 92.4474 127.456C92.8194 127.732 93.2694 127.87 93.7974 127.87ZM103.348 128.734C102.616 128.734 101.968 128.548 101.404 128.176C100.852 127.804 100.42 127.282 100.108 126.61C99.8081 125.938 99.6581 125.152 99.6581 124.252C99.6581 123.304 99.8261 122.488 100.162 121.804C100.498 121.108 100.954 120.574 101.53 120.202C102.106 119.818 102.754 119.626 103.474 119.626C103.822 119.626 104.146 119.68 104.446 119.788C104.746 119.884 105.028 120.046 105.292 120.274C105.568 120.49 105.832 120.778 106.084 121.138H106.48L106.336 122.128C105.82 121.588 105.364 121.21 104.968 120.994C104.584 120.778 104.194 120.67 103.798 120.67C103.354 120.67 102.94 120.796 102.556 121.048C102.184 121.288 101.884 121.672 101.656 122.2C101.428 122.716 101.314 123.382 101.314 124.198C101.314 124.99 101.422 125.644 101.638 126.16C101.854 126.664 102.148 127.042 102.52 127.294C102.904 127.534 103.336 127.654 103.816 127.654C104.308 127.654 104.74 127.534 105.112 127.294C105.484 127.042 105.88 126.64 106.3 126.088L106.426 127.06H106.084C105.88 127.396 105.646 127.69 105.382 127.942C105.118 128.194 104.818 128.386 104.482 128.518C104.158 128.662 103.78 128.734 103.348 128.734ZM106.102 128.662L105.922 126.808V126.772V121.516L105.976 121.318L105.958 116.854L104.41 116.638V115.954L107.2 115.216L107.524 115.324L107.47 117.808V127.564L108.928 127.798V128.5L106.102 128.662ZM109.99 128.5V127.78L111.97 127.474H112.42L114.274 127.78V128.5H109.99ZM111.34 128.5C111.352 128.2 111.358 127.828 111.358 127.384C111.37 126.928 111.376 126.46 111.376 125.98C111.388 125.5 111.394 125.068 111.394 124.684V123.82C111.394 123.34 111.388 122.926 111.376 122.578C111.376 122.23 111.364 121.87 111.34 121.498L109.9 121.372V120.688L112.654 119.662L112.996 119.806L112.942 122.164V124.684C112.942 125.068 112.942 125.5 112.942 125.98C112.954 126.46 112.96 126.928 112.96 127.384C112.972 127.828 112.984 128.2 112.996 128.5H111.34ZM112.078 117.844C111.742 117.844 111.454 117.736 111.214 117.52C110.986 117.292 110.872 117.01 110.872 116.674C110.872 116.338 110.986 116.062 111.214 115.846C111.454 115.618 111.742 115.504 112.078 115.504C112.426 115.504 112.714 115.618 112.942 115.846C113.182 116.062 113.302 116.338 113.302 116.674C113.302 117.01 113.182 117.292 112.942 117.52C112.714 117.736 112.426 117.844 112.078 117.844ZM115.599 128.5V127.78L117.579 127.474H118.011L119.847 127.78V128.5H115.599ZM116.949 128.5C116.949 128.2 116.949 127.828 116.949 127.384C116.961 126.928 116.967 126.46 116.967 125.98C116.979 125.5 116.985 125.068 116.985 124.684V123.802C116.985 123.478 116.979 123.19 116.967 122.938C116.967 122.686 116.961 122.446 116.949 122.218C116.949 121.99 116.949 121.75 116.949 121.498L115.491 121.372V120.688L117.957 119.662L118.299 119.806L118.533 121.84L118.551 121.858V124.684C118.551 125.068 118.551 125.5 118.551 125.98C118.563 126.46 118.569 126.928 118.569 127.384C118.581 127.828 118.587 128.2 118.587 128.5H116.949ZM121.197 128.5V127.78L123.177 127.474H123.609L125.463 127.78V128.5H121.197ZM122.529 128.5C122.541 128.2 122.547 127.828 122.547 127.384C122.559 126.94 122.565 126.478 122.565 125.998C122.577 125.518 122.583 125.08 122.583 124.684V123.082C122.583 122.278 122.463 121.726 122.223 121.426C121.983 121.114 121.593 120.958 121.053 120.958C120.765 120.958 120.477 121 120.189 121.084C119.901 121.168 119.607 121.3 119.307 121.48C119.007 121.66 118.689 121.894 118.353 122.182L118.155 121.48H118.389C118.677 121.12 119.001 120.802 119.361 120.526C119.721 120.25 120.105 120.034 120.513 119.878C120.921 119.71 121.329 119.626 121.737 119.626C122.541 119.626 123.141 119.89 123.537 120.418C123.933 120.934 124.131 121.762 124.131 122.902V124.684C124.131 125.08 124.131 125.518 124.131 125.998C124.143 126.478 124.149 126.94 124.149 127.384C124.149 127.828 124.155 128.2 124.167 128.5H122.529ZM130.272 132.802C129.444 132.802 128.76 132.706 128.22 132.514C127.68 132.322 127.278 132.058 127.014 131.722C126.75 131.386 126.618 131.008 126.618 130.588C126.618 130.276 126.696 129.988 126.852 129.724C127.008 129.472 127.26 129.226 127.608 128.986C127.968 128.758 128.448 128.536 129.048 128.32L129.156 128.428C128.928 128.632 128.736 128.836 128.58 129.04C128.424 129.244 128.31 129.442 128.238 129.634C128.178 129.838 128.148 130.06 128.148 130.3C128.148 130.66 128.238 130.96 128.418 131.2C128.61 131.452 128.88 131.632 129.228 131.74C129.588 131.86 130.02 131.92 130.524 131.92C131.184 131.92 131.736 131.836 132.18 131.668C132.636 131.5 132.978 131.278 133.206 131.002C133.446 130.726 133.566 130.42 133.566 130.084C133.566 129.688 133.422 129.358 133.134 129.094C132.858 128.842 132.402 128.716 131.766 128.716H129.588C129.432 128.716 129.264 128.71 129.084 128.698C128.916 128.686 128.754 128.668 128.598 128.644V128.518C128.142 128.422 127.788 128.26 127.536 128.032C127.296 127.804 127.176 127.492 127.176 127.096C127.176 126.784 127.29 126.466 127.518 126.142C127.746 125.818 128.118 125.458 128.634 125.062V124.792L129.354 125.026C129.066 125.302 128.856 125.548 128.724 125.764C128.592 125.968 128.526 126.178 128.526 126.394C128.526 126.718 128.628 126.958 128.832 127.114C129.048 127.27 129.378 127.348 129.822 127.348H132.036C132.696 127.348 133.242 127.444 133.674 127.636C134.106 127.816 134.424 128.08 134.628 128.428C134.844 128.764 134.952 129.172 134.952 129.652C134.952 130.06 134.85 130.45 134.646 130.822C134.442 131.194 134.142 131.53 133.746 131.83C133.35 132.13 132.858 132.364 132.27 132.532C131.682 132.712 131.016 132.802 130.272 132.802ZM130.362 125.566C129.714 125.566 129.138 125.452 128.634 125.224C128.142 124.996 127.752 124.666 127.464 124.234C127.176 123.79 127.032 123.244 127.032 122.596C127.032 121.972 127.176 121.438 127.464 120.994C127.752 120.55 128.148 120.214 128.652 119.986C129.156 119.746 129.726 119.626 130.362 119.626C130.758 119.626 131.118 119.668 131.442 119.752C131.766 119.836 132.054 119.956 132.306 120.112C132.57 120.256 132.792 120.442 132.972 120.67L133.044 120.688C133.248 120.928 133.404 121.204 133.512 121.516C133.62 121.828 133.674 122.188 133.674 122.596C133.674 123.208 133.53 123.742 133.242 124.198C132.966 124.642 132.576 124.984 132.072 125.224C131.568 125.452 130.998 125.566 130.362 125.566ZM130.326 124.81C130.71 124.81 131.04 124.714 131.316 124.522C131.592 124.318 131.802 124.048 131.946 123.712C132.102 123.376 132.18 122.986 132.18 122.542C132.18 122.11 132.108 121.738 131.964 121.426C131.82 121.102 131.61 120.85 131.334 120.67C131.07 120.49 130.752 120.4 130.38 120.4C130.008 120.4 129.684 120.496 129.408 120.688C129.132 120.868 128.916 121.126 128.76 121.462C128.616 121.786 128.544 122.17 128.544 122.614C128.544 123.046 128.616 123.43 128.76 123.766C128.904 124.09 129.108 124.348 129.372 124.54C129.636 124.72 129.954 124.81 130.326 124.81ZM132.36 121.03V120.526H132.576L134.718 119.59L135.096 119.752V121.03H132.36ZM144.072 128.77C143.364 128.77 142.692 128.674 142.056 128.482C141.42 128.29 140.898 128.068 140.49 127.816L140.58 125.26H141.696L142.182 128.014L141.012 127.582V126.682C141.372 126.934 141.702 127.15 142.002 127.33C142.302 127.498 142.608 127.624 142.92 127.708C143.244 127.792 143.616 127.834 144.036 127.834C144.612 127.834 145.11 127.75 145.53 127.582C145.95 127.402 146.268 127.15 146.484 126.826C146.712 126.502 146.826 126.118 146.826 125.674C146.826 125.29 146.748 124.966 146.592 124.702C146.436 124.438 146.196 124.204 145.872 124C145.548 123.796 145.128 123.598 144.612 123.406L143.91 123.136C143.286 122.884 142.734 122.596 142.254 122.272C141.774 121.948 141.396 121.558 141.12 121.102C140.856 120.646 140.724 120.106 140.724 119.482C140.724 118.786 140.898 118.192 141.246 117.7C141.606 117.208 142.092 116.83 142.704 116.566C143.328 116.302 144.03 116.17 144.81 116.17C145.446 116.17 146.016 116.26 146.52 116.44C147.036 116.608 147.474 116.824 147.834 117.088L147.744 119.5H146.646L146.124 116.8L147.294 117.286V118.222C146.862 117.826 146.448 117.544 146.052 117.376C145.668 117.196 145.224 117.106 144.72 117.106C144.252 117.106 143.832 117.184 143.46 117.34C143.1 117.496 142.812 117.724 142.596 118.024C142.392 118.324 142.29 118.684 142.29 119.104C142.29 119.476 142.368 119.8 142.524 120.076C142.692 120.352 142.926 120.598 143.226 120.814C143.538 121.018 143.916 121.21 144.36 121.39L145.062 121.642C145.842 121.942 146.478 122.266 146.97 122.614C147.462 122.95 147.822 123.34 148.05 123.784C148.29 124.216 148.41 124.732 148.41 125.332C148.41 126.04 148.224 126.652 147.852 127.168C147.492 127.684 146.988 128.08 146.34 128.356C145.692 128.632 144.936 128.77 144.072 128.77ZM151.536 120.832V119.842H154.794V120.832H151.536ZM152.868 128.716C152.22 128.716 151.704 128.542 151.32 128.194C150.936 127.846 150.744 127.312 150.744 126.592C150.744 126.364 150.744 126.142 150.744 125.926C150.756 125.71 150.762 125.44 150.762 125.116V120.832H149.232V120.022L151.5 119.752L150.78 120.328L151.356 117.394H152.454L152.292 120.292L152.328 120.598V126.394C152.328 126.862 152.418 127.204 152.598 127.42C152.79 127.624 153.042 127.726 153.354 127.726C153.57 127.726 153.768 127.684 153.948 127.6C154.14 127.516 154.344 127.408 154.56 127.276L154.974 127.816C154.83 127.996 154.65 128.158 154.434 128.302C154.23 128.434 153.996 128.536 153.732 128.608C153.468 128.68 153.18 128.716 152.868 128.716ZM160.085 128.734C159.365 128.734 158.681 128.566 158.033 128.23C157.397 127.894 156.881 127.39 156.485 126.718C156.089 126.034 155.891 125.2 155.891 124.216C155.891 123.22 156.089 122.38 156.485 121.696C156.881 121.012 157.397 120.496 158.033 120.148C158.681 119.8 159.365 119.626 160.085 119.626C160.805 119.626 161.483 119.8 162.119 120.148C162.767 120.484 163.289 120.994 163.685 121.678C164.093 122.362 164.297 123.202 164.297 124.198C164.297 125.182 164.093 126.016 163.685 126.7C163.289 127.372 162.767 127.882 162.119 128.23C161.483 128.566 160.805 128.734 160.085 128.734ZM160.085 127.87C160.613 127.87 161.057 127.732 161.417 127.456C161.789 127.18 162.071 126.772 162.263 126.232C162.467 125.692 162.569 125.02 162.569 124.216C162.569 123.4 162.467 122.716 162.263 122.164C162.071 121.612 161.789 121.198 161.417 120.922C161.057 120.634 160.613 120.49 160.085 120.49C159.557 120.49 159.107 120.634 158.735 120.922C158.375 121.198 158.099 121.612 157.907 122.164C157.715 122.704 157.619 123.382 157.619 124.198C157.619 125.014 157.715 125.692 157.907 126.232C158.099 126.772 158.375 127.18 158.735 127.456C159.107 127.732 159.557 127.87 160.085 127.87ZM165.891 128.5V127.78L167.871 127.474H168.339L170.409 127.78V128.5H165.891ZM167.205 128.5C167.217 128.2 167.223 127.828 167.223 127.384C167.235 126.928 167.241 126.46 167.241 125.98C167.253 125.5 167.259 125.068 167.259 124.684V123.802C167.259 123.478 167.253 123.19 167.241 122.938C167.241 122.686 167.235 122.446 167.223 122.218C167.223 121.99 167.217 121.75 167.205 121.498L165.765 121.372V120.688L168.231 119.662L168.573 119.806L168.789 122.128L168.825 122.146V124.684C168.825 125.068 168.825 125.5 168.825 125.98C168.825 126.46 168.825 126.928 168.825 127.384C168.837 127.828 168.849 128.2 168.861 128.5H167.205ZM168.735 123.478L168.519 122.218H168.771C168.975 121.678 169.215 121.216 169.491 120.832C169.767 120.448 170.073 120.154 170.409 119.95C170.745 119.734 171.087 119.626 171.435 119.626C171.747 119.626 172.017 119.698 172.245 119.842C172.485 119.974 172.659 120.142 172.767 120.346C172.755 120.754 172.659 121.078 172.479 121.318C172.311 121.558 172.041 121.678 171.669 121.678C171.441 121.678 171.237 121.636 171.057 121.552C170.877 121.468 170.703 121.354 170.535 121.21L170.085 120.778L170.985 120.652C170.409 120.94 169.941 121.324 169.581 121.804C169.233 122.272 168.951 122.83 168.735 123.478ZM174.879 132.964C174.555 132.964 174.261 132.91 173.997 132.802C173.745 132.706 173.541 132.562 173.385 132.37C173.241 132.19 173.163 131.992 173.151 131.776C173.211 131.524 173.355 131.326 173.583 131.182C173.811 131.05 174.069 130.984 174.357 130.984C174.621 130.984 174.855 131.038 175.059 131.146C175.263 131.254 175.485 131.428 175.725 131.668L176.265 132.226L175.617 132.55L175.329 132.208C175.701 132.004 176.025 131.746 176.301 131.434C176.589 131.122 176.841 130.768 177.057 130.372C177.273 129.976 177.459 129.568 177.615 129.148L177.903 128.356L178.047 128.248L179.595 123.712L180.981 119.842H182.043L178.731 128.5C178.335 129.532 177.945 130.378 177.561 131.038C177.177 131.698 176.769 132.184 176.337 132.496C175.905 132.808 175.419 132.964 174.879 132.964ZM177.813 129.544L173.961 119.842H175.743L178.479 127.312L178.695 127.618L177.813 129.544ZM173.259 120.562V119.842H177.687V120.58L175.545 120.814H175.041L173.259 120.562ZM179.091 120.562V119.842H182.727V120.562L181.377 120.814H180.963L179.091 120.562ZM185.497 120.832V119.842H188.755V120.832H185.497ZM186.829 128.716C186.181 128.716 185.665 128.542 185.281 128.194C184.897 127.846 184.705 127.312 184.705 126.592C184.705 126.364 184.705 126.142 184.705 125.926C184.717 125.71 184.723 125.44 184.723 125.116V120.832H183.193V120.022L185.461 119.752L184.741 120.328L185.317 117.394H186.415L186.253 120.292L186.289 120.598V126.394C186.289 126.862 186.379 127.204 186.559 127.42C186.751 127.624 187.003 127.726 187.315 127.726C187.531 127.726 187.729 127.684 187.909 127.6C188.101 127.516 188.305 127.408 188.521 127.276L188.935 127.816C188.791 127.996 188.611 128.158 188.395 128.302C188.191 128.434 187.957 128.536 187.693 128.608C187.429 128.68 187.141 128.716 186.829 128.716ZM194.063 128.734C193.199 128.734 192.449 128.56 191.813 128.212C191.189 127.852 190.703 127.342 190.355 126.682C190.019 126.01 189.851 125.212 189.851 124.288C189.851 123.352 190.031 122.536 190.391 121.84C190.763 121.144 191.261 120.604 191.885 120.22C192.521 119.824 193.223 119.626 193.991 119.626C194.663 119.626 195.257 119.764 195.773 120.04C196.289 120.316 196.697 120.712 196.997 121.228C197.297 121.744 197.447 122.368 197.447 123.1C197.447 123.316 197.435 123.52 197.411 123.712C197.387 123.892 197.357 124.048 197.321 124.18H190.625V123.388H194.945C195.365 123.364 195.635 123.268 195.755 123.1C195.875 122.92 195.935 122.71 195.935 122.47C195.935 122.038 195.857 121.678 195.701 121.39C195.545 121.09 195.323 120.868 195.035 120.724C194.747 120.568 194.399 120.49 193.991 120.49C193.571 120.49 193.163 120.61 192.767 120.85C192.383 121.09 192.071 121.474 191.831 122.002C191.591 122.518 191.471 123.208 191.471 124.072C191.471 124.816 191.591 125.446 191.831 125.962C192.071 126.478 192.413 126.874 192.857 127.15C193.313 127.414 193.847 127.546 194.459 127.546C195.047 127.546 195.551 127.444 195.971 127.24C196.403 127.036 196.799 126.736 197.159 126.34L197.591 126.7C197.339 127.096 197.057 127.45 196.745 127.762C196.433 128.074 196.061 128.314 195.629 128.482C195.209 128.65 194.687 128.734 194.063 128.734ZM198.686 128.5V127.78L200.72 127.474H201.152L203.204 127.78V128.5H198.686ZM200.126 128.5C200.138 128.08 200.144 127.66 200.144 127.24C200.144 126.808 200.144 126.382 200.144 125.962C200.156 125.53 200.162 125.104 200.162 124.684V116.854L198.668 116.638V115.954L201.44 115.216L201.782 115.324L201.71 117.808V124.684C201.71 125.104 201.71 125.53 201.71 125.962C201.722 126.382 201.728 126.808 201.728 127.24C201.74 127.66 201.752 128.08 201.764 128.5H200.126ZM204.223 128.5V127.78L206.257 127.474H206.689L208.741 127.78V128.5H204.223ZM205.663 128.5C205.675 128.08 205.681 127.66 205.681 127.24C205.681 126.808 205.681 126.382 205.681 125.962C205.693 125.53 205.699 125.104 205.699 124.684V116.854L204.205 116.638V115.954L206.977 115.216L207.319 115.324L207.247 117.808V124.684C207.247 125.104 207.247 125.53 207.247 125.962C207.259 126.382 207.265 126.808 207.265 127.24C207.277 127.66 207.289 128.08 207.301 128.5H205.663ZM214.278 128.734C213.414 128.734 212.664 128.56 212.028 128.212C211.404 127.852 210.918 127.342 210.57 126.682C210.234 126.01 210.066 125.212 210.066 124.288C210.066 123.352 210.246 122.536 210.606 121.84C210.978 121.144 211.476 120.604 212.1 120.22C212.736 119.824 213.438 119.626 214.206 119.626C214.878 119.626 215.472 119.764 215.988 120.04C216.504 120.316 216.912 120.712 217.212 121.228C217.512 121.744 217.662 122.368 217.662 123.1C217.662 123.316 217.65 123.52 217.626 123.712C217.602 123.892 217.572 124.048 217.536 124.18H210.84V123.388H215.16C215.58 123.364 215.85 123.268 215.97 123.1C216.09 122.92 216.15 122.71 216.15 122.47C216.15 122.038 216.072 121.678 215.916 121.39C215.76 121.09 215.538 120.868 215.25 120.724C214.962 120.568 214.614 120.49 214.206 120.49C213.786 120.49 213.378 120.61 212.982 120.85C212.598 121.09 212.286 121.474 212.046 122.002C211.806 122.518 211.686 123.208 211.686 124.072C211.686 124.816 211.806 125.446 212.046 125.962C212.286 126.478 212.628 126.874 213.072 127.15C213.528 127.414 214.062 127.546 214.674 127.546C215.262 127.546 215.766 127.444 216.186 127.24C216.618 127.036 217.014 126.736 217.374 126.34L217.806 126.7C217.554 127.096 217.272 127.45 216.96 127.762C216.648 128.074 216.276 128.314 215.844 128.482C215.424 128.65 214.902 128.734 214.278 128.734ZM219.329 128.5V127.78L221.309 127.474H221.777L223.847 127.78V128.5H219.329ZM220.643 128.5C220.655 128.2 220.661 127.828 220.661 127.384C220.673 126.928 220.679 126.46 220.679 125.98C220.691 125.5 220.697 125.068 220.697 124.684V123.802C220.697 123.478 220.691 123.19 220.679 122.938C220.679 122.686 220.673 122.446 220.661 122.218C220.661 121.99 220.655 121.75 220.643 121.498L219.203 121.372V120.688L221.669 119.662L222.011 119.806L222.227 122.128L222.263 122.146V124.684C222.263 125.068 222.263 125.5 222.263 125.98C222.263 126.46 222.263 126.928 222.263 127.384C222.275 127.828 222.287 128.2 222.299 128.5H220.643ZM222.173 123.478L221.957 122.218H222.209C222.413 121.678 222.653 121.216 222.929 120.832C223.205 120.448 223.511 120.154 223.847 119.95C224.183 119.734 224.525 119.626 224.873 119.626C225.185 119.626 225.455 119.698 225.683 119.842C225.923 119.974 226.097 120.142 226.205 120.346C226.193 120.754 226.097 121.078 225.917 121.318C225.749 121.558 225.479 121.678 225.107 121.678C224.879 121.678 224.675 121.636 224.495 121.552C224.315 121.468 224.141 121.354 223.973 121.21L223.523 120.778L224.423 120.652C223.847 120.94 223.379 121.324 223.019 121.804C222.671 122.272 222.389 122.83 222.173 123.478ZM228.919 128.734C228.559 128.734 228.253 128.608 228.001 128.356C227.761 128.104 227.641 127.804 227.641 127.456C227.641 127.096 227.761 126.79 228.001 126.538C228.253 126.286 228.559 126.16 228.919 126.16C229.279 126.16 229.585 126.286 229.837 126.538C230.089 126.79 230.215 127.096 230.215 127.456C230.215 127.804 230.089 128.104 229.837 128.356C229.585 128.608 229.279 128.734 228.919 128.734ZM228.919 122.578C228.559 122.578 228.253 122.452 228.001 122.2C227.761 121.948 227.641 121.648 227.641 121.3C227.641 120.94 227.761 120.634 228.001 120.382C228.253 120.13 228.559 120.004 228.919 120.004C229.279 120.004 229.585 120.13 229.837 120.382C230.089 120.634 230.215 120.94 230.215 121.3C230.215 121.648 230.089 121.948 229.837 122.2C229.585 122.452 229.279 122.578 228.919 122.578ZM236.608 128.5V127.69L238.93 127.474H239.128V128.5H236.608ZM238.282 128.5C238.306 127.888 238.318 127.276 238.318 126.664C238.33 126.04 238.336 125.416 238.336 124.792C238.336 124.168 238.336 123.544 238.336 122.92V122.038C238.336 121.414 238.336 120.79 238.336 120.166C238.336 119.542 238.33 118.918 238.318 118.294C238.318 117.67 238.306 117.052 238.282 116.44H240.118C240.118 117.04 240.112 117.652 240.1 118.276C240.088 118.9 240.082 119.524 240.082 120.148C240.082 120.772 240.082 121.402 240.082 122.038V122.686C240.082 123.382 240.082 124.06 240.082 124.72C240.082 125.368 240.088 126.004 240.1 126.628C240.112 127.252 240.118 127.876 240.118 128.5H238.282ZM239.272 128.5V127.6H241.27C242.434 127.6 243.298 127.396 243.862 126.988C244.426 126.568 244.708 125.968 244.708 125.188C244.708 124.36 244.426 123.742 243.862 123.334C243.31 122.914 242.416 122.704 241.18 122.704H239.2V121.822H241.108C241.828 121.822 242.41 121.744 242.854 121.588C243.31 121.42 243.646 121.168 243.862 120.832C244.078 120.484 244.186 120.046 244.186 119.518C244.186 118.978 244.084 118.552 243.88 118.24C243.676 117.916 243.364 117.682 242.944 117.538C242.524 117.394 242.008 117.322 241.396 117.322H239.272V116.44H241.9C242.74 116.44 243.46 116.566 244.06 116.818C244.66 117.058 245.116 117.4 245.428 117.844C245.752 118.276 245.914 118.786 245.914 119.374C245.914 119.878 245.788 120.334 245.536 120.742C245.284 121.15 244.9 121.486 244.384 121.75C243.88 122.014 243.226 122.188 242.422 122.272V122.2C243.37 122.26 244.144 122.422 244.744 122.686C245.344 122.95 245.794 123.292 246.094 123.712C246.394 124.132 246.544 124.618 246.544 125.17C246.544 125.614 246.448 126.034 246.256 126.43C246.064 126.826 245.77 127.18 245.374 127.492C244.99 127.804 244.486 128.05 243.862 128.23C243.25 128.41 242.518 128.5 241.666 128.5H239.272ZM236.608 117.25V116.44H239.128V117.466H238.93L236.608 117.25ZM248.087 128.5V127.78L250.067 127.474H250.535L252.604 127.78V128.5H248.087ZM249.401 128.5C249.413 128.2 249.419 127.828 249.419 127.384C249.431 126.928 249.437 126.46 249.437 125.98C249.449 125.5 249.455 125.068 249.455 124.684V123.802C249.455 123.478 249.449 123.19 249.437 122.938C249.437 122.686 249.431 122.446 249.419 122.218C249.419 121.99 249.413 121.75 249.401 121.498L247.961 121.372V120.688L250.427 119.662L250.769 119.806L250.985 122.128L251.021 122.146V124.684C251.021 125.068 251.021 125.5 251.021 125.98C251.021 126.46 251.021 126.928 251.021 127.384C251.033 127.828 251.045 128.2 251.057 128.5H249.401ZM250.931 123.478L250.715 122.218H250.967C251.171 121.678 251.411 121.216 251.687 120.832C251.963 120.448 252.269 120.154 252.604 119.95C252.941 119.734 253.283 119.626 253.631 119.626C253.943 119.626 254.213 119.698 254.441 119.842C254.681 119.974 254.855 120.142 254.963 120.346C254.951 120.754 254.855 121.078 254.675 121.318C254.507 121.558 254.237 121.678 253.865 121.678C253.637 121.678 253.433 121.636 253.253 121.552C253.073 121.468 252.899 121.354 252.731 121.21L252.281 120.778L253.181 120.652C252.605 120.94 252.137 121.324 251.777 121.804C251.429 122.272 251.147 122.83 250.931 123.478ZM259.963 128.734C259.243 128.734 258.559 128.566 257.911 128.23C257.275 127.894 256.759 127.39 256.363 126.718C255.967 126.034 255.769 125.2 255.769 124.216C255.769 123.22 255.967 122.38 256.363 121.696C256.759 121.012 257.275 120.496 257.911 120.148C258.559 119.8 259.243 119.626 259.963 119.626C260.683 119.626 261.361 119.8 261.997 120.148C262.645 120.484 263.167 120.994 263.563 121.678C263.971 122.362 264.175 123.202 264.175 124.198C264.175 125.182 263.971 126.016 263.563 126.7C263.167 127.372 262.645 127.882 261.997 128.23C261.361 128.566 260.683 128.734 259.963 128.734ZM259.963 127.87C260.491 127.87 260.935 127.732 261.295 127.456C261.667 127.18 261.949 126.772 262.141 126.232C262.345 125.692 262.447 125.02 262.447 124.216C262.447 123.4 262.345 122.716 262.141 122.164C261.949 121.612 261.667 121.198 261.295 120.922C260.935 120.634 260.491 120.49 259.963 120.49C259.435 120.49 258.985 120.634 258.613 120.922C258.253 121.198 257.977 121.612 257.785 122.164C257.593 122.704 257.497 123.382 257.497 124.198C257.497 125.014 257.593 125.692 257.785 126.232C257.977 126.772 258.253 127.18 258.613 127.456C258.985 127.732 259.435 127.87 259.963 127.87ZM270.018 128.734C269.298 128.734 268.614 128.566 267.966 128.23C267.33 127.894 266.814 127.39 266.418 126.718C266.022 126.034 265.824 125.2 265.824 124.216C265.824 123.22 266.022 122.38 266.418 121.696C266.814 121.012 267.33 120.496 267.966 120.148C268.614 119.8 269.298 119.626 270.018 119.626C270.738 119.626 271.416 119.8 272.052 120.148C272.7 120.484 273.222 120.994 273.618 121.678C274.026 122.362 274.23 123.202 274.23 124.198C274.23 125.182 274.026 126.016 273.618 126.7C273.222 127.372 272.7 127.882 272.052 128.23C271.416 128.566 270.738 128.734 270.018 128.734ZM270.018 127.87C270.546 127.87 270.99 127.732 271.35 127.456C271.722 127.18 272.004 126.772 272.196 126.232C272.4 125.692 272.502 125.02 272.502 124.216C272.502 123.4 272.4 122.716 272.196 122.164C272.004 121.612 271.722 121.198 271.35 120.922C270.99 120.634 270.546 120.49 270.018 120.49C269.49 120.49 269.04 120.634 268.668 120.922C268.308 121.198 268.032 121.612 267.84 122.164C267.648 122.704 267.552 123.382 267.552 124.198C267.552 125.014 267.648 125.692 267.84 126.232C268.032 126.772 268.308 127.18 268.668 127.456C269.04 127.732 269.49 127.87 270.018 127.87ZM279.569 128.734C278.837 128.734 278.189 128.548 277.625 128.176C277.073 127.804 276.641 127.282 276.329 126.61C276.029 125.938 275.879 125.152 275.879 124.252C275.879 123.304 276.047 122.488 276.383 121.804C276.719 121.108 277.175 120.574 277.751 120.202C278.327 119.818 278.975 119.626 279.695 119.626C280.043 119.626 280.367 119.68 280.667 119.788C280.967 119.884 281.249 120.046 281.513 120.274C281.789 120.49 282.053 120.778 282.305 121.138H282.701L282.557 122.128C282.041 121.588 281.585 121.21 281.189 120.994C280.805 120.778 280.415 120.67 280.019 120.67C279.575 120.67 279.161 120.796 278.777 121.048C278.405 121.288 278.105 121.672 277.877 122.2C277.649 122.716 277.535 123.382 277.535 124.198C277.535 124.99 277.643 125.644 277.859 126.16C278.075 126.664 278.369 127.042 278.741 127.294C279.125 127.534 279.557 127.654 280.037 127.654C280.529 127.654 280.961 127.534 281.333 127.294C281.705 127.042 282.101 126.64 282.521 126.088L282.647 127.06H282.305C282.101 127.396 281.867 127.69 281.603 127.942C281.339 128.194 281.039 128.386 280.703 128.518C280.379 128.662 280.001 128.734 279.569 128.734ZM282.323 128.662L282.143 126.808V126.772V121.516L282.197 121.318L282.179 116.854L280.631 116.638V115.954L283.421 115.216L283.745 115.324L283.691 117.808V127.564L285.149 127.798V128.5L282.323 128.662ZM287.027 132.964C286.703 132.964 286.409 132.91 286.145 132.802C285.893 132.706 285.689 132.562 285.533 132.37C285.389 132.19 285.311 131.992 285.299 131.776C285.359 131.524 285.503 131.326 285.731 131.182C285.959 131.05 286.217 130.984 286.505 130.984C286.769 130.984 287.003 131.038 287.207 131.146C287.411 131.254 287.633 131.428 287.873 131.668L288.413 132.226L287.765 132.55L287.477 132.208C287.849 132.004 288.173 131.746 288.449 131.434C288.737 131.122 288.989 130.768 289.205 130.372C289.421 129.976 289.607 129.568 289.763 129.148L290.051 128.356L290.195 128.248L291.743 123.712L293.129 119.842H294.191L290.879 128.5C290.483 129.532 290.093 130.378 289.709 131.038C289.325 131.698 288.917 132.184 288.485 132.496C288.053 132.808 287.567 132.964 287.027 132.964ZM289.961 129.544L286.109 119.842H287.891L290.627 127.312L290.843 127.618L289.961 129.544ZM285.407 120.562V119.842H289.835V120.58L287.693 120.814H287.189L285.407 120.562ZM291.239 120.562V119.842H294.875V120.562L293.525 120.814H293.111L291.239 120.562ZM294.341 131.722L294.071 131.056C294.527 130.84 294.899 130.612 295.187 130.372C295.487 130.144 295.721 129.88 295.889 129.58C296.057 129.28 296.183 128.926 296.267 128.518L296.465 129.094L295.601 128.59C295.313 128.458 295.097 128.302 294.953 128.122C294.821 127.93 294.755 127.708 294.755 127.456C294.755 127.108 294.857 126.82 295.061 126.592C295.265 126.352 295.565 126.232 295.961 126.232C296.165 126.232 296.357 126.268 296.537 126.34C296.717 126.412 296.891 126.538 297.059 126.718C297.119 126.91 297.155 127.12 297.167 127.348C297.191 127.564 297.203 127.78 297.203 127.996C297.203 128.584 297.077 129.118 296.825 129.598C296.573 130.09 296.231 130.516 295.799 130.876C295.367 131.236 294.881 131.518 294.341 131.722ZM307.43 128.734C306.698 128.734 306.05 128.548 305.486 128.176C304.934 127.804 304.502 127.282 304.19 126.61C303.89 125.938 303.74 125.152 303.74 124.252C303.74 123.304 303.908 122.488 304.244 121.804C304.58 121.108 305.036 120.574 305.612 120.202C306.188 119.818 306.836 119.626 307.556 119.626C307.904 119.626 308.228 119.68 308.528 119.788C308.828 119.884 309.11 120.046 309.374 120.274C309.65 120.49 309.914 120.778 310.166 121.138H310.562L310.418 122.128C309.902 121.588 309.446 121.21 309.05 120.994C308.666 120.778 308.276 120.67 307.88 120.67C307.436 120.67 307.022 120.796 306.638 121.048C306.266 121.288 305.966 121.672 305.738 122.2C305.51 122.716 305.396 123.382 305.396 124.198C305.396 124.99 305.504 125.644 305.72 126.16C305.936 126.664 306.23 127.042 306.602 127.294C306.986 127.534 307.418 127.654 307.898 127.654C308.39 127.654 308.822 127.534 309.194 127.294C309.566 127.042 309.962 126.64 310.382 126.088L310.508 127.06H310.166C309.962 127.396 309.728 127.69 309.464 127.942C309.2 128.194 308.9 128.386 308.564 128.518C308.24 128.662 307.862 128.734 307.43 128.734ZM310.184 128.662L310.004 126.808V126.772V121.516L310.058 121.318L310.04 116.854L308.492 116.638V115.954L311.282 115.216L311.606 115.324L311.552 117.808V127.564L313.01 127.798V128.5L310.184 128.662ZM314.18 128.5V127.78L316.16 127.474H316.628L318.698 127.78V128.5H314.18ZM315.494 128.5C315.506 128.2 315.512 127.828 315.512 127.384C315.524 126.928 315.53 126.46 315.53 125.98C315.542 125.5 315.548 125.068 315.548 124.684V123.802C315.548 123.478 315.542 123.19 315.53 122.938C315.53 122.686 315.524 122.446 315.512 122.218C315.512 121.99 315.506 121.75 315.494 121.498L314.054 121.372V120.688L316.52 119.662L316.862 119.806L317.078 122.128L317.114 122.146V124.684C317.114 125.068 317.114 125.5 317.114 125.98C317.114 126.46 317.114 126.928 317.114 127.384C317.126 127.828 317.138 128.2 317.15 128.5H315.494ZM317.024 123.478L316.808 122.218H317.06C317.264 121.678 317.504 121.216 317.78 120.832C318.056 120.448 318.362 120.154 318.698 119.95C319.034 119.734 319.376 119.626 319.724 119.626C320.036 119.626 320.306 119.698 320.534 119.842C320.774 119.974 320.948 120.142 321.056 120.346C321.044 120.754 320.948 121.078 320.768 121.318C320.6 121.558 320.33 121.678 319.958 121.678C319.73 121.678 319.526 121.636 319.346 121.552C319.166 121.468 318.992 121.354 318.824 121.21L318.374 120.778L319.274 120.652C318.698 120.94 318.23 121.324 317.87 121.804C317.522 122.272 317.24 122.83 317.024 123.478ZM324.276 128.752C323.604 128.752 323.028 128.56 322.548 128.176C322.08 127.78 321.846 127.21 321.846 126.466C321.846 126.082 321.924 125.734 322.08 125.422C322.248 125.098 322.542 124.798 322.962 124.522C323.394 124.246 324.006 123.994 324.798 123.766C325.134 123.658 325.458 123.562 325.77 123.478C326.094 123.382 326.412 123.292 326.724 123.208C327.048 123.112 327.372 123.022 327.696 122.938V123.604C327.276 123.736 326.862 123.868 326.454 124C326.046 124.132 325.638 124.264 325.23 124.396C324.714 124.564 324.33 124.75 324.078 124.954C323.826 125.146 323.658 125.35 323.574 125.566C323.502 125.77 323.466 125.98 323.466 126.196C323.466 126.652 323.604 126.988 323.88 127.204C324.156 127.42 324.504 127.528 324.924 127.528C325.164 127.528 325.386 127.492 325.59 127.42C325.794 127.336 326.034 127.198 326.31 127.006C326.598 126.802 326.964 126.526 327.408 126.178L327.624 127.114H327.048C326.724 127.462 326.424 127.756 326.148 127.996C325.884 128.236 325.602 128.422 325.302 128.554C325.014 128.686 324.672 128.752 324.276 128.752ZM328.668 128.68C328.164 128.68 327.756 128.518 327.444 128.194C327.144 127.858 326.988 127.396 326.976 126.808V126.736V122.668C326.976 122.092 326.916 121.648 326.796 121.336C326.676 121.012 326.484 120.79 326.22 120.67C325.956 120.538 325.62 120.472 325.212 120.472C324.972 120.472 324.714 120.496 324.438 120.544C324.174 120.592 323.88 120.682 323.556 120.814L324.294 120.184L323.898 121.75C323.826 122.05 323.712 122.278 323.556 122.434C323.4 122.59 323.196 122.668 322.944 122.668C322.68 122.668 322.476 122.602 322.332 122.47C322.188 122.326 322.098 122.146 322.062 121.93C322.23 121.222 322.632 120.664 323.268 120.256C323.916 119.836 324.708 119.626 325.644 119.626C326.28 119.626 326.808 119.728 327.228 119.932C327.648 120.136 327.966 120.466 328.182 120.922C328.41 121.378 328.524 121.984 328.524 122.74V126.628C328.524 127.012 328.584 127.288 328.704 127.456C328.824 127.612 328.992 127.69 329.208 127.69C329.364 127.69 329.496 127.66 329.604 127.6C329.712 127.528 329.814 127.438 329.91 127.33L330.252 127.816C330.048 128.116 329.814 128.338 329.55 128.482C329.298 128.614 329.004 128.68 328.668 128.68ZM331.037 128.5V127.78L333.017 127.474H333.449L335.285 127.78V128.5H331.037ZM332.387 128.5C332.387 128.2 332.387 127.828 332.387 127.384C332.399 126.928 332.405 126.46 332.405 125.98C332.417 125.5 332.423 125.068 332.423 124.684V123.802C332.423 123.478 332.417 123.19 332.405 122.938C332.405 122.686 332.399 122.446 332.387 122.218C332.387 121.99 332.387 121.75 332.387 121.498L330.929 121.372V120.688L333.395 119.662L333.737 119.806L333.971 121.84L333.989 121.876V124.684C333.989 125.068 333.989 125.5 333.989 125.98C334.001 126.46 334.007 126.928 334.007 127.384C334.019 127.828 334.025 128.2 334.025 128.5H332.387ZM336.545 128.5V127.78L338.525 127.474H338.957L340.811 127.78V128.5H336.545ZM337.895 128.5C337.895 128.2 337.895 127.828 337.895 127.384C337.907 126.94 337.913 126.478 337.913 125.998C337.925 125.518 337.931 125.08 337.931 124.684V123.082C337.931 122.29 337.817 121.738 337.589 121.426C337.361 121.114 336.977 120.958 336.437 120.958C336.149 120.958 335.861 121 335.573 121.084C335.297 121.168 335.009 121.306 334.709 121.498C334.421 121.678 334.115 121.906 333.791 122.182L333.557 121.534H333.809C334.073 121.174 334.379 120.85 334.727 120.562C335.087 120.274 335.465 120.046 335.861 119.878C336.269 119.71 336.683 119.626 337.103 119.626C337.907 119.626 338.501 119.89 338.885 120.418C339.281 120.934 339.479 121.762 339.479 122.902V124.684C339.479 125.08 339.479 125.518 339.479 125.998C339.491 126.478 339.497 126.94 339.497 127.384C339.509 127.828 339.521 128.2 339.533 128.5H337.895ZM342.053 128.5V127.78L344.033 127.474H344.465L346.319 127.78V128.5H342.053ZM343.403 128.5C343.403 128.2 343.403 127.828 343.403 127.384C343.415 126.94 343.421 126.478 343.421 125.998C343.433 125.518 343.439 125.08 343.439 124.684V123.064C343.439 122.248 343.319 121.696 343.079 121.408C342.839 121.108 342.449 120.958 341.909 120.958C341.645 120.958 341.375 121 341.099 121.084C340.823 121.156 340.535 121.282 340.235 121.462C339.947 121.642 339.635 121.882 339.299 122.182L338.993 121.57H339.245C339.545 121.15 339.869 120.796 340.217 120.508C340.577 120.208 340.955 119.986 341.351 119.842C341.759 119.698 342.179 119.626 342.611 119.626C343.379 119.626 343.967 119.872 344.375 120.364C344.783 120.856 344.987 121.648 344.987 122.74V124.684C344.987 125.08 344.987 125.518 344.987 125.998C344.999 126.478 345.005 126.94 345.005 127.384C345.017 127.828 345.029 128.2 345.041 128.5H343.403ZM350.098 128.752C349.426 128.752 348.85 128.56 348.37 128.176C347.902 127.78 347.668 127.21 347.668 126.466C347.668 126.082 347.746 125.734 347.902 125.422C348.07 125.098 348.364 124.798 348.784 124.522C349.216 124.246 349.828 123.994 350.62 123.766C350.956 123.658 351.28 123.562 351.592 123.478C351.916 123.382 352.234 123.292 352.546 123.208C352.87 123.112 353.194 123.022 353.518 122.938V123.604C353.098 123.736 352.684 123.868 352.276 124C351.868 124.132 351.46 124.264 351.052 124.396C350.536 124.564 350.152 124.75 349.9 124.954C349.648 125.146 349.48 125.35 349.396 125.566C349.324 125.77 349.288 125.98 349.288 126.196C349.288 126.652 349.426 126.988 349.702 127.204C349.978 127.42 350.326 127.528 350.746 127.528C350.986 127.528 351.208 127.492 351.412 127.42C351.616 127.336 351.856 127.198 352.132 127.006C352.42 126.802 352.786 126.526 353.23 126.178L353.446 127.114H352.87C352.546 127.462 352.246 127.756 351.97 127.996C351.706 128.236 351.424 128.422 351.124 128.554C350.836 128.686 350.494 128.752 350.098 128.752ZM354.49 128.68C353.986 128.68 353.578 128.518 353.266 128.194C352.966 127.858 352.81 127.396 352.798 126.808V126.736V122.668C352.798 122.092 352.738 121.648 352.618 121.336C352.498 121.012 352.306 120.79 352.042 120.67C351.778 120.538 351.442 120.472 351.034 120.472C350.794 120.472 350.536 120.496 350.26 120.544C349.996 120.592 349.702 120.682 349.378 120.814L350.116 120.184L349.72 121.75C349.648 122.05 349.534 122.278 349.378 122.434C349.222 122.59 349.018 122.668 348.766 122.668C348.502 122.668 348.298 122.602 348.154 122.47C348.01 122.326 347.92 122.146 347.884 121.93C348.052 121.222 348.454 120.664 349.09 120.256C349.738 119.836 350.53 119.626 351.466 119.626C352.102 119.626 352.63 119.728 353.05 119.932C353.47 120.136 353.788 120.466 354.004 120.922C354.232 121.378 354.346 121.984 354.346 122.74V126.628C354.346 127.012 354.406 127.288 354.526 127.456C354.646 127.612 354.814 127.69 355.03 127.69C355.186 127.69 355.318 127.66 355.426 127.6C355.534 127.528 355.636 127.438 355.732 127.33L356.074 127.816C355.87 128.116 355.636 128.338 355.372 128.482C355.12 128.614 354.826 128.68 354.49 128.68ZM358.711 120.832V119.842H361.969V120.832H358.711ZM360.043 128.716C359.395 128.716 358.879 128.542 358.495 128.194C358.111 127.846 357.919 127.312 357.919 126.592C357.919 126.364 357.919 126.142 357.919 125.926C357.931 125.71 357.937 125.44 357.937 125.116V120.832H356.407V120.022L358.675 119.752L357.955 120.328L358.531 117.394H359.629L359.467 120.292L359.503 120.598V126.394C359.503 126.862 359.593 127.204 359.773 127.42C359.965 127.624 360.217 127.726 360.529 127.726C360.745 127.726 360.943 127.684 361.123 127.6C361.315 127.516 361.519 127.408 361.735 127.276L362.149 127.816C362.005 127.996 361.825 128.158 361.609 128.302C361.405 128.434 361.171 128.536 360.907 128.608C360.643 128.68 360.355 128.716 360.043 128.716ZM362.904 128.5V127.78L364.884 127.474H365.334L367.188 127.78V128.5H362.904ZM364.254 128.5C364.266 128.2 364.272 127.828 364.272 127.384C364.284 126.928 364.29 126.46 364.29 125.98C364.302 125.5 364.308 125.068 364.308 124.684V123.82C364.308 123.34 364.302 122.926 364.29 122.578C364.29 122.23 364.278 121.87 364.254 121.498L362.814 121.372V120.688L365.568 119.662L365.91 119.806L365.856 122.164V124.684C365.856 125.068 365.856 125.5 365.856 125.98C365.868 126.46 365.874 126.928 365.874 127.384C365.886 127.828 365.898 128.2 365.91 128.5H364.254ZM364.992 117.844C364.656 117.844 364.368 117.736 364.128 117.52C363.9 117.292 363.786 117.01 363.786 116.674C363.786 116.338 363.9 116.062 364.128 115.846C364.368 115.618 364.656 115.504 364.992 115.504C365.34 115.504 365.628 115.618 365.856 115.846C366.096 116.062 366.216 116.338 366.216 116.674C366.216 117.01 366.096 117.292 365.856 117.52C365.628 117.736 365.34 117.844 364.992 117.844ZM372.761 128.734C371.897 128.734 371.153 128.554 370.529 128.194C369.905 127.834 369.425 127.324 369.089 126.664C368.765 125.992 368.603 125.194 368.603 124.27C368.603 123.31 368.795 122.482 369.179 121.786C369.563 121.09 370.079 120.556 370.727 120.184C371.375 119.812 372.071 119.626 372.815 119.626C373.391 119.626 373.913 119.728 374.381 119.932C374.849 120.124 375.233 120.394 375.533 120.742C375.833 121.09 376.025 121.48 376.109 121.912C376.061 122.14 375.965 122.32 375.821 122.452C375.689 122.584 375.503 122.65 375.263 122.65C374.951 122.65 374.717 122.566 374.561 122.398C374.417 122.218 374.309 122.002 374.237 121.75L373.787 120.166L374.705 120.922C374.417 120.766 374.123 120.652 373.823 120.58C373.523 120.508 373.223 120.472 372.923 120.472C372.407 120.472 371.945 120.61 371.537 120.886C371.129 121.162 370.805 121.57 370.565 122.11C370.337 122.65 370.223 123.31 370.223 124.09C370.223 124.882 370.355 125.536 370.619 126.052C370.883 126.556 371.231 126.928 371.663 127.168C372.107 127.408 372.599 127.528 373.139 127.528C373.475 127.528 373.787 127.492 374.075 127.42C374.363 127.336 374.639 127.204 374.903 127.024C375.179 126.844 375.443 126.61 375.695 126.322L376.163 126.718C375.935 127.126 375.665 127.48 375.353 127.78C375.053 128.08 374.693 128.314 374.273 128.482C373.853 128.65 373.349 128.734 372.761 128.734ZM377.82 131.722L377.55 131.056C378.006 130.84 378.378 130.612 378.666 130.372C378.966 130.144 379.2 129.88 379.368 129.58C379.536 129.28 379.662 128.926 379.746 128.518L379.944 129.094L379.08 128.59C378.792 128.458 378.576 128.302 378.432 128.122C378.3 127.93 378.234 127.708 378.234 127.456C378.234 127.108 378.336 126.82 378.54 126.592C378.744 126.352 379.044 126.232 379.44 126.232C379.644 126.232 379.836 126.268 380.016 126.34C380.196 126.412 380.37 126.538 380.538 126.718C380.598 126.91 380.634 127.12 380.646 127.348C380.67 127.564 380.682 127.78 380.682 127.996C380.682 128.584 380.556 129.118 380.304 129.598C380.052 130.09 379.71 130.516 379.278 130.876C378.846 131.236 378.36 131.518 377.82 131.722ZM389.649 128.752C388.977 128.752 388.401 128.56 387.921 128.176C387.453 127.78 387.219 127.21 387.219 126.466C387.219 126.082 387.297 125.734 387.453 125.422C387.621 125.098 387.915 124.798 388.335 124.522C388.767 124.246 389.379 123.994 390.171 123.766C390.507 123.658 390.831 123.562 391.143 123.478C391.467 123.382 391.785 123.292 392.097 123.208C392.421 123.112 392.745 123.022 393.069 122.938V123.604C392.649 123.736 392.235 123.868 391.827 124C391.419 124.132 391.011 124.264 390.603 124.396C390.087 124.564 389.703 124.75 389.451 124.954C389.199 125.146 389.031 125.35 388.947 125.566C388.875 125.77 388.839 125.98 388.839 126.196C388.839 126.652 388.977 126.988 389.253 127.204C389.529 127.42 389.877 127.528 390.297 127.528C390.537 127.528 390.759 127.492 390.963 127.42C391.167 127.336 391.407 127.198 391.683 127.006C391.971 126.802 392.337 126.526 392.781 126.178L392.997 127.114H392.421C392.097 127.462 391.797 127.756 391.521 127.996C391.257 128.236 390.975 128.422 390.675 128.554C390.387 128.686 390.045 128.752 389.649 128.752ZM394.041 128.68C393.537 128.68 393.129 128.518 392.817 128.194C392.517 127.858 392.361 127.396 392.349 126.808V126.736V122.668C392.349 122.092 392.289 121.648 392.169 121.336C392.049 121.012 391.857 120.79 391.593 120.67C391.329 120.538 390.993 120.472 390.585 120.472C390.345 120.472 390.087 120.496 389.811 120.544C389.547 120.592 389.253 120.682 388.929 120.814L389.667 120.184L389.271 121.75C389.199 122.05 389.085 122.278 388.929 122.434C388.773 122.59 388.569 122.668 388.317 122.668C388.053 122.668 387.849 122.602 387.705 122.47C387.561 122.326 387.471 122.146 387.435 121.93C387.603 121.222 388.005 120.664 388.641 120.256C389.289 119.836 390.081 119.626 391.017 119.626C391.653 119.626 392.181 119.728 392.601 119.932C393.021 120.136 393.339 120.466 393.555 120.922C393.783 121.378 393.897 121.984 393.897 122.74V126.628C393.897 127.012 393.957 127.288 394.077 127.456C394.197 127.612 394.365 127.69 394.581 127.69C394.737 127.69 394.869 127.66 394.977 127.6C395.085 127.528 395.187 127.438 395.283 127.33L395.625 127.816C395.421 128.116 395.187 128.338 394.923 128.482C394.671 128.614 394.377 128.68 394.041 128.68ZM396.41 128.5V127.78L398.39 127.474H398.822L400.658 127.78V128.5H396.41ZM397.76 128.5C397.76 128.2 397.76 127.828 397.76 127.384C397.772 126.928 397.778 126.46 397.778 125.98C397.79 125.5 397.796 125.068 397.796 124.684V123.802C397.796 123.478 397.79 123.19 397.778 122.938C397.778 122.686 397.772 122.446 397.76 122.218C397.76 121.99 397.76 121.75 397.76 121.498L396.302 121.372V120.688L398.768 119.662L399.11 119.806L399.344 121.84L399.362 121.858V124.684C399.362 125.068 399.362 125.5 399.362 125.98C399.374 126.46 399.38 126.928 399.38 127.384C399.392 127.828 399.398 128.2 399.398 128.5H397.76ZM402.008 128.5V127.78L403.988 127.474H404.42L406.274 127.78V128.5H402.008ZM403.34 128.5C403.352 128.2 403.358 127.828 403.358 127.384C403.37 126.94 403.376 126.478 403.376 125.998C403.388 125.518 403.394 125.08 403.394 124.684V123.082C403.394 122.278 403.274 121.726 403.034 121.426C402.794 121.114 402.404 120.958 401.864 120.958C401.576 120.958 401.288 121 401 121.084C400.712 121.168 400.418 121.3 400.118 121.48C399.818 121.66 399.5 121.894 399.164 122.182L398.966 121.48H399.2C399.488 121.12 399.812 120.802 400.172 120.526C400.532 120.25 400.916 120.034 401.324 119.878C401.732 119.71 402.14 119.626 402.548 119.626C403.352 119.626 403.952 119.89 404.348 120.418C404.744 120.934 404.942 121.762 404.942 122.902V124.684C404.942 125.08 404.942 125.518 404.942 125.998C404.954 126.478 404.96 126.94 404.96 127.384C404.96 127.828 404.966 128.2 404.978 128.5H403.34ZM411.317 128.734C410.585 128.734 409.937 128.548 409.373 128.176C408.821 127.804 408.389 127.282 408.077 126.61C407.777 125.938 407.627 125.152 407.627 124.252C407.627 123.304 407.795 122.488 408.131 121.804C408.467 121.108 408.923 120.574 409.499 120.202C410.075 119.818 410.723 119.626 411.443 119.626C411.791 119.626 412.115 119.68 412.415 119.788C412.715 119.884 412.997 120.046 413.261 120.274C413.537 120.49 413.801 120.778 414.053 121.138H414.449L414.305 122.128C413.789 121.588 413.333 121.21 412.937 120.994C412.553 120.778 412.163 120.67 411.767 120.67C411.323 120.67 410.909 120.796 410.525 121.048C410.153 121.288 409.853 121.672 409.625 122.2C409.397 122.716 409.283 123.382 409.283 124.198C409.283 124.99 409.391 125.644 409.607 126.16C409.823 126.664 410.117 127.042 410.489 127.294C410.873 127.534 411.305 127.654 411.785 127.654C412.277 127.654 412.709 127.534 413.081 127.294C413.453 127.042 413.849 126.64 414.269 126.088L414.395 127.06H414.053C413.849 127.396 413.615 127.69 413.351 127.942C413.087 128.194 412.787 128.386 412.451 128.518C412.127 128.662 411.749 128.734 411.317 128.734ZM414.071 128.662L413.891 126.808V126.772V121.516L413.945 121.318L413.927 116.854L412.379 116.638V115.954L415.169 115.216L415.493 115.324L415.439 117.808V127.564L416.897 127.798V128.5L414.071 128.662ZM425.22 128.734C424.68 128.734 424.188 128.674 423.744 128.554C423.3 128.446 422.862 128.284 422.43 128.068L422.358 126.016H423.384L423.852 128.176H423.06V127.24C423.36 127.456 423.69 127.618 424.05 127.726C424.41 127.834 424.806 127.888 425.238 127.888C425.706 127.888 426.09 127.828 426.39 127.708C426.69 127.588 426.906 127.426 427.038 127.222C427.182 127.006 427.254 126.766 427.254 126.502C427.254 126.106 427.116 125.794 426.84 125.566C426.564 125.338 426.138 125.128 425.562 124.936L424.824 124.648C424.344 124.48 423.924 124.288 423.564 124.072C423.216 123.844 422.946 123.574 422.754 123.262C422.574 122.95 422.484 122.584 422.484 122.164C422.484 121.708 422.604 121.288 422.844 120.904C423.096 120.52 423.462 120.214 423.942 119.986C424.434 119.746 425.016 119.626 425.688 119.626C426.192 119.626 426.654 119.686 427.074 119.806C427.506 119.926 427.908 120.1 428.28 120.328L428.226 122.236H427.254L426.876 120.346H427.56V121.12C427.272 120.904 426.972 120.742 426.66 120.634C426.348 120.526 426.024 120.472 425.688 120.472C425.112 120.472 424.68 120.586 424.392 120.814C424.104 121.042 423.96 121.342 423.96 121.714C423.96 122.098 424.086 122.398 424.338 122.614C424.59 122.818 425.022 123.028 425.634 123.244L426.174 123.442C426.786 123.646 427.284 123.886 427.668 124.162C428.052 124.426 428.328 124.72 428.496 125.044C428.676 125.356 428.766 125.716 428.766 126.124C428.766 126.592 428.628 127.024 428.352 127.42C428.088 127.816 427.692 128.134 427.164 128.374C426.648 128.614 426 128.734 425.22 128.734ZM434.55 128.734C433.686 128.734 432.936 128.56 432.3 128.212C431.676 127.852 431.19 127.342 430.842 126.682C430.506 126.01 430.338 125.212 430.338 124.288C430.338 123.352 430.518 122.536 430.878 121.84C431.25 121.144 431.748 120.604 432.372 120.22C433.008 119.824 433.71 119.626 434.478 119.626C435.15 119.626 435.744 119.764 436.26 120.04C436.776 120.316 437.184 120.712 437.484 121.228C437.784 121.744 437.934 122.368 437.934 123.1C437.934 123.316 437.922 123.52 437.898 123.712C437.874 123.892 437.844 124.048 437.808 124.18H431.112V123.388H435.432C435.852 123.364 436.122 123.268 436.242 123.1C436.362 122.92 436.422 122.71 436.422 122.47C436.422 122.038 436.344 121.678 436.188 121.39C436.032 121.09 435.81 120.868 435.522 120.724C435.234 120.568 434.886 120.49 434.478 120.49C434.058 120.49 433.65 120.61 433.254 120.85C432.87 121.09 432.558 121.474 432.318 122.002C432.078 122.518 431.958 123.208 431.958 124.072C431.958 124.816 432.078 125.446 432.318 125.962C432.558 126.478 432.9 126.874 433.344 127.15C433.8 127.414 434.334 127.546 434.946 127.546C435.534 127.546 436.038 127.444 436.458 127.24C436.89 127.036 437.286 126.736 437.646 126.34L438.078 126.7C437.826 127.096 437.544 127.45 437.232 127.762C436.92 128.074 436.548 128.314 436.116 128.482C435.696 128.65 435.174 128.734 434.55 128.734ZM443.812 128.734C442.948 128.734 442.204 128.554 441.58 128.194C440.956 127.834 440.476 127.324 440.14 126.664C439.816 125.992 439.654 125.194 439.654 124.27C439.654 123.31 439.846 122.482 440.23 121.786C440.614 121.09 441.13 120.556 441.778 120.184C442.426 119.812 443.122 119.626 443.866 119.626C444.442 119.626 444.964 119.728 445.432 119.932C445.9 120.124 446.284 120.394 446.584 120.742C446.884 121.09 447.076 121.48 447.16 121.912C447.112 122.14 447.016 122.32 446.872 122.452C446.74 122.584 446.554 122.65 446.314 122.65C446.002 122.65 445.768 122.566 445.612 122.398C445.468 122.218 445.36 122.002 445.288 121.75L444.838 120.166L445.756 120.922C445.468 120.766 445.174 120.652 444.874 120.58C444.574 120.508 444.274 120.472 443.974 120.472C443.458 120.472 442.996 120.61 442.588 120.886C442.18 121.162 441.856 121.57 441.616 122.11C441.388 122.65 441.274 123.31 441.274 124.09C441.274 124.882 441.406 125.536 441.67 126.052C441.934 126.556 442.282 126.928 442.714 127.168C443.158 127.408 443.65 127.528 444.19 127.528C444.526 127.528 444.838 127.492 445.126 127.42C445.414 127.336 445.69 127.204 445.954 127.024C446.23 126.844 446.494 126.61 446.746 126.322L447.214 126.718C446.986 127.126 446.716 127.48 446.404 127.78C446.104 128.08 445.744 128.314 445.324 128.482C444.904 128.65 444.4 128.734 443.812 128.734ZM448.583 128.5V127.78L450.563 127.474H451.031L453.101 127.78V128.5H448.583ZM449.897 128.5C449.909 128.2 449.915 127.828 449.915 127.384C449.927 126.928 449.933 126.46 449.933 125.98C449.945 125.5 449.951 125.068 449.951 124.684V123.802C449.951 123.478 449.945 123.19 449.933 122.938C449.933 122.686 449.927 122.446 449.915 122.218C449.915 121.99 449.909 121.75 449.897 121.498L448.457 121.372V120.688L450.923 119.662L451.265 119.806L451.481 122.128L451.517 122.146V124.684C451.517 125.068 451.517 125.5 451.517 125.98C451.517 126.46 451.517 126.928 451.517 127.384C451.529 127.828 451.541 128.2 451.553 128.5H449.897ZM451.427 123.478L451.211 122.218H451.463C451.667 121.678 451.907 121.216 452.183 120.832C452.459 120.448 452.765 120.154 453.101 119.95C453.437 119.734 453.779 119.626 454.127 119.626C454.439 119.626 454.709 119.698 454.937 119.842C455.177 119.974 455.351 120.142 455.459 120.346C455.447 120.754 455.351 121.078 455.171 121.318C455.003 121.558 454.733 121.678 454.361 121.678C454.133 121.678 453.929 121.636 453.749 121.552C453.569 121.468 453.395 121.354 453.227 121.21L452.777 120.778L453.677 120.652C453.101 120.94 452.633 121.324 452.273 121.804C451.925 122.272 451.643 122.83 451.427 123.478ZM460.478 128.734C459.614 128.734 458.864 128.56 458.228 128.212C457.604 127.852 457.118 127.342 456.77 126.682C456.434 126.01 456.266 125.212 456.266 124.288C456.266 123.352 456.446 122.536 456.806 121.84C457.178 121.144 457.676 120.604 458.3 120.22C458.936 119.824 459.638 119.626 460.406 119.626C461.078 119.626 461.672 119.764 462.188 120.04C462.704 120.316 463.112 120.712 463.412 121.228C463.712 121.744 463.862 122.368 463.862 123.1C463.862 123.316 463.85 123.52 463.826 123.712C463.802 123.892 463.772 124.048 463.736 124.18H457.04V123.388H461.36C461.78 123.364 462.05 123.268 462.17 123.1C462.29 122.92 462.35 122.71 462.35 122.47C462.35 122.038 462.272 121.678 462.116 121.39C461.96 121.09 461.738 120.868 461.45 120.724C461.162 120.568 460.814 120.49 460.406 120.49C459.986 120.49 459.578 120.61 459.182 120.85C458.798 121.09 458.486 121.474 458.246 122.002C458.006 122.518 457.886 123.208 457.886 124.072C457.886 124.816 458.006 125.446 458.246 125.962C458.486 126.478 458.828 126.874 459.272 127.15C459.728 127.414 460.262 127.546 460.874 127.546C461.462 127.546 461.966 127.444 462.386 127.24C462.818 127.036 463.214 126.736 463.574 126.34L464.006 126.7C463.754 127.096 463.472 127.45 463.16 127.762C462.848 128.074 462.476 128.314 462.044 128.482C461.624 128.65 461.102 128.734 460.478 128.734ZM467.274 120.832V119.842H470.532V120.832H467.274ZM468.606 128.716C467.958 128.716 467.442 128.542 467.058 128.194C466.674 127.846 466.482 127.312 466.482 126.592C466.482 126.364 466.482 126.142 466.482 125.926C466.494 125.71 466.5 125.44 466.5 125.116V120.832H464.97V120.022L467.238 119.752L466.518 120.328L467.094 117.394H468.192L468.03 120.292L468.066 120.598V126.394C468.066 126.862 468.156 127.204 468.336 127.42C468.528 127.624 468.78 127.726 469.092 127.726C469.308 127.726 469.506 127.684 469.686 127.6C469.878 127.516 470.082 127.408 470.298 127.276L470.712 127.816C470.568 127.996 470.388 128.158 470.172 128.302C469.968 128.434 469.734 128.536 469.47 128.608C469.206 128.68 468.918 128.716 468.606 128.716ZM471.323 128.5V127.78L473.357 127.474H473.789L475.841 127.78V128.5H471.323ZM472.763 128.5C472.775 128.08 472.781 127.66 472.781 127.24C472.781 126.808 472.781 126.382 472.781 125.962C472.793 125.53 472.799 125.104 472.799 124.684V116.854L471.305 116.638V115.954L474.077 115.216L474.419 115.324L474.347 117.808V124.684C474.347 125.104 474.347 125.53 474.347 125.962C474.359 126.382 474.365 126.808 474.365 127.24C474.377 127.66 474.389 128.08 474.401 128.5H472.763ZM477.82 132.964C477.496 132.964 477.202 132.91 476.938 132.802C476.686 132.706 476.482 132.562 476.326 132.37C476.182 132.19 476.104 131.992 476.092 131.776C476.152 131.524 476.296 131.326 476.524 131.182C476.752 131.05 477.01 130.984 477.298 130.984C477.562 130.984 477.796 131.038 478 131.146C478.204 131.254 478.426 131.428 478.666 131.668L479.206 132.226L478.558 132.55L478.27 132.208C478.642 132.004 478.966 131.746 479.242 131.434C479.53 131.122 479.782 130.768 479.998 130.372C480.214 129.976 480.4 129.568 480.556 129.148L480.844 128.356L480.988 128.248L482.536 123.712L483.922 119.842H484.984L481.672 128.5C481.276 129.532 480.886 130.378 480.502 131.038C480.118 131.698 479.71 132.184 479.278 132.496C478.846 132.808 478.36 132.964 477.82 132.964ZM480.754 129.544L476.902 119.842H478.684L481.42 127.312L481.636 127.618L480.754 129.544ZM476.2 120.562V119.842H480.628V120.58L478.486 120.814H477.982L476.2 120.562ZM482.032 120.562V119.842H485.668V120.562L484.318 120.814H483.904L482.032 120.562ZM493.219 128.752C492.547 128.752 491.971 128.56 491.491 128.176C491.023 127.78 490.789 127.21 490.789 126.466C490.789 126.082 490.867 125.734 491.023 125.422C491.191 125.098 491.485 124.798 491.905 124.522C492.337 124.246 492.949 123.994 493.741 123.766C494.077 123.658 494.401 123.562 494.713 123.478C495.037 123.382 495.355 123.292 495.667 123.208C495.991 123.112 496.315 123.022 496.639 122.938V123.604C496.219 123.736 495.805 123.868 495.397 124C494.989 124.132 494.581 124.264 494.173 124.396C493.657 124.564 493.273 124.75 493.021 124.954C492.769 125.146 492.601 125.35 492.517 125.566C492.445 125.77 492.409 125.98 492.409 126.196C492.409 126.652 492.547 126.988 492.823 127.204C493.099 127.42 493.447 127.528 493.867 127.528C494.107 127.528 494.329 127.492 494.533 127.42C494.737 127.336 494.977 127.198 495.253 127.006C495.541 126.802 495.907 126.526 496.351 126.178L496.567 127.114H495.991C495.667 127.462 495.367 127.756 495.091 127.996C494.827 128.236 494.545 128.422 494.245 128.554C493.957 128.686 493.615 128.752 493.219 128.752ZM497.611 128.68C497.107 128.68 496.699 128.518 496.387 128.194C496.087 127.858 495.931 127.396 495.919 126.808V126.736V122.668C495.919 122.092 495.859 121.648 495.739 121.336C495.619 121.012 495.427 120.79 495.163 120.67C494.899 120.538 494.563 120.472 494.155 120.472C493.915 120.472 493.657 120.496 493.381 120.544C493.117 120.592 492.823 120.682 492.499 120.814L493.237 120.184L492.841 121.75C492.769 122.05 492.655 122.278 492.499 122.434C492.343 122.59 492.139 122.668 491.887 122.668C491.623 122.668 491.419 122.602 491.275 122.47C491.131 122.326 491.041 122.146 491.005 121.93C491.173 121.222 491.575 120.664 492.211 120.256C492.859 119.836 493.651 119.626 494.587 119.626C495.223 119.626 495.751 119.728 496.171 119.932C496.591 120.136 496.909 120.466 497.125 120.922C497.353 121.378 497.467 121.984 497.467 122.74V126.628C497.467 127.012 497.527 127.288 497.647 127.456C497.767 127.612 497.935 127.69 498.151 127.69C498.307 127.69 498.439 127.66 498.547 127.6C498.655 127.528 498.757 127.438 498.853 127.33L499.195 127.816C498.991 128.116 498.757 128.338 498.493 128.482C498.241 128.614 497.947 128.68 497.611 128.68ZM24.774 155.5V154.78L26.754 154.474H27.222L29.292 154.78V155.5H24.774ZM26.088 155.5C26.1 155.2 26.106 154.828 26.106 154.384C26.118 153.928 26.124 153.46 26.124 152.98C26.136 152.5 26.142 152.068 26.142 151.684V150.802C26.142 150.478 26.136 150.19 26.124 149.938C26.124 149.686 26.118 149.446 26.106 149.218C26.106 148.99 26.1 148.75 26.088 148.498L24.648 148.372V147.688L27.114 146.662L27.456 146.806L27.672 149.128L27.708 149.146V151.684C27.708 152.068 27.708 152.5 27.708 152.98C27.708 153.46 27.708 153.928 27.708 154.384C27.72 154.828 27.732 155.2 27.744 155.5H26.088ZM27.618 150.478L27.402 149.218H27.654C27.858 148.678 28.098 148.216 28.374 147.832C28.65 147.448 28.956 147.154 29.292 146.95C29.628 146.734 29.97 146.626 30.318 146.626C30.63 146.626 30.9 146.698 31.128 146.842C31.368 146.974 31.542 147.142 31.65 147.346C31.638 147.754 31.542 148.078 31.362 148.318C31.194 148.558 30.924 148.678 30.552 148.678C30.324 148.678 30.12 148.636 29.94 148.552C29.76 148.468 29.586 148.354 29.418 148.21L28.968 147.778L29.868 147.652C29.292 147.94 28.824 148.324 28.464 148.804C28.116 149.272 27.834 149.83 27.618 150.478ZM36.6509 155.734C35.9309 155.734 35.2469 155.566 34.5989 155.23C33.9629 154.894 33.4469 154.39 33.0509 153.718C32.6549 153.034 32.4569 152.2 32.4569 151.216C32.4569 150.22 32.6549 149.38 33.0509 148.696C33.4469 148.012 33.9629 147.496 34.5989 147.148C35.2469 146.8 35.9309 146.626 36.6509 146.626C37.3709 146.626 38.0489 146.8 38.6849 147.148C39.3329 147.484 39.8549 147.994 40.2509 148.678C40.6589 149.362 40.8629 150.202 40.8629 151.198C40.8629 152.182 40.6589 153.016 40.2509 153.7C39.8549 154.372 39.3329 154.882 38.6849 155.23C38.0489 155.566 37.3709 155.734 36.6509 155.734ZM36.6509 154.87C37.1789 154.87 37.6229 154.732 37.9829 154.456C38.3549 154.18 38.6369 153.772 38.8289 153.232C39.0329 152.692 39.1349 152.02 39.1349 151.216C39.1349 150.4 39.0329 149.716 38.8289 149.164C38.6369 148.612 38.3549 148.198 37.9829 147.922C37.6229 147.634 37.1789 147.49 36.6509 147.49C36.1229 147.49 35.6729 147.634 35.3009 147.922C34.9409 148.198 34.6649 148.612 34.4729 149.164C34.2809 149.704 34.1849 150.382 34.1849 151.198C34.1849 152.014 34.2809 152.692 34.4729 153.232C34.6649 153.772 34.9409 154.18 35.3009 154.456C35.6729 154.732 36.1229 154.87 36.6509 154.87ZM42.4216 155.5V154.78L44.4016 154.474H44.8336L46.6696 154.78V155.5H42.4216ZM43.7716 155.5C43.7716 155.2 43.7716 154.828 43.7716 154.384C43.7836 153.928 43.7896 153.46 43.7896 152.98C43.8016 152.5 43.8076 152.068 43.8076 151.684V150.802C43.8076 150.478 43.8016 150.19 43.7896 149.938C43.7896 149.686 43.7836 149.446 43.7716 149.218C43.7716 148.99 43.7716 148.75 43.7716 148.498L42.3136 148.372V147.688L44.7796 146.662L45.1216 146.806L45.3556 148.84L45.3736 148.876V151.684C45.3736 152.068 45.3736 152.5 45.3736 152.98C45.3856 153.46 45.3916 153.928 45.3916 154.384C45.4036 154.828 45.4096 155.2 45.4096 155.5H43.7716ZM47.9296 155.5V154.78L49.9096 154.474H50.3416L52.1956 154.78V155.5H47.9296ZM49.2796 155.5C49.2796 155.2 49.2796 154.828 49.2796 154.384C49.2916 153.94 49.2976 153.478 49.2976 152.998C49.3096 152.518 49.3156 152.08 49.3156 151.684V150.082C49.3156 149.29 49.2016 148.738 48.9736 148.426C48.7456 148.114 48.3616 147.958 47.8216 147.958C47.5336 147.958 47.2456 148 46.9576 148.084C46.6816 148.168 46.3936 148.306 46.0936 148.498C45.8056 148.678 45.4996 148.906 45.1756 149.182L44.9416 148.534H45.1936C45.4576 148.174 45.7636 147.85 46.1116 147.562C46.4716 147.274 46.8496 147.046 47.2456 146.878C47.6536 146.71 48.0676 146.626 48.4876 146.626C49.2916 146.626 49.8856 146.89 50.2696 147.418C50.6656 147.934 50.8636 148.762 50.8636 149.902V151.684C50.8636 152.08 50.8636 152.518 50.8636 152.998C50.8756 153.478 50.8816 153.94 50.8816 154.384C50.8936 154.828 50.9056 155.2 50.9176 155.5H49.2796ZM53.4376 155.5V154.78L55.4176 154.474H55.8496L57.7036 154.78V155.5H53.4376ZM54.7876 155.5C54.7876 155.2 54.7876 154.828 54.7876 154.384C54.7996 153.94 54.8056 153.478 54.8056 152.998C54.8176 152.518 54.8236 152.08 54.8236 151.684V150.064C54.8236 149.248 54.7036 148.696 54.4636 148.408C54.2236 148.108 53.8336 147.958 53.2936 147.958C53.0296 147.958 52.7596 148 52.4836 148.084C52.2076 148.156 51.9196 148.282 51.6196 148.462C51.3316 148.642 51.0196 148.882 50.6836 149.182L50.3776 148.57H50.6296C50.9296 148.15 51.2536 147.796 51.6016 147.508C51.9616 147.208 52.3396 146.986 52.7356 146.842C53.1436 146.698 53.5636 146.626 53.9956 146.626C54.7636 146.626 55.3516 146.872 55.7596 147.364C56.1676 147.856 56.3716 148.648 56.3716 149.74V151.684C56.3716 152.08 56.3716 152.518 56.3716 152.998C56.3836 153.478 56.3896 153.94 56.3896 154.384C56.4016 154.828 56.4136 155.2 56.4256 155.5H54.7876ZM61.4826 155.752C60.8106 155.752 60.2346 155.56 59.7546 155.176C59.2866 154.78 59.0526 154.21 59.0526 153.466C59.0526 153.082 59.1306 152.734 59.2866 152.422C59.4546 152.098 59.7486 151.798 60.1686 151.522C60.6006 151.246 61.2126 150.994 62.0046 150.766C62.3406 150.658 62.6646 150.562 62.9766 150.478C63.3006 150.382 63.6186 150.292 63.9306 150.208C64.2546 150.112 64.5786 150.022 64.9026 149.938V150.604C64.4826 150.736 64.0686 150.868 63.6606 151C63.2526 151.132 62.8446 151.264 62.4366 151.396C61.9206 151.564 61.5366 151.75 61.2846 151.954C61.0326 152.146 60.8646 152.35 60.7806 152.566C60.7086 152.77 60.6726 152.98 60.6726 153.196C60.6726 153.652 60.8106 153.988 61.0866 154.204C61.3626 154.42 61.7106 154.528 62.1306 154.528C62.3706 154.528 62.5926 154.492 62.7966 154.42C63.0006 154.336 63.2406 154.198 63.5166 154.006C63.8046 153.802 64.1706 153.526 64.6146 153.178L64.8306 154.114H64.2546C63.9306 154.462 63.6306 154.756 63.3546 154.996C63.0906 155.236 62.8086 155.422 62.5086 155.554C62.2206 155.686 61.8786 155.752 61.4826 155.752ZM65.8746 155.68C65.3706 155.68 64.9626 155.518 64.6506 155.194C64.3506 154.858 64.1946 154.396 64.1826 153.808V153.736V149.668C64.1826 149.092 64.1226 148.648 64.0026 148.336C63.8826 148.012 63.6906 147.79 63.4266 147.67C63.1626 147.538 62.8266 147.472 62.4186 147.472C62.1786 147.472 61.9206 147.496 61.6446 147.544C61.3806 147.592 61.0866 147.682 60.7626 147.814L61.5006 147.184L61.1046 148.75C61.0326 149.05 60.9186 149.278 60.7626 149.434C60.6066 149.59 60.4026 149.668 60.1506 149.668C59.8866 149.668 59.6826 149.602 59.5386 149.47C59.3946 149.326 59.3046 149.146 59.2686 148.93C59.4366 148.222 59.8386 147.664 60.4746 147.256C61.1226 146.836 61.9146 146.626 62.8506 146.626C63.4866 146.626 64.0146 146.728 64.4346 146.932C64.8546 147.136 65.1726 147.466 65.3886 147.922C65.6166 148.378 65.7306 148.984 65.7306 149.74V153.628C65.7306 154.012 65.7906 154.288 65.9106 154.456C66.0306 154.612 66.1986 154.69 66.4146 154.69C66.5706 154.69 66.7026 154.66 66.8106 154.6C66.9186 154.528 67.0206 154.438 67.1166 154.33L67.4586 154.816C67.2546 155.116 67.0206 155.338 66.7566 155.482C66.5046 155.614 66.2106 155.68 65.8746 155.68ZM68.2439 155.5V154.78L70.2239 154.474H70.6559L72.4919 154.78V155.5H68.2439ZM69.5939 155.5C69.5939 155.2 69.5939 154.828 69.5939 154.384C69.6059 153.928 69.6119 153.46 69.6119 152.98C69.6239 152.5 69.6299 152.068 69.6299 151.684V150.802C69.6299 150.478 69.6239 150.19 69.6119 149.938C69.6119 149.686 69.6059 149.446 69.5939 149.218C69.5939 148.99 69.5939 148.75 69.5939 148.498L68.1359 148.372V147.688L70.6019 146.662L70.9439 146.806L71.1779 148.84L71.1959 148.858V151.684C71.1959 152.068 71.1959 152.5 71.1959 152.98C71.2079 153.46 71.2139 153.928 71.2139 154.384C71.2259 154.828 71.2319 155.2 71.2319 155.5H69.5939ZM73.8419 155.5V154.78L75.8219 154.474H76.2539L78.1079 154.78V155.5H73.8419ZM75.1739 155.5C75.1859 155.2 75.1919 154.828 75.1919 154.384C75.2039 153.94 75.2099 153.478 75.2099 152.998C75.2219 152.518 75.2279 152.08 75.2279 151.684V150.082C75.2279 149.278 75.1079 148.726 74.8679 148.426C74.6279 148.114 74.2379 147.958 73.6979 147.958C73.4099 147.958 73.1219 148 72.8339 148.084C72.5459 148.168 72.2519 148.3 71.9519 148.48C71.6519 148.66 71.3339 148.894 70.9979 149.182L70.7999 148.48H71.0339C71.3219 148.12 71.6459 147.802 72.0059 147.526C72.3659 147.25 72.7499 147.034 73.1579 146.878C73.5659 146.71 73.9739 146.626 74.3819 146.626C75.1859 146.626 75.7859 146.89 76.1819 147.418C76.5779 147.934 76.7759 148.762 76.7759 149.902V151.684C76.7759 152.08 76.7759 152.518 76.7759 152.998C76.7879 153.478 76.7939 153.94 76.7939 154.384C76.7939 154.828 76.7999 155.2 76.8119 155.5H75.1739ZM81.0649 147.832V146.842H84.3229V147.832H81.0649ZM82.3969 155.716C81.7489 155.716 81.2329 155.542 80.8489 155.194C80.4649 154.846 80.2729 154.312 80.2729 153.592C80.2729 153.364 80.2729 153.142 80.2729 152.926C80.2849 152.71 80.2909 152.44 80.2909 152.116V147.832H78.7609V147.022L81.0289 146.752L80.3089 147.328L80.8849 144.394H81.9829L81.8209 147.292L81.8569 147.598V153.394C81.8569 153.862 81.9469 154.204 82.1269 154.42C82.3189 154.624 82.5709 154.726 82.8829 154.726C83.0989 154.726 83.2969 154.684 83.4769 154.6C83.6689 154.516 83.8729 154.408 84.0889 154.276L84.5029 154.816C84.3589 154.996 84.1789 155.158 83.9629 155.302C83.7589 155.434 83.5249 155.536 83.2609 155.608C82.9969 155.68 82.7089 155.716 82.3969 155.716ZM85.2578 155.5V154.78L87.2378 154.474H87.6878L89.5418 154.78V155.5H85.2578ZM86.6078 155.5C86.6198 155.2 86.6258 154.828 86.6258 154.384C86.6378 153.928 86.6438 153.46 86.6438 152.98C86.6558 152.5 86.6618 152.068 86.6618 151.684V150.82C86.6618 150.34 86.6558 149.926 86.6438 149.578C86.6438 149.23 86.6318 148.87 86.6078 148.498L85.1678 148.372V147.688L87.9218 146.662L88.2638 146.806L88.2098 149.164V151.684C88.2098 152.068 88.2098 152.5 88.2098 152.98C88.2218 153.46 88.2278 153.928 88.2278 154.384C88.2398 154.828 88.2518 155.2 88.2638 155.5H86.6078ZM87.3458 144.844C87.0098 144.844 86.7218 144.736 86.4818 144.52C86.2538 144.292 86.1398 144.01 86.1398 143.674C86.1398 143.338 86.2538 143.062 86.4818 142.846C86.7218 142.618 87.0098 142.504 87.3458 142.504C87.6938 142.504 87.9818 142.618 88.2098 142.846C88.4498 143.062 88.5698 143.338 88.5698 143.674C88.5698 144.01 88.4498 144.292 88.2098 144.52C87.9818 144.736 87.6938 144.844 87.3458 144.844ZM95.1149 155.734C94.2509 155.734 93.5069 155.554 92.8829 155.194C92.2589 154.834 91.7789 154.324 91.4429 153.664C91.1189 152.992 90.9569 152.194 90.9569 151.27C90.9569 150.31 91.1489 149.482 91.5329 148.786C91.9169 148.09 92.4329 147.556 93.0809 147.184C93.7289 146.812 94.4249 146.626 95.1689 146.626C95.7449 146.626 96.2669 146.728 96.7349 146.932C97.2029 147.124 97.5869 147.394 97.8869 147.742C98.1869 148.09 98.3789 148.48 98.4629 148.912C98.4149 149.14 98.3189 149.32 98.1749 149.452C98.0429 149.584 97.8569 149.65 97.6169 149.65C97.3049 149.65 97.0709 149.566 96.9149 149.398C96.7709 149.218 96.6629 149.002 96.5909 148.75L96.1409 147.166L97.0589 147.922C96.7709 147.766 96.4769 147.652 96.1769 147.58C95.8769 147.508 95.5769 147.472 95.2769 147.472C94.7609 147.472 94.2989 147.61 93.8909 147.886C93.4829 148.162 93.1589 148.57 92.9189 149.11C92.6909 149.65 92.5769 150.31 92.5769 151.09C92.5769 151.882 92.7089 152.536 92.9729 153.052C93.2369 153.556 93.5849 153.928 94.0169 154.168C94.4609 154.408 94.9529 154.528 95.4929 154.528C95.8289 154.528 96.1409 154.492 96.4289 154.42C96.7169 154.336 96.9929 154.204 97.2569 154.024C97.5329 153.844 97.7969 153.61 98.0489 153.322L98.5169 153.718C98.2889 154.126 98.0189 154.48 97.7069 154.78C97.4069 155.08 97.0469 155.314 96.6269 155.482C96.2069 155.65 95.7029 155.734 95.1149 155.734ZM101.811 155.734C101.451 155.734 101.145 155.608 100.893 155.356C100.653 155.104 100.533 154.804 100.533 154.456C100.533 154.096 100.653 153.79 100.893 153.538C101.145 153.286 101.451 153.16 101.811 153.16C102.171 153.16 102.477 153.286 102.729 153.538C102.981 153.79 103.107 154.096 103.107 154.456C103.107 154.804 102.981 155.104 102.729 155.356C102.477 155.608 102.171 155.734 101.811 155.734Z" fill="#FFF9F2"/>
<g clip-path="url(#clip0_0_757)">
<path d="M124 209.726L116.966 211.132C113.968 201.307 104.819 194.14 94.027 194.14C80.8053 194.14 70.0485 204.896 70.0485 218.118C70.0485 219.943 70.2542 221.72 70.6422 223.429L26.6944 194.547L25.229 199.013C21.0549 211.734 28.5954 223.324 31.7588 227.43C31.3682 229.22 30.951 232.028 31.1956 235.207C31.7596 242.534 35.4559 248.373 41.8852 252.093C43.3018 252.913 44.7739 253.564 46.2772 254.051C47.7364 257.226 49.7821 260.143 52.3538 262.656C53.9627 264.228 55.7258 265.589 57.6061 266.729C56.2727 267.818 54.5711 268.473 52.719 268.473H47.3694C45.8846 264.287 41.8868 261.279 37.1977 261.279V268.473C39.1809 268.473 40.7944 270.086 40.7944 272.07C40.7944 274.053 39.1809 275.666 37.1977 275.666V282.86C41.8868 282.86 45.8846 279.853 47.3694 275.666H52.719C57.5549 275.666 61.8596 273.354 64.5901 269.778C66.994 270.462 69.4967 270.833 72.0461 270.868C72.1811 270.87 72.3155 270.871 72.4504 270.871C80.0641 270.871 87.2252 267.936 92.653 262.582C98.1778 257.132 101.221 249.857 101.221 242.096C101.221 241.731 101.212 241.365 101.198 241.001C109.468 238.404 115.821 231.438 117.541 222.821L124 224.113L119.204 216.919L124 209.726ZM98.8227 219.317C96.8364 219.317 95.226 217.707 95.226 215.72C95.226 213.734 96.8364 212.123 98.8227 212.123C100.809 212.123 102.42 213.734 102.42 215.72C102.419 217.707 100.809 219.317 98.8227 219.317Z" fill="#FFF9F2"/>
</g>
<defs>
<clipPath id="clip0_0_757">
<rect width="100" height="100" fill="white" transform="translate(24 188.5)"/>
</clipPath>
</defs>
</svg>
