<svg width="538" height="316" viewBox="0 0 538 316" fill="none" xmlns="http://www.w3.org/2000/svg">
<rect width="538" height="316" rx="8" fill="#FFB3C7"/>
<rect x="24" y="43" width="78" height="25" rx="12.5" fill="#2F2F2F"/>
<path d="M36.8603 60L38.2463 50.928H39.0583L37.6723 60H36.8603ZM35.9923 56.332H42.3623V57.536H35.9923V56.332ZM42.8243 54.568H36.4403V53.35H42.8243V54.568ZM39.7722 60L41.1723 50.928H41.9843L40.5843 60H39.7722ZM43.6804 60V59.23L45.5424 59.118H46.1724L48.1324 59.23V60H43.6804ZM44.9824 60C44.9918 59.524 44.9964 59.048 44.9964 58.572C45.0058 58.096 45.0104 57.6153 45.0104 57.13C45.0104 56.6447 45.0104 56.1593 45.0104 55.674V54.974C45.0104 54.498 45.0104 54.022 45.0104 53.546C45.0104 53.0607 45.0058 52.58 44.9964 52.104C44.9964 51.6187 44.9918 51.138 44.9824 50.662H46.6904C46.6904 51.138 46.6858 51.614 46.6764 52.09C46.6764 52.566 46.6764 53.0467 46.6764 53.532C46.6764 54.008 46.6764 54.4887 46.6764 54.974V55.604C46.6764 56.108 46.6764 56.6073 46.6764 57.102C46.6764 57.5873 46.6764 58.0727 46.6764 58.558C46.6858 59.034 46.6904 59.5147 46.6904 60H44.9824ZM45.8364 55.66V54.862H49.2104V55.66H45.8364ZM48.9024 56.948L48.6364 55.478V55.072L48.9024 53.63H49.6864V56.948H48.9024ZM43.6804 51.432V50.662H45.7384V51.544H45.5424L43.6804 51.432ZM50.3164 53.154L49.8404 50.984L50.4284 51.488H45.8364V50.662H51.1144L51.2264 53.154H50.3164ZM52.116 60V59.23L53.978 59.118H54.608L56.568 59.23V60H52.116ZM53.418 60C53.4273 59.524 53.432 59.048 53.432 58.572C53.4413 58.096 53.446 57.6153 53.446 57.13C53.446 56.6447 53.446 56.1593 53.446 55.674V54.974C53.446 54.498 53.446 54.022 53.446 53.546C53.446 53.0607 53.4413 52.58 53.432 52.104C53.432 51.6187 53.4273 51.138 53.418 50.662H55.126C55.126 51.138 55.1213 51.614 55.112 52.09C55.112 52.566 55.112 53.0467 55.112 53.532C55.112 54.008 55.112 54.4887 55.112 54.974V55.604C55.112 56.108 55.112 56.6073 55.112 57.102C55.112 57.5873 55.112 58.0727 55.112 58.558C55.1213 59.034 55.126 59.5147 55.126 60H53.418ZM54.272 55.66V54.862H57.646V55.66H54.272ZM57.338 56.948L57.072 55.478V55.072L57.338 53.63H58.122V56.948H57.338ZM52.116 51.432V50.662H54.174V51.544H53.978L52.116 51.432ZM58.752 53.154L58.276 50.984L58.864 51.488H54.272V50.662H59.55L59.662 53.154H58.752ZM60.5235 60V59.23L62.3015 59.118H62.4835V60H60.5235ZM61.8395 60C61.8489 59.524 61.8535 59.048 61.8535 58.572C61.8535 58.0867 61.8535 57.606 61.8535 57.13C61.8535 56.6447 61.8535 56.1593 61.8535 55.674V54.988C61.8535 54.5027 61.8535 54.022 61.8535 53.546C61.8535 53.0607 61.8535 52.58 61.8535 52.104C61.8535 51.6187 61.8489 51.138 61.8395 50.662H63.5335C63.5335 51.138 63.5289 51.6187 63.5195 52.104C63.5195 52.58 63.5195 53.056 63.5195 53.532C63.5195 54.008 63.5195 54.4933 63.5195 54.988V55.59C63.5195 56.094 63.5195 56.5933 63.5195 57.088C63.5195 57.5827 63.5195 58.0727 63.5195 58.558C63.5289 59.034 63.5335 59.5147 63.5335 60H61.8395ZM62.8755 60V59.202H64.4295C65.3069 59.202 65.9509 59.048 66.3615 58.74C66.7722 58.4227 66.9775 57.97 66.9775 57.382C66.9775 56.7753 66.7722 56.318 66.3615 56.01C65.9602 55.702 65.3209 55.548 64.4435 55.548H62.7355V54.778H64.3595C64.8542 54.778 65.2602 54.7173 65.5775 54.596C65.9042 54.4653 66.1469 54.274 66.3055 54.022C66.4642 53.77 66.5435 53.4527 66.5435 53.07C66.5435 52.6873 66.4642 52.3793 66.3055 52.146C66.1562 51.9033 65.9275 51.726 65.6195 51.614C65.3209 51.502 64.9429 51.446 64.4855 51.446H62.8755V50.662H64.8215C65.5215 50.662 66.1235 50.7553 66.6275 50.942C67.1315 51.1193 67.5189 51.376 67.7895 51.712C68.0602 52.0387 68.1955 52.4353 68.1955 52.902C68.1955 53.35 68.0789 53.728 67.8455 54.036C67.6122 54.344 67.2762 54.5867 66.8375 54.764C66.4082 54.932 65.8902 55.0347 65.2835 55.072V55.156C66.0115 55.184 66.6275 55.2867 67.1315 55.464C67.6449 55.632 68.0322 55.8747 68.2935 56.192C68.5642 56.5093 68.6995 56.906 68.6995 57.382C68.6995 57.746 68.6155 58.0913 68.4475 58.418C68.2889 58.7353 68.0415 59.0153 67.7055 59.258C67.3789 59.4913 66.9635 59.6733 66.4595 59.804C65.9555 59.9347 65.3582 60 64.6675 60H62.8755ZM60.5235 51.432V50.662H62.4835V51.544H62.3015L60.5235 51.432ZM72.7617 60.182C71.9684 60.182 71.3197 60.0187 70.8157 59.692C70.3211 59.3653 70.0131 58.8753 69.8917 58.222C69.9477 58.054 70.0411 57.914 70.1717 57.802C70.3024 57.69 70.4657 57.634 70.6617 57.634C70.9137 57.634 71.1097 57.7133 71.2497 57.872C71.3991 58.0213 71.5157 58.2827 71.5997 58.656L71.8237 59.776L71.1797 59.3C71.3757 59.356 71.5857 59.398 71.8097 59.426C72.0337 59.454 72.2764 59.468 72.5377 59.468C73.0044 59.468 73.3871 59.3933 73.6857 59.244C73.9937 59.0853 74.2224 58.8613 74.3717 58.572C74.5304 58.2733 74.6097 57.9233 74.6097 57.522C74.6097 57.1393 74.5304 56.8127 74.3717 56.542C74.2131 56.262 73.9704 56.052 73.6437 55.912C73.3264 55.7627 72.9251 55.688 72.4397 55.688H71.8237V54.918H72.3277C72.7944 54.918 73.1771 54.848 73.4757 54.708C73.7837 54.5587 74.0124 54.3487 74.1617 54.078C74.3111 53.8073 74.3857 53.4853 74.3857 53.112C74.3857 52.7667 74.3204 52.4773 74.1897 52.244C74.0591 52.0013 73.8631 51.8193 73.6017 51.698C73.3404 51.5673 73.0091 51.502 72.6077 51.502C72.3837 51.502 72.1691 51.516 71.9637 51.544C71.7677 51.572 71.5671 51.6093 71.3617 51.656L72.0757 51.236L71.8377 52.286C71.7631 52.6127 71.6557 52.8507 71.5157 53C71.3757 53.14 71.1797 53.21 70.9277 53.21C70.7224 53.21 70.5591 53.1587 70.4377 53.056C70.3164 52.9533 70.2324 52.818 70.1857 52.65C70.2697 52.2487 70.4377 51.9127 70.6897 51.642C70.9417 51.362 71.2637 51.152 71.6557 51.012C72.0477 50.872 72.4911 50.802 72.9857 50.802C73.5831 50.802 74.1057 50.8953 74.5537 51.082C75.0017 51.2593 75.3471 51.5113 75.5897 51.838C75.8417 52.1553 75.9677 52.5333 75.9677 52.972C75.9677 53.3827 75.8604 53.756 75.6457 54.092C75.4311 54.4187 75.1277 54.6847 74.7357 54.89C74.3437 55.0953 73.8771 55.2307 73.3357 55.296V55.282C73.9704 55.3193 74.4977 55.4313 74.9177 55.618C75.3471 55.7953 75.6691 56.0473 75.8837 56.374C76.0984 56.6913 76.2057 57.088 76.2057 57.564C76.2057 58.0493 76.0704 58.4927 75.7997 58.894C75.5291 59.286 75.1371 59.5987 74.6237 59.832C74.1104 60.0653 73.4897 60.182 72.7617 60.182ZM82.4089 60.224C81.6903 60.224 81.0276 60.1167 80.4209 59.902C79.8143 59.678 79.2869 59.3607 78.8389 58.95C78.4003 58.53 78.0549 58.0213 77.8029 57.424C77.5603 56.8173 77.4389 56.1313 77.4389 55.366C77.4389 54.5913 77.5649 53.9007 77.8169 53.294C78.0783 52.6873 78.4376 52.174 78.8949 51.754C79.3523 51.3247 79.8843 50.998 80.4909 50.774C81.1069 50.55 81.7649 50.438 82.4649 50.438C83.0249 50.438 83.5476 50.4987 84.0329 50.62C84.5183 50.732 84.9429 50.8907 85.3069 51.096L85.3629 53.182H84.4389L83.9909 51.138L84.9569 51.236V52.09C84.6116 51.8193 84.2429 51.614 83.8509 51.474C83.4589 51.334 83.0483 51.264 82.6189 51.264C81.9936 51.264 81.4196 51.418 80.8969 51.726C80.3836 52.0247 79.9729 52.4773 79.6649 53.084C79.3663 53.6813 79.2169 54.428 79.2169 55.324C79.2169 56.22 79.3616 56.9713 79.6509 57.578C79.9403 58.1753 80.3323 58.628 80.8269 58.936C81.3309 59.244 81.9049 59.398 82.5489 59.398C83.0436 59.398 83.5056 59.328 83.9349 59.188C84.3643 59.048 84.7516 58.852 85.0969 58.6V59.426L84.1449 59.524L84.5789 57.438H85.5029L85.4469 59.566C85.0923 59.7527 84.6583 59.9067 84.1449 60.028C83.6409 60.1587 83.0623 60.224 82.4089 60.224ZM87.9545 60L87.8845 59.748L92.2525 52.062L92.1685 52.664L92.1265 52.314H86.7645V50.984H92.9805V51.81L89.5645 60H87.9545Z" fill="#FFB3C7"/>
<rect x="110" y="43" width="47" height="25" rx="12.5" fill="#2F2F2F"/>
<path d="M118.608 60V59.23L120.05 59.118H120.344L121.926 59.23V60H118.608ZM119.448 60L122.738 50.606H124.068L127.386 60H125.636L122.892 51.88H122.906L122.584 53.28L120.33 60H119.448ZM121.03 57.116V56.332H125.272V57.116H121.03ZM123.984 60V59.23L125.804 59.118H126.378L128.198 59.23V60H123.984ZM128.685 60V59.23L130.127 59.118H130.421L132.003 59.23V60H128.685ZM129.525 60L132.815 50.606H134.145L137.463 60H135.713L132.969 51.88H132.983L132.661 53.28L130.407 60H129.525ZM131.107 57.116V56.332H135.349V57.116H131.107ZM134.061 60V59.23L135.881 59.118H136.455L138.275 59.23V60H134.061ZM138.761 60V59.23L140.203 59.118H140.497L142.079 59.23V60H138.761ZM139.601 60L142.891 50.606H144.221L147.539 60H145.789L143.045 51.88H143.059L142.737 53.28L140.483 60H139.601ZM141.183 57.116V56.332H145.425V57.116H141.183ZM144.137 60V59.23L145.957 59.118H146.531L148.351 59.23V60H144.137Z" fill="#FFB3C7"/>
<path d="M33.15 114.33C31.58 114.33 30.21 114.08 29.04 113.58C27.87 113.08 26.96 112.33 26.31 111.33C25.66 110.32 25.335 109.07 25.335 107.58C25.335 107.41 25.335 107.26 25.335 107.13C25.335 106.99 25.335 106.835 25.335 106.665H29.28C29.28 106.815 29.28 106.955 29.28 107.085C29.28 107.205 29.28 107.345 29.28 107.505C29.28 108.705 29.605 109.605 30.255 110.205C30.915 110.795 31.885 111.09 33.165 111.09C34.455 111.09 35.44 110.875 36.12 110.445C36.81 110.015 37.155 109.325 37.155 108.375C37.155 107.685 36.92 107.1 36.45 106.62C35.99 106.13 35.355 105.7 34.545 105.33C33.735 104.96 32.815 104.615 31.785 104.295C30.625 103.935 29.57 103.47 28.62 102.9C27.67 102.33 26.91 101.61 26.34 100.74C25.77 99.87 25.485 98.8 25.485 97.53C25.485 96.26 25.81 95.18 26.46 94.29C27.12 93.4 28.02 92.725 29.16 92.265C30.31 91.795 31.615 91.56 33.075 91.56C34.605 91.56 35.95 91.8 37.11 92.28C38.28 92.76 39.195 93.475 39.855 94.425C40.515 95.375 40.845 96.56 40.845 97.98C40.845 98.17 40.845 98.335 40.845 98.475C40.845 98.615 40.845 98.775 40.845 98.955H36.885C36.885 98.825 36.885 98.695 36.885 98.565C36.885 98.425 36.885 98.29 36.885 98.16C36.885 97.02 36.575 96.18 35.955 95.64C35.335 95.09 34.395 94.815 33.135 94.815C31.905 94.815 30.96 95.03 30.3 95.46C29.64 95.89 29.31 96.575 29.31 97.515C29.31 98.215 29.535 98.8 29.985 99.27C30.435 99.74 31.05 100.15 31.83 100.5C32.62 100.84 33.515 101.185 34.515 101.535C35.845 101.975 36.995 102.475 37.965 103.035C38.935 103.585 39.685 104.275 40.215 105.105C40.745 105.925 41.01 106.97 41.01 108.24C41.01 109.54 40.68 110.645 40.02 111.555C39.37 112.455 38.455 113.145 37.275 113.625C36.105 114.095 34.73 114.33 33.15 114.33ZM60.3998 105.96C60.3998 108.78 59.6798 110.88 58.2398 112.26C56.8098 113.64 54.8348 114.33 52.3148 114.33C49.8148 114.33 47.8498 113.64 46.4198 112.26C44.9898 110.88 44.2748 108.78 44.2748 105.96C44.2748 105.55 44.2748 105.12 44.2748 104.67C44.2748 104.22 44.2748 103.75 44.2748 103.26V91.875H48.2348V103.77C48.2348 104.19 48.2348 104.585 48.2348 104.955C48.2348 105.325 48.2348 105.67 48.2348 105.99C48.2348 107.77 48.5648 109.065 49.2248 109.875C49.8948 110.685 50.9248 111.09 52.3148 111.09C53.7248 111.09 54.7648 110.685 55.4348 109.875C56.1048 109.065 56.4398 107.77 56.4398 105.99V91.875H60.3998V105.96ZM68.0953 114H64.2553V91.875H70.4503L78.5353 112.395L77.9503 112.56V91.875H81.8053V114H75.5203L67.4653 93.525L68.0953 93.375V114ZM93.9513 91.875C95.4313 91.875 96.6613 92.085 97.6413 92.505C98.6213 92.915 99.3563 93.515 99.8463 94.305C100.346 95.095 100.596 96.06 100.596 97.2C100.596 98.3 100.371 99.235 99.9213 100.005C99.4813 100.765 98.9213 101.35 98.2413 101.76C97.5613 102.17 96.8613 102.4 96.1413 102.45C96.9013 102.47 97.6613 102.655 98.4213 103.005C99.1913 103.355 99.8313 103.915 100.341 104.685C100.851 105.455 101.106 106.49 101.106 107.79C101.106 109.02 100.861 110.105 100.371 111.045C99.8813 111.975 99.1013 112.7 98.0313 113.22C96.9713 113.74 95.5863 114 93.8763 114H85.6713V91.875H93.9513ZM89.4513 102.15L88.1463 100.995H92.6013C93.9213 100.995 94.9213 100.72 95.6013 100.17C96.2913 99.61 96.6363 98.835 96.6363 97.845C96.6363 97.175 96.4913 96.635 96.2013 96.225C95.9213 95.815 95.5013 95.515 94.9413 95.325C94.3913 95.125 93.7263 95.025 92.9463 95.025H87.6663L89.4513 93.06V102.15ZM93.0963 110.85C94.3763 110.85 95.3613 110.56 96.0513 109.98C96.7413 109.4 97.0863 108.59 97.0863 107.55C97.0863 106.95 96.9763 106.435 96.7563 106.005C96.5463 105.565 96.2463 105.21 95.8563 104.94C95.4763 104.66 95.0263 104.455 94.5063 104.325C93.9963 104.195 93.4363 104.13 92.8263 104.13H88.1463L89.4513 102.96V112.815L87.6663 110.85H93.0963ZM104.568 114V91.875H108.528V112.815L106.743 110.73H116.913V114H104.568ZM135.429 105.96C135.429 108.78 134.709 110.88 133.269 112.26C131.839 113.64 129.864 114.33 127.344 114.33C124.844 114.33 122.879 113.64 121.449 112.26C120.019 110.88 119.304 108.78 119.304 105.96C119.304 105.55 119.304 105.12 119.304 104.67C119.304 104.22 119.304 103.75 119.304 103.26V91.875H123.264V103.77C123.264 104.19 123.264 104.585 123.264 104.955C123.264 105.325 123.264 105.67 123.264 105.99C123.264 107.77 123.594 109.065 124.254 109.875C124.924 110.685 125.954 111.09 127.344 111.09C128.754 111.09 129.794 110.685 130.464 109.875C131.134 109.065 131.469 107.77 131.469 105.99V91.875H135.429V105.96ZM146.5 114.33C144.93 114.33 143.56 114.08 142.39 113.58C141.22 113.08 140.31 112.33 139.66 111.33C139.01 110.32 138.685 109.07 138.685 107.58C138.685 107.41 138.685 107.26 138.685 107.13C138.685 106.99 138.685 106.835 138.685 106.665H142.63C142.63 106.815 142.63 106.955 142.63 107.085C142.63 107.205 142.63 107.345 142.63 107.505C142.63 108.705 142.955 109.605 143.605 110.205C144.265 110.795 145.235 111.09 146.515 111.09C147.805 111.09 148.79 110.875 149.47 110.445C150.16 110.015 150.505 109.325 150.505 108.375C150.505 107.685 150.27 107.1 149.8 106.62C149.34 106.13 148.705 105.7 147.895 105.33C147.085 104.96 146.165 104.615 145.135 104.295C143.975 103.935 142.92 103.47 141.97 102.9C141.02 102.33 140.26 101.61 139.69 100.74C139.12 99.87 138.835 98.8 138.835 97.53C138.835 96.26 139.16 95.18 139.81 94.29C140.47 93.4 141.37 92.725 142.51 92.265C143.66 91.795 144.965 91.56 146.425 91.56C147.955 91.56 149.3 91.8 150.46 92.28C151.63 92.76 152.545 93.475 153.205 94.425C153.865 95.375 154.195 96.56 154.195 97.98C154.195 98.17 154.195 98.335 154.195 98.475C154.195 98.615 154.195 98.775 154.195 98.955H150.235C150.235 98.825 150.235 98.695 150.235 98.565C150.235 98.425 150.235 98.29 150.235 98.16C150.235 97.02 149.925 96.18 149.305 95.64C148.685 95.09 147.745 94.815 146.485 94.815C145.255 94.815 144.31 95.03 143.65 95.46C142.99 95.89 142.66 96.575 142.66 97.515C142.66 98.215 142.885 98.8 143.335 99.27C143.785 99.74 144.4 100.15 145.18 100.5C145.97 100.84 146.865 101.185 147.865 101.535C149.195 101.975 150.345 102.475 151.315 103.035C152.285 103.585 153.035 104.275 153.565 105.105C154.095 105.925 154.36 106.97 154.36 108.24C154.36 109.54 154.03 110.645 153.37 111.555C152.72 112.455 151.805 113.145 150.625 113.625C149.455 114.095 148.08 114.33 146.5 114.33ZM174.184 91.875V114H170.224V103.2L172.009 104.55H159.799L161.584 103.23V114H157.624V91.875H161.584V102.78L159.799 101.4H172.009L170.224 102.765V91.875H174.184ZM189.504 114H185.544V91.875H192.654C194.354 91.875 195.789 92.2 196.959 92.85C198.139 93.49 199.034 94.365 199.644 95.475C200.264 96.575 200.574 97.805 200.574 99.165C200.574 100.535 200.264 101.79 199.644 102.93C199.024 104.07 198.119 104.985 196.929 105.675C195.749 106.355 194.324 106.695 192.654 106.695H189.504V114ZM189.504 105.435L187.719 103.56H192.219C193.139 103.56 193.924 103.385 194.574 103.035C195.224 102.675 195.719 102.17 196.059 101.52C196.409 100.86 196.584 100.075 196.584 99.165C196.584 98.255 196.414 97.495 196.074 96.885C195.744 96.265 195.254 95.8 194.604 95.49C193.954 95.18 193.159 95.025 192.219 95.025H187.719L189.504 93.06V105.435ZM205.84 95.025L207.625 93.06V102.51L206.695 101.325H214.975V104.475H206.695L207.625 103.305V112.815L205.84 110.85H216.64V114H203.65V91.875H216.64V95.025H205.84ZM234.671 95.025H227.666L229.121 93.06V114H225.161V93.06L226.691 95.025H219.626V91.875H234.671V95.025ZM234.125 114L239.84 91.845H246.08L251.75 114H247.685L242.945 94.29H242.975L238.19 114H234.125ZM237.815 108.615V105.45H248.105V108.615H237.815ZM254.48 114V91.875H258.44V112.815L256.655 110.73H266.825V114H254.48Z" fill="#2F2F2F"/>
<path d="M24.756 142V141.19L27.132 140.974H27.6L30.012 141.19V142H24.756ZM26.43 142C26.454 141.388 26.466 140.776 26.466 140.164C26.478 139.54 26.484 138.916 26.484 138.292C26.484 137.668 26.484 137.044 26.484 136.42V135.538C26.484 134.914 26.484 134.29 26.484 133.666C26.484 133.042 26.478 132.418 26.466 131.794C26.466 131.17 26.454 130.552 26.43 129.94H28.266C28.266 130.54 28.26 131.152 28.248 131.776C28.236 132.4 28.23 133.024 28.23 133.648C28.23 134.272 28.23 134.902 28.23 135.538V136.654C28.23 137.242 28.23 137.83 28.23 138.418C28.23 138.994 28.236 139.582 28.248 140.182C28.26 140.77 28.266 141.376 28.266 142H26.43ZM27.366 137.266V136.366H29.364C30.132 136.366 30.744 136.252 31.2 136.024C31.668 135.784 32.004 135.454 32.208 135.034C32.424 134.614 32.532 134.116 32.532 133.54C32.532 132.676 32.28 132.01 31.776 131.542C31.272 131.062 30.468 130.822 29.364 130.822H27.42V129.94H29.652C30.696 129.94 31.56 130.09 32.244 130.39C32.94 130.69 33.462 131.11 33.81 131.65C34.17 132.19 34.35 132.82 34.35 133.54C34.35 134.224 34.176 134.848 33.828 135.412C33.48 135.976 32.928 136.426 32.172 136.762C31.416 137.098 30.42 137.266 29.184 137.266H27.366ZM24.756 130.75V129.94H27.276V130.966H27.078L24.756 130.75ZM35.315 142V141.28L37.349 140.974H37.781L39.833 141.28V142H35.315ZM36.755 142C36.767 141.58 36.773 141.16 36.773 140.74C36.773 140.308 36.773 139.882 36.773 139.462C36.785 139.03 36.791 138.604 36.791 138.184V130.354L35.297 130.138V129.454L38.069 128.716L38.411 128.824L38.339 131.308V138.184C38.339 138.604 38.339 139.03 38.339 139.462C38.351 139.882 38.357 140.308 38.357 140.74C38.369 141.16 38.381 141.58 38.393 142H36.755ZM43.4123 142.252C42.7403 142.252 42.1643 142.06 41.6843 141.676C41.2163 141.28 40.9823 140.71 40.9823 139.966C40.9823 139.582 41.0603 139.234 41.2163 138.922C41.3843 138.598 41.6783 138.298 42.0983 138.022C42.5303 137.746 43.1423 137.494 43.9343 137.266C44.2703 137.158 44.5943 137.062 44.9063 136.978C45.2303 136.882 45.5483 136.792 45.8603 136.708C46.1843 136.612 46.5083 136.522 46.8323 136.438V137.104C46.4123 137.236 45.9983 137.368 45.5903 137.5C45.1823 137.632 44.7743 137.764 44.3663 137.896C43.8503 138.064 43.4663 138.25 43.2143 138.454C42.9623 138.646 42.7943 138.85 42.7103 139.066C42.6383 139.27 42.6023 139.48 42.6023 139.696C42.6023 140.152 42.7403 140.488 43.0163 140.704C43.2923 140.92 43.6403 141.028 44.0603 141.028C44.3003 141.028 44.5223 140.992 44.7263 140.92C44.9303 140.836 45.1703 140.698 45.4463 140.506C45.7343 140.302 46.1003 140.026 46.5443 139.678L46.7603 140.614H46.1843C45.8603 140.962 45.5603 141.256 45.2843 141.496C45.0203 141.736 44.7383 141.922 44.4383 142.054C44.1503 142.186 43.8083 142.252 43.4123 142.252ZM47.8043 142.18C47.3003 142.18 46.8923 142.018 46.5803 141.694C46.2803 141.358 46.1243 140.896 46.1123 140.308V140.236V136.168C46.1123 135.592 46.0523 135.148 45.9323 134.836C45.8123 134.512 45.6203 134.29 45.3563 134.17C45.0923 134.038 44.7563 133.972 44.3483 133.972C44.1083 133.972 43.8503 133.996 43.5743 134.044C43.3103 134.092 43.0163 134.182 42.6923 134.314L43.4303 133.684L43.0343 135.25C42.9623 135.55 42.8483 135.778 42.6923 135.934C42.5363 136.09 42.3323 136.168 42.0803 136.168C41.8163 136.168 41.6123 136.102 41.4683 135.97C41.3243 135.826 41.2343 135.646 41.1983 135.43C41.3663 134.722 41.7683 134.164 42.4043 133.756C43.0523 133.336 43.8443 133.126 44.7803 133.126C45.4163 133.126 45.9443 133.228 46.3643 133.432C46.7843 133.636 47.1023 133.966 47.3183 134.422C47.5463 134.878 47.6603 135.484 47.6603 136.24V140.128C47.6603 140.512 47.7203 140.788 47.8403 140.956C47.9603 141.112 48.1283 141.19 48.3443 141.19C48.5003 141.19 48.6323 141.16 48.7403 141.1C48.8483 141.028 48.9503 140.938 49.0463 140.83L49.3883 141.316C49.1843 141.616 48.9503 141.838 48.6863 141.982C48.4343 142.114 48.1403 142.18 47.8043 142.18ZM51.0233 146.464C50.6993 146.464 50.4053 146.41 50.1413 146.302C49.8893 146.206 49.6853 146.062 49.5293 145.87C49.3853 145.69 49.3073 145.492 49.2953 145.276C49.3553 145.024 49.4993 144.826 49.7273 144.682C49.9553 144.55 50.2133 144.484 50.5013 144.484C50.7653 144.484 50.9993 144.538 51.2033 144.646C51.4073 144.754 51.6293 144.928 51.8693 145.168L52.4093 145.726L51.7613 146.05L51.4733 145.708C51.8453 145.504 52.1693 145.246 52.4453 144.934C52.7333 144.622 52.9853 144.268 53.2013 143.872C53.4173 143.476 53.6033 143.068 53.7593 142.648L54.0473 141.856L54.1913 141.748L55.7393 137.212L57.1253 133.342H58.1873L54.8753 142C54.4793 143.032 54.0893 143.878 53.7053 144.538C53.3213 145.198 52.9133 145.684 52.4813 145.996C52.0493 146.308 51.5633 146.464 51.0233 146.464ZM53.9573 143.044L50.1053 133.342H51.8873L54.6233 140.812L54.8393 141.118L53.9573 143.044ZM49.4033 134.062V133.342H53.8313V134.08L51.6893 134.314H51.1853L49.4033 134.062ZM55.2353 134.062V133.342H58.8713V134.062L57.5213 134.314H57.1073L55.2353 134.062ZM59.6113 142V141.28L61.5913 140.974H62.1493L64.3273 141.28V142H59.6113ZM61.0333 142C61.0453 141.58 61.0513 141.16 61.0513 140.74C61.0633 140.308 61.0693 139.882 61.0693 139.462C61.0813 139.03 61.0873 138.604 61.0873 138.184V134.332H59.5753V133.522L61.6273 133.252L61.0873 133.612L61.1053 133.432C61.1653 132.784 61.2433 132.22 61.3393 131.74C61.4473 131.26 61.5973 130.834 61.7893 130.462C61.9933 130.09 62.2633 129.748 62.5993 129.436C62.9593 129.1 63.3373 128.866 63.7333 128.734C64.1413 128.59 64.5613 128.518 64.9933 128.518C65.4253 128.518 65.8033 128.596 66.1273 128.752C66.4513 128.908 66.6553 129.16 66.7393 129.508C66.7273 129.736 66.6253 129.934 66.4333 130.102C66.2533 130.258 65.9953 130.336 65.6593 130.336C65.4073 130.336 65.1733 130.282 64.9573 130.174C64.7533 130.066 64.5373 129.922 64.3093 129.742L63.4993 129.112L63.5893 129.022H64.4713L64.5613 129.076C64.2853 129.112 64.0513 129.19 63.8593 129.31C63.6673 129.418 63.4873 129.61 63.3193 129.886C63.1873 130.078 63.0733 130.294 62.9773 130.534C62.8813 130.774 62.8033 131.056 62.7433 131.38C62.6833 131.692 62.6413 132.064 62.6173 132.496C62.6053 132.928 62.6173 133.438 62.6533 134.026V138.184C62.6533 138.604 62.6533 139.03 62.6533 139.462C62.6653 139.882 62.6713 140.308 62.6713 140.74C62.6713 141.16 62.6773 141.58 62.6893 142H61.0333ZM61.8793 134.332V133.342H65.0653V134.332H61.8793ZM69.431 142.234C68.663 142.234 68.063 141.988 67.631 141.496C67.211 141.004 67.007 140.182 67.019 139.03L67.055 134.134L67.487 134.584L65.705 134.206V133.522L68.369 133.252L68.639 133.414L68.567 135.682V138.814C68.567 139.582 68.687 140.128 68.927 140.452C69.167 140.764 69.539 140.92 70.043 140.92C70.343 140.92 70.649 140.872 70.961 140.776C71.273 140.668 71.585 140.512 71.897 140.308C72.209 140.104 72.515 139.858 72.815 139.57L73.049 140.362H72.689C72.389 140.77 72.059 141.118 71.699 141.406C71.351 141.682 70.985 141.886 70.601 142.018C70.217 142.162 69.827 142.234 69.431 142.234ZM72.851 142.144L72.635 140.074L72.599 140.038L72.653 134.476L71.303 134.206V133.522L73.931 133.252L74.201 133.414L74.147 135.682V141.046L75.443 141.298V142L72.851 142.144ZM76.5708 142V141.28L78.6048 140.974H79.0368L81.0888 141.28V142H76.5708ZM78.0108 142C78.0228 141.58 78.0288 141.16 78.0288 140.74C78.0288 140.308 78.0288 139.882 78.0288 139.462C78.0408 139.03 78.0468 138.604 78.0468 138.184V130.354L76.5528 130.138V129.454L79.3248 128.716L79.6668 128.824L79.5948 131.308V138.184C79.5948 138.604 79.5948 139.03 79.5948 139.462C79.6068 139.882 79.6128 140.308 79.6128 140.74C79.6248 141.16 79.6368 141.58 79.6488 142H78.0108ZM86.5607 142V141.19L88.9367 140.974H89.3867L91.7627 141.19V142H86.5607ZM88.2347 142C88.2587 141.388 88.2707 140.776 88.2707 140.164C88.2827 139.54 88.2887 138.916 88.2887 138.292C88.2887 137.668 88.2887 137.044 88.2887 136.42V135.538C88.2887 134.914 88.2887 134.29 88.2887 133.666C88.2887 133.042 88.2827 132.418 88.2707 131.794C88.2707 131.17 88.2587 130.552 88.2347 129.94H90.0707C90.0707 130.564 90.0647 131.188 90.0527 131.812C90.0407 132.436 90.0347 133.066 90.0347 133.702C90.0347 134.338 90.0347 135.004 90.0347 135.7V136.258C90.0347 136.93 90.0347 137.59 90.0347 138.238C90.0347 138.874 90.0407 139.504 90.0527 140.128C90.0647 140.752 90.0707 141.376 90.0707 142H88.2347ZM96.1007 142.18C95.5247 142.18 95.0867 142.09 94.7867 141.91C94.4867 141.718 94.2767 141.394 94.1567 140.938L93.4547 138.184C93.3467 137.704 93.1907 137.338 92.9867 137.086C92.7827 136.834 92.5247 136.666 92.2127 136.582C91.9127 136.486 91.5167 136.438 91.0247 136.438H89.1887V135.592H91.4747C92.1227 135.592 92.6567 135.484 93.0767 135.268C93.5087 135.052 93.8267 134.758 94.0307 134.386C94.2347 134.014 94.3367 133.588 94.3367 133.108C94.3367 132.364 94.1207 131.8 93.6887 131.416C93.2567 131.02 92.5727 130.822 91.6367 130.822H89.2247V129.94H91.7267C93.1307 129.94 94.2167 130.216 94.9847 130.768C95.7647 131.32 96.1547 132.088 96.1547 133.072C96.1547 133.6 96.0107 134.092 95.7227 134.548C95.4467 134.992 95.0327 135.358 94.4807 135.646C93.9407 135.922 93.2807 136.09 92.5007 136.15V136.096C92.8727 136.12 93.2027 136.18 93.4907 136.276C93.7907 136.36 94.0487 136.492 94.2647 136.672C94.4807 136.852 94.6667 137.086 94.8227 137.374C94.9907 137.65 95.1347 137.992 95.2547 138.4L96.1367 141.424L95.5067 140.992L97.4867 141.208V142C97.3667 142.036 97.2347 142.066 97.0907 142.09C96.9467 142.114 96.7907 142.132 96.6227 142.144C96.4667 142.168 96.2927 142.18 96.1007 142.18ZM86.5607 130.75V129.94H89.0807V130.966H88.8827L86.5607 130.75ZM102.604 142.234C101.884 142.234 101.2 142.066 100.552 141.73C99.916 141.394 99.4 140.89 99.004 140.218C98.608 139.534 98.41 138.7 98.41 137.716C98.41 136.72 98.608 135.88 99.004 135.196C99.4 134.512 99.916 133.996 100.552 133.648C101.2 133.3 101.884 133.126 102.604 133.126C103.324 133.126 104.002 133.3 104.638 133.648C105.286 133.984 105.808 134.494 106.204 135.178C106.612 135.862 106.816 136.702 106.816 137.698C106.816 138.682 106.612 139.516 106.204 140.2C105.808 140.872 105.286 141.382 104.638 141.73C104.002 142.066 103.324 142.234 102.604 142.234ZM102.604 141.37C103.132 141.37 103.576 141.232 103.936 140.956C104.308 140.68 104.59 140.272 104.782 139.732C104.986 139.192 105.088 138.52 105.088 137.716C105.088 136.9 104.986 136.216 104.782 135.664C104.59 135.112 104.308 134.698 103.936 134.422C103.576 134.134 103.132 133.99 102.604 133.99C102.076 133.99 101.626 134.134 101.254 134.422C100.894 134.698 100.618 135.112 100.426 135.664C100.234 136.204 100.138 136.882 100.138 137.698C100.138 138.514 100.234 139.192 100.426 139.732C100.618 140.272 100.894 140.68 101.254 140.956C101.626 141.232 102.076 141.37 102.604 141.37ZM108.375 142V141.28L110.355 140.974H110.787L112.623 141.28V142H108.375ZM109.725 142C109.725 141.7 109.725 141.328 109.725 140.884C109.737 140.428 109.743 139.96 109.743 139.48C109.755 139 109.761 138.568 109.761 138.184V137.302C109.761 136.978 109.755 136.69 109.743 136.438C109.743 136.186 109.737 135.946 109.725 135.718C109.725 135.49 109.725 135.25 109.725 134.998L108.267 134.872V134.188L110.733 133.162L111.075 133.306L111.309 135.34L111.327 135.376V138.184C111.327 138.568 111.327 139 111.327 139.48C111.339 139.96 111.345 140.428 111.345 140.884C111.357 141.328 111.363 141.7 111.363 142H109.725ZM113.883 142V141.28L115.863 140.974H116.295L118.149 141.28V142H113.883ZM115.233 142C115.233 141.7 115.233 141.328 115.233 140.884C115.245 140.44 115.251 139.978 115.251 139.498C115.263 139.018 115.269 138.58 115.269 138.184V136.582C115.269 135.79 115.155 135.238 114.927 134.926C114.699 134.614 114.315 134.458 113.775 134.458C113.487 134.458 113.199 134.5 112.911 134.584C112.635 134.668 112.347 134.806 112.047 134.998C111.759 135.178 111.453 135.406 111.129 135.682L110.895 135.034H111.147C111.411 134.674 111.717 134.35 112.065 134.062C112.425 133.774 112.803 133.546 113.199 133.378C113.607 133.21 114.021 133.126 114.441 133.126C115.245 133.126 115.839 133.39 116.223 133.918C116.619 134.434 116.817 135.262 116.817 136.402V138.184C116.817 138.58 116.817 139.018 116.817 139.498C116.829 139.978 116.835 140.44 116.835 140.884C116.847 141.328 116.859 141.7 116.871 142H115.233ZM119.391 142V141.28L121.371 140.974H121.803L123.657 141.28V142H119.391ZM120.741 142C120.741 141.7 120.741 141.328 120.741 140.884C120.753 140.44 120.759 139.978 120.759 139.498C120.771 139.018 120.777 138.58 120.777 138.184V136.564C120.777 135.748 120.657 135.196 120.417 134.908C120.177 134.608 119.787 134.458 119.247 134.458C118.983 134.458 118.713 134.5 118.437 134.584C118.161 134.656 117.873 134.782 117.573 134.962C117.285 135.142 116.973 135.382 116.637 135.682L116.331 135.07H116.583C116.883 134.65 117.207 134.296 117.555 134.008C117.915 133.708 118.293 133.486 118.689 133.342C119.097 133.198 119.517 133.126 119.949 133.126C120.717 133.126 121.305 133.372 121.713 133.864C122.121 134.356 122.325 135.148 122.325 136.24V138.184C122.325 138.58 122.325 139.018 122.325 139.498C122.337 139.978 122.343 140.44 122.343 140.884C122.355 141.328 122.367 141.7 122.379 142H120.741ZM127.436 142.252C126.764 142.252 126.188 142.06 125.708 141.676C125.24 141.28 125.006 140.71 125.006 139.966C125.006 139.582 125.084 139.234 125.24 138.922C125.408 138.598 125.702 138.298 126.122 138.022C126.554 137.746 127.166 137.494 127.958 137.266C128.294 137.158 128.618 137.062 128.93 136.978C129.254 136.882 129.572 136.792 129.884 136.708C130.208 136.612 130.532 136.522 130.856 136.438V137.104C130.436 137.236 130.022 137.368 129.614 137.5C129.206 137.632 128.798 137.764 128.39 137.896C127.874 138.064 127.49 138.25 127.238 138.454C126.986 138.646 126.818 138.85 126.734 139.066C126.662 139.27 126.626 139.48 126.626 139.696C126.626 140.152 126.764 140.488 127.04 140.704C127.316 140.92 127.664 141.028 128.084 141.028C128.324 141.028 128.546 140.992 128.75 140.92C128.954 140.836 129.194 140.698 129.47 140.506C129.758 140.302 130.124 140.026 130.568 139.678L130.784 140.614H130.208C129.884 140.962 129.584 141.256 129.308 141.496C129.044 141.736 128.762 141.922 128.462 142.054C128.174 142.186 127.832 142.252 127.436 142.252ZM131.828 142.18C131.324 142.18 130.916 142.018 130.604 141.694C130.304 141.358 130.148 140.896 130.136 140.308V140.236V136.168C130.136 135.592 130.076 135.148 129.956 134.836C129.836 134.512 129.644 134.29 129.38 134.17C129.116 134.038 128.78 133.972 128.372 133.972C128.132 133.972 127.874 133.996 127.598 134.044C127.334 134.092 127.04 134.182 126.716 134.314L127.454 133.684L127.058 135.25C126.986 135.55 126.872 135.778 126.716 135.934C126.56 136.09 126.356 136.168 126.104 136.168C125.84 136.168 125.636 136.102 125.492 135.97C125.348 135.826 125.258 135.646 125.222 135.43C125.39 134.722 125.792 134.164 126.428 133.756C127.076 133.336 127.868 133.126 128.804 133.126C129.44 133.126 129.968 133.228 130.388 133.432C130.808 133.636 131.126 133.966 131.342 134.422C131.57 134.878 131.684 135.484 131.684 136.24V140.128C131.684 140.512 131.744 140.788 131.864 140.956C131.984 141.112 132.152 141.19 132.368 141.19C132.524 141.19 132.656 141.16 132.764 141.1C132.872 141.028 132.974 140.938 133.07 140.83L133.412 141.316C133.208 141.616 132.974 141.838 132.71 141.982C132.458 142.114 132.164 142.18 131.828 142.18ZM134.197 142V141.28L136.177 140.974H136.609L138.445 141.28V142H134.197ZM135.547 142C135.547 141.7 135.547 141.328 135.547 140.884C135.559 140.428 135.565 139.96 135.565 139.48C135.577 139 135.583 138.568 135.583 138.184V137.302C135.583 136.978 135.577 136.69 135.565 136.438C135.565 136.186 135.559 135.946 135.547 135.718C135.547 135.49 135.547 135.25 135.547 134.998L134.089 134.872V134.188L136.555 133.162L136.897 133.306L137.131 135.34L137.149 135.358V138.184C137.149 138.568 137.149 139 137.149 139.48C137.161 139.96 137.167 140.428 137.167 140.884C137.179 141.328 137.185 141.7 137.185 142H135.547ZM139.795 142V141.28L141.775 140.974H142.207L144.061 141.28V142H139.795ZM141.127 142C141.139 141.7 141.145 141.328 141.145 140.884C141.157 140.44 141.163 139.978 141.163 139.498C141.175 139.018 141.181 138.58 141.181 138.184V136.582C141.181 135.778 141.061 135.226 140.821 134.926C140.581 134.614 140.191 134.458 139.651 134.458C139.363 134.458 139.075 134.5 138.787 134.584C138.499 134.668 138.205 134.8 137.905 134.98C137.605 135.16 137.287 135.394 136.951 135.682L136.753 134.98H136.987C137.275 134.62 137.599 134.302 137.959 134.026C138.319 133.75 138.703 133.534 139.111 133.378C139.519 133.21 139.927 133.126 140.335 133.126C141.139 133.126 141.739 133.39 142.135 133.918C142.531 134.434 142.729 135.262 142.729 136.402V138.184C142.729 138.58 142.729 139.018 142.729 139.498C142.741 139.978 142.747 140.44 142.747 140.884C142.747 141.328 142.753 141.7 142.765 142H141.127ZM147.018 134.332V133.342H150.276V134.332H147.018ZM148.35 142.216C147.702 142.216 147.186 142.042 146.802 141.694C146.418 141.346 146.226 140.812 146.226 140.092C146.226 139.864 146.226 139.642 146.226 139.426C146.238 139.21 146.244 138.94 146.244 138.616V134.332H144.714V133.522L146.982 133.252L146.262 133.828L146.838 130.894H147.936L147.774 133.792L147.81 134.098V139.894C147.81 140.362 147.9 140.704 148.08 140.92C148.272 141.124 148.524 141.226 148.836 141.226C149.052 141.226 149.25 141.184 149.43 141.1C149.622 141.016 149.826 140.908 150.042 140.776L150.456 141.316C150.312 141.496 150.132 141.658 149.916 141.802C149.712 141.934 149.478 142.036 149.214 142.108C148.95 142.18 148.662 142.216 148.35 142.216ZM151.211 142V141.28L153.191 140.974H153.641L155.495 141.28V142H151.211ZM152.561 142C152.573 141.7 152.579 141.328 152.579 140.884C152.591 140.428 152.597 139.96 152.597 139.48C152.609 139 152.615 138.568 152.615 138.184V137.32C152.615 136.84 152.609 136.426 152.597 136.078C152.597 135.73 152.585 135.37 152.561 134.998L151.121 134.872V134.188L153.875 133.162L154.217 133.306L154.163 135.664V138.184C154.163 138.568 154.163 139 154.163 139.48C154.175 139.96 154.181 140.428 154.181 140.884C154.193 141.328 154.205 141.7 154.217 142H152.561ZM153.299 131.344C152.963 131.344 152.675 131.236 152.435 131.02C152.207 130.792 152.093 130.51 152.093 130.174C152.093 129.838 152.207 129.562 152.435 129.346C152.675 129.118 152.963 129.004 153.299 129.004C153.647 129.004 153.935 129.118 154.163 129.346C154.403 129.562 154.523 129.838 154.523 130.174C154.523 130.51 154.403 130.792 154.163 131.02C153.935 131.236 153.647 131.344 153.299 131.344ZM161.068 142.234C160.204 142.234 159.46 142.054 158.836 141.694C158.212 141.334 157.732 140.824 157.396 140.164C157.072 139.492 156.91 138.694 156.91 137.77C156.91 136.81 157.102 135.982 157.486 135.286C157.87 134.59 158.386 134.056 159.034 133.684C159.682 133.312 160.378 133.126 161.122 133.126C161.698 133.126 162.22 133.228 162.688 133.432C163.156 133.624 163.54 133.894 163.84 134.242C164.14 134.59 164.332 134.98 164.416 135.412C164.368 135.64 164.272 135.82 164.128 135.952C163.996 136.084 163.81 136.15 163.57 136.15C163.258 136.15 163.024 136.066 162.868 135.898C162.724 135.718 162.616 135.502 162.544 135.25L162.094 133.666L163.012 134.422C162.724 134.266 162.43 134.152 162.13 134.08C161.83 134.008 161.53 133.972 161.23 133.972C160.714 133.972 160.252 134.11 159.844 134.386C159.436 134.662 159.112 135.07 158.872 135.61C158.644 136.15 158.53 136.81 158.53 137.59C158.53 138.382 158.662 139.036 158.926 139.552C159.19 140.056 159.538 140.428 159.97 140.668C160.414 140.908 160.906 141.028 161.446 141.028C161.782 141.028 162.094 140.992 162.382 140.92C162.67 140.836 162.946 140.704 163.21 140.524C163.486 140.344 163.75 140.11 164.002 139.822L164.47 140.218C164.242 140.626 163.972 140.98 163.66 141.28C163.36 141.58 163 141.814 162.58 141.982C162.16 142.15 161.656 142.234 161.068 142.234ZM167.764 142.234C167.404 142.234 167.098 142.108 166.846 141.856C166.606 141.604 166.486 141.304 166.486 140.956C166.486 140.596 166.606 140.29 166.846 140.038C167.098 139.786 167.404 139.66 167.764 139.66C168.124 139.66 168.43 139.786 168.682 140.038C168.934 140.29 169.06 140.596 169.06 140.956C169.06 141.304 168.934 141.604 168.682 141.856C168.43 142.108 168.124 142.234 167.764 142.234ZM167.764 136.078C167.404 136.078 167.098 135.952 166.846 135.7C166.606 135.448 166.486 135.148 166.486 134.8C166.486 134.44 166.606 134.134 166.846 133.882C167.098 133.63 167.404 133.504 167.764 133.504C168.124 133.504 168.43 133.63 168.682 133.882C168.934 134.134 169.06 134.44 169.06 134.8C169.06 135.148 168.934 135.448 168.682 135.7C168.43 135.952 168.124 136.078 167.764 136.078ZM178.999 142.27C178.291 142.27 177.619 142.174 176.983 141.982C176.347 141.79 175.825 141.568 175.417 141.316L175.507 138.76H176.623L177.109 141.514L175.939 141.082V140.182C176.299 140.434 176.629 140.65 176.929 140.83C177.229 140.998 177.535 141.124 177.847 141.208C178.171 141.292 178.543 141.334 178.963 141.334C179.539 141.334 180.037 141.25 180.457 141.082C180.877 140.902 181.195 140.65 181.411 140.326C181.639 140.002 181.753 139.618 181.753 139.174C181.753 138.79 181.675 138.466 181.519 138.202C181.363 137.938 181.123 137.704 180.799 137.5C180.475 137.296 180.055 137.098 179.539 136.906L178.837 136.636C178.213 136.384 177.661 136.096 177.181 135.772C176.701 135.448 176.323 135.058 176.047 134.602C175.783 134.146 175.651 133.606 175.651 132.982C175.651 132.286 175.825 131.692 176.173 131.2C176.533 130.708 177.019 130.33 177.631 130.066C178.255 129.802 178.957 129.67 179.737 129.67C180.373 129.67 180.943 129.76 181.447 129.94C181.963 130.108 182.401 130.324 182.761 130.588L182.671 133H181.573L181.051 130.3L182.221 130.786V131.722C181.789 131.326 181.375 131.044 180.979 130.876C180.595 130.696 180.151 130.606 179.647 130.606C179.179 130.606 178.759 130.684 178.387 130.84C178.027 130.996 177.739 131.224 177.523 131.524C177.319 131.824 177.217 132.184 177.217 132.604C177.217 132.976 177.295 133.3 177.451 133.576C177.619 133.852 177.853 134.098 178.153 134.314C178.465 134.518 178.843 134.71 179.287 134.89L179.989 135.142C180.769 135.442 181.405 135.766 181.897 136.114C182.389 136.45 182.749 136.84 182.977 137.284C183.217 137.716 183.337 138.232 183.337 138.832C183.337 139.54 183.151 140.152 182.779 140.668C182.419 141.184 181.915 141.58 181.267 141.856C180.619 142.132 179.863 142.27 178.999 142.27ZM189.141 142.234C188.421 142.234 187.737 142.066 187.089 141.73C186.453 141.394 185.937 140.89 185.541 140.218C185.145 139.534 184.947 138.7 184.947 137.716C184.947 136.72 185.145 135.88 185.541 135.196C185.937 134.512 186.453 133.996 187.089 133.648C187.737 133.3 188.421 133.126 189.141 133.126C189.861 133.126 190.539 133.3 191.175 133.648C191.823 133.984 192.345 134.494 192.741 135.178C193.149 135.862 193.353 136.702 193.353 137.698C193.353 138.682 193.149 139.516 192.741 140.2C192.345 140.872 191.823 141.382 191.175 141.73C190.539 142.066 189.861 142.234 189.141 142.234ZM189.141 141.37C189.669 141.37 190.113 141.232 190.473 140.956C190.845 140.68 191.127 140.272 191.319 139.732C191.523 139.192 191.625 138.52 191.625 137.716C191.625 136.9 191.523 136.216 191.319 135.664C191.127 135.112 190.845 134.698 190.473 134.422C190.113 134.134 189.669 133.99 189.141 133.99C188.613 133.99 188.163 134.134 187.791 134.422C187.431 134.698 187.155 135.112 186.963 135.664C186.771 136.204 186.675 136.882 186.675 137.698C186.675 138.514 186.771 139.192 186.963 139.732C187.155 140.272 187.431 140.68 187.791 140.956C188.163 141.232 188.613 141.37 189.141 141.37ZM202.526 134.332V133.342H205.766V134.332H202.526ZM203.84 142.216C203.192 142.216 202.676 142.042 202.292 141.694C201.908 141.346 201.716 140.812 201.716 140.092C201.716 139.864 201.716 139.642 201.716 139.426C201.728 139.21 201.734 138.94 201.734 138.616V134.332H199.88V133.342H202.472L201.77 133.828L202.346 130.894H203.426L203.282 133.792L203.3 134.098V139.894C203.3 140.362 203.39 140.704 203.57 140.92C203.762 141.124 204.014 141.226 204.326 141.226C204.542 141.226 204.746 141.184 204.938 141.1C205.13 141.016 205.334 140.908 205.55 140.776L205.946 141.316C205.814 141.496 205.64 141.658 205.424 141.802C205.22 141.934 204.98 142.036 204.704 142.108C204.44 142.18 204.152 142.216 203.84 142.216ZM194.84 142V141.28L196.82 140.974H197.378L199.556 141.28V142H194.84ZM196.262 142C196.274 141.58 196.28 141.16 196.28 140.74C196.292 140.308 196.298 139.882 196.298 139.462C196.31 139.03 196.316 138.604 196.316 138.184V134.332H194.804V133.522L196.856 133.252L196.316 133.612L196.334 133.432C196.394 132.784 196.472 132.22 196.568 131.74C196.676 131.26 196.826 130.834 197.018 130.462C197.222 130.09 197.492 129.748 197.828 129.436C198.188 129.1 198.566 128.866 198.962 128.734C199.37 128.59 199.79 128.518 200.222 128.518C200.654 128.518 201.032 128.596 201.356 128.752C201.68 128.908 201.884 129.16 201.968 129.508C201.956 129.736 201.854 129.934 201.662 130.102C201.482 130.258 201.224 130.336 200.888 130.336C200.636 130.336 200.402 130.282 200.186 130.174C199.982 130.066 199.766 129.922 199.538 129.742L198.728 129.112L198.818 129.022H199.7L199.79 129.076C199.514 129.112 199.28 129.19 199.088 129.31C198.896 129.418 198.716 129.61 198.548 129.886C198.416 130.078 198.302 130.294 198.206 130.534C198.11 130.774 198.032 131.056 197.972 131.38C197.912 131.692 197.87 132.064 197.846 132.496C197.834 132.928 197.846 133.438 197.882 134.026V138.184C197.882 138.604 197.882 139.03 197.882 139.462C197.894 139.882 197.9 140.308 197.9 140.74C197.9 141.16 197.906 141.58 197.918 142H196.262ZM197.108 134.332V133.342H200.294V134.332H197.108ZM207.101 145.222L206.831 144.556C207.287 144.34 207.659 144.112 207.947 143.872C208.247 143.644 208.481 143.38 208.649 143.08C208.817 142.78 208.943 142.426 209.027 142.018L209.225 142.594L208.361 142.09C208.073 141.958 207.857 141.802 207.713 141.622C207.581 141.43 207.515 141.208 207.515 140.956C207.515 140.608 207.617 140.32 207.821 140.092C208.025 139.852 208.325 139.732 208.721 139.732C208.925 139.732 209.117 139.768 209.297 139.84C209.477 139.912 209.651 140.038 209.819 140.218C209.879 140.41 209.915 140.62 209.927 140.848C209.951 141.064 209.963 141.28 209.963 141.496C209.963 142.084 209.837 142.618 209.585 143.098C209.333 143.59 208.991 144.016 208.559 144.376C208.127 144.736 207.641 145.018 207.101 145.222ZM216.338 142V141.28L218.318 140.974H218.876L221.018 141.28V142H216.338ZM217.76 142C217.772 141.58 217.778 141.16 217.778 140.74C217.79 140.308 217.796 139.882 217.796 139.462C217.808 139.03 217.814 138.604 217.814 138.184V134.332H216.302V133.522L218.354 133.252L217.814 133.612C217.874 132.94 217.952 132.376 218.048 131.92C218.144 131.452 218.276 131.044 218.444 130.696C218.624 130.348 218.87 130.018 219.182 129.706C219.458 129.43 219.752 129.208 220.064 129.04C220.388 128.86 220.724 128.734 221.072 128.662C221.42 128.578 221.768 128.536 222.116 128.536C222.656 128.536 223.142 128.62 223.574 128.788C224.018 128.956 224.288 129.208 224.384 129.544C224.372 129.76 224.276 129.952 224.096 130.12C223.916 130.288 223.682 130.372 223.394 130.372C223.082 130.372 222.758 130.294 222.422 130.138C222.098 129.97 221.768 129.754 221.432 129.49L220.928 129.058L221.018 128.986H221.72L221.81 129.112C221.402 129.256 221.072 129.412 220.82 129.58C220.58 129.736 220.352 129.934 220.136 130.174C219.908 130.426 219.728 130.732 219.596 131.092C219.476 131.452 219.398 131.872 219.362 132.352C219.326 132.832 219.332 133.39 219.38 134.026V138.184C219.38 138.604 219.38 139.03 219.38 139.462C219.392 139.882 219.398 140.308 219.398 140.74C219.398 141.16 219.404 141.58 219.416 142H217.76ZM218.606 134.332V133.342H221.792V134.332H218.606ZM221.936 142V141.28L223.952 140.974H224.402L226.436 141.28V142H221.936ZM223.358 142C223.37 141.58 223.376 141.16 223.376 140.74C223.388 140.308 223.394 139.882 223.394 139.462C223.406 139.03 223.412 138.604 223.412 138.184V129.238L224.69 128.716L225.014 128.824L224.96 131.308V138.184C224.96 138.604 224.96 139.03 224.96 139.462C224.96 139.882 224.96 140.308 224.96 140.74C224.972 141.16 224.984 141.58 224.996 142H223.358ZM227.623 142V141.28L229.603 140.974H230.053L231.907 141.28V142H227.623ZM228.973 142C228.985 141.7 228.991 141.328 228.991 140.884C229.003 140.428 229.009 139.96 229.009 139.48C229.021 139 229.027 138.568 229.027 138.184V137.32C229.027 136.84 229.021 136.426 229.009 136.078C229.009 135.73 228.997 135.37 228.973 134.998L227.533 134.872V134.188L230.287 133.162L230.629 133.306L230.575 135.664V138.184C230.575 138.568 230.575 139 230.575 139.48C230.587 139.96 230.593 140.428 230.593 140.884C230.605 141.328 230.617 141.7 230.629 142H228.973ZM229.711 131.344C229.375 131.344 229.087 131.236 228.847 131.02C228.619 130.792 228.505 130.51 228.505 130.174C228.505 129.838 228.619 129.562 228.847 129.346C229.087 129.118 229.375 129.004 229.711 129.004C230.059 129.004 230.347 129.118 230.575 129.346C230.815 129.562 230.935 129.838 230.935 130.174C230.935 130.51 230.815 130.792 230.575 131.02C230.347 131.236 230.059 131.344 229.711 131.344ZM233.268 142V141.28L235.248 140.974H235.716L237.786 141.28V142H233.268ZM234.582 142C234.594 141.7 234.6 141.328 234.6 140.884C234.612 140.428 234.618 139.96 234.618 139.48C234.63 139 234.636 138.568 234.636 138.184V137.302C234.636 136.978 234.63 136.69 234.618 136.438C234.618 136.186 234.612 135.946 234.6 135.718C234.6 135.49 234.594 135.25 234.582 134.998L233.142 134.872V134.188L235.608 133.162L235.95 133.306L236.166 135.628L236.202 135.646V138.184C236.202 138.568 236.202 139 236.202 139.48C236.202 139.96 236.202 140.428 236.202 140.884C236.214 141.328 236.226 141.7 236.238 142H234.582ZM236.112 136.978L235.896 135.718H236.148C236.352 135.178 236.592 134.716 236.868 134.332C237.144 133.948 237.45 133.654 237.786 133.45C238.122 133.234 238.464 133.126 238.812 133.126C239.124 133.126 239.394 133.198 239.622 133.342C239.862 133.474 240.036 133.642 240.144 133.846C240.132 134.254 240.036 134.578 239.856 134.818C239.688 135.058 239.418 135.178 239.046 135.178C238.818 135.178 238.614 135.136 238.434 135.052C238.254 134.968 238.08 134.854 237.912 134.71L237.462 134.278L238.362 134.152C237.786 134.44 237.318 134.824 236.958 135.304C236.61 135.772 236.328 136.33 236.112 136.978ZM243.153 134.332V133.342H246.411V134.332H243.153ZM244.485 142.216C243.837 142.216 243.321 142.042 242.937 141.694C242.553 141.346 242.361 140.812 242.361 140.092C242.361 139.864 242.361 139.642 242.361 139.426C242.373 139.21 242.379 138.94 242.379 138.616V134.332H240.849V133.522L243.117 133.252L242.397 133.828L242.973 130.894H244.071L243.909 133.792L243.945 134.098V139.894C243.945 140.362 244.035 140.704 244.215 140.92C244.407 141.124 244.659 141.226 244.971 141.226C245.187 141.226 245.385 141.184 245.565 141.1C245.757 141.016 245.961 140.908 246.177 140.776L246.591 141.316C246.447 141.496 246.267 141.658 246.051 141.802C245.847 141.934 245.613 142.036 245.349 142.108C245.085 142.18 244.797 142.216 244.485 142.216ZM248.426 146.464C248.102 146.464 247.808 146.41 247.544 146.302C247.292 146.206 247.088 146.062 246.932 145.87C246.788 145.69 246.71 145.492 246.698 145.276C246.758 145.024 246.902 144.826 247.13 144.682C247.358 144.55 247.616 144.484 247.904 144.484C248.168 144.484 248.402 144.538 248.606 144.646C248.81 144.754 249.032 144.928 249.272 145.168L249.812 145.726L249.164 146.05L248.876 145.708C249.248 145.504 249.572 145.246 249.848 144.934C250.136 144.622 250.388 144.268 250.604 143.872C250.82 143.476 251.006 143.068 251.162 142.648L251.45 141.856L251.594 141.748L253.142 137.212L254.528 133.342H255.59L252.278 142C251.882 143.032 251.492 143.878 251.108 144.538C250.724 145.198 250.316 145.684 249.884 145.996C249.452 146.308 248.966 146.464 248.426 146.464ZM251.36 143.044L247.508 133.342H249.29L252.026 140.812L252.242 141.118L251.36 143.044ZM246.806 134.062V133.342H251.234V134.08L249.092 134.314H248.588L246.806 134.062ZM252.638 134.062V133.342H256.274V134.062L254.924 134.314H254.51L252.638 134.062ZM255.74 145.222L255.47 144.556C255.926 144.34 256.298 144.112 256.586 143.872C256.886 143.644 257.12 143.38 257.288 143.08C257.456 142.78 257.582 142.426 257.666 142.018L257.864 142.594L257 142.09C256.712 141.958 256.496 141.802 256.352 141.622C256.22 141.43 256.154 141.208 256.154 140.956C256.154 140.608 256.256 140.32 256.46 140.092C256.664 139.852 256.964 139.732 257.36 139.732C257.564 139.732 257.756 139.768 257.936 139.84C258.116 139.912 258.29 140.038 258.458 140.218C258.518 140.41 258.554 140.62 258.566 140.848C258.59 141.064 258.602 141.28 258.602 141.496C258.602 142.084 258.476 142.618 258.224 143.098C257.972 143.59 257.63 144.016 257.198 144.376C256.766 144.736 256.28 145.018 255.74 145.222ZM267.569 142.252C266.897 142.252 266.321 142.06 265.841 141.676C265.373 141.28 265.139 140.71 265.139 139.966C265.139 139.582 265.217 139.234 265.373 138.922C265.541 138.598 265.835 138.298 266.255 138.022C266.687 137.746 267.299 137.494 268.091 137.266C268.427 137.158 268.751 137.062 269.063 136.978C269.387 136.882 269.705 136.792 270.017 136.708C270.341 136.612 270.665 136.522 270.989 136.438V137.104C270.569 137.236 270.155 137.368 269.747 137.5C269.339 137.632 268.931 137.764 268.523 137.896C268.007 138.064 267.623 138.25 267.371 138.454C267.119 138.646 266.951 138.85 266.867 139.066C266.795 139.27 266.759 139.48 266.759 139.696C266.759 140.152 266.897 140.488 267.173 140.704C267.449 140.92 267.797 141.028 268.217 141.028C268.457 141.028 268.679 140.992 268.883 140.92C269.087 140.836 269.327 140.698 269.603 140.506C269.891 140.302 270.257 140.026 270.701 139.678L270.917 140.614H270.341C270.017 140.962 269.717 141.256 269.441 141.496C269.177 141.736 268.895 141.922 268.595 142.054C268.307 142.186 267.965 142.252 267.569 142.252ZM271.961 142.18C271.457 142.18 271.049 142.018 270.737 141.694C270.437 141.358 270.281 140.896 270.269 140.308V140.236V136.168C270.269 135.592 270.209 135.148 270.089 134.836C269.969 134.512 269.777 134.29 269.513 134.17C269.249 134.038 268.913 133.972 268.505 133.972C268.265 133.972 268.007 133.996 267.731 134.044C267.467 134.092 267.173 134.182 266.849 134.314L267.587 133.684L267.191 135.25C267.119 135.55 267.005 135.778 266.849 135.934C266.693 136.09 266.489 136.168 266.237 136.168C265.973 136.168 265.769 136.102 265.625 135.97C265.481 135.826 265.391 135.646 265.355 135.43C265.523 134.722 265.925 134.164 266.561 133.756C267.209 133.336 268.001 133.126 268.937 133.126C269.573 133.126 270.101 133.228 270.521 133.432C270.941 133.636 271.259 133.966 271.475 134.422C271.703 134.878 271.817 135.484 271.817 136.24V140.128C271.817 140.512 271.877 140.788 271.997 140.956C272.117 141.112 272.285 141.19 272.501 141.19C272.657 141.19 272.789 141.16 272.897 141.1C273.005 141.028 273.107 140.938 273.203 140.83L273.545 141.316C273.341 141.616 273.107 141.838 272.843 141.982C272.591 142.114 272.297 142.18 271.961 142.18ZM274.33 142V141.28L276.31 140.974H276.742L278.578 141.28V142H274.33ZM275.68 142C275.68 141.7 275.68 141.328 275.68 140.884C275.692 140.428 275.698 139.96 275.698 139.48C275.71 139 275.716 138.568 275.716 138.184V137.302C275.716 136.978 275.71 136.69 275.698 136.438C275.698 136.186 275.692 135.946 275.68 135.718C275.68 135.49 275.68 135.25 275.68 134.998L274.222 134.872V134.188L276.688 133.162L277.03 133.306L277.264 135.34L277.282 135.358V138.184C277.282 138.568 277.282 139 277.282 139.48C277.294 139.96 277.3 140.428 277.3 140.884C277.312 141.328 277.318 141.7 277.318 142H275.68ZM279.928 142V141.28L281.908 140.974H282.34L284.194 141.28V142H279.928ZM281.26 142C281.272 141.7 281.278 141.328 281.278 140.884C281.29 140.44 281.296 139.978 281.296 139.498C281.308 139.018 281.314 138.58 281.314 138.184V136.582C281.314 135.778 281.194 135.226 280.954 134.926C280.714 134.614 280.324 134.458 279.784 134.458C279.496 134.458 279.208 134.5 278.92 134.584C278.632 134.668 278.338 134.8 278.038 134.98C277.738 135.16 277.42 135.394 277.084 135.682L276.886 134.98H277.12C277.408 134.62 277.732 134.302 278.092 134.026C278.452 133.75 278.836 133.534 279.244 133.378C279.652 133.21 280.06 133.126 280.468 133.126C281.272 133.126 281.872 133.39 282.268 133.918C282.664 134.434 282.862 135.262 282.862 136.402V138.184C282.862 138.58 282.862 139.018 282.862 139.498C282.874 139.978 282.88 140.44 282.88 140.884C282.88 141.328 282.886 141.7 282.898 142H281.26ZM289.237 142.234C288.505 142.234 287.857 142.048 287.293 141.676C286.741 141.304 286.309 140.782 285.997 140.11C285.697 139.438 285.547 138.652 285.547 137.752C285.547 136.804 285.715 135.988 286.051 135.304C286.387 134.608 286.843 134.074 287.419 133.702C287.995 133.318 288.643 133.126 289.363 133.126C289.711 133.126 290.035 133.18 290.335 133.288C290.635 133.384 290.917 133.546 291.181 133.774C291.457 133.99 291.721 134.278 291.973 134.638H292.369L292.225 135.628C291.709 135.088 291.253 134.71 290.857 134.494C290.473 134.278 290.083 134.17 289.687 134.17C289.243 134.17 288.829 134.296 288.445 134.548C288.073 134.788 287.773 135.172 287.545 135.7C287.317 136.216 287.203 136.882 287.203 137.698C287.203 138.49 287.311 139.144 287.527 139.66C287.743 140.164 288.037 140.542 288.409 140.794C288.793 141.034 289.225 141.154 289.705 141.154C290.197 141.154 290.629 141.034 291.001 140.794C291.373 140.542 291.769 140.14 292.189 139.588L292.315 140.56H291.973C291.769 140.896 291.535 141.19 291.271 141.442C291.007 141.694 290.707 141.886 290.371 142.018C290.047 142.162 289.669 142.234 289.237 142.234ZM291.991 142.162L291.811 140.308V140.272V135.016L291.865 134.818L291.847 130.354L290.299 130.138V129.454L293.089 128.716L293.413 128.824L293.359 131.308V141.064L294.817 141.298V142L291.991 142.162ZM304.472 142.234C303.608 142.234 302.858 142.06 302.222 141.712C301.598 141.352 301.112 140.842 300.764 140.182C300.428 139.51 300.26 138.712 300.26 137.788C300.26 136.852 300.44 136.036 300.8 135.34C301.172 134.644 301.67 134.104 302.294 133.72C302.93 133.324 303.632 133.126 304.4 133.126C305.072 133.126 305.666 133.264 306.182 133.54C306.698 133.816 307.106 134.212 307.406 134.728C307.706 135.244 307.856 135.868 307.856 136.6C307.856 136.816 307.844 137.02 307.82 137.212C307.796 137.392 307.766 137.548 307.73 137.68H301.034V136.888H305.354C305.774 136.864 306.044 136.768 306.164 136.6C306.284 136.42 306.344 136.21 306.344 135.97C306.344 135.538 306.266 135.178 306.11 134.89C305.954 134.59 305.732 134.368 305.444 134.224C305.156 134.068 304.808 133.99 304.4 133.99C303.98 133.99 303.572 134.11 303.176 134.35C302.792 134.59 302.48 134.974 302.24 135.502C302 136.018 301.88 136.708 301.88 137.572C301.88 138.316 302 138.946 302.24 139.462C302.48 139.978 302.822 140.374 303.266 140.65C303.722 140.914 304.256 141.046 304.868 141.046C305.456 141.046 305.96 140.944 306.38 140.74C306.812 140.536 307.208 140.236 307.568 139.84L308 140.2C307.748 140.596 307.466 140.95 307.154 141.262C306.842 141.574 306.47 141.814 306.038 141.982C305.618 142.15 305.096 142.234 304.472 142.234ZM309.486 142V141.28L311.466 140.974H311.898L313.734 141.28V142H309.486ZM310.836 142C310.836 141.7 310.836 141.328 310.836 140.884C310.848 140.428 310.854 139.96 310.854 139.48C310.866 139 310.872 138.568 310.872 138.184V137.302C310.872 136.978 310.866 136.69 310.854 136.438C310.854 136.186 310.848 135.946 310.836 135.718C310.836 135.49 310.836 135.25 310.836 134.998L309.378 134.872V134.188L311.844 133.162L312.186 133.306L312.42 135.34L312.438 135.358V138.184C312.438 138.568 312.438 139 312.438 139.48C312.45 139.96 312.456 140.428 312.456 140.884C312.468 141.328 312.474 141.7 312.474 142H310.836ZM315.084 142V141.28L317.064 140.974H317.496L319.35 141.28V142H315.084ZM316.416 142C316.428 141.7 316.434 141.328 316.434 140.884C316.446 140.44 316.452 139.978 316.452 139.498C316.464 139.018 316.47 138.58 316.47 138.184V136.582C316.47 135.778 316.35 135.226 316.11 134.926C315.87 134.614 315.48 134.458 314.94 134.458C314.652 134.458 314.364 134.5 314.076 134.584C313.788 134.668 313.494 134.8 313.194 134.98C312.894 135.16 312.576 135.394 312.24 135.682L312.042 134.98H312.276C312.564 134.62 312.888 134.302 313.248 134.026C313.608 133.75 313.992 133.534 314.4 133.378C314.808 133.21 315.216 133.126 315.624 133.126C316.428 133.126 317.028 133.39 317.424 133.918C317.82 134.434 318.018 135.262 318.018 136.402V138.184C318.018 138.58 318.018 139.018 318.018 139.498C318.03 139.978 318.036 140.44 318.036 140.884C318.036 141.328 318.042 141.7 318.054 142H316.416ZM324.393 142.234C323.661 142.234 323.013 142.048 322.449 141.676C321.897 141.304 321.465 140.782 321.153 140.11C320.853 139.438 320.703 138.652 320.703 137.752C320.703 136.804 320.871 135.988 321.207 135.304C321.543 134.608 321.999 134.074 322.575 133.702C323.151 133.318 323.799 133.126 324.519 133.126C324.867 133.126 325.191 133.18 325.491 133.288C325.791 133.384 326.073 133.546 326.337 133.774C326.613 133.99 326.877 134.278 327.129 134.638H327.525L327.381 135.628C326.865 135.088 326.409 134.71 326.013 134.494C325.629 134.278 325.239 134.17 324.843 134.17C324.399 134.17 323.985 134.296 323.601 134.548C323.229 134.788 322.929 135.172 322.701 135.7C322.473 136.216 322.359 136.882 322.359 137.698C322.359 138.49 322.467 139.144 322.683 139.66C322.899 140.164 323.193 140.542 323.565 140.794C323.949 141.034 324.381 141.154 324.861 141.154C325.353 141.154 325.785 141.034 326.157 140.794C326.529 140.542 326.925 140.14 327.345 139.588L327.471 140.56H327.129C326.925 140.896 326.691 141.19 326.427 141.442C326.163 141.694 325.863 141.886 325.527 142.018C325.203 142.162 324.825 142.234 324.393 142.234ZM327.147 142.162L326.967 140.308V140.272V135.016L327.021 134.818L327.003 130.354L325.455 130.138V129.454L328.245 128.716L328.569 128.824L328.515 131.308V141.064L329.973 141.298V142L327.147 142.162ZM330.891 142V141.28L332.925 140.974H333.357L335.409 141.28V142H330.891ZM332.331 142C332.343 141.58 332.349 141.16 332.349 140.74C332.349 140.308 332.349 139.882 332.349 139.462C332.361 139.03 332.367 138.604 332.367 138.184V130.354L330.873 130.138V129.454L333.645 128.716L333.987 128.824L333.915 131.308V138.184C333.915 138.604 333.915 139.03 333.915 139.462C333.927 139.882 333.933 140.308 333.933 140.74C333.945 141.16 333.957 141.58 333.969 142H332.331ZM340.946 142.234C340.082 142.234 339.332 142.06 338.696 141.712C338.072 141.352 337.586 140.842 337.238 140.182C336.902 139.51 336.734 138.712 336.734 137.788C336.734 136.852 336.914 136.036 337.274 135.34C337.646 134.644 338.144 134.104 338.768 133.72C339.404 133.324 340.106 133.126 340.874 133.126C341.546 133.126 342.14 133.264 342.656 133.54C343.172 133.816 343.58 134.212 343.88 134.728C344.18 135.244 344.33 135.868 344.33 136.6C344.33 136.816 344.318 137.02 344.294 137.212C344.27 137.392 344.24 137.548 344.204 137.68H337.508V136.888H341.828C342.248 136.864 342.518 136.768 342.638 136.6C342.758 136.42 342.818 136.21 342.818 135.97C342.818 135.538 342.74 135.178 342.584 134.89C342.428 134.59 342.206 134.368 341.918 134.224C341.63 134.068 341.282 133.99 340.874 133.99C340.454 133.99 340.046 134.11 339.65 134.35C339.266 134.59 338.954 134.974 338.714 135.502C338.474 136.018 338.354 136.708 338.354 137.572C338.354 138.316 338.474 138.946 338.714 139.462C338.954 139.978 339.296 140.374 339.74 140.65C340.196 140.914 340.73 141.046 341.342 141.046C341.93 141.046 342.434 140.944 342.854 140.74C343.286 140.536 343.682 140.236 344.042 139.84L344.474 140.2C344.222 140.596 343.94 140.95 343.628 141.262C343.316 141.574 342.944 141.814 342.512 141.982C342.092 142.15 341.57 142.234 340.946 142.234ZM348.931 142.234C348.391 142.234 347.899 142.174 347.455 142.054C347.011 141.946 346.573 141.784 346.141 141.568L346.069 139.516H347.095L347.563 141.676H346.771V140.74C347.071 140.956 347.401 141.118 347.761 141.226C348.121 141.334 348.517 141.388 348.949 141.388C349.417 141.388 349.801 141.328 350.101 141.208C350.401 141.088 350.617 140.926 350.749 140.722C350.893 140.506 350.965 140.266 350.965 140.002C350.965 139.606 350.827 139.294 350.551 139.066C350.275 138.838 349.849 138.628 349.273 138.436L348.535 138.148C348.055 137.98 347.635 137.788 347.275 137.572C346.927 137.344 346.657 137.074 346.465 136.762C346.285 136.45 346.195 136.084 346.195 135.664C346.195 135.208 346.315 134.788 346.555 134.404C346.807 134.02 347.173 133.714 347.653 133.486C348.145 133.246 348.727 133.126 349.399 133.126C349.903 133.126 350.365 133.186 350.785 133.306C351.217 133.426 351.619 133.6 351.991 133.828L351.937 135.736H350.965L350.587 133.846H351.271V134.62C350.983 134.404 350.683 134.242 350.371 134.134C350.059 134.026 349.735 133.972 349.399 133.972C348.823 133.972 348.391 134.086 348.103 134.314C347.815 134.542 347.671 134.842 347.671 135.214C347.671 135.598 347.797 135.898 348.049 136.114C348.301 136.318 348.733 136.528 349.345 136.744L349.885 136.942C350.497 137.146 350.995 137.386 351.379 137.662C351.763 137.926 352.039 138.22 352.207 138.544C352.387 138.856 352.477 139.216 352.477 139.624C352.477 140.092 352.339 140.524 352.063 140.92C351.799 141.316 351.403 141.634 350.875 141.874C350.359 142.114 349.711 142.234 348.931 142.234ZM356.929 142.234C356.389 142.234 355.897 142.174 355.453 142.054C355.009 141.946 354.571 141.784 354.139 141.568L354.067 139.516H355.093L355.561 141.676H354.769V140.74C355.069 140.956 355.399 141.118 355.759 141.226C356.119 141.334 356.515 141.388 356.947 141.388C357.415 141.388 357.799 141.328 358.099 141.208C358.399 141.088 358.615 140.926 358.747 140.722C358.891 140.506 358.963 140.266 358.963 140.002C358.963 139.606 358.825 139.294 358.549 139.066C358.273 138.838 357.847 138.628 357.271 138.436L356.533 138.148C356.053 137.98 355.633 137.788 355.273 137.572C354.925 137.344 354.655 137.074 354.463 136.762C354.283 136.45 354.193 136.084 354.193 135.664C354.193 135.208 354.313 134.788 354.553 134.404C354.805 134.02 355.171 133.714 355.651 133.486C356.143 133.246 356.725 133.126 357.397 133.126C357.901 133.126 358.363 133.186 358.783 133.306C359.215 133.426 359.617 133.6 359.989 133.828L359.935 135.736H358.963L358.585 133.846H359.269V134.62C358.981 134.404 358.681 134.242 358.369 134.134C358.057 134.026 357.733 133.972 357.397 133.972C356.821 133.972 356.389 134.086 356.101 134.314C355.813 134.542 355.669 134.842 355.669 135.214C355.669 135.598 355.795 135.898 356.047 136.114C356.299 136.318 356.731 136.528 357.343 136.744L357.883 136.942C358.495 137.146 358.993 137.386 359.377 137.662C359.761 137.926 360.037 138.22 360.205 138.544C360.385 138.856 360.475 139.216 360.475 139.624C360.475 140.092 360.337 140.524 360.061 140.92C359.797 141.316 359.401 141.634 358.873 141.874C358.357 142.114 357.709 142.234 356.929 142.234ZM361.565 142V141.28L363.599 140.974H364.031L366.083 141.28V142H361.565ZM363.005 142C363.017 141.58 363.023 141.16 363.023 140.74C363.023 140.308 363.023 139.882 363.023 139.462C363.035 139.03 363.041 138.604 363.041 138.184V130.354L361.547 130.138V129.454L364.319 128.716L364.661 128.824L364.589 131.308V138.184C364.589 138.604 364.589 139.03 364.589 139.462C364.601 139.882 364.607 140.308 364.607 140.74C364.619 141.16 364.631 141.58 364.643 142H363.005ZM368.062 146.464C367.738 146.464 367.444 146.41 367.18 146.302C366.928 146.206 366.724 146.062 366.568 145.87C366.424 145.69 366.346 145.492 366.334 145.276C366.394 145.024 366.538 144.826 366.766 144.682C366.994 144.55 367.252 144.484 367.54 144.484C367.804 144.484 368.038 144.538 368.242 144.646C368.446 144.754 368.668 144.928 368.908 145.168L369.448 145.726L368.8 146.05L368.512 145.708C368.884 145.504 369.208 145.246 369.484 144.934C369.772 144.622 370.024 144.268 370.24 143.872C370.456 143.476 370.642 143.068 370.798 142.648L371.086 141.856L371.23 141.748L372.778 137.212L374.164 133.342H375.226L371.914 142C371.518 143.032 371.128 143.878 370.744 144.538C370.36 145.198 369.952 145.684 369.52 145.996C369.088 146.308 368.602 146.464 368.062 146.464ZM370.996 143.044L367.144 133.342H368.926L371.662 140.812L371.878 141.118L370.996 143.044ZM366.442 134.062V133.342H370.87V134.08L368.728 134.314H368.224L366.442 134.062ZM372.274 134.062V133.342H375.91V134.062L374.56 134.314H374.146L372.274 134.062ZM385.189 142.234C384.325 142.234 383.581 142.054 382.957 141.694C382.333 141.334 381.853 140.824 381.517 140.164C381.193 139.492 381.031 138.694 381.031 137.77C381.031 136.81 381.223 135.982 381.607 135.286C381.991 134.59 382.507 134.056 383.155 133.684C383.803 133.312 384.499 133.126 385.243 133.126C385.819 133.126 386.341 133.228 386.809 133.432C387.277 133.624 387.661 133.894 387.961 134.242C388.261 134.59 388.453 134.98 388.537 135.412C388.489 135.64 388.393 135.82 388.249 135.952C388.117 136.084 387.931 136.15 387.691 136.15C387.379 136.15 387.145 136.066 386.989 135.898C386.845 135.718 386.737 135.502 386.665 135.25L386.215 133.666L387.133 134.422C386.845 134.266 386.551 134.152 386.251 134.08C385.951 134.008 385.651 133.972 385.351 133.972C384.835 133.972 384.373 134.11 383.965 134.386C383.557 134.662 383.233 135.07 382.993 135.61C382.765 136.15 382.651 136.81 382.651 137.59C382.651 138.382 382.783 139.036 383.047 139.552C383.311 140.056 383.659 140.428 384.091 140.668C384.535 140.908 385.027 141.028 385.567 141.028C385.903 141.028 386.215 140.992 386.503 140.92C386.791 140.836 387.067 140.704 387.331 140.524C387.607 140.344 387.871 140.11 388.123 139.822L388.591 140.218C388.363 140.626 388.093 140.98 387.781 141.28C387.481 141.58 387.121 141.814 386.701 141.982C386.281 142.15 385.777 142.234 385.189 142.234ZM389.514 142V141.28L391.548 140.974H391.98L394.032 141.28V142H389.514ZM390.954 142C390.966 141.58 390.972 141.16 390.972 140.74C390.972 140.308 390.972 139.882 390.972 139.462C390.984 139.03 390.99 138.604 390.99 138.184V130.354L389.496 130.138V129.454L392.268 128.716L392.61 128.824L392.538 131.308V138.184C392.538 138.604 392.538 139.03 392.538 139.462C392.55 139.882 392.556 140.308 392.556 140.74C392.568 141.16 392.58 141.58 392.592 142H390.954ZM395.195 142V141.28L397.175 140.974H397.625L399.479 141.28V142H395.195ZM396.545 142C396.557 141.7 396.563 141.328 396.563 140.884C396.575 140.428 396.581 139.96 396.581 139.48C396.593 139 396.599 138.568 396.599 138.184V137.32C396.599 136.84 396.593 136.426 396.581 136.078C396.581 135.73 396.569 135.37 396.545 134.998L395.105 134.872V134.188L397.859 133.162L398.201 133.306L398.147 135.664V138.184C398.147 138.568 398.147 139 398.147 139.48C398.159 139.96 398.165 140.428 398.165 140.884C398.177 141.328 398.189 141.7 398.201 142H396.545ZM397.283 131.344C396.947 131.344 396.659 131.236 396.419 131.02C396.191 130.792 396.077 130.51 396.077 130.174C396.077 129.838 396.191 129.562 396.419 129.346C396.659 129.118 396.947 129.004 397.283 129.004C397.631 129.004 397.919 129.118 398.147 129.346C398.387 129.562 398.507 129.838 398.507 130.174C398.507 130.51 398.387 130.792 398.147 131.02C397.919 131.236 397.631 131.344 397.283 131.344ZM400.804 142V141.28L402.784 140.974H403.216L405.052 141.28V142H400.804ZM402.154 142C402.154 141.7 402.154 141.328 402.154 140.884C402.166 140.428 402.172 139.96 402.172 139.48C402.184 139 402.19 138.568 402.19 138.184V137.302C402.19 136.978 402.184 136.69 402.172 136.438C402.172 136.186 402.166 135.946 402.154 135.718C402.154 135.49 402.154 135.25 402.154 134.998L400.696 134.872V134.188L403.162 133.162L403.504 133.306L403.738 135.34L403.756 135.358V138.184C403.756 138.568 403.756 139 403.756 139.48C403.768 139.96 403.774 140.428 403.774 140.884C403.786 141.328 403.792 141.7 403.792 142H402.154ZM406.402 142V141.28L408.382 140.974H408.814L410.668 141.28V142H406.402ZM407.734 142C407.746 141.7 407.752 141.328 407.752 140.884C407.764 140.44 407.77 139.978 407.77 139.498C407.782 139.018 407.788 138.58 407.788 138.184V136.582C407.788 135.778 407.668 135.226 407.428 134.926C407.188 134.614 406.798 134.458 406.258 134.458C405.97 134.458 405.682 134.5 405.394 134.584C405.106 134.668 404.812 134.8 404.512 134.98C404.212 135.16 403.894 135.394 403.558 135.682L403.36 134.98H403.594C403.882 134.62 404.206 134.302 404.566 134.026C404.926 133.75 405.31 133.534 405.718 133.378C406.126 133.21 406.534 133.126 406.942 133.126C407.746 133.126 408.346 133.39 408.742 133.918C409.138 134.434 409.336 135.262 409.336 136.402V138.184C409.336 138.58 409.336 139.018 409.336 139.498C409.348 139.978 409.354 140.44 409.354 140.884C409.354 141.328 409.36 141.7 409.372 142H407.734ZM415.477 146.302C414.649 146.302 413.965 146.206 413.425 146.014C412.885 145.822 412.483 145.558 412.219 145.222C411.955 144.886 411.823 144.508 411.823 144.088C411.823 143.776 411.901 143.488 412.057 143.224C412.213 142.972 412.465 142.726 412.813 142.486C413.173 142.258 413.653 142.036 414.253 141.82L414.361 141.928C414.133 142.132 413.941 142.336 413.785 142.54C413.629 142.744 413.515 142.942 413.443 143.134C413.383 143.338 413.353 143.56 413.353 143.8C413.353 144.16 413.443 144.46 413.623 144.7C413.815 144.952 414.085 145.132 414.433 145.24C414.793 145.36 415.225 145.42 415.729 145.42C416.389 145.42 416.941 145.336 417.385 145.168C417.841 145 418.183 144.778 418.411 144.502C418.651 144.226 418.771 143.92 418.771 143.584C418.771 143.188 418.627 142.858 418.339 142.594C418.063 142.342 417.607 142.216 416.971 142.216H414.793C414.637 142.216 414.469 142.21 414.289 142.198C414.121 142.186 413.959 142.168 413.803 142.144V142.018C413.347 141.922 412.993 141.76 412.741 141.532C412.501 141.304 412.381 140.992 412.381 140.596C412.381 140.284 412.495 139.966 412.723 139.642C412.951 139.318 413.323 138.958 413.839 138.562V138.292L414.559 138.526C414.271 138.802 414.061 139.048 413.929 139.264C413.797 139.468 413.731 139.678 413.731 139.894C413.731 140.218 413.833 140.458 414.037 140.614C414.253 140.77 414.583 140.848 415.027 140.848H417.241C417.901 140.848 418.447 140.944 418.879 141.136C419.311 141.316 419.629 141.58 419.833 141.928C420.049 142.264 420.157 142.672 420.157 143.152C420.157 143.56 420.055 143.95 419.851 144.322C419.647 144.694 419.347 145.03 418.951 145.33C418.555 145.63 418.063 145.864 417.475 146.032C416.887 146.212 416.221 146.302 415.477 146.302ZM415.567 139.066C414.919 139.066 414.343 138.952 413.839 138.724C413.347 138.496 412.957 138.166 412.669 137.734C412.381 137.29 412.237 136.744 412.237 136.096C412.237 135.472 412.381 134.938 412.669 134.494C412.957 134.05 413.353 133.714 413.857 133.486C414.361 133.246 414.931 133.126 415.567 133.126C415.963 133.126 416.323 133.168 416.647 133.252C416.971 133.336 417.259 133.456 417.511 133.612C417.775 133.756 417.997 133.942 418.177 134.17L418.249 134.188C418.453 134.428 418.609 134.704 418.717 135.016C418.825 135.328 418.879 135.688 418.879 136.096C418.879 136.708 418.735 137.242 418.447 137.698C418.171 138.142 417.781 138.484 417.277 138.724C416.773 138.952 416.203 139.066 415.567 139.066ZM415.531 138.31C415.915 138.31 416.245 138.214 416.521 138.022C416.797 137.818 417.007 137.548 417.151 137.212C417.307 136.876 417.385 136.486 417.385 136.042C417.385 135.61 417.313 135.238 417.169 134.926C417.025 134.602 416.815 134.35 416.539 134.17C416.275 133.99 415.957 133.9 415.585 133.9C415.213 133.9 414.889 133.996 414.613 134.188C414.337 134.368 414.121 134.626 413.965 134.962C413.821 135.286 413.749 135.67 413.749 136.114C413.749 136.546 413.821 136.93 413.965 137.266C414.109 137.59 414.313 137.848 414.577 138.04C414.841 138.22 415.159 138.31 415.531 138.31ZM417.565 134.53V134.026H417.781L419.923 133.09L420.301 133.252V134.53H417.565ZM422.678 146.464C422.354 146.464 422.06 146.41 421.796 146.302C421.544 146.206 421.34 146.062 421.184 145.87C421.04 145.69 420.962 145.492 420.95 145.276C421.01 145.024 421.154 144.826 421.382 144.682C421.61 144.55 421.868 144.484 422.156 144.484C422.42 144.484 422.654 144.538 422.858 144.646C423.062 144.754 423.284 144.928 423.524 145.168L424.064 145.726L423.416 146.05L423.128 145.708C423.5 145.504 423.824 145.246 424.1 144.934C424.388 144.622 424.64 144.268 424.856 143.872C425.072 143.476 425.258 143.068 425.414 142.648L425.702 141.856L425.846 141.748L427.394 137.212L428.78 133.342H429.842L426.53 142C426.134 143.032 425.744 143.878 425.36 144.538C424.976 145.198 424.568 145.684 424.136 145.996C423.704 146.308 423.218 146.464 422.678 146.464ZM425.612 143.044L421.76 133.342H423.542L426.278 140.812L426.494 141.118L425.612 143.044ZM421.058 134.062V133.342H425.486V134.08L423.344 134.314H422.84L421.058 134.062ZM426.89 134.062V133.342H430.526V134.062L429.176 134.314H428.762L426.89 134.062Z" fill="#2F2F2F"/>
<path d="M32.3335 211.071C32.3335 231.333 49.0811 242.131 61.3407 251.795C65.6668 255.206 69.8335 258.417 74.0002 258.417C78.1668 258.417 82.3335 255.206 86.6597 251.795C98.9193 242.131 115.667 231.333 115.667 211.071C115.667 190.809 92.7493 176.439 74.0002 195.919C55.2508 176.439 32.3335 190.809 32.3335 211.071Z" fill="#2F2F2F"/>
</svg>
