<svg width="538" height="316" viewBox="0 0 538 316" fill="none" xmlns="http://www.w3.org/2000/svg">
<rect width="538" height="316" rx="8" fill="#B3A793"/>
<rect x="24" y="57.5" width="70" height="22" rx="11" fill="#35545D"/>
<path d="M36.9791 71.208H35.0831L34.6871 73.5H33.7631L34.1591 71.208H32.7671V70.332H34.3151L34.6631 68.292H33.2711V67.416H34.8191L35.2151 65.124H36.1271L35.7311 67.416H37.6271L38.0231 65.124H38.9471L38.5511 67.416H39.9431V68.292H38.3951L38.0471 70.332H39.4391V71.208H37.8911L37.4951 73.5H36.5831L36.9791 71.208ZM37.1231 70.332L37.4831 68.292H35.5871L35.2271 70.332H37.1231ZM41.4519 65.124H44.4159C44.9519 65.124 45.4359 65.212 45.8679 65.388C46.3079 65.564 46.6799 65.828 46.9839 66.18C47.2959 66.524 47.5359 66.96 47.7039 67.488C47.8719 68.008 47.9559 68.616 47.9559 69.312C47.9559 70.008 47.8719 70.62 47.7039 71.148C47.5359 71.668 47.2959 72.104 46.9839 72.456C46.6799 72.8 46.3079 73.06 45.8679 73.236C45.4359 73.412 44.9519 73.5 44.4159 73.5H41.4519V65.124ZM44.4159 72.3C45.0399 72.3 45.5439 72.104 45.9279 71.712C46.3119 71.32 46.5039 70.744 46.5039 69.984V68.64C46.5039 67.88 46.3119 67.304 45.9279 66.912C45.5439 66.52 45.0399 66.324 44.4159 66.324H42.8079V72.3H44.4159ZM52.9193 73.5V71.868H49.0313V70.704L52.4273 65.124H54.2033V70.8H55.3433V71.868H54.2033V73.5H52.9193ZM50.1833 70.8H52.9193V66.36H52.8353L50.1833 70.8ZM59.9826 73.644C58.8866 73.644 58.0266 73.276 57.4026 72.54C56.7786 71.796 56.4666 70.72 56.4666 69.312C56.4666 68.608 56.5466 67.988 56.7066 67.452C56.8666 66.916 57.0986 66.464 57.4026 66.096C57.7066 65.728 58.0746 65.452 58.5066 65.268C58.9466 65.076 59.4386 64.98 59.9826 64.98C60.7106 64.98 61.3186 65.14 61.8066 65.46C62.3026 65.78 62.6906 66.252 62.9706 66.876L61.8306 67.5C61.6866 67.1 61.4626 66.784 61.1586 66.552C60.8626 66.312 60.4706 66.192 59.9826 66.192C59.3346 66.192 58.8266 66.412 58.4586 66.852C58.0906 67.292 57.9066 67.9 57.9066 68.676V69.948C57.9066 70.724 58.0906 71.332 58.4586 71.772C58.8266 72.212 59.3346 72.432 59.9826 72.432C60.4866 72.432 60.8946 72.304 61.2066 72.048C61.5266 71.784 61.7626 71.448 61.9146 71.04L63.0066 71.7C62.7266 72.308 62.3346 72.784 61.8306 73.128C61.3266 73.472 60.7106 73.644 59.9826 73.644ZM67.0121 73.644C66.5241 73.644 66.0921 73.584 65.7161 73.464C65.3481 73.336 65.0361 73.164 64.7801 72.948C64.5321 72.732 64.3401 72.476 64.2041 72.18C64.0761 71.884 64.0121 71.564 64.0121 71.22C64.0121 70.66 64.1641 70.212 64.4681 69.876C64.7801 69.532 65.1881 69.292 65.6921 69.156V69.06C65.2601 68.908 64.9121 68.668 64.6481 68.34C64.3921 68.012 64.2641 67.608 64.2641 67.128C64.2641 66.808 64.3241 66.516 64.4441 66.252C64.5721 65.988 64.7521 65.764 64.9841 65.58C65.2161 65.388 65.5041 65.24 65.8481 65.136C66.1921 65.032 66.5801 64.98 67.0121 64.98C67.4441 64.98 67.8321 65.032 68.1761 65.136C68.5201 65.24 68.8081 65.388 69.0401 65.58C69.2721 65.764 69.4481 65.988 69.5681 66.252C69.6961 66.516 69.7601 66.808 69.7601 67.128C69.7601 67.608 69.6281 68.012 69.3641 68.34C69.1081 68.668 68.7641 68.908 68.3321 69.06V69.156C68.8361 69.292 69.2401 69.532 69.5441 69.876C69.8561 70.212 70.0121 70.66 70.0121 71.22C70.0121 71.564 69.9441 71.884 69.8081 72.18C69.6801 72.476 69.4881 72.732 69.2321 72.948C68.9841 73.164 68.6721 73.336 68.2961 73.464C67.9281 73.584 67.5001 73.644 67.0121 73.644ZM67.0121 72.552C67.5161 72.552 67.9041 72.436 68.1761 72.204C68.4561 71.972 68.5961 71.648 68.5961 71.232V70.992C68.5961 70.576 68.4561 70.252 68.1761 70.02C67.9041 69.788 67.5161 69.672 67.0121 69.672C66.5081 69.672 66.1161 69.788 65.8361 70.02C65.5641 70.252 65.4281 70.576 65.4281 70.992V71.232C65.4281 71.648 65.5641 71.972 65.8361 72.204C66.1161 72.436 66.5081 72.552 67.0121 72.552ZM67.0121 68.628C67.4761 68.628 67.8281 68.528 68.0681 68.328C68.3161 68.128 68.4401 67.836 68.4401 67.452V67.248C68.4401 66.864 68.3161 66.572 68.0681 66.372C67.8281 66.172 67.4761 66.072 67.0121 66.072C66.5481 66.072 66.1921 66.172 65.9441 66.372C65.7041 66.572 65.5841 66.864 65.5841 67.248V67.452C65.5841 67.836 65.7041 68.128 65.9441 68.328C66.1921 68.528 66.5481 68.628 67.0121 68.628ZM71.6394 65.124H75.3474C76.0434 65.124 76.5874 65.32 76.9794 65.712C77.3794 66.104 77.5794 66.628 77.5794 67.284C77.5794 67.596 77.5354 67.864 77.4474 68.088C77.3594 68.304 77.2474 68.484 77.1114 68.628C76.9754 68.764 76.8194 68.868 76.6434 68.94C76.4674 69.004 76.2954 69.044 76.1274 69.06V69.132C76.2954 69.14 76.4794 69.18 76.6794 69.252C76.8874 69.324 77.0794 69.44 77.2554 69.6C77.4314 69.752 77.5794 69.952 77.6994 70.2C77.8194 70.44 77.8794 70.736 77.8794 71.088C77.8794 71.424 77.8234 71.74 77.7114 72.036C77.6074 72.332 77.4594 72.588 77.2674 72.804C77.0754 73.02 76.8474 73.192 76.5834 73.32C76.3194 73.44 76.0314 73.5 75.7194 73.5H71.6394V65.124ZM72.9954 72.336H75.3234C75.6754 72.336 75.9514 72.244 76.1514 72.06C76.3514 71.876 76.4514 71.612 76.4514 71.268V70.86C76.4514 70.516 76.3514 70.252 76.1514 70.068C75.9514 69.884 75.6754 69.792 75.3234 69.792H72.9954V72.336ZM72.9954 68.664H75.0954C75.4314 68.664 75.6914 68.58 75.8754 68.412C76.0594 68.236 76.1514 67.988 76.1514 67.668V67.284C76.1514 66.964 76.0594 66.72 75.8754 66.552C75.6914 66.376 75.4314 66.288 75.0954 66.288H72.9954V68.664ZM82.1416 73.644C81.6776 73.644 81.2616 73.568 80.8936 73.416C80.5336 73.264 80.2256 73.048 79.9696 72.768C79.7216 72.48 79.5296 72.136 79.3936 71.736C79.2576 71.336 79.1896 70.884 79.1896 70.38C79.1896 69.772 79.2816 69.2 79.4656 68.664C79.6496 68.128 79.8856 67.636 80.1736 67.188C80.4616 66.74 80.7816 66.344 81.1336 66C81.4936 65.648 81.8456 65.356 82.1896 65.124H83.9896C83.5176 65.468 83.0936 65.8 82.7176 66.12C82.3416 66.44 82.0136 66.768 81.7336 67.104C81.4536 67.44 81.2176 67.796 81.0256 68.172C80.8416 68.548 80.6976 68.96 80.5936 69.408L80.6776 69.432C80.7656 69.264 80.8656 69.108 80.9776 68.964C81.0976 68.812 81.2336 68.68 81.3856 68.568C81.5456 68.456 81.7256 68.368 81.9256 68.304C82.1256 68.24 82.3576 68.208 82.6216 68.208C82.9736 68.208 83.2976 68.268 83.5936 68.388C83.8976 68.508 84.1576 68.684 84.3736 68.916C84.5976 69.14 84.7696 69.412 84.8896 69.732C85.0176 70.052 85.0816 70.408 85.0816 70.8C85.0816 71.224 85.0096 71.612 84.8656 71.964C84.7296 72.308 84.5336 72.604 84.2776 72.852C84.0216 73.1 83.7096 73.296 83.3416 73.44C82.9816 73.576 82.5816 73.644 82.1416 73.644ZM82.1416 72.54C82.6296 72.54 83.0096 72.412 83.2816 72.156C83.5536 71.892 83.6896 71.508 83.6896 71.004V70.836C83.6896 70.332 83.5536 69.952 83.2816 69.696C83.0096 69.432 82.6296 69.3 82.1416 69.3C81.6536 69.3 81.2736 69.432 81.0016 69.696C80.7296 69.952 80.5936 70.332 80.5936 70.836V71.004C80.5936 71.508 80.7296 71.892 81.0016 72.156C81.2736 72.412 81.6536 72.54 82.1416 72.54Z" fill="#B3A793"/>
<rect x="102" y="57.5" width="33" height="22" rx="11" fill="#35545D"/>
<path d="M116.743 73.5L115.987 71.232H112.855L112.123 73.5H110.743L113.599 65.124H115.303L118.159 73.5H116.743ZM114.451 66.372H114.391L113.179 70.068H115.651L114.451 66.372ZM124.84 73.5L124.084 71.232H120.952L120.22 73.5H118.84L121.696 65.124H123.4L126.256 73.5H124.84ZM122.548 66.372H122.488L121.276 70.068H123.748L122.548 66.372Z" fill="#B3A793"/>
<path d="M40.11 98.525H33.105L34.56 96.56V117.5H30.6V96.56L32.13 98.525H25.065V95.375H40.11V98.525ZM43.133 117.5V95.375H47.033V117.5H43.133ZM50.9252 117.5V95.375H57.5402C59.0102 95.375 60.3452 95.64 61.5452 96.17C62.7452 96.69 63.7752 97.435 64.6352 98.405C65.4952 99.375 66.1602 100.54 66.6302 101.9C67.1002 103.25 67.3352 104.755 67.3352 106.415C67.3352 108.075 67.1002 109.585 66.6302 110.945C66.1602 112.295 65.4952 113.46 64.6352 114.44C63.7752 115.42 62.7452 116.175 61.5452 116.705C60.3452 117.235 59.0102 117.5 57.5402 117.5H50.9252ZM54.8852 116.315L53.1002 114.35H57.0302C58.2302 114.35 59.3002 114.03 60.2402 113.39C61.1902 112.74 61.9402 111.825 62.4902 110.645C63.0402 109.455 63.3152 108.045 63.3152 106.415C63.3152 104.775 63.0402 103.365 62.4902 102.185C61.9402 101.005 61.1902 100.1 60.2402 99.47C59.3002 98.84 58.2302 98.525 57.0302 98.525H53.1002L54.8852 96.56V116.315ZM72.7734 98.525L74.5584 96.56V106.01L73.6284 104.825H81.9084V107.975H73.6284L74.5584 106.805V116.315L72.7734 114.35H83.5734V117.5H70.5834V95.375H83.5734V98.525H72.7734ZM112.404 109.535C112.404 110.475 112.229 111.43 111.879 112.4C111.529 113.37 110.994 114.27 110.274 115.1C109.564 115.92 108.664 116.58 107.574 117.08C106.484 117.58 105.204 117.83 103.734 117.83C101.744 117.83 100.044 117.345 98.6341 116.375C97.2341 115.395 96.1641 114.05 95.4241 112.34C94.6941 110.63 94.3291 108.665 94.3291 106.445C94.3291 104.215 94.6941 102.245 95.4241 100.535C96.1641 98.825 97.2341 97.485 98.6341 96.515C100.044 95.545 101.744 95.06 103.734 95.06C105.384 95.06 106.794 95.375 107.964 96.005C109.134 96.635 110.069 97.445 110.769 98.435C111.469 99.425 111.939 100.46 112.179 101.54C112.329 102.17 112.404 102.77 112.404 103.34H108.429C108.429 103.05 108.409 102.75 108.369 102.44C108.259 101.68 108.004 100.99 107.604 100.37C107.214 99.74 106.694 99.245 106.044 98.885C105.394 98.515 104.624 98.33 103.734 98.33C102.674 98.33 101.739 98.625 100.929 99.215C100.129 99.805 99.4991 100.7 99.0391 101.9C98.5791 103.1 98.3491 104.615 98.3491 106.445C98.3491 108.255 98.5791 109.765 99.0391 110.975C99.4991 112.185 100.129 113.09 100.929 113.69C101.739 114.29 102.674 114.59 103.734 114.59C104.494 114.59 105.164 114.45 105.744 114.17C106.324 113.89 106.814 113.515 107.214 113.045C107.614 112.565 107.914 112.025 108.114 111.425C108.324 110.825 108.429 110.195 108.429 109.535H112.404ZM115.671 117.5V95.375H119.631V116.315L117.846 114.23H128.016V117.5H115.671ZM130.15 117.5L135.865 95.345H142.105L147.775 117.5H143.71L138.97 97.79H139L134.215 117.5H130.15ZM133.84 112.115V108.95H144.13V112.115H133.84ZM163.279 95.375L156.934 109.85V117.5H152.974V109.85L146.674 95.375H150.859L155.764 107.765H154.174L159.064 95.375H163.279Z" fill="#35545D"/>
<path d="M27.822 138.542L25.12 129.12H26.59L28.732 137.156H28.676L29.068 134.93L30.874 129.12H31.798L34.122 137.184H34.08L34.5 134.986L36.11 129.12H36.992L34.29 138.542H33.268L31.056 130.66H31.126L30.734 132.438L28.886 138.542H27.822ZM24.196 129.848V129.12H28.116V129.848L26.478 129.96H25.806L24.196 129.848ZM29.404 129.848V129.12H33.38V129.848L31.742 129.96H31.084L29.404 129.848ZM34.626 129.848V129.12H37.93V129.848L36.474 129.96H36.082L34.626 129.848ZM39.7423 138.696C39.2103 138.696 38.753 138.542 38.3703 138.234C37.997 137.926 37.8103 137.473 37.8103 136.876C37.8103 136.531 37.8803 136.227 38.0203 135.966C38.1697 135.705 38.4077 135.471 38.7343 135.266C39.0703 135.061 39.523 134.879 40.0923 134.72C40.363 134.636 40.629 134.561 40.8903 134.496C41.161 134.421 41.427 134.347 41.6883 134.272C41.959 134.197 42.225 134.123 42.4863 134.048V134.622C42.1503 134.725 41.8143 134.832 41.4783 134.944C41.1423 135.047 40.8063 135.154 40.4703 135.266C40.0877 135.378 39.7983 135.509 39.6023 135.658C39.4063 135.798 39.271 135.952 39.1963 136.12C39.131 136.279 39.0983 136.451 39.0983 136.638C39.0983 136.983 39.2057 137.254 39.4203 137.45C39.635 137.637 39.9197 137.73 40.2743 137.73C40.5077 137.73 40.7177 137.688 40.9043 137.604C41.091 137.52 41.2917 137.394 41.5063 137.226C41.721 137.049 41.973 136.834 42.2623 136.582L42.3603 137.38H41.8703C41.6837 137.623 41.4923 137.847 41.2963 138.052C41.1097 138.248 40.8903 138.402 40.6383 138.514C40.3957 138.635 40.097 138.696 39.7423 138.696ZM43.3683 138.654C42.967 138.654 42.6403 138.523 42.3883 138.262C42.1457 138.001 42.015 137.613 41.9963 137.1L41.9683 137.072V133.866C41.9683 133.437 41.917 133.096 41.8143 132.844C41.7117 132.592 41.5483 132.415 41.3243 132.312C41.1097 132.209 40.8343 132.158 40.4983 132.158C40.265 132.158 40.041 132.177 39.8263 132.214C39.6117 132.251 39.3877 132.321 39.1543 132.424L39.7143 131.864L39.4903 133.124C39.4437 133.404 39.355 133.609 39.2243 133.74C39.0937 133.871 38.921 133.936 38.7063 133.936C38.4823 133.936 38.3097 133.88 38.1883 133.768C38.0763 133.647 38.0063 133.507 37.9783 133.348C38.0997 132.769 38.417 132.307 38.9303 131.962C39.4437 131.617 40.0877 131.444 40.8623 131.444C41.3477 131.444 41.7677 131.523 42.1223 131.682C42.477 131.841 42.7477 132.097 42.9343 132.452C43.1303 132.797 43.2283 133.269 43.2283 133.866V136.974C43.2283 137.263 43.2797 137.473 43.3823 137.604C43.485 137.725 43.6297 137.786 43.8163 137.786C43.9377 137.786 44.0403 137.767 44.1243 137.73C44.2177 137.683 44.3017 137.632 44.3763 137.576L44.6003 138.066C44.4603 138.243 44.2877 138.388 44.0823 138.5C43.8863 138.603 43.6483 138.654 43.3683 138.654ZM45.3292 138.5V137.828L46.9112 137.688H47.3032L49.0812 137.828V138.5H45.3292ZM46.4212 138.5C46.4212 138.22 46.4212 137.907 46.4212 137.562C46.4306 137.217 46.4352 136.862 46.4352 136.498C46.4352 136.134 46.4352 135.798 46.4352 135.49V134.762C46.4352 134.519 46.4352 134.295 46.4352 134.09C46.4352 133.885 46.4306 133.689 46.4212 133.502C46.4212 133.306 46.4212 133.105 46.4212 132.9L45.2452 132.844V132.228L47.0932 131.528L47.4852 131.598L47.6252 133.502L47.7092 133.516V135.49C47.7092 135.798 47.7092 136.134 47.7092 136.498C47.7092 136.862 47.7092 137.217 47.7092 137.562C47.7186 137.907 47.7232 138.22 47.7232 138.5H46.4212ZM47.5832 134.566L47.4712 133.53H47.7792C47.9472 133.11 48.1292 132.746 48.3252 132.438C48.5306 132.13 48.7546 131.892 48.9972 131.724C49.2492 131.556 49.5246 131.472 49.8232 131.472C50.1032 131.472 50.3319 131.542 50.5092 131.682C50.6959 131.813 50.8219 131.957 50.8872 132.116C50.8779 132.405 50.7986 132.653 50.6492 132.858C50.5092 133.063 50.2852 133.166 49.9772 133.166C49.7812 133.166 49.6086 133.129 49.4592 133.054C49.3192 132.97 49.1886 132.872 49.0672 132.76L48.7452 132.452L49.4732 132.396C49.0066 132.62 48.6192 132.923 48.3112 133.306C48.0126 133.679 47.7699 134.099 47.5832 134.566ZM51.672 138.5V137.828L53.254 137.688H53.632L55.116 137.828V138.5H51.672ZM52.778 138.5C52.778 138.22 52.778 137.907 52.778 137.562C52.7873 137.217 52.792 136.862 52.792 136.498C52.792 136.134 52.792 135.798 52.792 135.49V134.762C52.792 134.519 52.792 134.295 52.792 134.09C52.792 133.885 52.7873 133.689 52.778 133.502C52.778 133.306 52.778 133.105 52.778 132.9L51.602 132.844V132.228L53.422 131.528L53.814 131.598L54.01 133.11L54.066 133.124V135.49C54.066 135.798 54.066 136.134 54.066 136.498C54.066 136.862 54.066 137.217 54.066 137.562C54.0753 137.907 54.08 138.22 54.08 138.5H52.778ZM56.152 138.5V137.828L57.706 137.688H58.084L59.596 137.828V138.5H56.152ZM57.23 138.5C57.23 138.22 57.23 137.907 57.23 137.562C57.2393 137.217 57.244 136.867 57.244 136.512C57.244 136.148 57.244 135.807 57.244 135.49V134.132C57.244 133.553 57.1507 133.143 56.964 132.9C56.7867 132.657 56.4833 132.536 56.054 132.536C55.8207 132.536 55.5827 132.573 55.34 132.648C55.1067 132.713 54.8687 132.821 54.626 132.97C54.3833 133.11 54.136 133.283 53.884 133.488L53.772 132.914H54.108C54.2947 132.643 54.5093 132.396 54.752 132.172C55.004 131.948 55.2793 131.771 55.578 131.64C55.886 131.509 56.208 131.444 56.544 131.444C57.2067 131.444 57.6967 131.649 58.014 132.06C58.3407 132.461 58.504 133.077 58.504 133.908V135.49C58.504 135.807 58.504 136.148 58.504 136.512C58.5133 136.867 58.518 137.217 58.518 137.562C58.518 137.907 58.5227 138.22 58.532 138.5H57.23ZM60.604 138.5V137.828L62.158 137.688H62.536L64.048 137.828V138.5H60.604ZM61.682 138.5C61.682 138.22 61.682 137.907 61.682 137.562C61.6913 137.217 61.696 136.867 61.696 136.512C61.696 136.148 61.696 135.807 61.696 135.49V134.118C61.696 133.53 61.6027 133.119 61.416 132.886C61.2293 132.653 60.9213 132.536 60.492 132.536C60.268 132.536 60.0393 132.573 59.806 132.648C59.5727 132.713 59.3347 132.816 59.092 132.956C58.8493 133.096 58.5973 133.273 58.336 133.488L58.196 132.928H58.532C58.728 132.629 58.952 132.368 59.204 132.144C59.456 131.92 59.7313 131.747 60.03 131.626C60.3287 131.505 60.6507 131.444 60.996 131.444C61.64 131.444 62.1253 131.64 62.452 132.032C62.788 132.424 62.956 133.026 62.956 133.838V135.49C62.956 135.807 62.956 136.148 62.956 136.512C62.9653 136.867 62.97 137.217 62.97 137.562C62.97 137.907 62.9747 138.22 62.984 138.5H61.682ZM68.3653 138.5V137.828L69.9473 137.688H70.3253L71.8093 137.828V138.5H68.3653ZM69.4713 138.5C69.4713 138.22 69.4713 137.907 69.4713 137.562C69.4807 137.217 69.4853 136.862 69.4853 136.498C69.4853 136.134 69.4853 135.798 69.4853 135.49V134.762C69.4853 134.519 69.4853 134.295 69.4853 134.09C69.4853 133.885 69.4807 133.689 69.4713 133.502C69.4713 133.306 69.4713 133.105 69.4713 132.9L68.2953 132.844V132.228L70.1153 131.528L70.5073 131.598L70.7033 133.11L70.7593 133.124V135.49C70.7593 135.798 70.7593 136.134 70.7593 136.498C70.7593 136.862 70.7593 137.217 70.7593 137.562C70.7687 137.907 70.7733 138.22 70.7733 138.5H69.4713ZM72.8453 138.5V137.828L74.3993 137.688H74.7773L76.2893 137.828V138.5H72.8453ZM73.9233 138.5C73.9233 138.22 73.9233 137.907 73.9233 137.562C73.9327 137.217 73.9373 136.867 73.9373 136.512C73.9373 136.148 73.9373 135.807 73.9373 135.49V134.132C73.9373 133.553 73.844 133.143 73.6573 132.9C73.48 132.657 73.1767 132.536 72.7473 132.536C72.514 132.536 72.276 132.573 72.0333 132.648C71.8 132.713 71.562 132.821 71.3193 132.97C71.0767 133.11 70.8293 133.283 70.5773 133.488L70.4653 132.914H70.8013C70.988 132.643 71.2027 132.396 71.4453 132.172C71.6973 131.948 71.9727 131.771 72.2713 131.64C72.5793 131.509 72.9013 131.444 73.2373 131.444C73.9 131.444 74.39 131.649 74.7073 132.06C75.034 132.461 75.1973 133.077 75.1973 133.908V135.49C75.1973 135.807 75.1973 136.148 75.1973 136.512C75.2067 136.867 75.2113 137.217 75.2113 137.562C75.2113 137.907 75.216 138.22 75.2253 138.5H73.9233ZM77.2973 138.5V137.828L78.8513 137.688H79.2293L80.7413 137.828V138.5H77.2973ZM78.3753 138.5C78.3753 138.22 78.3753 137.907 78.3753 137.562C78.3847 137.217 78.3893 136.867 78.3893 136.512C78.3893 136.148 78.3893 135.807 78.3893 135.49V134.118C78.3893 133.53 78.296 133.119 78.1093 132.886C77.9227 132.653 77.6147 132.536 77.1853 132.536C76.9613 132.536 76.7327 132.573 76.4993 132.648C76.266 132.713 76.028 132.816 75.7853 132.956C75.5427 133.096 75.2907 133.273 75.0293 133.488L74.8893 132.928H75.2253C75.4213 132.629 75.6453 132.368 75.8973 132.144C76.1493 131.92 76.4247 131.747 76.7233 131.626C77.022 131.505 77.344 131.444 77.6893 131.444C78.3333 131.444 78.8187 131.64 79.1453 132.032C79.4813 132.424 79.6493 133.026 79.6493 133.838V135.49C79.6493 135.807 79.6493 136.148 79.6493 136.512C79.6587 136.867 79.6633 137.217 79.6633 137.562C79.6633 137.907 79.668 138.22 79.6773 138.5H78.3753ZM85.1524 138.668C84.4524 138.668 83.8504 138.528 83.3464 138.248C82.8518 137.959 82.4691 137.553 82.1984 137.03C81.9371 136.498 81.8064 135.873 81.8064 135.154C81.8064 134.426 81.9464 133.787 82.2264 133.236C82.5064 132.676 82.8938 132.237 83.3884 131.92C83.8831 131.603 84.4478 131.444 85.0824 131.444C85.6518 131.444 86.1464 131.556 86.5664 131.78C86.9864 131.995 87.3131 132.307 87.5464 132.718C87.7891 133.129 87.9104 133.619 87.9104 134.188C87.9104 134.365 87.8964 134.543 87.8684 134.72C87.8498 134.888 87.8264 135.028 87.7984 135.14H82.5484V134.482H86.2164C86.4124 134.417 86.5384 134.323 86.5944 134.202C86.6504 134.081 86.6784 133.941 86.6784 133.782C86.6784 133.418 86.6131 133.119 86.4824 132.886C86.3611 132.643 86.1791 132.466 85.9364 132.354C85.7031 132.233 85.4184 132.172 85.0824 132.172C84.7278 132.172 84.4011 132.27 84.1024 132.466C83.8038 132.662 83.5658 132.97 83.3884 133.39C83.2111 133.801 83.1224 134.342 83.1224 135.014C83.1224 135.583 83.2158 136.073 83.4024 136.484C83.5984 136.885 83.8691 137.193 84.2144 137.408C84.5691 137.623 84.9798 137.73 85.4464 137.73C85.9411 137.73 86.3518 137.641 86.6784 137.464C87.0144 137.277 87.3131 137.035 87.5744 136.736L88.0084 137.086C87.8031 137.394 87.5744 137.669 87.3224 137.912C87.0704 138.155 86.7718 138.341 86.4264 138.472C86.0811 138.603 85.6564 138.668 85.1524 138.668ZM92.1833 138.668C91.6139 138.668 91.1099 138.528 90.6713 138.248C90.2326 137.959 89.8873 137.548 89.6353 137.016C89.3926 136.484 89.2713 135.845 89.2713 135.098C89.2713 134.342 89.4019 133.693 89.6633 133.152C89.9246 132.601 90.2793 132.181 90.7273 131.892C91.1753 131.593 91.6793 131.444 92.2393 131.444C92.5659 131.444 92.8506 131.495 93.0933 131.598C93.3359 131.691 93.5506 131.836 93.7373 132.032C93.9333 132.219 94.1153 132.443 94.2833 132.704H94.7873L94.7173 133.656C94.3159 133.199 93.9519 132.863 93.6253 132.648C93.3079 132.424 92.9579 132.312 92.5753 132.312C92.2113 132.312 91.8799 132.41 91.5813 132.606C91.2919 132.793 91.0586 133.091 90.8813 133.502C90.7133 133.903 90.6293 134.421 90.6293 135.056C90.6293 135.681 90.7133 136.195 90.8813 136.596C91.0493 136.997 91.2779 137.296 91.5673 137.492C91.8659 137.679 92.2019 137.772 92.5753 137.772C93.0046 137.772 93.3779 137.655 93.6953 137.422C94.0126 137.189 94.3486 136.834 94.7033 136.358L94.7593 137.31H94.2833C94.1339 137.571 93.9659 137.805 93.7793 138.01C93.5926 138.215 93.3686 138.379 93.1073 138.5C92.8553 138.612 92.5473 138.668 92.1833 138.668ZM94.4933 138.598L94.3673 137.1L94.3393 137.086V132.998L94.4093 132.9L94.3673 129.484L93.1213 129.274V128.686L95.2493 128.21L95.6273 128.266L95.5993 130.044V137.66L96.7613 137.856V138.5L94.4933 138.598ZM97.8009 138.5V137.828L99.3689 137.688H99.7609L101.273 137.828V138.5H97.8009ZM98.8929 138.5C98.9022 138.22 98.9069 137.907 98.9069 137.562C98.9069 137.217 98.9069 136.862 98.9069 136.498C98.9162 136.134 98.9209 135.798 98.9209 135.49V134.762C98.9209 134.407 98.9162 134.085 98.9069 133.796C98.9069 133.507 98.9022 133.208 98.8929 132.9L97.7309 132.844V132.228L99.8169 131.528L100.209 131.598L100.181 133.306V135.49C100.181 135.798 100.181 136.134 100.181 136.498C100.19 136.862 100.195 137.217 100.195 137.562C100.195 137.907 100.2 138.22 100.209 138.5H98.8929ZM99.5089 130.114C99.2476 130.114 99.0236 130.025 98.8369 129.848C98.6596 129.671 98.5709 129.451 98.5709 129.19C98.5709 128.929 98.6596 128.709 98.8369 128.532C99.0236 128.355 99.2476 128.266 99.5089 128.266C99.7796 128.266 100.004 128.355 100.181 128.532C100.368 128.709 100.461 128.929 100.461 129.19C100.461 129.451 100.368 129.671 100.181 129.848C100.004 130.025 99.7796 130.114 99.5089 130.114ZM104.41 138.696C103.878 138.696 103.421 138.542 103.038 138.234C102.665 137.926 102.478 137.473 102.478 136.876C102.478 136.531 102.548 136.227 102.688 135.966C102.838 135.705 103.076 135.471 103.402 135.266C103.738 135.061 104.191 134.879 104.76 134.72C105.031 134.636 105.297 134.561 105.558 134.496C105.829 134.421 106.095 134.347 106.356 134.272C106.627 134.197 106.893 134.123 107.154 134.048V134.622C106.818 134.725 106.482 134.832 106.146 134.944C105.81 135.047 105.474 135.154 105.138 135.266C104.756 135.378 104.466 135.509 104.27 135.658C104.074 135.798 103.939 135.952 103.864 136.12C103.799 136.279 103.766 136.451 103.766 136.638C103.766 136.983 103.874 137.254 104.088 137.45C104.303 137.637 104.588 137.73 104.942 137.73C105.176 137.73 105.386 137.688 105.572 137.604C105.759 137.52 105.96 137.394 106.174 137.226C106.389 137.049 106.641 136.834 106.93 136.582L107.028 137.38H106.538C106.352 137.623 106.16 137.847 105.964 138.052C105.778 138.248 105.558 138.402 105.306 138.514C105.064 138.635 104.765 138.696 104.41 138.696ZM108.036 138.654C107.635 138.654 107.308 138.523 107.056 138.262C106.814 138.001 106.683 137.613 106.664 137.1L106.636 137.072V133.866C106.636 133.437 106.585 133.096 106.482 132.844C106.38 132.592 106.216 132.415 105.992 132.312C105.778 132.209 105.502 132.158 105.166 132.158C104.933 132.158 104.709 132.177 104.494 132.214C104.28 132.251 104.056 132.321 103.822 132.424L104.382 131.864L104.158 133.124C104.112 133.404 104.023 133.609 103.892 133.74C103.762 133.871 103.589 133.936 103.374 133.936C103.15 133.936 102.978 133.88 102.856 133.768C102.744 133.647 102.674 133.507 102.646 133.348C102.768 132.769 103.085 132.307 103.598 131.962C104.112 131.617 104.756 131.444 105.53 131.444C106.016 131.444 106.436 131.523 106.79 131.682C107.145 131.841 107.416 132.097 107.602 132.452C107.798 132.797 107.896 133.269 107.896 133.866V136.974C107.896 137.263 107.948 137.473 108.05 137.604C108.153 137.725 108.298 137.786 108.484 137.786C108.606 137.786 108.708 137.767 108.792 137.73C108.886 137.683 108.97 137.632 109.044 137.576L109.268 138.066C109.128 138.243 108.956 138.388 108.75 138.5C108.554 138.603 108.316 138.654 108.036 138.654ZM111.537 132.424V131.612H114.113V132.424H111.537ZM112.629 138.64C112.106 138.64 111.681 138.495 111.355 138.206C111.037 137.917 110.879 137.469 110.879 136.862C110.879 136.694 110.879 136.531 110.879 136.372C110.879 136.204 110.879 136.013 110.879 135.798V132.424H109.661V131.766L111.453 131.542L110.935 131.976L111.383 129.68H112.251L112.097 132.088L112.153 132.228V136.736C112.153 137.109 112.227 137.375 112.377 137.534C112.535 137.693 112.75 137.772 113.021 137.772C113.198 137.772 113.361 137.744 113.511 137.688C113.66 137.632 113.805 137.567 113.945 137.492L114.267 138.024C114.164 138.127 114.033 138.229 113.875 138.332C113.716 138.425 113.529 138.5 113.315 138.556C113.109 138.612 112.881 138.64 112.629 138.64ZM118.472 138.668C117.884 138.668 117.328 138.533 116.806 138.262C116.292 137.991 115.877 137.59 115.56 137.058C115.242 136.517 115.084 135.859 115.084 135.084C115.084 134.309 115.242 133.651 115.56 133.11C115.877 132.559 116.292 132.144 116.806 131.864C117.328 131.584 117.884 131.444 118.472 131.444C119.06 131.444 119.61 131.584 120.124 131.864C120.646 132.135 121.066 132.541 121.384 133.082C121.71 133.614 121.874 134.267 121.874 135.042C121.874 135.817 121.71 136.475 121.384 137.016C121.066 137.557 120.646 137.968 120.124 138.248C119.61 138.528 119.06 138.668 118.472 138.668ZM118.472 137.94C118.901 137.94 119.265 137.833 119.564 137.618C119.862 137.403 120.091 137.086 120.25 136.666C120.408 136.246 120.488 135.719 120.488 135.084C120.488 134.44 120.408 133.903 120.25 133.474C120.091 133.045 119.862 132.723 119.564 132.508C119.265 132.293 118.901 132.186 118.472 132.186C118.052 132.186 117.692 132.293 117.394 132.508C117.095 132.723 116.866 133.045 116.708 133.474C116.549 133.894 116.47 134.421 116.47 135.056C116.47 135.7 116.549 136.237 116.708 136.666C116.866 137.086 117.095 137.403 117.394 137.618C117.692 137.833 118.052 137.94 118.472 137.94ZM123.163 138.5V137.828L124.745 137.688H125.137L126.915 137.828V138.5H123.163ZM124.255 138.5C124.255 138.22 124.255 137.907 124.255 137.562C124.265 137.217 124.269 136.862 124.269 136.498C124.269 136.134 124.269 135.798 124.269 135.49V134.762C124.269 134.519 124.269 134.295 124.269 134.09C124.269 133.885 124.265 133.689 124.255 133.502C124.255 133.306 124.255 133.105 124.255 132.9L123.079 132.844V132.228L124.927 131.528L125.319 131.598L125.459 133.502L125.543 133.516V135.49C125.543 135.798 125.543 136.134 125.543 136.498C125.543 136.862 125.543 137.217 125.543 137.562C125.553 137.907 125.557 138.22 125.557 138.5H124.255ZM125.417 134.566L125.305 133.53H125.613C125.781 133.11 125.963 132.746 126.159 132.438C126.365 132.13 126.589 131.892 126.831 131.724C127.083 131.556 127.359 131.472 127.657 131.472C127.937 131.472 128.166 131.542 128.343 131.682C128.53 131.813 128.656 131.957 128.721 132.116C128.712 132.405 128.633 132.653 128.483 132.858C128.343 133.063 128.119 133.166 127.811 133.166C127.615 133.166 127.443 133.129 127.293 133.054C127.153 132.97 127.023 132.872 126.901 132.76L126.579 132.452L127.307 132.396C126.841 132.62 126.453 132.923 126.145 133.306C125.847 133.679 125.604 134.099 125.417 134.566ZM130.964 138.668C130.684 138.668 130.446 138.57 130.25 138.374C130.063 138.178 129.97 137.945 129.97 137.674C129.97 137.394 130.063 137.156 130.25 136.96C130.446 136.764 130.684 136.666 130.964 136.666C131.244 136.666 131.482 136.764 131.678 136.96C131.874 137.156 131.972 137.394 131.972 137.674C131.972 137.945 131.874 138.178 131.678 138.374C131.482 138.57 131.244 138.668 130.964 138.668ZM130.964 133.684C130.684 133.684 130.446 133.586 130.25 133.39C130.063 133.194 129.97 132.961 129.97 132.69C129.97 132.41 130.063 132.172 130.25 131.976C130.446 131.78 130.684 131.682 130.964 131.682C131.244 131.682 131.482 131.78 131.678 131.976C131.874 132.172 131.972 132.41 131.972 132.69C131.972 132.961 131.874 133.194 131.678 133.39C131.482 133.586 131.244 133.684 130.964 133.684ZM142.01 138.71C141.292 138.71 140.629 138.598 140.022 138.374C139.416 138.15 138.893 137.828 138.454 137.408C138.016 136.979 137.675 136.465 137.432 135.868C137.19 135.261 137.068 134.58 137.068 133.824C137.068 133.077 137.194 132.405 137.446 131.808C137.698 131.201 138.048 130.683 138.496 130.254C138.954 129.815 139.486 129.479 140.092 129.246C140.699 129.013 141.357 128.896 142.066 128.896C142.589 128.896 143.093 128.952 143.578 129.064C144.064 129.176 144.493 129.335 144.866 129.54L144.922 131.612H144.04L143.648 129.582L144.586 129.68V130.548C144.232 130.268 143.849 130.058 143.438 129.918C143.028 129.769 142.598 129.694 142.15 129.694C141.497 129.694 140.9 129.853 140.358 130.17C139.826 130.478 139.402 130.935 139.084 131.542C138.767 132.149 138.608 132.9 138.608 133.796C138.608 134.692 138.758 135.448 139.056 136.064C139.355 136.671 139.766 137.133 140.288 137.45C140.811 137.758 141.408 137.912 142.08 137.912C142.603 137.912 143.088 137.842 143.536 137.702C143.984 137.562 144.386 137.361 144.74 137.1V137.94L143.802 138.038L144.194 135.966H145.076L145.02 138.066C144.666 138.253 144.236 138.407 143.732 138.528C143.228 138.649 142.654 138.71 142.01 138.71ZM148.256 138.696C147.724 138.696 147.267 138.542 146.884 138.234C146.511 137.926 146.324 137.473 146.324 136.876C146.324 136.531 146.394 136.227 146.534 135.966C146.683 135.705 146.921 135.471 147.248 135.266C147.584 135.061 148.037 134.879 148.606 134.72C148.877 134.636 149.143 134.561 149.404 134.496C149.675 134.421 149.941 134.347 150.202 134.272C150.473 134.197 150.739 134.123 151 134.048V134.622C150.664 134.725 150.328 134.832 149.992 134.944C149.656 135.047 149.32 135.154 148.984 135.266C148.601 135.378 148.312 135.509 148.116 135.658C147.92 135.798 147.785 135.952 147.71 136.12C147.645 136.279 147.612 136.451 147.612 136.638C147.612 136.983 147.719 137.254 147.934 137.45C148.149 137.637 148.433 137.73 148.788 137.73C149.021 137.73 149.231 137.688 149.418 137.604C149.605 137.52 149.805 137.394 150.02 137.226C150.235 137.049 150.487 136.834 150.776 136.582L150.874 137.38H150.384C150.197 137.623 150.006 137.847 149.81 138.052C149.623 138.248 149.404 138.402 149.152 138.514C148.909 138.635 148.611 138.696 148.256 138.696ZM151.882 138.654C151.481 138.654 151.154 138.523 150.902 138.262C150.659 138.001 150.529 137.613 150.51 137.1L150.482 137.072V133.866C150.482 133.437 150.431 133.096 150.328 132.844C150.225 132.592 150.062 132.415 149.838 132.312C149.623 132.209 149.348 132.158 149.012 132.158C148.779 132.158 148.555 132.177 148.34 132.214C148.125 132.251 147.901 132.321 147.668 132.424L148.228 131.864L148.004 133.124C147.957 133.404 147.869 133.609 147.738 133.74C147.607 133.871 147.435 133.936 147.22 133.936C146.996 133.936 146.823 133.88 146.702 133.768C146.59 133.647 146.52 133.507 146.492 133.348C146.613 132.769 146.931 132.307 147.444 131.962C147.957 131.617 148.601 131.444 149.376 131.444C149.861 131.444 150.281 131.523 150.636 131.682C150.991 131.841 151.261 132.097 151.448 132.452C151.644 132.797 151.742 133.269 151.742 133.866V136.974C151.742 137.263 151.793 137.473 151.896 137.604C151.999 137.725 152.143 137.786 152.33 137.786C152.451 137.786 152.554 137.767 152.638 137.73C152.731 137.683 152.815 137.632 152.89 137.576L153.114 138.066C152.974 138.243 152.801 138.388 152.596 138.5C152.4 138.603 152.162 138.654 151.882 138.654ZM153.758 138.5V137.828L155.354 137.688H155.732L157.342 137.828V138.5H153.758ZM154.892 138.5C154.902 138.164 154.906 137.828 154.906 137.492C154.906 137.156 154.906 136.82 154.906 136.484C154.916 136.148 154.92 135.817 154.92 135.49V129.484L153.702 129.274V128.686L155.83 128.21L156.208 128.266L156.18 130.044V135.49C156.18 135.817 156.18 136.148 156.18 136.484C156.18 136.82 156.18 137.156 156.18 137.492C156.19 137.828 156.194 138.164 156.194 138.5H154.892ZM158.436 138.5V137.828L160.018 137.688H160.396L161.88 137.828V138.5H158.436ZM159.542 138.5C159.542 138.22 159.542 137.907 159.542 137.562C159.551 137.217 159.556 136.862 159.556 136.498C159.556 136.134 159.556 135.798 159.556 135.49V134.762C159.556 134.519 159.556 134.295 159.556 134.09C159.556 133.885 159.551 133.689 159.542 133.502C159.542 133.306 159.542 133.105 159.542 132.9L158.366 132.844V132.228L160.186 131.528L160.578 131.598L160.774 133.11L160.83 133.124V135.49C160.83 135.798 160.83 136.134 160.83 136.498C160.83 136.862 160.83 137.217 160.83 137.562C160.839 137.907 160.844 138.22 160.844 138.5H159.542ZM162.916 138.5V137.828L164.47 137.688H164.848L166.36 137.828V138.5H162.916ZM163.994 138.5C163.994 138.22 163.994 137.907 163.994 137.562C164.003 137.217 164.008 136.867 164.008 136.512C164.008 136.148 164.008 135.807 164.008 135.49V134.132C164.008 133.553 163.914 133.143 163.728 132.9C163.55 132.657 163.247 132.536 162.818 132.536C162.584 132.536 162.346 132.573 162.104 132.648C161.87 132.713 161.632 132.821 161.39 132.97C161.147 133.11 160.9 133.283 160.648 133.488L160.536 132.914H160.872C161.058 132.643 161.273 132.396 161.516 132.172C161.768 131.948 162.043 131.771 162.342 131.64C162.65 131.509 162.972 131.444 163.308 131.444C163.97 131.444 164.46 131.649 164.778 132.06C165.104 132.461 165.268 133.077 165.268 133.908V135.49C165.268 135.807 165.268 136.148 165.268 136.512C165.277 136.867 165.282 137.217 165.282 137.562C165.282 137.907 165.286 138.22 165.296 138.5H163.994ZM167.368 138.5V137.828L168.922 137.688H169.3L170.812 137.828V138.5H167.368ZM168.446 138.5C168.446 138.22 168.446 137.907 168.446 137.562C168.455 137.217 168.46 136.867 168.46 136.512C168.46 136.148 168.46 135.807 168.46 135.49V134.118C168.46 133.53 168.366 133.119 168.18 132.886C167.993 132.653 167.685 132.536 167.256 132.536C167.032 132.536 166.803 132.573 166.57 132.648C166.336 132.713 166.098 132.816 165.856 132.956C165.613 133.096 165.361 133.273 165.1 133.488L164.96 132.928H165.296C165.492 132.629 165.716 132.368 165.968 132.144C166.22 131.92 166.495 131.747 166.794 131.626C167.092 131.505 167.414 131.444 167.76 131.444C168.404 131.444 168.889 131.64 169.216 132.032C169.552 132.424 169.72 133.026 169.72 133.838V135.49C169.72 135.807 169.72 136.148 169.72 136.512C169.729 136.867 169.734 137.217 169.734 137.562C169.734 137.907 169.738 138.22 169.748 138.5H168.446ZM178.587 138.668C177.999 138.668 177.444 138.533 176.921 138.262C176.408 137.991 175.992 137.59 175.675 137.058C175.358 136.517 175.199 135.859 175.199 135.084C175.199 134.309 175.358 133.651 175.675 133.11C175.992 132.559 176.408 132.144 176.921 131.864C177.444 131.584 177.999 131.444 178.587 131.444C179.175 131.444 179.726 131.584 180.239 131.864C180.762 132.135 181.182 132.541 181.499 133.082C181.826 133.614 181.989 134.267 181.989 135.042C181.989 135.817 181.826 136.475 181.499 137.016C181.182 137.557 180.762 137.968 180.239 138.248C179.726 138.528 179.175 138.668 178.587 138.668ZM178.587 137.94C179.016 137.94 179.38 137.833 179.679 137.618C179.978 137.403 180.206 137.086 180.365 136.666C180.524 136.246 180.603 135.719 180.603 135.084C180.603 134.44 180.524 133.903 180.365 133.474C180.206 133.045 179.978 132.723 179.679 132.508C179.38 132.293 179.016 132.186 178.587 132.186C178.167 132.186 177.808 132.293 177.509 132.508C177.21 132.723 176.982 133.045 176.823 133.474C176.664 133.894 176.585 134.421 176.585 135.056C176.585 135.7 176.664 136.237 176.823 136.666C176.982 137.086 177.21 137.403 177.509 137.618C177.808 137.833 178.167 137.94 178.587 137.94ZM183.236 138.5V137.828L184.818 137.688H185.196L186.68 137.828V138.5H183.236ZM184.342 138.5C184.342 138.22 184.342 137.907 184.342 137.562C184.352 137.217 184.356 136.862 184.356 136.498C184.356 136.134 184.356 135.798 184.356 135.49V134.762C184.356 134.519 184.356 134.295 184.356 134.09C184.356 133.885 184.352 133.689 184.342 133.502C184.342 133.306 184.342 133.105 184.342 132.9L183.166 132.844V132.228L184.986 131.528L185.378 131.598L185.574 133.11H185.63V135.49C185.63 135.798 185.63 136.134 185.63 136.498C185.63 136.862 185.63 137.217 185.63 137.562C185.64 137.907 185.644 138.22 185.644 138.5H184.342ZM187.8 138.5V137.828L189.354 137.688H189.732L191.244 137.828V138.5H187.8ZM188.878 138.5C188.878 138.22 188.878 137.907 188.878 137.562C188.888 137.217 188.892 136.867 188.892 136.512C188.892 136.148 188.892 135.807 188.892 135.49V134.132C188.892 133.544 188.794 133.133 188.598 132.9C188.412 132.657 188.104 132.536 187.674 132.536C187.432 132.536 187.189 132.573 186.946 132.648C186.704 132.713 186.456 132.821 186.204 132.97C185.962 133.11 185.71 133.283 185.448 133.488L185.35 132.886H185.686C185.882 132.615 186.106 132.373 186.358 132.158C186.61 131.943 186.89 131.771 187.198 131.64C187.506 131.509 187.828 131.444 188.164 131.444C188.836 131.444 189.336 131.649 189.662 132.06C189.989 132.461 190.152 133.077 190.152 133.908V135.49C190.152 135.807 190.152 136.148 190.152 136.512C190.162 136.867 190.166 137.217 190.166 137.562C190.166 137.907 190.171 138.22 190.18 138.5H188.878ZM197.109 132.424V131.612H199.685V132.424H197.109ZM198.201 138.64C197.678 138.64 197.253 138.495 196.927 138.206C196.609 137.917 196.451 137.469 196.451 136.862C196.451 136.694 196.451 136.531 196.451 136.372C196.451 136.204 196.451 136.013 196.451 135.798V132.424H195.233V131.766L197.025 131.542L196.507 131.976L196.955 129.68H197.823L197.669 132.088L197.725 132.228V136.736C197.725 137.109 197.799 137.375 197.949 137.534C198.107 137.693 198.322 137.772 198.593 137.772C198.77 137.772 198.933 137.744 199.083 137.688C199.232 137.632 199.377 137.567 199.517 137.492L199.839 138.024C199.736 138.127 199.605 138.229 199.447 138.332C199.288 138.425 199.101 138.5 198.887 138.556C198.681 138.612 198.453 138.64 198.201 138.64ZM200.544 138.5V137.828L202.126 137.688H202.504L204.016 137.828V138.5H200.544ZM201.65 138.5C201.659 138.22 201.664 137.907 201.664 137.562C201.664 137.217 201.664 136.862 201.664 136.498C201.673 136.134 201.678 135.798 201.678 135.49V129.484L200.46 129.274V128.686L202.56 128.21L202.938 128.266L202.91 130.044L202.896 133.068L202.938 133.166V135.49C202.938 135.798 202.938 136.134 202.938 136.498C202.938 136.862 202.938 137.217 202.938 137.562C202.947 137.907 202.952 138.22 202.952 138.5H201.65ZM205.15 138.5V137.828L206.69 137.688H207.082L208.594 137.828V138.5H205.15ZM206.214 138.5C206.214 138.22 206.214 137.907 206.214 137.562C206.223 137.217 206.228 136.867 206.228 136.512C206.228 136.148 206.228 135.807 206.228 135.49V134.132C206.228 133.544 206.13 133.133 205.934 132.9C205.747 132.657 205.439 132.536 205.01 132.536C204.767 132.536 204.525 132.573 204.282 132.648C204.039 132.713 203.792 132.821 203.54 132.97C203.297 133.11 203.045 133.287 202.784 133.502L202.658 132.9H203.078C203.255 132.629 203.465 132.387 203.708 132.172C203.96 131.948 204.235 131.771 204.534 131.64C204.842 131.509 205.169 131.444 205.514 131.444C206.177 131.444 206.671 131.649 206.998 132.06C207.334 132.461 207.502 133.077 207.502 133.908V135.49C207.502 135.807 207.502 136.148 207.502 136.512C207.502 136.867 207.502 137.217 207.502 137.562C207.511 137.907 207.516 138.22 207.516 138.5H206.214ZM212.971 138.668C212.271 138.668 211.669 138.528 211.165 138.248C210.67 137.959 210.287 137.553 210.017 137.03C209.755 136.498 209.625 135.873 209.625 135.154C209.625 134.426 209.765 133.787 210.045 133.236C210.325 132.676 210.712 132.237 211.207 131.92C211.701 131.603 212.266 131.444 212.901 131.444C213.47 131.444 213.965 131.556 214.385 131.78C214.805 131.995 215.131 132.307 215.365 132.718C215.607 133.129 215.729 133.619 215.729 134.188C215.729 134.365 215.715 134.543 215.687 134.72C215.668 134.888 215.645 135.028 215.617 135.14H210.367V134.482H214.035C214.231 134.417 214.357 134.323 214.413 134.202C214.469 134.081 214.497 133.941 214.497 133.782C214.497 133.418 214.431 133.119 214.301 132.886C214.179 132.643 213.997 132.466 213.755 132.354C213.521 132.233 213.237 132.172 212.901 132.172C212.546 132.172 212.219 132.27 211.921 132.466C211.622 132.662 211.384 132.97 211.207 133.39C211.029 133.801 210.941 134.342 210.941 135.014C210.941 135.583 211.034 136.073 211.221 136.484C211.417 136.885 211.687 137.193 212.033 137.408C212.387 137.623 212.798 137.73 213.265 137.73C213.759 137.73 214.17 137.641 214.497 137.464C214.833 137.277 215.131 137.035 215.393 136.736L215.827 137.086C215.621 137.394 215.393 137.669 215.141 137.912C214.889 138.155 214.59 138.341 214.245 138.472C213.899 138.603 213.475 138.668 212.971 138.668ZM223.8 138.668C223.212 138.668 222.657 138.533 222.134 138.262C221.621 137.991 221.205 137.59 220.888 137.058C220.571 136.517 220.412 135.859 220.412 135.084C220.412 134.309 220.571 133.651 220.888 133.11C221.205 132.559 221.621 132.144 222.134 131.864C222.657 131.584 223.212 131.444 223.8 131.444C224.388 131.444 224.939 131.584 225.452 131.864C225.975 132.135 226.395 132.541 226.712 133.082C227.039 133.614 227.202 134.267 227.202 135.042C227.202 135.817 227.039 136.475 226.712 137.016C226.395 137.557 225.975 137.968 225.452 138.248C224.939 138.528 224.388 138.668 223.8 138.668ZM223.8 137.94C224.229 137.94 224.593 137.833 224.892 137.618C225.191 137.403 225.419 137.086 225.578 136.666C225.737 136.246 225.816 135.719 225.816 135.084C225.816 134.44 225.737 133.903 225.578 133.474C225.419 133.045 225.191 132.723 224.892 132.508C224.593 132.293 224.229 132.186 223.8 132.186C223.38 132.186 223.021 132.293 222.722 132.508C222.423 132.723 222.195 133.045 222.036 133.474C221.877 133.894 221.798 134.421 221.798 135.056C221.798 135.7 221.877 136.237 222.036 136.666C222.195 137.086 222.423 137.403 222.722 137.618C223.021 137.833 223.38 137.94 223.8 137.94ZM231.209 138.668C230.556 138.668 230.056 138.472 229.711 138.08C229.366 137.688 229.198 137.072 229.207 136.232L229.221 132.228L229.655 132.704L228.087 132.396V131.808L230.145 131.57L230.495 131.64L230.467 133.334V136.008C230.467 136.577 230.565 136.983 230.761 137.226C230.957 137.469 231.26 137.59 231.671 137.59C231.914 137.59 232.161 137.553 232.413 137.478C232.674 137.394 232.931 137.277 233.183 137.128C233.435 136.969 233.682 136.787 233.925 136.582L234.037 137.212H233.645C233.449 137.511 233.225 137.772 232.973 137.996C232.721 138.211 232.446 138.379 232.147 138.5C231.858 138.612 231.545 138.668 231.209 138.668ZM233.939 138.612L233.799 137.03L233.743 137.016L233.757 132.606L232.623 132.396V131.808L234.667 131.57L235.017 131.64L235.003 133.334V137.674L236.095 137.884V138.5L233.939 138.612ZM238.726 132.424V131.612H241.302V132.424H238.726ZM239.818 138.64C239.295 138.64 238.871 138.495 238.544 138.206C238.227 137.917 238.068 137.469 238.068 136.862C238.068 136.694 238.068 136.531 238.068 136.372C238.068 136.204 238.068 136.013 238.068 135.798V132.424H236.85V131.766L238.642 131.542L238.124 131.976L238.572 129.68H239.44L239.286 132.088L239.342 132.228V136.736C239.342 137.109 239.417 137.375 239.566 137.534C239.725 137.693 239.939 137.772 240.21 137.772C240.387 137.772 240.551 137.744 240.7 137.688C240.849 137.632 240.994 137.567 241.134 137.492L241.456 138.024C241.353 138.127 241.223 138.229 241.064 138.332C240.905 138.425 240.719 138.5 240.504 138.556C240.299 138.612 240.07 138.64 239.818 138.64ZM244.653 138.668C244.187 138.668 243.762 138.621 243.379 138.528C242.997 138.444 242.651 138.327 242.343 138.178L242.287 136.484H243.113L243.491 138.192H242.819V137.492C243.043 137.641 243.314 137.763 243.631 137.856C243.949 137.94 244.294 137.982 244.667 137.982C245.041 137.982 245.339 137.931 245.563 137.828C245.797 137.725 245.965 137.59 246.067 137.422C246.179 137.245 246.235 137.053 246.235 136.848C246.235 136.54 246.128 136.297 245.913 136.12C245.699 135.943 245.358 135.779 244.891 135.63L244.429 135.462C243.991 135.322 243.617 135.163 243.309 134.986C243.001 134.799 242.763 134.58 242.595 134.328C242.437 134.076 242.357 133.777 242.357 133.432C242.357 133.059 242.46 132.723 242.665 132.424C242.88 132.116 243.183 131.878 243.575 131.71C243.977 131.533 244.448 131.444 244.989 131.444C245.4 131.444 245.787 131.491 246.151 131.584C246.515 131.677 246.833 131.799 247.103 131.948L247.075 133.53H246.263L245.955 132.004H246.529V132.578C246.305 132.429 246.063 132.321 245.801 132.256C245.549 132.181 245.279 132.144 244.989 132.144C244.513 132.144 244.159 132.237 243.925 132.424C243.701 132.611 243.589 132.849 243.589 133.138C243.589 133.427 243.687 133.656 243.883 133.824C244.089 133.983 244.434 134.146 244.919 134.314L245.283 134.44C245.778 134.599 246.189 134.781 246.515 134.986C246.851 135.191 247.099 135.425 247.257 135.686C247.416 135.938 247.495 136.237 247.495 136.582C247.495 136.974 247.383 137.329 247.159 137.646C246.935 137.954 246.613 138.201 246.193 138.388C245.773 138.575 245.26 138.668 244.653 138.668ZM248.711 138.5V137.828L250.279 137.688H250.671L252.183 137.828V138.5H248.711ZM249.803 138.5C249.812 138.22 249.817 137.907 249.817 137.562C249.817 137.217 249.817 136.862 249.817 136.498C249.826 136.134 249.831 135.798 249.831 135.49V134.762C249.831 134.407 249.826 134.085 249.817 133.796C249.817 133.507 249.812 133.208 249.803 132.9L248.641 132.844V132.228L250.727 131.528L251.119 131.598L251.091 133.306V135.49C251.091 135.798 251.091 136.134 251.091 136.498C251.1 136.862 251.105 137.217 251.105 137.562C251.105 137.907 251.11 138.22 251.119 138.5H249.803ZM250.419 130.114C250.158 130.114 249.934 130.025 249.747 129.848C249.57 129.671 249.481 129.451 249.481 129.19C249.481 128.929 249.57 128.709 249.747 128.532C249.934 128.355 250.158 128.266 250.419 128.266C250.69 128.266 250.914 128.355 251.091 128.532C251.278 128.709 251.371 128.929 251.371 129.19C251.371 129.451 251.278 129.671 251.091 129.848C250.914 130.025 250.69 130.114 250.419 130.114ZM256.3 138.668C255.731 138.668 255.227 138.528 254.788 138.248C254.35 137.959 254.004 137.548 253.752 137.016C253.51 136.484 253.388 135.845 253.388 135.098C253.388 134.342 253.519 133.693 253.78 133.152C254.042 132.601 254.396 132.181 254.844 131.892C255.292 131.593 255.796 131.444 256.356 131.444C256.683 131.444 256.968 131.495 257.21 131.598C257.453 131.691 257.668 131.836 257.854 132.032C258.05 132.219 258.232 132.443 258.4 132.704H258.904L258.834 133.656C258.433 133.199 258.069 132.863 257.742 132.648C257.425 132.424 257.075 132.312 256.692 132.312C256.328 132.312 255.997 132.41 255.698 132.606C255.409 132.793 255.176 133.091 254.998 133.502C254.83 133.903 254.746 134.421 254.746 135.056C254.746 135.681 254.83 136.195 254.998 136.596C255.166 136.997 255.395 137.296 255.684 137.492C255.983 137.679 256.319 137.772 256.692 137.772C257.122 137.772 257.495 137.655 257.812 137.422C258.13 137.189 258.466 136.834 258.82 136.358L258.876 137.31H258.4C258.251 137.571 258.083 137.805 257.896 138.01C257.71 138.215 257.486 138.379 257.224 138.5C256.972 138.612 256.664 138.668 256.3 138.668ZM258.61 138.598L258.484 137.1L258.456 137.086V132.998L258.526 132.9L258.484 129.484L257.238 129.274V128.686L259.366 128.21L259.744 128.266L259.716 130.044V137.66L260.878 137.856V138.5L258.61 138.598ZM265.334 138.668C264.634 138.668 264.032 138.528 263.528 138.248C263.033 137.959 262.651 137.553 262.38 137.03C262.119 136.498 261.988 135.873 261.988 135.154C261.988 134.426 262.128 133.787 262.408 133.236C262.688 132.676 263.075 132.237 263.57 131.92C264.065 131.603 264.629 131.444 265.264 131.444C265.833 131.444 266.328 131.556 266.748 131.78C267.168 131.995 267.495 132.307 267.728 132.718C267.971 133.129 268.092 133.619 268.092 134.188C268.092 134.365 268.078 134.543 268.05 134.72C268.031 134.888 268.008 135.028 267.98 135.14H262.73V134.482H266.398C266.594 134.417 266.72 134.323 266.776 134.202C266.832 134.081 266.86 133.941 266.86 133.782C266.86 133.418 266.795 133.119 266.664 132.886C266.543 132.643 266.361 132.466 266.118 132.354C265.885 132.233 265.6 132.172 265.264 132.172C264.909 132.172 264.583 132.27 264.284 132.466C263.985 132.662 263.747 132.97 263.57 133.39C263.393 133.801 263.304 134.342 263.304 135.014C263.304 135.583 263.397 136.073 263.584 136.484C263.78 136.885 264.051 137.193 264.396 137.408C264.751 137.623 265.161 137.73 265.628 137.73C266.123 137.73 266.533 137.641 266.86 137.464C267.196 137.277 267.495 137.035 267.756 136.736L268.19 137.086C267.985 137.394 267.756 137.669 267.504 137.912C267.252 138.155 266.953 138.341 266.608 138.472C266.263 138.603 265.838 138.668 265.334 138.668ZM269.319 141.062L269.095 140.544C269.478 140.357 269.786 140.166 270.019 139.97C270.262 139.783 270.449 139.573 270.579 139.34C270.719 139.107 270.817 138.831 270.873 138.514L270.957 138.864L270.439 138.57C270.187 138.505 269.996 138.397 269.865 138.248C269.744 138.099 269.683 137.912 269.683 137.688C269.683 137.408 269.767 137.179 269.935 137.002C270.113 136.815 270.351 136.722 270.649 136.722C270.808 136.722 270.957 136.75 271.097 136.806C271.237 136.853 271.363 136.932 271.475 137.044C271.522 137.193 271.555 137.361 271.573 137.548C271.601 137.725 271.615 137.912 271.615 138.108C271.615 138.556 271.517 138.967 271.321 139.34C271.135 139.723 270.869 140.059 270.523 140.348C270.187 140.637 269.786 140.875 269.319 141.062ZM279.568 141.804C278.915 141.804 278.364 141.729 277.916 141.58C277.468 141.431 277.128 141.225 276.894 140.964C276.661 140.703 276.544 140.404 276.544 140.068C276.544 139.807 276.61 139.573 276.74 139.368C276.871 139.163 277.081 138.976 277.37 138.808C277.66 138.64 278.038 138.486 278.504 138.346L278.602 138.444C278.425 138.575 278.276 138.715 278.154 138.864C278.033 139.013 277.94 139.167 277.874 139.326C277.818 139.485 277.79 139.657 277.79 139.844C277.79 140.087 277.856 140.301 277.986 140.488C278.126 140.675 278.336 140.819 278.616 140.922C278.906 141.025 279.274 141.076 279.722 141.076C280.245 141.076 280.684 141.006 281.038 140.866C281.393 140.735 281.659 140.558 281.836 140.334C282.023 140.119 282.116 139.886 282.116 139.634C282.116 139.326 282.004 139.074 281.78 138.878C281.566 138.691 281.22 138.598 280.744 138.598H278.938C278.798 138.598 278.654 138.593 278.504 138.584C278.364 138.584 278.229 138.579 278.098 138.57V138.346C277.753 138.281 277.473 138.169 277.258 138.01C277.044 137.842 276.936 137.599 276.936 137.282C276.936 137.002 277.034 136.755 277.23 136.54C277.436 136.325 277.73 136.115 278.112 135.91V135.602L278.826 135.714C278.574 135.929 278.388 136.115 278.266 136.274C278.145 136.433 278.084 136.605 278.084 136.792C278.084 137.025 278.164 137.203 278.322 137.324C278.49 137.445 278.761 137.506 279.134 137.506H280.954C281.468 137.506 281.897 137.585 282.242 137.744C282.588 137.893 282.844 138.108 283.012 138.388C283.19 138.659 283.278 138.976 283.278 139.34C283.278 139.667 283.19 139.979 283.012 140.278C282.835 140.577 282.583 140.838 282.256 141.062C281.93 141.295 281.538 141.477 281.08 141.608C280.623 141.739 280.119 141.804 279.568 141.804ZM279.568 136.148C279.046 136.148 278.579 136.055 278.168 135.868C277.767 135.681 277.45 135.415 277.216 135.07C276.992 134.715 276.88 134.295 276.88 133.81C276.88 133.325 276.992 132.905 277.216 132.55C277.45 132.195 277.767 131.925 278.168 131.738C278.579 131.542 279.046 131.444 279.568 131.444C279.914 131.444 280.226 131.486 280.506 131.57C280.786 131.654 281.029 131.771 281.234 131.92C281.44 132.06 281.603 132.228 281.724 132.424L281.822 132.438C281.962 132.615 282.07 132.811 282.144 133.026C282.219 133.241 282.256 133.493 282.256 133.782C282.256 134.258 282.14 134.673 281.906 135.028C281.682 135.383 281.365 135.658 280.954 135.854C280.553 136.05 280.091 136.148 279.568 136.148ZM279.554 135.476C279.853 135.476 280.11 135.406 280.324 135.266C280.548 135.117 280.721 134.916 280.842 134.664C280.964 134.412 281.024 134.113 281.024 133.768C281.024 133.432 280.964 133.143 280.842 132.9C280.73 132.648 280.562 132.457 280.338 132.326C280.124 132.186 279.872 132.116 279.582 132.116C279.284 132.116 279.022 132.186 278.798 132.326C278.584 132.466 278.416 132.662 278.294 132.914C278.173 133.166 278.112 133.46 278.112 133.796C278.112 134.132 278.168 134.426 278.28 134.678C278.402 134.93 278.57 135.126 278.784 135.266C278.999 135.406 279.256 135.476 279.554 135.476ZM281.332 132.676V132.27H281.682L283.012 131.388L283.46 131.458V132.676H281.332ZM284.491 138.5V137.828L286.073 137.688H286.465L288.243 137.828V138.5H284.491ZM285.583 138.5C285.583 138.22 285.583 137.907 285.583 137.562C285.593 137.217 285.597 136.862 285.597 136.498C285.597 136.134 285.597 135.798 285.597 135.49V134.762C285.597 134.519 285.597 134.295 285.597 134.09C285.597 133.885 285.593 133.689 285.583 133.502C285.583 133.306 285.583 133.105 285.583 132.9L284.407 132.844V132.228L286.255 131.528L286.647 131.598L286.787 133.502L286.871 133.516V135.49C286.871 135.798 286.871 136.134 286.871 136.498C286.871 136.862 286.871 137.217 286.871 137.562C286.881 137.907 286.885 138.22 286.885 138.5H285.583ZM286.745 134.566L286.633 133.53H286.941C287.109 133.11 287.291 132.746 287.487 132.438C287.693 132.13 287.917 131.892 288.159 131.724C288.411 131.556 288.687 131.472 288.985 131.472C289.265 131.472 289.494 131.542 289.671 131.682C289.858 131.813 289.984 131.957 290.049 132.116C290.04 132.405 289.961 132.653 289.811 132.858C289.671 133.063 289.447 133.166 289.139 133.166C288.943 133.166 288.771 133.129 288.621 133.054C288.481 132.97 288.351 132.872 288.229 132.76L287.907 132.452L288.635 132.396C288.169 132.62 287.781 132.923 287.473 133.306C287.175 133.679 286.932 134.099 286.745 134.566ZM294.113 138.668C293.413 138.668 292.811 138.528 292.307 138.248C291.813 137.959 291.43 137.553 291.159 137.03C290.898 136.498 290.767 135.873 290.767 135.154C290.767 134.426 290.907 133.787 291.187 133.236C291.467 132.676 291.855 132.237 292.349 131.92C292.844 131.603 293.409 131.444 294.043 131.444C294.613 131.444 295.107 131.556 295.527 131.78C295.947 131.995 296.274 132.307 296.507 132.718C296.75 133.129 296.871 133.619 296.871 134.188C296.871 134.365 296.857 134.543 296.829 134.72C296.811 134.888 296.787 135.028 296.759 135.14H291.509V134.482H295.177C295.373 134.417 295.499 134.323 295.555 134.202C295.611 134.081 295.639 133.941 295.639 133.782C295.639 133.418 295.574 133.119 295.443 132.886C295.322 132.643 295.14 132.466 294.897 132.354C294.664 132.233 294.379 132.172 294.043 132.172C293.689 132.172 293.362 132.27 293.063 132.466C292.765 132.662 292.527 132.97 292.349 133.39C292.172 133.801 292.083 134.342 292.083 135.014C292.083 135.583 292.177 136.073 292.363 136.484C292.559 136.885 292.83 137.193 293.175 137.408C293.53 137.623 293.941 137.73 294.407 137.73C294.902 137.73 295.313 137.641 295.639 137.464C295.975 137.277 296.274 137.035 296.535 136.736L296.969 137.086C296.764 137.394 296.535 137.669 296.283 137.912C296.031 138.155 295.733 138.341 295.387 138.472C295.042 138.603 294.617 138.668 294.113 138.668ZM301.578 138.668C300.878 138.668 300.276 138.528 299.772 138.248C299.278 137.959 298.895 137.553 298.624 137.03C298.363 136.498 298.232 135.873 298.232 135.154C298.232 134.426 298.372 133.787 298.652 133.236C298.932 132.676 299.32 132.237 299.814 131.92C300.309 131.603 300.874 131.444 301.508 131.444C302.078 131.444 302.572 131.556 302.992 131.78C303.412 131.995 303.739 132.307 303.972 132.718C304.215 133.129 304.336 133.619 304.336 134.188C304.336 134.365 304.322 134.543 304.294 134.72C304.276 134.888 304.252 135.028 304.224 135.14H298.974V134.482H302.642C302.838 134.417 302.964 134.323 303.02 134.202C303.076 134.081 303.104 133.941 303.104 133.782C303.104 133.418 303.039 133.119 302.908 132.886C302.787 132.643 302.605 132.466 302.362 132.354C302.129 132.233 301.844 132.172 301.508 132.172C301.154 132.172 300.827 132.27 300.528 132.466C300.23 132.662 299.992 132.97 299.814 133.39C299.637 133.801 299.548 134.342 299.548 135.014C299.548 135.583 299.642 136.073 299.828 136.484C300.024 136.885 300.295 137.193 300.64 137.408C300.995 137.623 301.406 137.73 301.872 137.73C302.367 137.73 302.778 137.641 303.104 137.464C303.44 137.277 303.739 137.035 304 136.736L304.434 137.086C304.229 137.394 304 137.669 303.748 137.912C303.496 138.155 303.198 138.341 302.852 138.472C302.507 138.603 302.082 138.668 301.578 138.668ZM308.609 138.668C308.04 138.668 307.536 138.528 307.097 138.248C306.658 137.959 306.313 137.548 306.061 137.016C305.818 136.484 305.697 135.845 305.697 135.098C305.697 134.342 305.828 133.693 306.089 133.152C306.35 132.601 306.705 132.181 307.153 131.892C307.601 131.593 308.105 131.444 308.665 131.444C308.992 131.444 309.276 131.495 309.519 131.598C309.762 131.691 309.976 131.836 310.163 132.032C310.359 132.219 310.541 132.443 310.709 132.704H311.213L311.143 133.656C310.742 133.199 310.378 132.863 310.051 132.648C309.734 132.424 309.384 132.312 309.001 132.312C308.637 132.312 308.306 132.41 308.007 132.606C307.718 132.793 307.484 133.091 307.307 133.502C307.139 133.903 307.055 134.421 307.055 135.056C307.055 135.681 307.139 136.195 307.307 136.596C307.475 136.997 307.704 137.296 307.993 137.492C308.292 137.679 308.628 137.772 309.001 137.772C309.43 137.772 309.804 137.655 310.121 137.422C310.438 137.189 310.774 136.834 311.129 136.358L311.185 137.31H310.709C310.56 137.571 310.392 137.805 310.205 138.01C310.018 138.215 309.794 138.379 309.533 138.5C309.281 138.612 308.973 138.668 308.609 138.668ZM310.919 138.598L310.793 137.1L310.765 137.086V132.998L310.835 132.9L310.793 129.484L309.547 129.274V128.686L311.675 128.21L312.053 128.266L312.025 130.044V137.66L313.187 137.856V138.5L310.919 138.598ZM314.809 141.902C314.52 141.902 314.268 141.86 314.053 141.776C313.848 141.701 313.684 141.594 313.563 141.454C313.442 141.314 313.372 141.169 313.353 141.02C313.4 140.833 313.507 140.684 313.675 140.572C313.843 140.46 314.044 140.404 314.277 140.404C314.51 140.404 314.711 140.446 314.879 140.53C315.047 140.623 315.22 140.763 315.397 140.95L315.789 141.342L315.369 141.468L315.439 141.314C315.7 141.137 315.934 140.931 316.139 140.698C316.344 140.465 316.526 140.199 316.685 139.9C316.853 139.601 317.012 139.279 317.161 138.934L317.385 138.374L317.609 138.318L318.729 134.72L319.835 131.612H320.773L318.029 138.556C317.73 139.331 317.422 139.965 317.105 140.46C316.797 140.955 316.456 141.319 316.083 141.552C315.71 141.785 315.285 141.902 314.809 141.902ZM317.189 139.424L314.095 131.612H315.523L317.721 137.758L318.029 137.898L317.189 139.424ZM313.493 132.256V131.612H317.077V132.27L315.383 132.424H314.935L313.493 132.256ZM318.323 132.256V131.612H321.333V132.256L320.199 132.424H319.779L318.323 132.256ZM328.868 138.668C328.28 138.668 327.725 138.533 327.202 138.262C326.689 137.991 326.274 137.59 325.956 137.058C325.639 136.517 325.48 135.859 325.48 135.084C325.48 134.309 325.639 133.651 325.956 133.11C326.274 132.559 326.689 132.144 327.202 131.864C327.725 131.584 328.28 131.444 328.868 131.444C329.456 131.444 330.007 131.584 330.52 131.864C331.043 132.135 331.463 132.541 331.78 133.082C332.107 133.614 332.27 134.267 332.27 135.042C332.27 135.817 332.107 136.475 331.78 137.016C331.463 137.557 331.043 137.968 330.52 138.248C330.007 138.528 329.456 138.668 328.868 138.668ZM328.868 137.94C329.298 137.94 329.662 137.833 329.96 137.618C330.259 137.403 330.488 137.086 330.646 136.666C330.805 136.246 330.884 135.719 330.884 135.084C330.884 134.44 330.805 133.903 330.646 133.474C330.488 133.045 330.259 132.723 329.96 132.508C329.662 132.293 329.298 132.186 328.868 132.186C328.448 132.186 328.089 132.293 327.79 132.508C327.492 132.723 327.263 133.045 327.104 133.474C326.946 133.894 326.866 134.421 326.866 135.056C326.866 135.7 326.946 136.237 327.104 136.666C327.263 137.086 327.492 137.403 327.79 137.618C328.089 137.833 328.448 137.94 328.868 137.94ZM333.518 138.5V137.828L335.1 137.688H335.478L336.962 137.828V138.5H333.518ZM334.624 138.5C334.624 138.22 334.624 137.907 334.624 137.562C334.633 137.217 334.638 136.862 334.638 136.498C334.638 136.134 334.638 135.798 334.638 135.49V134.762C334.638 134.519 334.638 134.295 334.638 134.09C334.638 133.885 334.633 133.689 334.624 133.502C334.624 133.306 334.624 133.105 334.624 132.9L333.448 132.844V132.228L335.268 131.528L335.66 131.598L335.856 133.11H335.912V135.49C335.912 135.798 335.912 136.134 335.912 136.498C335.912 136.862 335.912 137.217 335.912 137.562C335.921 137.907 335.926 138.22 335.926 138.5H334.624ZM338.082 138.5V137.828L339.636 137.688H340.014L341.526 137.828V138.5H338.082ZM339.16 138.5C339.16 138.22 339.16 137.907 339.16 137.562C339.169 137.217 339.174 136.867 339.174 136.512C339.174 136.148 339.174 135.807 339.174 135.49V134.132C339.174 133.544 339.076 133.133 338.88 132.9C338.693 132.657 338.385 132.536 337.956 132.536C337.713 132.536 337.47 132.573 337.228 132.648C336.985 132.713 336.738 132.821 336.486 132.97C336.243 133.11 335.991 133.283 335.73 133.488L335.632 132.886H335.968C336.164 132.615 336.388 132.373 336.64 132.158C336.892 131.943 337.172 131.771 337.48 131.64C337.788 131.509 338.11 131.444 338.446 131.444C339.118 131.444 339.617 131.649 339.944 132.06C340.27 132.461 340.434 133.077 340.434 133.908V135.49C340.434 135.807 340.434 136.148 340.434 136.512C340.443 136.867 340.448 137.217 340.448 137.562C340.448 137.907 340.452 138.22 340.462 138.5H339.16ZM347.39 132.424V131.612H349.966V132.424H347.39ZM348.482 138.64C347.959 138.64 347.535 138.495 347.208 138.206C346.891 137.917 346.732 137.469 346.732 136.862C346.732 136.694 346.732 136.531 346.732 136.372C346.732 136.204 346.732 136.013 346.732 135.798V132.424H345.514V131.766L347.306 131.542L346.788 131.976L347.236 129.68H348.104L347.95 132.088L348.006 132.228V136.736C348.006 137.109 348.081 137.375 348.23 137.534C348.389 137.693 348.603 137.772 348.874 137.772C349.051 137.772 349.215 137.744 349.364 137.688C349.513 137.632 349.658 137.567 349.798 137.492L350.12 138.024C350.017 138.127 349.887 138.229 349.728 138.332C349.569 138.425 349.383 138.5 349.168 138.556C348.963 138.612 348.734 138.64 348.482 138.64ZM350.825 138.5V137.828L352.407 137.688H352.785L354.297 137.828V138.5H350.825ZM351.931 138.5C351.941 138.22 351.945 137.907 351.945 137.562C351.945 137.217 351.945 136.862 351.945 136.498C351.955 136.134 351.959 135.798 351.959 135.49V129.484L350.741 129.274V128.686L352.841 128.21L353.219 128.266L353.191 130.044L353.177 133.068L353.219 133.166V135.49C353.219 135.798 353.219 136.134 353.219 136.498C353.219 136.862 353.219 137.217 353.219 137.562C353.229 137.907 353.233 138.22 353.233 138.5H351.931ZM355.431 138.5V137.828L356.971 137.688H357.363L358.875 137.828V138.5H355.431ZM356.495 138.5C356.495 138.22 356.495 137.907 356.495 137.562C356.505 137.217 356.509 136.867 356.509 136.512C356.509 136.148 356.509 135.807 356.509 135.49V134.132C356.509 133.544 356.411 133.133 356.215 132.9C356.029 132.657 355.721 132.536 355.291 132.536C355.049 132.536 354.806 132.573 354.563 132.648C354.321 132.713 354.073 132.821 353.821 132.97C353.579 133.11 353.327 133.287 353.065 133.502L352.939 132.9H353.359C353.537 132.629 353.747 132.387 353.989 132.172C354.241 131.948 354.517 131.771 354.815 131.64C355.123 131.509 355.45 131.444 355.795 131.444C356.458 131.444 356.953 131.649 357.279 132.06C357.615 132.461 357.783 133.077 357.783 133.908V135.49C357.783 135.807 357.783 136.148 357.783 136.512C357.783 136.867 357.783 137.217 357.783 137.562C357.793 137.907 357.797 138.22 357.797 138.5H356.495ZM363.252 138.668C362.552 138.668 361.95 138.528 361.446 138.248C360.951 137.959 360.569 137.553 360.298 137.03C360.037 136.498 359.906 135.873 359.906 135.154C359.906 134.426 360.046 133.787 360.326 133.236C360.606 132.676 360.993 132.237 361.488 131.92C361.983 131.603 362.547 131.444 363.182 131.444C363.751 131.444 364.246 131.556 364.666 131.78C365.086 131.995 365.413 132.307 365.646 132.718C365.889 133.129 366.01 133.619 366.01 134.188C366.01 134.365 365.996 134.543 365.968 134.72C365.949 134.888 365.926 135.028 365.898 135.14H360.648V134.482H364.316C364.512 134.417 364.638 134.323 364.694 134.202C364.75 134.081 364.778 133.941 364.778 133.782C364.778 133.418 364.713 133.119 364.582 132.886C364.461 132.643 364.279 132.466 364.036 132.354C363.803 132.233 363.518 132.172 363.182 132.172C362.827 132.172 362.501 132.27 362.202 132.466C361.903 132.662 361.665 132.97 361.488 133.39C361.311 133.801 361.222 134.342 361.222 135.014C361.222 135.583 361.315 136.073 361.502 136.484C361.698 136.885 361.969 137.193 362.314 137.408C362.669 137.623 363.079 137.73 363.546 137.73C364.041 137.73 364.451 137.641 364.778 137.464C365.114 137.277 365.413 137.035 365.674 136.736L366.108 137.086C365.903 137.394 365.674 137.669 365.422 137.912C365.17 138.155 364.871 138.341 364.526 138.472C364.181 138.603 363.756 138.668 363.252 138.668ZM370.623 138.5V137.828L372.191 137.688H372.583L374.095 137.828V138.5H370.623ZM371.715 138.5C371.724 138.22 371.729 137.907 371.729 137.562C371.729 137.217 371.729 136.862 371.729 136.498C371.738 136.134 371.743 135.798 371.743 135.49V134.762C371.743 134.407 371.738 134.085 371.729 133.796C371.729 133.507 371.724 133.208 371.715 132.9L370.553 132.844V132.228L372.639 131.528L373.031 131.598L373.003 133.306V135.49C373.003 135.798 373.003 136.134 373.003 136.498C373.012 136.862 373.017 137.217 373.017 137.562C373.017 137.907 373.022 138.22 373.031 138.5H371.715ZM372.331 130.114C372.07 130.114 371.846 130.025 371.659 129.848C371.482 129.671 371.393 129.451 371.393 129.19C371.393 128.929 371.482 128.709 371.659 128.532C371.846 128.355 372.07 128.266 372.331 128.266C372.602 128.266 372.826 128.355 373.003 128.532C373.19 128.709 373.283 128.929 373.283 129.19C373.283 129.451 373.19 129.671 373.003 129.848C372.826 130.025 372.602 130.114 372.331 130.114ZM375.231 138.5V137.828L376.813 137.688H377.191L378.675 137.828V138.5H375.231ZM376.337 138.5C376.337 138.22 376.337 137.907 376.337 137.562C376.346 137.217 376.351 136.862 376.351 136.498C376.351 136.134 376.351 135.798 376.351 135.49V134.762C376.351 134.519 376.351 134.295 376.351 134.09C376.351 133.885 376.346 133.689 376.337 133.502C376.337 133.306 376.337 133.105 376.337 132.9L375.161 132.844V132.228L376.981 131.528L377.373 131.598L377.569 133.11H377.625V135.49C377.625 135.798 377.625 136.134 377.625 136.498C377.625 136.862 377.625 137.217 377.625 137.562C377.634 137.907 377.639 138.22 377.639 138.5H376.337ZM379.795 138.5V137.828L381.349 137.688H381.727L383.239 137.828V138.5H379.795ZM380.873 138.5C380.873 138.22 380.873 137.907 380.873 137.562C380.882 137.217 380.887 136.867 380.887 136.512C380.887 136.148 380.887 135.807 380.887 135.49V134.132C380.887 133.544 380.789 133.133 380.593 132.9C380.406 132.657 380.098 132.536 379.669 132.536C379.426 132.536 379.183 132.573 378.941 132.648C378.698 132.713 378.451 132.821 378.199 132.97C377.956 133.11 377.704 133.283 377.443 133.488L377.345 132.886H377.681C377.877 132.615 378.101 132.373 378.353 132.158C378.605 131.943 378.885 131.771 379.193 131.64C379.501 131.509 379.823 131.444 380.159 131.444C380.831 131.444 381.33 131.649 381.657 132.06C381.983 132.461 382.147 133.077 382.147 133.908V135.49C382.147 135.807 382.147 136.148 382.147 136.512C382.156 136.867 382.161 137.217 382.161 137.562C382.161 137.907 382.165 138.22 382.175 138.5H380.873ZM386.677 138.668C386.21 138.668 385.785 138.621 385.403 138.528C385.02 138.444 384.675 138.327 384.367 138.178L384.311 136.484H385.137L385.515 138.192H384.843V137.492C385.067 137.641 385.337 137.763 385.655 137.856C385.972 137.94 386.317 137.982 386.691 137.982C387.064 137.982 387.363 137.931 387.587 137.828C387.82 137.725 387.988 137.59 388.091 137.422C388.203 137.245 388.259 137.053 388.259 136.848C388.259 136.54 388.151 136.297 387.937 136.12C387.722 135.943 387.381 135.779 386.915 135.63L386.453 135.462C386.014 135.322 385.641 135.163 385.333 134.986C385.025 134.799 384.787 134.58 384.619 134.328C384.46 134.076 384.381 133.777 384.381 133.432C384.381 133.059 384.483 132.723 384.689 132.424C384.903 132.116 385.207 131.878 385.599 131.71C386 131.533 386.471 131.444 387.013 131.444C387.423 131.444 387.811 131.491 388.175 131.584C388.539 131.677 388.856 131.799 389.127 131.948L389.099 133.53H388.287L387.979 132.004H388.553V132.578C388.329 132.429 388.086 132.321 387.825 132.256C387.573 132.181 387.302 132.144 387.013 132.144C386.537 132.144 386.182 132.237 385.949 132.424C385.725 132.611 385.613 132.849 385.613 133.138C385.613 133.427 385.711 133.656 385.907 133.824C386.112 133.983 386.457 134.146 386.943 134.314L387.307 134.44C387.801 134.599 388.212 134.781 388.539 134.986C388.875 135.191 389.122 135.425 389.281 135.686C389.439 135.938 389.519 136.237 389.519 136.582C389.519 136.974 389.407 137.329 389.183 137.646C388.959 137.954 388.637 138.201 388.217 138.388C387.797 138.575 387.283 138.668 386.677 138.668ZM390.734 138.5V137.828L392.302 137.688H392.694L394.206 137.828V138.5H390.734ZM391.826 138.5C391.836 138.22 391.84 137.907 391.84 137.562C391.84 137.217 391.84 136.862 391.84 136.498C391.85 136.134 391.854 135.798 391.854 135.49V134.762C391.854 134.407 391.85 134.085 391.84 133.796C391.84 133.507 391.836 133.208 391.826 132.9L390.664 132.844V132.228L392.75 131.528L393.142 131.598L393.114 133.306V135.49C393.114 135.798 393.114 136.134 393.114 136.498C393.124 136.862 393.128 137.217 393.128 137.562C393.128 137.907 393.133 138.22 393.142 138.5H391.826ZM392.442 130.114C392.181 130.114 391.957 130.025 391.77 129.848C391.593 129.671 391.504 129.451 391.504 129.19C391.504 128.929 391.593 128.709 391.77 128.532C391.957 128.355 392.181 128.266 392.442 128.266C392.713 128.266 392.937 128.355 393.114 128.532C393.301 128.709 393.394 128.929 393.394 129.19C393.394 129.451 393.301 129.671 393.114 129.848C392.937 130.025 392.713 130.114 392.442 130.114ZM398.324 138.668C397.755 138.668 397.251 138.528 396.812 138.248C396.373 137.959 396.028 137.548 395.776 137.016C395.533 136.484 395.412 135.845 395.412 135.098C395.412 134.342 395.543 133.693 395.804 133.152C396.065 132.601 396.42 132.181 396.868 131.892C397.316 131.593 397.82 131.444 398.38 131.444C398.707 131.444 398.991 131.495 399.234 131.598C399.477 131.691 399.691 131.836 399.878 132.032C400.074 132.219 400.256 132.443 400.424 132.704H400.928L400.858 133.656C400.457 133.199 400.093 132.863 399.766 132.648C399.449 132.424 399.099 132.312 398.716 132.312C398.352 132.312 398.021 132.41 397.722 132.606C397.433 132.793 397.199 133.091 397.022 133.502C396.854 133.903 396.77 134.421 396.77 135.056C396.77 135.681 396.854 136.195 397.022 136.596C397.19 136.997 397.419 137.296 397.708 137.492C398.007 137.679 398.343 137.772 398.716 137.772C399.145 137.772 399.519 137.655 399.836 137.422C400.153 137.189 400.489 136.834 400.844 136.358L400.9 137.31H400.424C400.275 137.571 400.107 137.805 399.92 138.01C399.733 138.215 399.509 138.379 399.248 138.5C398.996 138.612 398.688 138.668 398.324 138.668ZM400.634 138.598L400.508 137.1L400.48 137.086V132.998L400.55 132.9L400.508 129.484L399.262 129.274V128.686L401.39 128.21L401.768 128.266L401.74 130.044V137.66L402.902 137.856V138.5L400.634 138.598ZM407.358 138.668C406.658 138.668 406.056 138.528 405.552 138.248C405.057 137.959 404.674 137.553 404.404 137.03C404.142 136.498 404.012 135.873 404.012 135.154C404.012 134.426 404.152 133.787 404.432 133.236C404.712 132.676 405.099 132.237 405.594 131.92C406.088 131.603 406.653 131.444 407.288 131.444C407.857 131.444 408.352 131.556 408.772 131.78C409.192 131.995 409.518 132.307 409.752 132.718C409.994 133.129 410.116 133.619 410.116 134.188C410.116 134.365 410.102 134.543 410.074 134.72C410.055 134.888 410.032 135.028 410.004 135.14H404.754V134.482H408.422C408.618 134.417 408.744 134.323 408.8 134.202C408.856 134.081 408.884 133.941 408.884 133.782C408.884 133.418 408.818 133.119 408.688 132.886C408.566 132.643 408.384 132.466 408.142 132.354C407.908 132.233 407.624 132.172 407.288 132.172C406.933 132.172 406.606 132.27 406.308 132.466C406.009 132.662 405.771 132.97 405.594 133.39C405.416 133.801 405.328 134.342 405.328 135.014C405.328 135.583 405.421 136.073 405.608 136.484C405.804 136.885 406.074 137.193 406.42 137.408C406.774 137.623 407.185 137.73 407.652 137.73C408.146 137.73 408.557 137.641 408.884 137.464C409.22 137.277 409.518 137.035 409.78 136.736L410.214 137.086C410.008 137.394 409.78 137.669 409.528 137.912C409.276 138.155 408.977 138.341 408.632 138.472C408.286 138.603 407.862 138.668 407.358 138.668ZM412.659 138.668C412.379 138.668 412.141 138.57 411.945 138.374C411.758 138.178 411.665 137.945 411.665 137.674C411.665 137.394 411.758 137.156 411.945 136.96C412.141 136.764 412.379 136.666 412.659 136.666C412.939 136.666 413.177 136.764 413.373 136.96C413.569 137.156 413.667 137.394 413.667 137.674C413.667 137.945 413.569 138.178 413.373 138.374C413.177 138.57 412.939 138.668 412.659 138.668Z" fill="#35545D"/>
<path d="M84.3648 170.31C84.2814 170.31 84.1147 170.397 84.0413 170.397C83.968 170.397 82.8376 170.71 81.0671 171.27C79.3033 166.132 76.1656 161.394 70.6173 161.394H70.1372C68.9501 159.727 67.0662 158.62 64.9223 158.5H64.9056C51.9651 158.5 45.7799 174.655 43.8426 182.857C38.8678 184.378 35.2467 185.508 34.8433 185.665C32.0291 186.552 31.9524 186.632 31.6256 189.289C31.3122 191.213 24 247.887 24 247.887L80.5036 258.5L84.3648 170.31ZM71.8977 164.939C74.7886 165.245 76.6525 168.55 77.8528 172.251C76.399 172.724 74.7886 173.214 73.028 173.775V172.724C73.0314 172.561 73.0347 172.367 73.0347 172.174C73.0347 169.583 72.6179 167.093 71.851 164.759L71.8977 164.925V164.939ZM69.6504 174.248V174.812C66.5094 175.779 63.055 176.829 59.674 177.879C60.5543 172.521 63.7986 168.063 68.2766 165.545L68.3633 165.502C69.1902 167.853 69.667 170.564 69.667 173.388C69.667 173.691 69.6604 173.995 69.6504 174.298V174.255V174.248ZM64.5055 161.961C65.139 161.961 65.7292 162.171 66.1993 162.528L66.1926 162.521C60.3609 166.016 56.3664 172.061 55.7495 179.073L55.7429 179.153C53.0087 180.04 50.3546 180.84 47.8705 181.56C50.0311 174.121 55.2594 161.998 64.5021 161.998L64.5055 161.961ZM66.7562 205.607C64.5955 204.54 62.0614 203.894 59.3839 203.84H59.3673C53.3388 203.84 53.1021 207.615 53.1021 208.595C53.1021 213.73 66.6028 215.74 66.6028 227.884C66.6495 228.311 66.6728 228.808 66.6728 229.308C66.6728 237.174 60.2976 243.549 52.4319 243.549C52.4252 243.549 52.4152 243.549 52.4085 243.549C52.2418 243.556 52.0484 243.556 51.855 243.556C46.2667 243.556 41.2285 241.211 37.6674 237.454L37.6574 237.444L40.3482 228.751C42.929 231.018 46.1666 232.599 49.7411 233.179L49.8511 233.192C49.8911 233.192 49.9344 233.196 49.9811 233.196C52.1351 233.196 53.8856 231.462 53.9156 229.311C53.9156 222.566 42.8557 222.249 42.8557 211.146C42.8557 211.079 42.8557 210.999 42.8557 210.919C42.8557 200.829 51.0348 192.654 61.1211 192.654C61.7713 192.654 62.4149 192.687 63.0484 192.754L62.9684 192.747C63.2251 192.734 63.5252 192.724 63.8286 192.724C66.3494 192.724 68.7434 193.287 70.8841 194.294L70.784 194.251L66.8462 205.564L66.7562 205.607ZM81.8674 258.417L111.933 251.911C111.933 251.911 101.083 178.523 100.996 178.036C100.936 177.592 100.57 177.252 100.119 177.236C99.716 177.236 92.0804 176.669 92.0804 176.669C92.0804 176.669 86.7688 171.361 86.0853 170.79C85.9419 170.66 85.7752 170.557 85.5918 170.487L85.5818 170.484L81.774 258.417H81.8674Z" fill="#35545D"/>
</svg>
