<svg width="1105" height="963" viewBox="0 0 1105 963" fill="none" xmlns="http://www.w3.org/2000/svg">
<rect width="1105" height="963" fill="#2F2F2F"/>
<path d="M72 858.09V686.458L137.352 683.158V689.099C115.128 698.341 99.9451 708.022 91.8036 718.144C83.4421 728.266 79.2613 743.119 79.2613 762.702V774.254H181.25V763.032C181.25 752.69 177.399 743.999 169.698 736.958C161.776 729.916 151.214 724.965 138.012 722.105V717.154H235.71V722.765C219.207 726.726 207.435 732.117 200.393 738.938C193.352 745.539 189.831 754.671 189.831 766.333V774.254H295.781V761.712C295.781 741.468 289.73 724.305 277.628 710.223C265.525 695.92 250.012 686.128 231.089 680.847V674.246L303.042 676.887V858.09H295.781V838.616H79.2613V858.09H72Z" fill="black"/>
<path d="M78.2711 464.32H303.042V510.529L89.4932 623.739H296.771V605.586H303.042V650.804H296.771V632.651H78.2711V650.804H72V559.708L237.69 473.232H78.2711V491.385H72V446.167H78.2711V464.32Z" fill="black"/>
<path d="M236.37 297.996L141.313 270.601L78.2711 290.404V309.218H72V206.899H78.2711V226.372L234.39 177.194L78.2711 137.586V170.922H72V104.91H78.2711V126.694L306.343 187.425V216.801L157.156 265.65L306.343 308.557V337.273L78.2711 420.448V435.961H72V328.691H78.2711V351.795L236.37 297.996Z" fill="black"/>
<path d="M602.565 131L593.925 72H606.685L612.965 128.32L611.165 128.24L621.165 72H636.645L646.605 128.24L644.805 128.32L651.085 72H663.845L655.205 131H636.165L628.285 80.6H629.565L621.605 131H602.565ZM717.48 72V131H705.04V102.68L710.64 106.44H678.08L683.68 102.84V131H671.24V72H683.68V100.52L678.08 96.8H710.64L705.04 100.52V72H717.48ZM734.135 81.6L739.735 75.68V100.12L736.935 96.6H758.695V106.2H736.935L739.735 102.68V127.32L734.135 121.4H763.135V131H727.255V72H763.135V81.6H734.135ZM772.88 131V72H796.8C802.987 72 807.6 73.4133 810.64 76.24C813.707 79.04 815.24 83.08 815.24 88.36C815.24 91.4 814.654 94 813.48 96.16C812.334 98.2933 810.907 99.9467 809.2 101.12C807.52 102.293 805.894 102.947 804.32 103.08C805.947 103.187 807.48 103.6 808.92 104.32C810.387 105.013 811.587 106.12 812.52 107.64C813.454 109.16 813.92 111.2 813.92 113.76C813.92 115.653 813.92 117.52 813.92 119.36C813.92 121.2 813.92 123.08 813.92 125C813.92 126.307 814.014 127.52 814.2 128.64C814.414 129.733 814.72 130.52 815.12 131H802.68C802.334 130.467 802.054 129.667 801.84 128.6C801.627 127.507 801.52 126.307 801.52 125C801.52 123.293 801.52 121.667 801.52 120.12C801.52 118.547 801.52 116.907 801.52 115.2C801.52 112.88 800.92 111.093 799.72 109.84C798.52 108.56 796.6 107.92 793.96 107.92H781.72L785.04 103.96V131H772.88ZM785.04 102.84L781.72 98.32H794.12C795.72 98.32 797.147 97.96 798.4 97.24C799.654 96.52 800.64 95.4933 801.36 94.16C802.107 92.8267 802.48 91.2667 802.48 89.48C802.48 86.9733 801.72 85.0267 800.2 83.64C798.707 82.2533 796.6 81.56 793.88 81.56H781.44L785.04 77.52V102.84ZM830.776 81.6L836.376 75.68V100.12L833.576 96.6H855.336V106.2H833.576L836.376 102.68V127.32L830.776 121.4H859.776V131H823.896V72H859.776V81.6H830.776ZM928.681 81.6H909.201L914.161 75.68V131H901.801V75.68L906.921 81.6H887.321V72H928.681V81.6ZM982.48 72V131H970.04V102.68L975.64 106.44H943.08L948.68 102.84V131H936.24V72H948.68V100.52L943.08 96.8H975.64L970.04 100.52V72H982.48ZM999.135 81.6L1004.74 75.68V100.12L1001.94 96.6H1023.7V106.2H1001.94L1004.74 102.68V127.32L999.135 121.4H1028.14V131H992.255V72H1028.14V81.6H999.135ZM508.12 169.6L513.72 163.68V188.12L510.92 184.6H532.68V194.2H510.92L513.72 190.68V215.32L508.12 209.4H537.12V219H501.24V160H537.12V169.6H508.12ZM558.985 219H546.865V160H566.145L585.905 214.52L583.825 215.04V160H595.905V219H576.505L556.745 164.64L558.985 164.12V219ZM612.573 169.6L618.173 163.68V188.12L615.373 184.6H637.133V194.2H615.373L618.173 190.68V215.32L612.573 209.4H641.573V219H605.693V160H641.573V169.6H612.573ZM651.318 219V160H675.238C681.425 160 686.038 161.413 689.078 164.24C692.145 167.04 693.678 171.08 693.678 176.36C693.678 179.4 693.091 182 691.918 184.16C690.771 186.293 689.345 187.947 687.638 189.12C685.958 190.293 684.331 190.947 682.758 191.08C684.385 191.187 685.918 191.6 687.358 192.32C688.825 193.013 690.025 194.12 690.958 195.64C691.891 197.16 692.358 199.2 692.358 201.76C692.358 203.653 692.358 205.52 692.358 207.36C692.358 209.2 692.358 211.08 692.358 213C692.358 214.307 692.451 215.52 692.638 216.64C692.851 217.733 693.158 218.52 693.558 219H681.118C680.771 218.467 680.491 217.667 680.278 216.6C680.065 215.507 679.958 214.307 679.958 213C679.958 211.293 679.958 209.667 679.958 208.12C679.958 206.547 679.958 204.907 679.958 203.2C679.958 200.88 679.358 199.093 678.158 197.84C676.958 196.56 675.038 195.92 672.398 195.92H660.158L663.478 191.96V219H651.318ZM663.478 190.84L660.158 186.32H672.558C674.158 186.32 675.585 185.96 676.838 185.24C678.091 184.52 679.078 183.493 679.798 182.16C680.545 180.827 680.918 179.267 680.918 177.48C680.918 174.973 680.158 173.027 678.638 171.64C677.145 170.253 675.038 169.56 672.318 169.56H659.878L663.478 165.52V190.84ZM725.974 219.96C721.307 219.96 717.054 218.8 713.214 216.48C709.4 214.133 706.36 210.72 704.094 206.24C701.854 201.733 700.734 196.2 700.734 189.64C700.734 183.107 701.92 177.573 704.294 173.04C706.667 168.507 709.854 165.053 713.854 162.68C717.88 160.307 722.374 159.12 727.334 159.12C731.467 159.12 734.96 159.787 737.814 161.12C740.694 162.453 743.027 164.16 744.814 166.24C746.627 168.32 747.947 170.52 748.774 172.84C749.6 175.133 750.014 177.253 750.014 179.2C750.014 179.28 750.014 179.36 750.014 179.44C750.014 179.52 750.014 179.6 750.014 179.68H737.934C737.934 179.6 737.934 179.52 737.934 179.44C737.934 179.36 737.934 179.28 737.934 179.2C737.934 177.973 737.707 176.76 737.254 175.56C736.8 174.333 736.12 173.24 735.214 172.28C734.334 171.32 733.227 170.547 731.894 169.96C730.587 169.373 729.067 169.08 727.334 169.08C724.987 169.08 722.747 169.747 720.614 171.08C718.48 172.413 716.734 174.587 715.374 177.6C714.014 180.587 713.334 184.6 713.334 189.64C713.334 193.48 713.707 196.707 714.454 199.32C715.227 201.933 716.254 204.027 717.534 205.6C718.814 207.147 720.267 208.267 721.894 208.96C723.547 209.653 725.254 210 727.014 210C729.44 210 731.467 209.6 733.094 208.8C734.747 207.973 736.04 206.96 736.974 205.76C737.907 204.56 738.507 203.373 738.774 202.2V198.36H727.094V189.4H749.774V219H743.254L742.134 212.48C741.92 212.987 741.467 213.653 740.774 214.48C740.08 215.307 739.094 216.147 737.814 217C736.56 217.827 734.947 218.52 732.974 219.08C731.027 219.667 728.694 219.96 725.974 219.96ZM798.205 160L781.085 198.68V219H768.725V198.68L751.685 160H764.805L777.405 192.48H772.445L785.045 160H798.205ZM848.942 219.96C844.276 219.96 840.022 218.8 836.182 216.48C832.369 214.133 829.329 210.72 827.062 206.24C824.822 201.733 823.702 196.2 823.702 189.64C823.702 183.107 824.889 177.573 827.262 173.04C829.636 168.507 832.822 165.053 836.822 162.68C840.849 160.307 845.342 159.12 850.302 159.12C854.436 159.12 857.929 159.787 860.782 161.12C863.662 162.453 865.996 164.16 867.782 166.24C869.596 168.32 870.916 170.52 871.742 172.84C872.569 175.133 872.982 177.253 872.982 179.2C872.982 179.28 872.982 179.36 872.982 179.44C872.982 179.52 872.982 179.6 872.982 179.68H860.902C860.902 179.6 860.902 179.52 860.902 179.44C860.902 179.36 860.902 179.28 860.902 179.2C860.902 177.973 860.676 176.76 860.222 175.56C859.769 174.333 859.089 173.24 858.182 172.28C857.302 171.32 856.196 170.547 854.862 169.96C853.556 169.373 852.036 169.08 850.302 169.08C847.956 169.08 845.716 169.747 843.582 171.08C841.449 172.413 839.702 174.587 838.342 177.6C836.982 180.587 836.302 184.6 836.302 189.64C836.302 193.48 836.676 196.707 837.422 199.32C838.196 201.933 839.222 204.027 840.502 205.6C841.782 207.147 843.236 208.267 844.862 208.96C846.516 209.653 848.222 210 849.982 210C852.409 210 854.436 209.6 856.062 208.8C857.716 207.973 859.009 206.96 859.942 205.76C860.876 204.56 861.476 203.373 861.742 202.2V198.36H850.062V189.4H872.742V219H866.222L865.102 212.48C864.889 212.987 864.436 213.653 863.742 214.48C863.049 215.307 862.062 216.147 860.782 217C859.529 217.827 857.916 218.52 855.942 219.08C853.996 219.667 851.662 219.96 848.942 219.96ZM907.684 219.96C904.004 219.96 900.564 219.293 897.364 217.96C894.164 216.627 891.351 214.667 888.924 212.08C886.498 209.493 884.591 206.307 883.204 202.52C881.818 198.707 881.124 194.347 881.124 189.44C881.124 184.507 881.804 180.16 883.164 176.4C884.551 172.613 886.458 169.44 888.884 166.88C891.311 164.32 894.124 162.387 897.324 161.08C900.524 159.773 903.978 159.12 907.684 159.12C911.364 159.12 914.804 159.773 918.004 161.08C921.231 162.387 924.058 164.32 926.484 166.88C928.911 169.44 930.804 172.613 932.164 176.4C933.524 180.16 934.204 184.507 934.204 189.44C934.204 194.347 933.511 198.707 932.124 202.52C930.764 206.307 928.858 209.493 926.404 212.08C923.978 214.667 921.151 216.627 917.924 217.96C914.724 219.293 911.311 219.96 907.684 219.96ZM907.684 210C910.164 210 912.458 209.32 914.564 207.96C916.698 206.6 918.404 204.413 919.684 201.4C920.964 198.36 921.604 194.373 921.604 189.44C921.604 184.48 920.951 180.507 919.644 177.52C918.364 174.533 916.671 172.387 914.564 171.08C912.458 169.747 910.164 169.08 907.684 169.08C905.204 169.08 902.898 169.747 900.764 171.08C898.658 172.387 896.964 174.533 895.684 177.52C894.404 180.507 893.764 184.48 893.764 189.44C893.764 194.4 894.404 198.387 895.684 201.4C896.964 204.413 898.658 206.6 900.764 207.96C902.898 209.32 905.204 210 907.684 210ZM949.292 169.6L954.892 163.68V188.12L952.092 184.6H973.852V194.2H952.092L954.892 190.68V215.32L949.292 209.4H978.292V219H942.412V160H978.292V169.6H949.292ZM1008.04 219.96C1003.77 219.96 1000.01 219.28 996.757 217.92C993.53 216.56 990.997 214.533 989.157 211.84C987.343 209.12 986.437 205.747 986.437 201.72C986.437 201.293 986.437 200.907 986.437 200.56C986.437 200.187 986.437 199.787 986.437 199.36H998.877C998.877 199.76 998.877 200.12 998.877 200.44C998.877 200.733 998.877 201.08 998.877 201.48C998.877 204.227 999.65 206.333 1001.2 207.8C1002.74 209.267 1005.04 210 1008.08 210C1011.14 210 1013.5 209.52 1015.16 208.56C1016.81 207.573 1017.64 205.96 1017.64 203.72C1017.64 202.147 1017.01 200.76 1015.76 199.56C1014.53 198.36 1012.85 197.293 1010.72 196.36C1008.61 195.4 1006.2 194.507 1003.48 193.68C1000.52 192.747 997.77 191.52 995.237 190C992.703 188.48 990.663 186.547 989.117 184.2C987.597 181.853 986.837 178.96 986.837 175.52C986.837 172.053 987.757 169.107 989.597 166.68C991.437 164.227 993.943 162.36 997.117 161.08C1000.29 159.773 1003.88 159.12 1007.88 159.12C1012.06 159.12 1015.76 159.773 1018.96 161.08C1022.18 162.36 1024.7 164.293 1026.52 166.88C1028.36 169.44 1029.28 172.64 1029.28 176.48C1029.28 176.907 1029.28 177.307 1029.28 177.68C1029.28 178.027 1029.28 178.427 1029.28 178.88H1016.88C1016.88 178.587 1016.88 178.28 1016.88 177.96C1016.88 177.64 1016.88 177.333 1016.88 177.04C1016.88 174.453 1016.16 172.467 1014.72 171.08C1013.3 169.693 1011.08 169 1008.04 169C1005.1 169 1002.82 169.533 1001.2 170.6C999.597 171.667 998.797 173.307 998.797 175.52C998.797 177.12 999.37 178.48 1000.52 179.6C1001.69 180.72 1003.29 181.72 1005.32 182.6C1007.34 183.48 1009.65 184.36 1012.24 185.24C1015.76 186.467 1018.82 187.827 1021.44 189.32C1024.08 190.787 1026.12 192.64 1027.56 194.88C1029 197.093 1029.72 199.92 1029.72 203.36C1029.72 206.88 1028.81 209.88 1027 212.36C1025.18 214.84 1022.64 216.733 1019.36 218.04C1016.1 219.32 1012.33 219.96 1008.04 219.96Z" fill="#FFF9F2"/>
<mask id="path-3-inside-1_0_1325" fill="white">
<path d="M738 291H1033V491H738V291Z"/>
</mask>
<path d="M738 291V292H1033V291V290H738V291ZM1033 491V490H738V491V492H1033V491Z" fill="#FFF9F2" mask="url(#path-3-inside-1_0_1325)"/>
<path d="M808.48 412.44C803.52 412.44 799.08 411.68 795.16 410.16C791.24 408.56 787.92 406.32 785.2 403.44C782.56 400.48 780.52 396.96 779.08 392.88C777.72 388.8 777.04 384.24 777.04 379.2C777.04 373.36 777.92 367.84 779.68 362.64C781.52 357.36 783.84 352.52 786.64 348.12C789.52 343.64 792.72 339.64 796.24 336.12C799.84 332.6 803.44 329.64 807.04 327.24H831.88C826.76 330.92 822.16 334.44 818.08 337.8C814 341.08 810.44 344.4 807.4 347.76C804.44 351.12 801.96 354.56 799.96 358.08C798.04 361.52 796.68 365.24 795.88 369.24L796.96 369.6C797.68 368 798.52 366.44 799.48 364.92C800.52 363.4 801.76 362.08 803.2 360.96C804.72 359.76 806.48 358.8 808.48 358.08C810.48 357.36 812.8 357 815.44 357C818.88 357 822.08 357.64 825.04 358.92C828.08 360.12 830.68 361.84 832.84 364.08C835.08 366.32 836.8 369.08 838 372.36C839.28 375.56 839.92 379.12 839.92 383.04C839.92 387.36 839.16 391.32 837.64 394.92C836.2 398.52 834.08 401.64 831.28 404.28C828.56 406.84 825.28 408.84 821.44 410.28C817.6 411.72 813.28 412.44 808.48 412.44ZM808.48 398.4C812.48 398.4 815.6 397.32 817.84 395.16C820.08 392.92 821.2 389.76 821.2 385.68V383.52C821.2 379.44 820.08 376.32 817.84 374.16C815.6 371.92 812.48 370.8 808.48 370.8C804.48 370.8 801.36 371.92 799.12 374.16C796.88 376.32 795.76 379.44 795.76 383.52V385.68C795.76 389.76 796.88 392.92 799.12 395.16C801.36 397.32 804.48 398.4 808.48 398.4ZM879.954 412.44C868.994 412.44 860.874 408.64 855.594 401.04C850.314 393.44 847.674 382.8 847.674 369.12C847.674 355.44 850.314 344.8 855.594 337.2C860.874 329.6 868.994 325.8 879.954 325.8C890.914 325.8 899.034 329.6 904.314 337.2C909.594 344.8 912.234 355.44 912.234 369.12C912.234 382.8 909.594 393.44 904.314 401.04C899.034 408.64 890.914 412.44 879.954 412.44ZM879.954 397.2C884.754 397.2 888.074 395.44 889.914 391.92C891.754 388.4 892.674 383.44 892.674 377.04V361.2C892.674 354.8 891.754 349.84 889.914 346.32C888.074 342.8 884.754 341.04 879.954 341.04C875.154 341.04 871.834 342.8 869.994 346.32C868.154 349.84 867.234 354.8 867.234 361.2V377.04C867.234 383.44 868.154 388.4 869.994 391.92C871.834 395.44 875.154 397.2 879.954 397.2ZM937.387 411L995.467 327.24H1011.31L953.227 411H937.387ZM943.507 373.32C936.467 373.32 931.107 371.32 927.427 367.32C923.747 363.32 921.907 357.4 921.907 349.56C921.907 341.72 923.747 335.8 927.427 331.8C931.107 327.8 936.467 325.8 943.507 325.8C950.547 325.8 955.907 327.8 959.587 331.8C963.267 335.8 965.107 341.72 965.107 349.56C965.107 357.4 963.267 363.32 959.587 367.32C955.907 371.32 950.547 373.32 943.507 373.32ZM943.507 363C945.587 363 947.147 362.2 948.187 360.6C949.227 358.92 949.747 356.28 949.747 352.68V346.44C949.747 342.84 949.227 340.24 948.187 338.64C947.147 336.96 945.587 336.12 943.507 336.12C941.427 336.12 939.867 336.96 938.827 338.64C937.787 340.24 937.267 342.84 937.267 346.44V352.68C937.267 356.28 937.787 358.92 938.827 360.6C939.867 362.2 941.427 363 943.507 363ZM1005.19 412.44C998.147 412.44 992.787 410.44 989.107 406.44C985.427 402.44 983.587 396.52 983.587 388.68C983.587 380.84 985.427 374.92 989.107 370.92C992.787 366.92 998.147 364.92 1005.19 364.92C1012.23 364.92 1017.59 366.92 1021.27 370.92C1024.95 374.92 1026.79 380.84 1026.79 388.68C1026.79 396.52 1024.95 402.44 1021.27 406.44C1017.59 410.44 1012.23 412.44 1005.19 412.44ZM1005.19 402.12C1007.27 402.12 1008.83 401.32 1009.87 399.72C1010.91 398.04 1011.43 395.4 1011.43 391.8V385.56C1011.43 381.96 1010.91 379.36 1009.87 377.76C1008.83 376.08 1007.27 375.24 1005.19 375.24C1003.11 375.24 1001.55 376.08 1000.51 377.76C999.467 379.36 998.947 381.96 998.947 385.56V391.8C998.947 395.4 999.467 398.04 1000.51 399.72C1001.55 401.32 1003.11 402.12 1005.19 402.12Z" fill="#D7D334"/>
<path d="M879.513 455V453.89L883.323 453.44H883.863V455H879.513ZM882.063 455C882.103 454.04 882.123 453.05 882.123 452.03C882.143 450.99 882.153 449.93 882.153 448.85C882.153 447.77 882.153 446.71 882.153 445.67V444.29C882.153 443.25 882.153 442.2 882.153 441.14C882.153 440.08 882.143 439.03 882.123 437.99C882.123 436.95 882.103 435.95 882.063 434.99H885.423C885.403 435.93 885.383 436.93 885.363 437.99C885.343 439.03 885.333 440.08 885.333 441.14C885.333 442.2 885.333 443.25 885.333 444.29V445.43C885.333 446.53 885.333 447.63 885.333 448.73C885.333 449.83 885.343 450.91 885.363 451.97C885.383 453.01 885.403 454.02 885.423 455H882.063ZM883.713 455V453.65H893.313L892.263 454.43L893.343 449.6H894.873L894.633 455H883.713ZM883.713 445.43V444.11H890.133V445.43H883.713ZM889.893 448.19L889.323 444.98V444.41L889.893 441.35H891.123V448.19H889.893ZM879.513 436.1V434.99H883.863V436.55H883.323L879.513 436.1ZM892.773 440.27L891.663 435.56L892.743 436.34H883.683V434.99H894.063L894.303 440.27H892.773ZM896.161 455V454.01L898.591 453.59H899.251L901.711 454.01V455H896.161ZM897.031 455L903.061 447.14L903.931 447.8L903.961 447.83L901.351 451.4L898.741 455H897.031ZM903.811 455V454.01L907.081 453.47H908.011L911.101 454.01V455H903.811ZM904.081 448.55L903.241 447.83V447.77L905.761 444.32L908.281 440.87H909.991L904.081 448.55ZM906.601 455L902.461 448.7L897.301 440.87H900.601L904.561 446.87L910.021 455H906.601ZM896.341 441.92V440.87H903.241V441.89L900.391 442.37H899.281L896.341 441.92ZM905.461 441.89V440.87H910.651V441.92L908.371 442.31H907.711L905.461 441.89ZM911.764 462.26V461.24L914.914 460.7H916.054L919.384 461.24V462.26H911.764ZM913.924 462.26C913.944 461.56 913.954 460.85 913.954 460.13C913.974 459.41 913.984 458.68 913.984 457.94C914.004 457.22 914.014 456.52 914.014 455.84V447.23C914.014 446.67 914.004 446.19 913.984 445.79C913.984 445.37 913.974 444.98 913.954 444.62C913.954 444.26 913.944 443.88 913.924 443.48L911.704 443.15V442.22L916.264 440.48L916.654 440.75L916.834 443.27L916.924 443.42V452.63L916.864 452.84V455.81C916.864 456.47 916.864 457.17 916.864 457.91C916.884 458.65 916.894 459.38 916.894 460.1C916.914 460.84 916.934 461.56 916.954 462.26H913.924ZM920.794 455.39C920.214 455.39 919.654 455.3 919.114 455.12C918.594 454.94 918.084 454.64 917.584 454.22C917.084 453.8 916.614 453.23 916.174 452.51H915.604L915.874 451.04C916.574 451.94 917.244 452.6 917.884 453.02C918.544 453.42 919.244 453.62 919.984 453.62C920.704 453.62 921.344 453.42 921.904 453.02C922.464 452.62 922.914 452.01 923.254 451.19C923.614 450.35 923.794 449.29 923.794 448.01C923.794 446.09 923.454 444.65 922.774 443.69C922.094 442.73 921.224 442.25 920.164 442.25C919.744 442.25 919.304 442.35 918.844 442.55C918.384 442.75 917.904 443.04 917.404 443.42C916.904 443.8 916.384 444.29 915.844 444.89L915.574 443.45H916.204C916.684 442.79 917.184 442.24 917.704 441.8C918.244 441.36 918.804 441.03 919.384 440.81C919.964 440.59 920.574 440.48 921.214 440.48C922.274 440.48 923.224 440.77 924.064 441.35C924.924 441.91 925.604 442.74 926.104 443.84C926.624 444.92 926.884 446.25 926.884 447.83C926.884 449.39 926.604 450.74 926.044 451.88C925.504 453 924.774 453.87 923.854 454.49C922.954 455.09 921.934 455.39 920.794 455.39ZM928.664 455V454.01L931.814 453.47H932.834L936.014 454.01V455H928.664ZM930.794 455C930.834 454.36 930.854 453.69 930.854 452.99C930.874 452.27 930.884 451.55 930.884 450.83C930.904 450.09 930.914 449.38 930.914 448.7V435.47L928.604 435.11V434.18L933.524 432.86L933.914 433.13L933.794 437.66V448.7C933.794 449.38 933.794 450.09 933.794 450.83C933.814 451.55 933.834 452.27 933.854 452.99C933.874 453.69 933.894 454.36 933.914 455H930.794ZM944.861 455.39C943.621 455.39 942.471 455.11 941.411 454.55C940.371 453.99 939.531 453.16 938.891 452.06C938.271 450.94 937.961 449.58 937.961 447.98C937.961 446.38 938.281 445.02 938.921 443.9C939.581 442.78 940.431 441.93 941.471 441.35C942.511 440.77 943.641 440.48 944.861 440.48C946.061 440.48 947.181 440.77 948.221 441.35C949.281 441.91 950.131 442.75 950.771 443.87C951.411 444.97 951.731 446.33 951.731 447.95C951.731 449.55 951.411 450.91 950.771 452.03C950.131 453.13 949.291 453.97 948.251 454.55C947.211 455.11 946.081 455.39 944.861 455.39ZM944.861 454.19C945.641 454.19 946.301 453.96 946.841 453.5C947.381 453.04 947.801 452.35 948.101 451.43C948.401 450.51 948.551 449.36 948.551 447.98C948.551 446.58 948.401 445.42 948.101 444.5C947.801 443.56 947.381 442.86 946.841 442.4C946.301 441.94 945.641 441.71 944.861 441.71C944.061 441.71 943.381 441.95 942.821 442.43C942.281 442.89 941.871 443.59 941.591 444.53C941.311 445.45 941.171 446.6 941.171 447.98C941.171 449.36 941.311 450.51 941.591 451.43C941.871 452.35 942.281 453.04 942.821 453.5C943.381 453.96 944.061 454.19 944.861 454.19ZM954.071 455V454.01L957.161 453.47H958.361L961.541 454.01V455H954.071ZM956.081 455C956.101 454.54 956.111 453.94 956.111 453.2C956.131 452.44 956.141 451.66 956.141 450.86C956.161 450.04 956.171 449.32 956.171 448.7V447.23C956.171 446.67 956.161 446.19 956.141 445.79C956.141 445.37 956.131 444.98 956.111 444.62C956.111 444.26 956.101 443.88 956.081 443.48L953.861 443.15V442.22L958.421 440.48L958.841 440.75L959.081 444.65V444.74V448.7C959.081 449.32 959.081 450.04 959.081 450.86C959.101 451.66 959.111 452.44 959.111 453.2C959.131 453.94 959.161 454.54 959.201 455H956.081ZM958.991 446.84L958.451 444.89H958.901C959.221 443.93 959.611 443.13 960.071 442.49C960.531 441.83 961.041 441.33 961.601 440.99C962.181 440.65 962.751 440.48 963.311 440.48C963.811 440.48 964.261 440.6 964.661 440.84C965.081 441.06 965.361 441.4 965.501 441.86C965.501 442.52 965.341 443.03 965.021 443.39C964.701 443.75 964.261 443.93 963.701 443.93C963.341 443.93 963.001 443.86 962.681 443.72C962.381 443.56 962.081 443.33 961.781 443.03L961.001 442.19L962.321 442.1C961.541 442.52 960.871 443.13 960.311 443.93C959.751 444.71 959.311 445.68 958.991 446.84ZM970.395 455.39C969.315 455.39 968.395 455.08 967.635 454.46C966.875 453.84 966.495 452.93 966.495 451.73C966.495 451.13 966.625 450.56 966.885 450.02C967.165 449.48 967.665 448.98 968.385 448.52C969.105 448.04 970.155 447.6 971.535 447.2C971.995 447.06 972.475 446.92 972.975 446.78C973.475 446.64 973.985 446.5 974.505 446.36C975.025 446.2 975.565 446.05 976.125 445.91V446.87C975.385 447.09 974.695 447.31 974.055 447.53C973.415 447.73 972.825 447.92 972.285 448.1C971.465 448.38 970.855 448.7 970.455 449.06C970.055 449.4 969.785 449.76 969.645 450.14C969.505 450.5 969.435 450.86 969.435 451.22C969.435 452 969.645 452.57 970.065 452.93C970.505 453.27 971.045 453.44 971.685 453.44C972.045 453.44 972.375 453.39 972.675 453.29C972.995 453.17 973.375 452.97 973.815 452.69C974.255 452.41 974.825 451.99 975.525 451.43L975.885 452.84H974.925C974.385 453.42 973.885 453.9 973.425 454.28C972.965 454.66 972.495 454.94 972.015 455.12C971.555 455.3 971.015 455.39 970.395 455.39ZM977.445 455.33C976.565 455.33 975.875 455.07 975.375 454.55C974.895 454.03 974.645 453.33 974.625 452.45V452.33V445.4C974.625 444.44 974.535 443.7 974.355 443.18C974.175 442.64 973.885 442.27 973.485 442.07C973.085 441.85 972.565 441.74 971.925 441.74C971.565 441.74 971.175 441.78 970.755 441.86C970.355 441.92 969.885 442.05 969.345 442.25L970.635 441.32L970.065 443.75C969.945 444.31 969.745 444.73 969.465 445.01C969.185 445.29 968.835 445.43 968.415 445.43C967.975 445.43 967.635 445.32 967.395 445.1C967.155 444.88 967.005 444.57 966.945 444.17C967.165 443.05 967.795 442.16 968.835 441.5C969.895 440.82 971.225 440.48 972.825 440.48C973.905 440.48 974.785 440.66 975.465 441.02C976.165 441.36 976.675 441.91 976.995 442.67C977.335 443.43 977.505 444.43 977.505 445.67V452.21C977.505 452.75 977.595 453.14 977.775 453.38C977.955 453.62 978.185 453.74 978.465 453.74C978.705 453.74 978.905 453.68 979.065 453.56C979.245 453.44 979.425 453.27 979.605 453.05L980.175 453.59C979.855 454.19 979.465 454.63 979.005 454.91C978.565 455.19 978.045 455.33 977.445 455.33ZM984.346 442.34V440.87H989.566V442.34H984.346ZM986.356 455.39C985.276 455.39 984.416 455.11 983.776 454.55C983.136 453.97 982.816 453.09 982.816 451.91C982.816 451.45 982.816 451.02 982.816 450.62C982.836 450.2 982.846 449.68 982.846 449.06L982.876 442.34H980.536V441.14L984.106 440.66L982.846 441.59L984.166 436.64H985.936L985.786 441.41V441.89V451.61C985.786 452.37 985.936 452.92 986.236 453.26C986.536 453.58 986.926 453.74 987.406 453.74C987.746 453.74 988.066 453.67 988.366 453.53C988.686 453.39 989.016 453.19 989.356 452.93L989.986 453.59C989.726 453.97 989.416 454.3 989.056 454.58C988.716 454.84 988.326 455.04 987.886 455.18C987.446 455.32 986.936 455.39 986.356 455.39ZM991.071 455V454.01L994.131 453.47H995.151L998.091 454.01V455H991.071ZM993.081 455C993.101 454.54 993.111 453.94 993.111 453.2C993.131 452.44 993.141 451.66 993.141 450.86C993.161 450.04 993.171 449.32 993.171 448.7V447.32C993.171 446.48 993.161 445.78 993.141 445.22C993.141 444.66 993.121 444.08 993.081 443.48L990.861 443.15V442.22L995.781 440.48L996.201 440.75L996.111 444.83V448.7C996.111 449.32 996.111 450.04 996.111 450.86C996.131 451.66 996.141 452.44 996.141 453.2C996.161 453.94 996.181 454.54 996.201 455H993.081ZM994.521 437.63C993.941 437.63 993.451 437.45 993.051 437.09C992.671 436.71 992.481 436.24 992.481 435.68C992.481 435.1 992.671 434.63 993.051 434.27C993.451 433.91 993.941 433.73 994.521 433.73C995.081 433.73 995.551 433.91 995.931 434.27C996.331 434.63 996.531 435.1 996.531 435.68C996.531 436.24 996.331 436.71 995.931 437.09C995.551 437.45 995.081 437.63 994.521 437.63ZM1007.03 455.39C1005.79 455.39 1004.64 455.11 1003.58 454.55C1002.54 453.99 1001.7 453.16 1001.06 452.06C1000.44 450.94 1000.13 449.58 1000.13 447.98C1000.13 446.38 1000.45 445.02 1001.09 443.9C1001.75 442.78 1002.6 441.93 1003.64 441.35C1004.68 440.77 1005.81 440.48 1007.03 440.48C1008.23 440.48 1009.35 440.77 1010.39 441.35C1011.45 441.91 1012.3 442.75 1012.94 443.87C1013.58 444.97 1013.9 446.33 1013.9 447.95C1013.9 449.55 1013.58 450.91 1012.94 452.03C1012.3 453.13 1011.46 453.97 1010.42 454.55C1009.38 455.11 1008.25 455.39 1007.03 455.39ZM1007.03 454.19C1007.81 454.19 1008.47 453.96 1009.01 453.5C1009.55 453.04 1009.97 452.35 1010.27 451.43C1010.57 450.51 1010.72 449.36 1010.72 447.98C1010.72 446.58 1010.57 445.42 1010.27 444.5C1009.97 443.56 1009.55 442.86 1009.01 442.4C1008.47 441.94 1007.81 441.71 1007.03 441.71C1006.23 441.71 1005.55 441.95 1004.99 442.43C1004.45 442.89 1004.04 443.59 1003.76 444.53C1003.48 445.45 1003.34 446.6 1003.34 447.98C1003.34 449.36 1003.48 450.51 1003.76 451.43C1004.04 452.35 1004.45 453.04 1004.99 453.5C1005.55 453.96 1006.23 454.19 1007.03 454.19ZM1016.21 455V454.01L1019.27 453.47H1020.32L1023.23 454.01V455H1016.21ZM1018.25 455C1018.27 454.54 1018.28 453.94 1018.28 453.2C1018.3 452.44 1018.31 451.66 1018.31 450.86C1018.33 450.04 1018.34 449.32 1018.34 448.7V447.23C1018.34 446.67 1018.33 446.19 1018.31 445.79C1018.31 445.37 1018.3 444.98 1018.28 444.62C1018.28 444.26 1018.27 443.88 1018.25 443.48L1016.03 443.15V442.22L1020.59 440.48L1021.01 440.75L1021.25 444.08V444.11V448.7C1021.25 449.32 1021.25 450.04 1021.25 450.86C1021.27 451.66 1021.28 452.44 1021.28 453.2C1021.3 453.94 1021.33 454.54 1021.37 455H1018.25ZM1025.18 455V454.01L1028.24 453.47H1029.26L1032.2 454.01V455H1025.18ZM1027.19 455C1027.21 454.54 1027.22 453.94 1027.22 453.2C1027.24 452.46 1027.25 451.69 1027.25 450.89C1027.27 450.07 1027.28 449.34 1027.28 448.7V445.94C1027.28 444.68 1027.1 443.82 1026.74 443.36C1026.4 442.88 1025.82 442.64 1025 442.64C1024.54 442.64 1024.08 442.72 1023.62 442.88C1023.18 443.02 1022.73 443.25 1022.27 443.57C1021.81 443.87 1021.32 444.26 1020.8 444.74L1020.5 443.6H1020.8C1021.3 442.98 1021.85 442.44 1022.45 441.98C1023.05 441.5 1023.68 441.13 1024.34 440.87C1025 440.61 1025.67 440.48 1026.35 440.48C1027.61 440.48 1028.56 440.9 1029.2 441.74C1029.86 442.56 1030.19 443.9 1030.19 445.76V448.7C1030.19 449.34 1030.19 450.07 1030.19 450.89C1030.21 451.69 1030.23 452.46 1030.25 453.2C1030.27 453.94 1030.29 454.54 1030.31 455H1027.19Z" fill="#FFF9F2"/>
<mask id="path-7-inside-2_0_1325" fill="white">
<path d="M738 527H1033V691H738V527Z"/>
</mask>
<path d="M1033 691V690H738V691V692H1033V691Z" fill="#FFF9F2" mask="url(#path-7-inside-2_0_1325)"/>
<path d="M838.12 611H778.84V594.56L804.64 572.48C806.96 570.48 808.92 568.68 810.52 567.08C812.12 565.4 813.4 563.8 814.36 562.28C815.4 560.68 816.12 559.12 816.52 557.6C817 556.08 817.24 554.44 817.24 552.68V551C817.24 549.4 816.92 548 816.28 546.8C815.64 545.6 814.8 544.6 813.76 543.8C812.72 543 811.52 542.4 810.16 542C808.88 541.6 807.56 541.4 806.2 541.4C804.2 541.4 802.44 541.72 800.92 542.36C799.48 543 798.2 543.88 797.08 545C796.04 546.04 795.16 547.28 794.44 548.72C793.72 550.08 793.16 551.56 792.76 553.16L777.04 547.16C778 544.28 779.32 541.56 781 539C782.68 536.36 784.76 534.08 787.24 532.16C789.8 530.16 792.8 528.6 796.24 527.48C799.68 526.36 803.56 525.8 807.88 525.8C812.44 525.8 816.48 526.44 820 527.72C823.52 529 826.48 530.76 828.88 533C831.36 535.24 833.24 537.92 834.52 541.04C835.8 544.08 836.44 547.4 836.44 551C836.44 554.6 835.84 557.88 834.64 560.84C833.44 563.8 831.8 566.6 829.72 569.24C827.72 571.8 825.36 574.24 822.64 576.56C819.92 578.88 817.08 581.24 814.12 583.64L798.52 595.88H838.12V611ZM906.594 542.96H868.554L866.754 569.48H867.714C868.514 567.48 869.394 565.68 870.354 564.08C871.394 562.4 872.594 561 873.954 559.88C875.314 558.68 876.954 557.76 878.874 557.12C880.794 556.48 883.074 556.16 885.714 556.16C889.314 556.16 892.674 556.76 895.794 557.96C898.914 559.16 901.634 560.92 903.954 563.24C906.274 565.48 908.114 568.28 909.474 571.64C910.834 574.92 911.514 578.64 911.514 582.8C911.514 587.04 910.794 591 909.354 594.68C907.994 598.28 905.914 601.4 903.114 604.04C900.394 606.68 897.034 608.76 893.034 610.28C889.034 611.72 884.474 612.44 879.354 612.44C875.274 612.44 871.674 612 868.554 611.12C865.434 610.24 862.674 609.08 860.274 607.64C857.874 606.12 855.794 604.4 854.034 602.48C852.274 600.56 850.754 598.52 849.474 596.36L862.554 586.04C864.394 589.32 866.594 592.12 869.154 594.44C871.714 596.68 875.154 597.8 879.474 597.8C883.794 597.8 887.034 596.56 889.194 594.08C891.434 591.6 892.554 588.32 892.554 584.24V583.28C892.554 579.44 891.434 576.4 889.194 574.16C886.954 571.92 883.874 570.8 879.954 570.8C876.674 570.8 873.954 571.48 871.794 572.84C869.714 574.12 868.114 575.4 866.994 576.68L852.234 574.64L855.354 527.24H906.594V542.96ZM937.387 611L995.467 527.24H1011.31L953.227 611H937.387ZM943.507 573.32C936.467 573.32 931.107 571.32 927.427 567.32C923.747 563.32 921.907 557.4 921.907 549.56C921.907 541.72 923.747 535.8 927.427 531.8C931.107 527.8 936.467 525.8 943.507 525.8C950.547 525.8 955.907 527.8 959.587 531.8C963.267 535.8 965.107 541.72 965.107 549.56C965.107 557.4 963.267 563.32 959.587 567.32C955.907 571.32 950.547 573.32 943.507 573.32ZM943.507 563C945.587 563 947.147 562.2 948.187 560.6C949.227 558.92 949.747 556.28 949.747 552.68V546.44C949.747 542.84 949.227 540.24 948.187 538.64C947.147 536.96 945.587 536.12 943.507 536.12C941.427 536.12 939.867 536.96 938.827 538.64C937.787 540.24 937.267 542.84 937.267 546.44V552.68C937.267 556.28 937.787 558.92 938.827 560.6C939.867 562.2 941.427 563 943.507 563ZM1005.19 612.44C998.147 612.44 992.787 610.44 989.107 606.44C985.427 602.44 983.587 596.52 983.587 588.68C983.587 580.84 985.427 574.92 989.107 570.92C992.787 566.92 998.147 564.92 1005.19 564.92C1012.23 564.92 1017.59 566.92 1021.27 570.92C1024.95 574.92 1026.79 580.84 1026.79 588.68C1026.79 596.52 1024.95 602.44 1021.27 606.44C1017.59 610.44 1012.23 612.44 1005.19 612.44ZM1005.19 602.12C1007.27 602.12 1008.83 601.32 1009.87 599.72C1010.91 598.04 1011.43 595.4 1011.43 591.8V585.56C1011.43 581.96 1010.91 579.36 1009.87 577.76C1008.83 576.08 1007.27 575.24 1005.19 575.24C1003.11 575.24 1001.55 576.08 1000.51 577.76C999.467 579.36 998.947 581.96 998.947 585.56V591.8C998.947 595.4 999.467 598.04 1000.51 599.72C1001.55 601.32 1003.11 602.12 1005.19 602.12Z" fill="#D7D334"/>
<path d="M886.691 655V653.89L890.501 653.44H891.311L895.121 653.89V655H886.691ZM889.241 655C889.281 654.04 889.301 653.05 889.301 652.03C889.321 650.99 889.331 649.93 889.331 648.85C889.331 647.77 889.331 646.71 889.331 645.67V644.29C889.331 643.25 889.331 642.2 889.331 641.14C889.331 640.08 889.321 639.03 889.301 637.99C889.301 636.95 889.281 635.95 889.241 634.99H892.601C892.581 635.93 892.561 636.93 892.541 637.99C892.521 639.03 892.511 640.08 892.511 641.14C892.511 642.2 892.511 643.25 892.511 644.29V645.67C892.511 646.69 892.511 647.74 892.511 648.82C892.511 649.88 892.521 650.93 892.541 651.97C892.561 653.01 892.581 654.02 892.601 655H889.241ZM886.691 636.1V634.99H895.121V636.1L891.311 636.55H890.501L886.691 636.1ZM897.44 655V654.01L900.5 653.47H901.55L904.46 654.01V655H897.44ZM899.48 655C899.5 654.54 899.51 653.94 899.51 653.2C899.53 652.44 899.54 651.66 899.54 650.86C899.56 650.04 899.57 649.32 899.57 648.7V647.23C899.57 646.67 899.56 646.19 899.54 645.79C899.54 645.37 899.53 644.98 899.51 644.62C899.51 644.26 899.5 643.88 899.48 643.48L897.26 643.15V642.22L901.82 640.48L902.24 640.75L902.48 644.08V644.11V648.7C902.48 649.32 902.48 650.04 902.48 650.86C902.5 651.66 902.51 652.44 902.51 653.2C902.53 653.94 902.56 654.54 902.6 655H899.48ZM906.41 655V654.01L909.47 653.47H910.49L913.43 654.01V655H906.41ZM908.42 655C908.44 654.54 908.45 653.94 908.45 653.2C908.47 652.46 908.48 651.69 908.48 650.89C908.5 650.07 908.51 649.34 908.51 648.7V645.94C908.51 644.68 908.33 643.82 907.97 643.36C907.63 642.88 907.05 642.64 906.23 642.64C905.77 642.64 905.31 642.72 904.85 642.88C904.41 643.02 903.96 643.25 903.5 643.57C903.04 643.87 902.55 644.26 902.03 644.74L901.73 643.6H902.03C902.53 642.98 903.08 642.44 903.68 641.98C904.28 641.5 904.91 641.13 905.57 640.87C906.23 640.61 906.9 640.48 907.58 640.48C908.84 640.48 909.79 640.9 910.43 641.74C911.09 642.56 911.42 643.9 911.42 645.76V648.7C911.42 649.34 911.42 650.07 911.42 650.89C911.44 651.69 911.46 652.46 911.48 653.2C911.5 653.94 911.52 654.54 911.54 655H908.42ZM920.171 655.39C919.291 655.39 918.491 655.29 917.771 655.09C917.071 654.91 916.361 654.62 915.641 654.22L915.611 650.74H917.111L918.011 654.52H916.751V653.14C917.271 653.5 917.801 653.77 918.341 653.95C918.901 654.11 919.521 654.19 920.201 654.19C920.901 654.19 921.481 654.1 921.941 653.92C922.401 653.72 922.751 653.45 922.991 653.11C923.231 652.75 923.351 652.35 923.351 651.91C923.351 651.27 923.111 650.76 922.631 650.38C922.171 649.98 921.491 649.63 920.591 649.33L919.301 648.85C918.621 648.59 918.001 648.28 917.441 647.92C916.901 647.56 916.481 647.12 916.181 646.6C915.881 646.08 915.731 645.47 915.731 644.77C915.731 643.99 915.931 643.28 916.331 642.64C916.731 641.98 917.321 641.46 918.101 641.08C918.881 640.68 919.841 640.48 920.981 640.48C921.801 640.48 922.541 640.58 923.201 640.78C923.881 640.98 924.541 641.27 925.181 641.65L925.031 644.83H923.591L922.811 641.56H924.011V642.79C923.531 642.41 923.041 642.14 922.541 641.98C922.061 641.8 921.531 641.71 920.951 641.71C920.091 641.71 919.431 641.9 918.971 642.28C918.511 642.64 918.281 643.13 918.281 643.75C918.281 644.41 918.491 644.92 918.911 645.28C919.331 645.62 920.021 645.97 920.981 646.33L921.971 646.66C922.871 646.98 923.611 647.35 924.191 647.77C924.791 648.19 925.231 648.66 925.511 649.18C925.811 649.7 925.961 650.31 925.961 651.01C925.961 651.85 925.731 652.6 925.271 653.26C924.831 653.92 924.181 654.44 923.321 654.82C922.481 655.2 921.431 655.39 920.171 655.39ZM927.731 662.26V661.24L930.881 660.7H932.021L935.351 661.24V662.26H927.731ZM929.891 662.26C929.911 661.56 929.921 660.85 929.921 660.13C929.941 659.41 929.951 658.68 929.951 657.94C929.971 657.22 929.981 656.52 929.981 655.84V647.23C929.981 646.67 929.971 646.19 929.951 645.79C929.951 645.37 929.941 644.98 929.921 644.62C929.921 644.26 929.911 643.88 929.891 643.48L927.671 643.15V642.22L932.231 640.48L932.621 640.75L932.801 643.27L932.891 643.42V652.63L932.831 652.84V655.81C932.831 656.47 932.831 657.17 932.831 657.91C932.851 658.65 932.861 659.38 932.861 660.1C932.881 660.84 932.901 661.56 932.921 662.26H929.891ZM936.761 655.39C936.181 655.39 935.621 655.3 935.081 655.12C934.561 654.94 934.051 654.64 933.551 654.22C933.051 653.8 932.581 653.23 932.141 652.51H931.571L931.841 651.04C932.541 651.94 933.211 652.6 933.851 653.02C934.511 653.42 935.211 653.62 935.951 653.62C936.671 653.62 937.311 653.42 937.871 653.02C938.431 652.62 938.881 652.01 939.221 651.19C939.581 650.35 939.761 649.29 939.761 648.01C939.761 646.09 939.421 644.65 938.741 643.69C938.061 642.73 937.191 642.25 936.131 642.25C935.711 642.25 935.271 642.35 934.811 642.55C934.351 642.75 933.871 643.04 933.371 643.42C932.871 643.8 932.351 644.29 931.811 644.89L931.541 643.45H932.171C932.651 642.79 933.151 642.24 933.671 641.8C934.211 641.36 934.771 641.03 935.351 640.81C935.931 640.59 936.541 640.48 937.181 640.48C938.241 640.48 939.191 640.77 940.031 641.35C940.891 641.91 941.571 642.74 942.071 643.84C942.591 644.92 942.851 646.25 942.851 647.83C942.851 649.39 942.571 650.74 942.011 651.88C941.471 653 940.741 653.87 939.821 654.49C938.921 655.09 937.901 655.39 936.761 655.39ZM945.104 655V654.01L948.164 653.47H949.184L952.124 654.01V655H945.104ZM947.114 655C947.134 654.54 947.144 653.94 947.144 653.2C947.164 652.44 947.174 651.66 947.174 650.86C947.194 650.04 947.204 649.32 947.204 648.7V647.32C947.204 646.48 947.194 645.78 947.174 645.22C947.174 644.66 947.154 644.08 947.114 643.48L944.894 643.15V642.22L949.814 640.48L950.234 640.75L950.144 644.83V648.7C950.144 649.32 950.144 650.04 950.144 650.86C950.164 651.66 950.174 652.44 950.174 653.2C950.194 653.94 950.214 654.54 950.234 655H947.114ZM948.554 637.63C947.974 637.63 947.484 637.45 947.084 637.09C946.704 636.71 946.514 636.24 946.514 635.68C946.514 635.1 946.704 634.63 947.084 634.27C947.484 633.91 947.974 633.73 948.554 633.73C949.114 633.73 949.584 633.91 949.964 634.27C950.364 634.63 950.564 635.1 950.564 635.68C950.564 636.24 950.364 636.71 949.964 637.09C949.584 637.45 949.114 637.63 948.554 637.63ZM954.071 655V654.01L957.161 653.47H958.361L961.541 654.01V655H954.071ZM956.081 655C956.101 654.54 956.111 653.94 956.111 653.2C956.131 652.44 956.141 651.66 956.141 650.86C956.161 650.04 956.171 649.32 956.171 648.7V647.23C956.171 646.67 956.161 646.19 956.141 645.79C956.141 645.37 956.131 644.98 956.111 644.62C956.111 644.26 956.101 643.88 956.081 643.48L953.861 643.15V642.22L958.421 640.48L958.841 640.75L959.081 644.65V644.74V648.7C959.081 649.32 959.081 650.04 959.081 650.86C959.101 651.66 959.111 652.44 959.111 653.2C959.131 653.94 959.161 654.54 959.201 655H956.081ZM958.991 646.84L958.451 644.89H958.901C959.221 643.93 959.611 643.13 960.071 642.49C960.531 641.83 961.041 641.33 961.601 640.99C962.181 640.65 962.751 640.48 963.311 640.48C963.811 640.48 964.261 640.6 964.661 640.84C965.081 641.06 965.361 641.4 965.501 641.86C965.501 642.52 965.341 643.03 965.021 643.39C964.701 643.75 964.261 643.93 963.701 643.93C963.341 643.93 963.001 643.86 962.681 643.72C962.381 643.56 962.081 643.33 961.781 643.03L961.001 642.19L962.321 642.1C961.541 642.52 960.871 643.13 960.311 643.93C959.751 644.71 959.311 645.68 958.991 646.84ZM970.395 655.39C969.315 655.39 968.395 655.08 967.635 654.46C966.875 653.84 966.495 652.93 966.495 651.73C966.495 651.13 966.625 650.56 966.885 650.02C967.165 649.48 967.665 648.98 968.385 648.52C969.105 648.04 970.155 647.6 971.535 647.2C971.995 647.06 972.475 646.92 972.975 646.78C973.475 646.64 973.985 646.5 974.505 646.36C975.025 646.2 975.565 646.05 976.125 645.91V646.87C975.385 647.09 974.695 647.31 974.055 647.53C973.415 647.73 972.825 647.92 972.285 648.1C971.465 648.38 970.855 648.7 970.455 649.06C970.055 649.4 969.785 649.76 969.645 650.14C969.505 650.5 969.435 650.86 969.435 651.22C969.435 652 969.645 652.57 970.065 652.93C970.505 653.27 971.045 653.44 971.685 653.44C972.045 653.44 972.375 653.39 972.675 653.29C972.995 653.17 973.375 652.97 973.815 652.69C974.255 652.41 974.825 651.99 975.525 651.43L975.885 652.84H974.925C974.385 653.42 973.885 653.9 973.425 654.28C972.965 654.66 972.495 654.94 972.015 655.12C971.555 655.3 971.015 655.39 970.395 655.39ZM977.445 655.33C976.565 655.33 975.875 655.07 975.375 654.55C974.895 654.03 974.645 653.33 974.625 652.45V652.33V645.4C974.625 644.44 974.535 643.7 974.355 643.18C974.175 642.64 973.885 642.27 973.485 642.07C973.085 641.85 972.565 641.74 971.925 641.74C971.565 641.74 971.175 641.78 970.755 641.86C970.355 641.92 969.885 642.05 969.345 642.25L970.635 641.32L970.065 643.75C969.945 644.31 969.745 644.73 969.465 645.01C969.185 645.29 968.835 645.43 968.415 645.43C967.975 645.43 967.635 645.32 967.395 645.1C967.155 644.88 967.005 644.57 966.945 644.17C967.165 643.05 967.795 642.16 968.835 641.5C969.895 640.82 971.225 640.48 972.825 640.48C973.905 640.48 974.785 640.66 975.465 641.02C976.165 641.36 976.675 641.91 976.995 642.67C977.335 643.43 977.505 644.43 977.505 645.67V652.21C977.505 652.75 977.595 653.14 977.775 653.38C977.955 653.62 978.185 653.74 978.465 653.74C978.705 653.74 978.905 653.68 979.065 653.56C979.245 653.44 979.425 653.27 979.605 653.05L980.175 653.59C979.855 654.19 979.465 654.63 979.005 654.91C978.565 655.19 978.045 655.33 977.445 655.33ZM984.346 642.34V640.87H989.566V642.34H984.346ZM986.356 655.39C985.276 655.39 984.416 655.11 983.776 654.55C983.136 653.97 982.816 653.09 982.816 651.91C982.816 651.45 982.816 651.02 982.816 650.62C982.836 650.2 982.846 649.68 982.846 649.06L982.876 642.34H980.536V641.14L984.106 640.66L982.846 641.59L984.166 636.64H985.936L985.786 641.41V641.89V651.61C985.786 652.37 985.936 652.92 986.236 653.26C986.536 653.58 986.926 653.74 987.406 653.74C987.746 653.74 988.066 653.67 988.366 653.53C988.686 653.39 989.016 653.19 989.356 652.93L989.986 653.59C989.726 653.97 989.416 654.3 989.056 654.58C988.716 654.84 988.326 655.04 987.886 655.18C987.446 655.32 986.936 655.39 986.356 655.39ZM991.071 655V654.01L994.131 653.47H995.151L998.091 654.01V655H991.071ZM993.081 655C993.101 654.54 993.111 653.94 993.111 653.2C993.131 652.44 993.141 651.66 993.141 650.86C993.161 650.04 993.171 649.32 993.171 648.7V647.32C993.171 646.48 993.161 645.78 993.141 645.22C993.141 644.66 993.121 644.08 993.081 643.48L990.861 643.15V642.22L995.781 640.48L996.201 640.75L996.111 644.83V648.7C996.111 649.32 996.111 650.04 996.111 650.86C996.131 651.66 996.141 652.44 996.141 653.2C996.161 653.94 996.181 654.54 996.201 655H993.081ZM994.521 637.63C993.941 637.63 993.451 637.45 993.051 637.09C992.671 636.71 992.481 636.24 992.481 635.68C992.481 635.1 992.671 634.63 993.051 634.27C993.451 633.91 993.941 633.73 994.521 633.73C995.081 633.73 995.551 633.91 995.931 634.27C996.331 634.63 996.531 635.1 996.531 635.68C996.531 636.24 996.331 636.71 995.931 637.09C995.551 637.45 995.081 637.63 994.521 637.63ZM1007.03 655.39C1005.79 655.39 1004.64 655.11 1003.58 654.55C1002.54 653.99 1001.7 653.16 1001.06 652.06C1000.44 650.94 1000.13 649.58 1000.13 647.98C1000.13 646.38 1000.45 645.02 1001.09 643.9C1001.75 642.78 1002.6 641.93 1003.64 641.35C1004.68 640.77 1005.81 640.48 1007.03 640.48C1008.23 640.48 1009.35 640.77 1010.39 641.35C1011.45 641.91 1012.3 642.75 1012.94 643.87C1013.58 644.97 1013.9 646.33 1013.9 647.95C1013.9 649.55 1013.58 650.91 1012.94 652.03C1012.3 653.13 1011.46 653.97 1010.42 654.55C1009.38 655.11 1008.25 655.39 1007.03 655.39ZM1007.03 654.19C1007.81 654.19 1008.47 653.96 1009.01 653.5C1009.55 653.04 1009.97 652.35 1010.27 651.43C1010.57 650.51 1010.72 649.36 1010.72 647.98C1010.72 646.58 1010.57 645.42 1010.27 644.5C1009.97 643.56 1009.55 642.86 1009.01 642.4C1008.47 641.94 1007.81 641.71 1007.03 641.71C1006.23 641.71 1005.55 641.95 1004.99 642.43C1004.45 642.89 1004.04 643.59 1003.76 644.53C1003.48 645.45 1003.34 646.6 1003.34 647.98C1003.34 649.36 1003.48 650.51 1003.76 651.43C1004.04 652.35 1004.45 653.04 1004.99 653.5C1005.55 653.96 1006.23 654.19 1007.03 654.19ZM1016.21 655V654.01L1019.27 653.47H1020.32L1023.23 654.01V655H1016.21ZM1018.25 655C1018.27 654.54 1018.28 653.94 1018.28 653.2C1018.3 652.44 1018.31 651.66 1018.31 650.86C1018.33 650.04 1018.34 649.32 1018.34 648.7V647.23C1018.34 646.67 1018.33 646.19 1018.31 645.79C1018.31 645.37 1018.3 644.98 1018.28 644.62C1018.28 644.26 1018.27 643.88 1018.25 643.48L1016.03 643.15V642.22L1020.59 640.48L1021.01 640.75L1021.25 644.08V644.11V648.7C1021.25 649.32 1021.25 650.04 1021.25 650.86C1021.27 651.66 1021.28 652.44 1021.28 653.2C1021.3 653.94 1021.33 654.54 1021.37 655H1018.25ZM1025.18 655V654.01L1028.24 653.47H1029.26L1032.2 654.01V655H1025.18ZM1027.19 655C1027.21 654.54 1027.22 653.94 1027.22 653.2C1027.24 652.46 1027.25 651.69 1027.25 650.89C1027.27 650.07 1027.28 649.34 1027.28 648.7V645.94C1027.28 644.68 1027.1 643.82 1026.74 643.36C1026.4 642.88 1025.82 642.64 1025 642.64C1024.54 642.64 1024.08 642.72 1023.62 642.88C1023.18 643.02 1022.73 643.25 1022.27 643.57C1021.81 643.87 1021.32 644.26 1020.8 644.74L1020.5 643.6H1020.8C1021.3 642.98 1021.85 642.44 1022.45 641.98C1023.05 641.5 1023.68 641.13 1024.34 640.87C1025 640.61 1025.67 640.48 1026.35 640.48C1027.61 640.48 1028.56 640.9 1029.2 641.74C1029.86 642.56 1030.19 643.9 1030.19 645.76V648.7C1030.19 649.34 1030.19 650.07 1030.19 650.89C1030.21 651.69 1030.23 652.46 1030.25 653.2C1030.27 653.94 1030.29 654.54 1030.31 655H1027.19Z" fill="#FFF9F2"/>
<mask id="path-11-inside-3_0_1325" fill="white">
<path d="M738 727H1033V891H738V727Z"/>
</mask>
<path d="M1033 891V890H738V891V892H1033V891Z" fill="#FFF9F2" mask="url(#path-11-inside-3_0_1325)"/>
<path d="M783.28 811V796.48H805.84V740.32H804.76L787.72 762.64L776.2 753.64L796.24 727.24H823.84V796.48H841.6V811H783.28ZM906.594 742.96H868.554L866.754 769.48H867.714C868.514 767.48 869.394 765.68 870.354 764.08C871.394 762.4 872.594 761 873.954 759.88C875.314 758.68 876.954 757.76 878.874 757.12C880.794 756.48 883.074 756.16 885.714 756.16C889.314 756.16 892.674 756.76 895.794 757.96C898.914 759.16 901.634 760.92 903.954 763.24C906.274 765.48 908.114 768.28 909.474 771.64C910.834 774.92 911.514 778.64 911.514 782.8C911.514 787.04 910.794 791 909.354 794.68C907.994 798.28 905.914 801.4 903.114 804.04C900.394 806.68 897.034 808.76 893.034 810.28C889.034 811.72 884.474 812.44 879.354 812.44C875.274 812.44 871.674 812 868.554 811.12C865.434 810.24 862.674 809.08 860.274 807.64C857.874 806.12 855.794 804.4 854.034 802.48C852.274 800.56 850.754 798.52 849.474 796.36L862.554 786.04C864.394 789.32 866.594 792.12 869.154 794.44C871.714 796.68 875.154 797.8 879.474 797.8C883.794 797.8 887.034 796.56 889.194 794.08C891.434 791.6 892.554 788.32 892.554 784.24V783.28C892.554 779.44 891.434 776.4 889.194 774.16C886.954 771.92 883.874 770.8 879.954 770.8C876.674 770.8 873.954 771.48 871.794 772.84C869.714 774.12 868.114 775.4 866.994 776.68L852.234 774.64L855.354 727.24H906.594V742.96ZM937.387 811L995.467 727.24H1011.31L953.227 811H937.387ZM943.507 773.32C936.467 773.32 931.107 771.32 927.427 767.32C923.747 763.32 921.907 757.4 921.907 749.56C921.907 741.72 923.747 735.8 927.427 731.8C931.107 727.8 936.467 725.8 943.507 725.8C950.547 725.8 955.907 727.8 959.587 731.8C963.267 735.8 965.107 741.72 965.107 749.56C965.107 757.4 963.267 763.32 959.587 767.32C955.907 771.32 950.547 773.32 943.507 773.32ZM943.507 763C945.587 763 947.147 762.2 948.187 760.6C949.227 758.92 949.747 756.28 949.747 752.68V746.44C949.747 742.84 949.227 740.24 948.187 738.64C947.147 736.96 945.587 736.12 943.507 736.12C941.427 736.12 939.867 736.96 938.827 738.64C937.787 740.24 937.267 742.84 937.267 746.44V752.68C937.267 756.28 937.787 758.92 938.827 760.6C939.867 762.2 941.427 763 943.507 763ZM1005.19 812.44C998.147 812.44 992.787 810.44 989.107 806.44C985.427 802.44 983.587 796.52 983.587 788.68C983.587 780.84 985.427 774.92 989.107 770.92C992.787 766.92 998.147 764.92 1005.19 764.92C1012.23 764.92 1017.59 766.92 1021.27 770.92C1024.95 774.92 1026.79 780.84 1026.79 788.68C1026.79 796.52 1024.95 802.44 1021.27 806.44C1017.59 810.44 1012.23 812.44 1005.19 812.44ZM1005.19 802.12C1007.27 802.12 1008.83 801.32 1009.87 799.72C1010.91 798.04 1011.43 795.4 1011.43 791.8V785.56C1011.43 781.96 1010.91 779.36 1009.87 777.76C1008.83 776.08 1007.27 775.24 1005.19 775.24C1003.11 775.24 1001.55 776.08 1000.51 777.76C999.467 779.36 998.947 781.96 998.947 785.56V791.8C998.947 795.4 999.467 798.04 1000.51 799.72C1001.55 801.32 1003.11 802.12 1005.19 802.12Z" fill="#D7D334"/>
<path d="M802.735 855.48C801.575 855.48 800.455 855.26 799.375 854.82C798.295 854.36 797.325 853.69 796.465 852.81C795.625 851.93 794.955 850.84 794.455 849.54C793.955 848.24 793.705 846.72 793.705 844.98C793.705 843.32 793.955 841.84 794.455 840.54C794.955 839.24 795.625 838.15 796.465 837.27C797.325 836.37 798.295 835.69 799.375 835.23C800.455 834.75 801.575 834.51 802.735 834.51C803.895 834.51 805.015 834.74 806.095 835.2C807.175 835.64 808.135 836.31 808.975 837.21C809.815 838.09 810.485 839.18 810.985 840.48C811.505 841.78 811.765 843.29 811.765 845.01C811.765 846.67 811.515 848.15 811.015 849.45C810.515 850.75 809.835 851.85 808.975 852.75C808.135 853.65 807.175 854.33 806.095 854.79C805.015 855.25 803.895 855.48 802.735 855.48ZM802.735 854.13C803.695 854.13 804.525 853.89 805.225 853.41C805.925 852.91 806.495 852.24 806.935 851.4C807.375 850.56 807.695 849.59 807.895 848.49C808.095 847.39 808.195 846.23 808.195 845.01C808.195 843.81 808.095 842.66 807.895 841.56C807.695 840.46 807.375 839.48 806.935 838.62C806.495 837.76 805.925 837.09 805.225 836.61C804.525 836.11 803.695 835.86 802.735 835.86C801.775 835.86 800.945 836.11 800.245 836.61C799.545 837.09 798.975 837.76 798.535 838.62C798.095 839.46 797.765 840.43 797.545 841.53C797.345 842.63 797.245 843.78 797.245 844.98C797.245 846.2 797.345 847.36 797.545 848.46C797.765 849.56 798.095 850.54 798.535 851.4C798.975 852.24 799.545 852.91 800.245 853.41C800.945 853.89 801.775 854.13 802.735 854.13ZM821.228 855.39C819.988 855.39 818.838 855.11 817.778 854.55C816.738 853.99 815.898 853.16 815.258 852.06C814.638 850.94 814.328 849.58 814.328 847.98C814.328 846.38 814.648 845.02 815.288 843.9C815.948 842.78 816.798 841.93 817.838 841.35C818.878 840.77 820.008 840.48 821.228 840.48C822.428 840.48 823.548 840.77 824.588 841.35C825.648 841.91 826.498 842.75 827.138 843.87C827.778 844.97 828.098 846.33 828.098 847.95C828.098 849.55 827.778 850.91 827.138 852.03C826.498 853.13 825.658 853.97 824.618 854.55C823.578 855.11 822.448 855.39 821.228 855.39ZM821.228 854.19C822.008 854.19 822.668 853.96 823.208 853.5C823.748 853.04 824.168 852.35 824.468 851.43C824.768 850.51 824.918 849.36 824.918 847.98C824.918 846.58 824.768 845.42 824.468 844.5C824.168 843.56 823.748 842.86 823.208 842.4C822.668 841.94 822.008 841.71 821.228 841.71C820.428 841.71 819.748 841.95 819.188 842.43C818.648 842.89 818.238 843.59 817.958 844.53C817.678 845.45 817.538 846.6 817.538 847.98C817.538 849.36 817.678 850.51 817.958 851.43C818.238 852.35 818.648 853.04 819.188 853.5C819.748 853.96 820.428 854.19 821.228 854.19ZM829.965 855V854.01L833.055 853.47H834.075L836.985 854.01V855H829.965ZM832.005 855C832.045 854.54 832.065 853.94 832.065 853.2C832.085 852.44 832.095 851.66 832.095 850.86C832.115 850.04 832.125 849.32 832.125 848.7V835.47L829.815 835.11V834.18L834.675 832.86L835.065 833.13L834.945 837.81V843.78L835.005 844.08V848.7C835.005 849.32 835.005 850.04 835.005 850.86C835.025 851.66 835.045 852.44 835.065 853.2C835.085 853.94 835.105 854.54 835.125 855H832.005ZM839.055 855V854.01L842.085 853.47H843.135L846.045 854.01V855H839.055ZM841.035 855C841.055 854.54 841.065 853.94 841.065 853.2C841.085 852.46 841.095 851.69 841.095 850.89C841.115 850.07 841.125 849.34 841.125 848.7V845.94C841.125 844.68 840.945 843.82 840.585 843.36C840.245 842.88 839.675 842.64 838.875 842.64C838.415 842.64 837.955 842.72 837.495 842.88C837.055 843.02 836.605 843.25 836.145 843.57C835.685 843.89 835.195 844.3 834.675 844.8L834.255 843.66H834.555C835.055 843.04 835.605 842.49 836.205 842.01C836.825 841.53 837.465 841.16 838.125 840.9C838.805 840.62 839.495 840.48 840.195 840.48C841.455 840.48 842.415 840.9 843.075 841.74C843.735 842.56 844.065 843.9 844.065 845.76V848.7C844.065 849.34 844.065 850.07 844.065 850.89C844.085 851.69 844.095 852.46 844.095 853.2C844.115 853.94 844.135 854.54 844.155 855H841.035ZM848.767 860.04L848.317 858.99C848.997 858.67 849.557 858.33 849.997 857.97C850.437 857.63 850.797 857.22 851.077 856.74C851.357 856.28 851.577 855.72 851.737 855.06L852.067 856.08L850.447 855.15C849.987 854.87 849.647 854.57 849.427 854.25C849.227 853.93 849.127 853.58 849.127 853.2C849.127 852.64 849.297 852.17 849.637 851.79C849.997 851.39 850.517 851.19 851.197 851.19C851.517 851.19 851.817 851.24 852.097 851.34C852.397 851.44 852.697 851.65 852.997 851.97C853.117 852.31 853.187 852.65 853.207 852.99C853.247 853.33 853.267 853.67 853.267 854.01C853.267 855.03 853.057 855.93 852.637 856.71C852.237 857.51 851.697 858.19 851.017 858.75C850.337 859.31 849.587 859.74 848.767 860.04ZM869.219 855.48C868.119 855.48 867.049 855.33 866.009 855.03C864.989 854.73 864.119 854.35 863.399 853.89L863.579 849.57H865.289L866.189 854.4L864.329 853.59V852.39C864.929 852.79 865.469 853.12 865.949 853.38C866.449 853.64 866.949 853.83 867.449 853.95C867.949 854.07 868.519 854.13 869.159 854.13C870.039 854.13 870.799 853.99 871.439 853.71C872.099 853.43 872.609 853.02 872.969 852.48C873.329 851.92 873.509 851.25 873.509 850.47C873.509 849.81 873.369 849.26 873.089 848.82C872.829 848.38 872.439 847.99 871.919 847.65C871.419 847.31 870.779 846.99 869.999 846.69L868.859 846.18C867.879 845.76 866.999 845.28 866.219 844.74C865.459 844.2 864.859 843.55 864.419 842.79C863.979 842.03 863.759 841.12 863.759 840.06C863.759 838.9 864.049 837.91 864.629 837.09C865.209 836.27 865.999 835.64 866.999 835.2C868.019 834.74 869.179 834.51 870.479 834.51C871.479 834.51 872.389 834.65 873.209 834.93C874.049 835.19 874.789 835.56 875.429 836.04L875.249 840.12H873.599L872.609 835.47L874.529 836.34L874.559 837.66C873.819 836.98 873.129 836.51 872.489 836.25C871.869 835.99 871.169 835.86 870.389 835.86C869.669 835.86 869.019 835.99 868.439 836.25C867.859 836.49 867.389 836.87 867.029 837.39C866.689 837.89 866.519 838.52 866.519 839.28C866.519 839.9 866.649 840.45 866.909 840.93C867.189 841.39 867.579 841.8 868.079 842.16C868.579 842.52 869.169 842.84 869.849 843.12L871.049 843.6C872.229 844.1 873.209 844.63 873.989 845.19C874.769 845.75 875.349 846.39 875.729 847.11C876.129 847.83 876.329 848.7 876.329 849.72C876.329 850.88 876.039 851.9 875.459 852.78C874.879 853.64 874.059 854.31 872.999 854.79C871.939 855.25 870.679 855.48 869.219 855.48ZM878.07 855V854.01L881.16 853.47H882.18L885.09 854.01V855H878.07ZM880.11 855C880.15 854.54 880.17 853.94 880.17 853.2C880.19 852.44 880.2 851.66 880.2 850.86C880.22 850.04 880.23 849.32 880.23 848.7V835.47L877.92 835.11V834.18L882.78 832.86L883.17 833.13L883.05 837.81V843.78L883.11 844.08V848.7C883.11 849.32 883.11 850.04 883.11 850.86C883.13 851.66 883.15 852.44 883.17 853.2C883.19 853.94 883.21 854.54 883.23 855H880.11ZM887.16 855V854.01L890.19 853.47H891.24L894.15 854.01V855H887.16ZM889.14 855C889.16 854.54 889.17 853.94 889.17 853.2C889.19 852.46 889.2 851.69 889.2 850.89C889.22 850.07 889.23 849.34 889.23 848.7V845.94C889.23 844.68 889.05 843.82 888.69 843.36C888.35 842.88 887.78 842.64 886.98 842.64C886.52 842.64 886.06 842.72 885.6 842.88C885.16 843.02 884.71 843.25 884.25 843.57C883.79 843.89 883.3 844.3 882.78 844.8L882.36 843.66H882.66C883.16 843.04 883.71 842.49 884.31 842.01C884.93 841.53 885.57 841.16 886.23 840.9C886.91 840.62 887.6 840.48 888.3 840.48C889.56 840.48 890.52 840.9 891.18 841.74C891.84 842.56 892.17 843.9 892.17 845.76V848.7C892.17 849.34 892.17 850.07 892.17 850.89C892.19 851.69 892.2 852.46 892.2 853.2C892.22 853.94 892.24 854.54 892.26 855H889.14ZM896.003 855V854.01L899.063 853.47H900.083L903.023 854.01V855H896.003ZM898.013 855C898.033 854.54 898.043 853.94 898.043 853.2C898.063 852.44 898.073 851.66 898.073 850.86C898.093 850.04 898.103 849.32 898.103 848.7V847.32C898.103 846.48 898.093 845.78 898.073 845.22C898.073 844.66 898.053 844.08 898.013 843.48L895.793 843.15V842.22L900.713 840.48L901.133 840.75L901.043 844.83V848.7C901.043 849.32 901.043 850.04 901.043 850.86C901.063 851.66 901.073 852.44 901.073 853.2C901.093 853.94 901.113 854.54 901.133 855H898.013ZM899.453 837.63C898.873 837.63 898.383 837.45 897.983 837.09C897.603 836.71 897.413 836.24 897.413 835.68C897.413 835.1 897.603 834.63 897.983 834.27C898.383 833.91 898.873 833.73 899.453 833.73C900.013 833.73 900.483 833.91 900.863 834.27C901.263 834.63 901.463 835.1 901.463 835.68C901.463 836.24 901.263 836.71 900.863 837.09C900.483 837.45 900.013 837.63 899.453 837.63ZM904.94 855V854.01L908 853.47H909.05L911.96 854.01V855H904.94ZM906.98 855C907 854.54 907.01 853.94 907.01 853.2C907.03 852.44 907.04 851.66 907.04 850.86C907.06 850.04 907.07 849.32 907.07 848.7V847.23C907.07 846.67 907.06 846.19 907.04 845.79C907.04 845.37 907.03 844.98 907.01 844.62C907.01 844.26 907 843.88 906.98 843.48L904.76 843.15V842.22L909.32 840.48L909.74 840.75L909.98 844.08V844.11V848.7C909.98 849.32 909.98 850.04 909.98 850.86C910 851.66 910.01 852.44 910.01 853.2C910.03 853.94 910.06 854.54 910.1 855H906.98ZM913.91 855V854.01L916.97 853.47H917.99L920.93 854.01V855H913.91ZM915.92 855C915.94 854.54 915.95 853.94 915.95 853.2C915.97 852.46 915.98 851.69 915.98 850.89C916 850.07 916.01 849.34 916.01 848.7V845.94C916.01 844.68 915.83 843.82 915.47 843.36C915.13 842.88 914.55 842.64 913.73 842.64C913.27 842.64 912.81 842.72 912.35 842.88C911.91 843.02 911.46 843.25 911 843.57C910.54 843.87 910.05 844.26 909.53 844.74L909.23 843.6H909.53C910.03 842.98 910.58 842.44 911.18 841.98C911.78 841.5 912.41 841.13 913.07 840.87C913.73 840.61 914.4 840.48 915.08 840.48C916.34 840.48 917.29 840.9 917.93 841.74C918.59 842.56 918.92 843.9 918.92 845.76V848.7C918.92 849.34 918.92 850.07 918.92 850.89C918.94 851.69 918.96 852.46 918.98 853.2C919 853.94 919.02 854.54 919.04 855H915.92ZM923.462 862.47C923.002 862.47 922.572 862.39 922.172 862.23C921.772 862.09 921.442 861.87 921.182 861.57C920.942 861.29 920.802 860.96 920.762 860.58C920.862 860.12 921.092 859.77 921.452 859.53C921.832 859.31 922.262 859.2 922.742 859.2C923.122 859.2 923.482 859.28 923.822 859.44C924.182 859.6 924.552 859.89 924.932 860.31L925.802 861.24L924.872 861.78L924.092 861.33C924.672 861.01 925.182 860.59 925.622 860.07C926.082 859.57 926.492 858.99 926.852 858.33C927.212 857.67 927.522 856.97 927.782 856.23L928.442 854.43L928.502 854.19L931.112 846.96L933.302 840.87H934.832L929.282 855.54C928.702 857.08 928.122 858.36 927.542 859.38C926.962 860.42 926.342 861.19 925.682 861.69C925.042 862.21 924.302 862.47 923.462 862.47ZM928.232 856.38L921.992 840.87H925.292L929.552 852.45L929.492 853.32L928.232 856.38ZM920.942 841.86V840.87H928.232V841.86L924.992 842.28H923.732L920.942 841.86ZM930.482 841.83V840.87H935.972V841.86L933.812 842.25H933.272L930.482 841.83ZM946.68 855V853.89L950.73 853.44H951.66L955.71 853.89V855H946.68ZM949.53 855C949.57 854.04 949.59 853.05 949.59 852.03C949.61 850.99 949.62 849.93 949.62 848.85C949.62 847.77 949.62 846.71 949.62 845.67V844.29C949.62 843.25 949.62 842.2 949.62 841.14C949.62 840.08 949.61 839.03 949.59 837.99C949.59 836.95 949.57 835.95 949.53 834.99H952.86C952.84 835.93 952.82 836.93 952.8 837.99C952.78 839.03 952.77 840.08 952.77 841.14C952.77 842.2 952.77 843.25 952.77 844.29V845.67C952.77 846.69 952.77 847.74 952.77 848.82C952.77 849.88 952.78 850.93 952.8 851.97C952.82 853.01 952.84 854.02 952.86 855H949.53ZM942.84 840.45L943.08 834.99H959.31L959.58 840.45H957.99L956.85 835.08L958.29 836.34H944.1L945.54 835.08L944.4 840.45H942.84ZM961.098 855V854.01L964.188 853.47H965.208L968.118 854.01V855H961.098ZM963.138 855C963.178 854.54 963.198 853.94 963.198 853.2C963.218 852.44 963.228 851.66 963.228 850.86C963.248 850.04 963.258 849.32 963.258 848.7V835.47L960.948 835.11V834.18L965.808 832.86L966.198 833.13L966.078 837.81V843.78L966.138 844.08V848.7C966.138 849.32 966.138 850.04 966.138 850.86C966.158 851.66 966.178 852.44 966.198 853.2C966.218 853.94 966.238 854.54 966.258 855H963.138ZM970.188 855V854.01L973.218 853.47H974.268L977.178 854.01V855H970.188ZM972.168 855C972.188 854.54 972.198 853.94 972.198 853.2C972.218 852.46 972.228 851.69 972.228 850.89C972.248 850.07 972.258 849.34 972.258 848.7V845.94C972.258 844.68 972.078 843.82 971.718 843.36C971.378 842.88 970.808 842.64 970.008 842.64C969.548 842.64 969.088 842.72 968.628 842.88C968.188 843.02 967.738 843.25 967.278 843.57C966.818 843.89 966.328 844.3 965.808 844.8L965.388 843.66H965.688C966.188 843.04 966.738 842.49 967.338 842.01C967.958 841.53 968.598 841.16 969.258 840.9C969.938 840.62 970.628 840.48 971.328 840.48C972.588 840.48 973.548 840.9 974.208 841.74C974.868 842.56 975.198 843.9 975.198 845.76V848.7C975.198 849.34 975.198 850.07 975.198 850.89C975.218 851.69 975.228 852.46 975.228 853.2C975.248 853.94 975.268 854.54 975.288 855H972.168ZM979.03 855V854.01L982.09 853.47H983.11L986.05 854.01V855H979.03ZM981.04 855C981.06 854.54 981.07 853.94 981.07 853.2C981.09 852.44 981.1 851.66 981.1 850.86C981.12 850.04 981.13 849.32 981.13 848.7V847.32C981.13 846.48 981.12 845.78 981.1 845.22C981.1 844.66 981.08 844.08 981.04 843.48L978.82 843.15V842.22L983.74 840.48L984.16 840.75L984.07 844.83V848.7C984.07 849.32 984.07 850.04 984.07 850.86C984.09 851.66 984.1 852.44 984.1 853.2C984.12 853.94 984.14 854.54 984.16 855H981.04ZM982.48 837.63C981.9 837.63 981.41 837.45 981.01 837.09C980.63 836.71 980.44 836.24 980.44 835.68C980.44 835.1 980.63 834.63 981.01 834.27C981.41 833.91 981.9 833.73 982.48 833.73C983.04 833.73 983.51 833.91 983.89 834.27C984.29 834.63 984.49 835.1 984.49 835.68C984.49 836.24 984.29 836.71 983.89 837.09C983.51 837.45 983.04 837.63 982.48 837.63ZM987.967 855V854.01L991.027 853.47H992.077L994.987 854.01V855H987.967ZM990.007 855C990.027 854.54 990.037 853.94 990.037 853.2C990.057 852.44 990.067 851.66 990.067 850.86C990.087 850.04 990.097 849.32 990.097 848.7V847.23C990.097 846.67 990.087 846.19 990.067 845.79C990.067 845.37 990.057 844.98 990.037 844.62C990.037 844.26 990.027 843.88 990.007 843.48L987.787 843.15V842.22L992.347 840.48L992.767 840.75L993.007 844.08V844.11V848.7C993.007 849.32 993.007 850.04 993.007 850.86C993.027 851.66 993.037 852.44 993.037 853.2C993.057 853.94 993.087 854.54 993.127 855H990.007ZM996.937 855V854.01L999.997 853.47H1001.02L1003.96 854.01V855H996.937ZM998.947 855C998.967 854.54 998.977 853.94 998.977 853.2C998.997 852.46 999.007 851.69 999.007 850.89C999.027 850.07 999.037 849.34 999.037 848.7V845.94C999.037 844.68 998.857 843.82 998.497 843.36C998.157 842.88 997.577 842.64 996.757 842.64C996.297 842.64 995.837 842.72 995.377 842.88C994.937 843.02 994.487 843.25 994.027 843.57C993.567 843.87 993.077 844.26 992.557 844.74L992.257 843.6H992.557C993.057 842.98 993.607 842.44 994.207 841.98C994.807 841.5 995.437 841.13 996.097 840.87C996.757 840.61 997.427 840.48 998.107 840.48C999.367 840.48 1000.32 840.9 1000.96 841.74C1001.62 842.56 1001.95 843.9 1001.95 845.76V848.7C1001.95 849.34 1001.95 850.07 1001.95 850.89C1001.97 851.69 1001.99 852.46 1002.01 853.2C1002.03 853.94 1002.05 854.54 1002.07 855H998.947ZM1011.42 862.26C1010.06 862.26 1008.95 862.1 1008.09 861.78C1007.25 861.48 1006.63 861.05 1006.23 860.49C1005.83 859.95 1005.63 859.34 1005.63 858.66C1005.63 858.14 1005.76 857.66 1006.02 857.22C1006.3 856.8 1006.73 856.39 1007.31 855.99C1007.91 855.61 1008.68 855.25 1009.62 854.91L1009.8 855.12C1009.44 855.42 1009.13 855.72 1008.87 856.02C1008.63 856.34 1008.44 856.66 1008.3 856.98C1008.18 857.32 1008.12 857.71 1008.12 858.15C1008.12 858.79 1008.27 859.32 1008.57 859.74C1008.89 860.16 1009.33 860.47 1009.89 860.67C1010.47 860.87 1011.16 860.97 1011.96 860.97C1013.04 860.97 1013.94 860.83 1014.66 860.55C1015.4 860.27 1015.95 859.9 1016.31 859.44C1016.69 858.98 1016.88 858.46 1016.88 857.88C1016.88 857.2 1016.65 856.65 1016.19 856.23C1015.75 855.81 1015.01 855.6 1013.97 855.6H1010.64C1010.34 855.6 1010.04 855.59 1009.74 855.57C1009.44 855.55 1009.16 855.51 1008.9 855.45L1008.87 855.36C1008.11 855.22 1007.52 854.94 1007.1 854.52C1006.7 854.08 1006.5 853.53 1006.5 852.87C1006.5 852.27 1006.69 851.69 1007.07 851.13C1007.47 850.55 1008.1 849.91 1008.96 849.21V848.91L1009.83 849.39C1009.43 849.79 1009.14 850.16 1008.96 850.5C1008.78 850.84 1008.69 851.17 1008.69 851.49C1008.69 852.03 1008.86 852.43 1009.2 852.69C1009.54 852.93 1010.06 853.05 1010.76 853.05H1014.36C1015.5 853.05 1016.44 853.2 1017.18 853.5C1017.92 853.8 1018.47 854.24 1018.83 854.82C1019.19 855.38 1019.37 856.07 1019.37 856.89C1019.37 857.57 1019.2 858.23 1018.86 858.87C1018.52 859.51 1018.02 860.08 1017.36 860.58C1016.7 861.1 1015.87 861.51 1014.87 861.81C1013.89 862.11 1012.74 862.26 1011.42 862.26ZM1011.84 850.23C1010.76 850.23 1009.8 850.04 1008.96 849.66C1008.14 849.28 1007.5 848.73 1007.04 848.01C1006.58 847.29 1006.35 846.41 1006.35 845.37C1006.35 844.33 1006.58 843.45 1007.04 842.73C1007.52 841.99 1008.17 841.43 1008.99 841.05C1009.83 840.67 1010.79 840.48 1011.87 840.48C1012.49 840.48 1013.06 840.54 1013.58 840.66C1014.12 840.78 1014.61 840.96 1015.05 841.2C1015.49 841.44 1015.87 841.74 1016.19 842.1L1016.28 842.19C1016.62 842.57 1016.88 843.03 1017.06 843.57C1017.24 844.09 1017.33 844.68 1017.33 845.34C1017.33 846.36 1017.09 847.24 1016.61 847.98C1016.15 848.7 1015.51 849.26 1014.69 849.66C1013.87 850.04 1012.92 850.23 1011.84 850.23ZM1011.81 849.15C1012.39 849.15 1012.89 848.99 1013.31 848.67C1013.73 848.35 1014.05 847.9 1014.27 847.32C1014.49 846.74 1014.6 846.06 1014.6 845.28C1014.6 844.5 1014.49 843.84 1014.27 843.3C1014.05 842.74 1013.74 842.31 1013.34 842.01C1012.94 841.71 1012.45 841.56 1011.87 841.56C1011.31 841.56 1010.82 841.72 1010.4 842.04C1009.98 842.34 1009.66 842.78 1009.44 843.36C1009.22 843.92 1009.11 844.59 1009.11 845.37C1009.11 846.15 1009.21 846.83 1009.41 847.41C1009.63 847.97 1009.94 848.4 1010.34 848.7C1010.74 849 1011.23 849.15 1011.81 849.15ZM1015.26 842.73V841.95H1015.44L1019.16 840.45L1019.55 840.75V842.73H1015.26ZM1026.11 855.39C1025.23 855.39 1024.43 855.29 1023.71 855.09C1023.01 854.91 1022.3 854.62 1021.58 854.22L1021.55 850.74H1023.05L1023.95 854.52H1022.69V853.14C1023.21 853.5 1023.74 853.77 1024.28 853.95C1024.84 854.11 1025.46 854.19 1026.14 854.19C1026.84 854.19 1027.42 854.1 1027.88 853.92C1028.34 853.72 1028.69 853.45 1028.93 853.11C1029.17 852.75 1029.29 852.35 1029.29 851.91C1029.29 851.27 1029.05 850.76 1028.57 850.38C1028.11 849.98 1027.43 849.63 1026.53 849.33L1025.24 848.85C1024.56 848.59 1023.94 848.28 1023.38 847.92C1022.84 847.56 1022.42 847.12 1022.12 846.6C1021.82 846.08 1021.67 845.47 1021.67 844.77C1021.67 843.99 1021.87 843.28 1022.27 842.64C1022.67 841.98 1023.26 841.46 1024.04 841.08C1024.82 840.68 1025.78 840.48 1026.92 840.48C1027.74 840.48 1028.48 840.58 1029.14 840.78C1029.82 840.98 1030.48 841.27 1031.12 841.65L1030.97 844.83H1029.53L1028.75 841.56H1029.95V842.79C1029.47 842.41 1028.98 842.14 1028.48 841.98C1028 841.8 1027.47 841.71 1026.89 841.71C1026.03 841.71 1025.37 841.9 1024.91 842.28C1024.45 842.64 1024.22 843.13 1024.22 843.75C1024.22 844.41 1024.43 844.92 1024.85 845.28C1025.27 845.62 1025.96 845.97 1026.92 846.33L1027.91 846.66C1028.81 846.98 1029.55 847.35 1030.13 847.77C1030.73 848.19 1031.17 848.66 1031.45 849.18C1031.75 849.7 1031.9 850.31 1031.9 851.01C1031.9 851.85 1031.67 852.6 1031.21 853.26C1030.77 853.92 1030.12 854.44 1029.26 854.82C1028.42 855.2 1027.37 855.39 1026.11 855.39Z" fill="#FFF9F2"/>
</svg>
